<svg width="352" height="258" viewBox="0 0 352 258" fill="none" xmlns="http://www.w3.org/2000/svg">
<ellipse cx="185" cy="237" rx="116" ry="21" fill="#F2F2F2"/>
<path d="M174.663 155.44L291.073 10L152.907 139.83V183.363L174.663 155.44Z" fill="#E6E6E6"/>
<path d="M291.073 10L101 105.564L152.907 139.83M291.073 10L236.875 196.94L174.663 155.44M291.073 10L174.663 155.44M291.073 10L152.907 139.83M174.663 155.44L152.907 183.363V139.83" stroke="#CCCCCC" stroke-width="2" stroke-linejoin="round"/>
<path d="M236.875 196.94L291.072 10L174.662 155.44L236.875 196.94Z" fill="white" stroke="#CCCCCC" stroke-width="2" stroke-linejoin="round"/>
<path d="M291.073 10L101 105.564L152.907 139.83L291.073 10Z" fill="white" stroke="#CCCCCC" stroke-width="2" stroke-linejoin="round"/>
<path d="M83.1625 180.961C87.6075 182.183 91.3507 184.73 91.7239 187.706C90.9869 190.761 85.297 191.622 80.9273 190.527C75.9662 189.283 68.8399 181.299 69.2819 181.533C74.6366 182.105 78.2238 179.604 83.1625 180.961Z" stroke="#CCCCCC" stroke-width="2" stroke-linecap="round" stroke-linejoin="round"/>
<path d="M88.5692 186.984C85.2679 186.602 80.8229 185.38 76.8198 184.392" stroke="#CCCCCC" stroke-width="2" stroke-linecap="round" stroke-linejoin="round"/>
<path d="M132.74 176.517C126.647 185.665 114.292 188.612 108.604 181.502C103.647 175.309 108.812 166.781 114.504 168.419C119.884 169.967 118.16 177.711 115.978 182.867C113.669 188.326 105.836 190.968 99.626 188.802" stroke="#CCCCCC" stroke-width="2" stroke-linejoin="round"/>
<path d="M190.669 204.871C186.599 216.245 199.58 220.332 202.284 216.382C203.861 214.079 201.438 209.715 198.239 210.313C194.067 211.095 191.408 223.598 198.887 228.262" stroke="#CCCCCC" stroke-width="2" stroke-linejoin="round"/>
<path fill-rule="evenodd" clip-rule="evenodd" d="M137.981 19H137V18.9439C133.608 18.56 131 16.2517 131 13.4616C131 10.9815 133.06 8.88211 135.901 8.1765C135.951 4.20455 139.222 1 143.25 1C147.192 1 150.409 4.06913 150.592 7.92308L150.6 7.92308C155.239 7.92308 159 10.4027 159 13.4615C159 16.4319 155.453 18.8562 151 18.9938V19H150.6H138.019C138.012 19 138.006 19 138 19C137.994 19 137.988 19 137.981 19Z" fill="#F7F7F7"/>
<path d="M137.981 19V18L137.984 18L137.981 19ZM137 19V20C136.448 20 136 19.5523 136 19H137ZM137 18.9439L137.112 17.9503C137.618 18.0075 138 18.4352 138 18.9439H137ZM135.901 8.1765L136.901 8.18914C136.895 8.64382 136.583 9.03737 136.142 9.147L135.901 8.1765ZM150.592 7.92308L150.592 8.92308C150.058 8.92336 149.618 8.50391 149.593 7.97043L150.592 7.92308ZM150.6 7.92308L150.599 6.92308H150.6V7.92308ZM151 18.9938H150C150 18.4536 150.429 18.011 150.969 17.9943L151 18.9938ZM151 19H152C152 19.5523 151.552 20 151 20V19ZM138.019 19L138.016 18H138.019V19ZM137.981 20H137V18H137.981V20ZM136 19V18.9439H138V19H136ZM132 13.4616C132 15.5648 134.026 17.601 137.112 17.9503L136.888 19.9376C133.189 19.519 130 16.9386 130 13.4616H132ZM136.142 9.147C133.587 9.78164 132 11.5876 132 13.4616H130C130 10.3753 132.534 7.98257 135.659 7.206L136.142 9.147ZM134.901 8.16386C134.958 3.63509 138.684 0 143.25 0V2C139.76 2 136.944 4.77401 136.901 8.18914L134.901 8.16386ZM143.25 0C147.719 0 151.382 3.48136 151.591 7.87573L149.593 7.97043C149.436 4.6569 146.665 2 143.25 2V0ZM150.591 6.92308L150.599 6.92308L150.601 8.92308L150.592 8.92308L150.591 6.92308ZM150.6 6.92308C153.087 6.92308 155.385 7.58596 157.09 8.71039C158.788 9.82953 160 11.4886 160 13.4615H158C158 12.3757 157.332 11.2655 155.989 10.3801C154.654 9.50002 152.752 8.92308 150.6 8.92308V6.92308ZM160 13.4615C160 15.3769 158.856 16.9981 157.237 18.1134C155.613 19.2326 153.42 19.9195 151.031 19.9934L150.969 17.9943C153.033 17.9305 154.84 17.3365 156.103 16.4665C157.371 15.5927 158 14.5166 158 13.4615H160ZM152 18.9938V19H150V18.9938H152ZM151 20H150.6V18H151V20ZM150.6 20H138.019V18H150.6V20ZM138 18C138.006 18 138.011 18 138.016 18L138.021 20C138.014 20 138.007 20 138 20V18ZM137.984 18C137.989 18 137.994 18 138 18V20C137.993 20 137.986 20 137.979 20L137.984 18Z" fill="#E6E6E6"/>
<path fill-rule="evenodd" clip-rule="evenodd" d="M325.478 133.857H324.286V133.789C320.167 133.323 317 130.52 317 127.132C317 124.12 319.502 121.571 322.95 120.714C323.011 115.891 326.983 112 331.875 112C336.661 112 340.568 115.727 340.79 120.407L340.8 120.407C346.433 120.407 351 123.418 351 127.132C351 130.739 346.693 133.683 341.286 133.85V133.857H340.827L340.8 133.857L340.773 133.857H325.522C325.515 133.857 325.507 133.857 325.5 133.857C325.493 133.857 325.485 133.857 325.478 133.857Z" fill="#F7F7F7"/>
<path d="M325.478 133.857V132.857L325.48 132.857L325.478 133.857ZM324.286 133.857V134.857C323.733 134.857 323.286 134.409 323.286 133.857H324.286ZM324.286 133.789L324.398 132.795C324.904 132.853 325.286 133.28 325.286 133.789H324.286ZM322.95 120.714L323.95 120.727C323.944 121.182 323.633 121.575 323.191 121.685L322.95 120.714ZM340.79 120.407L340.79 121.407C340.256 121.407 339.816 120.987 339.791 120.454L340.79 120.407ZM340.8 120.407L340.799 119.407H340.8V120.407ZM341.286 133.85H340.286C340.286 133.309 340.715 132.867 341.255 132.85L341.286 133.85ZM341.286 133.857H342.286C342.286 134.409 341.838 134.857 341.286 134.857V133.857ZM340.827 133.857L340.826 132.857H340.827V133.857ZM340.8 133.857L340.801 134.857H340.799L340.8 133.857ZM340.773 133.857V132.857H340.774L340.773 133.857ZM325.522 133.857L325.52 132.857H325.522V133.857ZM325.478 134.857H324.286V132.857H325.478V134.857ZM323.286 133.857V133.789H325.286V133.857H323.286ZM318 127.132C318 129.833 320.585 132.364 324.398 132.795L324.173 134.783C319.748 134.282 316 131.207 316 127.132H318ZM323.191 121.685C320.028 122.471 318 124.727 318 127.132H316C316 123.514 318.975 120.672 322.709 119.744L323.191 121.685ZM321.95 120.702C322.018 115.322 326.446 111 331.875 111V113C327.521 113 324.004 116.461 323.95 120.727L321.95 120.702ZM331.875 111C337.188 111 341.541 115.139 341.788 120.359L339.791 120.454C339.595 116.315 336.135 113 331.875 113V111ZM340.789 119.407L340.799 119.407L340.801 121.407L340.79 121.407L340.789 119.407ZM340.8 119.407C343.784 119.407 346.532 120.202 348.563 121.542C350.586 122.875 352 124.831 352 127.132H350C350 125.718 349.131 124.311 347.462 123.211C345.801 122.116 343.449 121.407 340.8 121.407V119.407ZM352 127.132C352 129.365 350.666 131.276 348.738 132.604C346.805 133.936 344.183 134.761 341.317 134.849L341.255 132.85C343.796 132.772 346.032 132.04 347.603 130.957C349.181 129.87 350 128.505 350 127.132H352ZM342.286 133.85V133.857H340.286V133.85H342.286ZM341.286 134.857H340.827V132.857H341.286V134.857ZM340.828 134.857L340.801 134.857L340.799 132.857L340.826 132.857L340.828 134.857ZM340.799 134.857L340.772 134.857L340.774 132.857L340.801 132.857L340.799 134.857ZM340.773 134.857H325.522V132.857H340.773V134.857ZM325.5 132.857C325.507 132.857 325.514 132.857 325.52 132.857L325.524 134.857C325.516 134.857 325.508 134.857 325.5 134.857V132.857ZM325.48 132.857C325.486 132.857 325.493 132.857 325.5 132.857V134.857C325.492 134.857 325.484 134.857 325.476 134.857L325.48 132.857Z" fill="#E6E6E6"/>
<path fill-rule="evenodd" clip-rule="evenodd" d="M12 73C8.68629 73 6 75.2386 6 78H4.5H4V78.0405C2.30385 78.3178 1 79.9849 1 82C1 84.0151 2.30385 85.6822 4 85.9595V86H4.5H36.9783L37.0423 85.6461C37.6559 85.8755 38.3145 86 39 86C42.3137 86 45 83.0899 45 79.5C45 75.9101 42.3137 73 39 73C37.8955 73 36.8607 73.3233 35.9719 73.8873C35.5655 69.4789 30.8085 66 25 66C19.4446 66 14.851 69.1823 14.1058 73.3166C13.4506 73.1119 12.741 73 12 73Z" fill="#F7F7F7"/>
<path d="M6 78V79C6.55228 79 7 78.5523 7 78H6ZM4 78V77C3.44772 77 3 77.4477 3 78H4ZM4 78.0405L4.16133 79.0274C4.64493 78.9484 5 78.5305 5 78.0405H4ZM4 85.9595H5C5 85.4695 4.64493 85.0516 4.16133 84.9726L4 85.9595ZM4 86H3C3 86.5523 3.44772 87 4 87V86ZM36.9783 86V87C37.4619 87 37.8762 86.6539 37.9623 86.1781L36.9783 86ZM37.0423 85.6461L37.3924 84.7094C37.1148 84.6057 36.8056 84.6304 36.548 84.7769C36.2904 84.9233 36.1111 85.1765 36.0583 85.4681L37.0423 85.6461ZM35.9719 73.8873L34.9761 73.9791C35.0081 74.326 35.2182 74.6312 35.5309 74.7848C35.8435 74.9385 36.2135 74.9183 36.5076 74.7317L35.9719 73.8873ZM14.1058 73.3166L13.8076 74.2711C14.0814 74.3566 14.3787 74.3205 14.624 74.1718C14.8693 74.0231 15.039 73.7763 15.0899 73.494L14.1058 73.3166ZM7 78C7 75.9538 9.06012 74 12 74V72C8.31247 72 5 74.5233 5 78H7ZM4.5 79H6V77H4.5V79ZM4 79H4.5V77H4V79ZM5 78.0405V78H3V78.0405H5ZM2 82C2 80.3823 3.03482 79.2116 4.16133 79.0274L3.83867 77.0536C1.57289 77.424 0 79.5875 0 82H2ZM4.16133 84.9726C3.03482 84.7884 2 83.6177 2 82H0C0 84.4125 1.57289 86.576 3.83867 86.9464L4.16133 84.9726ZM5 86V85.9595H3V86H5ZM4.5 85H4V87H4.5V85ZM36.9783 85H4.5V87H36.9783V85ZM36.0583 85.4681L35.9942 85.8219L37.9623 86.1781L38.0263 85.8242L36.0583 85.4681ZM39 85C38.4368 85 37.8966 84.8979 37.3924 84.7094L36.6922 86.5829C37.4152 86.8531 38.1923 87 39 87V85ZM44 79.5C44 82.6144 41.6876 85 39 85V87C42.9399 87 46 83.5653 46 79.5H44ZM39 74C41.6876 74 44 76.3856 44 79.5H46C46 75.4347 42.9399 72 39 72V74ZM36.5076 74.7317C37.2444 74.2641 38.0947 74 39 74V72C37.6963 72 36.477 72.3825 35.4361 73.043L36.5076 74.7317ZM25 67C30.5093 67 34.6348 70.2763 34.9761 73.9791L36.9676 73.7955C36.4963 68.6814 31.1078 65 25 65V67ZM15.0899 73.494C15.7202 69.9972 19.7436 67 25 67V65C19.1455 65 13.9818 68.3675 13.1216 73.1392L15.0899 73.494ZM12 74C12.6403 74 13.2493 74.0967 13.8076 74.2711L14.4039 72.3621C13.6518 72.1271 12.8416 72 12 72V74Z" fill="#E6E6E6"/>
</svg>
