<svg xmlns="http://www.w3.org/2000/svg" width="376.068" height="181.312" viewBox="0 0 376.068 181.312">
  <g id="组_3834" data-name="组 3834" transform="translate(-0.84 -4.384)">
    <path id="路径_1272" data-name="路径 1272" d="M7.728-20.37a39.747,39.747,0,0,0,6.3-7.9,96.724,96.724,0,0,1,6.342,7.9Zm14.364,1.512,3.192-3.024A94.649,94.649,0,0,0,16.3-32.424c.252-.588.546-1.218.8-1.806l-4.578-1.386A34.084,34.084,0,0,1,.84-21.252a24.7,24.7,0,0,1,3.57,3.7c.42-.336.882-.672,1.3-1.008v15.33c0,4.83,1.554,6.174,6.468,6.174H18.9c4.284,0,5.586-1.764,6.132-7.686a12.3,12.3,0,0,1-4.326-1.806c-.252,4.41-.546,5.25-2.226,5.25H12.768c-1.89,0-2.226-.252-2.226-1.974v-12.81H17.22c-.252,3.612-.546,5.166-.924,5.628A1.278,1.278,0,0,1,15.12-10a26.018,26.018,0,0,1-3.234-.168,10.484,10.484,0,0,1,1.176,4.2,34.541,34.541,0,0,0,4.494-.126A4.086,4.086,0,0,0,20.37-7.518c.966-1.134,1.386-4.2,1.722-11.172ZM30.66-30.786H25.872v23.73H30.66Zm3.234-3.99v32.55c0,.8-.336,1.05-1.134,1.092-.84,0-3.654,0-6.3-.126a17.882,17.882,0,0,1,1.68,4.83c3.948,0,6.636-.126,8.358-.924C38.262,1.89,38.85.63,38.85-2.226v-32.55Zm41.118,6.258v1.848h-4.83v-1.848Zm0,7.476h-4.83v-1.806h4.83ZM65.478-26.67h-9.45v3.822h9.45v1.806h-7.35v3.78h7.35v2.016h-7.6v3.612h7.6v2.058H56.2v3.948h9.282v2.856h4.7V-5.628h11V-9.576h-11v-2.058H79.8v-3.612H70.182v-2.016h9.2v-5.586h2.31V-26.67H79.38V-32.3h-9.2v-3.15h-4.7v3.15h-7.14v3.78h7.14ZM53.886-21.546l-.84.084H52.038c1.764-3.612,3.738-8.022,5.334-11.8H44.436v4.326h6.216c-1.764,4.2-3.906,8.694-5.586,11.8h6.72A37.574,37.574,0,0,1,50.148-9.7a20.986,20.986,0,0,1-2.058-4.872l-3.654,1.218a31.356,31.356,0,0,0,3.7,8.148,16.815,16.815,0,0,1-5,5.544,15.768,15.768,0,0,1,3.612,3.276,18.226,18.226,0,0,0,4.62-5.25c4.326,3.57,10.08,4.494,17.136,4.494H80.85a16.21,16.21,0,0,1,1.764-4.578c-2.856.126-11.55.126-13.986.126-6.174-.042-11.382-.756-15.246-4.074a53.27,53.27,0,0,0,3.276-15.246Zm31.836,2.478v5.418h38.556v-5.418Zm58.632,22.68h5.208V-22.05h-5.208Zm2.6-39.228c-4.284,7.1-11.886,12.264-19.866,15.246a21.414,21.414,0,0,1,3.654,4.872,48.488,48.488,0,0,0,16.422-12.1,54.382,54.382,0,0,0,16.338,12.138,14.969,14.969,0,0,1,3.7-4.746,47.832,47.832,0,0,1-17.01-11.3c.42-.672.84-1.344,1.26-1.974ZM171.822,0h6.216V-11.046H182.2c6.678,0,12.012-3.192,12.012-10.29,0-7.35-5.292-9.744-12.18-9.744H171.822Zm6.216-15.96V-26.166h3.528c4.284,0,6.552,1.218,6.552,4.83,0,3.57-2.058,5.376-6.342,5.376ZM199.836,0h18.816V-5.208h-12.6V-31.08h-6.216ZM229.7-12.81l.924-3.4c.924-3.234,1.848-6.762,2.646-10.164h.168c.924,3.36,1.764,6.93,2.73,10.164l.924,3.4ZM240.618,0h6.51l-10-31.08h-7.308L219.87,0h6.3l2.184-7.98h10.08Zm10.164,0h5.88V-12.474c0-3.57-.462-7.476-.756-10.836h.21l3.15,6.678L268.254,0h6.3V-31.08h-5.88v12.39c0,3.528.462,7.644.8,10.878h-.21l-3.108-6.72-9.03-16.548h-6.342Zm35.784,5.8C291.774,4.242,294.84.378,294.84-4.41c0-3.528-1.554-5.754-4.536-5.754a3.822,3.822,0,0,0-4.116,3.78,3.727,3.727,0,0,0,3.99,3.738,1.575,1.575,0,0,0,.462-.042c-.252,2.226-2.142,4.032-5.418,5.082ZM23.94,57.686V52.52H32.8v5.166Zm-13.062,0c.084-1.554.126-3.066.126-4.41V52.52h7.9v5.166Zm8.022-14.7v4.872H11V42.986Zm13.9,4.872H23.94V42.986H32.8Zm4.956-9.618H6.048V53.234c0,5.88-.378,13.356-4.956,18.4A18.449,18.449,0,0,1,5.04,74.864c3.024-3.276,4.536-7.9,5.292-12.474H18.9V74.108h5.04V62.39H32.8v6.3c0,.756-.294,1.008-1.092,1.008-.756,0-3.528.042-5.88-.084a18.883,18.883,0,0,1,1.6,4.788c3.78.042,6.342-.042,8.064-.882,1.68-.756,2.268-2.1,2.268-4.788Zm8.778,17.724a55.878,55.878,0,0,0,1.89-11.8l-3.57-.462A50.31,50.31,0,0,1,42.8,54.662Zm12.432-5.67a46.954,46.954,0,0,0-3.276-7.938l-2.268.966v-7.9H48.468V74.612h4.956V46.346a37.176,37.176,0,0,1,1.89,5.67ZM70.56,46.388H74.8v7.686H70.434c.084-1.3.126-2.562.126-3.822ZM82.32,58.82V54.074H79.674V41.768H70.56V35.426H65.52v6.342H58.3v4.62H65.52V50.21c0,1.26,0,2.52-.126,3.864h-9.03V58.82h8.358C63.588,63.44,60.9,67.892,54.516,71a21.62,21.62,0,0,1,3.528,3.864A22.857,22.857,0,0,0,68.712,62.432c2.31,5.628,5.67,9.87,10.92,12.348a19.708,19.708,0,0,1,3.528-4.7c-5.25-1.974-8.694-6.09-10.752-11.256Zm15.792-5.8-3.486.966V47.984h3.822V43.406H94.626v-7.9H90.048v7.9H85.68v4.578h4.368v7.224c-1.89.5-3.612.924-5.04,1.218l1.176,4.788,3.864-1.092v9.156c0,.546-.168.714-.672.714a34.712,34.712,0,0,1-3.528-.042,22.977,22.977,0,0,1,1.3,4.578c2.646.042,4.494-.126,5.8-.924,1.3-.714,1.68-1.974,1.68-4.326v-10.5l4.158-1.26Zm15.162.756h4.2v2.184h-4.2Zm0-5.8h4.2v1.932h-4.2Zm0,17.934H122.6V62.054h-9.324V59.7h8.82V53.78h2.688V49.916h-2.688v-5.67h-8.82V42.482h10.542V38.576H113.274V35.468h-4.62v3.108H99.078v3.906h9.576v1.764h-7.812v3.738h7.812v1.932H98.406V53.78h10.248v2.184h-7.812V59.7h7.812v8.946a8.922,8.922,0,0,1-4.242-3.948c.294-1.218.546-2.562.756-3.906l-4.536-.546c-.63,5-2.184,9.324-5.25,12.012a25.878,25.878,0,0,1,3.7,2.814,17.215,17.215,0,0,0,3.822-5.8c3.234,3.906,7.77,4.914,13.566,4.914h6.972a15.714,15.714,0,0,1,1.386-4.242c-1.722.042-6.72.042-8.022.042a32.039,32.039,0,0,1-3.528-.168Zm27.93,4.116a75.579,75.579,0,0,0-9.156-9.2l-4.368,3.78a82.3,82.3,0,0,1,9.03,9.282Zm37.674-27.678a28.825,28.825,0,0,1,2.268,4.914l4.284-1.848a25.283,25.283,0,0,0-1.512-3.066h5V38.282H179.8c.294-.63.588-1.218.84-1.848l-4.7-1.26a23.256,23.256,0,0,1-6.51,9.408,29.966,29.966,0,0,1,4.074,2.73,31.092,31.092,0,0,0,3.99-4.956Zm-7.056,32.3h4.872V52.31h-4.872Zm2.394-26.5a25.916,25.916,0,0,1,3.99,5.25l3.99-2.646a27.986,27.986,0,0,0-4.242-5Zm18.9,9.366v2.016h-8.232V57.518Zm-8.232,7.56V62.894h8.232v2.184Zm12.894,3.654V53.822h-17.43v16.8h4.536v-1.89Zm10.038-30.45H197.022c.252-.63.462-1.26.672-1.89l-4.7-1.092a20.5,20.5,0,0,1-5.208,8.778,23.6,23.6,0,0,1,4.074,2.688,23.4,23.4,0,0,0,3.234-4.452h1.848a22.911,22.911,0,0,1,2.562,4.662H182.91v4.452h18.564V69.32c0,.714-.294.924-1.092.966s-3.822.042-6.3-.084a16.551,16.551,0,0,1,1.6,4.284c3.822,0,6.51-.042,8.274-.714,1.806-.714,2.436-1.89,2.436-4.41V46.976h-6.342l3.864-1.764a21.788,21.788,0,0,0-1.638-2.9h5.544ZM220.71,56.174v-2.9h7.644v2.9Zm0-9.534h7.644V49.5H220.71ZM241.458,49.5H233.52V46.64h7.938Zm0,6.678H233.52v-2.9h7.938Zm8.526,6.846H233.52V60.29h13.1V42.566h-6.006c1.134-1.6,2.394-3.36,3.528-5.208l-5.544-1.6a39.484,39.484,0,0,1-3.612,6.8H226l1.806-.882a29.853,29.853,0,0,0-4.368-6.048l-4.284,1.89a34.611,34.611,0,0,1,3.444,5.04h-6.762V60.29h12.516v2.73H212.142v4.662h16.212v6.846h5.166s-4.116-5.134,0-6.846,16.464,0,16.464,0Zm9.744,2.9V57.686h6.678v8.232Zm6.678-12.558h-6.678v-6.8h6.678ZM279.72,41.894a48.748,48.748,0,0,0,1.638-5.334l-4.746-1.092a43.442,43.442,0,0,1-5.67,13.524v-6.8h-6.51c.714-1.806,1.47-3.906,2.184-6.006l-5.46-.756a45.045,45.045,0,0,1-1.218,6.762h-4.746V73.394h4.536V70.328h11.214V50.714a31.2,31.2,0,0,1,3.234,2.352,36.232,36.232,0,0,0,3.7-6.636h8.988c-.462,14.826-1.008,21.126-2.226,22.47a2.24,2.24,0,0,1-1.848.714c-1.092,0-3.57,0-6.258-.252a11.769,11.769,0,0,1,1.638,4.872,47.08,47.08,0,0,0,6.594-.084,5.6,5.6,0,0,0,4.032-2.31c1.722-2.226,2.184-8.9,2.73-27.678.042-.588.042-2.268.042-2.268Zm4.872,19.152a101.366,101.366,0,0,0-6.174-9.324l-3.906,2.226a89.871,89.871,0,0,1,5.838,9.7ZM333.774,47.06V42.146h-17.22l2.9-1.26a47.324,47.324,0,0,0-3.024-6.006l-4.914,1.848c.84,1.68,1.848,3.78,2.52,5.418H296.31V47.06h10.584c-.42,8.862-1.218,18.312-11.3,23.646a15.513,15.513,0,0,1,3.654,4.158c7.56-4.368,10.668-10.92,12.1-17.934h13.23c-.588,7.518-1.344,11.13-2.436,12.054a2.923,2.923,0,0,1-2.058.546c-1.26,0-4.2-.042-7.056-.336a10.906,10.906,0,0,1,1.764,4.914,58.969,58.969,0,0,0,7.266,0,6.286,6.286,0,0,0,4.494-1.974c1.722-1.806,2.6-6.468,3.36-17.85a20.431,20.431,0,0,0,.168-2.184H312.06c.21-1.68.294-3.36.42-5.04Zm17.388,10h6.72v-4.83H339.864v4.83h6.342V67.178c-3.024.5-5.8.924-7.938,1.26l1.386,5.04c5.418-1.134,12.81-2.688,19.7-4.2l-.378-4.452c-2.562.5-5.25,1.008-7.812,1.47Zm24.654-9.618V42.566h-3.948l2.856-2.478a31.37,31.37,0,0,0-5.5-4.662l-3.318,2.73a29.734,29.734,0,0,1,4.914,4.41h-6.636c-.084-2.268-.084-4.62-.042-6.93h-5.376c0,2.31.042,4.662.126,6.93H338.268v4.872h20.874c1.008,14.784,4.158,27.216,11.34,27.216,3.99,0,5.67-1.932,6.426-9.87a13.359,13.359,0,0,1-4.368-2.94c-.21,5.334-.714,7.56-1.6,7.56-3.066,0-5.628-9.7-6.51-21.966ZM24.234,112.6h9.66v17.976h5v-22.26h-19.4v22.26h4.746Zm-5.376,23.142c-.966-1.176-5.04-6.048-6.72-7.686l.084-.756H18.06v-4.746H12.516c.042-.84.042-1.638.042-2.436v-2.646H17.6v-4.62h-5.04v-6.006H7.812v6.006H2.394v4.62H7.812v2.688c0,.756,0,1.554-.042,2.394H1.554V127.3H7.476c-.546,5.166-2.1,10.752-6.3,14.49a19.474,19.474,0,0,1,3.528,3.4,24.866,24.866,0,0,0,6.51-12.012c1.6,2.142,3.318,4.578,4.284,6.174Zm14.616,5.166c-.8,0-1.134-.336-1.134-1.386V129.274H30.618a33.12,33.12,0,0,0,.8-7.392V115.2H26.8V121.8c0,6.426-1.176,14.7-11.886,20.244a15.384,15.384,0,0,1,3.108,3.528,24.076,24.076,0,0,0,9.912-9.324v3.822c0,3.612,1.344,4.62,4.662,4.62h2.856c4.116,0,4.872-1.89,5.292-8.274a12.649,12.649,0,0,1-3.906-1.722c-.126,5.04-.378,6.216-1.386,6.216ZM63.756,112.39a34.213,34.213,0,0,0-6.006-5.67l-3.276,2.73a39.549,39.549,0,0,1,5.754,5.922Zm-3.612,9.576a42.338,42.338,0,0,1-4.41,7.854,77.961,77.961,0,0,1-1.47-8.19l12.39-1.386-.462-4.7L53.76,116.926c-.252-3.36-.378-6.93-.336-10.458H48.3c.042,3.7.168,7.392.5,11l-5.628.588.462,4.746,5.628-.63a81.992,81.992,0,0,0,2.478,12.264,37.145,37.145,0,0,1-8.568,6.342,25.024,25.024,0,0,1,3.486,3.906,40.233,40.233,0,0,0,7.014-5.418c1.89,3.738,4.242,6.048,7.182,6.048,3.78,0,5.376-1.806,6.174-9.114a11.953,11.953,0,0,1-4.116-2.73c-.252,4.914-.714,6.846-1.68,6.846-1.3,0-2.646-1.848-3.864-4.956a47.9,47.9,0,0,0,7.476-11.97Zm12.684-11.088H68.04v23.1h4.788Zm3.192-4.032v32.97c0,.714-.294.924-1.05.966-.672,0-3.108,0-5.418-.084a18.78,18.78,0,0,1,1.554,4.956c3.57,0,6.048-.168,7.644-.966s2.142-2.1,2.142-4.872v-32.97Zm18.018-.252A44.214,44.214,0,0,1,84.5,122.3a32.294,32.294,0,0,1,2.688,5.208,40.44,40.44,0,0,0,2.814-3.4V145.57h4.788v-28.9a63.66,63.66,0,0,0,3.99-8.61Zm7.77,18.522c-.966,4.662-2.73,9.408-5.124,12.348a30.906,30.906,0,0,1,4.284,2.688,43.129,43.129,0,0,0,5.712-14.028Zm17.472-6.552c-.21,1.848-.462,3.612-.672,4.914l4.242.714c.588-2.436,1.3-6.342,1.806-9.744l-3.528-.672-.8.168H105.882a63.682,63.682,0,0,0,1.974-6.258l-4.872-1.092c-1.428,5.754-3.948,11.55-7.14,15.12a35.086,35.086,0,0,1,4.032,3.276,35.75,35.75,0,0,0,3.948-6.426H108.7v21.42c0,.546-.21.714-.756.714-.588,0-2.352,0-4.116-.042a17.067,17.067,0,0,1,1.722,5.04c2.688,0,4.7-.21,6.174-1.008,1.512-.84,1.932-2.226,1.932-4.62v-21.5Zm-4.116,7.644a53.141,53.141,0,0,1,4.242,13.818l4.788-1.638a51.935,51.935,0,0,0-4.578-13.692Zm18.564,10.71v-8.232h6.678v8.232Zm6.678-12.558h-6.678v-6.8h6.678Zm13.314-11.466a48.744,48.744,0,0,0,1.638-5.334l-4.746-1.092a43.442,43.442,0,0,1-5.67,13.524v-6.8h-6.51c.714-1.806,1.47-3.906,2.184-6.006l-5.46-.756a45.049,45.049,0,0,1-1.218,6.762h-4.746v31.206h4.536v-3.066h11.214V121.714a31.2,31.2,0,0,1,3.234,2.352,36.231,36.231,0,0,0,3.7-6.636h8.988c-.462,14.826-1.008,21.126-2.226,22.47a2.24,2.24,0,0,1-1.848.714c-1.092,0-3.57,0-6.258-.252a11.769,11.769,0,0,1,1.638,4.872,47.078,47.078,0,0,0,6.594-.084,5.6,5.6,0,0,0,4.032-2.31c1.722-2.226,2.184-8.9,2.73-27.678.042-.588.042-2.268.042-2.268Zm4.872,19.152a101.365,101.365,0,0,0-6.174-9.324l-3.906,2.226a89.875,89.875,0,0,1,5.838,9.7Zm17.3-17.766H202.1v4.956h5.124v-9.492H192.276a21.855,21.855,0,0,0-1.806-3.738l-5.292,1.512a18.49,18.49,0,0,1,1.008,2.226h-15.2v9.492H175.9Zm24.57,7.224a55.84,55.84,0,0,1-7.938,6.342,16.226,16.226,0,0,0-3.7-5.082,19.927,19.927,0,0,0,2.52-1.932h9.324V116.59H177.2v4.242h7.224a50.8,50.8,0,0,1-13.524,4.62,23.046,23.046,0,0,1,2.562,3.906,56.069,56.069,0,0,0,11.676-4.41c.42.462.8.924,1.176,1.386-3.654,2.436-10.542,5.082-15.708,6.174a21.458,21.458,0,0,1,2.478,3.864,70.139,70.139,0,0,0,15.12-6.846,15.647,15.647,0,0,1,.63,1.6c-4.158,3.528-12.222,7.14-18.858,8.568a20.1,20.1,0,0,1,2.6,4.158,66.28,66.28,0,0,0,16.968-8.064c0,2.016-.5,3.57-1.218,4.242a2.286,2.286,0,0,1-2.268,1.008,33.852,33.852,0,0,1-3.78-.21,11.276,11.276,0,0,1,1.344,4.746c1.218.042,2.478.084,3.4.042a6.211,6.211,0,0,0,5-1.974c2.142-1.764,3.15-6.594,1.974-11.634.42-.252.882-.5,1.3-.8,2.058,5.712,5.376,10.206,10.416,12.6a18.092,18.092,0,0,1,3.318-4.074,17.4,17.4,0,0,1-9.828-11.046c1.848-1.26,3.738-2.6,5.418-3.906Zm17.64,10.08a6.8,6.8,0,1,0,6.8,6.8A6.821,6.821,0,0,0,218.106,131.584Zm0,10.584a3.78,3.78,0,1,1,3.78-3.78A3.783,3.783,0,0,1,218.106,142.168Z" transform="translate(0 40)"/>
  </g>
</svg>
