<svg xmlns="http://www.w3.org/2000/svg" width="1920" height="600" viewBox="0 0 1920 600">
  <defs>
    <style>
      .cls-1, .cls-8 {
        fill: #fff;
      }

      .cls-2 {
        fill: #14af64;
      }

      .cls-3 {
        fill: #00b35d;
        stroke-width: 2.835px;
      }

      .cls-10, .cls-11, .cls-13, .cls-14, .cls-15, .cls-3, .cls-4, .cls-6, .cls-7, .cls-8, .cls-9 {
        stroke: #282828;
      }

      .cls-10, .cls-13, .cls-14, .cls-15, .cls-23, .cls-24, .cls-25, .cls-26, .cls-3, .cls-4, .cls-6, .cls-7, .cls-8, .cls-9 {
        stroke-linecap: round;
        stroke-linejoin: round;
      }

      .cls-17, .cls-4, .cls-7 {
        fill: #eee;
      }

      .cls-14, .cls-4 {
        stroke-width: 4px;
      }

      .cls-5 {
        fill: #282828;
      }

      .cls-12, .cls-14, .cls-15, .cls-6 {
        fill: #ffe100;
      }

      .cls-6 {
        stroke-width: 4.696px;
      }

      .cls-7 {
        stroke-width: 4.94px;
      }

      .cls-10, .cls-8, .cls-9 {
        stroke-width: 6.924px;
      }

      .cls-9 {
        fill: #b7e1d2;
      }

      .cls-10 {
        fill: #7a55ff;
      }

      .cls-11, .cls-13, .cls-23, .cls-24, .cls-25 {
        fill: none;
      }

      .cls-11 {
        stroke-miterlimit: 10;
        stroke-width: 2.308px;
      }

      .cls-13 {
        stroke-width: 6.442px;
      }

      .cls-15 {
        stroke-width: 5px;
      }

      .cls-16 {
        fill: #cecece;
      }

      .cls-18 {
        fill: #ebb398;
      }

      .cls-19 {
        fill: #101010;
      }

      .cls-20, .cls-26 {
        fill: #040000;
      }

      .cls-21 {
        fill: #474747;
      }

      .cls-22 {
        fill: #e4dfdd;
      }

      .cls-23, .cls-24, .cls-25 {
        stroke: #040000;
      }

      .cls-23 {
        stroke-width: 4.495px;
      }

      .cls-24 {
        stroke-width: 2.698px;
      }

      .cls-25 {
        stroke-width: 3.269px;
      }

      .cls-26 {
        stroke: #000;
        stroke-width: 0.344px;
      }
    </style>
  </defs>
  <g id="组_4475" data-name="组 4475" transform="translate(0 -760)">
    <rect id="banner" class="cls-1" width="1920" height="600" transform="translate(0 760)"/>
    <rect id="banner-2" data-name="banner" class="cls-2" width="1920" height="500" transform="translate(0 760)"/>
    <path id="路径_1081" data-name="路径 1081" class="cls-3" d="M1092.6,427.971" transform="translate(-221.429 752.917)"/>
    <g id="组_4440" data-name="组 4440" transform="translate(1360.312 863.082)">
      <g id="组_4439" data-name="组 4439" transform="translate(0 15.154)">
        <path id="路径_1263" data-name="路径 1263" class="cls-4" d="M1995.048,84.86H1801.856v67.132l34.694.385,10.383,17.984,10.383-17.984,137.732-.385Z" transform="translate(-1798.424 -78.855)"/>
        <path id="路径_1087" data-name="路径 1087" class="cls-4" d="M1992.474,84.86H1801.856v67.132l34.694.385,10.383,17.984,10.383-17.984,135.158-.385Z" transform="translate(-1801.856 -84.86)"/>
        <g id="组_4438" data-name="组 4438" transform="translate(19.825 9.238)">
          <path id="路径_1088" data-name="路径 1088" class="cls-5" d="M1842.433,110.243a6.6,6.6,0,0,1-.614.525,19,19,0,0,0-2.169-2.257,14.93,14.93,0,0,0,4.822-5.654l2.849.9a21.657,21.657,0,0,1-1.819,3.025v7.693h-3.069Zm15.014,10.323c.46,0,.569-.307.635-2.214a8.672,8.672,0,0,0,2.762,1.183c-.307,3-1.1,3.858-3.069,3.858h-2c-2.455,0-3.178-.854-3.178-3.573v-1.95h-5.041c-.373,2.235-1.821,4.449-5.722,5.764a12.852,12.852,0,0,0-1.884-2.762c4.032-1.2,4.471-2.783,4.471-4.4v-1.381h11.331v4.668c0,.723.087.811.571.811Zm-5.677-14.246c-1.337.109-2.675.2-3.924.24a9.505,9.505,0,0,0-.724-2.323,64.9,64.9,0,0,0,10.5-1.272l2.082,2.214a45,45,0,0,1-4.777.833v1.425h5.479v2.651h-5.479v1.4h5.15v2.587h-12.932v-2.587h4.626v-1.4h-5.393v-2.651h5.393Z" transform="translate(-1839.474 -102.572)"/>
          <path id="路径_1089" data-name="路径 1089" class="cls-5" d="M1902.3,110.269h-2.871c1.052.482,2.061.941,2.762,1.314L1900,114.127c-.2-.132-.438-.264-.7-.418v2.543H1894.1v3.594h8.021v2.871h-19.156v-2.871h7.715v-3.594h-4.822v-2.28c-.416.176-.833.373-1.227.527l-1.776-2.938a23.463,23.463,0,0,0,2.74-.92h-2.871v-5.633h7.957c-.2-.57-.417-1.184-.614-1.688l3.419-.921c.351.789.81,1.8,1.1,2.609h7.716Zm-7.168-1.864c1.075.461,2.5,1.052,3.858,1.666V107.88h-13.128v2.651a22.172,22.172,0,0,0,3.858-2.037l2.191,1.972a29.739,29.739,0,0,1-4.91,2.96h11.749c-1.666-.9-3.99-2.017-5.655-2.805Z" transform="translate(-1859.756 -102.357)"/>
          <path id="路径_1090" data-name="路径 1090" class="cls-5" d="M1941.475,114.855a13.52,13.52,0,0,1-4.515,4.734,36.882,36.882,0,0,0,6.8,1.1,13.408,13.408,0,0,0-1.8,2.783,29.411,29.411,0,0,1-8.593-2.06,36.434,36.434,0,0,1-8.68,2.06,10.769,10.769,0,0,0-1.49-2.805,37.615,37.615,0,0,0,6.861-1.118,15.653,15.653,0,0,1-3.31-3.178H1925.1v-2.762h13.83l.5-.109ZM1929.07,108.5a13.835,13.835,0,0,1-3.113,4.3,17.212,17.212,0,0,0-2.455-1.666,8.713,8.713,0,0,0,2.718-3.4Zm.065-1.074H1923.9v-2.784h8.153c-.218-.548-.481-1.141-.723-1.622l3.135-.7c.394.7.9,1.666,1.184,2.324h7.408v2.784h-5.326v1.381l1.709-1.119a21.359,21.359,0,0,1,3.77,3.31l-2.389,1.754a20.45,20.45,0,0,0-3.089-3.069v3.507h-3.223v-5.764h-2.148v5.764h-3.222Zm1.337,8.942a12.662,12.662,0,0,0,3.025,1.973,12.052,12.052,0,0,0,3.024-1.973Z" transform="translate(-1878.81 -102.318)"/>
          <path id="路径_1091" data-name="路径 1091" class="cls-5" d="M1984.9,113.922V123.7H1981.3v-1.162H1966.4v-8.592h3.6v5.415h3.858v-6.445h-6.225v-8.24h3.4v5.151h2.827V102.9h3.573v6.926h3.024v-5.173h3.573v8.263h-6.6v6.445h3.88v-5.436Z" transform="translate(-1899.15 -102.591)"/>
          <path id="路径_1092" data-name="路径 1092" class="cls-5" d="M2022.969,120.832c.46,0,.549-.876.636-4.121a9.253,9.253,0,0,0,3,1.448c-.263,4.12-.986,5.786-3.288,5.786h-1.884c-2.346,0-3.134-1.008-3.134-4.472V107.419h-4.975v3.857c0,4.055-.723,9.994-5.26,13.217a13.8,13.8,0,0,0-2.565-2.346c4.1-2.915,4.428-7.408,4.428-10.915v-6.926h11.7V119.5c0,1.184.044,1.337.461,1.337Z" transform="translate(-1917.56 -103.254)"/>
          <path id="路径_1093" data-name="路径 1093" class="cls-5" d="M2068.059,117.794h-8.439v7.014h-3.332v-7.014h-8.373v-3.222h8.373v-6.115H2049.1V105.3h17.666v3.156h-7.145v6.115h8.439Zm-14.84-8.833a17.669,17.669,0,0,1,1.6,4.208l-3.113.965a19.231,19.231,0,0,0-1.4-4.319Zm7.8,4.274a23.767,23.767,0,0,0,1.643-4.318l3.42.855a45.575,45.575,0,0,1-2.257,4.274Z" transform="translate(-1937.53 -103.722)"/>
          <path id="路径_1094" data-name="路径 1094" class="cls-5" d="M2102.723,114.144a23.372,23.372,0,0,0,6.818,6.16,14.145,14.145,0,0,0-2.455,2.783,27.986,27.986,0,0,1-6.489-6.73v7.321h-3.418v-7.211a24.871,24.871,0,0,1-6.51,6.663,18.311,18.311,0,0,0-2.367-2.7,21.88,21.88,0,0,0,6.8-6.29h-6.16v-3.222h8.242v-8.066h3.418v8.066h8.286v3.222Zm-10.345-3.945a18.975,18.975,0,0,0-2.564-5.129l2.915-1.271a18.97,18.97,0,0,1,2.827,4.975Zm15.956-5.085a52.019,52.019,0,0,1-3.551,5.282l-2.806-1.249a27.338,27.338,0,0,0,2.762-5.415Z" transform="translate(-1956.544 -102.572)"/>
          <path id="路径_1095" data-name="路径 1095" class="cls-5" d="M1856.59,161.1c-.109,6.861-.526,10.521-6.269,12.472a6.587,6.587,0,0,0-.921-1.557v1.228h-2.893v-.483h-2.191v.483h-2.762v-6.16c-.285.109-.571.2-.855.285a12.472,12.472,0,0,0-1.052-3.047,15.735,15.735,0,0,0,2.981-.942l-.767-.4,2.082-1.863,1.4.636a8.89,8.89,0,0,0,.833-.745h-2.673a14.875,14.875,0,0,1-2.455,1.906,8.876,8.876,0,0,0-1.731-2.061,10.189,10.189,0,0,0,2.607-1.928h-2.038V154.79h3.814c-.175-.5-.394-1.03-.57-1.49l3.047-.614c.285.636.657,1.425.942,2.1h3.069v4.143h-1.119l1.25.854a12.045,12.045,0,0,1-2.28,3.245c.943.46,1.842.92,2.544,1.292v-6.136h2.7c.2-.5.4-1.074.571-1.622h-3.331v-2.74h9.972v2.74h-3.836c-.219.57-.46,1.118-.658,1.622h3.9v10.192h-2.717v-7.8h-4.012v7.3c.658-1.6.7-3.769.745-6.772Zm-13.984-2.915a7.991,7.991,0,0,0,.57-.812l2.761.548c-.153.264-.327.525-.5.789h1.906v-1.425h-4.733Zm5.677,8.219c-.68-.416-1.578-.92-2.542-1.425a17.524,17.524,0,0,1-2.5,1.425Zm-1.776,3.923v-1.49h-2.191v1.49Zm2.893.79a6.148,6.148,0,0,0,3.485-2.631h-2.3v-3.638l-1.623,1.556h.438Zm7.672-2.762a38.129,38.129,0,0,1,3.77,2.871l-1.687,2.213a33.443,33.443,0,0,0-3.682-3.113Z" transform="translate(-1839.319 -126.032)"/>
          <path id="路径_1096" data-name="路径 1096" class="cls-5" d="M1890.761,155.545l2.3.658c-.987,8.987-4.165,14.422-9.272,16.9a12.952,12.952,0,0,0-2.673-2.7,12.318,12.318,0,0,0,5.589-4.625c-.767-.7-1.71-1.492-2.411-2.1l1.906-2.192c.527.439,1.25.965,1.908,1.491a21.024,21.024,0,0,0,1.139-4.319h-2.805a21.882,21.882,0,0,1-2.762,5.458,20.984,20.984,0,0,0-2.652-2.017c1.841-2.17,3.089-5.831,3.725-9.578l3.2.569c-.175.856-.373,1.731-.591,2.565h2.806Zm8.878,10.784a39.944,39.944,0,0,0-2.894-3.725v10.783h-3.375V152.564h3.375v7.409l1.184-.855c1.314,1.534,3.441,3.7,4.448,5.063Z" transform="translate(-1858.957 -125.954)"/>
          <path id="路径_1097" data-name="路径 1097" class="cls-5" d="M1940.538,160.209a13.631,13.631,0,0,0-1.359-2.017,18.151,18.151,0,0,1-5.37,3.638h6.925v11.485h-3.222V172.7h-8.044v.723H1926.4V164.2c-.7.131-1.381.285-2.083.394a19.114,19.114,0,0,0-1.95-2.762,36.8,36.8,0,0,0,9.052-2.1V152.6h3.157v5.524a10.7,10.7,0,0,0,1.884-1.644l2.039.921a28.052,28.052,0,0,0-2.367-2.455l2.542-1.535a24.67,24.67,0,0,1,4.647,5.064Zm-10.324-5.7a19.277,19.277,0,0,1-3.858,5.831,19.81,19.81,0,0,0-2.74-1.841,12.144,12.144,0,0,0,3.442-4.844Zm7.3,9.666h-8.044v.614h8.044Zm-8.044,3.42h8.044v-.7h-8.044Zm8.044,2.806v-.7h-8.044v.7Z" transform="translate(-1878.42 -125.993)"/>
          <path id="路径_1098" data-name="路径 1098" class="cls-5" d="M1984.9,163.627V173.4H1981.3v-1.161H1966.4v-8.593h3.6v5.415h3.858v-6.445h-6.225v-8.24h3.4v5.151h2.827V152.6h3.573v6.926h3.024v-5.173h3.573v8.262h-6.6v6.445h3.88v-5.436Z" transform="translate(-1899.15 -125.993)"/>
          <path id="路径_1099" data-name="路径 1099" class="cls-5" d="M2022.969,170.537c.46,0,.549-.876.636-4.121a9.253,9.253,0,0,0,3,1.448c-.263,4.12-.986,5.786-3.288,5.786h-1.884c-2.346,0-3.134-1.009-3.134-4.472V157.124h-4.975v3.858c0,4.054-.723,9.994-5.26,13.217a13.792,13.792,0,0,0-2.565-2.345c4.1-2.915,4.428-7.409,4.428-10.915v-6.926h11.7V169.2c0,1.184.044,1.337.461,1.337Z" transform="translate(-1917.56 -126.656)"/>
          <path id="路径_1100" data-name="路径 1100" class="cls-5" d="M2055.684,158.367c-.022,1.03-.087,2.038-.153,3.069h9.907s-.022.964-.066,1.358c-.307,6.6-.679,9.272-1.557,10.3a3.571,3.571,0,0,1-2.586,1.249,26.305,26.305,0,0,1-3.835.067,7.17,7.17,0,0,0-1.14-3.134c1.468.131,2.914.131,3.595.131a1.407,1.407,0,0,0,1.052-.307c.527-.482.855-2.52,1.074-6.6h-6.816c-.68,3.946-2.259,7.584-6.226,10.083a9.325,9.325,0,0,0-2.3-2.63c5.415-3.113,5.524-8.462,5.678-13.589h-4.67v-3.113h19.442v3.113Z" transform="translate(-1936.925 -127.241)"/>
          <path id="路径_1101" data-name="路径 1101" class="cls-5" d="M2096.468,166.935c-2.257,1.163-4.712,2.368-6.729,3.31l-1.271-3.2c.723-.241,1.6-.592,2.585-.965v-5.326h-2.17v-3h2.17v-4.647h2.959v4.647h1.995v3h-1.995v4.1l1.71-.723Zm7.847-1.425a9.678,9.678,0,0,0,4.975,5.3,12.765,12.765,0,0,0-2.213,2.827,11.747,11.747,0,0,1-5.173-6.575,10.7,10.7,0,0,1-6.071,6.6,11.514,11.514,0,0,0-2.171-2.433,8.906,8.906,0,0,0,5.414-5.72h-2.762v-3h3.243c.044-.527.044-1.03.044-1.557v-1.862H2096.8v-2.96h2.806v-3.112h3.068v3.112h4.888v6.379h1.293v3Zm-1.644-4.537c0,.5,0,1.03-.021,1.535h1.951v-3.42h-1.929Z" transform="translate(-1956.623 -126.188)"/>
        </g>
      </g>
      <path id="路径_1102" data-name="路径 1102" class="cls-6" d="M2166.516,58.454l-.554,5.986a2.041,2.041,0,0,0,.725,1.754l4.617,3.849a2.039,2.039,0,0,1-.857,3.556l-5.864,1.323a2.039,2.039,0,0,0-1.445,1.231l-2.234,5.581a2.04,2.04,0,0,1-3.647.284l-3.071-5.168a2.039,2.039,0,0,0-1.617-.993l-6-.4a2.039,2.039,0,0,1-1.4-3.38l3.966-4.518a2.039,2.039,0,0,0,.445-1.845l-1.473-5.828a2.039,2.039,0,0,1,2.783-2.373l5.522,2.376a2.041,2.041,0,0,0,1.892-.147l5.088-3.2A2.04,2.04,0,0,1,2166.516,58.454Z" transform="translate(-1963.256 -56.223)"/>
    </g>
    <path id="路径_1082" data-name="路径 1082" class="cls-3" d="M1054.452,473.318" transform="translate(-221.429 752.917)"/>
    <path id="路径_1104" data-name="路径 1104" class="cls-7" d="M993.579,112.373" transform="translate(-221.429 712.917)"/>
    <g id="组_4463" data-name="组 4463" transform="translate(131.975 603.784)">
      <g id="组_4455" data-name="组 4455" transform="translate(497.623 240.854)">
        <g id="组_4441" data-name="组 4441">
          <path id="路径_1105" data-name="路径 1105" class="cls-8" d="M1145.072,570.063l11.528,11.528v70.666H538.33l-12.585-12.585" transform="translate(-512.18 -424.384)"/>
          <rect id="矩形_1132" data-name="矩形 1132" class="cls-9" width="660.522" height="176.737"/>
          <rect id="矩形_1133" data-name="矩形 1133" class="cls-10" width="619.326" height="186.006" transform="translate(13.565 29.283)"/>
          <rect id="矩形_1134" data-name="矩形 1134" class="cls-8" width="619.326" height="130.863" transform="translate(28.032 14.817)"/>
          <line id="直线_66" data-name="直线 66" class="cls-8" x2="12.056" y2="12.056" transform="translate(632.096 215.289)"/>
        </g>
        <g id="组_4444" data-name="组 4444" transform="translate(51.815 45.1)">
          <g id="组_4442" data-name="组 4442">
            <path id="路径_1106" data-name="路径 1106" class="cls-5" d="M666.324,373.734v32H655.61v-3.214H623.255c-.929,10.142-3.357,21.428-9,29.141a41.481,41.481,0,0,0-9.214-6.357c7.214-9.928,7.785-24.713,7.785-34.926V373.734h22.928c-.786-2.571-2.071-5.856-3.143-8.428l10.428-2.572a74.956,74.956,0,0,1,4,9.643l-4.786,1.357ZM655.61,392.877v-9.5H623.755v9.5Z" transform="translate(-605.041 -362.164)"/>
            <path id="路径_1107" data-name="路径 1107" class="cls-5" d="M819.534,420.842v9.571H754.895v-9.571h26.784v-3.858H762.037v-9.356h19.642v-3.286h-5.071V391.415h-5.214a20.893,20.893,0,0,1-11.571,14.927,42.806,42.806,0,0,0-6.714-7.214c4.643-2.143,7.071-4.857,8.286-7.714h-6.285v-9.071h7.571V376.13h-5.071v-9h32.856v9H786.25v6.214h5.857v9.071H786.25v11.856h6.143v4.357h20.141v9.356H792.393v3.858Zm-42.926-38.5V376.13H772.18v6.214Zm27.141,11h-9.428V368.916h9.428Zm13.356,2.356c0,4.5-.786,6.857-3.786,8.357-2.928,1.357-6.714,1.571-11.642,1.571a35.8,35.8,0,0,0-3.072-9.07c2.786.143,6.286.143,7.286.071,1,0,1.357-.214,1.357-1.143V365.845h9.857Z" transform="translate(-681.686 -363.774)"/>
            <path id="路径_1108" data-name="路径 1108" class="cls-5" d="M944.1,392.908c4.642,12.928,12.928,23.356,26.07,28.427a44.808,44.808,0,0,0-7.714,9.856c-12.571-5.786-20.428-15.285-25.927-27.927-4.071,11-11.642,20.928-25.713,27.927a32.5,32.5,0,0,0-7.856-8.857c15.642-7.071,22.213-17.784,25.07-29.427H904.384V382.123H929.74c.5-6.286.429-12.571.5-18.5h11.428c-.071,5.928-.143,12.213-.714,18.5h27.427v10.785Z" transform="translate(-759.251 -362.624)"/>
            <path id="路径_1109" data-name="路径 1109" class="cls-5" d="M1114.852,385.618c-1.714,10.643-4.428,19.57-8.643,26.856a34.818,34.818,0,0,0,12.713,9.571,38.3,38.3,0,0,0-7,8.856,41.991,41.991,0,0,1-12.214-9.642,49,49,0,0,1-14.571,10.428,47.428,47.428,0,0,0-5.928-9.642,36.618,36.618,0,0,0,14.213-9.928,72.4,72.4,0,0,1-5.357-13.357c-.857,1.357-1.786,2.571-2.714,3.786a62.646,62.646,0,0,0-5.5-6.214V398.4H1063.64v16l16.142-5.429a49.114,49.114,0,0,0,1.143,9.785c-20.642,7.643-24.427,9.5-26.855,11.356a36.227,36.227,0,0,0-3.786-10.714,4.826,4.826,0,0,0,2.857-4.857V388.189h16.427V377.9h-17V367.69h27.284v24.07c4.857-7.142,8.071-17.57,9.856-28.284L1100,365.333c-.714,3.643-1.5,7.214-2.5,10.714h19.713v9.571Zm-20.5.214a71.4,71.4,0,0,0,5.285,16.285,66.184,66.184,0,0,0,4.358-16.5h-9.571Z" transform="translate(-835.513 -362.547)"/>
            <path id="路径_1110" data-name="路径 1110" class="cls-5" d="M1216.873,416.336c.929.571,2,1.357,3.428,2.214,4.357,2.714,10.785,3,18.428,3,7.286,0,20.713-.643,28.57-1.928-1.071,2.643-2.714,7.5-2.786,10.071-6.428.429-18.213.786-26.141.786-8.857,0-14.428-.715-19-3.357-2.572-1.571-4.714-3.429-6-3.429-2.071,0-5.5,4.214-8.285,8.071l-6.142-9.071a36.347,36.347,0,0,1,8-5.642V400.836h-7.428v-9.571h17.356Zm-7.286-33.142c-1.928-3.428-6.642-8.357-10.5-11.857l7.643-5.642c3.929,3.214,8.857,7.785,11.071,11.214Zm15.214.929a79.644,79.644,0,0,0-7.214-3.785c3.5-3.857,6.214-10.143,7.571-16.142l9.643,2.071c-.429,1.643-.928,3.285-1.428,4.928h4v-7.571h10.285v7.571h14.786v8.714h-14.786v4.214H1265.3v8.643h-46.354v-8.643Zm-1.071,33.427V396.265h36.855V417.55Zm5.857-37.641c-.857,1.572-1.715,2.928-2.571,4.214h10.356v-4.214Zm3.786,29.427H1250.3v-4.857h-16.927Z" transform="translate(-912.464 -362.624)"/>
            <path id="路径_1111" data-name="路径 1111" class="cls-5" d="M1372.986,366.139h10.356v25c0,13.713-.714,28.713-7.642,40.355a51.864,51.864,0,0,0-10.357-5.714,33.676,33.676,0,0,0,4.142-8.143c-10.785,9.928-13.07,12.285-14.285,14.143a27.209,27.209,0,0,0-5.143-7.142,10.939,10.939,0,0,0,3.572-8.357V395.566h-7.357v-9.928h17.285v24.857l4.143-3.715a56.149,56.149,0,0,0,3,7.143c2-7.286,2.286-15.071,2.286-22.856Zm-11.143,16.285c-2.714-3.142-8.785-8.07-13.213-11.428l6.357-6.928c4.286,3,10.643,7.5,13.643,10.571ZM1387.485,370h9.571v51.783h-9.571Zm24.356-4.428v65.282h-10.428V365.568Z" transform="translate(-988.726 -362.854)"/>
            <path id="路径_1112" data-name="路径 1112" class="cls-5" d="M1495.908,411.62a83.325,83.325,0,0,0-2.929-8.286c1.857-.5,3.286-2,5.215-4.5a64.872,64.872,0,0,0,3.856-5.786c-4.071.5-5.57.929-6.57,1.429v-.357a.776.776,0,0,0-.072.357,87.617,87.617,0,0,0-3.285-9.285c1.5-.429,2.643-1.928,3.856-4.214a82.164,82.164,0,0,0,6.5-19.427l9.571,4.285a93.078,93.078,0,0,1-8.5,18.856l3.285-.143c1.071-2.286,2.143-4.642,3.071-6.928l8.357,5a115.85,115.85,0,0,1-9.857,16.642l8.072-1.5a50.662,50.662,0,0,0-.143,8.642c-15.213,3.357-18.356,4.5-20.285,5.571v0l-.072.071Zm20.356,5.786c-7.071,3.643-14.571,7.285-20.784,10.285l-2.357-10.214c5.213-1.642,13.356-4.642,21.427-7.642Zm16.214-7.428c-3,6.214-7.214,13.143-11.571,17.57a52.862,52.862,0,0,0-7.142-5.5,46.6,46.6,0,0,0,9.356-14.785Zm12.428-4.643v14.571c0,4.571-.786,7-3.642,8.5-2.786,1.5-6.571,1.642-11.5,1.642a36.862,36.862,0,0,0-2.786-9.214c2.5.071,5.714.071,6.643.071s1.285-.286,1.285-1.143V405.334h-6.714c-2.928,0-6.357.429-7,1.215a71.634,71.634,0,0,0-3.071-8.643c1.715-.571,2.786-2.428,4.072-5.786h-2.929v-9.428h6c.285-1.285.643-2.572,1-4h-8.072v-9.428h10.214c.429-2.357.857-4.786,1.143-7.142l10.072,1.214c-.357,2-.786,3.929-1.286,5.928h19.785v9.428h-22.213c-.357,1.357-.786,2.714-1.143,4H1544.9v13.356h12.5v9.285Zm-10-9.285v-3.928h-3.357c-.429,1.357-.929,2.643-1.428,3.928Zm18.785,11.428c2.429,4.714,5.786,11.142,7.357,15.071l-8.643,4.428c-1.357-4-4.428-10.713-6.785-15.713Z" transform="translate(-1064.222 -361.551)"/>
            <path id="路径_1113" data-name="路径 1113" class="cls-5" d="M1710.258,368.052v9.214h-13.5v2.429H1686.4v-2.429h-16.713v2.429h-10.213v-2.429h-13.213v-9.214h13.213v-4.428h10.213v4.428H1686.4v-4.428h10.357v4.428Zm-62.712,12.857h61.926v15.356h-10v-7.571h-42.5v7.571h-9.429Zm5.5,27.427h50.926v23.213h-10.356v-1.643H1662.9v1.643h-9.857Zm44.069-17.928v16.356h-37.569V390.409ZM1662.9,417.192v4.357h30.713v-4.357Zm23.927-20.142h-17.642v3.071h17.642Z" transform="translate(-1144.009 -362.624)"/>
          </g>
          <g id="组_4443" data-name="组 4443" transform="translate(1.986 1.928)">
            <path id="路径_1114" data-name="路径 1114" class="cls-11" d="M670.441,377.732v32H659.727v-3.214H627.372c-.929,10.143-3.357,21.427-9,29.141a41.474,41.474,0,0,0-9.214-6.357c7.214-9.928,7.785-24.713,7.785-34.927V377.732h22.927c-.786-2.571-2.071-5.856-3.143-8.428l10.428-2.571a74.948,74.948,0,0,1,4,9.642l-4.786,1.357Zm-10.713,19.142v-9.5H627.872v9.5Z" transform="translate(-609.158 -366.161)"/>
            <path id="路径_1115" data-name="路径 1115" class="cls-11" d="M823.651,424.839v9.571H759.012v-9.571H785.8v-3.857H766.154v-9.357H785.8V408.34h-5.071V395.412h-5.214A20.894,20.894,0,0,1,763.94,410.34a42.818,42.818,0,0,0-6.714-7.214c4.643-2.143,7.071-4.857,8.286-7.714h-6.285v-9.071H766.8v-6.214h-5.071v-9h32.856v9h-4.215v6.214h5.857v9.071h-5.857v11.857h6.143v4.357h20.142v9.357H796.51v3.857Zm-42.926-38.5v-6.214H776.3v6.214Zm27.141,11h-9.428V372.913h9.428Zm13.356,2.356c0,4.5-.786,6.857-3.785,8.357-2.929,1.357-6.714,1.572-11.643,1.572a35.791,35.791,0,0,0-3.071-9.071c2.786.143,6.285.143,7.285.071,1,0,1.357-.214,1.357-1.143V369.842h9.856Z" transform="translate(-685.803 -367.771)"/>
            <path id="路径_1116" data-name="路径 1116" class="cls-11" d="M948.214,396.905c4.642,12.928,12.928,23.356,26.07,28.427a44.8,44.8,0,0,0-7.714,9.856C954,429.4,946.142,419.9,940.642,407.262c-4.071,11-11.642,20.928-25.713,27.927a32.506,32.506,0,0,0-7.856-8.857c15.642-7.071,22.213-17.784,25.07-29.427H908.5V386.12h25.356c.5-6.285.429-12.571.5-18.5h11.428c-.071,5.928-.143,12.214-.714,18.5H972.5v10.785Z" transform="translate(-763.368 -366.621)"/>
            <path id="路径_1117" data-name="路径 1117" class="cls-11" d="M1118.969,389.615c-1.714,10.642-4.428,19.57-8.642,26.856a34.809,34.809,0,0,0,12.713,9.571,38.313,38.313,0,0,0-7,8.857,41.986,41.986,0,0,1-12.214-9.642,49.016,49.016,0,0,1-14.571,10.428,47.4,47.4,0,0,0-5.928-9.643,36.618,36.618,0,0,0,14.214-9.928,72.39,72.39,0,0,1-5.357-13.357c-.857,1.357-1.786,2.571-2.714,3.786a62.6,62.6,0,0,0-5.5-6.214V402.4h-16.214v16l16.142-5.429a49.084,49.084,0,0,0,1.143,9.785c-20.642,7.643-24.427,9.5-26.856,11.356A36.219,36.219,0,0,0,1054.4,423.4a4.826,4.826,0,0,0,2.857-4.856V392.186h16.428V381.9h-17V371.687h27.284v24.071c4.857-7.143,8.071-17.571,9.857-28.285l10.285,1.857c-.714,3.643-1.5,7.214-2.5,10.714h19.713v9.571Zm-20.5.214a71.351,71.351,0,0,0,5.285,16.285,66.206,66.206,0,0,0,4.357-16.5h-9.571Z" transform="translate(-839.63 -366.544)"/>
            <path id="路径_1118" data-name="路径 1118" class="cls-11" d="M1220.99,420.333c.929.571,2,1.357,3.428,2.214,4.357,2.714,10.786,3,18.428,3,7.286,0,20.713-.643,28.57-1.928-1.071,2.643-2.714,7.5-2.786,10.071-6.428.428-18.213.786-26.141.786-8.857,0-14.428-.714-19-3.357-2.572-1.572-4.714-3.428-6-3.428-2.071,0-5.5,4.214-8.285,8.071l-6.143-9.071a36.365,36.365,0,0,1,8-5.643V404.833h-7.428v-9.571h17.356Zm-7.286-33.141c-1.929-3.429-6.642-8.357-10.5-11.857l7.642-5.642c3.929,3.214,8.857,7.785,11.071,11.214Zm15.213.928a79.626,79.626,0,0,0-7.214-3.785c3.5-3.857,6.214-10.143,7.571-16.142l9.643,2.071c-.429,1.642-.928,3.285-1.428,4.928h4v-7.571h10.285v7.571h14.786v8.714h-14.786v4.214h17.642v8.643h-46.354V388.12Zm-1.071,33.427V400.262H1264.7v21.285Zm5.857-37.641c-.857,1.572-1.714,2.928-2.571,4.214h10.356v-4.214Zm3.786,29.427h16.927v-4.857h-16.927Z" transform="translate(-916.581 -366.621)"/>
            <path id="路径_1119" data-name="路径 1119" class="cls-11" d="M1377.1,370.137h10.357v25c0,13.713-.714,28.713-7.643,40.355a51.893,51.893,0,0,0-10.357-5.714,33.664,33.664,0,0,0,4.143-8.142c-10.784,9.928-13.07,12.285-14.284,14.143a27.239,27.239,0,0,0-5.143-7.143,10.938,10.938,0,0,0,3.571-8.357V399.563h-7.357v-9.928h17.285v24.856l4.143-3.715a56.032,56.032,0,0,0,3,7.143c2-7.285,2.286-15.071,2.286-22.856Zm-11.143,16.284c-2.714-3.142-8.785-8.071-13.213-11.428l6.356-6.928c4.286,3,10.643,7.5,13.643,10.571Zm25.642-12.428h9.571v51.783H1391.6Zm24.356-4.428v65.282H1405.53V369.565Z" transform="translate(-992.843 -366.851)"/>
            <path id="路径_1120" data-name="路径 1120" class="cls-11" d="M1500.025,415.617a83.15,83.15,0,0,0-2.929-8.285c1.857-.5,3.286-2,5.214-4.5a64.908,64.908,0,0,0,3.856-5.785c-4.071.5-5.571.929-6.57,1.428v-.357a.773.773,0,0,0-.072.357,87.674,87.674,0,0,0-3.285-9.285c1.5-.429,2.642-1.928,3.856-4.214a82.181,82.181,0,0,0,6.5-19.427l9.571,4.285a93.078,93.078,0,0,1-8.5,18.856l3.285-.143c1.071-2.286,2.143-4.643,3.072-6.929l8.356,5a115.829,115.829,0,0,1-9.856,16.642l8.071-1.5a50.636,50.636,0,0,0-.143,8.642c-15.214,3.357-18.357,4.5-20.285,5.571v0l-.072.072Zm20.355,5.786c-7.071,3.642-14.571,7.285-20.784,10.285l-2.357-10.214c5.213-1.642,13.356-4.642,21.428-7.642Zm16.214-7.428c-3,6.213-7.214,13.142-11.572,17.57a52.784,52.784,0,0,0-7.142-5.5,46.591,46.591,0,0,0,9.356-14.785Zm12.427-4.643V423.9c0,4.571-.786,7-3.642,8.5-2.786,1.5-6.571,1.642-11.5,1.642a36.862,36.862,0,0,0-2.786-9.214c2.5.071,5.714.071,6.643.071s1.285-.286,1.285-1.143V409.332h-6.714c-2.928,0-6.357.428-7,1.214a71.548,71.548,0,0,0-3.071-8.643c1.715-.571,2.785-2.428,4.072-5.786h-2.929V386.69h6c.285-1.286.643-2.572,1-4h-8.071v-9.428h10.213c.429-2.357.858-4.785,1.143-7.142l10.072,1.214c-.357,2-.786,3.928-1.286,5.928h19.785v9.428h-22.213c-.357,1.357-.786,2.714-1.143,4h10.142v13.357h12.5v9.285Zm-10-9.285v-3.929h-3.357c-.429,1.357-.929,2.643-1.428,3.929Zm18.785,11.428c2.429,4.714,5.786,11.142,7.357,15.071l-8.643,4.428c-1.356-4-4.427-10.713-6.785-15.713Z" transform="translate(-1068.339 -365.548)"/>
            <path id="路径_1121" data-name="路径 1121" class="cls-11" d="M1714.375,372.049v9.214h-13.5v2.429h-10.357v-2.429h-16.713v2.429h-10.214v-2.429h-13.214v-9.214h13.214v-4.428h10.214v4.428h16.713v-4.428h10.357v4.428Zm-62.712,12.857h61.926v15.356h-10v-7.571h-42.5v7.571h-9.429Zm5.5,27.427h50.926v23.213h-10.356V433.9H1667.02v1.643h-9.856Zm44.069-17.928v16.356h-37.569V394.406ZM1667.02,421.19v4.357h30.713V421.19Zm23.927-20.142h-17.642v3.071h17.642Z" transform="translate(-1148.126 -366.621)"/>
          </g>
        </g>
        <g id="组_4454" data-name="组 4454" transform="translate(92.106 156.235)">
          <g id="组_4445" data-name="组 4445" transform="translate(30.321 7.814)">
            <path id="路径_1122" data-name="路径 1122" class="cls-1" d="M773.351,627.586a86.981,86.981,0,0,0,14.992,2.825,23.571,23.571,0,0,0-3.277,4.295,70.638,70.638,0,0,1-15.9-4.822,69.021,69.021,0,0,1-11.452,4.144H768c-.6-.6-1.281-1.205-1.846-1.7l3.164-2.3a29.866,29.866,0,0,1,3.541,3.127l-1.168.866h8.137l.716-.264,3.5,2.487a37.058,37.058,0,0,1-8.175,5.387c1.507.452,2.826.9,3.918,1.318l-2.072,3.8a126.336,126.336,0,0,0-17.29-5.16l1.959-3.277c2.072.376,4.52.9,6.969,1.544a51.257,51.257,0,0,0,4.746-2.034H756.927v-3.579c-.866.226-1.733.414-2.562.6a21.562,21.562,0,0,0-2.938-4.144,72.689,72.689,0,0,0,14.013-3.767h-7.572V623.97h8.513v2.6a25.129,25.129,0,0,0,3.2-1.657h-2.448v-5.576h-9.342v3.956h-4.822v-7.271h14.164v-.791H755.759v-3.8h28.178v3.8H772.484v.791H786.95v7.271H781.9v-3.956h-9.417v5.576h-2.3l3.127,2V623.97h8.513v2.976h-8.438l.489.3Zm-7.007-7.421v2.825H758.7v-2.825Zm6.97,2.825v-2.825h7.646v2.825Z" transform="translate(-751.427 -609.844)"/>
            <path id="路径_1123" data-name="路径 1123" class="cls-1" d="M851.016,637.9v1.545h12.017v4.445H834.026v-4.445H845.44V637.9h-6.1v-2.26a23.213,23.213,0,0,1-5.8,3.579,22.717,22.717,0,0,0-3.466-4.182,22.868,22.868,0,0,0,6.894-3.843H830.41v-4.445h7.044V615.942h-4.9v-4.37h4.9v-2.411h5.5v2.411h10.811V609.2h5.613v2.373h4.9v4.37h-4.9v10.811H866.2V631.2h-6.141a24.84,24.84,0,0,0,6.517,3.542,21.243,21.243,0,0,0-3.579,4.219,23.293,23.293,0,0,1-5.65-3.73V637.9Zm-5.575-4.257v-1.921h5.575v1.921h4.671a31.446,31.446,0,0,1-2.109-2.448H843.557a25.341,25.341,0,0,1-2.072,2.448Zm-2.486-17.7v1.13h10.811v-1.13Zm0,5.99h10.811V620.8H842.954Zm0,4.822h10.811v-1.093H842.954Z" transform="translate(-792.136 -608.671)"/>
            <path id="路径_1124" data-name="路径 1124" class="cls-1" d="M909.035,610.792h13.749v4.935h-4.972c-.49,2.3-1.131,4.634-1.846,6.894h6.14V640.59h-6.442V643.3H911.22V632.453a18.658,18.658,0,0,1-1.281,1.62,31.354,31.354,0,0,0-1.77-6.667c2.185-2.9,3.654-7.12,4.558-11.678h-3.692Zm8.589,16.575h-1.959v8.476h1.959Zm25.729.6v17.14h-5.311v-2H923.124V627.894h5.462v9.945h1.921V626.764h-6.668V613.128h4.9v8.852h1.771V609.474h5.424V621.98h1.507v-8.852H942.6v13.636h-6.668v11.075h2.11V627.97Z" transform="translate(-832.562 -608.833)"/>
            <path id="路径_1125" data-name="路径 1125" class="cls-1" d="M998.022,619.822c-1.281,5.764-3.277,12.921-6.291,17.1a30.844,30.844,0,0,0-5.387-2.863c2.863-3.767,4.709-10.435,5.425-15.294Zm9.644-9.568v28.63c0,3.164-.679,4.633-2.6,5.537-1.959.866-4.709,1.055-8.438,1.017a22.448,22.448,0,0,0-2.185-5.688c2.335.151,5.2.151,6.027.113.866,0,1.168-.264,1.168-1.017V610.254Zm8.4,8.062c2.976,5.349,6.027,12.2,6.969,17.027l-6.027,2.374c-.716-4.634-3.466-11.791-6.329-17.4Z" transform="translate(-873.027 -609.237)"/>
            <path id="路径_1126" data-name="路径 1126" class="cls-1" d="M1101.2,614.2v30.513h-5.839v-2.3H1077.32v2.3h-5.537V614.2h9.606a34.218,34.218,0,0,0,1.281-5.349l7.27.866c-.678,1.582-1.394,3.127-2.072,4.483Zm-23.883,5.538v5.688h18.045v-5.688Zm18.045,17.14v-6.027H1077.32v6.027Z" transform="translate(-917.253 -608.51)"/>
            <path id="路径_1127" data-name="路径 1127" class="cls-1" d="M1175.05,629.693a23.251,23.251,0,0,1-7.76,8.137,63.6,63.6,0,0,0,11.678,1.884,23.031,23.031,0,0,0-3.089,4.784,50.573,50.573,0,0,1-14.767-3.541,62.663,62.663,0,0,1-14.918,3.541,18.559,18.559,0,0,0-2.561-4.822,64.776,64.776,0,0,0,11.791-1.921,26.974,26.974,0,0,1-5.688-5.462h-2.825v-4.747h23.77l.867-.188Zm-21.321-10.925a23.75,23.75,0,0,1-5.349,7.384,29.614,29.614,0,0,0-4.219-2.863,14.971,14.971,0,0,0,4.671-5.839Zm.113-1.846h-9v-4.784h14.013c-.376-.942-.828-1.959-1.243-2.788l5.387-1.206c.678,1.206,1.545,2.863,2.034,3.993h12.733v4.784h-9.154V619.3l2.939-1.922a36.732,36.732,0,0,1,6.479,5.689l-4.106,3.013a35.185,35.185,0,0,0-5.312-5.273v6.027h-5.538v-9.907h-3.692v9.907h-5.537Zm2.3,15.369a21.744,21.744,0,0,0,5.2,3.391,20.677,20.677,0,0,0,5.2-3.391Z" transform="translate(-954.445 -608.146)"/>
            <path id="路径_1128" data-name="路径 1128" class="cls-1" d="M1257.44,622.413a45.5,45.5,0,0,1-6.4,8.174v7.986c0,2.788-.527,4.257-2.26,5.123s-4.105.979-7.572.979a18.646,18.646,0,0,0-1.733-5.311,68.62,68.62,0,0,1-13.41,5.688,32.872,32.872,0,0,0-3.315-4.407,60.039,60.039,0,0,0,15.446-6.253h-14.616v-4.746h4.709v-17.1h7.91a32.745,32.745,0,0,0,.98-3.616l6.441.6c-.489,1.017-1.054,2.035-1.619,3.014h9.041v10.284a30.206,30.206,0,0,0,1.658-2.6Zm-23.732-5.2v1.469h12.017v-1.469Zm12.017,5.311h-12.017v1.582h12.017Zm-.867,7.12c.3-.264.565-.528.867-.792v-.9h-12.017v1.7Zm.867,5.613a52.744,52.744,0,0,1-6.179,4.031c2.034.113,4.483.113,5.2.113.716-.038.98-.264.98-.9Z" transform="translate(-995.396 -608.55)"/>
            <path id="路径_1129" data-name="路径 1129" class="cls-1" d="M1313.671,619.4a49.085,49.085,0,0,1-2.637,5.048h4.935v-3.918h5.538v3.918h10.586v11.527c0,2.411-.49,3.767-2.148,4.558-1.62.753-3.692.829-6.291.829a19.42,19.42,0,0,0-1.7-4.972c1.356.075,3.314.075,3.8.075.565,0,.753-.151.753-.6v-6.253h-5.01v15.181h-5.538V629.608h-4.822V641.55h-5.5v-10.1a29.42,29.42,0,0,1-4.371,3.692,33.027,33.027,0,0,0-3.088-4.859,27.993,27.993,0,0,0,9.342-10.887h-7.873v-5.237h10.171a48.241,48.241,0,0,0,1.544-5.236l5.688,1.281c-.377,1.319-.791,2.637-1.281,3.955h17.969V619.4Z" transform="translate(-1034.448 -608.55)"/>
            <path id="路径_1130" data-name="路径 1130" class="cls-1" d="M1411.487,625.929s-.038,1.507-.075,2.147c-.339,10.661-.716,14.993-1.808,16.462a4.363,4.363,0,0,1-3.089,1.883,22.572,22.572,0,0,1-4.521.226,12.4,12.4,0,0,0-.678-3.277h-8.89v2.3h-5.01V632.447h15.219v9.192h.9a1.229,1.229,0,0,0,1.206-.565c.565-.716.866-3.466,1.092-10.4H1386.1c-.641,5.349-2.073,11.038-4.935,15.031a20.581,20.581,0,0,0-4.407-3.465c4.106-5.763,4.407-14.39,4.407-20.342v-9.38h27.461v11.49h-22.075c0,.6-.038,1.243-.075,1.921Zm-24.9-8.852v2.373h16.538v-2.373Zm10.963,19.626h-5.124v2.411h5.124Z" transform="translate(-1075.116 -610.41)"/>
            <path id="路径_1131" data-name="路径 1131" class="cls-1" d="M1464.9,636.594c.528.3,1.093.641,1.809.98,2.636,1.394,6.291,1.62,10.472,1.62a98.949,98.949,0,0,0,13.938-1.055,22.966,22.966,0,0,0-1.619,5.952c-2.637.188-8.513.415-12.545.415-4.859,0-8.1-.453-10.962-1.884-1.846-.9-3.2-2.034-4.068-2.034-1.018,0-2.524,2.675-3.542,4.671l-3.767-5.538a16.546,16.546,0,0,1,4.747-3.579v-8.1h-4.031v-5.274h9.568Zm-4.709-16.763a31.319,31.319,0,0,0-4.294-7.685l4.708-2.411a31.155,31.155,0,0,1,4.671,7.383Zm25.578,18.346a58.91,58.91,0,0,0-7.8-9.154,17.872,17.872,0,0,1-8.927,9.192,15.387,15.387,0,0,0-3.541-4.446c5.876-2.825,7.986-6.931,8.776-12.431h-7.646v-5.311h8.1c.075-2.034.075-4.256.113-6.63h5.726c-.038,2.335-.075,4.52-.188,6.63h9.342v5.311h-9.795c-.113.753-.226,1.469-.339,2.185a68.717,68.717,0,0,1,10.812,11.151Z" transform="translate(-1115.421 -608.793)"/>
            <path id="路径_1132" data-name="路径 1132" class="cls-1" d="M1553.943,609.161c-.038,1.733-.113,3.88-.3,6.291.566,5.349,2.939,18.647,15.972,24.448a15.6,15.6,0,0,0-4.03,4.747c-7.911-3.8-12.13-10.435-14.428-16.575a31.308,31.308,0,0,1-13.3,16.839,18,18,0,0,0-4.6-4.483c15.144-8.4,14.165-24.486,14.352-31.267Z" transform="translate(-1156.129 -608.671)"/>
          </g>
          <g id="组_4449" data-name="组 4449">
            <g id="组_4448" data-name="组 4448">
              <g id="组_4446" data-name="组 4446">
                <rect id="矩形_1135" data-name="矩形 1135" class="cls-1" width="8.222" height="8.222" transform="translate(0 7.559)"/>
                <rect id="矩形_1136" data-name="矩形 1136" class="cls-1" width="4.111" height="9.547"/>
              </g>
              <g id="组_4447" data-name="组 4447" transform="translate(13.07)">
                <rect id="矩形_1137" data-name="矩形 1137" class="cls-1" width="8.222" height="8.222" transform="translate(0 7.559)"/>
                <rect id="矩形_1138" data-name="矩形 1138" class="cls-1" width="4.111" height="9.547"/>
              </g>
            </g>
          </g>
          <g id="组_4453" data-name="组 4453" transform="translate(454.596 31.778)">
            <g id="组_4452" data-name="组 4452">
              <g id="组_4450" data-name="组 4450" transform="translate(13.07)">
                <rect id="矩形_1139" data-name="矩形 1139" class="cls-1" width="8.222" height="8.222"/>
                <rect id="矩形_1140" data-name="矩形 1140" class="cls-1" width="4.111" height="9.547" transform="translate(4.111 6.234)"/>
              </g>
              <g id="组_4451" data-name="组 4451">
                <rect id="矩形_1141" data-name="矩形 1141" class="cls-1" width="8.222" height="8.222"/>
                <rect id="矩形_1142" data-name="矩形 1142" class="cls-1" width="4.111" height="9.547" transform="translate(4.111 6.234)"/>
              </g>
            </g>
          </g>
        </g>
      </g>
      <g id="组_4462" data-name="组 4462" transform="translate(735.516 215.507)">
        <g id="组_4460" data-name="组 4460">
          <g id="组_4459" data-name="组 4459">
            <g id="组_4458" data-name="组 4458">
              <g id="组_4456" data-name="组 4456">
                <path id="路径_1133" data-name="路径 1133" class="cls-12" d="M1396.586,229.188v51.979l-6.6-6.6V229.188Z" transform="translate(-1197.429 -222.589)"/>
                <path id="路径_1134" data-name="路径 1134" class="cls-5" d="M1396.586,222.106h-6.6v-6.6Z" transform="translate(-1197.429 -215.507)"/>
                <path id="路径_1135" data-name="路径 1135" class="cls-12" d="M1197.045,329.859H1004.493v-6.6H1190.44Z" transform="translate(-997.888 -271.28)"/>
                <rect id="矩形_1143" data-name="矩形 1143" class="cls-1" width="192.382" height="51.808" transform="translate(0.171 0.165)"/>
                <path id="路径_1136" data-name="路径 1136" class="cls-1" d="M1183.352,215.507v6.6H997.4v45.374h-6.6V215.507Z" transform="translate(-990.8 -215.507)"/>
                <path id="路径_1137" data-name="路径 1137" class="cls-5" d="M997.4,323.254v6.6l-6.6-6.6Z" transform="translate(-990.8 -271.28)"/>
              </g>
              <g id="组_4457" data-name="组 4457">
                <path id="路径_1138" data-name="路径 1138" class="cls-13" d="M1190.44,229.188h6.6v51.979H1004.493v-6.6" transform="translate(-997.888 -222.589)"/>
                <line id="直线_67" data-name="直线 67" class="cls-13" x2="6.605" y2="6.599" transform="translate(192.552)"/>
                <line id="直线_68" data-name="直线 68" class="cls-13" x2="6.605" y2="6.605" transform="translate(192.552 51.974)"/>
                <line id="直线_69" data-name="直线 69" class="cls-13" x2="6.605" y2="6.605" transform="translate(0 51.974)"/>
                <path id="路径_1139" data-name="路径 1139" class="cls-13" d="M1183.352,267.481H990.8V215.507h192.552v51.974Z" transform="translate(-990.8 -215.507)"/>
              </g>
            </g>
          </g>
        </g>
        <g id="组_4461" data-name="组 4461" transform="translate(14.951 5.519)">
          <path id="路径_1140" data-name="路径 1140" class="cls-2" d="M1131.589,250.835v-6.692h-29.04v6.692h11.174v4.483h-11.174v17.865h29.04V255.318h-11.174v-4.483Zm-6.693,11.174v4.483h-15.657v-4.483h4.484v2.654h6.693v-2.654Z" transform="translate(-1063.596 -235.848)"/>
          <path id="路径_1141" data-name="路径 1141" class="cls-2" d="M1056.017,244.143h-6.69v11.175h-11.175v6.691h11.175v11.174h6.69V262.009h11.176v-6.691h-11.176Z" transform="translate(-1030.263 -235.848)"/>
          <rect id="矩形_1144" data-name="矩形 1144" class="cls-2" width="5.668" height="9.06" transform="translate(0 9.216) rotate(-44.997)"/>
          <rect id="矩形_1145" data-name="矩形 1145" class="cls-2" width="5.668" height="9.061" transform="matrix(0.707, -0.707, 0.707, 0.707, 5.207, 4.008)"/>
          <rect id="矩形_1146" data-name="矩形 1146" class="cls-2" width="18.193" height="3.852" transform="translate(151.431 28.804) rotate(-90)"/>
          <rect id="矩形_1147" data-name="矩形 1147" class="cls-2" width="6.682" height="16.35" transform="translate(134.082 21.028) rotate(-90)"/>
          <rect id="矩形_1148" data-name="矩形 1148" class="cls-2" width="6.682" height="24.494" transform="translate(138.916 8.339)"/>
          <path id="路径_1142" data-name="路径 1142" class="cls-2" d="M1323.865,294.3l-9.357.093-4.725-4.725,4.725-4.725Z" transform="translate(-1170.867 -256.97)"/>
          <rect id="矩形_1149" data-name="矩形 1149" class="cls-2" width="6.682" height="28.995" transform="translate(156.394 8.383)"/>
          <rect id="矩形_1150" data-name="矩形 1150" class="cls-2" width="6.682" height="5.098" transform="translate(152.79 33.773) rotate(-45)"/>
          <rect id="矩形_1151" data-name="矩形 1151" class="cls-2" width="17.418" height="5.098" transform="translate(150.791 24.956) rotate(135)"/>
          <rect id="矩形_1152" data-name="矩形 1152" class="cls-2" width="29.038" height="3.852" transform="translate(70.7 16.231)"/>
          <rect id="矩形_1153" data-name="矩形 1153" class="cls-2" width="29.038" height="4.717" transform="translate(70.7 9.629)"/>
          <rect id="矩形_1154" data-name="矩形 1154" class="cls-2" width="12.123" height="3.852" transform="translate(78.529 20.884)"/>
          <rect id="矩形_1155" data-name="矩形 1155" class="cls-2" width="6.682" height="16.283" transform="translate(83.97 21.095)"/>
          <rect id="矩形_1156" data-name="矩形 1156" class="cls-2" width="6.682" height="5.862" transform="translate(70.7 9.629)"/>
          <rect id="矩形_1157" data-name="矩形 1157" class="cls-2" width="6.682" height="5.862" transform="translate(93.055 9.629)"/>
          <rect id="矩形_1158" data-name="矩形 1158" class="cls-2" width="6.682" height="5.098" transform="translate(81.877 8.383)"/>
          <rect id="矩形_1159" data-name="矩形 1159" class="cls-2" width="6.682" height="5.098" transform="translate(80.366 33.773) rotate(-45)"/>
          <path id="路径_1143" data-name="路径 1143" class="cls-2" d="M1182.529,263.725l-10.742,10.742-3.6-3.605,8.651-8.651Z" transform="translate(-1097.57 -245.201)"/>
          <rect id="矩形_1160" data-name="矩形 1160" class="cls-2" width="9.421" height="5.098" transform="translate(71.424 33.76) rotate(-45)"/>
          <rect id="矩形_1161" data-name="矩形 1161" class="cls-2" width="9.142" height="5.098" transform="translate(96.133 37.378) rotate(-135)"/>
          <rect id="矩形_1162" data-name="矩形 1162" class="cls-2" width="11.561" height="5.098" transform="translate(87.958 29.203) rotate(-45)"/>
          <rect id="矩形_1163" data-name="矩形 1163" class="cls-2" width="6.682" height="17.637" transform="translate(113.737 23.823) rotate(-90)"/>
          <rect id="矩形_1164" data-name="矩形 1164" class="cls-2" width="6.682" height="16.35" transform="translate(105.788 21.028)"/>
          <rect id="矩形_1165" data-name="矩形 1165" class="cls-2" width="6.682" height="29.039" transform="translate(119.215 8.339)"/>
          <rect id="矩形_1166" data-name="矩形 1166" class="cls-2" width="6.682" height="10.091" transform="translate(102.38 23.133) rotate(-90)"/>
          <rect id="矩形_1167" data-name="矩形 1167" class="cls-2" width="6.682" height="5.098" transform="translate(111.37 29.048) rotate(45)"/>
          <rect id="矩形_1168" data-name="矩形 1168" class="cls-2" width="9.142" height="5.098" transform="translate(109.523 18.408) rotate(-135)"/>
        </g>
      </g>
    </g>
    <g id="组_4464" data-name="组 4464" transform="translate(-110.16 321.783)">
      <path id="路径_1144" data-name="路径 1144" class="cls-14" d="M943.29,866.921l-23.206-17.482v11.474H900.875V843.955H888.86v28.974h31.224V884.4Z" transform="translate(-3.322 -3.322)"/>
      <path id="路径_1145" data-name="路径 1145" class="cls-4" d="M936.552,860.183,913.347,842.7v11.474H894.137V837.217H882.122v28.974h31.224v11.474Z" transform="translate(0 0)"/>
      <line id="直线_70" data-name="直线 70" class="cls-4" x2="3.416" y2="3.416" transform="translate(894.137 837.217)"/>
      <line id="直线_71" data-name="直线 71" class="cls-4" x2="3.416" y2="3.416" transform="translate(882.122 866.191)"/>
      <line id="直线_72" data-name="直线 72" class="cls-4" x2="3.416" y2="3.416" transform="translate(913.347 877.665)"/>
      <line id="直线_73" data-name="直线 73" class="cls-4" x2="3.416" y2="3.416" transform="translate(936.552 860.183)"/>
    </g>
    <g id="组_4467" data-name="组 4467" transform="translate(360 1126.346)">
      <g id="组_4465" data-name="组 4465" transform="translate(0 0)">
        <path id="路径_1146" data-name="路径 1146" class="cls-4" d="M386.005,828.267H174.538v74.474h23.222l11.519,19.951L220.8,902.741H386.005Z" transform="translate(-169.309 -823.038)"/>
        <path id="路径_1147" data-name="路径 1147" class="cls-4" d="M377.619,819.881H166.152v74.474h25.667l11.519,19.951,11.519-19.951H377.619Z" transform="translate(-166.152 -819.881)"/>
      </g>
      <g id="组_4466" data-name="组 4466" transform="translate(27.629 7.834)">
        <path id="路径_1148" data-name="路径 1148" class="cls-5" d="M233.207,847.722a16.492,16.492,0,0,1-5.5,5.768,45.116,45.116,0,0,0,8.28,1.336,16.391,16.391,0,0,0-2.191,3.391,35.887,35.887,0,0,1-10.469-2.51,44.482,44.482,0,0,1-10.576,2.51,13.137,13.137,0,0,0-1.816-3.418,45.947,45.947,0,0,0,8.359-1.362,19.136,19.136,0,0,1-4.033-3.873h-2V846.2h16.853l.614-.134Zm-15.116-7.746a16.84,16.84,0,0,1-3.792,5.235,20.953,20.953,0,0,0-2.991-2.029,10.623,10.623,0,0,0,3.311-4.141Zm.08-1.309h-6.384v-3.392h9.936c-.267-.667-.588-1.388-.882-1.975l3.819-.855c.481.855,1.1,2.029,1.442,2.83h9.027v3.392h-6.49v1.683l2.083-1.362a26.008,26.008,0,0,1,4.594,4.033l-2.911,2.136a24.949,24.949,0,0,0-3.766-3.739v4.273h-3.926v-7.024H222.1v7.024h-3.925Zm1.629,10.9a15.44,15.44,0,0,0,3.686,2.4,14.674,14.674,0,0,0,3.685-2.4Z" transform="translate(-210.639 -832.445)"/>
        <path id="路径_1149" data-name="路径 1149" class="cls-5" d="M278.911,842.434a32.251,32.251,0,0,1-4.54,5.8v5.662c0,1.977-.374,3.018-1.6,3.632s-2.911.694-5.369.694a13.233,13.233,0,0,0-1.228-3.766,48.716,48.716,0,0,1-9.508,4.034,23.334,23.334,0,0,0-2.35-3.125,42.6,42.6,0,0,0,10.95-4.433H254.9v-3.367h3.339V835.436h5.609a23.252,23.252,0,0,0,.694-2.563l4.568.427c-.347.721-.748,1.442-1.149,2.136h6.41v7.292a21.513,21.513,0,0,0,1.175-1.843Zm-16.825-3.685v1.041h8.52v-1.041Zm8.52,3.766h-8.52v1.122h8.52Zm-.614,5.046c.213-.186.4-.374.614-.56v-.641h-8.52v1.2Zm.614,3.98a37.316,37.316,0,0,1-4.38,2.857c1.442.08,3.178.08,3.686.08.507-.027.694-.186.694-.64Z" transform="translate(-226.969 -832.606)"/>
        <path id="路径_1150" data-name="路径 1150" class="cls-5" d="M320.36,851.4a32.15,32.15,0,0,1-3.793,2.245,18.7,18.7,0,0,0,5.181,1.442,12.636,12.636,0,0,0-2.137,3.15c-3.98-.774-6.73-2.27-8.68-4.619a19.344,19.344,0,0,0-.266,2.8c-7.505,1.5-8.707,1.789-9.428,2.19a9.775,9.775,0,0,0-1.068-2.884,2.164,2.164,0,0,0,1.682-1.708,26.816,26.816,0,0,1-3.686.988,15.35,15.35,0,0,0-2.056-2.751,26.231,26.231,0,0,0,7.719-2.3H296.67v-3.018h10.1c-.107-.294-.241-.587-.347-.855l3.819-1.068a15.866,15.866,0,0,1,.881,1.923h10.1v3.018h-2.777Zm-24.144-9.374c1.5-.508,3.525-1.282,5.608-2.11v-2.8l-1.976,2.057a20.409,20.409,0,0,0-3.312-2.912l2.19-2.189a27.512,27.512,0,0,1,3.1,2.323V833H305.4v13.113h-3.579v-2.8c-1.5.64-3.045,1.281-4.38,1.816Zm14.5,11.35a15.849,15.849,0,0,1-1.949-3.311,16.465,16.465,0,0,1-3.152,2.3v1.977Zm.882-14.288h-5.369V835.78H311.6V833h3.9v2.778h5.528v3.311H315.5v2.537h4.967v3.311H306.873v-3.311H311.6Zm.8,10.87a9.472,9.472,0,0,0,1.522,1.9,29.355,29.355,0,0,0,2.965-1.9Z" transform="translate(-242.703 -832.655)"/>
        <path id="路径_1151" data-name="路径 1151" class="cls-5" d="M347.217,834.108a52.7,52.7,0,0,1-2.109,5.422v18.8h-3.686V846.045a16.3,16.3,0,0,1-1.015,1.283,30.1,30.1,0,0,0-1.816-4.274,28.678,28.678,0,0,0,5.048-10.014Zm16.238,2.377a15.167,15.167,0,0,1-3.926,5.795,20.626,20.626,0,0,0,5.128,1.522,15.355,15.355,0,0,0-2.11,3.072,18.78,18.78,0,0,1-5.9-2.456,24.265,24.265,0,0,1-6.329,2.617,11.724,11.724,0,0,0-.962-1.737v8.359h-3.179V840.678h3.179v3.284a22.006,22.006,0,0,0,4.567-1.683,13.708,13.708,0,0,1-1.469-1.628,13.43,13.43,0,0,1-1.228,1.227,20.142,20.142,0,0,0-2.885-2.216,14.2,14.2,0,0,0,4.621-6.7l3.5.855q-.321.88-.721,1.762h4.887l.588-.134Zm.775,15.837c-2.858,3.339-7.478,5.021-12.846,6.036a11.911,11.911,0,0,0-1.95-3.018c4.727-.614,9.241-1.923,11.485-4.354Zm-4.781-5.742a17.177,17.177,0,0,1-6.784,3.658,10.964,10.964,0,0,0-2-2.19,15.617,15.617,0,0,0,5.982-2.617Zm2.591,2.51c-2.191,2.377-5.742,3.927-9.481,4.862a11.637,11.637,0,0,0-1.816-2.4c3.312-.614,6.81-1.843,8.546-3.579Zm-7.505-10.469a11.874,11.874,0,0,0,2.057,1.923,13.125,13.125,0,0,0,1.922-1.923Z" transform="translate(-258.695 -832.638)"/>
        <path id="路径_1152" data-name="路径 1152" class="cls-5" d="M388.748,852.413c.374.213.774.455,1.282.695,1.869.988,4.46,1.149,7.425,1.149a70.037,70.037,0,0,0,9.881-.748,16.28,16.28,0,0,0-1.148,4.22c-1.869.134-6.036.294-8.894.294-3.445,0-5.742-.32-7.772-1.335-1.309-.642-2.27-1.443-2.885-1.443-.721,0-1.79,1.9-2.51,3.312l-2.671-3.927a11.71,11.71,0,0,1,3.365-2.536v-5.742h-2.858v-3.739h6.784Zm-3.339-11.885a22.171,22.171,0,0,0-3.044-5.447l3.339-1.71a22.1,22.1,0,0,1,3.312,5.235Zm18.135,13.007a41.732,41.732,0,0,0-5.528-6.49,12.675,12.675,0,0,1-6.33,6.517,10.88,10.88,0,0,0-2.51-3.151c4.167-2,5.662-4.914,6.223-8.814h-5.422v-3.766h5.742c.054-1.442.054-3.018.08-4.7h4.059c-.027,1.655-.053,3.2-.133,4.7h6.624V841.6H399.4c-.08.534-.16,1.043-.241,1.549a48.83,48.83,0,0,1,7.665,7.905Z" transform="translate(-274.832 -832.703)"/>
        <path id="路径_1153" data-name="路径 1153" class="cls-5" d="M439.243,833c-.027,1.228-.08,2.751-.214,4.46.4,3.792,2.083,13.22,11.324,17.333a11.067,11.067,0,0,0-2.857,3.366,20.48,20.48,0,0,1-10.23-11.751,22.2,22.2,0,0,1-9.427,11.937,12.756,12.756,0,0,0-3.258-3.177c10.736-5.957,10.042-17.361,10.176-22.168Z" transform="translate(-291.066 -832.655)"/>
        <path id="路径_1154" data-name="路径 1154" class="cls-5" d="M234.712,902.791a32.216,32.216,0,0,1-3.792,2.245,18.687,18.687,0,0,0,5.182,1.442,12.606,12.606,0,0,0-2.137,3.151c-3.98-.774-6.73-2.27-8.68-4.619a19.264,19.264,0,0,0-.267,2.8c-7.505,1.5-8.707,1.789-9.428,2.19a9.749,9.749,0,0,0-1.068-2.884,2.163,2.163,0,0,0,1.682-1.709,26.59,26.59,0,0,1-3.686.988,15.309,15.309,0,0,0-2.056-2.751,26.212,26.212,0,0,0,7.719-2.3h-7.158v-3.018h10.1c-.107-.294-.24-.587-.347-.855l3.819-1.068a15.865,15.865,0,0,1,.881,1.923h10.1v3.018h-2.777Zm-24.143-9.374c1.5-.507,3.526-1.283,5.608-2.109v-2.8L214.2,890.56a20.4,20.4,0,0,0-3.312-2.912l2.19-2.19a27.571,27.571,0,0,1,3.1,2.324V884.39h3.579V897.5h-3.579v-2.8c-1.5.64-3.044,1.281-4.38,1.816Zm14.5,11.351a15.917,15.917,0,0,1-1.949-3.311,16.484,16.484,0,0,1-3.151,2.3v1.977Zm.882-14.288h-5.368v-3.312h5.368V884.39h3.9v2.778h5.528v3.312h-5.528v2.537h4.968v3.312H221.225v-3.312h4.727Zm.8,10.87a9.491,9.491,0,0,0,1.523,1.9,29.452,29.452,0,0,0,2.965-1.9Z" transform="translate(-210.461 -852)"/>
        <path id="路径_1155" data-name="路径 1155" class="cls-5" d="M261.57,885.5a52.939,52.939,0,0,1-2.11,5.422v18.8h-3.686V897.433c-.321.454-.667.882-1.015,1.282a30.233,30.233,0,0,0-1.816-4.273,28.7,28.7,0,0,0,5.048-10.015Zm16.238,2.378a15.184,15.184,0,0,1-3.926,5.795,20.647,20.647,0,0,0,5.128,1.522,15.284,15.284,0,0,0-2.11,3.072A18.782,18.782,0,0,1,271,895.8a24.293,24.293,0,0,1-6.329,2.618,11.756,11.756,0,0,0-.962-1.737v8.359h-3.179V892.066h3.179v3.285a22.058,22.058,0,0,0,4.567-1.683,13.717,13.717,0,0,1-1.47-1.629,13.362,13.362,0,0,1-1.228,1.228,20.234,20.234,0,0,0-2.885-2.217,14.2,14.2,0,0,0,4.621-6.7l3.5.856q-.321.88-.721,1.762h4.887l.587-.134Zm.774,15.837c-2.858,3.338-7.478,5.021-12.846,6.036a11.911,11.911,0,0,0-1.95-3.018c4.727-.614,9.241-1.923,11.485-4.354Zm-4.781-5.742a17.168,17.168,0,0,1-6.784,3.658,10.941,10.941,0,0,0-2-2.189A15.617,15.617,0,0,0,271,896.819Zm2.591,2.51c-2.19,2.377-5.742,3.926-9.481,4.861a11.6,11.6,0,0,0-1.816-2.4c3.312-.614,6.81-1.843,8.546-3.579Zm-7.505-10.469a11.9,11.9,0,0,0,2.057,1.922,13.065,13.065,0,0,0,1.922-1.922Z" transform="translate(-226.453 -851.983)"/>
        <path id="路径_1156" data-name="路径 1156" class="cls-5" d="M313.181,894.252c2.7,2.109,6.837,5.235,8.76,7.4L318.6,904.64a61.9,61.9,0,0,0-7.4-6.969v13.086h-4.273V898.685a30.548,30.548,0,0,1-7.852,5.928,24.638,24.638,0,0,0-2.671-3.551,26.348,26.348,0,0,0,11-9.909H297.344v-3.979h23.449v3.979h-8.226c-.428.748-.881,1.5-1.362,2.217v2.537Z" transform="translate(-242.816 -853.048)"/>
        <path id="路径_1157" data-name="路径 1157" class="cls-5" d="M364.519,904.613h-2.964v1.923c0,1.843-.4,2.857-1.629,3.445s-2.858.641-5.1.641a13.862,13.862,0,0,0-1.336-3.633c1.309.08,3.072.054,3.525.054.481,0,.668-.133.668-.561v-1.869h-11.7V910.6h-3.845v-5.982h-2.992V901.06h2.992v-9.694h7.638v-1.283H340.3v-3.552h23.1v3.552h-9.722v1.283h7.879v9.694h2.964Zm-18.535-9.776v1.443h3.793v-1.443Zm0,6.224h3.793v-1.523h-3.793Zm7.692-6.224v1.443h4.006v-1.443Zm4.006,6.224v-1.523h-4.006v1.523Z" transform="translate(-258.905 -852.806)"/>
        <path id="路径_1158" data-name="路径 1158" class="cls-5" d="M406.044,894.693c-1.5,1.683-3.259,3.445-4.754,4.808a19.735,19.735,0,0,0,6.063,4.247,16.546,16.546,0,0,0-2.858,3.5,21.434,21.434,0,0,1-8.012-7.824v5.608c0,2.137-.4,3.205-1.629,3.846-1.228.667-3.045.8-5.449.774a16.478,16.478,0,0,0-1.308-4.086c1.5.08,3.151.08,3.685.08.508,0,.695-.161.695-.642v-3.124c-2.831,1.922-5.769,3.766-8.253,5.288l-2.511-3.552c2.538-1.229,6.837-3.632,10.764-5.876v-5.9h-9.829V888.07h9.829V884.3h4.006v3.766h4.059c-.908-.561-1.923-1.094-2.777-1.522l2.27-2.457a31.337,31.337,0,0,1,4.995,2.671l-1.175,1.309h2.724v3.766H396.483v.294a23.973,23.973,0,0,0,2.51,4.594,30.14,30.14,0,0,0,3.606-4.433Zm-18.589,4.94a25.171,25.171,0,0,0-4.139-5.1l2.938-2.084a25.78,25.78,0,0,1,4.38,4.835Z" transform="translate(-274.928 -851.887)"/>
        <path id="路径_1159" data-name="路径 1159" class="cls-5" d="M439.243,884.39c-.027,1.229-.08,2.752-.214,4.46.4,3.792,2.083,13.22,11.324,17.333a11.059,11.059,0,0,0-2.857,3.366,20.479,20.479,0,0,1-10.23-11.751,22.2,22.2,0,0,1-9.427,11.938,12.762,12.762,0,0,0-3.258-3.178c10.736-5.957,10.042-17.361,10.176-22.168Z" transform="translate(-291.066 -852)"/>
      </g>
    </g>
    <path id="路径_1076" data-name="路径 1076" class="cls-15" d="M1820.965,191.706l2.155,12.4a4.268,4.268,0,0,0,2.423,3.147l11.433,5.252a4.268,4.268,0,0,1,.212,7.652l-11.122,5.879a4.271,4.271,0,0,0-2.245,3.278l-1.462,12.495a4.268,4.268,0,0,1-7.211,2.567l-9.029-8.761a4.269,4.269,0,0,0-3.811-1.122l-12.336,2.471a4.268,4.268,0,0,1-4.669-6.065l5.542-11.295a4.266,4.266,0,0,0-.11-3.97l-6.162-10.969a4.268,4.268,0,0,1,4.325-6.316l12.454,1.782a4.274,4.274,0,0,0,3.743-1.332l8.527-9.25A4.268,4.268,0,0,1,1820.965,191.706Z" transform="translate(-187.67 646.455)"/>
    <path id="路径_1077" data-name="路径 1077" class="cls-14" d="M156.469,318.14l-.739,7.994a2.722,2.722,0,0,0,.967,2.342l6.166,5.141a2.723,2.723,0,0,1-1.144,4.748l-7.831,1.767a2.727,2.727,0,0,0-1.929,1.645l-2.983,7.452a2.723,2.723,0,0,1-4.87.379l-4.1-6.9a2.721,2.721,0,0,0-2.16-1.326l-8.01-.535a2.723,2.723,0,0,1-1.865-4.514l5.3-6.033a2.72,2.72,0,0,0,.594-2.464l-1.967-7.783a2.724,2.724,0,0,1,3.717-3.169l7.374,3.174a2.725,2.725,0,0,0,2.527-.2l6.8-4.276A2.723,2.723,0,0,1,156.469,318.14Z" transform="translate(176.155 704.455)"/>
    <path id="路径_1078" data-name="路径 1078" class="cls-14" d="M1757.3,287.866l-3.589,7.181a2.723,2.723,0,0,0,.052,2.534l3.881,7.027a2.724,2.724,0,0,1-2.789,4.01l-7.939-1.194a2.725,2.725,0,0,0-2.394.833l-5.484,5.862a2.723,2.723,0,0,1-4.675-1.413l-1.317-7.919a2.727,2.727,0,0,0-1.532-2.02l-7.27-3.4a2.723,2.723,0,0,1-.1-4.883l7.124-3.7a2.723,2.723,0,0,0,1.448-2.081l.99-7.966a2.724,2.724,0,0,1,4.614-1.605l5.72,5.632a2.722,2.722,0,0,0,2.426.734l7.883-1.52A2.724,2.724,0,0,1,1757.3,287.866Z" transform="translate(-244.67 731.455)"/>
    <path id="路径_1079" data-name="路径 1079" class="cls-15" d="M77.161,131.725l9.117,8.67a4.267,4.267,0,0,0,3.821,1.083l12.311-2.6a4.268,4.268,0,0,1,4.73,6.018l-5.428,11.349a4.271,4.271,0,0,0,.151,3.97l6.272,10.906a4.267,4.267,0,0,1-4.261,6.358L91.4,175.829a4.268,4.268,0,0,0-3.728,1.37l-8.434,9.336a4.268,4.268,0,0,1-7.364-2.088L69.6,172.074a4.269,4.269,0,0,0-2.455-3.122l-11.485-5.137a4.268,4.268,0,0,1-.29-7.649l11.063-5.991a4.268,4.268,0,0,0,2.211-3.3l1.336-12.51A4.268,4.268,0,0,1,77.161,131.725Z" transform="translate(340.87 704.455)"/>
    <ellipse id="椭圆_502" data-name="椭圆 502" class="cls-16" cx="91.5" cy="20.5" rx="91.5" ry="20.5" transform="translate(1305 1319)"/>
    <g id="组_4471" data-name="组 4471" transform="translate(1204.384 955.742)">
      <g id="组_4470" data-name="组 4470" transform="translate(0 0)">
        <g id="组_4468" data-name="组 4468">
          <path id="路径_1160" data-name="路径 1160" class="cls-17" d="M1759.68,609.39h0a17.924,17.924,0,0,0-2.531-2.345s-12.239,2.485-14.207,11.22c0,0,.582,1.154,1.555,2.871-.578-.377-22.365-15.031-13.854-40.765,3.685-11.145,16.5-25.767,18.577-31.9,0,0,3.215,9.828,2.285,26.339C1750.69,589.124,1756.935,587.965,1759.68,609.39Z" transform="translate(-1728.668 -548.475)"/>
          <path id="路径_1161" data-name="路径 1161" class="cls-18" d="M1828.466,743.057a.262.262,0,0,0,.033.042A.262.262,0,0,1,1828.466,743.057Z" transform="translate(-1775.065 -638.938)"/>
          <path id="路径_1162" data-name="路径 1162" class="cls-18" d="M1823.826,732.131a6.788,6.788,0,0,1-.438-2.429c0,.079,0,.154,0,.232A5.646,5.646,0,0,0,1823.826,732.131Zm.856,1.429a.271.271,0,0,1-.033-.042c-.1-.121-.19-.242-.274-.368-.065-.1-.126-.191-.186-.288a2.612,2.612,0,0,0,.186.288,4.032,4.032,0,0,0,.274.368A.271.271,0,0,0,1824.682,733.56Zm-1.27-4.151a7.812,7.812,0,0,1,1.2-2.988h0c-.079.1-.158.21-.233.321A5.636,5.636,0,0,0,1823.412,729.409Zm1.373,4.57c-1.2-1.9-2.285-3.639-3.2-5.128q-.684-1.11-1.331-2.22c.051-.167.107-.335.172-.5.051-.126.1-.247.158-.363a5.692,5.692,0,0,1,7.227-2.83h.005l-.852,11.9-1.7-.675Z" transform="translate(-1771.249 -629.399)"/>
          <path id="路径_1163" data-name="路径 1163" class="cls-19" d="M2049.151,1089.3l-8.111-3.7,12.97-27.237-22.8,1.015,4.211,46.764v0l-2.438,5.189-1.448,3.081a3.423,3.423,0,0,0,.461,3.639l-8.939-.028-1.275,0-16.809-.047-1.279,0-12.114-.033-14.622-71.269c10.052.116,15.534,2.638,15.766-9.745,45.042,0,57.318-21.216,89.084-24.962v.037l6.472-.516a23.744,23.744,0,0,1,23.5,33.529l-27.535,60.31-18.638-8.506Z" transform="translate(-1844.099 -763.694)"/>
          <path id="路径_1164" data-name="路径 1164" class="cls-17" d="M1985.692,836.585c.126,9.4,11.1,18.442,24.827,18.442,13.807,0,25.171-10.824,25.171-20.294l-.232-.3a54.871,54.871,0,0,0,11.2-11.448l.154.112c8.46.181,32.6,15.068,37.9,39.406l-3.36.67-16.632,3.327c0,31.146-26.912,29.634-31.765,29.634a19.831,19.831,0,0,0-3.23-9.67l0,0a30.619,30.619,0,0,0-9.266-16.073,24.447,24.447,0,0,1-14.719,8.6,5.278,5.278,0,0,0,1.787,7.246,20.524,20.524,0,0,1,3.03,2.247l-.005.01q-.8-.545-1.619-1.047a5.278,5.278,0,0,0-5.463,9.033,19.927,19.927,0,0,1,4.379,3.578v.326c0,8.12,5.175,15.082,16.729,15.082,3.941,0,24.841,3.2,40.137-8.837v12.262c-31.765,3.746-44.042,24.962-89.083,24.962h-17.767V851.439l-17.665-4.491,1.847-9.875,4.165-22.23.679-3.63c6.864.717,18.386,3.779,23.287,7.422a53.513,53.513,0,0,0,15.91,17.209c.065.047.135.093.2.135l-.3.433S1985.883,836.474,1985.692,836.585Zm64.392,46.149v-3.513h-5.841v-6.064h-3.513v6.064h-6.287v3.513h6.287V888.8h3.513v-6.064Zm-12.728-9.009,2.485-2.485-3.6-3.6-2.486,2.485Zm-4.309,4.3,2.485-2.485-3.6-3.6-2.485,2.485Z" transform="translate(-1827.012 -670.625)"/>
          <path id="路径_1165" data-name="路径 1165" class="cls-18" d="M2117.479,951.769c-15.3,12.039-36.2,8.837-40.137,8.837-11.555,0-16.73-6.962-16.73-15.082V945.2a19.917,19.917,0,0,0-4.379-3.578,5.278,5.278,0,0,1,5.463-9.033q.824.5,1.619,1.047l.005-.01a20.528,20.528,0,0,0-3.03-2.247,23.615,23.615,0,0,0,5.477-15.52,5.276,5.276,0,0,1,7.455-.33,30.62,30.62,0,0,1,9.266,16.073l-.005,0a19.826,19.826,0,0,1,3.23,9.67c4.853,0,31.765,1.512,31.765-29.634l16.632-3.327C2134.111,931.326,2126.847,944.4,2117.479,951.769Z" transform="translate(-1879.773 -715.768)"/>
          <path id="路径_1166" data-name="路径 1166" class="cls-20" d="M2016.849,596.152c36.312,5.361,60.417,32.994,59.422,73.462,0,11.773-8.349,29.862-13.086,24.836.493-1.582.94-3.323,1.382-5.142,1.936-7.893-1-15.394-6.552-16.753a7.371,7.371,0,0,0-1.7-.214,77.7,77.7,0,0,0-18.708-8.376c-5.263-1.648-9.758-3.151-13.989-3.8l-3.006-14.845-3.476,14.035c-13.78-1.34-28.908,1.256-44.432,4.793-7.39,1.68-14.273,4.589-19.243,9.959-3.494,2.89-5.035,8.916-3.5,15.2.582,2.368,1.159,4.6,1.848,6.529-10.205-2.541-16.543-17.232-16.543-26.223-4.481-30.909,19.824-68,56.583-72.959,3.323-.451,10.476-1.312,13.919-1.312A75.714,75.714,0,0,1,2016.849,596.152Z" transform="translate(-1824.469 -570.264)"/>
          <path id="路径_1167" data-name="路径 1167" class="cls-21" d="M2093.081,1172.722c1.7,8.576,8.572,10.233,17.674,5.268.935-.5,1.885-1.08,2.857-1.722,6.352,9.046,11.993,16.436,20.015,22.844,4.174,3.332,4.844,7.148,4.481,10.113l-.744-.079c-7.121,1.536-34.12-13.751-55.708-24.357l2.439-5.189v0l.978-2.08a16.58,16.58,0,0,1,5.114-6.245l2.518-1.862A21.824,21.824,0,0,0,2093.081,1172.722Z" transform="translate(-1892.775 -837.153)"/>
          <path id="路径_1168" data-name="路径 1168" class="cls-20" d="M2079.129,1204.871a3.423,3.423,0,0,1-.461-3.639l1.448-3.081c21.588,10.606,48.588,25.893,55.708,24.357l.744.079c0,.018,0,.037,0,.056a12.883,12.883,0,0,1-1.68,4.919c-1.768,3.281-11.708-1.638-18.824-4.979l-35.749-16.8A3.413,3.413,0,0,1,2079.129,1204.871Z" transform="translate(-1891.235 -850.516)"/>
          <path id="路径_1169" data-name="路径 1169" class="cls-18" d="M1966.172,741.007a7.6,7.6,0,0,1,3.057-1.554,8.538,8.538,0,0,1,6.8,1.434l6.659,1.224a14.191,14.191,0,0,0-.293,2.927v1.3a14.539,14.539,0,0,0,14.538,14.537h2.6a14.537,14.537,0,0,0,14.538-14.537v-1.219h1.3a9.708,9.708,0,0,1,8.511-.284l1.257.014v1.489a14.54,14.54,0,0,0,14.542,14.537h2.6a14.543,14.543,0,0,0,14.542-14.537v-1.3a14.242,14.242,0,0,0-.228-2.582l7.325-1.568a9.121,9.121,0,0,1,5.11-1.648,7.368,7.368,0,0,1,1.7.214c5.552,1.359,8.488,8.861,6.552,16.753-.442,1.819-.889,3.56-1.382,5.142-1.652,5.286-3.825,8.823-8.264,7.776a7.889,7.889,0,0,1-2.192-.875c-.042.167.19,2.825-3.318,11.657a44.613,44.613,0,0,1-5.3,9.614,54.864,54.864,0,0,1-11.2,11.448,52.608,52.608,0,0,1-17.526,9,24.039,24.039,0,0,1-16.25,0,51.057,51.057,0,0,1-15.389-7.451c-.065-.042-.135-.088-.2-.135a53.518,53.518,0,0,1-15.91-17.209,42.794,42.794,0,0,1-2.522-5.268c-3.5-8.832-3.271-11.49-3.318-11.657a7.86,7.86,0,0,1-2.187.875c-4.044.949-6.208-1.889-7.8-6.39-.688-1.926-1.266-4.16-1.847-6.529C1961.136,749.924,1962.677,743.9,1966.172,741.007Zm71.191,40.286a.959.959,0,0,0-.321-.954c-.531-.372-1.47.158-2.071,1.131s-.708,2-.26,2.313a.918.918,0,0,0,.94-.093,3.448,3.448,0,0,0,1.107-1.01A3.1,3.1,0,0,0,2037.362,781.293Zm-4.262-.9c.54-1.01.516-2.071-.065-2.364-.591-.265-1.433.372-1.88,1.433s-.414,2.1.084,2.322C2031.722,782.033,2032.56,781.409,2033.1,780.4Zm-2.374,25.282c.484-.1.708-.865.512-1.707s-.712-1.447-1.149-1.35-.67.843-.512,1.694S2030.251,805.79,2030.726,805.678Zm.345-19.884c1.415-.512.791-1.829-.865-1.829h-21.2c-1.657,0-2.285,1.317-.865,1.829a38.531,38.531,0,0,0,22.928,0Zm-1.927-7.111c.382-1.075.2-2.145-.418-2.327a.976.976,0,0,0-.945.354,3.1,3.1,0,0,0-.7,1.34,3.421,3.421,0,0,0-.083,1.494c.074.419.246.717.511.8C2028.032,780.484,2028.758,779.771,2029.144,778.683Zm-1.894,27.573c.488-.065.777-.81.651-1.666s-.586-1.5-1.029-1.433-.74.777-.656,1.638S2026.761,806.311,2027.25,806.255Zm-.633-4.407c.46-.1.652-.88.433-1.713s-.707-1.429-1.107-1.345-.6.842-.442,1.689S2026.156,801.941,2026.617,801.848Zm-1.643-24.277c.219-1.135-.121-2.132-.758-2.234s-1.261.787-1.378,1.922.224,2.108.764,2.2S2024.755,778.692,2024.974,777.571Zm-1.224,28.978c.488-.019.833-.754.777-1.611s-.475-1.531-.921-1.512-.8.726-.777,1.591S2023.262,806.567,2023.751,806.549Zm-.452-4.174c.465-.051.749-.791.637-1.647s-.535-1.508-.94-1.466-.694.759-.642,1.62S2022.829,802.411,2023.3,802.374Zm.331-11.318c0-.866-.391-1.564-.875-1.564s-.875.7-.875,1.564.39,1.564.875,1.564S2023.63,791.917,2023.63,791.057Zm-2.5,13.984c0-.866-.363-1.559-.819-1.577s-.847.684-.88,1.545.335,1.573.819,1.582S2021.131,805.9,2021.131,805.041Zm-1.177-2.531c.465,0,.833-.707.819-1.568s-.359-1.563-.768-1.563-.782.675-.819,1.54S2019.488,802.49,2019.953,802.509Zm.731-25.413c.051-1.145-.433-2.09-1.075-2.1-.647.014-1.131.958-1.085,2.1s.535,2.071,1.085,2.061C2020.153,779.167,2020.637,778.25,2020.684,777.1Zm-.554,13.961c0-.866-.391-1.564-.875-1.564s-.875.7-.875,1.564.391,1.564.875,1.564S2020.13,791.917,2020.13,791.057Zm-2.392,13.867c.056-.856-.275-1.582-.726-1.619s-.889.633-.968,1.494.247,1.587.731,1.624S2017.687,805.79,2017.738,804.924Zm-.135-4.114c.075-.856-.2-1.587-.61-1.633s-.847.6-.968,1.452.149,1.6.609,1.657S2017.529,801.671,2017.6,800.81Zm-.972-9.754c0-.866-.4-1.564-.875-1.564s-.875.7-.875,1.564.386,1.564.875,1.564S2016.631,791.917,2016.631,791.057Zm-1.02-11.6c.54-.088.885-1.047.763-2.2s-.74-2.024-1.372-1.922-.982,1.1-.763,2.234S2015.072,779.543,2015.611,779.455Zm-1.154,20.927c.154-.851-.056-1.6-.47-1.68s-.894.521-1.084,1.363.018,1.61.469,1.7S2014.308,801.234,2014.457,800.382Zm-.1,4.244c.093-.861-.2-1.606-.647-1.661s-.921.586-1.038,1.443.168,1.6.643,1.661S2014.262,805.483,2014.36,804.626Zm-2.136-25.083a3.583,3.583,0,0,0-.088-1.494,3.1,3.1,0,0,0-.7-1.34.989.989,0,0,0-.949-.354c-.624.181-.8,1.252-.414,2.327s1.108,1.8,1.634,1.657C2011.972,780.26,2012.145,779.962,2012.224,779.543Zm-1.229,24.613c.135-.851-.125-1.605-.576-1.685s-.94.549-1.1,1.4.1,1.6.573,1.684S2010.86,805.013,2010.995,804.156Zm-3.02-22.369c.5-.224.535-1.266.083-2.322s-1.293-1.7-1.885-1.433c-.573.293-.6,1.354-.06,2.364S2007.486,782.033,2007.975,781.787Zm-3.472,2c.447-.312.344-1.326-.261-2.313s-1.545-1.5-2.071-1.131a.959.959,0,0,0-.321.954,3.044,3.044,0,0,0,.6,1.387,3.454,3.454,0,0,0,1.108,1.01A.918.918,0,0,0,2004.5,783.783Z" transform="translate(-1837.182 -637.163)"/>
          <path id="路径_1170" data-name="路径 1170" class="cls-18" d="M2072.582,715.764a9.12,9.12,0,0,0-5.109,1.647l-7.325,1.568a10.867,10.867,0,0,0-4.412-7.041c-2.867-2.08-6.827-3.067-11.2-3.067-8.683,0-15.738,3.886-15.84,12.5l-1.257-.014a9.708,9.708,0,0,0-8.511.284h-1.3v-.079a11.267,11.267,0,0,0-4.64-9.624c-2.862-2.08-6.823-3.067-11.2-3.067-7.7,0-14.119,3.057-15.543,9.763l-6.659-1.224a8.537,8.537,0,0,0-6.8-1.434,7.6,7.6,0,0,0-3.057,1.554c4.97-5.37,11.853-8.279,19.243-9.958,15.524-3.537,30.653-6.134,44.432-4.793l3.476-14.035,3.007,14.845c4.23.647,8.725,2.15,13.988,3.8A77.7,77.7,0,0,1,2072.582,715.764Z" transform="translate(-1840.739 -613.688)"/>
          <path id="路径_1171" data-name="路径 1171" class="cls-20" d="M2131.962,933.04v3.514h-5.84v6.064h-3.513v-6.064h-6.287V933.04h6.287v-6.064h3.513v6.064Z" transform="translate(-1908.892 -724.444)"/>
          <path id="路径_1172" data-name="路径 1172" class="cls-18" d="M2107.754,1156.981l16.45,7.511-.042.088-3.537,7.529.056.1c-9.1,4.965-15.976,3.308-17.674-5.268Z" transform="translate(-1902.702 -831.375)"/>
          <path id="路径_1173" data-name="路径 1173" class="cls-18" d="M2111.607,739.049v1.3a14.543,14.543,0,0,1-14.542,14.537h-2.6a14.54,14.54,0,0,1-14.542-14.537v-1.489c.1-8.614,7.157-12.5,15.841-12.5,4.375,0,8.334.987,11.2,3.067a10.868,10.868,0,0,1,4.411,7.041A14.242,14.242,0,0,1,2111.607,739.049Zm-11.643,1.741c0-2.638-1.745-4.779-3.9-4.779s-3.9,2.141-3.9,4.779,1.745,4.784,3.9,4.784S2099.965,743.433,2099.965,740.79Z" transform="translate(-1891.971 -631.175)"/>
          <rect id="矩形_1169" data-name="矩形 1169" class="cls-20" width="3.514" height="5.094" transform="translate(206.741 199.499) rotate(-45)"/>
          <path id="路径_1174" data-name="路径 1174" class="cls-18" d="M2074.979,854.6l.232.3c0,9.47-11.364,20.294-25.171,20.294-13.723,0-24.7-9.037-24.826-18.442.191-.112.3-.172.3-.172l.3-.433A51.06,51.06,0,0,0,2041.2,863.6a24.039,24.039,0,0,0,16.25,0A52.6,52.6,0,0,0,2074.979,854.6Z" transform="translate(-1866.535 -690.796)"/>
          <rect id="矩形_1170" data-name="矩形 1170" class="cls-20" width="3.514" height="5.094" transform="translate(202.432 203.803) rotate(-45)"/>
          <path id="路径_1175" data-name="路径 1175" class="cls-20" d="M2106.7,744.4c2.155,0,3.9,2.141,3.9,4.779s-1.745,4.784-3.9,4.784-3.9-2.14-3.9-4.784S2104.543,744.4,2106.7,744.4Z" transform="translate(-1902.604 -639.561)"/>
          <path id="路径_1176" data-name="路径 1176" class="cls-20" d="M2099.907,815.945a.959.959,0,0,1,.321.954,3.1,3.1,0,0,1-.6,1.387,3.447,3.447,0,0,1-1.107,1.01.918.918,0,0,1-.94.093c-.447-.312-.345-1.327.26-2.313S2099.376,815.573,2099.907,815.945Z" transform="translate(-1900.048 -672.769)"/>
          <path id="路径_1177" data-name="路径 1177" class="cls-20" d="M2092.777,811.684c.581.293.6,1.354.065,2.364s-1.378,1.638-1.862,1.391c-.5-.224-.535-1.266-.084-2.322S2092.185,811.418,2092.777,811.684Z" transform="translate(-1896.924 -670.815)"/>
          <path id="路径_1178" data-name="路径 1178" class="cls-20" d="M2089.841,859.03c.195.842-.028,1.61-.513,1.708s-1-.516-1.149-1.363.074-1.591.512-1.694S2089.64,858.192,2089.841,859.03Z" transform="translate(-1895.785 -692.223)"/>
          <path id="路径_1179" data-name="路径 1179" d="M2069.544,822.824c1.656,0,2.281,1.317.865,1.829a38.53,38.53,0,0,1-22.928,0c-1.419-.512-.791-1.829.865-1.829Z" transform="translate(-1876.521 -676.023)"/>
          <path id="路径_1180" data-name="路径 1180" class="cls-20" d="M2085.086,808.582c.618.181.8,1.252.418,2.327s-1.112,1.8-1.638,1.657c-.265-.079-.437-.377-.511-.8a3.418,3.418,0,0,1,.084-1.494,3.1,3.1,0,0,1,.7-1.34A.976.976,0,0,1,2085.086,808.582Z" transform="translate(-1893.543 -669.389)"/>
          <path id="路径_1181" data-name="路径 1181" class="cls-20" d="M2083.615,860.119c.126.856-.162,1.6-.651,1.666s-.949-.6-1.033-1.461.21-1.587.656-1.638S2083.49,859.263,2083.615,860.119Z" transform="translate(-1892.896 -692.693)"/>
          <path id="路径_1182" data-name="路径 1182" class="cls-20" d="M2082.108,851.87c.219.833.028,1.61-.433,1.713s-.958-.521-1.116-1.368.042-1.605.442-1.689S2081.894,851.028,2082.108,851.87Z" transform="translate(-1892.241 -688.897)"/>
          <path id="路径_1183" data-name="路径 1183" class="cls-20" d="M2076.986,806.693c.637.1.977,1.1.758,2.234s-.833,1.973-1.373,1.885-.885-1.047-.763-2.2S2076.344,806.591,2076.986,806.693Z" transform="translate(-1889.952 -668.519)"/>
          <path id="路径_1184" data-name="路径 1184" class="cls-20" d="M2047.664,1261.283v5.4a2.888,2.888,0,0,1-2.7,2.881q-7.636.516-15.361.521t-15.362-.521a2.891,2.891,0,0,1-2.7-2.881v-5.4a2.551,2.551,0,0,1,.032-.419q8.921.747,18.033.759t18.033-.759A2.577,2.577,0,0,1,2047.664,1261.283Z" transform="translate(-1860.175 -879.672)"/>
          <path id="路径_1185" data-name="路径 1185" class="cls-21" d="M2047.567,1244.031a2.606,2.606,0,0,1,.093.414q-8.922.747-18.032.759t-18.033-.759a2.529,2.529,0,0,1,.093-.414l3.8-12.509a8.407,8.407,0,0,1,8.055-5.975h12.174a8.422,8.422,0,0,1,8.06,5.975Z" transform="translate(-1860.203 -863.252)"/>
          <path id="路径_1186" data-name="路径 1186" class="cls-20" d="M2077.31,860.706c.056.857-.289,1.592-.777,1.611s-.9-.67-.921-1.531.321-1.578.777-1.591S2077.249,859.841,2077.31,860.706Z" transform="translate(-1889.964 -692.931)"/>
          <path id="路径_1187" data-name="路径 1187" class="cls-20" d="M2076.3,852.874c.111.856-.172,1.6-.637,1.648s-.889-.633-.945-1.494.233-1.587.642-1.62S2076.186,852.014,2076.3,852.874Z" transform="translate(-1889.548 -689.311)"/>
          <ellipse id="椭圆_499" data-name="椭圆 499" class="cls-20" cx="0.875" cy="1.564" rx="0.875" ry="1.564" transform="translate(184.697 152.33)"/>
          <path id="路径_1188" data-name="路径 1188" class="cls-20" d="M2070.141,859.264c.456.018.819.712.819,1.577s-.391,1.568-.88,1.55-.852-.721-.818-1.582S2069.69,859.254,2070.141,859.264Z" transform="translate(-1887.012 -692.964)"/>
          <path id="路径_1189" data-name="路径 1189" class="cls-20" d="M2070.386,853.191c.014.861-.354,1.568-.82,1.568-.465-.019-.809-.731-.768-1.592s.405-1.55.819-1.54S2070.372,852.326,2070.386,853.191Z" transform="translate(-1886.796 -689.414)"/>
          <path id="路径_1190" data-name="路径 1190" class="cls-20" d="M2068.649,806.057c.642.014,1.126.958,1.075,2.1s-.531,2.071-1.075,2.061c-.549.01-1.029-.908-1.085-2.061S2068,806.071,2068.649,806.057Z" transform="translate(-1886.222 -668.227)"/>
          <ellipse id="椭圆_500" data-name="椭圆 500" class="cls-20" cx="0.875" cy="1.564" rx="0.875" ry="1.564" transform="translate(181.198 152.33)"/>
          <path id="路径_1191" data-name="路径 1191" class="cls-20" d="M2063.89,858.967c.451.037.781.763.726,1.619s-.489,1.54-.963,1.5-.81-.768-.73-1.624S2063.434,858.929,2063.89,858.967Z" transform="translate(-1884.06 -692.825)"/>
          <path id="路径_1192" data-name="路径 1192" class="cls-20" d="M2063.84,851.252c.409.047.684.777.609,1.633s-.507,1.522-.968,1.475-.73-.8-.61-1.657S2063.426,851.2,2063.84,851.252Z" transform="translate(-1884.029 -689.237)"/>
          <ellipse id="椭圆_501" data-name="椭圆 501" class="cls-20" cx="0.875" cy="1.564" rx="0.875" ry="1.564" transform="translate(177.698 152.33)"/>
          <path id="路径_1193" data-name="路径 1193" class="cls-20" d="M2061.636,808.615c.122,1.149-.223,2.108-.763,2.2s-1.154-.763-1.372-1.885.121-2.132.763-2.234S2061.52,807.48,2061.636,808.615Z" transform="translate(-1882.444 -668.519)"/>
          <path id="路径_1194" data-name="路径 1194" class="cls-18" d="M2046.343,1219.334v0a8.391,8.391,0,0,0-3.5-.763h-12.174a8.365,8.365,0,0,0-2.466.367l-1.279-8.125v-.265l1.279,0,16.809.047v.214Z" transform="translate(-1867.328 -856.281)"/>
          <path id="路径_1195" data-name="路径 1195" class="cls-20" d="M2058.087,850.36c.414.079.623.828.47,1.68s-.638,1.47-1.084,1.387-.656-.861-.47-1.7S2057.677,850.276,2058.087,850.36Z" transform="translate(-1881.282 -688.821)"/>
          <path id="路径_1196" data-name="路径 1196" class="cls-20" d="M2057.649,858.33c.451.056.74.8.646,1.661s-.563,1.5-1.042,1.443-.764-.805-.643-1.661S2057.193,858.274,2057.649,858.33Z" transform="translate(-1881.119 -692.528)"/>
          <path id="路径_1197" data-name="路径 1197" class="cls-18" d="M2031.727,739.128v1.219a14.537,14.537,0,0,1-14.538,14.537h-2.6a14.54,14.54,0,0,1-14.538-14.537v-1.3a14.206,14.206,0,0,1,.293-2.927c1.424-6.706,7.841-9.763,15.543-9.763,4.374,0,8.334.987,11.2,3.067a11.267,11.267,0,0,1,4.64,9.624Zm-10.764,1.661c0-2.638-1.745-4.779-3.9-4.779s-3.9,2.141-3.9,4.779,1.745,4.784,3.9,4.784S2020.963,743.433,2020.963,740.79Z" transform="translate(-1854.838 -631.175)"/>
          <path id="路径_1198" data-name="路径 1198" class="cls-20" d="M2053.659,810.276a3.581,3.581,0,0,1,.088,1.494c-.079.419-.251.716-.516.8-.526.145-1.247-.568-1.633-1.657s-.21-2.145.414-2.327a.989.989,0,0,1,.949.354A3.1,3.1,0,0,1,2053.659,810.276Z" transform="translate(-1878.706 -669.389)"/>
          <path id="路径_1199" data-name="路径 1199" class="cls-20" d="M2051.425,857.406c.451.079.712.833.577,1.685s-.633,1.48-1.1,1.4-.726-.837-.573-1.684S2050.973,857.331,2051.425,857.406Z" transform="translate(-1878.189 -692.097)"/>
          <path id="路径_1200" data-name="路径 1200" class="cls-20" d="M2045.981,813.117c.452,1.056.414,2.1-.083,2.322-.489.247-1.322-.377-1.862-1.391s-.512-2.071.061-2.364C2044.688,811.418,2045.53,812.056,2045.981,813.117Z" transform="translate(-1875.105 -670.815)"/>
          <path id="路径_1201" data-name="路径 1201" class="cls-20" d="M2038.788,817.076c.6.986.707,2,.261,2.313a.918.918,0,0,1-.94-.093,3.448,3.448,0,0,1-1.108-1.01,3.04,3.04,0,0,1-.6-1.387.959.959,0,0,1,.321-.954C2037.243,815.573,2038.188,816.1,2038.788,817.076Z" transform="translate(-1871.728 -672.769)"/>
          <path id="路径_1202" data-name="路径 1202" class="cls-20" d="M2028.453,744.4c2.155,0,3.9,2.141,3.9,4.779s-1.745,4.784-3.9,4.784-3.9-2.14-3.9-4.784S2026.3,744.4,2028.453,744.4Z" transform="translate(-1866.227 -639.561)"/>
          <path id="路径_1203" data-name="路径 1203" class="cls-19" d="M1973.216,1059.09h17.767c-.233,12.383-5.714,9.861-15.767,9.745Z" transform="translate(-1842.361 -785.865)"/>
          <path id="路径_1204" data-name="路径 1204" class="cls-18" d="M1903.106,790.742l-4.165,22.23c-11.788-4.169-29.574-14.049-45.926-24.864a2.916,2.916,0,0,0,.367-.167,14.227,14.227,0,0,0,1.377-.815,1.02,1.02,0,0,0,.116-.074,4.916,4.916,0,0,0,1.359-6.762c-1.917-2.936-5.194-7.981-8.758-13.5l4.077-3.914a18.571,18.571,0,0,0,.782-3.5c9.954,8.269,28.159,23.431,50.631,31.342Z" transform="translate(-1783.903 -646.523)"/>
          <path id="路径_1205" data-name="路径 1205" class="cls-20" d="M1849.306,786.735a4.916,4.916,0,0,1-1.359,6.762,1.016,1.016,0,0,1-.116.074,14.153,14.153,0,0,1-1.377.815,2.937,2.937,0,0,1-.368.167c-2.913-1.922-5.78-3.877-8.558-5.836l-4.956-7.818,7.976-7.664C1844.112,778.754,1847.388,783.8,1849.306,786.735Z" transform="translate(-1776.973 -652.968)"/>
          <path id="路径_1206" data-name="路径 1206" class="cls-18" d="M1843.615,742.515v0a18.58,18.58,0,0,1-.782,3.5l-4.077,3.914c-3.4-5.268-7.064-10.973-10.038-15.687l.484.191,1.7.675.852-11.9.033-.088a18.351,18.351,0,0,1,11.959,17.181A19.211,19.211,0,0,1,1843.615,742.515Z" transform="translate(-1775.182 -629.671)"/>
          <path id="路径_1207" data-name="路径 1207" class="cls-20" d="M1850.391,808a4.922,4.922,0,0,1-6.069-1.9l-2.49-3.932C1844.611,804.128,1847.478,806.083,1850.391,808Z" transform="translate(-1781.279 -666.42)"/>
          <path id="路径_1208" data-name="路径 1208" class="cls-20" d="M1824.075,749.356l-7.976,7.664-13.924-21.978s-2.159-3.142-5.035-7.032a18.2,18.2,0,0,1,2.811-2.424l1.694-1.182a17.676,17.676,0,0,1,5.408-2.531c.777,1.475,1.6,2.964,2.457,4.449a5.6,5.6,0,0,0-.182,2.313c.01.1.023.2.042.293.014.079.028.154.046.228a5.708,5.708,0,0,0,.907,2.048,2.381,2.381,0,0,0,.158.214c.042.06.093.116.14.172.07.084.145.168.219.247s.158.163.242.242a5.855,5.855,0,0,0,.828.642c.1.06.2.116.293.177a6.267,6.267,0,0,0,.67.312l1.163.461C1817.011,738.383,1820.673,744.088,1824.075,749.356Z" transform="translate(-1760.501 -629.089)"/>
          <path id="路径_1209" data-name="路径 1209" class="cls-18" d="M1819.355,721a18.229,18.229,0,0,1,6.362,1.135l-.033.088h-.005a5.692,5.692,0,0,0-7.227,2.83c-.056.116-.107.237-.158.363-.065.163-.121.331-.172.5-.861-1.485-1.68-2.974-2.457-4.449.414-.117.828-.214,1.252-.3l.107-.024A18.422,18.422,0,0,1,1819.355,721Z" transform="translate(-1769.113 -628.685)"/>
          <path id="路径_1210" data-name="路径 1210" class="cls-18" d="M1798.076,740.375,1812,762.353l-.344.331a18.492,18.492,0,0,1-3.467.623c-.168.014-.339.024-.512.033-.34.024-.684.033-1.033.033a18.319,18.319,0,0,1-18.321-18.317c0-.256,0-.512.019-.763a16.982,16.982,0,0,1,4.7-10.95C1795.917,737.233,1798.076,740.375,1798.076,740.375Z" transform="translate(-1756.401 -634.422)"/>
          <path id="路径_1211" data-name="路径 1211" class="cls-18" d="M1824.585,737.534l-1.163-.461a6.231,6.231,0,0,1-.67-.312c-.1-.061-.2-.116-.293-.177a5.851,5.851,0,0,1-.828-.642c-.084-.079-.163-.158-.242-.242s-.149-.163-.219-.247c-.047-.056-.1-.111-.14-.172a2.365,2.365,0,0,1-.158-.214,5.711,5.711,0,0,1-.907-2.048c-.019-.074-.033-.149-.047-.228-.019-.1-.033-.2-.042-.293a5.6,5.6,0,0,1,.182-2.313q.648,1.109,1.331,2.219C1822.3,733.895,1823.39,735.631,1824.585,737.534Z" transform="translate(-1771.049 -632.954)"/>
          <path id="路径_1212" data-name="路径 1212" class="cls-18" d="M1827.344,729.794h0a7.813,7.813,0,0,0-1.2,2.988,5.634,5.634,0,0,1,.958-2.667C1827.186,730,1827.265,729.892,1827.344,729.794Z" transform="translate(-1773.99 -632.772)"/>
          <path id="路径_1213" data-name="路径 1213" class="cls-18" d="M1827.953,742.37c.084.126.177.247.274.368A4.013,4.013,0,0,1,1827.953,742.37Z" transform="translate(-1774.827 -638.619)"/>
          <path id="路径_1214" data-name="路径 1214" class="cls-18" d="M1827.6,741.831c.061.1.121.19.186.288A2.66,2.66,0,0,1,1827.6,741.831Z" transform="translate(-1774.664 -638.368)"/>
          <path id="路径_1215" data-name="路径 1215" class="cls-18" d="M1826.105,735.926a6.79,6.79,0,0,0,.438,2.429,5.646,5.646,0,0,1-.442-2.2C1826.1,736.08,1826.1,736,1826.105,735.926Z" transform="translate(-1773.965 -635.623)"/>
          <path id="路径_1216" data-name="路径 1216" class="cls-20" d="M1788.976,694.184a17.672,17.672,0,0,0-5.408,2.532l-1.694,1.182a18.2,18.2,0,0,0-2.811,2.424c-3.593-4.854-8.292-10.871-11.3-13.4-3.677-3.1-7.455-9.223-9.5-12.849,2.443-8.8,14.882-11.685,15.175-11.755h.005a28.015,28.015,0,0,1,5.258,8.4C1781.088,676.6,1784.248,685.2,1788.976,694.184Z" transform="translate(-1742.424 -601.401)"/>
          <path id="路径_1217" data-name="路径 1217" class="cls-22" d="M1769.542,657.933a17.908,17.908,0,0,1,2.531,2.345c-.293.07-12.732,2.959-15.175,11.755l-.009-.009c-.973-1.718-1.555-2.871-1.555-2.871C1757.3,660.418,1769.542,657.933,1769.542,657.933Z" transform="translate(-1741.065 -599.363)"/>
        </g>
        <g id="组_4469" data-name="组 4469">
          <path id="路径_1218" data-name="路径 1218" class="cls-23" d="M1970.181,818.636c-4.9-3.643-16.422-6.706-23.287-7.422l-.679,3.63-4.165,22.23-1.847,9.875,17.665,4.491" transform="translate(-1827.012 -670.625)"/>
          <path id="路径_1219" data-name="路径 1219" class="cls-23" d="M2157.345,876.821l16.631-3.327,3.36-.671c-5.3-24.338-29.438-39.225-37.9-39.406" transform="translate(-1919.639 -680.947)"/>
          <line id="直线_74" data-name="直线 74" class="cls-23" x2="1.28" y2="8.125" transform="translate(159.591 354.537)"/>
          <line id="直线_75" data-name="直线 75" class="cls-23" x1="1.336" y1="8.516" transform="translate(177.68 354.537)"/>
          <line id="直线_76" data-name="直线 76" class="cls-23" x1="0.051" y2="0.009" transform="translate(200.343 335.713)"/>
          <path id="路径_1220" data-name="路径 1220" class="cls-23" d="M2082.554,1179.6l.978-2.08a16.585,16.585,0,0,1,5.114-6.245l2.518-1.862a21.889,21.889,0,0,0,.377,3.313c1.7,8.576,8.571,10.233,17.674,5.268.935-.5,1.884-1.08,2.857-1.722,6.352,9.046,11.992,16.436,20.015,22.844,4.174,3.332,4.844,7.148,4.481,10.113,0,.018,0,.037,0,.056a12.881,12.881,0,0,1-1.68,4.918c-1.768,3.281-11.708-1.638-18.824-4.979l-35.749-16.8a3.424,3.424,0,0,1-1.643-4.555l1.448-3.081,2.438-5.189" transform="translate(-1891.235 -837.153)"/>
          <path id="路径_1221" data-name="路径 1221" class="cls-23" d="M2137.365,1222.509c-7.121,1.536-34.12-13.751-55.708-24.357" transform="translate(-1892.775 -850.516)"/>
          <line id="直线_77" data-name="直线 77" class="cls-23" x1="4.486" y2="2.983" transform="translate(220.753 345.76)"/>
          <line id="直线_78" data-name="直线 78" class="cls-23" x1="4.3" y2="2.857" transform="translate(224.774 351.452)"/>
          <line id="直线_79" data-name="直线 79" class="cls-23" x1="3.923" y2="2.606" transform="translate(229.176 356.445)"/>
          <line id="直线_80" data-name="直线 80" class="cls-23" x1="3.537" y2="7.529" transform="translate(217.924 333.205)"/>
          <path id="路径_1222" data-name="路径 1222" class="cls-23" d="M2102.938,1166.947l.037-.084,4.747-9.963.046-.093" transform="translate(-1902.669 -831.294)"/>
          <path id="路径_1223" data-name="路径 1223" class="cls-23" d="M2030.259,1118.532h0l-8.939-.028-1.275,0-16.809-.047-1.28,0-12.113-.033-14.622-71.269-2-9.745h17.767c45.042,0,57.318-21.216,89.083-24.962" transform="translate(-1842.361 -764.177)"/>
          <path id="路径_1224" data-name="路径 1224" class="cls-23" d="M2077.421,1090.816l.493,5.477,4.212,46.764v0" transform="translate(-1890.806 -800.614)"/>
          <path id="路径_1225" data-name="路径 1225" class="cls-23" d="M2075.208,855.167c0,9.47-11.364,20.294-25.171,20.294-13.723,0-24.7-9.037-24.827-18.442,0-.056,0-.112,0-.168" transform="translate(-1866.531 -691.059)"/>
          <path id="路径_1226" data-name="路径 1226" class="cls-23" d="M2113.539,944.166c4.853,0,31.765,1.512,31.765-29.634" transform="translate(-1907.598 -718.658)"/>
          <path id="路径_1227" data-name="路径 1227" class="cls-23" d="M2154.662,908.314c0,23.011-7.264,36.083-16.632,43.455-15.3,12.039-36.2,8.837-40.137,8.837" transform="translate(-1900.324 -715.768)"/>
          <path id="路径_1228" data-name="路径 1228" class="cls-23" d="M1976.947,1068.835h0c10.052.116,15.534,2.638,15.767-9.745" transform="translate(-1844.095 -785.865)"/>
          <path id="路径_1229" data-name="路径 1229" class="cls-24" d="M1935.263,669.613c-4.481-30.909,19.824-68,56.583-72.959,3.323-.451,10.476-1.312,13.919-1.312a75.714,75.714,0,0,1,11.085.81c36.312,5.361,60.417,32.994,59.422,73.462" transform="translate(-1824.469 -570.264)"/>
          <path id="路径_1230" data-name="路径 1230" class="cls-24" d="M2187.876,734.143c0,11.773-8.348,29.862-13.086,24.836" transform="translate(-1936.074 -634.794)"/>
          <path id="路径_1231" data-name="路径 1231" class="cls-24" d="M1952.267,760.366c-10.205-2.541-16.543-17.232-16.543-26.223" transform="translate(-1824.93 -634.794)"/>
          <path id="路径_1232" data-name="路径 1232" class="cls-23" d="M1969.728,717.532c4.97-5.37,11.853-8.279,19.243-9.958,15.524-3.537,30.653-6.134,44.432-4.793l3.476-14.035,3.007,14.845c4.23.647,8.725,2.15,13.988,3.8a77.7,77.7,0,0,1,18.708,8.376" transform="translate(-1840.739 -613.688)"/>
          <path id="路径_1233" data-name="路径 1233" class="cls-24" d="M1965.276,745.522a25.307,25.307,0,0,1,2.382-2.978" transform="translate(-1838.669 -638.7)"/>
          <path id="路径_1234" data-name="路径 1234" class="cls-23" d="M2030.779,836.589a37.978,37.978,0,0,1-8.125-1.415,51.05,51.05,0,0,1-15.389-7.451c-.065-.042-.135-.088-.2-.135a53.513,53.513,0,0,1-15.911-17.209,42.765,42.765,0,0,1-2.522-5.268c-3.5-8.832-3.271-11.49-3.318-11.657" transform="translate(-1847.985 -662.369)"/>
          <path id="路径_1235" data-name="路径 1235" class="cls-23" d="M2070.281,836.589a37.926,37.926,0,0,0,8.125-1.415,52.614,52.614,0,0,0,17.526-9,54.864,54.864,0,0,0,11.2-11.448,44.645,44.645,0,0,0,5.3-9.614c3.509-8.832,3.276-11.49,3.317-11.657" transform="translate(-1887.487 -662.369)"/>
          <line id="直线_81" data-name="直线 81" class="cls-23" x2="6.659" y2="1.224" transform="translate(138.85 103.723)"/>
          <line id="直线_82" data-name="直线 82" class="cls-24" x1="4.365" y2="6.771" transform="translate(226.254 112.677)"/>
          <path id="路径_1236" data-name="路径 1236" class="cls-23" d="M1974.511,768.25a7.858,7.858,0,0,1-2.187.875c-4.044.949-6.208-1.889-7.8-6.389-.688-1.926-1.266-4.16-1.847-6.529-1.536-6.282,0-12.309,3.5-15.2a7.6,7.6,0,0,1,3.057-1.554,8.537,8.537,0,0,1,6.8,1.433" transform="translate(-1837.182 -637.164)"/>
          <line id="直线_83" data-name="直线 83" class="cls-23" x1="7.325" y2="1.568" transform="translate(219.408 103.723)"/>
          <path id="路径_1237" data-name="路径 1237" class="cls-23" d="M2153.922,768.249a7.9,7.9,0,0,0,2.193.875c4.439,1.047,6.613-2.49,8.264-7.776.493-1.582.94-3.323,1.382-5.142,1.936-7.893-1-15.394-6.552-16.753a7.376,7.376,0,0,0-1.7-.214,9.121,9.121,0,0,0-5.109,1.648" transform="translate(-1925.663 -637.163)"/>
          <line id="直线_84" data-name="直线 84" class="cls-24" x2="4.37" y2="6.771" transform="translate(131.972 112.677)"/>
          <path id="路径_1238" data-name="路径 1238" class="cls-23" d="M2111.379,736.467a10.868,10.868,0,0,0-4.411-7.041c-2.867-2.08-6.827-3.067-11.2-3.067-8.684,0-15.738,3.886-15.841,12.5v1.489a14.54,14.54,0,0,0,14.542,14.537h2.6a14.543,14.543,0,0,0,14.542-14.537v-1.3A14.242,14.242,0,0,0,2111.379,736.467Z" transform="translate(-1891.971 -631.175)"/>
          <path id="路径_1239" data-name="路径 1239" class="cls-23" d="M2031.727,739.128v-.079a11.267,11.267,0,0,0-4.64-9.624c-2.862-2.08-6.823-3.067-11.2-3.067-7.7,0-14.119,3.057-15.543,9.763a14.206,14.206,0,0,0-.293,2.927v1.3a14.54,14.54,0,0,0,14.538,14.537h2.6a14.537,14.537,0,0,0,14.538-14.537Z" transform="translate(-1854.838 -631.175)"/>
          <path id="路径_1240" data-name="路径 1240" class="cls-23" d="M2061.671,749.242a9.709,9.709,0,0,1,8.511-.284" transform="translate(-1883.484 -641.288)"/>
          <path id="路径_1241" data-name="路径 1241" class="cls-24" d="M2055.334,762.207l-4.421,12.942,9.433,2.392" transform="translate(-1878.483 -647.841)"/>
          <path id="路径_1242" data-name="路径 1242" class="cls-23" d="M2113.3,882.884c-2.317,2.588,1.685,4.472-10.508,8.623" transform="translate(-1902.6 -703.945)"/>
          <path id="路径_1243" data-name="路径 1243" class="cls-23" d="M1856.557,759.372c9.954,8.269,28.159,23.431,50.631,31.342" transform="translate(-1788.125 -646.523)"/>
          <path id="路径_1244" data-name="路径 1244" class="cls-23" d="M1793.041,733.343a16.982,16.982,0,0,0-4.7,10.95c-.014.251-.019.507-.019.763a18.319,18.319,0,0,0,18.321,18.317c.349,0,.693-.009,1.033-.033.172-.009.344-.019.512-.033a18.492,18.492,0,0,0,3.467-.623" transform="translate(-1756.401 -634.422)"/>
          <path id="路径_1245" data-name="路径 1245" class="cls-23" d="M1836.764,745.038a18.571,18.571,0,0,0,.782-3.5v0a19.264,19.264,0,0,0,.13-2.21,18.358,18.358,0,0,0-20.652-18.172l-.107.024c-.423.084-.838.181-1.252.3" transform="translate(-1769.113 -628.685)"/>
          <path id="路径_1246" data-name="路径 1246" class="cls-23" d="M1833.771,796.262c-3.127-2.2-6.143-4.407-8.986-6.575l-.293-.224" transform="translate(-1773.217 -660.513)"/>
          <path id="路径_1247" data-name="路径 1247" class="cls-23" d="M1903.758,837.939h-.005c-11.788-4.169-29.573-14.049-45.926-24.864" transform="translate(-1788.715 -671.49)"/>
          <line id="直线_85" data-name="直线 85" class="cls-23" y2="92.411" transform="translate(130.856 180.814)"/>
          <path id="路径_1248" data-name="路径 1248" class="cls-23" d="M2172.9,989.515v12.267" transform="translate(-1935.197 -753.519)"/>
          <path id="路径_1249" data-name="路径 1249" class="cls-23" d="M2020.82,858.307s-.112.06-.3.172c-1.052.623-4.537,2.875-5.31,5.752-.912,3.4,4.7,17.735,16.8,20.378" transform="translate(-1861.839 -692.519)"/>
          <path id="路径_1250" data-name="路径 1250" class="cls-23" d="M1795.96,716.194c2.974,4.714,6.636,10.419,10.038,15.687,3.565,5.519,6.841,10.564,8.759,13.5a4.916,4.916,0,0,1-1.359,6.762,1.028,1.028,0,0,1-.116.074,14.181,14.181,0,0,1-1.377.815,2.893,2.893,0,0,1-.367.167,4.921,4.921,0,0,1-6.068-1.9l-2.49-3.932-4.956-7.818L1784.1,717.567s-2.159-3.142-5.035-7.032c-3.593-4.854-8.292-10.871-11.3-13.4-3.677-3.1-7.455-9.223-9.5-12.849" transform="translate(-1742.424 -611.614)"/>
          <path id="路径_1251" data-name="路径 1251" class="cls-23" d="M1786.626,662.316a28.01,28.01,0,0,1,5.259,8.4c2.392,5.886,5.552,14.487,10.28,23.473.777,1.475,1.6,2.964,2.457,4.449" transform="translate(-1755.613 -601.401)"/>
          <path id="路径_1252" data-name="路径 1252" class="cls-23" d="M1744.492,621.136c-.578-.377-22.365-15.031-13.854-40.765,3.685-11.145,16.5-25.767,18.577-31.9,0,0,3.215,9.828,2.285,26.339-.809,14.309,5.435,13.151,8.181,34.576h0c-.293.07-12.732,2.96-15.175,11.755" transform="translate(-1728.668 -548.475)"/>
          <path id="路径_1253" data-name="路径 1253" class="cls-23" d="M1827.62,722.94h0a5.691,5.691,0,0,0-7.227,2.83c-.056.116-.107.237-.158.363-.065.163-.121.331-.172.5a5.6,5.6,0,0,0-.182,2.313c.01.1.023.2.042.293.014.079.028.154.047.228a5.711,5.711,0,0,0,.907,2.048,2.366,2.366,0,0,0,.158.214c.042.06.093.116.14.172.07.084.144.168.219.247s.158.163.242.242a5.864,5.864,0,0,0,.828.642c.1.06.2.116.293.177a6.219,6.219,0,0,0,.67.312l1.163.461.484.191,1.7.675" transform="translate(-1771.049 -629.399)"/>
          <path id="路径_1254" data-name="路径 1254" class="cls-23" d="M2107.5,951.841a19.831,19.831,0,0,1,3.23,9.67" transform="translate(-1904.792 -736.004)"/>
          <path id="路径_1255" data-name="路径 1255" class="cls-23" d="M2083.358,992.935c-11.555,0-16.73-6.962-16.73-15.082" transform="translate(-1885.789 -748.097)"/>
          <path id="路径_1256" data-name="路径 1256" class="cls-23" d="M2074.357,927.064a5.275,5.275,0,0,1,8.162-6.473,30.617,30.617,0,0,1,9.266,16.073" transform="translate(-1889.069 -720.832)"/>
          <path id="路径_1257" data-name="路径 1257" class="cls-23" d="M2066.844,945.157a20.519,20.519,0,0,0-3.03-2.247,5.274,5.274,0,0,1,4.77-9.377,4.98,4.98,0,0,1,.688.349,30.707,30.707,0,0,1,9.414,8.884" transform="translate(-1883.295 -727.301)"/>
          <path id="路径_1258" data-name="路径 1258" class="cls-23" d="M2060.612,965.625a19.91,19.91,0,0,0-4.379-3.578,5.278,5.278,0,0,1,5.463-9.033q.824.5,1.619,1.047a30.853,30.853,0,0,1,6.064,5.561" transform="translate(-1879.773 -736.195)"/>
          <path id="路径_1259" data-name="路径 1259" class="cls-23" d="M2128.941,1011.995l6.473-.516a23.744,23.744,0,0,1,23.5,33.529l-27.535,60.31-18.637-8.506-16.451-7.511-8.112-3.7,12.969-27.237-22.8,1.015" transform="translate(-1891.235 -763.694)"/>
          <path id="路径_1260" data-name="路径 1260" class="cls-23" d="M2011.567,1244.445a2.549,2.549,0,0,0-.032.419v5.4a2.891,2.891,0,0,0,2.7,2.881q7.637.516,15.362.521t15.361-.521a2.887,2.887,0,0,0,2.7-2.881v-5.4a2.91,2.91,0,0,0-.126-.833l-3.792-12.509a8.423,8.423,0,0,0-8.06-5.975h-12.174a8.407,8.407,0,0,0-8.055,5.975l-3.8,12.509A2.528,2.528,0,0,0,2011.567,1244.445Z" transform="translate(-1860.175 -863.252)"/>
          <line id="直线_86" data-name="直线 86" class="cls-25" x2="14.221" transform="translate(162.314 367.641)"/>
          <line id="直线_87" data-name="直线 87" class="cls-25" x2="14.221" transform="translate(162.314 372.169)"/>
          <line id="直线_88" data-name="直线 88" class="cls-25" x2="14.221" transform="translate(162.314 376.697)"/>
          <path id="路径_1261" data-name="路径 1261" class="cls-23" d="M2047.664,1260.856a.079.079,0,0,0-.032,0q-8.922.747-18.033.759t-18.033-.759a.081.081,0,0,0-.032,0" transform="translate(-1860.175 -879.668)"/>
        </g>
      </g>
      <path id="路径_1262" data-name="路径 1262" class="cls-26" d="M1752.2,578.778c.936-16.6-2.293-26.487-2.293-26.487-1.841,5.428-12.005,17.49-16.991,27.919-4.119,8.617-1.451,14.682-.122,17.964.6,1.488,2.64,3.629,3.868,4,0,0-1.418-8.981,1.676-12.247a80.623,80.623,0,0,0,5.257,6.188s.327-7.841,1.242-10.486C1746.385,581.156,1752.2,578.778,1752.2,578.778Z" transform="translate(-1729.618 -550.249)"/>
    </g>
  </g>
</svg>
