<svg xmlns="http://www.w3.org/2000/svg" width="615.587" height="456.109" viewBox="0 0 615.587 456.109">
  <g id="组_3896" data-name="组 3896" transform="translate(9948.341 -4705.707)">
    <path id="路径_667" data-name="路径 667" d="M-9456.774,4790.775h0l-11.473-6.624h0l-130.96-75.61-346.024,201.087-.274,97.144,263.633,152.209,246.824-143.438.04-14.017,39.043-22.344v.33l11.48,6.628,48.621-28.256.275-97.144Z" fill="none" stroke="#396efe" stroke-linecap="round" stroke-linejoin="round" stroke-width="5.669"/>
    <path id="路径_668" data-name="路径 668" d="M-9838.641,4957.96h0l17.559-10.2h0Z" fill="#eee" stroke="#396efe" stroke-linecap="round" stroke-linejoin="round" stroke-width="2.835"/>
    <path id="路径_669" data-name="路径 669" d="M-9769.4,4917.722l169.985-98.784Z" fill="#eee" stroke="#396efe" stroke-linecap="round" stroke-linejoin="round" stroke-width="2.835"/>
    <path id="路径_670" data-name="路径 670" d="M-9821.7,4850.1h0l-100.661,59.529L-9821.7,4850.1Z" fill="#eee" stroke="#396efe" stroke-linecap="round" stroke-linejoin="round" stroke-width="2.835"/>
    <path id="路径_671" data-name="路径 671" d="M-9468.454,4894.551h0l-123.828,71.961-11.474-6.625.274-97.144,39.838-23.15-35.771-20.652-169.985,98.783-.132,46.565-11.391,6.629-40.158-23.16h0l-17.56,10.2,107.837,62.26.236-83.626.728-.422.094-32.986,11.407-6.629,28.426,16.412,31.771-18.464,11.476,6.625-.275,97.144-27.224,15.821-.086,30.181,39.617-23.023.082-29.225,11.407-6.629,25.039,14.457v.168l151.859-88.251,11.474,6.625-.235,83.127,39.044-22.344.121-42.712Z" fill="#80aeff" stroke="#396efe" stroke-linecap="round" stroke-linejoin="round" stroke-width="2.835"/>
    <path id="路径_672" data-name="路径 672" d="M-9479.653,4790.78h0l11.407-6.629h0Z" fill="#eee" stroke="#396efe" stroke-linecap="round" stroke-linejoin="round" stroke-width="2.835"/>
    <path id="路径_673" data-name="路径 673" d="M-9479.654,4790.784h0L-9599.14,4721.8l-.275,97.143,35.771,20.653Z" fill="#eee" stroke="#396efe" stroke-linecap="round" stroke-linejoin="round" stroke-width="2.835"/>
    <path id="路径_674" data-name="路径 674" d="M-9809.4,4843.983l-.034.019.034-.018,40.144,23.16-11.393,6.629-.275,97.144,11.392-6.629.132-46.565h0l169.985-98.783.275-97.145Z" fill="#eee" stroke="#396efe" stroke-linecap="round" stroke-linejoin="round" stroke-width="2.835"/>
    <path id="路径_675" data-name="路径 675" d="M-9821.7,4850.1Z" fill="#eee" stroke="#396efe" stroke-linecap="round" stroke-linejoin="round" stroke-width="2.835"/>
    <path id="路径_676" data-name="路径 676" d="M-9479.649,4790.779h0l-83.99,48.811-39.837,23.149,11.474,6.625,123.828-71.961h0l109.7,63.336-37.215,21.626,11.481,6.629,48.621-28.256-121.183-69.965h0l-11.474-6.624h0Z" fill="#396efe" stroke="#396efe" stroke-linecap="round" stroke-linejoin="round" stroke-width="2.835"/>
    <path id="路径_677" data-name="路径 677" d="M-9603.481,4862.741l-.274,97.144,11.474,6.624.275-97.144Z" fill="#eee" stroke="#396efe" stroke-linecap="round" stroke-linejoin="round" stroke-width="2.835"/>
    <path id="路径_678" data-name="路径 678" d="M-9592.006,4869.365l-.275,97.144,123.828-71.961h0l.275-97.144Z" fill="#eee" stroke="#396efe" stroke-linecap="round" stroke-linejoin="round" stroke-width="2.835"/>
    <path id="路径_679" data-name="路径 679" d="M-9780.643,4873.772l-40.086-24.152-.072.035v.955h0l-.272,97.144h0l40.158,23.16Z" fill="#eee" stroke="#396efe" stroke-linecap="round" stroke-linejoin="round" stroke-width="2.835"/>
    <path id="路径_680" data-name="路径 680" d="M-9821.082,4947.754l.273-97.143h0v-.956l-.891.444h0l-100.661,59.523,83.716,48.333,17.559-10.2Z" fill="#eee" stroke="#396efe" stroke-linecap="round" stroke-linejoin="round" stroke-width="2.835"/>
    <path id="路径_681" data-name="路径 681" d="M-9729.747,4903.187l-.094,32.986,28.52-16.574Z" fill="#eee" stroke="#396efe" stroke-linecap="round" stroke-linejoin="round" stroke-width="2.835"/>
    <path id="路径_682" data-name="路径 682" d="M-9707.684,4936.591l33.684,19.447-11.407,6.628-.236,83.626,3.975,2.295,7.419-4.311.086-30.181,27.224-15.821.275-97.144Z" fill="#eee" stroke="#396efe" stroke-linecap="round" stroke-linejoin="round" stroke-width="2.835"/>
    <path id="路径_683" data-name="路径 683" d="M-9685.646,5046.294l.237-83.626-45.157-26.072-.236,83.626Z" fill="#eee" stroke="#396efe" stroke-linecap="round" stroke-linejoin="round" stroke-width="2.835"/>
    <path id="路径_684" data-name="路径 684" d="M-9609.512,5006.487l-25.04-14.457-.083,29.224,25.123-14.6Z" fill="#eee" stroke="#396efe" stroke-linecap="round" stroke-linejoin="round" stroke-width="2.835"/>
    <path id="路径_685" data-name="路径 685" d="M-9609.513,5006.654l11.406-6.629v-.168l-11.406,6.629Z" fill="#eee" stroke="#396efe" stroke-linecap="round" stroke-linejoin="round" stroke-width="2.835"/>
    <path id="路径_686" data-name="路径 686" d="M-9384.209,4889l-11.481-6.629,37.215-21.626-109.7-63.336h0l-.275,97.144h0l72.61,41.921-.121,42.711v.33l11.48,6.629Z" fill="#eee" stroke="#396efe" stroke-linecap="round" stroke-linejoin="round" stroke-width="2.835"/>
    <path id="路径_687" data-name="路径 687" d="M-9384.21,4889l-.275,97.144,48.621-28.257.275-97.144Z" fill="#eee" stroke="#396efe" stroke-linecap="round" stroke-linejoin="round" stroke-width="2.835"/>
    <path id="路径_688" data-name="路径 688" d="M-9685.409,4962.666l11.407-6.628-33.684-19.447,61.018-35.46-11.474-6.625-31.771,18.464-28.426-16.412-11.407,6.628,28.427,16.413-28.52,16.574-.728.423Z" fill="#396efe" stroke="#396efe" stroke-linecap="round" stroke-linejoin="round" stroke-width="2.835"/>
    <path id="路径_689" data-name="路径 689" d="M-9446.247,4911.774l-151.627,88.116-25.271-14.49-11.407,6.628,25.271,14.49-.231.135-25.123,14.6-39.617,23.022-7.419,4.312-3.976-2.3-45.156-26.072-107.837-62.26h0l-83.716-48.332L-9821.7,4850.1l.891-.443.07-.035,40.087,24.152,11.393-6.629-40.144-23.158-.034.017.035-.018,210.26-122.19,119.486,68.986,11.407-6.629-130.96-75.61-346.023,201.087,263.633,152.209,246.823-143.438Z" fill="#396efe" stroke="#396efe" stroke-linecap="round" stroke-linejoin="round" stroke-width="2.835"/>
    <path id="路径_690" data-name="路径 690" d="M-9681.6,5061.836l-263.635-152.208-.274,97.144,263.633,152.209Z" fill="#eee" stroke="#396efe" stroke-linecap="round" stroke-linejoin="round" stroke-width="2.835"/>
    <path id="路径_691" data-name="路径 691" d="M-9681.6,5061.836l-.276,97.144,246.824-143.438.039-14.018.235-83.126Z" fill="#eee" stroke="#396efe" stroke-linecap="round" stroke-linejoin="round" stroke-width="2.835"/>
    <line id="直线_4" data-name="直线 4" y2="50.579" transform="translate(-9769.399 4867.345)" fill="none" stroke="#396efe" stroke-linecap="round" stroke-linejoin="round" stroke-width="2.835"/>
    <line id="直线_5" data-name="直线 5" y1="58.058" transform="translate(-9674.167 4956.038)" fill="none" stroke="#396efe" stroke-linecap="round" stroke-linejoin="round" stroke-width="2.835"/>
    <line id="直线_6" data-name="直线 6" y1="56.93" transform="translate(-9395.844 4882.367)" fill="none" stroke="#396efe" stroke-linecap="round" stroke-linejoin="round" stroke-width="2.835"/>
  </g>
</svg>
