<svg width="160" height="60" viewBox="0 0 160 60" fill="none" xmlns="http://www.w3.org/2000/svg">
<rect x="43" y="22" width="99" height="19" fill="#D7FBCF"/>
<path d="M72.118 31.772L69.752 32.08V24.492H68.268V32.262L59.742 33.354L59.938 34.768L68.268 33.704V37.456H69.752V33.508L72.328 33.186L72.118 31.772ZM63.396 25.01L62.36 26.018C63.9 27.11 65.09 28.118 65.93 29.042L67.022 27.95C66.042 26.97 64.824 25.99 63.396 25.01ZM61.912 27.992L60.876 29C62.402 30.064 63.578 31.058 64.418 31.968L65.552 30.834C64.558 29.896 63.34 28.944 61.912 27.992ZM73.686 24.968V26.396H77.732V28.076H74.442V37.386H75.912V36.868H84.116V37.386H85.586V28.076H82.212V26.396H86.314V24.968H73.686ZM75.912 35.496V33.62L76.892 34.474C78.376 33.438 79.146 31.786 79.174 29.518V29.448H80.77V31.982C80.77 33.046 81.274 33.592 82.31 33.592H84.116V35.496H75.912ZM79.174 26.396H80.77V28.076H79.174V26.396ZM75.912 33.354V29.448H77.732V29.518C77.704 31.254 77.102 32.528 75.912 33.354ZM82.212 29.448H84.116V32.262H82.758C82.394 32.262 82.212 32.038 82.212 31.618V29.448ZM96.114 32.15C96.772 34.012 97.836 35.566 99.32 36.812L100.356 35.594C98.942 34.614 97.92 33.326 97.276 31.744C98.088 31.422 98.858 31.03 99.572 30.582L98.592 29.602C97.5 30.302 96.352 30.82 95.134 31.17C94.882 30.694 94.56 30.246 94.168 29.826C94.476 29.644 94.77 29.448 95.078 29.238H98.144V27.894H89.856V29.238H92.768C92.516 29.35 92.25 29.462 91.984 29.574C90.85 30.036 89.646 30.4 88.372 30.652L89.114 31.87C90.794 31.366 92.096 30.89 92.992 30.456C92.992 30.442 93.02 30.428 93.048 30.428C93.16 30.568 93.286 30.708 93.398 30.876C92.138 31.744 90.374 32.472 88.106 33.046L88.834 34.292C90.976 33.676 92.698 32.878 94 31.926C94.098 32.15 94.182 32.388 94.266 32.654C92.768 33.83 90.654 34.796 87.924 35.566L88.652 36.812C91.046 36.084 92.992 35.16 94.504 34.04C94.504 34.124 94.518 34.222 94.518 34.334C94.518 35.076 94.392 35.58 94.168 35.846C93.972 36.042 93.496 36.154 92.74 36.154H92.012L92.502 37.442H92.936C94.224 37.442 95.064 37.176 95.442 36.672C95.75 36.252 95.918 35.482 95.918 34.334C95.904 33.606 95.806 32.934 95.61 32.29C95.778 32.248 95.946 32.206 96.114 32.15ZM94.378 24.408L92.88 24.66C93.034 24.94 93.174 25.248 93.314 25.584H87.966V28.244H89.408V26.928H98.578V28.244H100.034V25.584H94.798C94.658 25.15 94.518 24.758 94.378 24.408ZM107.244 29.994V31.954H103.716V33.326H107.244V35.832H102.106V37.19H113.88V35.832H111.878L112.592 35.342C112.242 34.81 111.752 34.18 111.136 33.466L110.03 34.152C110.52 34.754 110.926 35.314 111.262 35.832H108.728V33.326H112.172V31.954H108.728V29.994H112.634V28.79H113.852V25.78H108.84C108.7 25.318 108.56 24.898 108.406 24.52L106.838 24.772C106.992 25.08 107.132 25.416 107.258 25.78H102.12V28.818H103.394V29.994H107.244ZM103.604 28.622V27.194H112.382V28.622H103.604ZM127.222 26.172H124.24V24.464H122.854V26.172H121.174V24.464H119.788V26.172H116.792V32.696H115.546V34.096H128.412V32.696H127.222V26.172ZM118.192 32.696V30.694H119.788V32.696H118.192ZM121.174 32.696V30.694H122.854V32.696H121.174ZM124.24 32.696V30.694H125.822V32.696H124.24ZM118.192 29.364V27.516H119.788V29.364H118.192ZM121.174 27.516H122.854V29.364H121.174V27.516ZM124.24 27.516H125.822V29.364H124.24V27.516ZM124.002 34.166L123.26 35.272C124.702 35.832 126.116 36.602 127.488 37.582L128.272 36.35C126.984 35.496 125.57 34.768 124.002 34.166ZM119.914 34.166C118.836 35.02 117.45 35.72 115.77 36.252L116.4 37.61C118.136 36.966 119.606 36.168 120.824 35.216L119.914 34.166Z" fill="#14AF64"/>
<rect x="41" y="24" width="2" height="15" fill="black"/>
<rect x="144" y="39" width="2" height="15" transform="rotate(-180 144 39)" fill="black"/>
<rect x="140" y="20" width="2" height="95" transform="rotate(90 140 20)" fill="black"/>
<rect x="140" y="41" width="2" height="95" transform="rotate(90 140 41)" fill="black"/>
<rect x="43" y="22" width="2" height="2" fill="black"/>
<rect x="142" y="41" width="2" height="2" transform="rotate(-180 142 41)" fill="black"/>
<rect x="43" y="39" width="2" height="2" fill="black"/>
<rect x="142" y="24" width="2" height="2" transform="rotate(-180 142 24)" fill="black"/>
<rect x="16" y="24" width="35" height="17" fill="#14AF64"/>
<rect x="20" y="23" width="27" height="15" fill="#D7FBCF"/>
<rect x="20" y="20" width="9" height="3" fill="#D7FBCF"/>
<rect x="38" y="20" width="9" height="3" fill="#D7FBCF"/>
<rect x="13" y="23" width="3" height="18" fill="black"/>
<rect width="3" height="18" transform="matrix(-1 0 0 1 54 23)" fill="black"/>
<rect x="17" y="18" width="3" height="20" fill="black"/>
<rect width="3" height="20" transform="matrix(-1 0 0 1 50 18)" fill="black"/>
<rect x="25" y="17" width="3" height="6" transform="rotate(90 25 17)" fill="black"/>
<rect width="3" height="6" transform="matrix(4.48162e-08 1 1 -4.26338e-08 42 17)" fill="black"/>
<rect x="25" y="23" width="3" height="3" transform="rotate(90 25 23)" fill="black"/>
<rect width="3" height="3" transform="matrix(4.48162e-08 1 1 -4.26338e-08 42 26)" fill="black"/>
<rect x="25" y="29" width="3" height="3" transform="rotate(90 25 29)" fill="black"/>
<rect x="29" y="18" width="3" height="6" transform="rotate(90 29 18)" fill="black"/>
<rect width="3" height="6" transform="matrix(4.48162e-08 1 1 -4.26338e-08 38 18)" fill="black"/>
<rect x="29" y="25" width="3" height="5" transform="rotate(90 29 25)" fill="black"/>
<rect width="3" height="5" transform="matrix(4.48162e-08 1 1 -4.26338e-08 38 28)" fill="black"/>
<rect x="29" y="31" width="3" height="5" transform="rotate(90 29 31)" fill="black"/>
<rect x="25" y="40" width="3" height="11" transform="rotate(90 25 40)" fill="black"/>
<rect width="3" height="11" transform="matrix(4.48162e-08 1 1 -4.26338e-08 42 40)" fill="black"/>
<rect x="29" y="36" width="3" height="4" transform="rotate(90 29 36)" fill="black"/>
<rect width="3" height="4" transform="matrix(4.48162e-08 1 1 -4.26338e-08 38 36)" fill="black"/>
<rect x="37" y="42" width="4" height="7" transform="rotate(90 37 42)" fill="black"/>
<rect x="32" y="41" width="3" height="5" transform="rotate(90 32 41)" fill="black"/>
<rect width="3" height="5" transform="matrix(4.48162e-08 1 1 -4.26338e-08 35 41)" fill="black"/>
<rect x="32" y="20" width="3" height="3" transform="rotate(90 32 20)" fill="black"/>
<rect width="3" height="3" transform="matrix(4.48162e-08 1 1 -4.26338e-08 35 20)" fill="black"/>
<rect x="31" y="27" width="2" height="3" transform="rotate(90 31 27)" fill="black"/>
<rect width="2" height="3" transform="matrix(4.48162e-08 1 1 -4.26338e-08 36 30)" fill="black"/>
<rect x="31" y="33" width="2" height="3" transform="rotate(90 31 33)" fill="black"/>
<rect x="27" y="41" width="2" height="2" transform="rotate(90 27 41)" fill="black"/>
<rect width="2" height="2" transform="matrix(4.48162e-08 1 1 -4.26338e-08 40 41)" fill="black"/>
<rect x="25" y="35" width="3" height="6" transform="rotate(90 25 35)" fill="black"/>
<rect width="3" height="6" transform="matrix(4.48162e-08 1 1 -4.26338e-08 42 35)" fill="black"/>
<rect x="32" y="21" width="3" height="21" fill="black"/>
<rect x="29" y="38" width="3" height="3" fill="black"/>
<rect width="3" height="3" transform="matrix(-1 0 0 1 38 38)" fill="black"/>
<rect x="17" y="21" width="3" height="3" transform="rotate(90 17 21)" fill="black"/>
<rect width="3" height="3" transform="matrix(4.48162e-08 1 1 -4.26338e-08 50 21)" fill="black"/>
</svg>
