<svg xmlns="http://www.w3.org/2000/svg" width="672" height="500" viewBox="0 0 672 500">
  <g id="组_4549" data-name="组 4549" transform="translate(-2027.353 -5716.854)">
    <rect id="矩形_1196" data-name="矩形 1196" width="672" height="499" transform="translate(2027.353 5716.854)" fill="#d0efe0"/>
    <rect id="矩形_1197" data-name="矩形 1197" width="672" height="142" transform="translate(2027.353 6074.854)" fill="#fff"/>
    <ellipse id="椭圆_507" data-name="椭圆 507" cx="150" cy="20" rx="150" ry="20" transform="translate(2214.353 6015.697)" fill="#aae2c7"/>
    <path id="路径_1745" data-name="路径 1745" d="M2502.231,5800.081,2487.641,5760l-273.3,99.472,14.6,40.122a34.868,34.868,0,0,0,23.846,65.515l14.6,40.122,273.3-99.472-14.589-40.084a34.9,34.9,0,1,1-23.873-65.591Z" fill="#fff" stroke="#333" stroke-miterlimit="10" stroke-width="2"/>
    <path id="路径_1746" data-name="路径 1746" d="M2493.231,5795.081,2478.641,5755l-273.3,99.472,14.6,40.122a34.868,34.868,0,0,0,23.846,65.515l14.6,40.122,273.3-99.472-14.589-40.084a34.9,34.9,0,1,1-23.873-65.591Z" fill="#14af64" stroke="#333" stroke-miterlimit="10" stroke-width="2"/>
    <g id="组_4543" data-name="组 4543" transform="translate(2208.992 5911.057)">
      <path id="路径_1747" data-name="路径 1747" d="M2241.821,5937.457h0l-28.017,7.034,15.4-33.018Z" transform="translate(-2208.992 -5911.473)" fill="none" stroke="#fff" stroke-linecap="round" stroke-linejoin="round" stroke-width="2"/>
      <path id="路径_1748" data-name="路径 1748" d="M2213.855,5944.515l-4.863-12.781,7.343-15.747,12.916-4.49Z" transform="translate(-2208.992 -5911.473)" fill="none" stroke="#fff" stroke-linecap="round" stroke-linejoin="round" stroke-width="2"/>
      <line id="直线_93" data-name="直线 93" x2="7.705" y2="6.685" transform="translate(1.895 16.197)" fill="none" stroke="#fff" stroke-linecap="round" stroke-linejoin="round" stroke-width="2"/>
      <line id="直线_94" data-name="直线 94" x2="23.229" y2="3.102" transform="translate(9.6 22.882)" fill="none" stroke="#fff" stroke-linecap="round" stroke-linejoin="round" stroke-width="2"/>
      <line id="直线_95" data-name="直线 95" x2="10.074" y2="1.605" transform="translate(5.448 8.578)" fill="none" stroke="#fff" stroke-linecap="round" stroke-linejoin="round" stroke-width="2"/>
      <line id="直线_96" data-name="直线 96" x1="17.307" y1="15.801" transform="translate(15.522 10.183)" fill="none" stroke="#fff" stroke-linecap="round" stroke-linejoin="round" stroke-width="2"/>
    </g>
    <g id="组_4544" data-name="组 4544" transform="translate(2240.55 5842.358)">
      <line id="直线_97" data-name="直线 97" x2="0.684" y2="1.879" fill="none" stroke="#fff" stroke-miterlimit="10" stroke-width="2"/>
      <line id="直线_98" data-name="直线 98" x2="48.754" y2="133.951" transform="translate(2.057 5.653)" fill="none" stroke="#fff" stroke-miterlimit="10" stroke-width="2" stroke-dasharray="4.015 4.015"/>
      <line id="直线_99" data-name="直线 99" x2="0.684" y2="1.879" transform="translate(51.498 141.49)" fill="none" stroke="#fff" stroke-miterlimit="10" stroke-width="2"/>
    </g>
    <g id="组_4545" data-name="组 4545" transform="translate(2429.262 5774.003)">
      <line id="直线_100" data-name="直线 100" x2="0.684" y2="1.879" fill="none" stroke="#fff" stroke-miterlimit="10" stroke-width="2"/>
      <line id="直线_101" data-name="直线 101" x2="48.761" y2="133.969" transform="translate(2.058 5.653)" fill="none" stroke="#fff" stroke-miterlimit="10" stroke-width="2" stroke-dasharray="4.016 4.016"/>
      <line id="直线_102" data-name="直线 102" x2="0.684" y2="1.879" transform="translate(51.505 141.509)" fill="none" stroke="#fff" stroke-miterlimit="10" stroke-width="2"/>
    </g>
    <g id="组_4546" data-name="组 4546" transform="translate(2284.681 5844.522)">
      <path id="路径_1749" data-name="路径 1749" d="M2347.872,5881.975l-2.2-6.033-10.074,3.666-6.033,2.2-10.074,3.666,2.2,6.034,10.073-3.667,1.471,4.041-10.073,3.667.923,2.537,1.273,3.5,1.47,4.041,2.2,6.032,6.031-2.195,14.116-5.138,6.033-2.2-2.2-6.032-1.471-4.041-1.272-3.495-.924-2.537-10.073,3.666-1.471-4.041Zm-2.368,12.269,1.471,4.041-14.115,5.137-1.471-4.04,4.042-1.471.871,2.392,6.034-2.2-.871-2.393Z" transform="translate(-2284.681 -5844.822)" fill="#fff"/>
      <path id="路径_1750" data-name="路径 1750" d="M2307.6,5889.8l-6.031,2.195,3.667,10.074-10.074,3.667,2.2,6.032,10.074-3.667,3.666,10.073,6.031-2.195-3.666-10.073,10.076-3.667-2.2-6.032-10.076,3.667Z" transform="translate(-2284.681 -5844.822)" fill="#fff"/>
      <rect id="矩形_1198" data-name="矩形 1198" width="5.438" height="8.692" transform="translate(0 54.261) rotate(-64.997)" fill="#fff"/>
      <rect id="矩形_1199" data-name="矩形 1199" width="5.438" height="8.693" transform="matrix(0.423, -0.906, 0.906, 0.423, 2.985, 47.857)" fill="#fff"/>
      <rect id="矩形_1200" data-name="矩形 1200" width="17.454" height="3.696" transform="translate(142.946 22.231) rotate(-110)" fill="#fff"/>
      <rect id="矩形_1201" data-name="矩形 1201" width="6.411" height="15.686" transform="translate(124.754 20.914) rotate(-110)" fill="#fff"/>
      <rect id="矩形_1202" data-name="矩形 1202" width="6.411" height="23.499" transform="translate(124.948 7.888) rotate(-20)" fill="#fff"/>
      <path id="路径_1751" data-name="路径 1751" d="M2431.838,5874.229l-8.4,3.154-5.81-2.709,2.709-5.81Z" transform="translate(-2284.681 -5844.822)" fill="#fff"/>
      <rect id="矩形_1203" data-name="矩形 1203" width="6.411" height="27.817" transform="translate(140.72 2.193) rotate(-20)" fill="#fff"/>
      <rect id="矩形_1204" data-name="矩形 1204" width="6.411" height="4.891" transform="translate(145.802 26.265) rotate(-65)" fill="#fff"/>
      <rect id="矩形_1205" data-name="矩形 1205" width="16.71" height="4.891" transform="translate(141.106 18.973) rotate(115)" fill="#fff"/>
      <rect id="矩形_1206" data-name="矩形 1206" width="27.858" height="3.696" transform="translate(66.039 37.387) rotate(-20)" fill="#fff"/>
      <rect id="矩形_1207" data-name="矩形 1207" width="27.858" height="4.525" transform="translate(63.873 31.435) rotate(-20)" fill="#fff"/>
      <rect id="矩形_1208" data-name="矩形 1208" width="11.631" height="3.696" transform="translate(74.624 39.012) rotate(-20)" fill="#fff"/>
      <rect id="矩形_1209" data-name="矩形 1209" width="6.411" height="15.622" transform="translate(79.599 37.417) rotate(-20)" fill="#fff"/>
      <rect id="矩形_1210" data-name="矩形 1210" width="6.411" height="5.624" transform="translate(63.873 31.435) rotate(-20)" fill="#fff"/>
      <rect id="矩形_1211" data-name="矩形 1211" width="6.411" height="5.624" transform="translate(84.027 24.1) rotate(-20)" fill="#fff"/>
      <rect id="矩形_1212" data-name="矩形 1212" width="6.411" height="4.891" transform="translate(73.541 26.644) rotate(-20)" fill="#fff"/>
      <rect id="矩形_1213" data-name="矩形 1213" width="6.411" height="4.891" transform="translate(80.51 50.03) rotate(-65)" fill="#fff"/>
      <path id="路径_1752" data-name="路径 1752" d="M2364.328,5879.6l-6.159,13.209-4.433-2.067,4.961-10.638Z" transform="translate(-2284.681 -5844.822)" fill="#fff"/>
      <rect id="矩形_1214" data-name="矩形 1214" width="9.038" height="4.891" transform="translate(72.444 52.951) rotate(-65)" fill="#fff"/>
      <rect id="矩形_1215" data-name="矩形 1215" width="8.77" height="4.891" transform="translate(95.906 48.106) rotate(-155)" fill="#fff"/>
      <rect id="矩形_1216" data-name="矩形 1216" width="11.092" height="4.891" transform="translate(85.854 43.418) rotate(-65)" fill="#fff"/>
      <rect id="矩形_1217" data-name="矩形 1217" width="6.411" height="16.921" transform="translate(107.33 30.109) rotate(-110)" fill="#fff"/>
      <rect id="矩形_1218" data-name="矩形 1218" width="6.411" height="15.686" transform="translate(99.246 30.198) rotate(-20)" fill="#fff"/>
      <rect id="矩形_1219" data-name="矩形 1219" width="6.411" height="27.86" transform="translate(107.187 14.353) rotate(-20)" fill="#fff"/>
      <rect id="矩形_1220" data-name="矩形 1220" width="6.411" height="9.681" transform="translate(96.864 33.213) rotate(-110)" fill="#fff"/>
      <rect id="矩形_1221" data-name="矩形 1221" width="6.411" height="4.891" transform="translate(106.909 35.597) rotate(25)" fill="#fff"/>
      <rect id="矩形_1222" data-name="矩形 1222" width="8.77" height="4.891" transform="translate(101.753 26.61) rotate(-155)" fill="#fff"/>
    </g>
    <g id="组_4547" data-name="组 4547" transform="translate(2108.301 6025.707)">
      <path id="路径_1753" data-name="路径 1753" d="M2108.3,6026.366l19.391,31.955,52.035-31.577Z" transform="translate(-2108.301 -6026.366)" fill="none" stroke="#fff" stroke-linecap="round" stroke-linejoin="round" stroke-width="2"/>
      <path id="路径_1754" data-name="路径 1754" d="M2120.823,6033.794l9.223,15.2,24.749-15.019Z" transform="translate(-2108.301 -6026.366)" fill="none" stroke="#fff" stroke-linecap="round" stroke-linejoin="round" stroke-width="2"/>
    </g>
    <g id="组_4548" data-name="组 4548" transform="translate(2537.216 5751.639)">
      <path id="路径_1755" data-name="路径 1755" d="M2608.642,5783.594l-19.391-31.955-52.035,31.577Z" transform="translate(-2537.216 -5751.639)" fill="none" stroke="#fff" stroke-linecap="round" stroke-linejoin="round" stroke-width="2"/>
      <path id="路径_1756" data-name="路径 1756" d="M2596.12,5776.167l-9.223-15.2-24.749,15.018Z" transform="translate(-2537.216 -5751.639)" fill="none" stroke="#fff" stroke-linecap="round" stroke-linejoin="round" stroke-width="2"/>
    </g>
    <line id="直线_103" data-name="直线 103" x1="12.042" y2="16.242" transform="translate(2512.761 5751.375)" fill="none" stroke="#fff" stroke-linecap="round" stroke-linejoin="round" stroke-width="2"/>
    <line id="直线_104" data-name="直线 104" x1="15.538" y2="20.879" transform="translate(2304.762 6002.532)" fill="none" stroke="#fff" stroke-linecap="round" stroke-linejoin="round" stroke-width="2"/>
    <circle id="椭圆_508" data-name="椭圆 508" cx="6.302" cy="6.302" r="6.302" transform="translate(2377.017 5975.097)" fill="none" stroke="#fff" stroke-linecap="round" stroke-linejoin="round" stroke-width="2"/>
    <circle id="椭圆_509" data-name="椭圆 509" cx="5.296" cy="5.296" r="5.296" transform="translate(2195.747 5809.286)" fill="none" stroke="#fff" stroke-linecap="round" stroke-linejoin="round" stroke-width="2"/>
    <line id="直线_105" data-name="直线 105" x2="8.028" y2="10.561" transform="translate(2466.19 5960.354)" fill="none" stroke="#fff" stroke-linecap="round" stroke-linejoin="round" stroke-width="2"/>
    <line id="直线_106" data-name="直线 106" x2="7.548" y2="5.218" transform="translate(2258.923 5812.648)" fill="none" stroke="#fff" stroke-linecap="round" stroke-linejoin="round" stroke-width="2"/>
    <path id="路径_1763" data-name="路径 1763" d="M2350.647,5767.616a13.494,13.494,0,0,1-6.167-1.521,12.684,12.684,0,0,1-2.74-1.923,13.809,13.809,0,0,1-2.562-3.175,12.9,12.9,0,0,1-1.772-6.622,13.445,13.445,0,0,1-1.98,6.97,12.765,12.765,0,0,1-2.315,2.793,13.808,13.808,0,0,1-3.282,2.209,12.856,12.856,0,0,1-5.664,1.269,13.479,13.479,0,0,1,6.426,1.661,12.738,12.738,0,0,1,2.938,2.217,13.8,13.8,0,0,1,2.441,3.357,12.872,12.872,0,0,1,1.437,6.005,13.478,13.478,0,0,1,1.639-6.385,12.679,12.679,0,0,1,1.916-2.643,13.9,13.9,0,0,1,2.755-2.256A12.914,12.914,0,0,1,2350.647,5767.616Z" transform="translate(3.706 6.479)" fill="#fff"/>
    <path id="路径_1764" data-name="路径 1764" d="M2335.666,5760.126a5.856,5.856,0,0,1-2.678-.661,5.456,5.456,0,0,1-1.19-.835,6,6,0,0,1-1.113-1.379,5.6,5.6,0,0,1-.77-2.876,5.837,5.837,0,0,1-.86,3.027,5.544,5.544,0,0,1-1.005,1.213,6.01,6.01,0,0,1-1.425.96,5.594,5.594,0,0,1-2.459.551,5.862,5.862,0,0,1,2.791.721,5.519,5.519,0,0,1,1.275.963,5.981,5.981,0,0,1,1.06,1.459,5.585,5.585,0,0,1,.624,2.607,5.856,5.856,0,0,1,.712-2.773,5.528,5.528,0,0,1,.832-1.147,6,6,0,0,1,1.2-.979A5.605,5.605,0,0,1,2335.666,5760.126Z" transform="translate(101.706 194.479)" fill="#fff"/>
    <path id="路径_1765" data-name="路径 1765" d="M2338.123,5760.638a7.772,7.772,0,0,1-3.25-.72,6.758,6.758,0,0,1-2.795-2.411,5.63,5.63,0,0,1-.934-3.132,5.879,5.879,0,0,1-1.044,3.3,6.222,6.222,0,0,1-1.22,1.321,7.376,7.376,0,0,1-4.715,1.645,7.76,7.76,0,0,1,3.387.785,6.679,6.679,0,0,1,1.548,1.048,6.608,6.608,0,0,1,1.287,1.589,5.586,5.586,0,0,1,.757,2.839,5.866,5.866,0,0,1,.864-3.02,6.069,6.069,0,0,1,1.01-1.25,7.158,7.158,0,0,1,1.452-1.067A7.389,7.389,0,0,1,2338.123,5760.638Z" transform="translate(187.477 83.967)" fill="#fff"/>
    <path id="路径_1766" data-name="路径 1766" d="M2345.091,5764.007a11.414,11.414,0,0,1-4.873-1.106,10.016,10.016,0,0,1-2.165-1.4,10.269,10.269,0,0,1-2.025-2.311,8.819,8.819,0,0,1-1.4-4.816,9.206,9.206,0,0,1-1.564,5.07,9.473,9.473,0,0,1-1.83,2.031,11.03,11.03,0,0,1-2.593,1.608,10.915,10.915,0,0,1-4.475.922,11.389,11.389,0,0,1,5.078,1.208,10.089,10.089,0,0,1,4.25,4.056,8.766,8.766,0,0,1,1.135,4.367,9.2,9.2,0,0,1,1.3-4.645,9.294,9.294,0,0,1,1.514-1.922,10.74,10.74,0,0,1,2.177-1.641A10.861,10.861,0,0,1,2345.091,5764.007Z" transform="translate(-162.007 117.598)" fill="#fff"/>
    <path id="路径_1767" data-name="路径 1767" d="M2341.079,5762.832a8.618,8.618,0,0,1-3.939-.972,8.11,8.11,0,0,1-1.75-1.229,8.814,8.814,0,0,1-1.636-2.027,8.244,8.244,0,0,1-1.132-4.229,8.588,8.588,0,0,1-1.265,4.451,8.139,8.139,0,0,1-1.479,1.784,8.822,8.822,0,0,1-2.1,1.411,8.217,8.217,0,0,1-3.617.811,8.608,8.608,0,0,1,4.1,1.061,8.116,8.116,0,0,1,1.876,1.416,8.807,8.807,0,0,1,1.559,2.145,8.218,8.218,0,0,1,.918,3.835,8.609,8.609,0,0,1,1.047-4.079,8.1,8.1,0,0,1,1.224-1.687,8.888,8.888,0,0,1,1.76-1.441A8.25,8.25,0,0,1,2341.079,5762.832Z" transform="translate(-65.028 217.263)" fill="#fff"/>
  </g>
</svg>
