<?xml version="1.0" encoding="utf-8"?>
<!-- Generator: Adobe Illustrator 24.0.0, SVG Export Plug-In . SVG Version: 6.00 Build 0)  -->
<svg version="1.1" id="图层_1" xmlns="http://www.w3.org/2000/svg" xmlns:xlink="http://www.w3.org/1999/xlink" x="0px" y="0px"
	 viewBox="0 0 287 71" style="enable-background:new 0 0 287 71;" xml:space="preserve">
<style type="text/css">
	.st0{fill:#FCFCFC;stroke:#000000;stroke-width:2;}
	.st1{fill:#396EFE;stroke:#000000;stroke-width:2;}
	.st2{enable-background:new    ;}
	.st3{fill:#FCFCFC;}
</style>
<g id="组_4519" transform="translate(-384 -686)">
	<g id="组_4481_1_">
		
			<rect id="矩形_1012_1_" x="387" y="749.2" transform="matrix(0.7071 -0.7071 0.7071 0.7071 -418.5946 494.8113)" width="2" height="7"/>
		<path id="矩形_1039_1_" d="M665.3,687l4.9,4.9c0.4,0.4,0.4,1,0,1.4l0,0c-0.4,0.4-1,0.4-1.4,0l-4.9-4.9c-0.4-0.4-0.4-1,0-1.4l0,0
			C664.3,686.6,664.9,686.6,665.3,687z"/>
		<path id="矩形_1008_1_" class="st0" d="M392,692h276c1.1,0,2,0.9,2,2v60c0,1.1-0.9,2-2,2H392c-1.1,0-2-0.9-2-2v-60
			C390,692.9,390.9,692,392,692z"/>
		<path id="矩形_497_1_" class="st1" d="M387,687h276c1.1,0,2,0.9,2,2v60c0,1.1-0.9,2-2,2H387c-1.1,0-2-0.9-2-2v-60
			C385,687.9,385.9,687,387,687z"/>
		<path id="矩形_1010_1_" d="M665,750.1l4.2,4.2c0.4,0.4,0.4,1,0,1.4l0,0c-0.4,0.4-1,0.4-1.4,0l-4.2-4.2c-0.4-0.4-0.4-1,0-1.4l0,0
			C664,749.7,664.6,749.7,665,750.1z"/>
	</g>
	<g class="st2">
		<path class="st3" d="M485.7,717.2c-0.1-0.2-0.2-0.3-0.3-0.5c0,0.2,0,0.4,0,0.6c-0.2,4.1-0.5,5.7-1,6.3c-0.4,0.4-0.8,0.6-1.5,0.7
			c-0.5,0-1.5,0-2.4,0c0-0.6-0.3-1.3-0.6-1.9c0.9,0.1,1.6,0.1,2,0.1c0.3,0,0.5,0,0.7-0.2c0.3-0.3,0.5-1.4,0.6-3.9h-4.6v8.1
			c0,0.9,0.2,1.1,1.4,1.1h3.8c1,0,1.2-0.5,1.3-3.2c0.5,0.4,1.3,0.7,1.9,0.8c-0.3,3.3-0.9,4.3-3.1,4.3h-4.2c-2.5,0-3.3-0.6-3.3-3
			v-9.6c-0.4,0.3-0.7,0.6-1.2,0.9c-0.4-0.5-1.1-1.2-1.6-1.6c3-2.1,5.5-5.3,6.7-8.4l2,0.6c-0.1,0.4-0.3,0.7-0.5,1
			c1.9,2,4.2,4.6,5.4,6.2L485.7,717.2z M485.2,716.5c-1.1-1.5-2.7-3.5-4.2-5.2c-1.2,1.9-2.6,3.7-4.2,5.2H485.2z M490.3,723.9h-2.1
			v-13.3h2.1V723.9z M494.9,708.3v18.8c0,1.4-0.3,2-1.2,2.3c-0.9,0.4-2.3,0.4-4.5,0.4c-0.1-0.6-0.5-1.6-0.8-2.2
			c1.6,0.1,3.1,0.1,3.6,0c0.5,0,0.6-0.2,0.6-0.6v-18.8H494.9z"/>
		<path class="st3" d="M505.2,716.2c-0.4,3.4-1,6.2-2,8.5c2.3,2.1,5.4,2.6,9.2,2.6c1.1,0,6.2,0,7.6,0c-0.3,0.5-0.7,1.4-0.8,2h-6.8
			c-4.2,0-7.6-0.6-10.1-2.8c-0.8,1.3-1.7,2.4-2.8,3.2c-0.3-0.4-1.1-1.2-1.6-1.5c1.2-0.8,2.2-1.9,3-3.4c-0.8-1.2-1.5-2.7-2.1-4.6
			l1.7-0.6c0.4,1.3,0.8,2.3,1.4,3.2c0.5-1.4,0.9-3.1,1.2-5h-3.8c1-1.8,2.3-4.3,3.3-6.7h-3.9v-1.9h7c-1,2.1-2.2,4.6-3.2,6.7h1.2
			l0.4-0.1L505.2,716.2z M510.8,711.6h-4.3v-1.8h4.3V708h2.1v1.9h5.2v3.2h1.5v1.8h-1.5v3.2h-5.2v1.5h5.6v1.7h-5.6v1.6h6.4v1.8h-6.4
			v2h-2.1v-2h-5.6v-1.8h5.6v-1.6h-4.7v-1.7h4.7V718h-4.5v-1.8h4.5v-1.5H505V713h5.8V711.6z M512.9,711.6v1.4h3.2v-1.4H512.9z
			 M516.1,714.8h-3.2v1.5h3.2V714.8z"/>
	</g>
	<g class="st2">
		<path class="st3" d="M523.3,710.3h5.4c3.9,0,6.7,1.3,6.7,5.3c0,3.9-2.8,5.6-6.6,5.6h-2.7v6.7h-2.8V710.3z M528.5,719.1
			c2.8,0,4.2-1.1,4.2-3.4s-1.5-3.1-4.3-3.1h-2.3v6.5H528.5z"/>
		<path class="st3" d="M538.9,710.3h2.8v15.3h7.5v2.4h-10.2V710.3z"/>
		<path class="st3" d="M560.4,723h-6.1l-1.5,5h-2.8l5.9-17.7h3.2l5.9,17.7h-3L560.4,723z M559.7,720.8l-0.7-2.4
			c-0.6-1.9-1.1-3.9-1.7-5.9h-0.1c-0.5,2-1.1,4-1.6,5.9l-0.7,2.4H559.7z"/>
		<path class="st3" d="M567.2,710.3h2.9l5.9,10.4l1.8,3.7h0.1c-0.1-1.8-0.4-4-0.4-5.9v-8.2h2.6V728h-2.9l-5.9-10.4l-1.8-3.7h-0.1
			c0.1,1.8,0.4,3.9,0.4,5.8v8.3h-2.6V710.3z"/>
	</g>
</g>
</svg>
