<?xml version="1.0" encoding="utf-8"?>
<!-- Generator: Adobe Illustrator 24.0.0, SVG Export Plug-In . SVG Version: 6.00 Build 0)  -->
<svg version="1.1" id="图层_1" xmlns="http://www.w3.org/2000/svg" xmlns:xlink="http://www.w3.org/1999/xlink" x="0px" y="0px"
	 viewBox="0 0 292 76" style="enable-background:new 0 0 292 76;" xml:space="preserve">
<style type="text/css">
	.st0{fill:#396EFE;stroke:#000000;stroke-width:2;}
	.st1{fill:#FFFFFF;stroke:#000000;stroke-width:2;}
	.st2{enable-background:new    ;}
	.st3{fill:#396EFE;}
</style>
<g id="组_4518" transform="translate(-379 -681)">
	<g id="组_4481_1_">
		<path id="矩形_1012_1_" d="M382,745.2l9.2,9.2c0.4,0.4,0.4,1,0,1.4l0,0c-0.4,0.4-1,0.4-1.4,0l-9.2-9.2c-0.4-0.4-0.4-1,0-1.4l0,0
			C381,744.8,381.6,744.8,382,745.2z"/>
		<path id="矩形_1039_1_" d="M660.3,682.5l9.9,9.9c0.4,0.4,0.4,1,0,1.4l0,0c-0.4,0.4-1,0.4-1.4,0l-9.9-9.9c-0.4-0.4-0.4-1,0-1.4
			l0,0C659.3,682.1,659.9,682.1,660.3,682.5z"/>
		<path id="矩形_1008_1_" class="st0" d="M392,692.1h276c1.1,0,2,0.9,2,2v60c0,1.1-0.9,2-2,2H392c-1.1,0-2-0.9-2-2v-60
			C390,692.9,390.9,692.1,392,692.1z"/>
		<path id="矩形_497_1_" class="st1" d="M382,682.1h276c1.1,0,2,0.9,2,2v60c0,1.1-0.9,2-2,2H382c-1.1,0-2-0.9-2-2v-60
			C380,682.9,380.9,682.1,382,682.1z"/>
		<path id="矩形_1010_1_" d="M661,745.2l9.2,9.2c0.4,0.4,0.4,1,0,1.4l0,0c-0.4,0.4-1,0.4-1.4,0l-9.2-9.2c-0.4-0.4-0.4-1,0-1.4l0,0
			C660,744.8,660.6,744.8,661,745.2z"/>
	</g>
	<g class="st2">
		<path class="st3" d="M483.7,712.3c-0.1-0.2-0.2-0.3-0.3-0.5c0,0.2,0,0.4,0,0.6c-0.2,4.1-0.5,5.7-1,6.3c-0.4,0.4-0.8,0.6-1.5,0.7
			c-0.5,0-1.5,0-2.4,0c0-0.6-0.3-1.3-0.6-1.9c0.9,0.1,1.6,0.1,2,0.1c0.3,0,0.5,0,0.7-0.2c0.3-0.3,0.5-1.4,0.6-3.9h-4.6v8.1
			c0,0.9,0.2,1.1,1.4,1.1h3.8c1,0,1.2-0.5,1.3-3.2c0.5,0.4,1.3,0.7,1.9,0.8c-0.3,3.3-0.9,4.3-3.1,4.3h-4.2c-2.5,0-3.3-0.6-3.3-3V712
			c-0.4,0.3-0.7,0.6-1.2,0.9c-0.4-0.5-1.1-1.2-1.6-1.6c3-2.1,5.5-5.3,6.7-8.4l2,0.6c-0.1,0.4-0.3,0.7-0.5,1c1.9,2,4.2,4.6,5.4,6.2
			L483.7,712.3z M483.2,711.6c-1.1-1.5-2.7-3.5-4.2-5.2c-1.2,1.9-2.6,3.7-4.2,5.2H483.2z M488.3,719h-2.1v-13.3h2.1V719z
			 M492.9,703.3v18.8c0,1.4-0.3,2-1.2,2.3c-0.9,0.4-2.3,0.4-4.5,0.4c-0.1-0.6-0.5-1.6-0.8-2.2c1.6,0.1,3.1,0.1,3.6,0
			c0.5,0,0.6-0.2,0.6-0.6v-18.8H492.9z"/>
		<path class="st3" d="M503.2,711.3c-0.4,3.4-1,6.2-2,8.5c2.3,2.1,5.4,2.6,9.2,2.6c1.1,0,6.2,0,7.6,0c-0.3,0.5-0.7,1.4-0.8,2h-6.8
			c-4.2,0-7.6-0.6-10.1-2.8c-0.8,1.3-1.7,2.4-2.8,3.2c-0.3-0.4-1.1-1.2-1.6-1.5c1.2-0.8,2.2-1.9,3-3.4c-0.8-1.2-1.5-2.7-2.1-4.6
			l1.7-0.6c0.4,1.3,0.8,2.3,1.4,3.2c0.5-1.4,0.9-3.1,1.2-5h-3.8c1-1.8,2.3-4.3,3.3-6.7h-3.9v-1.9h7c-1,2.1-2.2,4.6-3.2,6.7h1.2
			l0.4-0.1L503.2,711.3z M508.8,706.6h-4.3v-1.8h4.3V703h2.1v1.9h5.2v3.2h1.5v1.8h-1.5v3.2h-5.2v1.5h5.6v1.7h-5.6v1.6h6.4v1.8h-6.4
			v2h-2.1v-2h-5.6v-1.8h5.6v-1.6h-4.7v-1.7h4.7V713h-4.5v-1.8h4.5v-1.5H503v-1.8h5.8V706.6z M510.9,706.6v1.4h3.2v-1.4H510.9z
			 M514.1,709.8h-3.2v1.5h3.2V709.8z"/>
	</g>
	<g class="st2">
		<path class="st3" d="M521.3,705.4h5.4c3.9,0,6.7,1.3,6.7,5.3c0,3.9-2.8,5.6-6.6,5.6h-2.7v6.7h-2.8V705.4z M526.5,714.1
			c2.8,0,4.2-1.1,4.2-3.4s-1.5-3.1-4.3-3.1h-2.3v6.5H526.5z"/>
		<path class="st3" d="M536.9,705.4h2.8v15.3h7.5v2.4h-10.2V705.4z"/>
		<path class="st3" d="M558.4,718h-6.1l-1.5,5h-2.8l5.9-17.7h3.2l5.9,17.7h-3L558.4,718z M557.7,715.8l-0.7-2.4
			c-0.6-1.9-1.1-3.9-1.7-5.9h-0.1c-0.5,2-1.1,4-1.6,5.9l-0.7,2.4H557.7z"/>
		<path class="st3" d="M565.2,705.4h2.9l5.9,10.4l1.8,3.7h0.1c-0.1-1.8-0.4-4-0.4-5.9v-8.2h2.6v17.7h-2.9l-5.9-10.4l-1.8-3.7h-0.1
			c0.1,1.8,0.4,3.9,0.4,5.8v8.3h-2.6V705.4z"/>
	</g>
</g>
</svg>
