<svg xmlns="http://www.w3.org/2000/svg" width="24" height="24" viewBox="0 0 24 24">
  <defs>
    <style>
      .cls-1 {
        fill: #fff;
      }

      .cls-2, .cls-3, .cls-4 {
        fill: none;
      }

      .cls-2 {
        stroke: #14af64;
        stroke-width: 2px;
      }

      .cls-3 {
        stroke: #45484c;
        stroke-linecap: round;
      }

      .cls-5, .cls-6 {
        stroke: none;
      }

      .cls-6 {
        fill: #45484c;
      }
    </style>
  </defs>
  <g id="组_3940" data-name="组 3940" transform="translate(-684 -18)">
    <rect id="矩形_1005" data-name="矩形 1005" class="cls-1" width="24" height="24" transform="translate(684 18)"/>
    <g id="组_3977" data-name="组 3977">
      <path id="路径_720" data-name="路径 720" class="cls-2" d="M-619.939-394.876v4.9" transform="translate(1314 421)"/>
      <path id="多边形_24" data-name="多边形 24" class="cls-3" d="M2.571.715a.5.5,0,0,1,.857,0L5.546,4.243A.5.5,0,0,1,5.117,5H.883a.5.5,0,0,1-.429-.757Z" transform="translate(698.5 25.5) rotate(90)"/>
      <g id="路径_719" data-name="路径 719" class="cls-4" transform="translate(685 22)">
        <path class="cls-5" d="M2,0H20a2,2,0,0,1,2,2V14a2,2,0,0,1-2,2H2a2,2,0,0,1-2-2V2A2,2,0,0,1,2,0Z"/>
        <path class="cls-6" d="M 2 1 C 1.448600769042969 1 1 1.448599815368652 1 2 L 1 14 C 1 14.55140018463135 1.448600769042969 15 2 15 L 20 15 C 20.55139923095703 15 21 14.55140018463135 21 14 L 21 2 C 21 1.448599815368652 20.55139923095703 1 20 1 L 2 1 M 2 0 L 20 0 C 21.10457038879395 0 22 0.8954296112060547 22 2 L 22 14 C 22 15.10457038879395 21.10457038879395 16 20 16 L 2 16 C 0.8954296112060547 16 0 15.10457038879395 0 14 L 0 2 C 0 0.8954296112060547 0.8954296112060547 0 2 0 Z"/>
      </g>
      <path id="路径_717" data-name="路径 717" class="cls-3" d="M-626.137-386.607H-610.5" transform="translate(1314 421)"/>
    </g>
  </g>
</svg>
