<?xml version="1.0" encoding="UTF-8"?>
<svg width="773px" height="594px" viewBox="0 0 773 594" version="1.1" xmlns="http://www.w3.org/2000/svg" xmlns:xlink="http://www.w3.org/1999/xlink">
    <title>编组 4</title>
    <defs>
        <polygon id="path-1" points="0 62 180.583 62 180.583 0.005 0 0.005"></polygon>
    </defs>
    <g id="页面-1" stroke="none" stroke-width="1" fill="none" fill-rule="evenodd">
        <g id="首页" transform="translate(-564.000000, -143.000000)">
            <g id="编组-4" transform="translate(564.000000, 143.000000)">
                <polygon id="Fill-3" fill="#F6F6F6" points="230.6442 590.442 383.4272 496.005 382.3192 211.829 230.6442 118.499"></polygon>
                <g id="编组" transform="translate(230.000000, 117.942000)" stroke-linejoin="round">
                    <polygon id="Stroke-4" stroke="#282828" stroke-width="5" points="0.6442 472.5 153.4272 378.063 152.3192 93.887 0.6442 0.557"></polygon>
                    <polyline id="Stroke-6" stroke="#000000" stroke-width="7" stroke-linecap="round" points="313.5681 472.5 313.5681 0.557 0.6441 0.557 0.6441 472.5"></polyline>
                </g>
                <g id="编组" transform="translate(599.000000, 117.000000)">
                    <polygon id="Fill-1" fill="#B0DACB" points="5.332 141.325 152.95 141.325 152.95 5.332 5.332 5.332"></polygon>
                    <polygon id="Stroke-2" stroke="#000000" stroke-width="3" stroke-linecap="round" stroke-linejoin="round" points="5.332 141.325 152.95 141.325 152.95 5.332 5.332 5.332"></polygon>
                    <polygon id="Fill-4" fill="#FFFFFF" points="0.5 136.493 148.118 136.493 148.118 0.5 0.5 0.5"></polygon>
                    <polygon id="Stroke-5" stroke="#000000" stroke-width="3" stroke-linecap="round" stroke-linejoin="round" points="0.5 136.493 148.118 136.493 148.118 0.5 0.5 0.5"></polygon>
                    <line x1="148.118" y1="0.4999" x2="152.95" y2="5.3319" id="Fill-7" fill="#B0DACB"></line>
                    <line x1="148.118" y1="0.4999" x2="152.95" y2="5.3319" id="Stroke-8" stroke="#000000" stroke-width="3" stroke-linecap="round"></line>
                    <line x1="148.118" y1="136.493" x2="152.95" y2="141.325" id="Fill-10" fill="#B0DACB"></line>
                    <line x1="148.118" y1="136.493" x2="152.95" y2="141.325" id="Stroke-11" stroke="#000000" stroke-width="3" stroke-linecap="round"></line>
                    <line x1="0.4998" y1="136.493" x2="5.3318" y2="141.325" id="Fill-13" fill="#B0DACB"></line>
                    <g transform="translate(0.000000, 6.825000)">
                        <line x1="0.4998" y1="129.668" x2="5.3318" y2="134.5" id="Stroke-14" stroke="#000000" stroke-width="3" stroke-linecap="round"></line>
                        <path d="M142.5686,2.4566 C142.5686,3.8116 141.4706,4.9096 140.1156,4.9096 C138.7616,4.9096 137.6636,3.8116 137.6636,2.4566 C137.6636,1.1016 138.7616,0.0036 140.1156,0.0036 C141.4706,0.0036 142.5686,1.1016 142.5686,2.4566" id="Fill-16" fill="#B0DACB"></path>
                        <path d="M142.5686,2.4566 C142.5686,3.8116 141.4706,4.9096 140.1156,4.9096 C138.7616,4.9096 137.6636,3.8116 137.6636,2.4566 C137.6636,1.1016 138.7616,0.0036 140.1156,0.0036 C141.4706,0.0036 142.5686,1.1016 142.5686,2.4566 Z" id="Stroke-18" stroke="#000000" stroke-width="3" stroke-linecap="round"></path>
                        <path d="M12.2767,2.4566 C12.2767,3.8116 11.1787,4.9096 9.8237,4.9096 C8.4697,4.9096 7.3717,3.8116 7.3717,2.4566 C7.3717,1.1016 8.4697,0.0036 9.8237,0.0036 C11.1787,0.0036 12.2767,1.1016 12.2767,2.4566" id="Fill-20" fill="#B0DACB"></path>
                        <path d="M12.2767,2.4566 C12.2767,3.8116 11.1787,4.9096 9.8237,4.9096 C8.4697,4.9096 7.3717,3.8116 7.3717,2.4566 C7.3717,1.1016 8.4697,0.0036 9.8237,0.0036 C11.1787,0.0036 12.2767,1.1016 12.2767,2.4566 Z" id="Stroke-22" stroke="#000000" stroke-width="3" stroke-linecap="round"></path>
                        <path d="M142.5686,122.0525 C142.5686,123.4075 141.4706,124.5055 140.1156,124.5055 C138.7616,124.5055 137.6636,123.4075 137.6636,122.0525 C137.6636,120.6975 138.7616,119.5995 140.1156,119.5995 C141.4706,119.5995 142.5686,120.6975 142.5686,122.0525" id="Fill-24" fill="#B0DACB"></path>
                        <path d="M142.5686,122.0525 C142.5686,123.4075 141.4706,124.5055 140.1156,124.5055 C138.7616,124.5055 137.6636,123.4075 137.6636,122.0525 C137.6636,120.6975 138.7616,119.5995 140.1156,119.5995 C141.4706,119.5995 142.5686,120.6975 142.5686,122.0525 Z" id="Stroke-26" stroke="#000000" stroke-width="3" stroke-linecap="round"></path>
                        <path d="M12.2767,122.0525 C12.2767,123.4075 11.1787,124.5055 9.8237,124.5055 C8.4697,124.5055 7.3717,123.4075 7.3717,122.0525 C7.3717,120.6975 8.4697,119.5995 9.8237,119.5995 C11.1787,119.5995 12.2767,120.6975 12.2767,122.0525" id="Fill-28" fill="#B0DACB"></path>
                        <path d="M12.2767,122.0525 C12.2767,123.4075 11.1787,124.5055 9.8237,124.5055 C8.4697,124.5055 7.3717,123.4075 7.3717,122.0525 C7.3717,120.6975 8.4697,119.5995 9.8237,119.5995 C11.1787,119.5995 12.2767,120.6975 12.2767,122.0525 Z" id="Stroke-30" stroke="#000000" stroke-width="3" stroke-linecap="round"></path>
                    </g>
                    <text id="二期班" font-family="NotoSansHans-Black, Noto Sans S Chinese" font-size="34.1959" font-weight="700" fill="#282828">
                        <tspan x="20" y="81">二期班</tspan>
                    </text>
                </g>
                <g id="编组" transform="translate(305.000000, 20.000000)">
                    <polygon id="Fill-1" fill="#159E56" points="11.259 57.6944 1 47.4354 169.324 47.4354 179.583 57.6944"></polygon>
                    <g transform="translate(0.000000, 0.994700)">
                        <polygon id="Stroke-2" stroke="#000000" stroke-width="2" stroke-linecap="round" stroke-linejoin="round" points="11.259 56.6997 1 46.4407 169.324 46.4407 179.583 56.6997"></polygon>
                        <polygon id="Fill-4" fill="#50D38E" points="1.002 46.441 169.323 46.441 169.323 1.007 1.002 1.007"></polygon>
                        <mask id="mask-2" fill="white">
                            <use xlink:href="#path-1"></use>
                        </mask>
                        <g id="Clip-7"></g>
                        <polygon id="Stroke-6" stroke="#000000" stroke-width="2" stroke-linecap="round" stroke-linejoin="round" mask="url(#mask-2)" points="1.002 46.441 169.323 46.441 169.323 1.007 1.002 1.007"></polygon>
                        <text id="户型大改造" mask="url(#mask-2)" font-family="NotoSansHans-Black, Noto Sans S Chinese" font-size="27.1986" font-weight="700" fill="#FFFFFF">
                            <tspan x="15.7827" y="34.3789449">户型大改造</tspan>
                        </text>
                    </g>
                    <polygon id="Fill-8" fill="#14AF64" points="169.3244 1.9999 179.5834 12.2589 179.5834 57.6939 169.3244 47.4359"></polygon>
                    <polygon id="Stroke-9" stroke="#000000" stroke-width="2" stroke-linecap="round" stroke-linejoin="round" points="169.3244 1.9999 179.5834 12.2589 179.5834 57.6939 169.3244 47.4359"></polygon>
                </g>
            </g>
        </g>
    </g>
</svg>