<svg xmlns="http://www.w3.org/2000/svg" width="24" height="24" viewBox="0 0 24 24">
  <defs>
    <style>
      .cls-1 {
        fill: #fff;
      }

      .cls-2 {
        fill: #999;
      }

      .cls-3, .cls-4 {
        fill: none;
        stroke: #999;
      }

      .cls-3 {
        stroke-linecap: round;
      }
    </style>
  </defs>
  <g id="组_4479" data-name="组 4479" transform="translate(-530 -18)">
    <rect id="矩形_883" data-name="矩形 883" class="cls-1" width="24" height="24" transform="translate(530 18)"/>
    <g id="组_3978" data-name="组 3978" transform="translate(-2008.487 164.482)">
      <path id="矩形_1077" data-name="矩形 1077" class="cls-2" d="M0,0H15a0,0,0,0,1,0,0V2a4,4,0,0,1-4,4H4A4,4,0,0,1,0,2V0A0,0,0,0,1,0,0Z" transform="translate(2540 -130)"/>
      <path id="路径_721" data-name="路径 721" class="cls-3" d="M2544.069-145.482s-1.347,1.083-.819,2.06,1.637.634,1.373,1.69a4.014,4.014,0,0,1-.924,1.716" transform="translate(0.373)"/>
      <path id="路径_722" data-name="路径 722" class="cls-3" d="M2544.069-145.482s-1.347,1.083-.819,2.06,1.637.634,1.373,1.69a4.014,4.014,0,0,1-.924,1.716" transform="translate(3.373)"/>
      <path id="路径_723" data-name="路径 723" class="cls-3" d="M2544.069-145.482s-1.347,1.083-.819,2.06,1.637.634,1.373,1.69a4.014,4.014,0,0,1-.924,1.716" transform="translate(7.373)"/>
      <path id="路径_724" data-name="路径 724" class="cls-4" d="M2540.826-138.5h13.525a1.091,1.091,0,0,1,1.064,1.2c-.025,1.186,0,6.346,0,8.273a4.634,4.634,0,0,1-4.909,4.6h-5.527c-3.344,0-5.492-1.681-5.492-4.6V-137.3A1.193,1.193,0,0,1,2540.826-138.5Z"/>
      <path id="路径_725" data-name="路径 725" class="cls-3" d="M2555.416-135.787s5.907-1.854,5.907,3.09-3.364,5.355-3.364,5.355"/>
    </g>
  </g>
</svg>
