<svg xmlns="http://www.w3.org/2000/svg" width="17.795" height="17.795" viewBox="0 0 17.795 17.795">
  <defs>
    <style>
      .cls-1 {
        fill: #fcd638;
      }
    </style>
  </defs>
  <path id="路径_616" data-name="路径 616" class="cls-1" d="M-1164.469,507.44c.057-.483.12-1.042.188-1.6.082-.668.17-1.336.248-2a.291.291,0,0,0-.065-.2c-.873-1.01-1.74-2.027-2.633-3.02a.725.725,0,0,1,.435-1.245c1.177-.23,2.357-.452,3.536-.675a.331.331,0,0,0,.258-.177q.727-1.337,1.465-2.669c.223-.4.458-.8.689-1.2a.519.519,0,0,1,.06-.085c.278-.312.508-.319.736.032.311.48.59.982.867,1.483.457.824.9,1.656,1.357,2.479a.327.327,0,0,0,.2.128q1.716.343,3.436.674a.9.9,0,0,1,.6.331.674.674,0,0,1-.027.846q-.821.973-1.654,1.936c-.329.382-.662.759-.994,1.138a.33.33,0,0,0-.086.284q.219,1.722.421,3.447a1.552,1.552,0,0,1-.021.47.6.6,0,0,1-.775.491,5.971,5.971,0,0,1-.9-.389c-.7-.345-1.389-.7-2.083-1.054-.192-.1-.39-.187-.573-.3a.259.259,0,0,0-.289.005q-1.392.7-2.786,1.391c-.184.091-.368.182-.557.261C-1164.017,508.475-1164.475,508.168-1164.469,507.44Z" transform="translate(-87.481 -1251.078) rotate(-71)"/>
</svg>
