<svg xmlns="http://www.w3.org/2000/svg" width="24" height="24" viewBox="0 0 24 24">
  <defs>
    <style>
      .cls-1 {
        fill: #fff;
      }

      .cls-2, .cls-3, .cls-4 {
        fill: none;
        stroke: #999;
      }

      .cls-2 {
        stroke-width: 2px;
      }

      .cls-3 {
        stroke-linecap: round;
      }
    </style>
  </defs>
  <g id="组_3884" data-name="组 3884" transform="translate(-720.331 -27.331)">
    <rect id="矩形_883" data-name="矩形 883" class="cls-1" width="24" height="24" transform="translate(720.331 27.331)"/>
    <g id="组_3976" data-name="组 3976" transform="translate(-155.949 8.835)">
      <path id="路径_718" data-name="路径 718" class="cls-2" d="M-419.346-398.056l2.677-2.592" transform="translate(1314 421.29)"/>
      <path id="路径_715" data-name="路径 715" class="cls-3" d="M-435.343-384.1h9.023" transform="translate(1314 421)"/>
      <path id="路径_712" data-name="路径 712" class="cls-3" d="M-423.487-401.03h-10.288s-1.945-.129-1.945,2.384v16.435s.189,1.888,2.7,1.756,13.048,0,13.048,0a2.5,2.5,0,0,0,1.694-2.446v-9.409" transform="translate(1314 421)"/>
      <path id="路径_713" data-name="路径 713" class="cls-4" d="M-427.5-392.248l8.594-8.782s.709-.832,1.3-.291,1.139,1.171,1.139,1.171a1.047,1.047,0,0,1-.329,1.34c-.747.681-8.9,8.632-8.9,8.632l-3.426,1.559Z" transform="translate(1314 421)"/>
      <path id="路径_714" data-name="路径 714" class="cls-4" d="M-420.291-399.316l1.889,1.911" transform="translate(1314 421)"/>
      <path id="路径_716" data-name="路径 716" class="cls-3" d="M-423.858-384.1h3.378" transform="translate(1314 421)"/>
    </g>
  </g>
</svg>
