<?xml version="1.0" encoding="UTF-8"?>
<svg width="34px" height="24px" viewBox="0 0 34 24" version="1.1" xmlns="http://www.w3.org/2000/svg" xmlns:xlink="http://www.w3.org/1999/xlink">
    <title>学社icon备份 2</title>
    <defs>
        <filter id="filter-1">
            <feColorMatrix in="SourceGraphic" type="matrix" values="0 0 0 0 1.000000 0 0 0 0 1.000000 0 0 0 0 1.000000 0 0 0 1.000000 0"></feColorMatrix>
        </filter>
    </defs>
    <g id="页面-1" stroke="none" stroke-width="1" fill="none" fill-rule="evenodd">
        <g id="登录小卡片" transform="translate(-331.000000, -634.000000)">
            <g id="编组-4备份-3" transform="translate(331.000000, 634.000000)" filter="url(#filter-1)">
                <g transform="translate(4.000000, 3.000000)" id="编组-3">
                    <polyline id="Stroke-1" stroke="#14AF64" stroke-width="2" points="26 4 26 3.37507799e-14 0 3.37507799e-14 0 19 10 19"></polyline>
                    <g id="编组-2" transform="translate(15.000000, 3.000000)">
                        <path d="M9,5.50048802 C9,3.01550808 6.98644399,1 4.50048802,1 C2.01550808,1 0,3.01550808 0,5.50048802 C0,7.98546795 2.01550808,10.000976 4.50048802,10.000976 C6.98644399,10.000976 9,7.98546795 9,5.50048802 Z" id="Stroke-3" stroke="#14AF64" stroke-width="2"></path>
                        <path d="M0,4.40463471 C0,4.74756766 0.0439262473,5.07903768 0.120065076,5.4 L3.00553145,5.4 L3.77570499,4.22313816 L3.89186551,5.4 L8.88091106,5.4 C8.95607375,5.07903768 9,4.74756766 9,4.40463471 C9,1.97162569 6.9862256,2.66453526e-15 4.5,2.66453526e-15 C2.01475054,2.66453526e-15 0,1.97162569 0,4.40463471 Z" id="Fill-5" fill="#14AF64"></path>
                    </g>
                    <path d="M26,20 C26,16.6870527 23.0915302,14 19.5007049,14 C15.9112894,14 13,16.6870527 13,20" id="Stroke-3备份" stroke="#14AF64" stroke-width="2"></path>
                    <line x1="3" y1="2.5" x2="14" y2="2.5" id="Fill-9" fill="#FFFFFF"></line>
                    <line x1="3" y1="3.5" x2="14" y2="3.5" id="Stroke-11" stroke="#14AF64" stroke-width="2"></line>
                    <line x1="7.67490166" y1="13.0643549" x2="16.3723502" y2="13.0622141" id="Stroke-11备份" stroke="#14AF64" stroke-width="2" transform="translate(12.023626, 13.063284) rotate(50.000000) translate(-12.023626, -13.063284) "></line>
                    <line x1="4" y1="5.5" x2="10" y2="5.5" id="Fill-12" fill="#FFFFFF"></line>
                    <line x1="3" y1="6.5" x2="10" y2="6.5" id="Stroke-14" stroke="#14AF64" stroke-width="2"></line>
                </g>
            </g>
        </g>
    </g>
</svg>