<?xml version="1.0" encoding="UTF-8"?>
<svg width="30px" height="24px" viewBox="0 0 30 24" version="1.1" xmlns="http://www.w3.org/2000/svg" xmlns:xlink="http://www.w3.org/1999/xlink">
    <title>笔记icon</title>
    <defs>
        <polygon id="path-1" points="0.0833636364 0.279675 14.9518182 0.279675 14.9518182 15.407425 0.0833636364 15.407425"></polygon>
    </defs>
    <g id="页面-1" stroke="none" stroke-width="1" fill="none" fill-rule="evenodd">
        <g id="登录小卡片" transform="translate(-506.000000, -20.000000)">
            <g id="编组-6" transform="translate(506.000000, 20.000000)">
                <g id="笔记icon" fill="#D8D8D8" opacity="0">
                    <rect id="矩形备份-8" x="0" y="0" width="30" height="24"></rect>
                </g>
                <g id="编组" transform="translate(7.000000, 0.000000)">
                    <line x1="1" y1="18.5" x2="7" y2="18.5" id="Stroke-1" stroke="#14AF64" stroke-width="2" stroke-linecap="square"></line>
                    <line x1="10" y1="18.5" x2="13" y2="18.5" id="Stroke-3" stroke="#14AF64" stroke-width="2"></line>
                    <g>
                        <polyline id="Stroke-4" stroke="#14AF64" stroke-width="2" points="16.0046481 11.770275 16.0046481 22.000275 3.83693507e-13 22.000275 3.83693077e-13 2.99771195 9.58545455 2.99771195"></polyline>
                        <g transform="translate(4.545455, 0.000000)">
                            <mask id="mask-2" fill="white">
                                <use xlink:href="#path-1"></use>
                            </mask>
                            <g id="Clip-7"></g>
                            <path d="M11.5897273,0.279675 L11.5897273,0.279675 C10.5215455,0.279675 9.76881818,0.979091667 9.48972727,1.28800833 L1.62790909,9.21534167 L1.23881818,9.60675833 L1.13063636,10.1503417 L0.627909091,12.668425 L0.0833636364,15.407425 L2.79245455,14.8225917 L5.26245455,14.2890917 L5.79154545,14.1745083 L6.17245455,13.7867583 C8.95427273,10.9597583 13.2097273,6.64684167 13.8997273,5.988675 C14.9324545,5.166425 15.2551818,3.69975833 14.6424545,2.509925 L14.5433636,2.31559167 L14.4015455,2.15150833 C14.3779091,2.12400833 13.8279091,1.48784167 13.2206364,0.928675 C12.7679091,0.509758333 12.1888182,0.279675 11.5897273,0.279675 M11.5897273,2.11300833 C11.7233636,2.11300833 11.8615455,2.15884167 11.9933636,2.28075833 C12.5306364,2.776675 13.0288182,3.354175 13.0288182,3.354175 C13.2488182,3.78134167 13.1215455,4.30659167 12.7297273,4.58250833 C12.0506364,5.20675833 4.88154545,12.4960917 4.88154545,12.4960917 L2.41063636,13.0295917 L2.91336364,10.5115083 L10.8115455,2.54750833 C10.8115455,2.54750833 11.1788182,2.11300833 11.5897273,2.11300833" id="Fill-6" fill="#14AF64" mask="url(#mask-2)"></path>
                        </g>
                        <line x1="13.6510909" y1="3.55336667" x2="16.262" y2="6.43536667" id="Stroke-8" stroke="#14AF64" stroke-width="2"></line>
                    </g>
                    <polygon id="路径-3" fill="#14AF64" points="13.6510909 4 14.5654069 1.5 16.262 1.22297001 18.2907869 2.611485 18.2907869 4.64874395 17.0428848 6.43536667"></polygon>
                </g>
            </g>
        </g>
    </g>
</svg>