<svg width="142" height="34" viewBox="0 0 142 34" fill="none" xmlns="http://www.w3.org/2000/svg">
<rect x="3" width="137" height="29" fill="#14AF64"/>
<path d="M119.782 11.7363H119.282V12.2363V14.4456H114.363H113.863V14.9456V16.7518V17.2518H114.363H119.282V19.4611V19.9611H119.782H121.588H122.088V19.4611V19.058H123.394H123.894V18.558V18.1549H125.2H125.7V17.6549V17.2518H127.006H127.506V16.7518V14.9456V14.4456H127.006H125.7V14.0425V13.5425H125.2H123.894V13.1394V12.6394H123.394H122.088V12.2363V11.7363H121.588H119.782Z" fill="white" stroke="black"/>
<path d="M118.879 10.8333H118.379V11.3333V13.5426H114.363H113.863V14.0426V15.8488V16.3488H114.363H118.379V18.558V19.058H118.879H120.685H121.185V18.558V18.1549H122.491H122.991V17.6549V17.2518H124.297H124.797V16.7518V16.3488H126.103H126.603V15.8488V14.0426V13.5426H126.103H124.797V13.1395V12.6395H124.297H122.991V12.2364V11.7364H122.491H121.185V11.3333V10.8333H120.685H118.879Z" fill="white" stroke="black"/>
<rect x="2.51862" y="25.1851" width="137.259" height="6.29627" fill="#0C7442"/>
<rect x="139" y="4" width="3" height="30" fill="#131313"/>
<rect y="4" width="3" height="30" fill="#131313"/>
<rect x="140" width="3.00001" height="135" transform="rotate(90 140 0)" fill="#131313"/>
<rect x="140" y="31" width="3.00001" height="137" transform="rotate(90 140 31)" fill="#131313"/>
<rect x="137" width="3" height="28" fill="#131313"/>
<rect x="3" width="3" height="28" fill="#131313"/>
<path d="M108.168 9.9606L106.967 8.77448H106.38V8.02327V7.27206L105.579 6.48131L105.179 6.08594H104.418H95.5716H94.811V6.83715V8.78766H93.7836H93.0363V9.53887V18.3952V19.1465L93.4366 19.5418L93.8369 19.9372L94.2372 20.3326H94.8244V21.0838V21.835L95.625 22.6257L96.0253 23.0211H96.7859H105.633H106.393V22.2699V20.3458H107.421H108.181V19.5946V10.7118L108.168 9.9606ZM101.71 17.644H99.4946V11.463H101.71V17.644Z" fill="#131313"/>
<path d="M25.6644 7.83852L25.2641 7.44315H24.5836V7.285L23.3826 6.09888H22.622H11.3333V21.7952L12.5342 22.9813H18.312V18.4741H24.5836V17.143H26.465V9.3673V8.61609L25.6644 7.83852ZM20.0067 13.1234H18.312V11.4628H20.0067V13.1234Z" fill="#131313"/>
<path d="M40.3956 17.6443H39.6484H33.4436V7.28549L32.6429 6.50792L32.2426 6.11255H26.4648V21.8089L27.6524 22.995H28.413H40.8359H41.5965V22.2438V19.5684V18.8172L40.3956 17.6443Z" fill="#131313"/>
<path d="M55.8473 12.4912H55.4737V12.1354V11.3842L54.6731 10.5934L54.2728 10.1981H54.1127V9.97403V9.22282L52.9117 8.0367H52.1512H52.0044V7.28549L51.2038 6.49474L50.8034 6.09937H50.0695H47.3608H46.6002V6.85058V8.0367H45.2658H44.5052V8.78791V10.2113H43.9048H43.1442V10.9625V12.5044H42.3302H41.5696V13.2556V21.0709V21.8221L42.7706 23.0082H48.5617V21.1104H50.0429V21.8352L51.2438 23.0214H57.0349V14.4549V13.7037L55.8473 12.4912ZM50.0562 15.7465H48.5751V15.3511H49.1755H49.9361H50.0562V15.7465Z" fill="#131313"/>
<path d="M71.6866 6.50767L71.2863 6.1123H70.5257H66.2557H65.4951V6.86351V11.3312H65.3083V10.9359L64.908 10.5405H64.1474H64.0007V9.9606L62.7997 8.77448H62.4261V8.02327V7.27206L61.6255 6.48131L61.2252 6.08594H60.4646H57.7558H56.9952V6.83715V9.51251V11.2653V21.7955L58.1962 22.9816H63.9873V17.7758H64.1741V18.1712L64.5744 18.5666H65.4685V19.1465L66.6694 20.3326H67.043V21.8218L68.2439 23.0079H69.0045H71.7133H72.4739V22.2567V19.5814V12.3724V8.03645V7.28524L71.6866 6.50767Z" fill="#131313"/>
<path d="M91.8358 13.2161H91.2487V13.0579L90.0478 11.8718H89.2872H84.8571H84.3634V11.4501H90.4881H91.2487V10.6989V8.0367V7.28549L90.4481 6.49474L90.0478 6.09937H89.2872H80.4404H79.6798V6.85058V8.78791H78.6523H77.8917V9.53912V18.3955V19.1467L78.6923 19.9375L79.0927 20.3328H79.6798V21.084V21.8352L80.4804 22.626L80.8807 23.0214H81.6413H90.4881H91.2487V22.2702V20.346H92.2762H93.0368V19.5948V15.1402V14.389L91.8358 13.2161ZM86.5784 17.6443H84.3634V16.0496H84.5102V16.445L84.9105 16.8404L85.3108 17.2357H86.0714H86.5784V17.6443Z" fill="#131313"/>
<path d="M31.4953 6.84961H27.212V18.3945V20.9776V21.0567H39.6483V18.3945H31.4953V6.84961Z" fill="white"/>
<path d="M22.6354 6.85034H16.3639H12.0939V9.52571V13.8748V16.5502V21.0706H16.3639V16.5502H22.6354V15.2059H24.5169V8.19461H22.6354V6.85034ZM16.3639 9.52571H20.7673V13.8748H16.3639V9.52571Z" fill="white"/>
<path d="M53.5257 10.9615H52.178V8.78694H50.0697V6.84961H47.361V8.78694H45.266V10.9615H43.9183V13.2415H42.3571V21.0567H46.6271V19.1589H50.817V21.0567H55.0869V13.2415H53.5257V10.9615ZM46.6271 13.426H47.9748V10.9615H49.4559V13.426H50.8036V16.4967H46.6137V13.426H46.6271Z" fill="white"/>
<path d="M104.419 9.52497V6.84961H95.5719V9.52497H93.7838V18.3814H95.5719V21.0567H104.419V18.3945H106.207V9.52497H104.419ZM97.5334 18.3945V9.52497H102.457V18.3814H97.5334V18.3945Z" fill="white"/>
<path d="M89.2872 13.9532V12.6221H84.8704V15.2974H87.3257V18.3945H82.4018V9.52497H89.2872V6.84961H80.4403V9.52497H78.6523V18.3945H80.4403V21.0567H89.2872V18.3945H91.0752V13.9532H89.2872Z" fill="white"/>
<path d="M62.0657 11.2778V9.52497H60.5045V6.84961H57.7958V9.52497V11.2778V13.9532V21.0567H62.0657V13.9532H64.1607V11.2778H62.0657Z" fill="white"/>
<path d="M66.2556 13.9532H64.1606V16.6285H66.2556V18.3945H67.8168V21.0567H70.5256V18.3945V11.1987V6.84961H66.2556V13.9532Z" fill="white"/>
</svg>
