<?xml version="1.0" encoding="UTF-8"?>
<svg width="194px" height="278px" viewBox="0 0 194 278" version="1.1" xmlns="http://www.w3.org/2000/svg" xmlns:xlink="http://www.w3.org/1999/xlink">
    <title>编组 9</title>
    <g id="页面-1" stroke="none" stroke-width="1" fill="none" fill-rule="evenodd">
        <g id="首页" transform="translate(-1291.000000, -1224.000000)">
            <g id="编组-9备份-2" transform="translate(1291.000000, 1224.000000)">
                <g id="编组-9" stroke="#333333" stroke-width="2">
                    <rect id="矩形" fill="#D8EFE4" x="1" y="1" width="192" height="276"></rect>
                    <path d="M183,17.1066667 L183,252.065786 L168.065786,267 L11,267 L11,17.1066667 L183,17.1066667 Z" id="矩形" fill="#FFFFFF"></path>
                    <path d="M182.52,254.414214 L182.52,266.52 L170.414214,266.52 L182.52,254.414214 Z" id="矩形" fill="#14AF64" transform="translate(175.760000, 259.760000) scale(-1, -1) translate(-175.760000, -259.760000) "></path>
                </g>
                <g id="编组" transform="translate(20.000000, 5.000000)">
                    <path d="M1.30011833,7.11333333 C0.58212798,7.11333333 0,7.7126268 0,8.44731991 L0,18.7126801 C0,19.4527091 0.58212798,20.0466667 1.30011833,20.0466667 L19.393215,20.0466667 C20.1112054,20.0466667 20.6933333,19.4527091 20.6933333,18.7126801 L20.6933333,8.44731991 C20.6933333,7.7126268 20.1112054,7.11333333 19.393215,7.11333333 L1.30011833,7.11333333 Z" id="Fill-1" fill="#FADFCA"></path>
                    <path d="M19.393215,8.11333333 C19.4731053,8.11333333 19.5440084,8.14903663 19.5959012,8.20228127 C19.6571125,8.26508713 19.6933333,8.35224849 19.6933333,8.44731991 L19.6933333,8.44731991 L19.6933333,18.7126801 C19.6933333,18.8081536 19.6583216,18.8956737 19.5971779,18.9584102 C19.5450084,19.0119388 19.47337,19.0466667 19.393215,19.0466667 L19.393215,19.0466667 L1.30011833,19.0466667 C1.21996337,19.0466667 1.14832497,19.0119388 1.09615539,18.9584102 C1.03501172,18.8956737 1,18.8081536 1,18.7126801 L1,18.7126801 L1,8.44731991 C1,8.35224849 1.03622084,8.26508713 1.09743213,8.20228127 L1.09743213,8.20228127 Z" id="Stroke-3" stroke="#333333" stroke-width="2"></path>
                    <line x1="0.792688172" y1="14.8733333" x2="20.0466667" y2="14.8733333" id="Stroke-5" stroke="#333333" stroke-width="2"></line>
                    <path d="M10.3466667,1 C11.3234041,1 12.2088031,1.384249 12.8493227,2.00874688 C13.4805661,2.62420056 13.8733333,3.47376872 13.8733333,4.41343821 L13.8733333,4.41343821 L13.8733333,14.52 L6.82,14.52 L6.82,4.41343821 C6.82,3.47376872 7.21276722,2.62420056 7.84401061,2.00874688 C8.48453021,1.384249 9.36992925,1 10.3466667,1 Z" id="Stroke-7" stroke="#333333" stroke-width="2"></path>
                </g>
            </g>
        </g>
    </g>
</svg>