<svg xmlns="http://www.w3.org/2000/svg" width="238" height="238" viewBox="0 0 238 238">
  <g id="组_4542" data-name="组 4542" transform="translate(-738.137 -276.822)">
    <g id="组_4536" data-name="组 4536" transform="translate(693.923 270.872)">
      <rect id="矩形_1192" data-name="矩形 1192" width="210.612" height="210.612" transform="translate(61.986 25.723)" fill="#14ab64" stroke="#282828" stroke-linecap="round" stroke-linejoin="round" stroke-width="4"/>
      <rect id="矩形_1193" data-name="矩形 1193" width="210.612" height="210.612" transform="translate(52.214 15.951)" fill="#f7f7f7" stroke="#282828" stroke-linecap="round" stroke-linejoin="round" stroke-width="4"/>
      <line id="直线_90" data-name="直线 90" x2="9.772" y2="9.772" transform="translate(262.826 15.951)" fill="#b3ddce" stroke="#282828" stroke-linecap="round" stroke-linejoin="round" stroke-width="4"/>
      <line id="直线_91" data-name="直线 91" x2="9.772" y2="8.73" transform="translate(262.826 226.563)" fill="#b3ddce" stroke="#282828" stroke-linecap="round" stroke-linejoin="round" stroke-width="4"/>
      <line id="直线_92" data-name="直线 92" x2="9.772" y2="9.772" transform="translate(52.214 226.563)" fill="#b3ddce" stroke="#282828" stroke-linecap="round" stroke-linejoin="round" stroke-width="4"/>
      <g id="组_4536-2" data-name="组 4536" transform="translate(59.251 22.78)">
        <path id="路径_1275" data-name="路径 1275" d="M103.977,67.864H62.712V26.19h41.265ZM97.817,61.3V31.744H68.293V61.3Z" transform="translate(-62.712 -26.155)"/>
        <path id="路径_1276" data-name="路径 1276" d="M294.353,26.138h41.263V67.812H294.353Zm5.521,35.12h29.572V31.719H299.874Z" transform="translate(-139.07 -26.138)"/>
        <path id="路径_1277" data-name="路径 1277" d="M104.019,257.792v41.672H62.756V257.792Zm-6.185,35.125V263.349H68.3v29.568Z" transform="translate(-62.727 -102.5)"/>
        <path id="路径_1278" data-name="路径 1278" d="M273,29.578a2.02,2.02,0,1,1-1.949-2.061A1.966,1.966,0,0,1,273,29.578Z" transform="translate(-130.7 -26.592)"/>
        <path id="路径_1279" data-name="路径 1279" d="M262.027,27.516a2.019,2.019,0,1,1-1.972,2.037A1.958,1.958,0,0,1,262.027,27.516Z" transform="translate(-127.764 -26.592)"/>
        <path id="路径_1280" data-name="路径 1280" d="M253.157,31.552a2.018,2.018,0,1,1,2.028-1.986A1.966,1.966,0,0,1,253.157,31.552Z" transform="translate(-124.827 -26.592)"/>
        <path id="路径_1281" data-name="路径 1281" d="M137.379,40.459a2.018,2.018,0,1,1,2-2.014A1.96,1.96,0,0,1,137.379,40.459Z" transform="translate(-86.653 -29.528)"/>
        <path id="路径_1282" data-name="路径 1282" d="M155.175,40.459a2.018,2.018,0,1,1,2.021-1.993A1.964,1.964,0,0,1,155.175,40.459Z" transform="translate(-92.526 -29.528)"/>
        <path id="路径_1283" data-name="路径 1283" d="M166.105,38.421a2.019,2.019,0,1,1-2.016-2A1.965,1.965,0,0,1,166.105,38.421Z" transform="translate(-95.464 -29.528)"/>
        <path id="路径_1284" data-name="路径 1284" d="M175.013,38.41a2.019,2.019,0,1,1-2.026-1.987A1.963,1.963,0,0,1,175.013,38.41Z" transform="translate(-98.4 -29.528)"/>
        <path id="路径_1285" data-name="路径 1285" d="M183.921,38.41a2.018,2.018,0,1,1-2.026-1.987A1.963,1.963,0,0,1,183.921,38.41Z" transform="translate(-101.337 -29.528)"/>
        <path id="路径_1286" data-name="路径 1286" d="M190.8,40.459a2.018,2.018,0,1,1,2.028-1.986A1.965,1.965,0,0,1,190.8,40.459Z" transform="translate(-104.272 -29.528)"/>
        <path id="路径_1287" data-name="路径 1287" d="M201.739,38.435a2.02,2.02,0,1,1-2-2.012A1.97,1.97,0,0,1,201.739,38.435Z" transform="translate(-107.209 -29.528)"/>
        <path id="路径_1288" data-name="路径 1288" d="M210.646,38.451a2.02,2.02,0,1,1-1.984-2.029A1.971,1.971,0,0,1,210.646,38.451Z" transform="translate(-110.145 -29.528)"/>
        <path id="路径_1289" data-name="路径 1289" d="M228.463,38.448a2.02,2.02,0,1,1-1.988-2.025A1.97,1.97,0,0,1,228.463,38.448Z" transform="translate(-116.019 -29.528)"/>
        <path id="路径_1290" data-name="路径 1290" d="M237.37,38.459a2.02,2.02,0,1,1-1.976-2.036A1.97,1.97,0,0,1,237.37,38.459Z" transform="translate(-118.955 -29.528)"/>
        <path id="路径_1291" data-name="路径 1291" d="M244.289,40.459a2.018,2.018,0,1,1,1.991-2.024A1.958,1.958,0,0,1,244.289,40.459Z" transform="translate(-121.892 -29.528)"/>
        <path id="路径_1292" data-name="路径 1292" d="M253.128,40.458a2.017,2.017,0,1,1,2.056-1.955A1.963,1.963,0,0,1,253.128,40.458Z" transform="translate(-124.827 -29.529)"/>
        <path id="路径_1293" data-name="路径 1293" d="M270.914,40.457A2.016,2.016,0,1,1,273,38.535,1.956,1.956,0,0,1,270.914,40.457Z" transform="translate(-130.701 -29.529)"/>
        <path id="路径_1294" data-name="路径 1294" d="M279.884,40.459a2.018,2.018,0,1,1,2.026-1.989A1.965,1.965,0,0,1,279.884,40.459Z" transform="translate(-133.637 -29.528)"/>
        <path id="路径_1295" data-name="路径 1295" d="M228.462,29.5a2.019,2.019,0,1,1-2.021-1.992A1.963,1.963,0,0,1,228.462,29.5Z" transform="translate(-116.019 -26.591)"/>
        <path id="路径_1296" data-name="路径 1296" d="M219.553,29.57a2.02,2.02,0,1,1-1.957-2.052A1.968,1.968,0,0,1,219.553,29.57Z" transform="translate(-113.081 -26.593)"/>
        <path id="路径_1297" data-name="路径 1297" d="M137.389,49.366a2.018,2.018,0,1,1,1.991-2.024A1.957,1.957,0,0,1,137.389,49.366Z" transform="translate(-86.653 -32.464)"/>
        <path id="路径_1298" data-name="路径 1298" d="M157.2,47.364a2.02,2.02,0,1,1-1.98-2.032A1.97,1.97,0,0,1,157.2,47.364Z" transform="translate(-92.526 -32.465)"/>
        <path id="路径_1299" data-name="路径 1299" d="M173.007,45.33a2.018,2.018,0,1,1-2.033,1.978A1.965,1.965,0,0,1,173.007,45.33Z" transform="translate(-98.4 -32.464)"/>
        <path id="路径_1300" data-name="路径 1300" d="M181.892,49.369a2.018,2.018,0,1,1,2.028-1.986A1.966,1.966,0,0,1,181.892,49.369Z" transform="translate(-101.336 -32.465)"/>
        <path id="路径_1301" data-name="路径 1301" d="M201.737,47.383a2.02,2.02,0,1,1-1.961-2.049A1.969,1.969,0,0,1,201.737,47.383Z" transform="translate(-107.208 -32.465)"/>
        <path id="路径_1302" data-name="路径 1302" d="M210.642,47.452a2.018,2.018,0,1,1-1.888-2.114A1.962,1.962,0,0,1,210.642,47.452Z" transform="translate(-110.147 -32.466)"/>
        <path id="路径_1303" data-name="路径 1303" d="M217.541,45.329a2.019,2.019,0,1,1-2.026,1.985A1.966,1.966,0,0,1,217.541,45.329Z" transform="translate(-113.082 -32.464)"/>
        <path id="路径_1304" data-name="路径 1304" d="M228.46,47.395a2.02,2.02,0,1,1-1.948-2.06A1.965,1.965,0,0,1,228.46,47.395Z" transform="translate(-116.018 -32.466)"/>
        <path id="路径_1305" data-name="路径 1305" d="M237.37,47.318a2.018,2.018,0,1,1-2.024-1.989A1.963,1.963,0,0,1,237.37,47.318Z" transform="translate(-118.956 -32.464)"/>
        <path id="路径_1306" data-name="路径 1306" d="M262.073,49.369a2.018,2.018,0,1,1,2.021-1.994A1.965,1.965,0,0,1,262.073,49.369Z" transform="translate(-127.764 -32.465)"/>
        <path id="路径_1307" data-name="路径 1307" d="M273,47.357a2.02,2.02,0,1,1-1.988-2.025A1.971,1.971,0,0,1,273,47.357Z" transform="translate(-130.701 -32.465)"/>
        <path id="路径_1308" data-name="路径 1308" d="M279.9,45.329a2.019,2.019,0,1,1-2.026,1.985A1.966,1.966,0,0,1,279.9,45.329Z" transform="translate(-133.637 -32.464)"/>
        <path id="路径_1309" data-name="路径 1309" d="M137.352,58.277a2.018,2.018,0,1,1,2.028-1.986A1.965,1.965,0,0,1,137.352,58.277Z" transform="translate(-86.653 -35.402)"/>
        <path id="路径_1310" data-name="路径 1310" d="M166.1,56.3a2.02,2.02,0,1,1-1.951-2.058A1.967,1.967,0,0,1,166.1,56.3Z" transform="translate(-95.462 -35.402)"/>
        <path id="路径_1311" data-name="路径 1311" d="M183.921,56.276a2.02,2.02,0,1,1-1.976-2.035A1.97,1.97,0,0,1,183.921,56.276Z" transform="translate(-101.336 -35.402)"/>
        <path id="路径_1312" data-name="路径 1312" d="M206.61,56.188a2.018,2.018,0,1,1,1.922,2.083A1.953,1.953,0,0,1,206.61,56.188Z" transform="translate(-110.146 -35.402)"/>
        <path id="路径_1313" data-name="路径 1313" d="M217.567,58.274a2.018,2.018,0,1,1,1.988-2.026A1.958,1.958,0,0,1,217.567,58.274Z" transform="translate(-113.082 -35.401)"/>
        <path id="路径_1314" data-name="路径 1314" d="M226.473,58.275a2.018,2.018,0,1,1,1.991-2.024A1.959,1.959,0,0,1,226.473,58.275Z" transform="translate(-116.019 -35.401)"/>
        <path id="路径_1315" data-name="路径 1315" d="M255.187,56.272a2.02,2.02,0,1,1-1.98-2.032A1.971,1.971,0,0,1,255.187,56.272Z" transform="translate(-124.828 -35.401)"/>
        <path id="路径_1316" data-name="路径 1316" d="M262.068,58.277a2.018,2.018,0,1,1,2.026-1.989A1.965,1.965,0,0,1,262.068,58.277Z" transform="translate(-127.764 -35.402)"/>
        <path id="路径_1317" data-name="路径 1317" d="M270.994,54.238a2.018,2.018,0,1,1-2.03,1.981A1.965,1.965,0,0,1,270.994,54.238Z" transform="translate(-130.701 -35.401)"/>
        <path id="路径_1318" data-name="路径 1318" d="M139.38,65.211a2.02,2.02,0,1,1-1.949-2.061A1.966,1.966,0,0,1,139.38,65.211Z" transform="translate(-86.653 -38.338)"/>
        <path id="路径_1319" data-name="路径 1319" d="M146.226,67.184a2.017,2.017,0,1,1,2.061-1.949A1.963,1.963,0,0,1,146.226,67.184Z" transform="translate(-89.59 -38.339)"/>
        <path id="路径_1320" data-name="路径 1320" d="M155.155,63.147a2.017,2.017,0,1,1-2,2.012A1.961,1.961,0,0,1,155.155,63.147Z" transform="translate(-92.526 -38.338)"/>
        <path id="路径_1321" data-name="路径 1321" d="M183.92,65.205a2.02,2.02,0,1,1-1.954-2.055A1.967,1.967,0,0,1,183.92,65.205Z" transform="translate(-101.335 -38.339)"/>
        <path id="路径_1322" data-name="路径 1322" d="M201.734,65.268a2.018,2.018,0,1,1-1.889-2.114A1.963,1.963,0,0,1,201.734,65.268Z" transform="translate(-107.21 -38.339)"/>
        <path id="路径_1323" data-name="路径 1323" d="M215.512,65.165a2.02,2.02,0,1,1,1.994,2.018A1.962,1.962,0,0,1,215.512,65.165Z" transform="translate(-113.081 -38.338)"/>
        <path id="路径_1324" data-name="路径 1324" d="M228.462,65.13a2.018,2.018,0,1,1-2.028-1.984A1.962,1.962,0,0,1,228.462,65.13Z" transform="translate(-116.019 -38.337)"/>
        <path id="路径_1325" data-name="路径 1325" d="M246.28,65.159a2.02,2.02,0,1,1-2-2.012A1.97,1.97,0,0,1,246.28,65.159Z" transform="translate(-121.892 -38.338)"/>
        <path id="路径_1326" data-name="路径 1326" d="M255.186,65.2a2.02,2.02,0,1,1-1.961-2.049A1.969,1.969,0,0,1,255.186,65.2Z" transform="translate(-124.827 -38.338)"/>
        <path id="路径_1327" data-name="路径 1327" d="M273,65.2a2.02,2.02,0,1,1-1.957-2.053A1.968,1.968,0,0,1,273,65.2Z" transform="translate(-130.7 -38.338)"/>
        <path id="路径_1328" data-name="路径 1328" d="M183.918,74.176a2.018,2.018,0,1,1-1.888-2.114A1.962,1.962,0,0,1,183.918,74.176Z" transform="translate(-101.337 -41.275)"/>
        <path id="路径_1329" data-name="路径 1329" d="M199.748,76.091a2.018,2.018,0,1,1,1.991-2.024A1.958,1.958,0,0,1,199.748,76.091Z" transform="translate(-107.209 -41.274)"/>
        <path id="路径_1330" data-name="路径 1330" d="M217.576,72.057A2.018,2.018,0,1,1,215.518,74,1.961,1.961,0,0,1,217.576,72.057Z" transform="translate(-113.082 -41.275)"/>
        <path id="路径_1331" data-name="路径 1331" d="M228.459,74.142a2.019,2.019,0,1,1-1.925-2.082A1.964,1.964,0,0,1,228.459,74.142Z" transform="translate(-116.018 -41.275)"/>
        <path id="路径_1332" data-name="路径 1332" d="M235.329,72.055a2.018,2.018,0,1,1-2,2.012A1.962,1.962,0,0,1,235.329,72.055Z" transform="translate(-118.954 -41.274)"/>
        <path id="路径_1333" data-name="路径 1333" d="M246.276,74.119a2.02,2.02,0,1,1-1.948-2.061A1.966,1.966,0,0,1,246.276,74.119Z" transform="translate(-121.891 -41.275)"/>
        <path id="路径_1334" data-name="路径 1334" d="M253.145,72.055a2.018,2.018,0,1,1-2,2.012A1.961,1.961,0,0,1,253.145,72.055Z" transform="translate(-124.827 -41.274)"/>
        <path id="路径_1335" data-name="路径 1335" d="M271.014,76.091A2.018,2.018,0,1,1,273,74.067,1.959,1.959,0,0,1,271.014,76.091Z" transform="translate(-130.701 -41.274)"/>
        <path id="路径_1336" data-name="路径 1336" d="M139.377,83.084a2.018,2.018,0,1,1-1.888-2.114A1.962,1.962,0,0,1,139.377,83.084Z" transform="translate(-86.655 -44.212)"/>
        <path id="路径_1337" data-name="路径 1337" d="M155.184,80.962a2.018,2.018,0,1,1-2.026,1.985A1.966,1.966,0,0,1,155.184,80.962Z" transform="translate(-92.526 -44.21)"/>
        <path id="路径_1338" data-name="路径 1338" d="M172.991,80.961a2.018,2.018,0,1,1-2.018,1.994A1.967,1.967,0,0,1,172.991,80.961Z" transform="translate(-98.399 -44.21)"/>
        <path id="路径_1339" data-name="路径 1339" d="M190.855,80.965a2.018,2.018,0,1,1-2.061,1.945A1.961,1.961,0,0,1,190.855,80.965Z" transform="translate(-104.273 -44.211)"/>
        <path id="路径_1340" data-name="路径 1340" d="M208.6,85a2.018,2.018,0,1,1,2.039-1.974A1.966,1.966,0,0,1,208.6,85Z" transform="translate(-110.145 -44.211)"/>
        <path id="路径_1341" data-name="路径 1341" d="M226.407,85a2.017,2.017,0,1,1,2.053-1.959A1.964,1.964,0,0,1,226.407,85Z" transform="translate(-116.018 -44.212)"/>
        <path id="路径_1342" data-name="路径 1342" d="M246.28,82.986a2.02,2.02,0,1,1-1.991-2.022A1.971,1.971,0,0,1,246.28,82.986Z" transform="translate(-121.892 -44.211)"/>
        <path id="路径_1343" data-name="路径 1343" d="M260.053,82.981A2.02,2.02,0,1,1,262.047,85,1.962,1.962,0,0,1,260.053,82.981Z" transform="translate(-127.763 -44.21)"/>
        <path id="路径_1344" data-name="路径 1344" d="M279.917,85a2.019,2.019,0,1,1,2-2.02A1.959,1.959,0,0,1,279.917,85Z" transform="translate(-133.638 -44.21)"/>
        <path id="路径_1345" data-name="路径 1345" d="M137.341,89.871a2.018,2.018,0,1,1-2,2.012A1.962,1.962,0,0,1,137.341,89.871Z" transform="translate(-86.653 -47.147)"/>
        <path id="路径_1346" data-name="路径 1346" d="M148.288,91.933a2.02,2.02,0,1,1-1.951-2.058A1.967,1.967,0,0,1,148.288,91.933Z" transform="translate(-89.59 -47.148)"/>
        <path id="路径_1347" data-name="路径 1347" d="M175.012,91.843a2.018,2.018,0,1,1-2.039-1.972A1.961,1.961,0,0,1,175.012,91.843Z" transform="translate(-98.401 -47.147)"/>
        <path id="路径_1348" data-name="路径 1348" d="M181.859,93.908a2.017,2.017,0,1,1,2.059-1.951A1.962,1.962,0,0,1,181.859,93.908Z" transform="translate(-101.336 -47.148)"/>
        <path id="路径_1349" data-name="路径 1349" d="M192.83,91.864a2.019,2.019,0,1,1-2.02-1.994A1.965,1.965,0,0,1,192.83,91.864Z" transform="translate(-104.273 -47.147)"/>
        <path id="路径_1350" data-name="路径 1350" d="M208.629,93.91a2.018,2.018,0,1,1,2.016-2A1.964,1.964,0,0,1,208.629,93.91Z" transform="translate(-110.145 -47.148)"/>
        <path id="路径_1351" data-name="路径 1351" d="M219.555,91.894a2.02,2.02,0,1,1-1.991-2.022A1.97,1.97,0,0,1,219.555,91.894Z" transform="translate(-113.082 -47.147)"/>
        <path id="路径_1352" data-name="路径 1352" d="M228.461,91.923a2.02,2.02,0,1,1-1.962-2.048A1.965,1.965,0,0,1,228.461,91.923Z" transform="translate(-116.018 -47.148)"/>
        <path id="路径_1353" data-name="路径 1353" d="M237.371,91.9a2.02,2.02,0,1,1-1.984-2.029A1.971,1.971,0,0,1,237.371,91.9Z" transform="translate(-118.955 -47.147)"/>
        <path id="路径_1354" data-name="路径 1354" d="M253.18,89.871a2.018,2.018,0,1,1-2.033,1.978A1.964,1.964,0,0,1,253.18,89.871Z" transform="translate(-124.828 -47.147)"/>
        <path id="路径_1355" data-name="路径 1355" d="M270.948,93.909A2.017,2.017,0,1,1,273,91.95,1.964,1.964,0,0,1,270.948,93.909Z" transform="translate(-130.7 -47.148)"/>
        <path id="路径_1356" data-name="路径 1356" d="M279.822,93.907a2.016,2.016,0,1,1,2.085-1.923A1.958,1.958,0,0,1,279.822,93.907Z" transform="translate(-133.637 -47.149)"/>
        <path id="路径_1357" data-name="路径 1357" d="M77.024,100.806a2.02,2.02,0,1,1-1.988-2.025A1.971,1.971,0,0,1,77.024,100.806Z" transform="translate(-66.098 -50.084)"/>
        <path id="路径_1358" data-name="路径 1358" d="M85.931,100.765a2.018,2.018,0,1,1-2.026-1.987A1.963,1.963,0,0,1,85.931,100.765Z" transform="translate(-69.036 -50.083)"/>
        <path id="路径_1359" data-name="路径 1359" d="M103.744,100.9a2.018,2.018,0,1,1-1.888-2.114A1.962,1.962,0,0,1,103.744,100.9Z" transform="translate(-74.909 -50.085)"/>
        <path id="路径_1360" data-name="路径 1360" d="M121.564,100.765a2.019,2.019,0,1,1-2.027-1.987A1.963,1.963,0,0,1,121.564,100.765Z" transform="translate(-80.781 -50.083)"/>
        <path id="路径_1361" data-name="路径 1361" d="M128.421,98.78a2.017,2.017,0,1,1-1.99,2.022A1.96,1.96,0,0,1,128.421,98.78Z" transform="translate(-83.716 -50.084)"/>
        <path id="路径_1362" data-name="路径 1362" d="M166.106,100.8a2.02,2.02,0,1,1-1.991-2.022A1.97,1.97,0,0,1,166.106,100.8Z" transform="translate(-95.463 -50.084)"/>
        <path id="路径_1363" data-name="路径 1363" d="M244.289,102.816a2.019,2.019,0,1,1,1.991-2.024A1.958,1.958,0,0,1,244.289,102.816Z" transform="translate(-121.892 -50.083)"/>
        <path id="路径_1364" data-name="路径 1364" d="M255.186,100.763a2.018,2.018,0,1,1-2.029-1.985A1.962,1.962,0,0,1,255.186,100.763Z" transform="translate(-124.829 -50.083)"/>
        <path id="路径_1365" data-name="路径 1365" d="M281.912,100.806a2.02,2.02,0,1,1-1.988-2.025A1.971,1.971,0,0,1,281.912,100.806Z" transform="translate(-133.637 -50.084)"/>
        <path id="路径_1366" data-name="路径 1366" d="M299.729,100.8a2.02,2.02,0,1,1-1.991-2.022A1.97,1.97,0,0,1,299.729,100.8Z" transform="translate(-139.511 -50.084)"/>
        <path id="路径_1367" data-name="路径 1367" d="M317.545,100.792a2.02,2.02,0,1,1-2-2.013A1.97,1.97,0,0,1,317.545,100.792Z" transform="translate(-145.384 -50.083)"/>
        <path id="路径_1368" data-name="路径 1368" d="M326.453,100.792a2.02,2.02,0,1,1-2-2.013A1.97,1.97,0,0,1,326.453,100.792Z" transform="translate(-148.32 -50.083)"/>
        <path id="路径_1369" data-name="路径 1369" d="M333.408,98.784a2.018,2.018,0,1,1-2.083,1.921A1.958,1.958,0,0,1,333.408,98.784Z" transform="translate(-151.257 -50.085)"/>
        <path id="路径_1370" data-name="路径 1370" d="M344.268,100.753a2.018,2.018,0,1,1-2.039-1.974A1.961,1.961,0,0,1,344.268,100.753Z" transform="translate(-154.194 -50.083)"/>
        <path id="路径_1371" data-name="路径 1371" d="M353.176,100.765a2.018,2.018,0,1,1-2.026-1.987A1.963,1.963,0,0,1,353.176,100.765Z" transform="translate(-157.13 -50.083)"/>
        <path id="路径_1372" data-name="路径 1372" d="M66.074,107.688a2.017,2.017,0,1,1-2,2.012A1.961,1.961,0,0,1,66.074,107.688Z" transform="translate(-63.161 -53.02)"/>
        <path id="路径_1373" data-name="路径 1373" d="M75.048,107.69a2.018,2.018,0,1,1-2.061,1.945A1.96,1.96,0,0,1,75.048,107.69Z" transform="translate(-66.099 -53.021)"/>
        <path id="路径_1374" data-name="路径 1374" d="M94.838,109.752a2.02,2.02,0,1,1-1.949-2.061A1.967,1.967,0,0,1,94.838,109.752Z" transform="translate(-71.97 -53.021)"/>
        <path id="路径_1375" data-name="路径 1375" d="M110.656,111.725a2.019,2.019,0,1,1,2-2.014A1.96,1.96,0,0,1,110.656,111.725Z" transform="translate(-77.844 -53.02)"/>
        <path id="路径_1376" data-name="路径 1376" d="M148.287,109.673a2.018,2.018,0,1,1-2.026-1.987A1.963,1.963,0,0,1,148.287,109.673Z" transform="translate(-89.591 -53.019)"/>
        <path id="路径_1377" data-name="路径 1377" d="M190.808,111.726a2.018,2.018,0,1,1,2.02-1.994A1.965,1.965,0,0,1,190.808,111.726Z" transform="translate(-104.272 -53.021)"/>
        <path id="路径_1378" data-name="路径 1378" d="M201.739,109.7a2.019,2.019,0,1,1-2-2.012A1.97,1.97,0,0,1,201.739,109.7Z" transform="translate(-107.209 -53.02)"/>
        <path id="路径_1379" data-name="路径 1379" d="M219.554,109.684a2.019,2.019,0,1,1-2.016-2A1.964,1.964,0,0,1,219.554,109.684Z" transform="translate(-113.082 -53.019)"/>
        <path id="路径_1380" data-name="路径 1380" d="M281.913,109.706a2.02,2.02,0,1,1-2-2.018A1.971,1.971,0,0,1,281.913,109.706Z" transform="translate(-133.638 -53.02)"/>
        <path id="路径_1381" data-name="路径 1381" d="M290.82,109.714a2.02,2.02,0,1,1-1.988-2.025A1.972,1.972,0,0,1,290.82,109.714Z" transform="translate(-136.574 -53.02)"/>
        <path id="路径_1382" data-name="路径 1382" d="M299.727,109.739a2.02,2.02,0,1,1-1.962-2.048A1.966,1.966,0,0,1,299.727,109.739Z" transform="translate(-139.51 -53.021)"/>
        <path id="路径_1383" data-name="路径 1383" d="M308.633,109.757a2.02,2.02,0,1,1-1.943-2.065A1.965,1.965,0,0,1,308.633,109.757Z" transform="translate(-142.446 -53.021)"/>
        <path id="路径_1384" data-name="路径 1384" d="M344.27,109.71a2.02,2.02,0,1,1-1.991-2.022A1.971,1.971,0,0,1,344.27,109.71Z" transform="translate(-154.193 -53.02)"/>
        <path id="路径_1385" data-name="路径 1385" d="M353.174,109.757a2.02,2.02,0,1,1-1.943-2.065A1.965,1.965,0,0,1,353.174,109.757Z" transform="translate(-157.128 -53.021)"/>
        <path id="路径_1386" data-name="路径 1386" d="M77.02,118.717a2.018,2.018,0,1,1-1.888-2.114A1.962,1.962,0,0,1,77.02,118.717Z" transform="translate(-66.1 -55.958)"/>
        <path id="路径_1387" data-name="路径 1387" d="M83.954,116.6a2.018,2.018,0,1,1-2.059,1.948A1.961,1.961,0,0,1,83.954,116.6Z" transform="translate(-69.035 -55.957)"/>
        <path id="路径_1388" data-name="路径 1388" d="M101.692,120.633a2.017,2.017,0,1,1,2.053-1.959A1.964,1.964,0,0,1,101.692,120.633Z" transform="translate(-74.907 -55.958)"/>
        <path id="路径_1389" data-name="路径 1389" d="M121.566,118.608a2.02,2.02,0,1,1-2-2.012A1.97,1.97,0,0,1,121.566,118.608Z" transform="translate(-80.781 -55.957)"/>
        <path id="路径_1390" data-name="路径 1390" d="M148.288,118.654a2.02,2.02,0,1,1-1.954-2.055A1.967,1.967,0,0,1,148.288,118.654Z" transform="translate(-89.59 -55.957)"/>
        <path id="路径_1391" data-name="路径 1391" d="M183.919,118.66a2.02,2.02,0,1,1-1.948-2.061A1.966,1.966,0,0,1,183.919,118.66Z" transform="translate(-101.335 -55.957)"/>
        <path id="路径_1392" data-name="路径 1392" d="M190.8,120.634a2.018,2.018,0,1,1,2.028-1.986A1.965,1.965,0,0,1,190.8,120.634Z" transform="translate(-104.272 -55.957)"/>
        <path id="路径_1393" data-name="路径 1393" d="M226.468,120.632a2.018,2.018,0,1,1,2-2.019A1.959,1.959,0,0,1,226.468,120.632Z" transform="translate(-116.019 -55.956)"/>
        <path id="路径_1394" data-name="路径 1394" d="M262.056,116.595a2.018,2.018,0,1,1-2,2.01A1.962,1.962,0,0,1,262.056,116.595Z" transform="translate(-127.764 -55.956)"/>
        <path id="路径_1395" data-name="路径 1395" d="M299.725,118.66a2.02,2.02,0,1,1-1.948-2.061A1.966,1.966,0,0,1,299.725,118.66Z" transform="translate(-139.509 -55.957)"/>
        <path id="路径_1396" data-name="路径 1396" d="M304.594,118.614a2.02,2.02,0,1,1,1.994,2.018A1.961,1.961,0,0,1,304.594,118.614Z" transform="translate(-142.446 -55.956)"/>
        <path id="路径_1397" data-name="路径 1397" d="M333.3,120.633a2.017,2.017,0,1,1,2.056-1.955A1.963,1.963,0,0,1,333.3,120.633Z" transform="translate(-151.255 -55.958)"/>
        <path id="路径_1398" data-name="路径 1398" d="M342.241,120.634a2.018,2.018,0,1,1,2.027-1.988A1.965,1.965,0,0,1,342.241,120.634Z" transform="translate(-154.192 -55.957)"/>
        <path id="路径_1399" data-name="路径 1399" d="M351.121,120.633a2.017,2.017,0,1,1,2.053-1.959A1.964,1.964,0,0,1,351.121,120.633Z" transform="translate(-157.128 -55.958)"/>
        <path id="路径_1400" data-name="路径 1400" d="M66.127,125.5a2.018,2.018,0,1,1-2.049,1.959A1.964,1.964,0,0,1,66.127,125.5Z" transform="translate(-63.162 -58.893)"/>
        <path id="路径_1401" data-name="路径 1401" d="M75.029,129.54a2.018,2.018,0,1,1,2-2.019A1.958,1.958,0,0,1,75.029,129.54Z" transform="translate(-66.098 -58.893)"/>
        <path id="路径_1402" data-name="路径 1402" d="M92.8,125.5a2.018,2.018,0,1,1-2,2.01A1.961,1.961,0,0,1,92.8,125.5Z" transform="translate(-71.97 -58.893)"/>
        <path id="路径_1403" data-name="路径 1403" d="M139.38,127.5a2.019,2.019,0,1,1-2.016-2A1.965,1.965,0,0,1,139.38,127.5Z" transform="translate(-86.654 -58.893)"/>
        <path id="路径_1404" data-name="路径 1404" d="M148.287,127.591a2.019,2.019,0,1,1-1.924-2.082A1.964,1.964,0,0,1,148.287,127.591Z" transform="translate(-89.59 -58.894)"/>
        <path id="路径_1405" data-name="路径 1405" d="M164.063,125.5a2.018,2.018,0,1,1-2,2.012A1.961,1.961,0,0,1,164.063,125.5Z" transform="translate(-95.462 -58.893)"/>
        <path id="路径_1406" data-name="路径 1406" d="M190.8,129.542a2.018,2.018,0,1,1,2.028-1.986A1.965,1.965,0,0,1,190.8,129.542Z" transform="translate(-104.272 -58.894)"/>
        <path id="路径_1407" data-name="路径 1407" d="M201.736,127.563a2.02,2.02,0,1,1-1.954-2.055A1.967,1.967,0,0,1,201.736,127.563Z" transform="translate(-107.208 -58.894)"/>
        <path id="路径_1408" data-name="路径 1408" d="M208.637,125.5a2.018,2.018,0,1,1-2.03,1.981A1.965,1.965,0,0,1,208.637,125.5Z" transform="translate(-110.145 -58.893)"/>
        <path id="路径_1409" data-name="路径 1409" d="M217.537,129.542a2.018,2.018,0,1,1,2.016-2A1.963,1.963,0,0,1,217.537,129.542Z" transform="translate(-113.082 -58.893)"/>
        <path id="路径_1410" data-name="路径 1410" d="M226.407,129.542a2.017,2.017,0,1,1,2.053-1.959A1.964,1.964,0,0,1,226.407,129.542Z" transform="translate(-116.018 -58.894)"/>
        <path id="路径_1411" data-name="路径 1411" d="M237.37,127.49a2.018,2.018,0,1,1-2.026-1.987A1.964,1.964,0,0,1,237.37,127.49Z" transform="translate(-118.956 -58.893)"/>
        <path id="路径_1412" data-name="路径 1412" d="M244.326,125.508a2.018,2.018,0,1,1-2.082,1.921A1.958,1.958,0,0,1,244.326,125.508Z" transform="translate(-121.892 -58.894)"/>
        <path id="路径_1413" data-name="路径 1413" d="M255.185,127.563a2.02,2.02,0,1,1-1.954-2.055A1.966,1.966,0,0,1,255.185,127.563Z" transform="translate(-124.827 -58.894)"/>
        <path id="路径_1414" data-name="路径 1414" d="M273,127.568a2.02,2.02,0,1,1-1.948-2.061A1.967,1.967,0,0,1,273,127.568Z" transform="translate(-130.7 -58.894)"/>
        <path id="路径_1415" data-name="路径 1415" d="M281.911,127.495a2.019,2.019,0,1,1-2.021-1.992A1.963,1.963,0,0,1,281.911,127.495Z" transform="translate(-133.638 -58.893)"/>
        <path id="路径_1416" data-name="路径 1416" d="M288.842,125.506a2.018,2.018,0,1,1-2.059,1.948A1.961,1.961,0,0,1,288.842,125.506Z" transform="translate(-136.574 -58.893)"/>
        <path id="路径_1417" data-name="路径 1417" d="M299.728,127.533a2.02,2.02,0,1,1-1.984-2.029A1.971,1.971,0,0,1,299.728,127.533Z" transform="translate(-139.51 -58.893)"/>
        <path id="路径_1418" data-name="路径 1418" d="M315.566,125.506a2.018,2.018,0,1,1-2.059,1.948A1.961,1.961,0,0,1,315.566,125.506Z" transform="translate(-145.384 -58.893)"/>
        <path id="路径_1419" data-name="路径 1419" d="M353.176,127.477a2.018,2.018,0,1,1-2.039-1.973A1.962,1.962,0,0,1,353.176,127.477Z" transform="translate(-157.13 -58.893)"/>
        <path id="路径_1420" data-name="路径 1420" d="M77.023,136.4A2.018,2.018,0,1,1,75,134.411,1.963,1.963,0,0,1,77.023,136.4Z" transform="translate(-66.099 -61.829)"/>
        <path id="路径_1421" data-name="路径 1421" d="M83.876,138.45a2.017,2.017,0,1,1,2.053-1.959A1.964,1.964,0,0,1,83.876,138.45Z" transform="translate(-69.034 -61.831)"/>
        <path id="路径_1422" data-name="路径 1422" d="M101.706,134.412a2.018,2.018,0,1,1-2,2.012A1.961,1.961,0,0,1,101.706,134.412Z" transform="translate(-74.907 -61.829)"/>
        <path id="路径_1423" data-name="路径 1423" d="M119.534,138.45a2.018,2.018,0,1,1,2.029-1.986A1.965,1.965,0,0,1,119.534,138.45Z" transform="translate(-80.78 -61.83)"/>
        <path id="路径_1424" data-name="路径 1424" d="M130.472,136.4a2.018,2.018,0,1,1-2.026-1.987A1.963,1.963,0,0,1,130.472,136.4Z" transform="translate(-83.718 -61.829)"/>
        <path id="路径_1425" data-name="路径 1425" d="M146.312,134.414a2.018,2.018,0,1,1-2.061,1.945A1.96,1.96,0,0,1,146.312,134.414Z" transform="translate(-89.59 -61.83)"/>
        <path id="路径_1426" data-name="路径 1426" d="M157.195,136.477a2.02,2.02,0,1,1-1.949-2.06A1.967,1.967,0,0,1,157.195,136.477Z" transform="translate(-92.526 -61.831)"/>
        <path id="路径_1427" data-name="路径 1427" d="M175.01,136.5a2.019,2.019,0,1,1-1.925-2.082A1.963,1.963,0,0,1,175.01,136.5Z" transform="translate(-98.399 -61.831)"/>
        <path id="路径_1428" data-name="路径 1428" d="M192.828,136.464a2.02,2.02,0,1,1-1.961-2.049A1.967,1.967,0,0,1,192.828,136.464Z" transform="translate(-104.272 -61.83)"/>
        <path id="路径_1429" data-name="路径 1429" d="M199.7,134.412a2.018,2.018,0,1,1-2,2.012A1.961,1.961,0,0,1,199.7,134.412Z" transform="translate(-107.208 -61.829)"/>
        <path id="路径_1430" data-name="路径 1430" d="M224.426,136.362a2.018,2.018,0,1,1,1.922,2.083A1.954,1.954,0,0,1,224.426,136.362Z" transform="translate(-116.019 -61.83)"/>
        <path id="路径_1431" data-name="路径 1431" d="M237.368,136.481a2.02,2.02,0,1,1-1.943-2.065A1.966,1.966,0,0,1,237.368,136.481Z" transform="translate(-118.954 -61.831)"/>
        <path id="路径_1432" data-name="路径 1432" d="M242.243,136.362a2.018,2.018,0,1,1,1.922,2.083A1.954,1.954,0,0,1,242.243,136.362Z" transform="translate(-121.892 -61.83)"/>
        <path id="路径_1433" data-name="路径 1433" d="M288.806,134.411a2.018,2.018,0,1,1-2.026,1.985A1.966,1.966,0,0,1,288.806,134.411Z" transform="translate(-136.574 -61.829)"/>
        <path id="路径_1434" data-name="路径 1434" d="M299.728,136.438a2.02,2.02,0,1,1-1.988-2.025A1.97,1.97,0,0,1,299.728,136.438Z" transform="translate(-139.51 -61.83)"/>
        <path id="路径_1435" data-name="路径 1435" d="M308.636,136.45a2.02,2.02,0,1,1-1.976-2.036A1.971,1.971,0,0,1,308.636,136.45Z" transform="translate(-142.447 -61.83)"/>
        <path id="路径_1436" data-name="路径 1436" d="M326.452,136.448a2.02,2.02,0,1,1-1.978-2.034A1.971,1.971,0,0,1,326.452,136.448Z" transform="translate(-148.32 -61.83)"/>
        <path id="路径_1437" data-name="路径 1437" d="M351.188,134.413a2.018,2.018,0,1,1-2.049,1.959A1.965,1.965,0,0,1,351.188,134.413Z" transform="translate(-157.13 -61.83)"/>
        <path id="路径_1438" data-name="路径 1438" d="M92.784,147.358a2.017,2.017,0,1,1,2.053-1.959A1.963,1.963,0,0,1,92.784,147.358Z" transform="translate(-71.971 -64.767)"/>
        <path id="路径_1439" data-name="路径 1439" d="M128.408,147.357a2.017,2.017,0,1,1,2.061-1.949A1.962,1.962,0,0,1,128.408,147.357Z" transform="translate(-83.717 -64.767)"/>
        <path id="路径_1440" data-name="路径 1440" d="M146.262,147.359a2.018,2.018,0,1,1,2.026-1.989A1.965,1.965,0,0,1,146.262,147.359Z" transform="translate(-89.59 -64.767)"/>
        <path id="路径_1441" data-name="路径 1441" d="M172.986,147.359a2.018,2.018,0,1,1,2.026-1.989A1.965,1.965,0,0,1,172.986,147.359Z" transform="translate(-98.399 -64.767)"/>
        <path id="路径_1442" data-name="路径 1442" d="M190.835,147.357a2.018,2.018,0,1,1,2-2.02A1.959,1.959,0,0,1,190.835,147.357Z" transform="translate(-104.273 -64.766)"/>
        <path id="路径_1443" data-name="路径 1443" d="M199.725,143.319A2.018,2.018,0,1,1,197.7,145.3,1.966,1.966,0,0,1,199.725,143.319Z" transform="translate(-107.209 -64.765)"/>
        <path id="路径_1444" data-name="路径 1444" d="M219.553,145.373a2.02,2.02,0,1,1-1.961-2.049A1.968,1.968,0,0,1,219.553,145.373Z" transform="translate(-113.082 -64.767)"/>
        <path id="路径_1445" data-name="路径 1445" d="M226.468,147.357a2.018,2.018,0,1,1,2-2.02A1.959,1.959,0,0,1,226.468,147.357Z" transform="translate(-116.019 -64.766)"/>
        <path id="路径_1446" data-name="路径 1446" d="M237.371,145.354a2.02,2.02,0,1,1-1.981-2.032A1.971,1.971,0,0,1,237.371,145.354Z" transform="translate(-118.955 -64.766)"/>
        <path id="路径_1447" data-name="路径 1447" d="M246.277,145.382a2.02,2.02,0,1,1-1.952-2.058A1.967,1.967,0,0,1,246.277,145.382Z" transform="translate(-121.891 -64.767)"/>
        <path id="路径_1448" data-name="路径 1448" d="M253.16,147.359a2.018,2.018,0,1,1,2.026-1.989A1.965,1.965,0,0,1,253.16,147.359Z" transform="translate(-124.828 -64.767)"/>
        <path id="路径_1449" data-name="路径 1449" d="M273,145.379a2.02,2.02,0,1,1-1.954-2.055A1.967,1.967,0,0,1,273,145.379Z" transform="translate(-130.7 -64.767)"/>
        <path id="路径_1450" data-name="路径 1450" d="M279.905,143.32a2.018,2.018,0,1,1-2.033,1.978A1.964,1.964,0,0,1,279.905,143.32Z" transform="translate(-133.637 -64.766)"/>
        <path id="路径_1451" data-name="路径 1451" d="M333.321,143.32a2.018,2.018,0,1,1-2,2.01A1.962,1.962,0,0,1,333.321,143.32Z" transform="translate(-151.256 -64.766)"/>
        <path id="路径_1452" data-name="路径 1452" d="M353.176,145.292a2.018,2.018,0,1,1-2.04-1.972A1.961,1.961,0,0,1,353.176,145.292Z" transform="translate(-157.13 -64.766)"/>
        <path id="路径_1453" data-name="路径 1453" d="M72.987,154.178a2.018,2.018,0,1,1,1.922,2.083A1.955,1.955,0,0,1,72.987,154.178Z" transform="translate(-66.099 -67.703)"/>
        <path id="路径_1454" data-name="路径 1454" d="M112.657,154.241a2.02,2.02,0,1,1-2-2.012A1.97,1.97,0,0,1,112.657,154.241Z" transform="translate(-77.844 -67.703)"/>
        <path id="路径_1455" data-name="路径 1455" d="M119.513,152.229a2.017,2.017,0,1,1-1.99,2.022A1.959,1.959,0,0,1,119.513,152.229Z" transform="translate(-80.78 -67.703)"/>
        <path id="路径_1456" data-name="路径 1456" d="M157.2,154.258a2.02,2.02,0,1,1-1.984-2.029A1.971,1.971,0,0,1,157.2,154.258Z" transform="translate(-92.526 -67.703)"/>
        <path id="路径_1457" data-name="路径 1457" d="M192.826,154.316a2.019,2.019,0,1,1-1.924-2.081A1.963,1.963,0,0,1,192.826,154.316Z" transform="translate(-104.272 -67.704)"/>
        <path id="路径_1458" data-name="路径 1458" d="M201.738,154.265a2.02,2.02,0,1,1-1.978-2.034A1.972,1.972,0,0,1,201.738,154.265Z" transform="translate(-107.209 -67.703)"/>
        <path id="路径_1459" data-name="路径 1459" d="M226.51,152.233a2.018,2.018,0,1,1-2.083,1.921A1.958,1.958,0,0,1,226.51,152.233Z" transform="translate(-116.019 -67.703)"/>
        <path id="路径_1460" data-name="路径 1460" d="M264.1,154.229a2.019,2.019,0,1,1-2.012-2A1.966,1.966,0,0,1,264.1,154.229Z" transform="translate(-127.765 -67.702)"/>
        <path id="路径_1461" data-name="路径 1461" d="M281.909,154.29a2.02,2.02,0,1,1-1.951-2.057A1.967,1.967,0,0,1,281.909,154.29Z" transform="translate(-133.637 -67.703)"/>
        <path id="路径_1462" data-name="路径 1462" d="M290.818,154.28a2.02,2.02,0,1,1-1.961-2.048A1.966,1.966,0,0,1,290.818,154.28Z" transform="translate(-136.573 -67.703)"/>
        <path id="路径_1463" data-name="路径 1463" d="M308.637,154.255a2.02,2.02,0,1,1-1.988-2.025A1.971,1.971,0,0,1,308.637,154.255Z" transform="translate(-142.447 -67.703)"/>
        <path id="路径_1464" data-name="路径 1464" d="M315.54,152.228a2.018,2.018,0,1,1-2.035,1.976A1.965,1.965,0,0,1,315.54,152.228Z" transform="translate(-145.383 -67.702)"/>
        <path id="路径_1465" data-name="路径 1465" d="M344.27,154.251a2.02,2.02,0,1,1-1.991-2.022A1.971,1.971,0,0,1,344.27,154.251Z" transform="translate(-154.193 -67.702)"/>
        <path id="路径_1466" data-name="路径 1466" d="M351.2,152.231a2.018,2.018,0,1,1-2.061,1.945A1.961,1.961,0,0,1,351.2,152.231Z" transform="translate(-157.13 -67.703)"/>
        <path id="路径_1467" data-name="路径 1467" d="M75,161.135a2.018,2.018,0,1,1-2.013,2A1.966,1.966,0,0,1,75,161.135Z" transform="translate(-66.098 -70.638)"/>
        <path id="路径_1468" data-name="路径 1468" d="M94.839,163.12a2.018,2.018,0,1,1-2.029-1.984A1.962,1.962,0,0,1,94.839,163.12Z" transform="translate(-71.972 -70.639)"/>
        <path id="路径_1469" data-name="路径 1469" d="M110.609,161.137a2.018,2.018,0,1,1-1.994,2.016A1.961,1.961,0,0,1,110.609,161.137Z" transform="translate(-77.843 -70.639)"/>
        <path id="路径_1470" data-name="路径 1470" d="M175.012,163.2a2.02,2.02,0,1,1-1.955-2.055A1.968,1.968,0,0,1,175.012,163.2Z" transform="translate(-98.399 -70.64)"/>
        <path id="路径_1471" data-name="路径 1471" d="M181.9,161.135a2.018,2.018,0,1,1-2.018,1.994A1.967,1.967,0,0,1,181.9,161.135Z" transform="translate(-101.336 -70.638)"/>
        <path id="路径_1472" data-name="路径 1472" d="M190.788,161.137a2.017,2.017,0,1,1-2,2.012A1.961,1.961,0,0,1,190.788,161.137Z" transform="translate(-104.272 -70.639)"/>
        <path id="路径_1473" data-name="路径 1473" d="M201.736,163.2a2.02,2.02,0,1,1-1.954-2.055A1.968,1.968,0,0,1,201.736,163.2Z" transform="translate(-107.208 -70.64)"/>
        <path id="路径_1474" data-name="路径 1474" d="M210.644,163.2a2.02,2.02,0,1,1-1.954-2.055A1.967,1.967,0,0,1,210.644,163.2Z" transform="translate(-110.145 -70.64)"/>
        <path id="路径_1475" data-name="路径 1475" d="M219.552,163.2a2.02,2.02,0,1,1-1.948-2.061A1.967,1.967,0,0,1,219.552,163.2Z" transform="translate(-113.081 -70.64)"/>
        <path id="路径_1476" data-name="路径 1476" d="M235.329,165.175a2.018,2.018,0,1,1,2.039-1.974A1.965,1.965,0,0,1,235.329,165.175Z" transform="translate(-118.954 -70.64)"/>
        <path id="路径_1477" data-name="路径 1477" d="M253.174,161.136a2.018,2.018,0,1,1-2.027,1.984A1.965,1.965,0,0,1,253.174,161.136Z" transform="translate(-124.828 -70.639)"/>
        <path id="路径_1478" data-name="路径 1478" d="M264.1,163.166a2.02,2.02,0,1,1-1.984-2.029A1.971,1.971,0,0,1,264.1,163.166Z" transform="translate(-127.764 -70.639)"/>
        <path id="路径_1479" data-name="路径 1479" d="M295.686,163.155a2.02,2.02,0,1,1,1.994,2.018A1.961,1.961,0,0,1,295.686,163.155Z" transform="translate(-139.509 -70.639)"/>
        <path id="路径_1480" data-name="路径 1480" d="M308.636,163.173a2.02,2.02,0,1,1-1.978-2.034A1.971,1.971,0,0,1,308.636,163.173Z" transform="translate(-142.447 -70.639)"/>
        <path id="路径_1481" data-name="路径 1481" d="M315.517,165.175a2.018,2.018,0,1,1,2.026-1.989A1.965,1.965,0,0,1,315.517,165.175Z" transform="translate(-145.383 -70.64)"/>
        <path id="路径_1482" data-name="路径 1482" d="M344.27,163.155a2.02,2.02,0,1,1-2-2.018A1.97,1.97,0,0,1,344.27,163.155Z" transform="translate(-154.193 -70.639)"/>
        <path id="路径_1483" data-name="路径 1483" d="M68.116,172.063a2.019,2.019,0,1,1-2-2.018A1.97,1.97,0,0,1,68.116,172.063Z" transform="translate(-63.162 -73.575)"/>
        <path id="路径_1484" data-name="路径 1484" d="M103.748,172.078a2.02,2.02,0,1,1-1.98-2.031A1.97,1.97,0,0,1,103.748,172.078Z" transform="translate(-74.908 -73.576)"/>
        <path id="路径_1485" data-name="路径 1485" d="M119.575,174.081a2.018,2.018,0,1,1,1.99-2.024A1.959,1.959,0,0,1,119.575,174.081Z" transform="translate(-80.781 -73.575)"/>
        <path id="路径_1486" data-name="路径 1486" d="M130.471,172.1a2.02,2.02,0,1,1-1.961-2.049A1.968,1.968,0,0,1,130.471,172.1Z" transform="translate(-83.717 -73.576)"/>
        <path id="路径_1487" data-name="路径 1487" d="M157.194,172.132a2.019,2.019,0,1,1-1.925-2.082A1.964,1.964,0,0,1,157.194,172.132Z" transform="translate(-92.526 -73.577)"/>
        <path id="路径_1488" data-name="路径 1488" d="M166.1,172.031a2.018,2.018,0,1,1-2.026-1.987A1.963,1.963,0,0,1,166.1,172.031Z" transform="translate(-95.464 -73.575)"/>
        <path id="路径_1489" data-name="路径 1489" d="M181.875,170.045a2.018,2.018,0,1,1-1.995,2.016A1.96,1.96,0,0,1,181.875,170.045Z" transform="translate(-101.335 -73.575)"/>
        <path id="路径_1490" data-name="路径 1490" d="M201.738,172.042a2.019,2.019,0,1,1-2.015-2A1.965,1.965,0,0,1,201.738,172.042Z" transform="translate(-107.21 -73.575)"/>
        <path id="路径_1491" data-name="路径 1491" d="M208.587,174.082a2.017,2.017,0,1,1,2.056-1.955A1.963,1.963,0,0,1,208.587,174.082Z" transform="translate(-110.145 -73.577)"/>
        <path id="路径_1492" data-name="路径 1492" d="M219.554,172.042a2.019,2.019,0,1,1-2.015-2A1.965,1.965,0,0,1,219.554,172.042Z" transform="translate(-113.082 -73.575)"/>
        <path id="路径_1493" data-name="路径 1493" d="M244.249,174.083a2.018,2.018,0,1,1,2.028-1.986A1.965,1.965,0,0,1,244.249,174.083Z" transform="translate(-121.891 -73.576)"/>
        <path id="路径_1494" data-name="路径 1494" d="M253.2,170.046A2.018,2.018,0,1,1,251.15,172,1.964,1.964,0,0,1,253.2,170.046Z" transform="translate(-124.828 -73.576)"/>
        <path id="路径_1495" data-name="路径 1495" d="M270.961,170.045a2.017,2.017,0,1,1-2,2.012A1.961,1.961,0,0,1,270.961,170.045Z" transform="translate(-130.7 -73.575)"/>
        <path id="路径_1496" data-name="路径 1496" d="M279.852,174.082a2.017,2.017,0,1,1,2.056-1.955A1.963,1.963,0,0,1,279.852,174.082Z" transform="translate(-133.637 -73.577)"/>
        <path id="路径_1497" data-name="路径 1497" d="M288.778,174.083a2.018,2.018,0,1,1,2.039-1.974A1.965,1.965,0,0,1,288.778,174.083Z" transform="translate(-136.573 -73.576)"/>
        <path id="路径_1498" data-name="路径 1498" d="M297.7,174.083a2.018,2.018,0,1,1,2.026-1.988A1.965,1.965,0,0,1,297.7,174.083Z" transform="translate(-139.51 -73.576)"/>
        <path id="路径_1499" data-name="路径 1499" d="M335.36,172.042a2.019,2.019,0,1,1-2.015-2A1.965,1.965,0,0,1,335.36,172.042Z" transform="translate(-151.257 -73.575)"/>
        <path id="路径_1500" data-name="路径 1500" d="M85.931,180.939a2.018,2.018,0,1,1-2.026-1.987A1.963,1.963,0,0,1,85.931,180.939Z" transform="translate(-69.036 -76.512)"/>
        <path id="路径_1501" data-name="路径 1501" d="M94.838,181.014a2.02,2.02,0,1,1-1.951-2.057A1.967,1.967,0,0,1,94.838,181.014Z" transform="translate(-71.971 -76.513)"/>
        <path id="路径_1502" data-name="路径 1502" d="M110.681,178.955a2.018,2.018,0,1,1-2.061,1.945A1.961,1.961,0,0,1,110.681,178.955Z" transform="translate(-77.845 -76.512)"/>
        <path id="路径_1503" data-name="路径 1503" d="M130.473,180.95a2.019,2.019,0,1,1-2.015-2A1.965,1.965,0,0,1,130.473,180.95Z" transform="translate(-83.718 -76.512)"/>
        <path id="路径_1504" data-name="路径 1504" d="M183.923,180.971a2.02,2.02,0,1,1-2-2.018A1.971,1.971,0,0,1,183.923,180.971Z" transform="translate(-101.336 -76.512)"/>
        <path id="路径_1505" data-name="路径 1505" d="M210.642,181.074a2.018,2.018,0,1,1-1.888-2.114A1.963,1.963,0,0,1,210.642,181.074Z" transform="translate(-110.147 -76.513)"/>
        <path id="路径_1506" data-name="路径 1506" d="M219.554,180.936a2.018,2.018,0,1,1-2.028-1.984A1.963,1.963,0,0,1,219.554,180.936Z" transform="translate(-113.083 -76.512)"/>
        <path id="路径_1507" data-name="路径 1507" d="M228.462,180.939a2.019,2.019,0,1,1-2.026-1.987A1.964,1.964,0,0,1,228.462,180.939Z" transform="translate(-116.019 -76.512)"/>
        <path id="路径_1508" data-name="路径 1508" d="M246.28,180.966a2.019,2.019,0,1,1-2-2.013A1.97,1.97,0,0,1,246.28,180.966Z" transform="translate(-121.892 -76.512)"/>
        <path id="路径_1509" data-name="路径 1509" d="M262.089,178.953a2.018,2.018,0,1,1-2.032,1.978A1.964,1.964,0,0,1,262.089,178.953Z" transform="translate(-127.765 -76.512)"/>
        <path id="路径_1510" data-name="路径 1510" d="M281.911,180.986a2.02,2.02,0,1,1-1.981-2.031A1.971,1.971,0,0,1,281.911,180.986Z" transform="translate(-133.637 -76.512)"/>
        <path id="路径_1511" data-name="路径 1511" d="M297.705,182.991A2.018,2.018,0,1,1,299.727,181,1.964,1.964,0,0,1,297.705,182.991Z" transform="translate(-139.51 -76.513)"/>
        <path id="路径_1512" data-name="路径 1512" d="M306.571,182.99a2.017,2.017,0,1,1,2.061-1.949A1.963,1.963,0,0,1,306.571,182.99Z" transform="translate(-142.446 -76.513)"/>
        <path id="路径_1513" data-name="路径 1513" d="M351.188,178.954a2.018,2.018,0,1,1-2.049,1.959A1.965,1.965,0,0,1,351.188,178.954Z" transform="translate(-157.13 -76.512)"/>
        <path id="路径_1514" data-name="路径 1514" d="M103.747,189.913a2.02,2.02,0,1,1-1.961-2.049A1.968,1.968,0,0,1,103.747,189.913Z" transform="translate(-74.907 -79.449)"/>
        <path id="路径_1515" data-name="路径 1515" d="M121.563,189.92a2.02,2.02,0,1,1-1.955-2.055A1.968,1.968,0,0,1,121.563,189.92Z" transform="translate(-80.78 -79.449)"/>
        <path id="路径_1516" data-name="路径 1516" d="M128.4,187.863a2.019,2.019,0,1,1-1.973,2.037A1.958,1.958,0,0,1,128.4,187.863Z" transform="translate(-83.717 -79.449)"/>
        <path id="路径_1517" data-name="路径 1517" d="M139.377,189.982a2.018,2.018,0,1,1-1.888-2.114A1.962,1.962,0,0,1,139.377,189.982Z" transform="translate(-86.655 -79.45)"/>
        <path id="路径_1518" data-name="路径 1518" d="M157.2,189.854a2.019,2.019,0,1,1-2.02-1.994A1.965,1.965,0,0,1,157.2,189.854Z" transform="translate(-92.527 -79.448)"/>
        <path id="路径_1519" data-name="路径 1519" d="M166.1,189.948a2.019,2.019,0,1,1-1.925-2.082A1.963,1.963,0,0,1,166.1,189.948Z" transform="translate(-95.463 -79.449)"/>
        <path id="路径_1520" data-name="路径 1520" d="M183.921,189.9a2.02,2.02,0,1,1-1.976-2.036A1.97,1.97,0,0,1,183.921,189.9Z" transform="translate(-101.336 -79.449)"/>
        <path id="路径_1521" data-name="路径 1521" d="M210.646,189.9a2.02,2.02,0,1,1-1.976-2.036A1.971,1.971,0,0,1,210.646,189.9Z" transform="translate(-110.145 -79.449)"/>
        <path id="路径_1522" data-name="路径 1522" d="M217.576,187.863a2.018,2.018,0,1,1-2.059,1.948A1.961,1.961,0,0,1,217.576,187.863Z" transform="translate(-113.082 -79.449)"/>
        <path id="路径_1523" data-name="路径 1523" d="M226.434,187.86a2.018,2.018,0,1,1-2.012,2A1.965,1.965,0,0,1,226.434,187.86Z" transform="translate(-116.018 -79.448)"/>
        <path id="路径_1524" data-name="路径 1524" d="M253.145,191.9a2.017,2.017,0,1,1,2.039-1.974A1.966,1.966,0,0,1,253.145,191.9Z" transform="translate(-124.827 -79.449)"/>
        <path id="路径_1525" data-name="路径 1525" d="M290.819,189.844a2.018,2.018,0,1,1-2.028-1.984A1.962,1.962,0,0,1,290.819,189.844Z" transform="translate(-136.575 -79.448)"/>
        <path id="路径_1526" data-name="路径 1526" d="M297.669,191.9a2.017,2.017,0,1,1,2.056-1.955A1.963,1.963,0,0,1,297.669,191.9Z" transform="translate(-139.51 -79.45)"/>
        <path id="路径_1527" data-name="路径 1527" d="M335.361,189.884a2.02,2.02,0,1,1-1.992-2.022A1.971,1.971,0,0,1,335.361,189.884Z" transform="translate(-151.256 -79.449)"/>
        <path id="路径_1528" data-name="路径 1528" d="M342.227,187.861a2.018,2.018,0,1,1-2,2.012A1.962,1.962,0,0,1,342.227,187.861Z" transform="translate(-154.192 -79.448)"/>
        <path id="路径_1529" data-name="路径 1529" d="M353.176,189.849a2.018,2.018,0,1,1-2.024-1.989A1.963,1.963,0,0,1,353.176,189.849Z" transform="translate(-157.13 -79.448)"/>
        <path id="路径_1530" data-name="路径 1530" d="M74.959,200.806a2.017,2.017,0,1,1,2.061-1.949A1.962,1.962,0,0,1,74.959,200.806Z" transform="translate(-66.098 -82.386)"/>
        <path id="路径_1531" data-name="路径 1531" d="M85.932,198.8a2.02,2.02,0,1,1-1.978-2.034A1.971,1.971,0,0,1,85.932,198.8Z" transform="translate(-69.035 -82.385)"/>
        <path id="路径_1532" data-name="路径 1532" d="M103.746,198.828a2.02,2.02,0,1,1-1.954-2.055A1.967,1.967,0,0,1,103.746,198.828Z" transform="translate(-74.907 -82.386)"/>
        <path id="路径_1533" data-name="路径 1533" d="M128.486,200.805a2.018,2.018,0,1,1,1.988-2.026A1.958,1.958,0,0,1,128.486,200.805Z" transform="translate(-83.718 -82.385)"/>
        <path id="路径_1534" data-name="路径 1534" d="M148.288,198.8a2.02,2.02,0,1,1-1.98-2.032A1.97,1.97,0,0,1,148.288,198.8Z" transform="translate(-89.59 -82.385)"/>
        <path id="路径_1535" data-name="路径 1535" d="M155.167,200.808a2.018,2.018,0,1,1,2.028-1.986A1.965,1.965,0,0,1,155.167,200.808Z" transform="translate(-92.526 -82.386)"/>
        <path id="路径_1536" data-name="路径 1536" d="M164.064,200.807a2.017,2.017,0,1,1,2.039-1.974A1.964,1.964,0,0,1,164.064,200.807Z" transform="translate(-95.462 -82.386)"/>
        <path id="路径_1537" data-name="路径 1537" d="M201.737,198.821a2.02,2.02,0,1,1-1.961-2.049A1.968,1.968,0,0,1,201.737,198.821Z" transform="translate(-107.208 -82.386)"/>
        <path id="路径_1538" data-name="路径 1538" d="M244.249,200.808a2.018,2.018,0,1,1,2.028-1.986A1.965,1.965,0,0,1,244.249,200.808Z" transform="translate(-121.891 -82.386)"/>
        <path id="路径_1539" data-name="路径 1539" d="M253.157,200.808a2.018,2.018,0,1,1,2.028-1.986A1.965,1.965,0,0,1,253.157,200.808Z" transform="translate(-124.827 -82.386)"/>
        <path id="路径_1540" data-name="路径 1540" d="M264.1,198.788a2.02,2.02,0,1,1-2-2.018A1.97,1.97,0,0,1,264.1,198.788Z" transform="translate(-127.765 -82.385)"/>
        <path id="路径_1541" data-name="路径 1541" d="M281.912,198.8a2.02,2.02,0,1,1-1.988-2.026A1.971,1.971,0,0,1,281.912,198.8Z" transform="translate(-133.637 -82.385)"/>
        <path id="路径_1542" data-name="路径 1542" d="M288.816,196.769a2.018,2.018,0,1,1-2.035,1.975A1.964,1.964,0,0,1,288.816,196.769Z" transform="translate(-136.574 -82.385)"/>
        <path id="路径_1543" data-name="路径 1543" d="M308.634,198.828a2.02,2.02,0,1,1-1.954-2.055A1.967,1.967,0,0,1,308.634,198.828Z" transform="translate(-142.446 -82.386)"/>
        <path id="路径_1544" data-name="路径 1544" d="M315.516,196.768a2.018,2.018,0,1,1-2.012,2A1.966,1.966,0,0,1,315.516,196.768Z" transform="translate(-145.383 -82.384)"/>
        <path id="路径_1545" data-name="路径 1545" d="M344.268,198.755a2.018,2.018,0,1,1-2.026-1.987A1.963,1.963,0,0,1,344.268,198.755Z" transform="translate(-154.194 -82.384)"/>
        <path id="路径_1546" data-name="路径 1546" d="M351.188,196.77a2.018,2.018,0,1,1-2.049,1.959A1.965,1.965,0,0,1,351.188,196.77Z" transform="translate(-157.13 -82.385)"/>
        <path id="路径_1547" data-name="路径 1547" d="M64.079,207.627A2.018,2.018,0,1,1,66,209.71,1.954,1.954,0,0,1,64.079,207.627Z" transform="translate(-63.162 -85.322)"/>
        <path id="路径_1548" data-name="路径 1548" d="M75.017,205.677a2.018,2.018,0,1,1-2.033,1.978A1.965,1.965,0,0,1,75.017,205.677Z" transform="translate(-66.098 -85.321)"/>
        <path id="路径_1549" data-name="路径 1549" d="M92.781,209.715a2.017,2.017,0,1,1,2.056-1.955A1.963,1.963,0,0,1,92.781,209.715Z" transform="translate(-71.971 -85.322)"/>
        <path id="路径_1550" data-name="路径 1550" d="M110.629,209.716a2.018,2.018,0,1,1,2.026-1.989A1.965,1.965,0,0,1,110.629,209.716Z" transform="translate(-77.844 -85.322)"/>
        <path id="路径_1551" data-name="路径 1551" d="M121.564,207.665a2.019,2.019,0,1,1-2.024-1.989A1.964,1.964,0,0,1,121.564,207.665Z" transform="translate(-80.781 -85.321)"/>
        <path id="路径_1552" data-name="路径 1552" d="M128.431,205.677a2.018,2.018,0,1,1-2,2.012A1.962,1.962,0,0,1,128.431,205.677Z" transform="translate(-83.716 -85.321)"/>
        <path id="路径_1553" data-name="路径 1553" d="M139.379,207.663a2.018,2.018,0,1,1-2.026-1.987A1.963,1.963,0,0,1,139.379,207.663Z" transform="translate(-86.654 -85.321)"/>
        <path id="路径_1554" data-name="路径 1554" d="M199.711,209.716a2.018,2.018,0,1,1,2.026-1.989A1.965,1.965,0,0,1,199.711,209.716Z" transform="translate(-107.209 -85.322)"/>
        <path id="路径_1555" data-name="路径 1555" d="M208.657,209.714a2.019,2.019,0,1,1,1.99-2.024A1.959,1.959,0,0,1,208.657,209.714Z" transform="translate(-110.146 -85.321)"/>
        <path id="路径_1556" data-name="路径 1556" d="M228.462,207.711a2.02,2.02,0,1,1-1.981-2.032A1.971,1.971,0,0,1,228.462,207.711Z" transform="translate(-116.018 -85.322)"/>
        <path id="路径_1557" data-name="路径 1557" d="M235.348,209.716a2.018,2.018,0,1,1,2.022-1.994A1.964,1.964,0,0,1,235.348,209.716Z" transform="translate(-118.955 -85.322)"/>
        <path id="路径_1558" data-name="路径 1558" d="M246.278,207.665a2.018,2.018,0,1,1-2.024-1.989A1.963,1.963,0,0,1,246.278,207.665Z" transform="translate(-121.892 -85.321)"/>
        <path id="路径_1559" data-name="路径 1559" d="M288.825,209.714a2.018,2.018,0,1,1,2-2.02A1.959,1.959,0,0,1,288.825,209.714Z" transform="translate(-136.574 -85.321)"/>
        <path id="路径_1560" data-name="路径 1560" d="M297.669,209.715a2.017,2.017,0,1,1,2.056-1.955A1.963,1.963,0,0,1,297.669,209.715Z" transform="translate(-139.51 -85.322)"/>
        <path id="路径_1561" data-name="路径 1561" d="M326.451,207.733a2.02,2.02,0,1,1-1.957-2.053A1.967,1.967,0,0,1,326.451,207.733Z" transform="translate(-148.319 -85.322)"/>
        <path id="路径_1562" data-name="路径 1562" d="M344.268,207.663a2.018,2.018,0,1,1-2.026-1.987A1.963,1.963,0,0,1,344.268,207.663Z" transform="translate(-154.194 -85.321)"/>
        <path id="路径_1563" data-name="路径 1563" d="M353.176,207.661a2.019,2.019,0,1,1-2.029-1.985A1.962,1.962,0,0,1,353.176,207.661Z" transform="translate(-157.13 -85.321)"/>
        <path id="路径_1564" data-name="路径 1564" d="M77.023,216.571A2.018,2.018,0,1,1,75,214.584,1.964,1.964,0,0,1,77.023,216.571Z" transform="translate(-66.099 -88.257)"/>
        <path id="路径_1565" data-name="路径 1565" d="M94.84,216.583a2.019,2.019,0,1,1-2.015-2A1.965,1.965,0,0,1,94.84,216.583Z" transform="translate(-71.972 -88.257)"/>
        <path id="路径_1566" data-name="路径 1566" d="M112.656,216.578a2.019,2.019,0,1,1-2.019-1.994A1.964,1.964,0,0,1,112.656,216.578Z" transform="translate(-77.845 -88.257)"/>
        <path id="路径_1567" data-name="路径 1567" d="M157.2,216.559a2.018,2.018,0,1,1-2.038-1.973A1.961,1.961,0,0,1,157.2,216.559Z" transform="translate(-92.527 -88.258)"/>
        <path id="路径_1568" data-name="路径 1568" d="M183.921,216.572a2.018,2.018,0,1,1-2.026-1.988A1.963,1.963,0,0,1,183.921,216.572Z" transform="translate(-101.337 -88.257)"/>
        <path id="路径_1569" data-name="路径 1569" d="M208.646,218.623a2.018,2.018,0,1,1,2-2.014A1.96,1.96,0,0,1,208.646,218.623Z" transform="translate(-110.146 -88.258)"/>
        <path id="路径_1570" data-name="路径 1570" d="M217.495,218.623a2.017,2.017,0,1,1,2.056-1.955A1.964,1.964,0,0,1,217.495,218.623Z" transform="translate(-113.081 -88.259)"/>
        <path id="路径_1571" data-name="路径 1571" d="M228.461,216.557a2.018,2.018,0,1,1-2.039-1.972A1.961,1.961,0,0,1,228.461,216.557Z" transform="translate(-116.019 -88.258)"/>
        <path id="路径_1572" data-name="路径 1572" d="M246.276,216.65a2.02,2.02,0,1,1-1.948-2.061A1.966,1.966,0,0,1,246.276,216.65Z" transform="translate(-121.891 -88.259)"/>
        <path id="路径_1573" data-name="路径 1573" d="M255.183,216.707a2.018,2.018,0,1,1-1.889-2.114A1.963,1.963,0,0,1,255.183,216.707Z" transform="translate(-124.829 -88.259)"/>
        <path id="路径_1574" data-name="路径 1574" d="M264.1,216.6a2.02,2.02,0,1,1-2-2.012A1.969,1.969,0,0,1,264.1,216.6Z" transform="translate(-127.765 -88.258)"/>
        <path id="路径_1575" data-name="路径 1575" d="M270.941,218.623A2.017,2.017,0,1,1,273,216.671,1.964,1.964,0,0,1,270.941,218.623Z" transform="translate(-130.7 -88.259)"/>
        <path id="路径_1576" data-name="路径 1576" d="M281.912,216.583a2.019,2.019,0,1,1-2.015-2A1.965,1.965,0,0,1,281.912,216.583Z" transform="translate(-133.638 -88.257)"/>
        <path id="路径_1577" data-name="路径 1577" d="M290.818,216.637a2.02,2.02,0,1,1-1.961-2.048A1.966,1.966,0,0,1,290.818,216.637Z" transform="translate(-136.573 -88.259)"/>
        <path id="路径_1578" data-name="路径 1578" d="M299.726,216.647a2.02,2.02,0,1,1-1.952-2.057A1.967,1.967,0,0,1,299.726,216.647Z" transform="translate(-139.509 -88.259)"/>
        <path id="路径_1579" data-name="路径 1579" d="M344.267,216.641a2.02,2.02,0,1,1-1.957-2.053A1.967,1.967,0,0,1,344.267,216.641Z" transform="translate(-154.192 -88.259)"/>
        <path id="路径_1580" data-name="路径 1580" d="M353.176,216.559a2.018,2.018,0,1,1-2.039-1.973A1.961,1.961,0,0,1,353.176,216.559Z" transform="translate(-157.13 -88.258)"/>
        <path id="路径_1581" data-name="路径 1581" d="M68.113,225.558a2.02,2.02,0,1,1-1.948-2.061A1.966,1.966,0,0,1,68.113,225.558Z" transform="translate(-63.161 -91.195)"/>
        <path id="路径_1582" data-name="路径 1582" d="M92.766,223.5a2.018,2.018,0,1,1-1.966,2.043A1.957,1.957,0,0,1,92.766,223.5Z" transform="translate(-71.971 -91.195)"/>
        <path id="路径_1583" data-name="路径 1583" d="M103.745,225.581a2.019,2.019,0,1,1-1.925-2.082A1.964,1.964,0,0,1,103.745,225.581Z" transform="translate(-74.907 -91.196)"/>
        <path id="路径_1584" data-name="路径 1584" d="M121.562,225.558a2.02,2.02,0,1,1-1.948-2.061A1.966,1.966,0,0,1,121.562,225.558Z" transform="translate(-80.78 -91.195)"/>
        <path id="路径_1585" data-name="路径 1585" d="M148.285,225.615A2.018,2.018,0,1,1,146.4,223.5,1.962,1.962,0,0,1,148.285,225.615Z" transform="translate(-89.591 -91.196)"/>
        <path id="路径_1586" data-name="路径 1586" d="M164.075,227.532a2.018,2.018,0,1,1,2.029-1.986A1.965,1.965,0,0,1,164.075,227.532Z" transform="translate(-95.463 -91.195)"/>
        <path id="路径_1587" data-name="路径 1587" d="M199.683,227.531a2.017,2.017,0,1,1,2.052-1.959A1.964,1.964,0,0,1,199.683,227.531Z" transform="translate(-107.208 -91.195)"/>
        <path id="路径_1588" data-name="路径 1588" d="M219.554,225.481a2.019,2.019,0,1,1-2.025-1.989A1.963,1.963,0,0,1,219.554,225.481Z" transform="translate(-113.083 -91.194)"/>
        <path id="路径_1589" data-name="路径 1589" d="M226.373,227.529a2.016,2.016,0,1,1,2.085-1.922A1.957,1.957,0,0,1,226.373,227.529Z" transform="translate(-116.019 -91.196)"/>
        <path id="路径_1590" data-name="路径 1590" d="M290.819,225.48a2.018,2.018,0,1,1-2.026-1.987A1.963,1.963,0,0,1,290.819,225.48Z" transform="translate(-136.575 -91.194)"/>
        <path id="路径_1591" data-name="路径 1591" d="M299.726,225.555a2.02,2.02,0,1,1-1.952-2.057A1.967,1.967,0,0,1,299.726,225.555Z" transform="translate(-139.509 -91.195)"/>
        <path id="路径_1592" data-name="路径 1592" d="M317.54,225.615a2.018,2.018,0,1,1-1.888-2.114A1.963,1.963,0,0,1,317.54,225.615Z" transform="translate(-145.384 -91.196)"/>
        <path id="路径_1593" data-name="路径 1593" d="M333.333,227.532a2.018,2.018,0,1,1,2.026-1.988A1.965,1.965,0,0,1,333.333,227.532Z" transform="translate(-151.256 -91.195)"/>
        <path id="路径_1594" data-name="路径 1594" d="M344.267,225.553a2.02,2.02,0,1,1-1.954-2.055A1.967,1.967,0,0,1,344.267,225.553Z" transform="translate(-154.192 -91.195)"/>
        <path id="路径_1595" data-name="路径 1595" d="M353.178,225.517a2.02,2.02,0,1,1-1.991-2.022A1.971,1.971,0,0,1,353.178,225.517Z" transform="translate(-157.129 -91.195)"/>
        <path id="路径_1596" data-name="路径 1596" d="M77.024,234.428a2.02,2.02,0,1,1-1.988-2.025A1.97,1.97,0,0,1,77.024,234.428Z" transform="translate(-66.098 -94.131)"/>
        <path id="路径_1597" data-name="路径 1597" d="M83.873,236.439a2.017,2.017,0,1,1,2.056-1.955A1.962,1.962,0,0,1,83.873,236.439Z" transform="translate(-69.034 -94.132)"/>
        <path id="路径_1598" data-name="路径 1598" d="M110.615,236.44a2.018,2.018,0,1,1,2.039-1.974A1.965,1.965,0,0,1,110.615,236.44Z" transform="translate(-77.843 -94.132)"/>
        <path id="路径_1599" data-name="路径 1599" d="M128.445,236.44a2.018,2.018,0,1,1,2.026-1.988A1.965,1.965,0,0,1,128.445,236.44Z" transform="translate(-83.717 -94.131)"/>
        <path id="路径_1600" data-name="路径 1600" d="M148.287,234.393a2.019,2.019,0,1,1-2.021-1.992A1.963,1.963,0,0,1,148.287,234.393Z" transform="translate(-89.59 -94.13)"/>
        <path id="路径_1601" data-name="路径 1601" d="M157.2,234.425a2.02,2.02,0,1,1-1.991-2.022A1.971,1.971,0,0,1,157.2,234.425Z" transform="translate(-92.527 -94.131)"/>
        <path id="路径_1602" data-name="路径 1602" d="M166.106,234.414a2.02,2.02,0,1,1-2-2.012A1.969,1.969,0,0,1,166.106,234.414Z" transform="translate(-95.463 -94.131)"/>
        <path id="路径_1603" data-name="路径 1603" d="M175.014,234.425a2.02,2.02,0,1,1-1.992-2.022A1.972,1.972,0,0,1,175.014,234.425Z" transform="translate(-98.4 -94.131)"/>
        <path id="路径_1604" data-name="路径 1604" d="M183.922,234.431a2.02,2.02,0,1,1-1.984-2.029A1.971,1.971,0,0,1,183.922,234.431Z" transform="translate(-101.336 -94.131)"/>
        <path id="路径_1605" data-name="路径 1605" d="M190.852,232.4a2.018,2.018,0,1,1-2.059,1.948A1.961,1.961,0,0,1,190.852,232.4Z" transform="translate(-104.273 -94.131)"/>
        <path id="路径_1606" data-name="路径 1606" d="M201.737,234.385a2.018,2.018,0,1,1-2.029-1.984A1.963,1.963,0,0,1,201.737,234.385Z" transform="translate(-107.21 -94.13)"/>
        <path id="路径_1607" data-name="路径 1607" d="M210.645,234.388a2.018,2.018,0,1,1-2.026-1.987A1.963,1.963,0,0,1,210.645,234.388Z" transform="translate(-110.146 -94.13)"/>
        <path id="路径_1608" data-name="路径 1608" d="M219.553,234.373a2.018,2.018,0,1,1-2.039-1.972A1.961,1.961,0,0,1,219.553,234.373Z" transform="translate(-113.083 -94.131)"/>
        <path id="路径_1609" data-name="路径 1609" d="M228.462,234.388a2.019,2.019,0,1,1-2.026-1.987A1.964,1.964,0,0,1,228.462,234.388Z" transform="translate(-116.019 -94.13)"/>
        <path id="路径_1610" data-name="路径 1610" d="M244.272,232.4a2.018,2.018,0,1,1-2.033,1.978A1.964,1.964,0,0,1,244.272,232.4Z" transform="translate(-121.891 -94.131)"/>
        <path id="路径_1611" data-name="路径 1611" d="M253.145,232.4a2.018,2.018,0,1,1-2,2.012A1.961,1.961,0,0,1,253.145,232.4Z" transform="translate(-124.827 -94.131)"/>
        <path id="路径_1612" data-name="路径 1612" d="M273,234.4a2.019,2.019,0,1,1-2.012-2A1.965,1.965,0,0,1,273,234.4Z" transform="translate(-130.701 -94.13)"/>
        <path id="路径_1613" data-name="路径 1613" d="M279.884,236.44a2.018,2.018,0,1,1,2.026-1.988A1.965,1.965,0,0,1,279.884,236.44Z" transform="translate(-133.637 -94.131)"/>
        <path id="路径_1614" data-name="路径 1614" d="M344.267,234.453a2.02,2.02,0,1,1-1.961-2.049A1.965,1.965,0,0,1,344.267,234.453Z" transform="translate(-154.192 -94.131)"/>
        <path id="路径_1615" data-name="路径 1615" d="M66.093,245.349a2.018,2.018,0,1,1,2.022-1.994A1.965,1.965,0,0,1,66.093,245.349Z" transform="translate(-63.161 -97.068)"/>
        <path id="路径_1616" data-name="路径 1616" d="M83.928,241.31a2.018,2.018,0,1,1-2.035,1.975A1.965,1.965,0,0,1,83.928,241.31Z" transform="translate(-69.035 -97.067)"/>
        <path id="路径_1617" data-name="路径 1617" d="M92.827,241.309a2.018,2.018,0,1,1-2.026,1.984A1.966,1.966,0,0,1,92.827,241.309Z" transform="translate(-71.971 -97.067)"/>
        <path id="路径_1618" data-name="路径 1618" d="M103.746,243.372a2.02,2.02,0,1,1-1.951-2.058A1.966,1.966,0,0,1,103.746,243.372Z" transform="translate(-74.907 -97.068)"/>
        <path id="路径_1619" data-name="路径 1619" d="M121.564,243.3a2.019,2.019,0,1,1-2.027-1.987A1.963,1.963,0,0,1,121.564,243.3Z" transform="translate(-80.781 -97.067)"/>
        <path id="路径_1620" data-name="路径 1620" d="M130.472,243.3a2.018,2.018,0,1,1-2.024-1.989A1.963,1.963,0,0,1,130.472,243.3Z" transform="translate(-83.718 -97.067)"/>
        <path id="路径_1621" data-name="路径 1621" d="M148.288,243.375a2.02,2.02,0,1,1-1.948-2.06A1.966,1.966,0,0,1,148.288,243.375Z" transform="translate(-89.59 -97.068)"/>
        <path id="路径_1622" data-name="路径 1622" d="M183.922,243.307a2.019,2.019,0,1,1-2.016-2A1.965,1.965,0,0,1,183.922,243.307Z" transform="translate(-101.337 -97.067)"/>
        <path id="路径_1623" data-name="路径 1623" d="M190.855,241.312a2.019,2.019,0,1,1-2.061,1.945A1.961,1.961,0,0,1,190.855,241.312Z" transform="translate(-104.273 -97.068)"/>
        <path id="路径_1624" data-name="路径 1624" d="M201.738,243.344a2.02,2.02,0,1,1-1.98-2.032A1.971,1.971,0,0,1,201.738,243.344Z" transform="translate(-107.209 -97.068)"/>
        <path id="路径_1625" data-name="路径 1625" d="M217.576,241.312a2.018,2.018,0,1,1-2.059,1.948A1.961,1.961,0,0,1,217.576,241.312Z" transform="translate(-113.082 -97.068)"/>
        <path id="路径_1626" data-name="路径 1626" d="M226.486,245.345a2.018,2.018,0,1,1,1.977-2.036A1.957,1.957,0,0,1,226.486,245.345Z" transform="translate(-116.019 -97.067)"/>
        <path id="路径_1627" data-name="路径 1627" d="M235.312,245.347a2.017,2.017,0,1,1,2.056-1.955A1.963,1.963,0,0,1,235.312,245.347Z" transform="translate(-118.954 -97.068)"/>
        <path id="路径_1628" data-name="路径 1628" d="M244.251,245.348a2.018,2.018,0,1,1,2.027-1.988A1.965,1.965,0,0,1,244.251,245.348Z" transform="translate(-121.891 -97.068)"/>
        <path id="路径_1629" data-name="路径 1629" d="M255.186,243.283a2.018,2.018,0,1,1-2.039-1.973A1.962,1.962,0,0,1,255.186,243.283Z" transform="translate(-124.829 -97.067)"/>
        <path id="路径_1630" data-name="路径 1630" d="M264.1,243.337a2.02,2.02,0,1,1-1.988-2.026A1.971,1.971,0,0,1,264.1,243.337Z" transform="translate(-127.765 -97.067)"/>
        <path id="路径_1631" data-name="路径 1631" d="M273,243.431a2.018,2.018,0,1,1-1.888-2.114A1.962,1.962,0,0,1,273,243.431Z" transform="translate(-130.702 -97.069)"/>
        <path id="路径_1632" data-name="路径 1632" d="M281.913,243.329a2.02,2.02,0,1,1-2-2.018A1.971,1.971,0,0,1,281.913,243.329Z" transform="translate(-133.638 -97.067)"/>
        <path id="路径_1633" data-name="路径 1633" d="M288.764,245.348a2.017,2.017,0,1,1,2.053-1.959A1.964,1.964,0,0,1,288.764,245.348Z" transform="translate(-136.573 -97.069)"/>
        <path id="路径_1634" data-name="路径 1634" d="M299.727,243.3a2.018,2.018,0,1,1-2.026-1.987A1.963,1.963,0,0,1,299.727,243.3Z" transform="translate(-139.511 -97.067)"/>
        <path id="路径_1635" data-name="路径 1635" d="M306.614,245.349a2.018,2.018,0,1,1,2.021-1.994A1.964,1.964,0,0,1,306.614,245.349Z" transform="translate(-142.446 -97.068)"/>
        <path id="路径_1636" data-name="路径 1636" d="M317.543,243.362a2.02,2.02,0,1,1-1.962-2.048A1.965,1.965,0,0,1,317.543,243.362Z" transform="translate(-145.383 -97.068)"/>
        <path id="路径_1637" data-name="路径 1637" d="M335.36,243.348a2.02,2.02,0,1,1-1.976-2.036A1.97,1.97,0,0,1,335.36,243.348Z" transform="translate(-151.256 -97.068)"/>
        <path id="路径_1638" data-name="路径 1638" d="M342.241,245.348a2.018,2.018,0,1,1,2.027-1.988A1.965,1.965,0,0,1,342.241,245.348Z" transform="translate(-154.192 -97.068)"/>
        <path id="路径_1639" data-name="路径 1639" d="M137.324,254.255a2.017,2.017,0,1,1,2.056-1.955A1.963,1.963,0,0,1,137.324,254.255Z" transform="translate(-86.654 -100.005)"/>
        <path id="路径_1640" data-name="路径 1640" d="M148.288,252.245a2.02,2.02,0,1,1-1.988-2.025A1.972,1.972,0,0,1,148.288,252.245Z" transform="translate(-89.59 -100.004)"/>
        <path id="路径_1641" data-name="路径 1641" d="M183.922,252.245a2.02,2.02,0,1,1-1.988-2.025A1.971,1.971,0,0,1,183.922,252.245Z" transform="translate(-101.336 -100.004)"/>
        <path id="路径_1642" data-name="路径 1642" d="M192.827,252.283a2.02,2.02,0,1,1-1.948-2.06A1.965,1.965,0,0,1,192.827,252.283Z" transform="translate(-104.272 -100.005)"/>
        <path id="路径_1643" data-name="路径 1643" d="M201.739,252.23a2.02,2.02,0,1,1-2-2.012A1.969,1.969,0,0,1,201.739,252.23Z" transform="translate(-107.209 -100.004)"/>
        <path id="路径_1644" data-name="路径 1644" d="M219.553,252.274a2.02,2.02,0,1,1-1.957-2.052A1.968,1.968,0,0,1,219.553,252.274Z" transform="translate(-113.081 -100.005)"/>
        <path id="路径_1645" data-name="路径 1645" d="M226.423,250.218a2.018,2.018,0,1,1-2,2.01A1.962,1.962,0,0,1,226.423,250.218Z" transform="translate(-116.018 -100.004)"/>
        <path id="路径_1646" data-name="路径 1646" d="M246.28,252.241a2.02,2.02,0,1,1-1.991-2.022A1.971,1.971,0,0,1,246.28,252.241Z" transform="translate(-121.892 -100.004)"/>
        <path id="路径_1647" data-name="路径 1647" d="M281.91,252.271a2.02,2.02,0,1,1-1.961-2.049A1.968,1.968,0,0,1,281.91,252.271Z" transform="translate(-133.637 -100.005)"/>
        <path id="路径_1648" data-name="路径 1648" d="M317.543,252.2a2.018,2.018,0,1,1-2.026-1.987A1.962,1.962,0,0,1,317.543,252.2Z" transform="translate(-145.384 -100.003)"/>
        <path id="路径_1649" data-name="路径 1649" d="M326.45,252.277a2.02,2.02,0,1,1-1.954-2.055A1.967,1.967,0,0,1,326.45,252.277Z" transform="translate(-148.319 -100.005)"/>
        <path id="路径_1650" data-name="路径 1650" d="M353.176,252.206a2.018,2.018,0,1,1-2.024-1.989A1.963,1.963,0,0,1,353.176,252.206Z" transform="translate(-157.13 -100.003)"/>
        <path id="路径_1651" data-name="路径 1651" d="M175.01,29.6a2.019,2.019,0,1,1-1.925-2.082A1.963,1.963,0,0,1,175.01,29.6Z" transform="translate(-98.399 -26.593)"/>
        <path id="路径_1652" data-name="路径 1652" d="M139.38,261.156a2.02,2.02,0,1,1-1.984-2.029A1.97,1.97,0,0,1,139.38,261.156Z" transform="translate(-86.653 -102.941)"/>
        <path id="路径_1653" data-name="路径 1653" d="M157.2,261.139a2.02,2.02,0,1,1-2-2.012A1.97,1.97,0,0,1,157.2,261.139Z" transform="translate(-92.527 -102.94)"/>
        <path id="路径_1654" data-name="路径 1654" d="M164.064,263.164a2.017,2.017,0,1,1,2.039-1.974A1.964,1.964,0,0,1,164.064,263.164Z" transform="translate(-95.462 -102.941)"/>
        <path id="路径_1655" data-name="路径 1655" d="M175.012,261.185a2.02,2.02,0,1,1-1.955-2.055A1.968,1.968,0,0,1,175.012,261.185Z" transform="translate(-98.399 -102.941)"/>
        <path id="路径_1656" data-name="路径 1656" d="M192.831,261.15a2.02,2.02,0,1,1-1.991-2.022A1.971,1.971,0,0,1,192.831,261.15Z" transform="translate(-104.273 -102.941)"/>
        <path id="路径_1657" data-name="路径 1657" d="M199.744,263.163a2.018,2.018,0,1,1,1.995-2.02A1.959,1.959,0,0,1,199.744,263.163Z" transform="translate(-107.209 -102.94)"/>
        <path id="路径_1658" data-name="路径 1658" d="M208.656,263.163a2.018,2.018,0,1,1,1.991-2.024A1.957,1.957,0,0,1,208.656,263.163Z" transform="translate(-110.146 -102.94)"/>
        <path id="路径_1659" data-name="路径 1659" d="M219.552,261.188a2.02,2.02,0,1,1-1.951-2.057A1.966,1.966,0,0,1,219.552,261.188Z" transform="translate(-113.081 -102.941)"/>
        <path id="路径_1660" data-name="路径 1660" d="M262.073,259.125a2.018,2.018,0,1,1-2.018,1.994A1.966,1.966,0,0,1,262.073,259.125Z" transform="translate(-127.764 -102.94)"/>
        <path id="路径_1661" data-name="路径 1661" d="M273,261.178a2.02,2.02,0,1,1-1.962-2.048A1.966,1.966,0,0,1,273,261.178Z" transform="translate(-130.7 -102.941)"/>
        <path id="路径_1662" data-name="路径 1662" d="M279.838,259.129a2.018,2.018,0,1,1-1.966,2.043A1.956,1.956,0,0,1,279.838,259.129Z" transform="translate(-133.637 -102.941)"/>
        <path id="路径_1663" data-name="路径 1663" d="M297.666,263.164a2.017,2.017,0,1,1,2.058-1.952A1.963,1.963,0,0,1,297.666,263.164Z" transform="translate(-139.51 -102.942)"/>
        <path id="路径_1664" data-name="路径 1664" d="M315.5,259.126a2.018,2.018,0,1,1-2,2.012A1.961,1.961,0,0,1,315.5,259.126Z" transform="translate(-145.383 -102.94)"/>
        <path id="路径_1665" data-name="路径 1665" d="M335.359,261.179a2.02,2.02,0,1,1-1.961-2.049A1.968,1.968,0,0,1,335.359,261.179Z" transform="translate(-151.256 -102.941)"/>
        <path id="路径_1666" data-name="路径 1666" d="M351.121,263.164a2.017,2.017,0,1,1,2.053-1.959A1.963,1.963,0,0,1,351.121,263.164Z" transform="translate(-157.128 -102.941)"/>
        <path id="路径_1667" data-name="路径 1667" d="M155.155,27.514a2.018,2.018,0,1,1-2,2.012A1.961,1.961,0,0,1,155.155,27.514Z" transform="translate(-92.526 -26.592)"/>
        <path id="路径_1668" data-name="路径 1668" d="M157.195,270.09a2.02,2.02,0,1,1-1.957-2.053A1.968,1.968,0,0,1,157.195,270.09Z" transform="translate(-92.526 -105.877)"/>
        <path id="路径_1669" data-name="路径 1669" d="M175.013,270.008a2.018,2.018,0,1,1-2.039-1.973A1.962,1.962,0,0,1,175.013,270.008Z" transform="translate(-98.401 -105.877)"/>
        <path id="路径_1670" data-name="路径 1670" d="M201.739,270.058a2.02,2.02,0,1,1-1.991-2.022A1.971,1.971,0,0,1,201.739,270.058Z" transform="translate(-107.209 -105.877)"/>
        <path id="路径_1671" data-name="路径 1671" d="M228.463,270.047a2.02,2.02,0,1,1-2-2.012A1.969,1.969,0,0,1,228.463,270.047Z" transform="translate(-116.019 -105.877)"/>
        <path id="路径_1672" data-name="路径 1672" d="M255.186,270.02a2.018,2.018,0,1,1-2.026-1.987A1.963,1.963,0,0,1,255.186,270.02Z" transform="translate(-124.829 -105.876)"/>
        <path id="路径_1673" data-name="路径 1673" d="M264.094,270.087a2.02,2.02,0,1,1-1.961-2.049A1.968,1.968,0,0,1,264.094,270.087Z" transform="translate(-127.764 -105.877)"/>
        <path id="路径_1674" data-name="路径 1674" d="M277.875,269.985a2.018,2.018,0,1,1,1.922,2.083A1.954,1.954,0,0,1,277.875,269.985Z" transform="translate(-133.638 -105.877)"/>
        <path id="路径_1675" data-name="路径 1675" d="M315.55,272.071a2.018,2.018,0,1,1,1.995-2.02A1.958,1.958,0,0,1,315.55,272.071Z" transform="translate(-145.384 -105.877)"/>
        <path id="路径_1676" data-name="路径 1676" d="M342.227,268.035a2.017,2.017,0,1,1-2,2.012A1.962,1.962,0,0,1,342.227,268.035Z" transform="translate(-154.192 -105.877)"/>
        <path id="路径_1677" data-name="路径 1677" d="M351.135,268.035a2.017,2.017,0,1,1-2,2.012A1.962,1.962,0,0,1,351.135,268.035Z" transform="translate(-157.128 -105.877)"/>
        <path id="路径_1678" data-name="路径 1678" d="M137.4,31.549a2.018,2.018,0,1,1,1.977-2.036A1.957,1.957,0,0,1,137.4,31.549Z" transform="translate(-86.654 -26.591)"/>
        <path id="路径_1679" data-name="路径 1679" d="M137.331,276.944a2.017,2.017,0,1,1-1.99,2.022A1.96,1.96,0,0,1,137.331,276.944Z" transform="translate(-86.653 -108.813)"/>
        <path id="路径_1680" data-name="路径 1680" d="M175.012,278.995a2.02,2.02,0,1,1-1.961-2.049A1.968,1.968,0,0,1,175.012,278.995Z" transform="translate(-98.399 -108.814)"/>
        <path id="路径_1681" data-name="路径 1681" d="M192.828,279a2.02,2.02,0,1,1-1.951-2.058A1.967,1.967,0,0,1,192.828,279Z" transform="translate(-104.272 -108.814)"/>
        <path id="路径_1682" data-name="路径 1682" d="M219.55,279.064a2.018,2.018,0,1,1-1.888-2.114A1.963,1.963,0,0,1,219.55,279.064Z" transform="translate(-113.083 -108.815)"/>
        <path id="路径_1683" data-name="路径 1683" d="M228.462,278.933a2.019,2.019,0,1,1-2.021-1.992A1.963,1.963,0,0,1,228.462,278.933Z" transform="translate(-116.019 -108.813)"/>
        <path id="路径_1684" data-name="路径 1684" d="M246.278,278.929a2.018,2.018,0,1,1-2.026-1.987A1.963,1.963,0,0,1,246.278,278.929Z" transform="translate(-121.892 -108.813)"/>
        <path id="路径_1685" data-name="路径 1685" d="M253.235,276.947a2.018,2.018,0,1,1-2.083,1.921A1.958,1.958,0,0,1,253.235,276.947Z" transform="translate(-124.829 -108.814)"/>
        <path id="路径_1686" data-name="路径 1686" d="M279.934,276.945a2.018,2.018,0,1,1-2.059,1.948A1.962,1.962,0,0,1,279.934,276.945Z" transform="translate(-133.638 -108.814)"/>
        <path id="路径_1687" data-name="路径 1687" d="M288.792,280.981a2.018,2.018,0,1,1,2.026-1.988A1.965,1.965,0,0,1,288.792,280.981Z" transform="translate(-136.573 -108.814)"/>
        <path id="路径_1688" data-name="路径 1688" d="M297.7,280.981a2.018,2.018,0,1,1,2.026-1.988A1.965,1.965,0,0,1,297.7,280.981Z" transform="translate(-139.51 -108.814)"/>
        <path id="路径_1689" data-name="路径 1689" d="M306.646,280.979a2.018,2.018,0,1,1,1.991-2.024A1.958,1.958,0,0,1,306.646,280.979Z" transform="translate(-142.447 -108.813)"/>
        <path id="路径_1690" data-name="路径 1690" d="M315.517,280.981a2.018,2.018,0,1,1,2.026-1.988A1.965,1.965,0,0,1,315.517,280.981Z" transform="translate(-145.383 -108.814)"/>
        <path id="路径_1691" data-name="路径 1691" d="M326.45,279.007a2.02,2.02,0,1,1-1.949-2.061A1.966,1.966,0,0,1,326.45,279.007Z" transform="translate(-148.319 -108.814)"/>
        <path id="路径_1692" data-name="路径 1692" d="M344.269,278.94a2.019,2.019,0,1,1-2.015-2A1.965,1.965,0,0,1,344.269,278.94Z" transform="translate(-154.193 -108.813)"/>
        <path id="路径_1693" data-name="路径 1693" d="M353.176,278.994a2.02,2.02,0,1,1-1.962-2.049A1.966,1.966,0,0,1,353.176,278.994Z" transform="translate(-157.129 -108.814)"/>
        <path id="路径_1694" data-name="路径 1694" d="M162.069,287.8a2.018,2.018,0,1,1,1.922,2.083A1.954,1.954,0,0,1,162.069,287.8Z" transform="translate(-95.464 -111.75)"/>
        <path id="路径_1695" data-name="路径 1695" d="M173,289.889a2.018,2.018,0,1,1,2.016-2A1.963,1.963,0,0,1,173,289.889Z" transform="translate(-98.399 -111.75)"/>
        <path id="路径_1696" data-name="路径 1696" d="M192.829,287.9a2.02,2.02,0,1,1-1.962-2.049A1.966,1.966,0,0,1,192.829,287.9Z" transform="translate(-104.272 -111.75)"/>
        <path id="路径_1697" data-name="路径 1697" d="M199.682,289.889a2.017,2.017,0,1,1,2.053-1.959A1.963,1.963,0,0,1,199.682,289.889Z" transform="translate(-107.208 -111.751)"/>
        <path id="路径_1698" data-name="路径 1698" d="M215.512,287.869a2.02,2.02,0,1,1,1.994,2.019A1.962,1.962,0,0,1,215.512,287.869Z" transform="translate(-113.081 -111.75)"/>
        <path id="路径_1699" data-name="路径 1699" d="M226.435,289.889a2.018,2.018,0,1,1,2.026-1.988A1.965,1.965,0,0,1,226.435,289.889Z" transform="translate(-116.018 -111.75)"/>
        <path id="路径_1700" data-name="路径 1700" d="M237.371,287.842a2.019,2.019,0,1,1-2.022-1.992A1.964,1.964,0,0,1,237.371,287.842Z" transform="translate(-118.956 -111.749)"/>
        <path id="路径_1701" data-name="路径 1701" d="M244.239,285.851a2.018,2.018,0,1,1-2,2.01A1.961,1.961,0,0,1,244.239,285.851Z" transform="translate(-121.891 -111.75)"/>
        <path id="路径_1702" data-name="路径 1702" d="M270.948,289.889A2.017,2.017,0,1,1,273,287.93,1.964,1.964,0,0,1,270.948,289.889Z" transform="translate(-130.7 -111.751)"/>
        <path id="路径_1703" data-name="路径 1703" d="M279.852,289.888a2.017,2.017,0,1,1,2.056-1.955A1.964,1.964,0,0,1,279.852,289.888Z" transform="translate(-133.637 -111.751)"/>
        <path id="路径_1704" data-name="路径 1704" d="M288.806,285.85a2.018,2.018,0,1,1-2.026,1.984A1.966,1.966,0,0,1,288.806,285.85Z" transform="translate(-136.574 -111.749)"/>
        <path id="路径_1705" data-name="路径 1705" d="M315.569,285.853a2.018,2.018,0,1,1-2.061,1.945A1.961,1.961,0,0,1,315.569,285.853Z" transform="translate(-145.384 -111.75)"/>
        <path id="路径_1706" data-name="路径 1706" d="M344.268,287.837a2.018,2.018,0,1,1-2.026-1.987A1.963,1.963,0,0,1,344.268,287.837Z" transform="translate(-154.194 -111.749)"/>
        <path id="路径_1707" data-name="路径 1707" d="M351.2,285.853a2.018,2.018,0,1,1-2.061,1.945A1.961,1.961,0,0,1,351.2,285.853Z" transform="translate(-157.13 -111.75)"/>
        <path id="路径_1708" data-name="路径 1708" d="M139.38,296.811a2.02,2.02,0,1,1-1.962-2.048A1.965,1.965,0,0,1,139.38,296.811Z" transform="translate(-86.653 -114.687)"/>
        <path id="路径_1709" data-name="路径 1709" d="M146.335,294.763a2.018,2.018,0,1,1-2.082,1.921A1.959,1.959,0,0,1,146.335,294.763Z" transform="translate(-89.591 -114.687)"/>
        <path id="路径_1710" data-name="路径 1710" d="M217.495,298.8a2.017,2.017,0,1,1,2.056-1.955A1.964,1.964,0,0,1,217.495,298.8Z" transform="translate(-113.081 -114.687)"/>
        <path id="路径_1711" data-name="路径 1711" d="M226.4,298.8a2.017,2.017,0,1,1,2.056-1.955A1.964,1.964,0,0,1,226.4,298.8Z" transform="translate(-116.018 -114.687)"/>
        <path id="路径_1712" data-name="路径 1712" d="M253.128,298.8a2.017,2.017,0,1,1,2.056-1.955A1.963,1.963,0,0,1,253.128,298.8Z" transform="translate(-124.827 -114.687)"/>
        <path id="路径_1713" data-name="路径 1713" d="M270.939,298.8A2.017,2.017,0,1,1,273,296.847,1.961,1.961,0,0,1,270.939,298.8Z" transform="translate(-130.7 -114.688)"/>
        <path id="路径_1714" data-name="路径 1714" d="M317.543,296.815a2.02,2.02,0,1,1-1.958-2.052A1.968,1.968,0,0,1,317.543,296.815Z" transform="translate(-145.383 -114.687)"/>
        <path id="路径_1715" data-name="路径 1715" d="M353.178,296.772a2.019,2.019,0,1,1-2-2.013A1.97,1.97,0,0,1,353.178,296.772Z" transform="translate(-157.13 -114.686)"/>
        <path id="路径_1716" data-name="路径 1716" d="M139.379,305.641a2.018,2.018,0,1,1-2.039-1.974A1.961,1.961,0,0,1,139.379,305.641Z" transform="translate(-86.654 -117.623)"/>
        <path id="路径_1717" data-name="路径 1717" d="M157.195,305.732a2.02,2.02,0,1,1-1.949-2.06A1.967,1.967,0,0,1,157.195,305.732Z" transform="translate(-92.526 -117.624)"/>
        <path id="路径_1718" data-name="路径 1718" d="M175.012,305.719a2.02,2.02,0,1,1-1.961-2.049A1.968,1.968,0,0,1,175.012,305.719Z" transform="translate(-98.399 -117.624)"/>
        <path id="路径_1719" data-name="路径 1719" d="M217.49,307.7a2.017,2.017,0,1,1,2.061-1.949A1.961,1.961,0,0,1,217.49,307.7Z" transform="translate(-113.082 -117.624)"/>
        <path id="路径_1720" data-name="路径 1720" d="M228.462,305.653a2.019,2.019,0,1,1-2.026-1.987A1.963,1.963,0,0,1,228.462,305.653Z" transform="translate(-116.019 -117.622)"/>
        <path id="路径_1721" data-name="路径 1721" d="M237.369,305.726a2.02,2.02,0,1,1-1.954-2.055A1.968,1.968,0,0,1,237.369,305.726Z" transform="translate(-118.954 -117.623)"/>
        <path id="路径_1722" data-name="路径 1722" d="M253.211,307.7a2.018,2.018,0,1,1,1.977-2.036A1.956,1.956,0,0,1,253.211,307.7Z" transform="translate(-124.829 -117.622)"/>
        <path id="路径_1723" data-name="路径 1723" d="M273,305.651a2.018,2.018,0,1,1-2.028-1.985A1.962,1.962,0,0,1,273,305.651Z" transform="translate(-130.702 -117.622)"/>
        <path id="路径_1724" data-name="路径 1724" d="M288.8,303.666a2.018,2.018,0,1,1-2.018,1.994A1.967,1.967,0,0,1,288.8,303.666Z" transform="translate(-136.574 -117.622)"/>
        <path id="路径_1725" data-name="路径 1725" d="M317.544,305.653a2.019,2.019,0,1,1-2.026-1.987A1.963,1.963,0,0,1,317.544,305.653Z" transform="translate(-145.384 -117.622)"/>
        <path id="路径_1726" data-name="路径 1726" d="M342.274,307.7a2.018,2.018,0,1,1,2-2.02A1.959,1.959,0,0,1,342.274,307.7Z" transform="translate(-154.193 -117.623)"/>
        <path id="路径_1727" data-name="路径 1727" d="M175.012,314.547a2.018,2.018,0,1,1-2.039-1.972A1.961,1.961,0,0,1,175.012,314.547Z" transform="translate(-98.401 -120.559)"/>
        <path id="路径_1728" data-name="路径 1728" d="M192.83,314.573a2.019,2.019,0,1,1-2.015-2A1.964,1.964,0,0,1,192.83,314.573Z" transform="translate(-104.273 -120.559)"/>
        <path id="路径_1729" data-name="路径 1729" d="M208.624,316.614a2.018,2.018,0,1,1,2.02-1.994A1.965,1.965,0,0,1,208.624,316.614Z" transform="translate(-110.145 -120.56)"/>
        <path id="路径_1730" data-name="路径 1730" d="M219.553,314.628a2.02,2.02,0,1,1-1.961-2.049A1.968,1.968,0,0,1,219.553,314.628Z" transform="translate(-113.082 -120.56)"/>
        <path id="路径_1731" data-name="路径 1731" d="M246.277,314.627a2.02,2.02,0,1,1-1.961-2.049A1.968,1.968,0,0,1,246.277,314.627Z" transform="translate(-121.891 -120.56)"/>
        <path id="路径_1732" data-name="路径 1732" d="M253.177,312.575a2.018,2.018,0,1,1-2.029,1.981A1.965,1.965,0,0,1,253.177,312.575Z" transform="translate(-124.828 -120.559)"/>
        <path id="路径_1733" data-name="路径 1733" d="M270.962,312.575a2.018,2.018,0,1,1-2,2.012A1.961,1.961,0,0,1,270.962,312.575Z" transform="translate(-130.7 -120.559)"/>
        <path id="路径_1734" data-name="路径 1734" d="M279.856,316.613a2.017,2.017,0,1,1,2.053-1.959A1.963,1.963,0,0,1,279.856,316.613Z" transform="translate(-133.637 -120.56)"/>
        <path id="路径_1735" data-name="路径 1735" d="M315.471,312.578a2.018,2.018,0,1,1-1.967,2.043A1.956,1.956,0,0,1,315.471,312.578Z" transform="translate(-145.383 -120.56)"/>
        <path id="路径_1736" data-name="路径 1736" d="M324.464,312.577a2.018,2.018,0,1,1-2.049,1.959A1.963,1.963,0,0,1,324.464,312.577Z" transform="translate(-148.32 -120.56)"/>
        <path id="路径_1737" data-name="路径 1737" d="M342.265,312.575a2.018,2.018,0,1,1-2.035,1.976A1.965,1.965,0,0,1,342.265,312.575Z" transform="translate(-154.193 -120.559)"/>
        <path id="路径_1738" data-name="路径 1738" d="M351.149,316.614a2.018,2.018,0,1,1,2.026-1.989A1.965,1.965,0,0,1,351.149,316.614Z" transform="translate(-157.129 -120.56)"/>
        <path id="路径_1739" data-name="路径 1739" d="M97.947,43.995V61.371H80.571V43.995Z" transform="translate(-68.599 -32.024)"/>
        <path id="路径_1740" data-name="路径 1740" d="M312.168,43.956h17.378V61.332H312.168Z" transform="translate(-144.943 -32.012)"/>
        <path id="路径_1741" data-name="路径 1741" d="M80.556,275.568H97.934v17.376H80.556Z" transform="translate(-68.594 -108.36)"/>
      </g>
    </g>
    <rect id="矩形_1195" data-name="矩形 1195" width="238" height="238" transform="translate(738.137 276.822)" fill="none"/>
  </g>
</svg>
