<svg xmlns="http://www.w3.org/2000/svg" xmlns:xlink="http://www.w3.org/1999/xlink" width="17" height="17" viewBox="0 0 17 17">
  <defs>
    <style>
      .cls-1, .cls-2, .cls-5 {
        fill: none;
      }

      .cls-1, .cls-2 {
        clip-rule: evenodd;
      }

      .cls-2, .cls-5, .cls-7 {
        stroke: #333;
      }

      .cls-2, .cls-7 {
        stroke-width: 2px;
      }

      .cls-3 {
        clip-path: url(#clip-path);
      }

      .cls-4 {
        fill: #14af64;
      }

      .cls-6 {
        clip-path: url(#clip-path-2);
      }

      .cls-7 {
        fill: #fff;
      }
    </style>
    <clipPath id="clip-path">
      <path id="路径_370" data-name="路径 370" class="cls-1" d="M16-15.9A8.043,8.043,0,0,0,7.9-24,8,8,0,0,0,0-15.9,7.958,7.958,0,0,0,7.9-8,8,8,0,0,0,16-15.9Z" transform="translate(0 24)"/>
    </clipPath>
    <clipPath id="clip-path-2">
      <path id="路径_372" data-name="路径 372" class="cls-2" d="M9.133-10.749,6.762-13.121,6-12.359,8.626-9.733a.718.718,0,0,0,1.015,0l5.505-5.505h0L14.384-16Z" transform="translate(-6 16)"/>
    </clipPath>
  </defs>
  <g id="组_1081" data-name="组 1081" transform="translate(0.5 24.5)">
    <g id="组_4488" data-name="组 4488">
      <g id="组_1079" data-name="组 1079" class="cls-3" transform="translate(0 -24)">
        <path id="路径_369" data-name="路径 369" class="cls-4" d="M-5-29H17.667V-6.333H-5Z" transform="translate(1.667 25.667)"/>
      </g>
      <circle id="椭圆_86" data-name="椭圆 86" class="cls-5" cx="8" cy="8" r="8" transform="translate(0 -24)"/>
    </g>
    <g id="组_1080" data-name="组 1080" class="cls-6" transform="translate(3.534 -19.001)">
      <path id="路径_371" data-name="路径 371" class="cls-7" d="M1-21H17.326V-7.343H1Z" transform="translate(-4.59 17.41)"/>
    </g>
  </g>
</svg>
