<svg width="16" height="16" viewBox="0 0 16 16" fill="none" xmlns="http://www.w3.org/2000/svg">
<path fill-rule="evenodd" clip-rule="evenodd" d="M4.5 1.5H1.5V4.5H2.5V11.5H1.5V14.5H4.5V13.5H11.5V14.5H14.5V11.5H13.5V4.5H14.5V1.5H11.5V2.5H4.5V1.5ZM11.5 11.5V12.5H9.20718L12.5 9.20718V11.5H11.5ZM12.5 7.79297L7.79297 12.5H4.5V12.2072L12.2072 4.5H12.5V7.79297ZM11.5 3.79297V3.5H8.20718L3.5 8.20718V11.5H3.79297L11.5 3.79297ZM3.5 6.79297L6.79297 3.5H4.5V4.5H3.5V6.79297ZM2.5 3.5V2.5H3.5V3.5H2.5ZM2.5 12.5V13.5H3.5V12.5H2.5ZM12.5 3.5V2.5H13.5V3.5H12.5ZM12.5 12.5V13.5H13.5V12.5H12.5Z" fill="#C8D0CC"/>
</svg>
