<svg width="24" height="24" viewBox="0 0 24 24" fill="none" xmlns="http://www.w3.org/2000/svg">
<path fill-rule="evenodd" clip-rule="evenodd" d="M18.4158 6.68824C18.7713 6.41395 19.0002 5.98371 19.0002 5.5C19.0002 4.67157 18.3287 4 17.5002 4C16.8539 4 16.303 4.40879 16.0921 4.98192C15.796 4.83048 15.4903 4.69497 15.1763 4.57651C15.5437 3.6529 16.4457 3 17.5002 3C18.8809 3 20.0002 4.11929 20.0002 5.5C20.0002 6.28266 19.6406 6.98132 19.0775 7.43973C18.8709 7.17705 18.6499 6.92617 18.4158 6.68824ZM12 21C16.4183 21 20 17.4183 20 13C20 8.58172 16.4183 5 12 5C7.58172 5 4 8.58172 4 13C4 17.4183 7.58172 21 12 21ZM12 22C14.3054 22 16.4083 21.1332 18.0006 19.7077L19.6464 21.3536L20.3536 20.6464L18.7077 19.0006C20.1332 17.4083 21 15.3054 21 13C21 8.02944 16.9706 4 12 4C10.882 4 9.81154 4.20387 8.82388 4.57646C8.45651 3.65287 7.5545 3 6.5 3C5.11929 3 4 4.11929 4 5.5C4 6.28262 4.35961 6.98125 4.92261 7.43965C3.71836 8.97034 3 10.9013 3 13C3 15.3054 3.86679 17.4083 5.29225 19.0006L3.64645 20.6464L4.35355 21.3536L5.99936 19.7077C7.59171 21.1332 9.69463 22 12 22ZM5.58432 6.68817C6.25916 6.00231 7.04313 5.42415 7.9081 4.98185C7.69714 4.40875 7.14631 4 6.5 4C5.67157 4 5 4.67157 5 5.5C5 5.98367 5.22892 6.41387 5.58432 6.68817ZM11.5 7V13V13.5H12H16V12.5H12.5V7H11.5Z" fill="#606C66"/>
</svg>
