<?xml version="1.0" encoding="UTF-8"?>
<svg width="76px" height="4px" viewBox="0 0 76 4" version="1.1" xmlns="http://www.w3.org/2000/svg" xmlns:xlink="http://www.w3.org/1999/xlink">
    <title>编组 3</title>
    <g id="页面-1" stroke="none" stroke-width="1" fill="none" fill-rule="evenodd">
        <g id="提交作业-还未有方案" transform="translate(-922.000000, -264.000000)">
            <g id="编组-3" transform="translate(560.000000, 231.000000)">
                <g id="编组-11" transform="translate(362.000000, 33.000000)">
                    <circle id="椭圆形备份-3" fill="#E6E6E6" transform="translate(2.000000, 2.000000) scale(-1, 1) translate(-2.000000, -2.000000) " cx="2" cy="2" r="2"></circle>
                    <circle id="椭圆形备份-4" fill="#D9D9D9" transform="translate(14.000000, 2.000000) scale(-1, 1) translate(-14.000000, -2.000000) " cx="14" cy="2" r="2"></circle>
                    <circle id="椭圆形备份-5" fill="#D9D9D9" transform="translate(26.000000, 2.000000) scale(-1, 1) translate(-26.000000, -2.000000) " cx="26" cy="2" r="2"></circle>
                    <circle id="椭圆形备份-6" fill="#878787" transform="translate(38.000000, 2.000000) scale(-1, 1) translate(-38.000000, -2.000000) " cx="38" cy="2" r="2"></circle>
                    <circle id="椭圆形备份-7" fill="#D9D9D9" transform="translate(50.000000, 2.000000) scale(-1, 1) translate(-50.000000, -2.000000) " cx="50" cy="2" r="2"></circle>
                    <circle id="椭圆形备份-8" fill="#D9D9D9" transform="translate(62.000000, 2.000000) scale(-1, 1) translate(-62.000000, -2.000000) " cx="62" cy="2" r="2"></circle>
                    <circle id="椭圆形备份-9" fill="#E6E6E6" transform="translate(74.000000, 2.000000) scale(-1, 1) translate(-74.000000, -2.000000) " cx="74" cy="2" r="2"></circle>
                </g>
            </g>
        </g>
    </g>
</svg>