<svg width="50" height="42" viewBox="0 0 50 42" fill="none" xmlns="http://www.w3.org/2000/svg">
<g filter="url(#filter0_d)">
<rect x="4" y="2" width="42" height="32" rx="2" fill="white"/>
</g>
<g filter="url(#filter1_d)">
<path d="M25 20L4 7V4C4 2.89543 4.89543 2 6 2H44C45.1046 2 46 2.89543 46 4V7L25 20Z" fill="white"/>
</g>
<path d="M23.8513 13.8515L24.9995 15L26.1488 13.851C26.6938 13.3061 27.433 13 28.2037 13C29.3046 13 30.311 13.622 30.8033 14.6067L30.9233 14.8465C31.5663 16.1325 31.3142 17.6858 30.2974 18.7024L24.9995 24L19.7021 18.7022C18.6856 17.6856 18.4335 16.1327 19.0763 14.8468L19.1962 14.6069C19.6884 13.6221 20.6949 13 21.7959 13C22.5669 13 23.3062 13.3063 23.8513 13.8515Z" fill="#EC5D5D"/>
<defs>
<filter id="filter0_d" x="0" y="2" width="50" height="40" filterUnits="userSpaceOnUse" color-interpolation-filters="sRGB">
<feFlood flood-opacity="0" result="BackgroundImageFix"/>
<feColorMatrix in="SourceAlpha" type="matrix" values="0 0 0 0 0 0 0 0 0 0 0 0 0 0 0 0 0 0 127 0"/>
<feOffset dy="4"/>
<feGaussianBlur stdDeviation="2"/>
<feColorMatrix type="matrix" values="0 0 0 0 0 0 0 0 0 0 0 0 0 0 0 0 0 0 0.1 0"/>
<feBlend mode="normal" in2="BackgroundImageFix" result="effect1_dropShadow"/>
<feBlend mode="normal" in="SourceGraphic" in2="effect1_dropShadow" result="shape"/>
</filter>
<filter id="filter1_d" x="0" y="0" width="50" height="26" filterUnits="userSpaceOnUse" color-interpolation-filters="sRGB">
<feFlood flood-opacity="0" result="BackgroundImageFix"/>
<feColorMatrix in="SourceAlpha" type="matrix" values="0 0 0 0 0 0 0 0 0 0 0 0 0 0 0 0 0 0 127 0"/>
<feOffset dy="2"/>
<feGaussianBlur stdDeviation="2"/>
<feColorMatrix type="matrix" values="0 0 0 0 0 0 0 0 0 0 0 0 0 0 0 0 0 0 0.1 0"/>
<feBlend mode="normal" in2="BackgroundImageFix" result="effect1_dropShadow"/>
<feBlend mode="normal" in="SourceGraphic" in2="effect1_dropShadow" result="shape"/>
</filter>
</defs>
</svg>
