<?xml version="1.0" encoding="UTF-8"?>
<svg width="72px" height="50px" viewBox="0 0 72 50" version="1.1" xmlns="http://www.w3.org/2000/svg" xmlns:xlink="http://www.w3.org/1999/xlink">
    <title>进入班级备份</title>
    <g id="页面-1" stroke="none" stroke-width="1" fill="none" fill-rule="evenodd">
        <g id="进入班级备份-14-更新" transform="translate(-1478.000000, -2050.000000)">
            <g id="编组-15" transform="translate(1478.000000, 2050.000000)">
                <g id="编组-8" transform="translate(12.125000, 3.750000)">
                    <rect id="矩形" stroke="#CBCBCB" fill="#FEFEFE" x="1" y="31.25" width="45" height="11.25"></rect>
                    <g id="编组" transform="translate(3.500000, 0.000000)">
                        <path d="M22.7218125,0.3125 L16.9905625,0.3125 C16.3005625,0.3125 15.7405625,0.8725 15.7405625,1.5625 C15.7405625,2.2525 16.3005625,2.8125 16.9905625,2.8125 L18.6061875,2.8125 L18.6061875,6.9025 C18.6061875,7.5925 19.1661875,8.1525 19.8561875,8.1525 C20.5468125,8.1525 21.1061875,7.5925 21.1061875,6.9025 L21.1061875,2.8125 L22.7218125,2.8125 C23.4118125,2.8125 23.9718125,2.2525 23.9718125,1.5625 C23.9718125,0.8725 23.4118125,0.3125 22.7218125,0.3125" id="Fill-1" fill="#FEFEFE"></path>
                        <path d="M22.7218125,0.3125 L16.9905625,0.3125 C16.3005625,0.3125 15.7405625,0.8725 15.7405625,1.5625 C15.7405625,2.2525 16.3005625,2.8125 16.9905625,2.8125 L18.6061875,2.8125 L18.6061875,6.9025 C18.6061875,7.5925 19.1661875,8.1525 19.8561875,8.1525 C20.5468125,8.1525 21.1061875,7.5925 21.1061875,6.9025 L21.1061875,2.8125 L22.7218125,2.8125 C23.4118125,2.8125 23.9718125,2.2525 23.9718125,1.5625 C23.9718125,0.8725 23.4118125,0.3125 22.7218125,0.3125 Z" id="Stroke-3" stroke="#CBCBCB"></path>
                        <path d="M12.2786875,3.049625 C9.5411875,0.312125 5.1030625,0.312125 2.3655625,3.049625 C-0.3719375,5.787125 -0.3719375,10.22525 2.3655625,12.962125 L12.2786875,3.049625 Z" id="Fill-5" fill="#E9E9E9"></path>
                        <path d="M12.2786875,3.049625 C9.5411875,0.312125 5.1030625,0.312125 2.3655625,3.049625 C-0.3719375,5.787125 -0.3719375,10.22525 2.3655625,12.962125 L12.2786875,3.049625 Z" id="Stroke-7" stroke="#CBCBCB"></path>
                        <path d="M27.9915625,3.6071875 C30.7290625,0.8696875 35.1665625,0.8696875 37.9040625,3.6071875 C40.6415625,6.3446875 40.6415625,10.7821875 37.9040625,13.5196875 L27.9915625,3.6071875 Z" id="Fill-9" fill="#E9E9E9"></path>
                        <path d="M27.9915625,3.6071875 C30.7290625,0.8696875 35.1665625,0.8696875 37.9040625,3.6071875 C40.6415625,6.3446875 40.6415625,10.7821875 37.9040625,13.5196875 L27.9915625,3.6071875 Z" id="Stroke-11" stroke="#CBCBCB"></path>
                        <path d="M37.4391875,29.3045 C36.6910625,28.67575 35.9610625,28.501375 35.3273125,28.5395 C36.1341875,26.581375 36.5816875,24.437 36.5816875,22.187625 C36.5816875,12.950125 29.0929375,5.462 19.8560625,5.462 C10.6191875,5.462 3.1304375,12.950125 3.1304375,22.187625 C3.1304375,24.488875 3.5979375,26.680125 4.4398125,28.6745 C4.0854375,28.792625 3.7173125,28.991375 3.3441875,29.3045 C2.6160625,29.88325 2.4248125,30.665125 2.3391875,31.228875 L5.7879375,31.228875 L6.8591875,31.228875 L33.9241875,31.228875 L38.4448125,31.228875 C38.3598125,30.665125 38.1673125,29.88325 37.4391875,29.3045" id="Fill-13" fill="#E9E9E9"></path>
                        <path d="M37.4391875,29.3045 C36.6910625,28.67575 35.9610625,28.501375 35.3273125,28.5395 C36.1341875,26.581375 36.5816875,24.437 36.5816875,22.187625 C36.5816875,12.950125 29.0929375,5.462 19.8560625,5.462 C10.6191875,5.462 3.1304375,12.950125 3.1304375,22.187625 C3.1304375,24.488875 3.5979375,26.680125 4.4398125,28.6745 C4.0854375,28.792625 3.7173125,28.991375 3.3441875,29.3045 C2.6160625,29.88325 2.4248125,30.665125 2.3391875,31.228875 L5.7879375,31.228875 L6.8591875,31.228875 L33.9241875,31.228875 L38.4448125,31.228875 C38.3598125,30.665125 38.1673125,29.88325 37.4391875,29.3045 Z" id="Stroke-15" stroke="#CBCBCB"></path>
                        <g transform="translate(5.625000, 7.791062)">
                            <path d="M28.1905625,14.3964375 C28.1905625,6.6870625 21.9405625,0.4370625 14.2311875,0.4370625 C6.5218125,0.4370625 0.2718125,6.6870625 0.2718125,14.3964375" id="Fill-17" fill="#E9E9E9"></path>
                            <path d="M28.1905625,14.3964375 C28.1905625,6.6870625 21.9405625,0.4370625 14.2311875,0.4370625 C6.5218125,0.4370625 0.2718125,6.6870625 0.2718125,14.3964375" id="Stroke-19" stroke="#CBCBCB"></path>
                        </g>
                        <g transform="translate(31.875000, 22.166062)">
                            <path d="M0.068,7.0008125 C1.25675,4.9470625 1.9405,2.5645625 1.9405,0.0214375" id="Fill-20" fill="#E9E9E9"></path>
                            <path d="M0.068,7.0008125 C1.25675,4.9470625 1.9405,2.5645625 1.9405,0.0214375" id="Stroke-22" stroke="#CBCBCB" stroke-linecap="round" stroke-linejoin="round"></path>
                        </g>
                        <g transform="translate(5.625000, 22.166062)">
                            <path d="M0.271875,0.021125 C0.271875,2.564875 0.955625,4.947375 2.144375,7.0005" id="Fill-23" fill="#E9E9E9"></path>
                            <path d="M0.271875,0.021125 C0.271875,2.564875 0.955625,4.947375 2.144375,7.0005" id="Stroke-25" stroke="#CBCBCB" stroke-linecap="round" stroke-linejoin="round"></path>
                        </g>
                        <g transform="translate(5.625000, 7.791062)">
                            <path d="M26.318,21.3758125 C27.50675,19.3220625 28.1905,16.9395625 28.1905,14.3964375 L28.1905,14.3964375 C28.1905,6.6870625 21.9405,0.4370625 14.231125,0.4370625 C6.52175,0.4370625 0.27175,6.6870625 0.27175,14.3964375 L0.27175,14.3964375 C0.27175,16.9395625 0.9555,19.3220625 2.14425,21.3758125" id="Fill-26" fill="#FEFEFE"></path>
                            <path d="M26.318,21.3758125 C27.50675,19.3220625 28.1905,16.9395625 28.1905,14.3964375 L28.1905,14.3964375 C28.1905,6.6870625 21.9405,0.4370625 14.231125,0.4370625 C6.52175,0.4370625 0.27175,6.6870625 0.27175,14.3964375 L0.27175,14.3964375 C0.27175,16.9395625 0.9555,19.3220625 2.14425,21.3758125" id="Stroke-28" stroke="#CBCBCB" stroke-linecap="round" stroke-linejoin="round"></path>
                        </g>
                        <path d="M18.07275,18.6645625 C18.07275,19.5658125 17.342125,20.2964375 16.4415,20.2964375 C15.539625,20.2964375 14.809,19.5658125 14.809,18.6645625 C14.809,17.7633125 15.539625,17.0326875 16.4415,17.0326875 C17.342125,17.0326875 18.07275,17.7633125 18.07275,18.6645625" id="Fill-29" fill="#CBCBCB"></path>
                        <path d="M25.5281875,18.6645625 C25.5281875,19.5658125 24.7975625,20.2964375 23.8963125,20.2964375 C22.9944375,20.2964375 22.2638125,19.5658125 22.2638125,18.6645625 C22.2638125,17.7633125 22.9944375,17.0326875 23.8963125,17.0326875 C24.7975625,17.0326875 25.5281875,17.7633125 25.5281875,18.6645625" id="Fill-31" fill="#CBCBCB"></path>
                        <path d="M16.824,25.9179375 C16.824,24.0704375 18.3215,22.5729375 20.169,22.5729375 C22.015875,22.5729375 23.513375,24.0704375 23.513375,25.9179375" id="Fill-33" fill="#CBCBCB"></path>
                        <line x1="31.407125" y1="22.1871875" x2="32.589" y2="22.1871875" id="Stroke-35" stroke="#CBCBCB" stroke-linecap="round" stroke-linejoin="round" stroke-dasharray="7"></line>
                        <line x1="7.3855" y1="22.1871875" x2="8.567375" y2="22.1871875" id="Stroke-37" stroke="#CBCBCB" stroke-linecap="round" stroke-linejoin="round" stroke-dasharray="7"></line>
                        <line x1="19.9874375" y1="9.585875" x2="19.9874375" y2="10.76775" id="Stroke-39" stroke="#CBCBCB" stroke-linecap="round" stroke-linejoin="round" stroke-dasharray="7"></line>
                        <line x1="28.8979375" y1="13.2766875" x2="28.0623125" y2="14.1123125" id="Stroke-41" stroke="#CBCBCB" stroke-linecap="round" stroke-linejoin="round" stroke-dasharray="7"></line>
                        <line x1="11.0769375" y1="13.2766875" x2="11.9119375" y2="14.1123125" id="Stroke-43" stroke="#CBCBCB" stroke-linecap="round" stroke-linejoin="round" stroke-dasharray="7"></line>
                        <g transform="translate(5.625000, 28.416062)">
                            <line x1="0.271875" y1="0.7508125" x2="7.259375" y2="0.7508125" id="Fill-45" fill="#E9E9E9"></line>
                            <line x1="0.271875" y1="0.7508125" x2="7.259375" y2="0.7508125" id="Stroke-47" stroke="#CBCBCB" stroke-linecap="round" stroke-linejoin="round"></line>
                        </g>
                        <g transform="translate(30.000000, 28.416062)">
                            <line x1="0.07225" y1="0.7508125" x2="2.74225" y2="0.7508125" id="Fill-48" fill="#E9E9E9"></line>
                            <line x1="0.07225" y1="0.7508125" x2="2.74225" y2="0.7508125" id="Stroke-50" stroke="#CBCBCB" stroke-linecap="round" stroke-linejoin="round"></line>
                        </g>
                        <line x1="15.4201875" y1="29.166875" x2="27.3151875" y2="29.166875" id="Stroke-51" stroke="#CBCBCB" stroke-linecap="round" stroke-linejoin="round"></line>
                    </g>
                    <text id="已过期" font-family="SourceHanSansCN-Regular, Source Han Sans CN" font-size="10" font-weight="normal" fill="#CBCBCB">
                        <tspan x="8.5" y="40.875">已过期</tspan>
                    </text>
                </g>
            </g>
        </g>
    </g>
</svg>