<svg width="16" height="16" viewBox="0 0 16 16" fill="none" xmlns="http://www.w3.org/2000/svg">
<path fill-rule="evenodd" clip-rule="evenodd" d="M3.64648 1.64648L1.64648 3.64648L2.35359 4.35359L4.35359 2.35359L3.64648 1.64648ZM11.6465 2.35359L13.6465 4.35359L14.3536 3.64648L12.3536 1.64648L11.6465 2.35359ZM14 9.00004C14 12.3137 11.3137 15 8.00004 15C4.68633 15 2.00004 12.3137 2.00004 9.00004C2.00004 5.68633 4.68633 3.00004 8.00004 3.00004C11.3137 3.00004 14 5.68633 14 9.00004ZM7.50004 9.00004V6.00004H8.50004V8.79293L10.3536 10.6465L9.64648 11.3536L7.64648 9.35359L7.50004 9.20714V9.00004Z" fill="#606C66"/>
</svg>
