<svg width="24" height="24" viewBox="0 0 24 24" fill="none" xmlns="http://www.w3.org/2000/svg">
<path fill-rule="evenodd" clip-rule="evenodd" d="M12.9545 3.95455C12.9545 4.48173 12.5272 4.90909 12 4.90909C11.4728 4.90909 11.0455 4.48173 11.0455 3.95455C11.0455 3.42736 11.4728 3 12 3C12.5272 3 12.9545 3.42736 12.9545 3.95455ZM6.59659 9.71023L7.54545 14.4545H16.4545L17.4034 9.71023C17.5004 9.22513 16.9094 8.90881 16.5596 9.25862L15.1818 10.6364L12.424 6.22385C12.2282 5.91052 11.7718 5.91052 11.576 6.22385L8.81818 10.6364L7.44043 9.25862C7.09063 8.90881 6.49957 9.22513 6.59659 9.71023ZM16.4545 15.7273V17H7.54545V15.7273H16.4545ZM5.95455 8.09091C6.48173 8.09091 6.90909 7.66354 6.90909 7.13636C6.90909 6.60918 6.48173 6.18182 5.95455 6.18182C5.42736 6.18182 5 6.60918 5 7.13636C5 7.66354 5.42736 8.09091 5.95455 8.09091ZM18.0455 8.09091C18.5726 8.09091 19 7.66354 19 7.13636C19 6.60918 18.5726 6.18182 18.0455 6.18182C17.5183 6.18182 17.0909 6.60918 17.0909 7.13636C17.0909 7.66354 17.5183 8.09091 18.0455 8.09091Z" fill="#DFBC63"/>
</svg>
