<svg width="24" height="24" viewBox="0 0 24 24" fill="none" xmlns="http://www.w3.org/2000/svg">
<path d="M13.74 21.2015H2.83496V2.79834H21.18V21.2015H17.6724V17.8493H17.0892C16.2006 17.8501 15.3487 18.2037 14.7207 18.8322C14.0927 19.4608 13.74 20.313 13.74 21.2015Z" fill="#57FF9B"/>
<path fill-rule="evenodd" clip-rule="evenodd" d="M2.15454 2.11792H21.8603V21.8819H16.9919V18.5316C16.3193 18.5568 15.6795 18.8352 15.202 19.3131C14.7015 19.8141 14.4203 20.4933 14.4203 21.2015L14.4203 21.8819H2.15454V2.11792ZM3.51534 3.47872V20.5211H13.1173C13.2571 19.7047 13.6462 18.9451 14.2394 18.3513C14.9949 17.5952 16.0196 17.1699 17.0885 17.1689L17.0891 17.1689L18.3527 17.1689V20.5211H20.4995V3.47872H3.51534Z" fill="#333333"/>
<path fill-rule="evenodd" clip-rule="evenodd" d="M12.2678 5.47854V2.79834H13.118V5.47854H12.2678Z" fill="#333333"/>
<path fill-rule="evenodd" clip-rule="evenodd" d="M12.2678 8.64233H13.118V13.9472H21.1781V14.7974H12.2678V8.64233Z" fill="#333333"/>
<path fill-rule="evenodd" clip-rule="evenodd" d="M7.83963 10.9721C8.5479 10.2639 9.50852 9.86597 10.5102 9.86597H11.5185V13.2176H12.693V14.0678H10.6683V10.7162H10.5102C9.734 10.7162 8.98964 11.0245 8.44081 11.5733C7.89199 12.1221 7.58366 12.8665 7.58366 13.6427V14.0978H2.83496V13.2476H6.75417C6.84423 12.3911 7.22511 11.5867 7.83963 10.9721Z" fill="#333333"/>
</svg>
