<svg width="24" height="24" viewBox="0 0 24 24" fill="none" xmlns="http://www.w3.org/2000/svg">
<path fill-rule="evenodd" clip-rule="evenodd" d="M2.5 2C2.22386 2 2 2.22386 2 2.5C2 2.77614 2.22386 3 2.5 3H4.08138L4.5435 5.5879L5.97207 13.5879L6.50779 16.5879C6.55037 16.8264 6.75776 17 7 17H18C18.2761 17 18.5 16.7761 18.5 16.5C18.5 16.2239 18.2761 16 18 16H7.41862L7.06148 14H18.5C18.7406 14 18.9471 13.8286 18.9914 13.5921L19.3664 11.5921C19.4173 11.3207 19.2386 11.0595 18.9671 11.0086C18.6957 10.9577 18.4345 11.1364 18.3836 11.4079L18.085 13H6.88291L5.63291 6H13C13.2761 6 13.5 5.77614 13.5 5.5C13.5 5.22386 13.2761 5 13 5H5.45434L4.99221 2.4121C4.94963 2.17364 4.74224 2 4.5 2H2.5ZM9 20C9 20.2761 8.77614 20.5 8.5 20.5C8.22386 20.5 8 20.2761 8 20C8 19.7239 8.22386 19.5 8.5 19.5C8.77614 19.5 9 19.7239 9 20ZM10 20C10 20.8284 9.32843 21.5 8.5 21.5C7.67157 21.5 7 20.8284 7 20C7 19.1716 7.67157 18.5 8.5 18.5C9.32843 18.5 10 19.1716 10 20ZM16.5 21.5C17.3284 21.5 18 20.8284 18 20C18 19.1716 17.3284 18.5 16.5 18.5C15.6716 18.5 15 19.1716 15 20C15 20.8284 15.6716 21.5 16.5 21.5ZM16.5 20.5C16.7761 20.5 17 20.2761 17 20C17 19.7239 16.7761 19.5 16.5 19.5C16.2239 19.5 16 19.7239 16 20C16 20.2761 16.2239 20.5 16.5 20.5ZM17.5 3C17.2239 3 17 3.22386 17 3.5C17 3.77614 17.2239 4 17.5 4H19.2929L16.1464 7.14645C15.9512 7.34171 15.9512 7.65829 16.1464 7.85355C16.3417 8.04882 16.6583 8.04882 16.8536 7.85355L20 4.70711V6.5C20 6.77614 20.2239 7 20.5 7C20.7761 7 21 6.77614 21 6.5V3.5C21 3.22386 20.7761 3 20.5 3H17.5Z" fill="#14AF64"/>
</svg>
