<svg width="24" height="24" viewBox="0 0 24 24" fill="none" xmlns="http://www.w3.org/2000/svg">
<path d="M15.1319 0.650879H2.96387C2.51353 0.650879 2.08164 0.829775 1.7632 1.14821C1.44477 1.46665 1.26587 1.89854 1.26587 2.34888V20.2289C1.26579 20.3744 1.29439 20.5184 1.35002 20.6528C1.40565 20.7872 1.48724 20.9094 1.5901 21.0122C1.69297 21.1151 1.8151 21.1967 1.94952 21.2523C2.08393 21.308 2.228 21.3366 2.37347 21.3365V21.3365C2.6667 21.3362 2.94785 21.2196 3.15525 21.0123C3.36265 20.805 3.47939 20.5239 3.47987 20.2307V13.7759C3.47987 13.5585 3.56622 13.35 3.71992 13.1963C3.87363 13.0426 4.0821 12.9563 4.29947 12.9563V12.9563C4.40727 12.956 4.51408 12.9769 4.61376 13.018C4.71344 13.059 4.80404 13.1194 4.88035 13.1955C4.95667 13.2717 5.0172 13.3621 5.05847 13.4617C5.09974 13.5613 5.12095 13.6681 5.12087 13.7759V17.6021C5.12087 17.7298 5.14603 17.8562 5.19492 17.9742C5.2438 18.0922 5.31545 18.1993 5.40577 18.2896C5.4961 18.3799 5.60332 18.4514 5.72132 18.5003C5.83931 18.5491 5.96577 18.5742 6.09347 18.5741V18.5741C6.22111 18.5741 6.34751 18.5489 6.46544 18.5001C6.58337 18.4512 6.69052 18.3796 6.78078 18.2894C6.87104 18.1991 6.94263 18.092 6.99148 17.974C7.04033 17.8561 7.06547 17.7297 7.06547 17.6021V15.2285C7.06547 15.0043 7.15454 14.7892 7.31308 14.6307C7.47162 14.4721 7.68666 14.3831 7.91087 14.3831C8.13508 14.3831 8.35011 14.4721 8.50866 14.6307C8.6672 14.7892 8.75627 15.0043 8.75627 15.2285V19.0499C8.75627 19.3179 8.86272 19.5749 9.05221 19.7643C9.2417 19.9538 9.49869 20.0603 9.76667 20.0603V20.0603C9.89941 20.0604 10.0309 20.0343 10.1535 19.9835C10.2762 19.9328 10.3876 19.8584 10.4815 19.7646C10.5754 19.6707 10.6499 19.5593 10.7007 19.4367C10.7515 19.3141 10.7777 19.1826 10.7777 19.0499V8.21988H19.3121C19.7624 8.21988 20.1943 8.04098 20.5127 7.72255C20.8312 7.40411 21.0101 6.97222 21.0101 6.52188V2.34888C21.0101 1.89854 20.8312 1.46665 20.5127 1.14821C20.1943 0.829775 19.7624 0.650879 19.3121 0.650879H15.1319Z" fill="#57FF9B"/>
<path fill-rule="evenodd" clip-rule="evenodd" d="M6.73727 5.13424V10.3452H21.7427V5.13424H6.73727ZM5.37646 4.92784C5.37646 4.29028 5.89331 3.77344 6.53087 3.77344H21.9491C22.5866 3.77344 23.1035 4.29028 23.1035 4.92784V10.5516C23.1035 11.1892 22.5866 11.706 21.9491 11.706H6.53087C5.89331 11.706 5.37646 11.1892 5.37646 10.5516V4.92784Z" fill="#333333"/>
<path d="M20.0291 2.51025H8.45086C8.09696 2.51025 7.81006 2.79715 7.81006 3.15105V7.91325C7.81006 8.26716 8.09696 8.55405 8.45086 8.55405H20.0291C20.383 8.55405 20.6699 8.26716 20.6699 7.91325V3.15105C20.6699 2.79715 20.383 2.51025 20.0291 2.51025Z" fill="#57FF9B"/>
<path fill-rule="evenodd" clip-rule="evenodd" d="M8.49044 3.19063V7.87363H19.9894V3.19063H8.49044ZM7.12964 3.15103C7.12964 2.42135 7.72116 1.82983 8.45084 1.82983H20.029C20.7587 1.82983 21.3502 2.42136 21.3502 3.15103V7.91323C21.3502 8.64291 20.7587 9.23443 20.029 9.23443H8.45084C7.72116 9.23443 7.12964 8.64291 7.12964 7.91323V3.15103Z" fill="#333333"/>
<path d="M15.2969 11.0256H13.1831V22.8054H15.2969V11.0256Z" fill="#E5E5E5"/>
<path fill-rule="evenodd" clip-rule="evenodd" d="M12.5027 10.3452H15.9773V23.4858H12.5027V10.3452ZM13.8635 11.706V22.125H14.6165V11.706H13.8635Z" fill="#333333"/>
</svg>
