<svg width="24" height="24" viewBox="0 0 24 24" fill="none" xmlns="http://www.w3.org/2000/svg">
<rect x="19" y="17.5" width="2" height="4" rx="1" fill="#397BF3"/>
<rect x="3" y="17.5" width="2" height="4" rx="1" fill="#397BF3"/>
<path d="M3.72994 8.65991L1.18994 16.9599H22.8199L20.2699 8.65991H3.72994Z" fill="#BAD5FB"/>
<path d="M4.90998 2.72001H19.09C19.2458 2.71869 19.4003 2.74824 19.5446 2.80695C19.6889 2.86566 19.8202 2.95237 19.9308 3.06207C20.0415 3.17178 20.1293 3.3023 20.1892 3.44612C20.2491 3.58994 20.28 3.74421 20.28 3.90001V8.66001H3.72998V3.90001C3.72998 3.58706 3.8543 3.28692 4.07559 3.06563C4.29689 2.84433 4.59702 2.72001 4.90998 2.72001Z" fill="#82B0F9"/>
<path d="M6.47005 5.78007H10C10.3077 5.78007 10.6028 5.90229 10.8203 6.11983C11.0378 6.33737 11.16 6.63242 11.16 6.94007V8.66007H5.30005V6.94007C5.30004 6.78689 5.33038 6.63523 5.3893 6.49384C5.44821 6.35244 5.53456 6.22412 5.64333 6.11627C5.75211 6.00842 5.88117 5.92319 6.02306 5.86549C6.16496 5.80778 6.31688 5.77875 6.47005 5.78007Z" fill="#397BF3"/>
<path d="M14.0001 5.77993H17.5501C17.8577 5.77993 18.1528 5.90214 18.3703 6.11969C18.5878 6.33723 18.7101 6.63228 18.7101 6.93993V8.65993H12.8101V6.93993C12.81 6.78504 12.841 6.6317 12.9011 6.48898C12.9613 6.34625 13.0494 6.21701 13.1604 6.10889C13.2713 6.00078 13.4027 5.91597 13.5469 5.85947C13.6911 5.80297 13.8452 5.77592 14.0001 5.77993Z" fill="#397BF3"/>
<path d="M2.80993 15.47H21.1899C21.6222 15.47 22.0368 15.6417 22.3425 15.9474C22.6482 16.2531 22.8199 16.6677 22.8199 17.1V19.68H1.17993V17.1C1.17993 16.6677 1.35166 16.2531 1.65735 15.9474C1.96303 15.6417 2.37763 15.47 2.80993 15.47Z" fill="#397BF3"/>
</svg>
