<svg width="24" height="24" viewBox="0 0 24 24" fill="none" xmlns="http://www.w3.org/2000/svg">
<path d="M22.1311 1.2998H1.86914V2.8634H22.1311V1.2998Z" fill="#14AF64"/>
<path fill-rule="evenodd" clip-rule="evenodd" d="M1.35864 0.789307H22.6412V3.37351H1.35864V0.789307ZM2.37924 1.80991V2.35291H21.6206V1.80991H2.37924Z" fill="#333333"/>
<path d="M21.7213 2.88013H2.40015V19.4647H21.7213V2.88013Z" fill="#14AF64"/>
<path fill-rule="evenodd" clip-rule="evenodd" d="M1.88672 2.35278H22.2285V19.958H1.88672V2.35278ZM2.90732 3.37338V18.9374H21.2079V3.37338H2.90732Z" fill="#333333"/>
<path d="M20.1841 4.43872H3.93188V8.00632H20.1841V4.43872Z" fill="#57FF9B"/>
<path d="M20.1841 9.42847H3.93188V12.9961H20.1841V9.42847Z" fill="#57FF9B"/>
<path d="M20.1841 14.418H3.93188V17.9856H20.1841V14.418Z" fill="#57FF9B"/>
<path fill-rule="evenodd" clip-rule="evenodd" d="M10.0559 5.30786H14.0591V6.15806H10.0559V5.30786Z" fill="#14AF64"/>
<path fill-rule="evenodd" clip-rule="evenodd" d="M10.0559 10.3557H14.0591V11.2059H10.0559V10.3557Z" fill="#14AF64"/>
<path fill-rule="evenodd" clip-rule="evenodd" d="M10.0559 15.2871H14.0591V16.1373H10.0559V15.2871Z" fill="#14AF64"/>
<path d="M3.93177 19.4484H2.39697V22.7004H3.93177V19.4484Z" fill="white"/>
<path fill-rule="evenodd" clip-rule="evenodd" d="M1.88672 18.9381H4.44212V23.2107H1.88672V18.9381ZM2.90732 19.9587V22.1901H3.42152V19.9587H2.90732Z" fill="#333333"/>
<path d="M21.7189 19.4484H20.1841V22.7004H21.7189V19.4484Z" fill="white"/>
<path fill-rule="evenodd" clip-rule="evenodd" d="M19.6736 18.9381H22.229V23.2107H19.6736V18.9381ZM20.6942 19.9587V22.1901H21.2084V19.9587H20.6942Z" fill="#333333"/>
</svg>
