<?xml version="1.0" encoding="UTF-8"?>
<svg width="300px" height="70px" viewBox="0 0 300 70" version="1.1" xmlns="http://www.w3.org/2000/svg" xmlns:xlink="http://www.w3.org/1999/xlink">
    <title>斗西学社logo</title>
    <g id="页面-1" stroke="none" stroke-width="1" fill="none" fill-rule="evenodd">
        <g id="斗西学社弹窗" transform="translate(-186.000000, -161.000000)">
            <rect id="白色底" fill="#EDEDED" fill-rule="nonzero" x="0" y="0" width="672" height="500"></rect>
            <rect id="白色底" stroke="#14AF64" stroke-width="12" fill-rule="nonzero" x="6" y="6" width="660" height="488"></rect>
            <g id="编组" transform="translate(196.000000, 164.000000)" fill="#14AF64">
                <polygon id="Fill-1" points="28 12.1538536 17.8470269 2 10 9.84439988 20.1538462 20"></polygon>
                <polygon id="Fill-2" points="224.289585 0 216.373384 8.0723992 222.49145 14.3139882 213.938782 14.3139882 213.938782 25.7343857 223.338995 25.7343857 223.338995 26.3119057 209 40.9422119 216.914733 49.0182056 223.338995 42.4629945 223.338995 63 234.532061 63 234.532061 43.2771539 237.084386 45.881086 245 37.807189 236.450268 29.0850799 239.734178 25.7343857 239.743866 25.7343857 239.743866 14.3139882 230.742911 14.3139882 234.532061 10.4486782"></polygon>
                <path d="M192.568706,0 L182.228408,10.4662035 L184.010871,12.2708145 L179.710909,12.2708145 L181.493668,10.4668035 L171.152777,0.00329965432 L163.161038,8.08715277 L167.295023,12.2708145 L162.219421,12.2708145 L164.001883,10.4668035 L153.661585,0.00329965432 L145.669549,8.08715277 L149.803238,12.2708145 L142,12.2708145 L142,13.5150841 L142,23.7077163 L142,33.284813 L151.845927,33.284813 L151.845927,36.5745684 L178.818493,36.5745684 L175.938811,39.4887631 L142,39.4887631 L142,49.7872842 L175.843375,49.7872842 L175.843375,52.7014789 L163.161038,52.7014789 L163.161038,63 L175.843375,63 L187.143666,63 L187.143666,52.7014789 L187.143666,49.7872842 L204,49.7872842 L204,39.4887631 L191.289507,39.4887631 L194.154369,36.5745684 L194.154369,33.284813 L204,33.284813 L204,23.7077163 L204,13.5150841 L204,12.2708145 L196.424682,12.2708145 L200.556,8.08865262 L192.568706,0 Z M153.299995,26.2763472 L192.700005,26.2763472 L192.700005,23.7077163 L153.299995,23.7077163 L153.299995,26.2763472 Z" id="Fill-3"></path>
                <polygon id="Fill-4" points="0 19.8445641 10.1537193 30 18 22.1539805 7.84715374 12"></polygon>
                <polygon id="Fill-5" points="29.9506383 2 29.9506383 31.9104161 0 31.9104161 0 43.1458292 29.9506383 43.1458292 29.9506383 62 41.1865481 62 41.1865481 43.1458292 60 43.1458292 60 31.9104161 41.1865481 31.9104161 41.1865481 2"></polygon>
                <g transform="translate(67.000000, 0.000000)">
                    <path d="M41.9958059,34.4694 L49.3261592,34.4694 L49.3261592,30.4098 L41.9958059,30.4098 L41.9958059,34.4694 Z M11.4433953,51.5202 L11.4433953,46.7415 C19.7527751,45.1431 26.3664846,38.6787 28.2525461,30.4098 L32.0124721,30.4098 L32.0124721,44.5371 L49.3261592,44.5371 L49.3261592,51.5202 L11.4433953,51.5202 Z M17.7566439,30.4098 C16.5045251,33.1203 14.2344092,35.259 11.4433953,36.3225 L11.4433953,30.4098 L17.7566439,30.4098 Z M28.8008128,18.9717 L32.0124721,18.9717 L32.0124721,13.317 L28.8008128,13.317 L28.8008128,18.9717 Z M41.9961034,13.317 L60.6681117,13.317 L60.6681117,1.8786 L0.100550279,1.8786 L0.100550279,13.317 L18.8174791,13.317 L18.8174791,18.9717 L0.102632682,18.9717 L0.102632682,62.9586 L60.6710866,62.9586 L60.6710866,18.9717 L41.9961034,18.9717 L41.9961034,13.317 Z" id="Fill-6"></path>
                    <polygon id="Fill-8" points="212.706649 51.50112 198.165532 51.50112 198.165532 25.67772 208.851825 25.67772 208.851825 14.23962 198.165532 14.23962 198.165532 0.19872 186.823282 0.19872 186.823282 14.23962 176.136691 14.23962 176.136691 25.67772 186.823282 25.67772 186.823282 51.50112 172.281867 51.50112 172.281867 62.93922 186.823282 62.93922 186.823282 62.95842 198.165532 62.95842 198.165532 62.93922 212.706649 62.93922"></polygon>
                </g>
            </g>
        </g>
    </g>
</svg>