<svg width="40" height="40" viewBox="0 0 40 40" fill="none" xmlns="http://www.w3.org/2000/svg">
<circle cx="20" cy="20" r="20" fill="#E7F7EF"/>
<path fill-rule="evenodd" clip-rule="evenodd" d="M22.0481 19.7909L20.9358 17.4001C20.8312 17.1848 20.8041 16.9401 20.859 16.7072C20.9139 16.4742 21.0475 16.2674 21.2373 16.1215L19.1584 14.0426C18.9945 13.8481 18.7651 13.7204 18.5134 13.6836C18.2617 13.6469 18.0053 13.7037 17.7928 13.8433C17.5802 13.9829 17.4261 14.1956 17.3598 14.4411C17.2935 14.6866 17.3195 14.948 17.4328 15.1756L22.0481 19.7909Z" fill="#14AF64" stroke="#E7F7EF" stroke-width="0.5" stroke-linecap="round" stroke-linejoin="round"/>
<path fill-rule="evenodd" clip-rule="evenodd" d="M23.8879 15.477C23.7569 15.5384 23.6392 15.6251 23.5416 15.732C23.444 15.8389 23.3684 15.9639 23.3192 16.1C23.27 16.2361 23.2481 16.3806 23.2547 16.5252C23.2613 16.6698 23.2963 16.8116 23.3578 16.9427L24.47 19.3335L24.969 20.2794C25.3285 20.9228 25.5326 21.6414 25.5651 22.3777C25.5976 23.1141 25.4575 23.8478 25.1561 24.5204C24.8897 25.083 24.5392 25.6017 24.1166 26.0588L23.9399 26.2459C23.4689 26.7036 22.9197 27.0733 22.3183 27.3373C23.0614 27.3749 23.8042 27.2564 24.4988 26.9897C25.1934 26.7229 25.8245 26.3138 26.3515 25.7885L26.5386 25.6014C26.9583 25.1421 27.3085 24.6238 27.578 24.063C27.8835 23.3918 28.0266 22.6582 27.9959 21.9214C27.9652 21.1847 27.7615 20.4655 27.4013 19.822L25.3224 15.9656C25.2684 15.8706 25.202 15.7832 25.1249 15.7057C24.9667 15.5459 24.7634 15.4384 24.5422 15.3975C24.3211 15.3566 24.0928 15.3844 23.8879 15.477Z" fill="#14AF64" stroke="#E7F7EF" stroke-width="0.5" stroke-linecap="round" stroke-linejoin="round"/>
<path fill-rule="evenodd" clip-rule="evenodd" d="M22.7237 16.1214C22.8008 16.1989 22.8673 16.2863 22.9212 16.3813L25.0002 20.2377C25.3596 20.8812 25.5638 21.5997 25.5963 22.3361C25.6287 23.0724 25.4887 23.8061 25.1873 24.4787C24.9208 25.0413 24.5703 25.5601 24.1478 26.0172L23.9711 26.2043C22.962 27.2091 21.5959 27.7732 20.1718 27.7732C18.7478 27.7732 17.3817 27.2091 16.3726 26.2043L12.0068 21.9528C11.8042 21.7502 11.6904 21.4754 11.6904 21.1888C11.6904 20.9023 11.8042 20.6275 12.0068 20.4248C12.2095 20.2222 12.4843 20.1084 12.7708 20.1084C13.0574 20.1084 13.3322 20.2222 13.5348 20.4248L12.2355 19.1047C12.0329 18.9062 11.9174 18.6354 11.9145 18.3517C11.9116 18.0681 12.0214 17.7949 12.2199 17.5923C12.4184 17.3897 12.6893 17.2742 12.9729 17.2713C13.2565 17.2683 13.5297 17.3782 13.7323 17.5767L12.8488 16.6827C12.7492 16.5831 12.6701 16.4648 12.6162 16.3346C12.5622 16.2044 12.5345 16.0649 12.5345 15.9239C12.5345 15.783 12.5622 15.6435 12.6162 15.5133C12.6701 15.3831 12.7492 15.2648 12.8488 15.1651C12.9484 15.0655 13.0667 14.9864 13.1969 14.9325C13.3271 14.8786 13.4667 14.8508 13.6076 14.8508C13.7485 14.8508 13.8881 14.8786 14.0183 14.9325C14.1485 14.9864 14.2668 15.0655 14.3664 15.1651L15.2604 16.0591C15.0577 15.8578 14.9433 15.5843 14.9424 15.2987C14.9414 15.0132 15.0539 14.7389 15.2552 14.5363C15.4564 14.3336 15.7299 14.2192 16.0155 14.2183C16.3011 14.2173 16.5754 14.3298 16.778 14.5311L22.0481 19.7908L20.9358 17.4C20.8747 17.2683 20.8402 17.1259 20.8343 16.9808C20.8284 16.8358 20.8513 16.691 20.9015 16.5548C20.9517 16.4186 21.0283 16.2937 21.127 16.1872C21.2257 16.0807 21.3444 15.9948 21.4764 15.9343C21.676 15.8245 21.9063 15.7833 22.1317 15.8171C22.357 15.8509 22.5651 15.9578 22.7237 16.1214Z" fill="#14AF64" stroke="#E7F7EF" stroke-width="0.5" stroke-linecap="round" stroke-linejoin="round"/>
<path d="M13.5349 20.4353L15.6554 22.5662" stroke="#E7F7EF" stroke-width="0.5" stroke-linejoin="round"/>
<path d="M13.7012 17.5455L17.0171 20.8718" stroke="#E7F7EF" stroke-width="0.5" stroke-linejoin="round"/>
<path d="M15.1564 15.9552L18.5451 19.3439" stroke="#E7F7EF" stroke-width="0.5" stroke-linejoin="round"/>
<path fill-rule="evenodd" clip-rule="evenodd" d="M18.306 12.4833L16.9339 10.5707L18.0045 10.2173L18.306 12.4833Z" fill="#14AF64"/>
<path fill-rule="evenodd" clip-rule="evenodd" d="M20.0107 11.8805L19.4494 9.65601H20.5824L20.0107 11.8805Z" fill="#14AF64"/>
<path fill-rule="evenodd" clip-rule="evenodd" d="M21.7466 12.4833L22.0585 10.2173L23.1291 10.5707L21.7466 12.4833Z" fill="#14AF64"/>
</svg>
