<svg width="40" height="40" viewBox="0 0 40 40" fill="none" xmlns="http://www.w3.org/2000/svg">
<circle cx="20" cy="20" r="20" fill="#E7F7EF"/>
<path fill-rule="evenodd" clip-rule="evenodd" d="M27 12H13V28H20.9996C20.3719 27.1643 20 26.1256 20 25C20 22.2386 22.2386 20 25 20C25.7111 20 26.3875 20.1484 27 20.416V12ZM15 15H25V16H15V15ZM15 18H25V19H15V18ZM20 21H15V22H20V21ZM29 25C29 27.2091 27.2091 29 25 29C22.7909 29 21 27.2091 21 25C21 22.7909 22.7909 21 25 21C27.2091 21 29 22.7909 29 25ZM25 24.2929L26.1464 23.1464L26.8536 23.8536L25.7071 25L26.8536 26.1464L26.1464 26.8536L25 25.7071L23.8536 26.8536L23.1464 26.1464L24.2929 25L23.1464 23.8536L23.8536 23.1464L25 24.2929Z" fill="#14AF64"/>
</svg>
