<svg width="210" height="210" viewBox="0 0 210 210" fill="none" xmlns="http://www.w3.org/2000/svg">
<path d="M164.265 56.7909V38.9536H150.036V24H80.4968V38.9536H66.2677V56.7909H55.7791V104.716H66.9875V110.824H76.3324V101.51H82.3164V107.013H88.2342V110.824H105.798V107.013H111.72V101.51H113.694V90.2751H117.77V101.51H119.744V107.013H125.662V110.824H143.226V107.013H149.148V101.51H155.273V110.824H163.541V104.716H174.749V56.7909H164.265ZM109.746 101.51H103.846V107.013H90.2303V101.51H84.308V93.2163H88.2564V87.5061H105.82V93.0043H109.768L109.746 101.51ZM135.943 71.7179H140.399V78.784H135.943V71.7179ZM128.528 64.6519H132.993V78.7486H128.542L128.528 64.6519ZM147.174 101.492H141.252V106.995H127.636V101.492H121.714V93.0043H125.662V87.5061H143.226V93.2163H147.174V101.492Z" fill="black"/>
<path d="M143.226 93.2207V87.5105H125.662V93.0044H121.714V101.51H127.636V107.013H141.252V101.51H147.174V93.2163H143.226V93.2207ZM135.506 98.5203H130.458V93.446H135.506V98.5203Z" fill="white"/>
<path d="M105.798 87.5105H88.234V93.2207H84.2859V101.515H90.2082V107.017H103.846V101.515H109.768V93.0044H105.82L105.798 87.5105ZM101.116 98.507H96.0686V93.446H101.116V98.507Z" fill="white"/>
<path d="M151.122 101.515H149.148V107.017H143.226V110.828H125.662V107.017H119.744V101.515H117.77V90.2795H113.694V101.515H111.72V107.017H105.798V110.828H88.234V107.017H82.3162V101.515H76.3323V123.887H85.1383V133.382H93.2465V141.469H108.774V135.18H112.02V133.307H119.55V135.18H122.836V141.469H138.368V133.382H146.489V123.887H155.295V101.515H151.122ZM126.863 129.523H122.836V131.859H108.615V129.523H104.729V125.053H107.008V123.887H124.403V125.053H126.854L126.863 129.523ZM126.863 122.108H104.729V118.575H126.854L126.863 122.108Z" fill="#FFA8A1"/>
<path d="M119.568 135.18V133.307H112.038V135.18H108.788V141.468H122.814V135.18H119.568Z" fill="black"/>
<path d="M124.412 123.887H107.017V125.053H104.738V129.522H108.615V131.859H111.318H120.115H122.814V129.522H126.863V125.053H124.412V123.887Z" fill="#F26D6D"/>
<path d="M126.863 118.561H104.738V122.107H126.863V118.561Z" fill="black"/>
<path d="M101.116 93.4591H96.0686V98.5069H101.116V93.4591Z" fill="black"/>
<path d="M135.506 93.4591H130.458V98.5069H135.506V93.4591Z" fill="black"/>
<path d="M132.98 64.6738H128.528V78.7705H132.98V64.6738Z" fill="white"/>
<path d="M140.395 71.7221H135.943V78.7705H140.395V71.7221Z" fill="white"/>
<path d="M156.245 161.646V154.943H131.765V141.469H99.9417V154.943H74.5525H65.5787H61.0829V137.026H50.793V117.188H48.0107H28.6895H25.9072V146.772H40.503V166.646H53.9683V179.652H65.5787V195.55H165.625V161.646H156.245Z" fill="#24561A"/>
<path d="M48.3286 104.16V97.9461V97.8666H41.4392V97.9461H37.4734V104.16H41.4392V108.081H35.8879V97.8666H29.0029V117.188H48.3286V104.16Z" fill="#FFCAC0"/>
<path d="M41.4393 108.081V104.16H37.4735V97.9461H41.4393V97.8666V79.2476H44.8443V83.209H53.2705V68.0523V67.9993H44.8443V68.0523V72.0137H32.4875V68.0523V67.9993H24.0613V68.0523V83.209H32.4875V79.2476H35.8881V97.8666V108.081H41.4393Z" fill="black"/>
<path d="M24.0613 68.0524H20.1309V83.2046H24.0613V68.0524Z" fill="#7A7A7A"/>
<path d="M57.6383 67.5842H53.7078V82.7365H57.6383V67.5842Z" fill="#7A7A7A"/>
<path d="M73.2276 62.9294H4.104V87.983H73.2276V62.9294Z" fill="white"/>
<path fill-rule="evenodd" clip-rule="evenodd" d="M3 61.8254H74.3317V89.0871H3V61.8254ZM5.20814 64.0335V86.8789H72.1236V64.0335H5.20814Z" fill="black"/>
<path d="M174.347 164.848H160.109V195.546H174.347V164.848Z" fill="#24561A"/>
<path d="M182.173 169.905H171.141V195.546H182.173V169.905Z" fill="#24561A"/>
<path d="M9.94238 75.5865C9.94238 71.656 12.1504 69.4389 15.4317 69.4389C18.713 69.4389 20.9169 71.6736 20.9169 75.5865C20.9169 79.4993 18.7086 81.862 15.4317 81.862C12.1548 81.862 9.94238 79.5125 9.94238 75.5865ZM17.9887 75.5865C17.9887 73.2679 17.0083 71.8988 15.4317 71.8988C13.8551 71.8988 12.888 73.2679 12.888 75.5865C12.888 77.905 13.8507 79.3844 15.4317 79.3844C17.0127 79.3844 17.9887 77.9006 17.9887 75.5865Z" fill="black"/>
<path d="M22.5862 75.5865C22.5862 71.656 24.7944 69.4389 28.0757 69.4389C31.357 69.4389 33.565 71.6736 33.565 75.5865C33.565 79.4993 31.357 81.862 28.0757 81.862C24.7944 81.862 22.5862 79.5125 22.5862 75.5865ZM30.6327 75.5865C30.6327 73.2679 29.6523 71.8988 28.0757 71.8988C26.4991 71.8988 25.5318 73.2679 25.5318 75.5865C25.5318 77.905 26.4991 79.3844 28.0757 79.3844C29.6523 79.3844 30.6327 77.9006 30.6327 75.5865Z" fill="black"/>
<path d="M35.782 69.6466H39.9951C42.6184 69.6466 44.7911 70.596 44.7911 73.5549C44.7911 76.4034 42.6051 77.6621 40.0613 77.6621H38.6614V81.6368H35.782V69.6466ZM39.9158 75.3878C41.3157 75.3878 41.9913 74.7253 41.9913 73.5505C41.9913 72.3758 41.2185 71.9254 39.8362 71.9254H38.6614V75.3878H39.9158Z" fill="black"/>
<path d="M45.7717 80.1397L47.4147 78.1611C48.2137 78.8855 49.2351 79.3169 50.3116 79.3844C51.3715 79.3844 51.8706 78.9782 51.8706 78.3378C51.8706 77.6974 51.2127 77.4192 50.1837 76.9864L48.6512 76.3416C47.3969 75.8426 46.2222 74.796 46.2222 73.056C46.2222 71.0466 48.024 69.4389 50.5677 69.4389C52.0221 69.4361 53.4201 70.002 54.463 71.0156L53.0278 72.8175C52.3394 72.2348 51.4695 71.91 50.5677 71.8988C49.6845 71.8988 49.1501 72.2521 49.1501 72.8792C49.1501 73.5064 49.8921 73.8155 50.952 74.2307L52.4492 74.8269C53.9331 75.4231 54.8163 76.4211 54.8163 78.1126C54.8163 80.1043 53.1424 81.862 50.2454 81.862C48.5932 81.8568 47.0008 81.2438 45.7717 80.1397Z" fill="black"/>
<path d="M56.9227 80.0735C56.912 79.8453 56.9476 79.6174 57.0275 79.4035C57.1075 79.1895 57.2301 78.994 57.3879 78.8288C57.5456 78.6636 57.7352 78.5323 57.9453 78.4426C58.1553 78.3529 58.3813 78.3067 58.6097 78.307C58.8396 78.305 59.0676 78.3497 59.2797 78.4385C59.4917 78.5273 59.6835 78.6584 59.8433 78.8236C60.0032 78.9888 60.1277 79.1848 60.2095 79.3997C60.2912 79.6146 60.3284 79.8438 60.3188 80.0735C60.3296 80.3045 60.2934 80.5353 60.2123 80.752C60.1312 80.9686 60.007 81.1665 59.8472 81.3338C59.6874 81.501 59.4954 81.634 59.2827 81.7248C59.07 81.8156 58.841 81.8623 58.6097 81.8621C58.3801 81.86 58.1533 81.8115 57.9429 81.7195C57.7325 81.6276 57.5428 81.4941 57.3853 81.3271C57.2277 81.16 57.1055 80.963 57.026 80.7475C56.9465 80.5321 56.9114 80.3028 56.9227 80.0735ZM57.2759 71.8504L57.1789 69.2934H60.0583L59.9611 71.8504L59.546 77.2912H57.6956L57.2759 71.8504Z" fill="black"/>
<path d="M63.3085 80.0735C63.2977 79.845 63.3335 79.6166 63.4137 79.4024C63.4939 79.1882 63.6169 78.9925 63.7751 78.8273C63.9333 78.6621 64.1235 78.5306 64.334 78.4412C64.5446 78.3517 64.7712 78.3061 64.9999 78.307C65.2295 78.3056 65.4569 78.3508 65.6684 78.4399C65.8799 78.529 66.0712 78.66 66.2306 78.8251C66.39 78.9903 66.5142 79.1861 66.5957 79.4007C66.6771 79.6152 66.7141 79.8441 66.7046 80.0735C66.7153 80.3041 66.6793 80.5346 66.5985 80.7509C66.5177 80.9672 66.3938 81.165 66.2345 81.3321C66.0751 81.4993 65.8836 81.6324 65.6714 81.7235C65.4592 81.8146 65.2309 81.8617 64.9999 81.8621C64.7699 81.8606 64.5426 81.8125 64.3317 81.7208C64.1207 81.6292 63.9305 81.4958 63.7725 81.3287C63.6145 81.1616 63.4919 80.9642 63.4122 80.7485C63.3324 80.5328 63.2971 80.3032 63.3085 80.0735ZM63.6617 71.8504L63.5646 69.2934H66.4484L66.3513 71.8504L65.9097 77.2912H64.099L63.6617 71.8504Z" fill="black"/>
</svg>
