<svg width="14" height="20" viewBox="0 0 14 20" fill="none" xmlns="http://www.w3.org/2000/svg">
<rect x="9" y="1" width="2" height="4" fill="#20B36C"/>
<rect x="13" y="3" width="2" height="3" transform="rotate(90 13 3)" fill="#20B36C"/>
<rect y="1" width="1" height="18" fill="black"/>
<rect x="13" y="5" width="1" height="14" fill="black"/>
<rect x="13" y="19" width="1" height="12" transform="rotate(90 13 19)" fill="black"/>
<rect x="10" width="1" height="9" transform="rotate(90 10 0)" fill="black"/>
<rect x="8" y="1" width="1" height="5" fill="black"/>
<rect x="13" y="5" width="1" height="5" transform="rotate(90 13 5)" fill="black"/>
<rect x="10" y="1" width="1" height="1" fill="black"/>
<rect x="11" y="2" width="1" height="1" fill="black"/>
<rect x="12" y="3" width="1" height="1" fill="black"/>
<rect x="13" y="4" width="1" height="1" fill="black"/>
<rect x="1" y="1" width="7" height="18" fill="#FAFAFA"/>
<rect x="5" y="6" width="8" height="13" fill="#FAFAFA"/>
<rect x="2" y="12" width="10" height="4" fill="#20B36C"/>
</svg>
