<svg width="233" height="53" viewBox="0 0 233 53" fill="none" xmlns="http://www.w3.org/2000/svg">
<path d="M222.677 6.61538H10.3226V10.2308H6.66129V13.8462H3V39.1538H6.66129V42.7692H10.3226V46.3846H222.677V42.7692H226.339V39.1538H230V13.8462H226.339V10.2308H222.677V6.61538Z" fill="#EE5507"/>
<path d="M6.66129 42.7692H10.3226V46.3846H6.66129V42.7692Z" fill="#EE5507"/>
<path d="M3 10.2308H6.66129V42.7692H3V10.2308Z" fill="#EE5507"/>
<path d="M222.677 6.61538H226.339V10.2308H222.677V6.61538Z" fill="#EE5507"/>
<path d="M226.339 10.2308H230V42.7692H226.339V10.2308Z" fill="#EE5507"/>
<path d="M6.66129 6.61538H10.3226V10.2308H6.66129V6.61538Z" fill="#EE5507"/>
<path d="M222.677 42.7692H226.339V46.3846H222.677V42.7692Z" fill="#EE5507"/>
<path d="M10.3226 46.3846H222.677V50H10.3226V46.3846Z" fill="#EE5507"/>
<path d="M10.3226 3H222.677V6.61538H10.3226V3Z" fill="#EE5507"/>
<path d="M1.50024 39.1539V40.6539V42.7692V44.2692H3.00024H5.16153V46.3846V47.8846H6.66153H8.82282V50V51.5H10.3228H222.677H224.177V50V47.8846H226.339H227.839V46.3846V44.2692H230H231.5V42.7692V40.6539V39.1539V13.8462V12.3462V10.2308V8.73082H230H227.839V6.61544V5.11544H226.339H224.177V3.00006V1.50006H222.677H10.3228H8.82282V3.00006V5.11544H6.66153H5.16153V6.61544V8.73082H3.00024H1.50024V10.2308V12.3462V13.8462V39.1539Z" fill="#EE5507" stroke="black" stroke-width="3"/>
<rect x="38.5149" y="10.8334" width="9.51934" height="31.3333" fill="#FFA90E"/>
<rect x="33.7551" y="13.9667" width="19.0387" height="25.0666" fill="#FFA90E"/>
<rect x="38.5149" y="10.8334" width="9.51934" height="3.13333" fill="#FFF6A7"/>
<rect x="43.2747" y="13.9667" width="9.51934" height="3.13333" fill="#FFF6A7"/>
<rect x="49.092" y="39.0333" width="21.9333" height="3.70197" transform="rotate(-90 49.092 39.0333)" fill="#FFF6A7"/>
<rect x="33.7551" y="13.9667" width="9.51934" height="3.13333" fill="#FFDE45"/>
<rect x="38.5146" y="17.1" width="10.577" height="5.74444" fill="#FFDE45"/>
<rect x="44.3318" y="39.0333" width="18.8" height="4.75967" transform="rotate(-90 44.3318 39.0333)" fill="#FFDE45"/>
<rect x="33.7556" y="17.1" width="4.75967" height="5.74444" fill="#F3B700"/>
<rect x="33.7554" y="22.8445" width="10.577" height="6.26666" fill="#F3B700"/>
<rect x="39.573" y="35.9" width="9.92221" height="4.75967" transform="rotate(-90 39.573 35.9)" fill="#F3B700"/>
<rect x="10.3228" y="46.3846" width="212.355" height="3.61538" fill="#83463C"/>
<rect x="10.3228" y="3.00006" width="212.355" height="3.61538" fill="#F5D1A6"/>
<rect x="222.677" y="42.7693" width="3.66129" height="3.61538" fill="#83463C"/>
<rect x="6.66113" y="42.7693" width="3.66129" height="3.61538" fill="#F5D1A6"/>
<rect x="222.677" y="6.61542" width="3.66129" height="3.61538" fill="#DE7C50"/>
<rect x="6.66113" y="6.61542" width="3.66129" height="3.61538" fill="#F5D1A6"/>
<rect x="226.338" y="10.2309" width="3.66129" height="32.5384" fill="#83463C"/>
<rect x="3" y="10.2309" width="3.66129" height="32.5384" fill="#F5D1A6"/>
</svg>
