<svg width="52" height="58" viewBox="0 0 52 58" fill="none" xmlns="http://www.w3.org/2000/svg">
<rect x="26" width="2" height="2" fill="black"/>
<rect x="24" width="2" height="2" fill="black"/>
<rect x="22" y="2" width="2" height="2" fill="black"/>
<rect x="30" y="2" width="2" height="2" fill="black"/>
<rect x="34" y="4" width="2" height="2" fill="black"/>
<rect x="38" y="6" width="2" height="2" fill="black"/>
<rect x="42" y="8" width="2" height="2" fill="black"/>
<rect x="46" y="10" width="2" height="2" fill="black"/>
<rect x="50" y="12" width="2" height="34" fill="black"/>
<rect x="20" y="2" width="2" height="2" fill="black"/>
<rect x="28" y="2" width="2" height="2" fill="black"/>
<rect x="32" y="4" width="2" height="2" fill="black"/>
<rect x="36" y="6" width="2" height="2" fill="black"/>
<rect x="40" y="8" width="2" height="2" fill="black"/>
<rect x="44" y="10" width="2" height="2" fill="black"/>
<rect x="48" y="12" width="2" height="2" fill="black"/>
<rect x="48" y="44" width="2" height="2" fill="black"/>
<rect x="46" y="46" width="2" height="2" fill="black"/>
<rect x="42" y="48" width="2" height="2" fill="black"/>
<rect x="38" y="50" width="2" height="2" fill="black"/>
<rect x="34" y="52" width="2" height="2" fill="black"/>
<rect x="30" y="54" width="2" height="2" fill="black"/>
<rect x="44" y="46" width="2" height="2" fill="black"/>
<rect x="40" y="48" width="2" height="2" fill="black"/>
<rect x="36" y="50" width="2" height="2" fill="black"/>
<rect x="32" y="52" width="2" height="2" fill="black"/>
<rect x="28" y="54" width="2" height="2" fill="black"/>
<rect x="18" y="4" width="2" height="2" fill="black"/>
<rect x="16" y="4" width="2" height="2" fill="black"/>
<rect x="14" y="6" width="2" height="2" fill="black"/>
<rect x="12" y="6" width="2" height="2" fill="black"/>
<rect x="10" y="8" width="2" height="2" fill="black"/>
<rect width="2" height="2" transform="matrix(-1 0 0 1 10 8)" fill="black"/>
<rect width="2" height="2" transform="matrix(-1 0 0 1 8 10)" fill="black"/>
<rect width="2" height="2" transform="matrix(-1 0 0 1 8 46)" fill="black"/>
<rect width="2" height="2" transform="matrix(-1 0 0 1 12 48)" fill="black"/>
<rect width="2" height="2" transform="matrix(-1 0 0 1 16 50)" fill="black"/>
<rect width="2" height="2" transform="matrix(-1 0 0 1 20 52)" fill="black"/>
<rect width="2" height="2" transform="matrix(-1 0 0 1 24 54)" fill="black"/>
<rect width="2" height="2" transform="matrix(-1 0 0 1 28 56)" fill="black"/>
<rect width="2" height="2" transform="matrix(-1 0 0 1 6 10)" fill="black"/>
<rect width="2" height="2" transform="matrix(-1 0 0 1 6 46)" fill="black"/>
<rect width="2" height="2" transform="matrix(-1 0 0 1 10 48)" fill="black"/>
<rect width="2" height="2" transform="matrix(-1 0 0 1 14 50)" fill="black"/>
<rect width="2" height="2" transform="matrix(-1 0 0 1 18 52)" fill="black"/>
<rect width="2" height="2" transform="matrix(-1 0 0 1 22 54)" fill="black"/>
<rect width="2" height="2" transform="matrix(-1 0 0 1 26 56)" fill="black"/>
<rect width="2" height="2" transform="matrix(-1 0 0 1 4 12)" fill="black"/>
<rect width="2" height="2" transform="matrix(-1 0 0 1 4 44)" fill="black"/>
<rect width="2" height="34" transform="matrix(-1 0 0 1 2 12)" fill="black"/>
</svg>
