<svg width="160" height="100" viewBox="0 0 160 100" fill="none" xmlns="http://www.w3.org/2000/svg">
<rect x="79" y="37" width="2" height="2" fill="#C4C4C4"/>
<rect x="81" y="39" width="2" height="2" fill="#C4C4C4"/>
<rect x="93" y="47" width="2" height="2" fill="#C4C4C4"/>
<rect x="91" y="49" width="2" height="2" fill="#C4C4C4"/>
<rect x="89" y="51" width="2" height="2" fill="#C4C4C4"/>
<rect x="87" y="53" width="2" height="2" fill="#C4C4C4"/>
<rect x="87" y="55" width="2" height="2" fill="#C4C4C4"/>
<rect x="89" y="57" width="2" height="4" fill="#C4C4C4"/>
<rect x="91" y="61" width="2" height="4" fill="#C4C4C4"/>
<rect x="85" y="45" width="8" height="2" fill="#C4C4C4"/>
<rect x="83" y="41" width="2" height="4" fill="#C4C4C4"/>
<rect x="79" y="57" width="2" height="2" fill="#C4C4C4"/>
<rect x="81" y="59" width="2" height="2" fill="#C4C4C4"/>
<rect x="83" y="61" width="2" height="2" fill="#C4C4C4"/>
<rect x="85" y="63" width="4" height="2" fill="#C4C4C4"/>
<rect x="89" y="65" width="4" height="2" fill="#C4C4C4"/>
<rect x="77" y="59" width="2" height="2" fill="#C4C4C4"/>
<rect x="75" y="61" width="2" height="2" fill="#C4C4C4"/>
<rect width="4" height="2" transform="matrix(-1 0 0 1 75 63)" fill="#C4C4C4"/>
<rect x="67" y="65" width="4" height="2" fill="#C4C4C4"/>
<rect x="65" y="47" width="2" height="2" fill="#C4C4C4"/>
<rect x="67" y="49" width="2" height="2" fill="#C4C4C4"/>
<rect x="69" y="51" width="2" height="2" fill="#C4C4C4"/>
<rect x="67" y="61" width="2" height="4" fill="#C4C4C4"/>
<rect x="69" y="57" width="2" height="4" fill="#C4C4C4"/>
<rect x="71" y="53" width="2" height="4" fill="#C4C4C4"/>
<rect x="67" y="45" width="8" height="2" fill="#C4C4C4"/>
<rect x="77" y="39" width="2" height="2" fill="#C4C4C4"/>
<rect x="75" y="41" width="2" height="4" fill="#C4C4C4"/>
<rect x="39" y="45" width="2" height="2" fill="#C4C4C4"/>
<rect x="41" y="47" width="2" height="2" fill="#C4C4C4"/>
<rect x="53" y="55" width="2" height="2" fill="#C4C4C4"/>
<rect x="51" y="57" width="2" height="2" fill="#C4C4C4"/>
<rect x="49" y="59" width="2" height="2" fill="#C4C4C4"/>
<rect x="47" y="61" width="2" height="2" fill="#C4C4C4"/>
<rect x="47" y="63" width="2" height="2" fill="#C4C4C4"/>
<rect x="49" y="65" width="2" height="4" fill="#C4C4C4"/>
<rect x="51" y="69" width="2" height="4" fill="#C4C4C4"/>
<rect x="45" y="53" width="8" height="2" fill="#C4C4C4"/>
<rect x="43" y="49" width="2" height="4" fill="#C4C4C4"/>
<rect x="39" y="65" width="2" height="2" fill="#C4C4C4"/>
<rect x="41" y="67" width="2" height="2" fill="#C4C4C4"/>
<rect x="43" y="69" width="2" height="2" fill="#C4C4C4"/>
<rect x="45" y="71" width="4" height="2" fill="#C4C4C4"/>
<rect x="49" y="73" width="4" height="2" fill="#C4C4C4"/>
<rect x="37" y="67" width="2" height="2" fill="#C4C4C4"/>
<rect x="35" y="69" width="2" height="2" fill="#C4C4C4"/>
<rect width="4" height="2" transform="matrix(-1 0 0 1 35 71)" fill="#C4C4C4"/>
<rect x="27" y="73" width="4" height="2" fill="#C4C4C4"/>
<rect x="25" y="55" width="2" height="2" fill="#C4C4C4"/>
<rect x="27" y="57" width="2" height="2" fill="#C4C4C4"/>
<rect x="29" y="59" width="2" height="2" fill="#C4C4C4"/>
<rect x="27" y="69" width="2" height="4" fill="#C4C4C4"/>
<rect x="29" y="65" width="2" height="4" fill="#C4C4C4"/>
<rect x="31" y="61" width="2" height="4" fill="#C4C4C4"/>
<rect x="27" y="53" width="8" height="2" fill="#C4C4C4"/>
<rect x="37" y="47" width="2" height="2" fill="#C4C4C4"/>
<rect x="35" y="49" width="2" height="4" fill="#C4C4C4"/>
<rect x="119" y="45" width="2" height="2" fill="#C4C4C4"/>
<rect x="121" y="47" width="2" height="2" fill="#C4C4C4"/>
<rect x="133" y="55" width="2" height="2" fill="#C4C4C4"/>
<rect x="131" y="57" width="2" height="2" fill="#C4C4C4"/>
<rect x="129" y="59" width="2" height="2" fill="#C4C4C4"/>
<rect x="127" y="61" width="2" height="2" fill="#C4C4C4"/>
<rect x="127" y="63" width="2" height="2" fill="#C4C4C4"/>
<rect x="129" y="65" width="2" height="4" fill="#C4C4C4"/>
<rect x="131" y="69" width="2" height="4" fill="#C4C4C4"/>
<rect x="125" y="53" width="8" height="2" fill="#C4C4C4"/>
<rect x="123" y="49" width="2" height="4" fill="#C4C4C4"/>
<rect x="119" y="65" width="2" height="2" fill="#C4C4C4"/>
<rect x="121" y="67" width="2" height="2" fill="#C4C4C4"/>
<rect x="123" y="69" width="2" height="2" fill="#C4C4C4"/>
<rect x="125" y="71" width="4" height="2" fill="#C4C4C4"/>
<rect x="129" y="73" width="4" height="2" fill="#C4C4C4"/>
<rect x="117" y="67" width="2" height="2" fill="#C4C4C4"/>
<rect x="115" y="69" width="2" height="2" fill="#C4C4C4"/>
<rect width="4" height="2" transform="matrix(-1 0 0 1 115 71)" fill="#C4C4C4"/>
<rect x="107" y="73" width="4" height="2" fill="#C4C4C4"/>
<rect x="105" y="55" width="2" height="2" fill="#C4C4C4"/>
<rect x="107" y="57" width="2" height="2" fill="#C4C4C4"/>
<rect x="109" y="59" width="2" height="2" fill="#C4C4C4"/>
<rect x="107" y="69" width="2" height="4" fill="#C4C4C4"/>
<rect x="109" y="65" width="2" height="4" fill="#C4C4C4"/>
<rect x="111" y="61" width="2" height="4" fill="#C4C4C4"/>
<rect x="107" y="53" width="8" height="2" fill="#C4C4C4"/>
<rect x="117" y="47" width="2" height="2" fill="#C4C4C4"/>
<rect x="115" y="49" width="2" height="4" fill="#C4C4C4"/>
<rect x="67" y="37" width="2" height="2" fill="#C4C4C4"/>
<rect x="91" y="37" width="2" height="2" fill="#C4C4C4"/>
<rect x="93" y="35" width="2" height="2" fill="#C4C4C4"/>
<rect x="95" y="33" width="2" height="2" fill="#C4C4C4"/>
<rect x="79" y="31" width="2" height="2" fill="#C4C4C4"/>
<rect x="79" y="29" width="2" height="2" fill="#C4C4C4"/>
<rect x="79" y="27" width="2" height="2" fill="#C4C4C4"/>
<rect x="65" y="35" width="2" height="2" fill="#C4C4C4"/>
<rect x="63" y="33" width="2" height="2" fill="#C4C4C4"/>
</svg>
