<svg width="160" height="100" viewBox="0 0 160 100" fill="none" xmlns="http://www.w3.org/2000/svg">
<rect x="51" y="20" width="2" height="60" fill="#C8D0CC"/>
<rect x="77" y="20" width="2" height="60" fill="#C8D0CC"/>
<rect x="53" y="18" width="24" height="2" fill="#C8D0CC"/>
<rect x="75" y="24" width="2" height="2" fill="#C8D0CC"/>
<rect x="75" y="30" width="2" height="2" fill="#C8D0CC"/>
<rect x="75" y="36" width="2" height="2" fill="#C8D0CC"/>
<rect x="75" y="42" width="2" height="2" fill="#C8D0CC"/>
<rect x="75" y="48" width="2" height="2" fill="#C8D0CC"/>
<rect x="75" y="54" width="2" height="2" fill="#C8D0CC"/>
<rect x="75" y="60" width="2" height="2" fill="#C8D0CC"/>
<rect x="75" y="66" width="2" height="2" fill="#C8D0CC"/>
<rect x="75" y="72" width="2" height="2" fill="#C8D0CC"/>
<rect x="73" y="22" width="2" height="2" fill="#C8D0CC"/>
<rect x="71" y="22" width="2" height="2" fill="#C8D0CC"/>
<rect x="73" y="28" width="2" height="2" fill="#C8D0CC"/>
<rect x="71" y="28" width="2" height="2" fill="#C8D0CC"/>
<rect x="73" y="34" width="2" height="2" fill="#C8D0CC"/>
<rect x="71" y="34" width="2" height="2" fill="#C8D0CC"/>
<rect x="73" y="40" width="2" height="2" fill="#C8D0CC"/>
<rect x="71" y="40" width="2" height="2" fill="#C8D0CC"/>
<rect x="73" y="46" width="2" height="2" fill="#C8D0CC"/>
<rect x="71" y="46" width="2" height="2" fill="#C8D0CC"/>
<rect x="73" y="52" width="2" height="2" fill="#C8D0CC"/>
<rect x="71" y="52" width="2" height="2" fill="#C8D0CC"/>
<rect x="73" y="58" width="2" height="2" fill="#C8D0CC"/>
<rect x="71" y="58" width="2" height="2" fill="#C8D0CC"/>
<rect x="73" y="64" width="2" height="2" fill="#C8D0CC"/>
<rect x="71" y="64" width="2" height="2" fill="#C8D0CC"/>
<rect x="73" y="70" width="2" height="2" fill="#C8D0CC"/>
<rect x="71" y="70" width="2" height="2" fill="#C8D0CC"/>
<rect x="59" y="24" width="6" height="2" fill="#C8D0CC"/>
<rect x="59" y="32" width="6" height="2" fill="#C8D0CC"/>
<rect x="57" y="26" width="2" height="6" fill="#C8D0CC"/>
<rect x="65" y="26" width="2" height="6" fill="#C8D0CC"/>
<rect x="87" y="20" width="2" height="60" fill="#C8D0CC"/>
<rect x="93" y="54" width="2" height="20" fill="#C8D0CC"/>
<rect x="89" y="80" width="30" height="2" fill="#C8D0CC"/>
<rect x="95" y="74" width="10" height="2" fill="#C8D0CC"/>
<rect x="89" y="18" width="2" height="2" fill="#C8D0CC"/>
<rect x="91" y="20" width="2" height="2" fill="#C8D0CC"/>
<rect x="97" y="32" width="2" height="2" fill="#C8D0CC"/>
<rect x="99" y="58" width="2" height="2" fill="#C8D0CC"/>
<rect x="103" y="44" width="2" height="2" fill="#C8D0CC"/>
<rect x="105" y="70" width="2" height="2" fill="#C8D0CC"/>
<rect x="109" y="56" width="2" height="2" fill="#C8D0CC"/>
<rect x="115" y="68" width="2" height="2" fill="#C8D0CC"/>
<rect x="93" y="24" width="2" height="2" fill="#C8D0CC"/>
<rect x="99" y="36" width="2" height="2" fill="#C8D0CC"/>
<rect x="101" y="62" width="2" height="2" fill="#C8D0CC"/>
<rect x="105" y="48" width="2" height="2" fill="#C8D0CC"/>
<rect x="111" y="60" width="2" height="2" fill="#C8D0CC"/>
<rect x="117" y="72" width="2" height="2" fill="#C8D0CC"/>
<rect x="95" y="28" width="2" height="2" fill="#C8D0CC"/>
<rect x="97" y="54" width="2" height="2" fill="#C8D0CC"/>
<rect x="95" y="52" width="2" height="2" fill="#C8D0CC"/>
<rect x="101" y="40" width="2" height="2" fill="#C8D0CC"/>
<rect x="103" y="66" width="2" height="2" fill="#C8D0CC"/>
<rect x="107" y="52" width="2" height="2" fill="#C8D0CC"/>
<rect x="113" y="64" width="2" height="2" fill="#C8D0CC"/>
<rect x="119" y="76" width="2" height="2" fill="#C8D0CC"/>
<rect x="91" y="22" width="2" height="2" fill="#C8D0CC"/>
<rect x="97" y="34" width="2" height="2" fill="#C8D0CC"/>
<rect x="99" y="60" width="2" height="2" fill="#C8D0CC"/>
<rect x="103" y="46" width="2" height="2" fill="#C8D0CC"/>
<rect x="105" y="72" width="2" height="2" fill="#C8D0CC"/>
<rect x="109" y="58" width="2" height="2" fill="#C8D0CC"/>
<rect x="115" y="70" width="2" height="2" fill="#C8D0CC"/>
<rect x="93" y="26" width="2" height="2" fill="#C8D0CC"/>
<rect x="99" y="38" width="2" height="2" fill="#C8D0CC"/>
<rect x="101" y="64" width="2" height="2" fill="#C8D0CC"/>
<rect x="105" y="50" width="2" height="2" fill="#C8D0CC"/>
<rect x="111" y="62" width="2" height="2" fill="#C8D0CC"/>
<rect x="117" y="74" width="2" height="2" fill="#C8D0CC"/>
<rect x="95" y="30" width="2" height="2" fill="#C8D0CC"/>
<rect x="97" y="56" width="2" height="2" fill="#C8D0CC"/>
<rect x="101" y="42" width="2" height="2" fill="#C8D0CC"/>
<rect x="103" y="68" width="2" height="2" fill="#C8D0CC"/>
<rect x="107" y="54" width="2" height="2" fill="#C8D0CC"/>
<rect x="113" y="66" width="2" height="2" fill="#C8D0CC"/>
<rect x="119" y="78" width="2" height="2" fill="#C8D0CC"/>
<rect x="39" y="52" width="2" height="2" fill="#C8D0CC"/>
<rect x="41" y="54" width="2" height="2" fill="#C8D0CC"/>
<rect x="43" y="52" width="2" height="2" fill="#C8D0CC"/>
<rect x="39" y="56" width="2" height="2" fill="#C8D0CC"/>
<rect x="43" y="56" width="2" height="2" fill="#C8D0CC"/>
<rect x="113" y="36" width="4" height="2" fill="#C8D0CC"/>
<rect x="113" y="42" width="4" height="2" fill="#C8D0CC"/>
<rect x="111" y="38" width="2" height="4" fill="#C8D0CC"/>
<rect x="117" y="38" width="2" height="4" fill="#C8D0CC"/>
</svg>
