<svg width="81" height="22" viewBox="0 0 81 22" fill="none" xmlns="http://www.w3.org/2000/svg">
<path d="M0 0V18.641H2.43506V21.0769H78.5634V18.641H81.0001V0L0 0Z" fill="black"/>
<mask id="path-2-outside-1" maskUnits="userSpaceOnUse" x="3" y="3.10791" width="44" height="15" fill="black">
<rect fill="white" x="3" y="3.10791" width="44" height="15"/>
<path fill-rule="evenodd" clip-rule="evenodd" d="M6 17.1079L46 17.1079L46 16.1079L46 5.10791L46 4.10791L6 4.10791L6 5.10791L4 5.10791L4 16.1079L6 16.1079L6 17.1079Z"/>
</mask>
<path fill-rule="evenodd" clip-rule="evenodd" d="M6 17.1079L46 17.1079L46 16.1079L46 5.10791L46 4.10791L6 4.10791L6 5.10791L4 5.10791L4 16.1079L6 16.1079L6 17.1079Z" fill="#67E4FF"/>
<path d="M46 17.1079L46 18.1079L47 18.1079L47 17.1079L46 17.1079ZM6 17.1079L5 17.1079L5 18.1079L6 18.1079L6 17.1079ZM46 4.10791L47 4.10791L47 3.10791L46 3.10791L46 4.10791ZM6 4.10791L6 3.10791L5 3.10791L5 4.10791L6 4.10791ZM6 5.10791L6 6.10791L7 6.10791L7 5.10791L6 5.10791ZM4 5.10791L4 4.10791L3 4.10791L3 5.10791L4 5.10791ZM4 16.1079L3 16.1079L3 17.1079L4 17.1079L4 16.1079ZM6 16.1079L7 16.1079L7 15.1079L6 15.1079L6 16.1079ZM46 16.1079L6 16.1079L6 18.1079L46 18.1079L46 16.1079ZM45 16.1079L45 17.1079L47 17.1079L47 16.1079L45 16.1079ZM45 5.10791L45 16.1079L47 16.1079L47 5.10791L45 5.10791ZM45 4.10791L45 5.10791L47 5.10791L47 4.10791L45 4.10791ZM6 5.10791L46 5.10791L46 3.10791L6 3.10791L6 5.10791ZM7 5.10791L7 4.10791L5 4.10791L5 5.10791L7 5.10791ZM4 6.10791L6 6.10791L6 4.10791L4 4.10791L4 6.10791ZM5 16.1079L5 5.10791L3 5.10791L3 16.1079L5 16.1079ZM6 15.1079L4 15.1079L4 17.1079L6 17.1079L6 15.1079ZM7 17.1079L7 16.1079L5 16.1079L5 17.1079L7 17.1079Z" fill="white" mask="url(#path-2-outside-1)"/>
<path d="M41.75 18.1079L41.75 18.6079L42.25 18.6079L73.5 18.6079L74 18.6079L74 18.1079L74 16.8579L75.25 16.8579L75.75 16.8579L75.75 16.3579L75.75 15.1079L77 15.1079L77.5 15.1079L77.5 14.6079L77.5 6.60791L77.5 6.10791L77 6.10791L75.75 6.10791L75.75 4.85791L75.75 4.35791L75.25 4.35791L74 4.35791L74 3.10791L74 2.60791L73.5 2.60791L42.25 2.60791L41.75 2.60791L41.75 3.10791L41.75 4.35791L40.5 4.35791L40 4.35791L40 4.85791L40 6.10791L38.75 6.10791L38.25 6.10791L38.25 6.60791L38.25 14.6079L38.25 15.1079L38.75 15.1079L40 15.1079L40 16.3579L40 16.8579L40.5 16.8579L41.75 16.8579L41.75 18.1079Z" fill="#2D41F1" stroke="white"/>
</svg>
