<svg width="26" height="30" viewBox="0 0 26 30" fill="none" xmlns="http://www.w3.org/2000/svg">
<rect x="5" y="1" width="16" height="28" fill="white"/>
<rect x="10" y="5" width="15" height="24" fill="white"/>
<rect x="21" y="2" width="1" height="4" fill="white"/>
<rect x="24" y="4" width="2" height="3" transform="rotate(90 24 4)" fill="white"/>
<rect x="22" y="3" width="1" height="1" fill="white"/>
<rect x="4" y="1" width="1" height="28" fill="black"/>
<rect x="25" y="6" width="1" height="23" fill="black"/>
<rect x="25" y="29" width="1" height="20" transform="rotate(90 25 29)" fill="black"/>
<rect x="21" width="1" height="16" transform="rotate(90 21 0)" fill="black"/>
<rect x="19" y="1" width="1" height="7" fill="black"/>
<rect x="25" y="7" width="1" height="6" transform="rotate(90 25 7)" fill="black"/>
<rect x="21" y="1" width="1" height="1" fill="black"/>
<rect x="22" y="2" width="1" height="1" fill="black"/>
<rect x="23" y="3" width="1" height="1" fill="black"/>
<rect x="24" y="4" width="1" height="1" fill="black"/>
<rect x="25" y="5" width="1" height="1" fill="black"/>
<rect x="15" y="17.9999" width="1" height="14" transform="rotate(90 15 17.9999)" fill="black"/>
<rect x="16" y="23.9999" width="1" height="5" transform="rotate(-180 16 23.9999)" fill="black"/>
<rect x="15" y="23.9999" width="1" height="14" transform="rotate(90 15 23.9999)" fill="black"/>
<rect x="1" y="23.9999" width="1" height="5" transform="rotate(-180 1 23.9999)" fill="black"/>
<rect x="1" y="18.9999" width="14" height="5" fill="#20B36C"/>
</svg>
