<svg width="233" height="53" viewBox="0 0 233 53" fill="none" xmlns="http://www.w3.org/2000/svg">
<path d="M1.50024 39.1538V40.6538V42.7692V44.2692H3.00024H5.16153V46.3846V47.8846H6.66153H8.82282V50V51.5H10.3228H222.677H224.177V50V47.8846H226.339H227.839V46.3846V44.2692H230H231.5V42.7692V40.6538V39.1538V13.8462V12.3462V10.2308V8.73077H230H227.839V6.61538V5.11538H226.339H224.177V3V1.5H222.677H10.3228H8.82282V3V5.11538H6.66153H5.16153V6.61538V8.73077H3.00024H1.50024V10.2308V12.3462V13.8462V39.1538Z" fill="#14AF64" stroke="black" stroke-width="3"/>
<rect x="10.3228" y="46.3846" width="212.355" height="3.61538" fill="#12613B"/>
<rect x="10.3228" y="3" width="212.355" height="3.61538" fill="#56F7A9"/>
<rect x="222.677" y="42.7692" width="3.66129" height="3.61538" fill="#12613B"/>
<rect x="6.66113" y="42.7692" width="3.66129" height="3.61538" fill="#56F7A9"/>
<rect x="222.677" y="6.61536" width="3.66129" height="3.61538" fill="#12613B"/>
<rect x="6.66113" y="6.61536" width="3.66129" height="3.61538" fill="#56F7A9"/>
<rect x="226.338" y="10.2308" width="3.66129" height="32.5385" fill="#12613B"/>
<rect x="3" y="10.2308" width="3.66129" height="32.5385" fill="#56F7A9"/>
</svg>
