<svg width="21" height="26" viewBox="0 0 21 26" fill="none" xmlns="http://www.w3.org/2000/svg">
<rect x="7.80005" y="24.2666" width="4.33333" height="22.5333" transform="rotate(180 7.80005 24.2666)" fill="#F3B700"/>
<rect x="4.33337" y="20.7998" width="4.33333" height="15.6" transform="rotate(180 4.33337 20.7998)" fill="#F3B700"/>
<rect x="15.6" y="5.2002" width="10.4" height="3.46667" transform="rotate(180 15.6 5.2002)" fill="#F3B700"/>
<rect x="13.0001" y="1.7334" width="4.33333" height="22.5333" fill="black"/>
<rect x="16.4668" y="4.3335" width="4.33333" height="17.3333" fill="black"/>
<rect x="5.20007" y="20.7998" width="10.4" height="3.46667" fill="black"/>
<rect x="15.6001" y="26" width="10.4" height="1.73333" transform="rotate(180 15.6001 26)" fill="black"/>
<rect x="15.6001" y="1.7334" width="10.4" height="1.73333" transform="rotate(180 15.6001 1.7334)" fill="black"/>
<rect y="20.7998" width="15.6" height="1.73333" transform="rotate(-90 0 20.7998)" fill="black"/>
<rect x="17.3334" y="24.2666" width="1.73333" height="1.73333" transform="rotate(180 17.3334 24.2666)" fill="black"/>
<rect x="5.20007" y="24.2666" width="1.73333" height="1.73333" transform="rotate(180 5.20007 24.2666)" fill="black"/>
<rect x="17.3334" y="3.4668" width="1.73333" height="1.73333" transform="rotate(180 17.3334 3.4668)" fill="black"/>
<rect x="5.20007" y="3.4668" width="1.73333" height="1.73333" transform="rotate(180 5.20007 3.4668)" fill="black"/>
<rect x="19.0668" y="22.5332" width="1.73333" height="1.73333" transform="rotate(180 19.0668 22.5332)" fill="black"/>
<rect x="3.46667" y="22.5332" width="1.73333" height="1.73333" transform="rotate(180 3.46667 22.5332)" fill="black"/>
<rect x="19.0668" y="5.2002" width="1.73333" height="1.73333" transform="rotate(180 19.0668 5.2002)" fill="black"/>
<rect x="3.46667" y="5.2002" width="1.73333" height="1.73333" transform="rotate(180 3.46667 5.2002)" fill="black"/>
<path fill-rule="evenodd" clip-rule="evenodd" d="M5.20004 22.5332L15.6 22.5332L15.6 20.7999L17.3334 20.7999L17.3334 5.19987L15.6 5.19987L15.6 3.46654L5.20004 3.46654L5.20004 5.19987L3.46671 5.19987L3.46671 20.7999L5.20004 20.7999L5.20004 22.5332Z" fill="#FFDE45"/>
<rect x="7.80005" y="6.06689" width="5.2" height="1.73333" fill="black"/>
<rect x="7.80005" y="18.2002" width="5.2" height="1.73333" fill="#F3B700"/>
<rect x="6.06677" y="18.2002" width="10.4" height="1.73333" transform="rotate(-90 6.06677 18.2002)" fill="black"/>
<rect x="13" y="18.2002" width="10.4" height="1.73333" transform="rotate(-90 13 18.2002)" fill="#F3B700"/>
</svg>
