<svg width="20" height="20" viewBox="0 0 20 20" fill="none" xmlns="http://www.w3.org/2000/svg">
<path d="M11.5265 3.6842V2.6842H10.5265H9.47382H8.47382V3.6842V3.73684H7.9475V4.73684V4.78947H7.42119V5.78947V5.8421H7.36856H6.36856V6.8421V6.89473H2.63171H1.63171V7.89473V8.94736V9.94736H2.63171H2.68435V9.99999V11H3.68435H3.73698V11.0526V12.0526H4.26329V12.1053V12.1579V13.1053V13.1579V13.2105H3.73698V14.2105V14.2632H3.21066V15.2632V15.3158H2.68435V16.3158V17.3684V18.3684H3.68435H5.78961H6.78961V17.3684V17.3158H7.89487H8.89487V16.3158V16.2632H8.9475H9.9475V15.2632V15.2105H10.0528V15.2632V16.2632H11.0528H11.1054V16.3158V17.3158H12.1054H13.2107V17.3684V18.3684H14.2107H16.3159H17.3159V17.3684V16.3158V15.3158H16.7896V15.2632V14.2632H16.2633V14.2105V13.2105H15.737V13.1579V13.1053V12.1579V12.1053V12.0526H16.2633V11.0526V11H16.3159H17.3159V9.99999V9.94736H17.3686H18.3686V8.94736V7.89473V6.89473H17.3686H13.6317V6.8421V5.8421H12.6317H12.5791V5.78947V4.78947H12.0528V4.73684V3.73684H11.5265V3.6842Z" fill="#FFE24D" stroke="black" stroke-width="2"/>
<path d="M11.5263 2.63159V1.63159H10.5263H9.4737H8.4737V2.63159V2.68422H7.94738V3.68422V3.73686H7.42107V4.73686V4.78949H7.36843H6.36843V5.78949V5.84212H2.63159H1.63159V6.84212V7.89475V8.89475H2.63159H2.68422V8.94738V9.94738H3.68422H3.73686V10V11H4.26317V11.0526V11.1053V12.0526V12.1053V12.1579H3.73686V13.1579V13.2105H3.21054V14.2105V14.2632H2.68422V15.2632V16.3158V17.3158H3.68422H5.78949H6.78949V16.3158V16.2632H7.89475H8.89475V15.2632V15.2105H8.94738H9.94738V14.2105V14.1579H10.0526V14.2105V15.2105H11.0526H11.1053V15.2632V16.2632H12.1053H13.2105V16.3158V17.3158H14.2105H16.3158H17.3158V16.3158V15.2632V14.2632H16.7895V14.2105V13.2105H16.2632V13.1579V12.1579H15.7369V12.1053V12.0526V11.1053V11.0526V11H16.2632V10V9.94738H16.3158H17.3158V8.94738V8.89475H17.3684H18.3684V7.89475V6.84212V5.84212H17.3684H13.6316V5.78949V4.78949H12.6316H12.579V4.73686V3.73686H12.0526V3.68422V2.68422H11.5263V2.63159Z" fill="#FFE24D" stroke="black" stroke-width="2"/>
</svg>
