<svg width="40" height="40" viewBox="0 0 40 40" fill="none" xmlns="http://www.w3.org/2000/svg">
<path fill-rule="evenodd" clip-rule="evenodd" d="M29.375 12.125H10.625V27.6136H13.125V30.2501H26.875V27.6136H29.375V12.125Z" fill="#C2C2C2"/>
<rect x="18" y="10" width="4" height="3" fill="#C4C4C4"/>
<path d="M11.875 27.75H13.125V29H11.875V27.75Z" fill="#C7C7C7"/>
<path d="M26.875 27.75H28.125V29H26.875V27.75Z" fill="#C7C7C7"/>
<path d="M13.125 29H14.375V30.25H13.125V29Z" fill="#C7C7C7"/>
<path d="M25.625 29H26.875V30.25H25.625V29Z" fill="#C7C7C7"/>
<path d="M11.875 25.25L11.875 27.75L10.625 27.75L10.625 25.25L11.875 25.25Z" fill="#C7C7C7"/>
<path d="M29.375 25.25L29.375 27.75L28.125 27.75L28.125 25.25L29.375 25.25Z" fill="#C7C7C7"/>
<path d="M16.875 31.5L14.375 31.5L14.375 30.25L16.875 30.25L16.875 31.5Z" fill="#C7C7C7"/>
<path d="M25.625 31.5L23.125 31.5L23.125 30.25L25.625 30.25L25.625 31.5Z" fill="#C7C7C7"/>
<path d="M16.875 31.5H23.125V32.75H16.875V31.5Z" fill="#C7C7C7"/>
<path d="M9.375 25.25L9.375 13.375L10.625 13.375L10.625 25.25L9.375 25.25Z" fill="#C7C7C7"/>
<path d="M29.375 25.25L29.375 13.375L30.625 13.375L30.625 25.25L29.375 25.25Z" fill="#C7C7C7"/>
<path d="M10.625 12.125H13.125V13.375H10.625V12.125Z" fill="#C7C7C7"/>
<path d="M26.875 12.125H29.375V13.375H26.875V12.125Z" fill="#C7C7C7"/>
<path d="M15.9375 9.625H18.125V10.875H15.9375V9.625Z" fill="#C7C7C7"/>
<path d="M21.875 9.625H24.0625V10.875H21.875V9.625Z" fill="#C7C7C7"/>
<path d="M13.125 10.875H15.9375V12.125H13.125V10.875Z" fill="#C7C7C7"/>
<path d="M24.0625 10.875H26.875V12.125H24.0625V10.875Z" fill="#C7C7C7"/>
<path d="M18.13 8.375H21.88V9.625H18.13V8.375Z" fill="#C7C7C7"/>
<path d="M11.875 21.8125H15.9375L15.9375 23.0625H11.875L11.875 21.8125Z" fill="#EAEAEA"/>
<path d="M24.0625 21.8125H28.125L28.125 23.0625H24.0625L24.0625 21.8125Z" fill="#EAEAEA"/>
<path d="M17.8125 21.8125H22.1875L22.1875 23.0625H17.8125L17.8125 21.8125Z" fill="#EAEAEA"/>
<path d="M19.375 30.25L19.375 21.8125L20.625 21.8125L20.625 30.25L19.375 30.25Z" fill="#EAEAEA"/>
<path d="M17.8125 21.8125L17.8125 18.6875L19.0625 18.6875L19.0625 21.8125L17.8125 21.8125Z" fill="#EAEAEA"/>
<path d="M10.625 13.375H13.125V14.625H10.625V13.375Z" fill="#EAEAEA"/>
<path d="M24.06 12.1299H26.87V13.3799H24.06V12.1299Z" fill="#EAEAEA"/>
<path d="M13.13 12.1299H15.94V13.3799H13.13V12.1299Z" fill="#EAEAEA"/>
<path d="M26.875 13.375H29.375V14.625H26.875V13.375Z" fill="#EAEAEA"/>
<path d="M15.9375 10.875H18.125V12.125H15.9375V10.875Z" fill="#EAEAEA"/>
<path d="M18.125 9.625H21.875V10.875H18.125V9.625Z" fill="#EAEAEA"/>
<path d="M21.875 10.875H24.0625V12.125H21.875V10.875Z" fill="#EAEAEA"/>
<path d="M13.125 27.75H14.375V29H13.125V27.75Z" fill="#EAEAEA"/>
<path d="M25.625 27.75H26.875V29H25.625V27.75Z" fill="#EAEAEA"/>
<path d="M13.125 25.25L13.125 27.75L11.875 27.75L11.875 25.25L13.125 25.25Z" fill="#EAEAEA"/>
<path d="M16.875 30.25L14.375 30.25L14.375 29L16.875 29L16.875 30.25Z" fill="#EAEAEA"/>
<path d="M25.625 30.25L23.125 30.25L23.125 29L25.625 29L25.625 30.25Z" fill="#EAEAEA"/>
<path d="M28.125 25.25L28.125 27.75L26.875 27.75L26.875 25.25L28.125 25.25Z" fill="#EAEAEA"/>
<path d="M16.875 30.25H23.125V31.5H16.875V30.25Z" fill="#EAEAEA"/>
<path d="M10.625 25.25L10.625 14.625L11.875 14.625L11.875 25.25L10.625 25.25Z" fill="#EAEAEA"/>
<path d="M28.125 25.25L28.125 14.625L29.375 14.625L29.375 25.25L28.125 25.25Z" fill="#EAEAEA"/>
</svg>
