<svg width="173" height="30" viewBox="0 0 173 30" fill="none" xmlns="http://www.w3.org/2000/svg">
<mask id="path-1-outside-1" maskUnits="userSpaceOnUse" x="0" y="0" width="31" height="30" fill="black">
<rect fill="white" width="31" height="30"/>
<path fill-rule="evenodd" clip-rule="evenodd" d="M27 4H8V8H4V26H27V4Z"/>
</mask>
<path fill-rule="evenodd" clip-rule="evenodd" d="M27 4H8V8H4V26H27V4Z" fill="#BACC94"/>
<path d="M8 4V0H4V4H8ZM27 4H31V0H27V4ZM8 8V12H12V8H8ZM4 8V4H0V8H4ZM4 26H0V30H4V26ZM27 26V30H31V26H27ZM8 8H27V0H8V8ZM4 4V8H12V4H4ZM8 4H4V12H8V4ZM8 26V8H0V26H8ZM27 22H4V30H27V22ZM23 4V26H31V4H23Z" fill="black" mask="url(#path-1-outside-1)"/>
<mask id="path-3-outside-2" maskUnits="userSpaceOnUse" x="27" y="0" width="73" height="30" fill="black">
<rect fill="white" x="27" width="73" height="30"/>
<path d="M31 4H96V26H31V4Z"/>
</mask>
<path d="M31 4H96V26H31V4Z" fill="white"/>
<path d="M31 4V0H27V4H31ZM96 4H100V0H96V4ZM96 26V30H100V26H96ZM31 26H27V30H31V26ZM31 8H96V0H31V8ZM92 4V26H100V4H92ZM96 22H31V30H96V22ZM35 26V4H27V26H35Z" fill="black" mask="url(#path-3-outside-2)"/>
<mask id="path-5-outside-3" maskUnits="userSpaceOnUse" x="96" y="0" width="77" height="30" fill="black">
<rect fill="white" x="96" width="77" height="30"/>
<path d="M100 4H169V26H100V4Z"/>
</mask>
<path d="M100 4H169V26H100V4Z" fill="#FFA90E"/>
<path d="M100 4V0H96V4H100ZM169 4H173V0H169V4ZM169 26V30H173V26H169ZM100 26H96V30H100V26ZM100 8H169V0H100V8ZM165 4V26H173V4H165ZM169 22H100V30H169V22ZM104 26V4H96V26H104Z" fill="black" mask="url(#path-5-outside-3)"/>
<rect x="103" y="4" width="7" height="22" fill="#FFA90E"/>
<rect x="100.357" y="6.07563" width="12.6429" height="17.8487" fill="#FFA90E"/>
<rect x="103.333" y="4.58813" width="6.69328" height="2.23109" fill="#FFF6A7"/>
<rect x="106.531" y="6.64581" width="6.17289" height="2.05763" fill="#FFF6A7"/>
<rect x="110" y="24" width="16" height="3" transform="rotate(-90 110 24)" fill="#FFF6A7"/>
<rect x="100.357" y="6.646" width="6.17289" height="2.16923" fill="#FFDE45"/>
<rect x="103" y="8" width="7" height="5" fill="#FFDE45"/>
<rect x="107" y="24" width="13" height="3" transform="rotate(-90 107 24)" fill="#FFDE45"/>
<rect x="100.357" y="8.70329" width="3.08644" height="3.77232" fill="#F3B700"/>
<rect x="100" y="11.9999" width="7" height="5" fill="#F3B700"/>
<rect x="104" y="20.9999" width="6" height="3" transform="rotate(-90 104 20.9999)" fill="#F3B700"/>
<path d="M111.616 4.58813V2.58813H109.616H103.332H101.332V4.58813V4.64575H100.357H98.3574V6.64575V23.354V25.354H100.357H101.332V25.4117V27.4117H103.332H109.616H111.616V25.4117V25.354H112.703H114.703V23.354V6.64575V4.64575H112.703H111.616V4.58813Z" stroke="black" stroke-width="4"/>
</svg>
