<svg width="26" height="32" viewBox="0 0 26 32" fill="none" xmlns="http://www.w3.org/2000/svg">
<path d="M19.0006 2V1H18.0006H8.00068H7.00068V2V3.0239H5.99921H4.99921V4.0239V5.04885H3.99981H2.99981V6.04885V7.07275H2H1V8.07275V16.17V17.17H2H2.99981V20.2191V21.2194L4.00013 21.2191L4.99921 21.2188V24.3093V25.3092L5.99916 25.3093L9.00049 25.3094V28.0841V29.084L10.0004 29.0841L11.0003 29.0842V30V31H12.0003H14.0001H15.0001V30V29.0842L16.0004 29.0841L17.0003 29.084V28.0841V25.3094L19.9992 25.3093L20.9991 25.3092V24.3093V21.2188L21.9995 21.2191L22.9998 21.2194V20.2191V17.17H24H25V16.17V8.07275V7.07275H24H22.9998V6.04885V5.04885H21.9998H20.9991V4.0239V3.0239H19.9991H19.0006V2ZM11.0005 15V11H15.0003L15 15H11.0005Z" fill="#8EF8FF" stroke="black" stroke-width="2"/>
</svg>
