<svg width="122" height="51" viewBox="0 0 122 51" fill="none" xmlns="http://www.w3.org/2000/svg">
<path d="M117.986 4V2H115.986H6.01465H4.01465V4V4.0144H4H2V6.0144V21.123V23.123H4H118H120V21.123V6.0144V4.0144H118H117.986V4Z" fill="white" stroke="black" stroke-width="4"/>
<path d="M115.505 48.9999L117.505 48.9999V47.7499H118.752V46.4999H120V44.4999V26.4999V24.4999H118.752V23.25H117.505V22L115.505 22L14 22L12 22V24V47V49L14 49L115.505 48.9999Z" fill="#FFA90E" stroke="black" stroke-width="4"/>
<rect x="8" y="19" width="8" height="28" fill="#FFA90E"/>
<rect x="4" y="21" width="17" height="24" fill="#FFA90E"/>
<rect x="8" y="19" width="9" height="3" fill="#FFF6A7"/>
<rect x="12.3008" y="21.7667" width="8.30027" height="2.76676" fill="#FFF6A7"/>
<rect x="17.3726" y="43.9008" width="19.3673" height="3.22788" transform="rotate(-90 17.3726 43.9008)" fill="#FFF6A7"/>
<rect x="4" y="21.7668" width="8.30027" height="2.76676" fill="#FFDE45"/>
<rect x="8.1499" y="24.5336" width="9.22252" height="5.07239" fill="#FFDE45"/>
<rect x="13.2224" y="43.901" width="16.6005" height="4.15013" transform="rotate(-90 13.2224 43.901)" fill="#FFDE45"/>
<rect x="4.00073" y="24.5335" width="4.15013" height="5.07239" fill="#F3B700"/>
<rect x="4.00024" y="29.606" width="9.22252" height="5.53351" fill="#F3B700"/>
<rect x="9.07275" y="41.1341" width="8.76139" height="4.15013" transform="rotate(-90 9.07275 41.1341)" fill="#F3B700"/>
<path d="M18.4499 19V17H16.4499H8H6V19V19.7667H4H2V21.7667V44.2332V46.2332H4H6V47V49H8H16.4499H18.4499V47V46.2332H20.6005H22.6005V44.2332V21.7667V19.7667H20.6005H18.4499V19Z" stroke="black" stroke-width="4"/>
</svg>
