<svg width="71" height="24" viewBox="0 0 71 24" fill="none" xmlns="http://www.w3.org/2000/svg">
<mask id="path-1-outside-1" maskUnits="userSpaceOnUse" x="0" y="0" width="71" height="24" fill="black">
<rect fill="white" width="71" height="24"/>
<path fill-rule="evenodd" clip-rule="evenodd" d="M65.9689 3H5.03142V5.0144H3V20.123H5.03142V20.1231H65.9689V20.123H68V5.0144H65.9689V3Z"/>
</mask>
<path fill-rule="evenodd" clip-rule="evenodd" d="M65.9689 3H5.03142V5.0144H3V20.123H5.03142V20.1231H65.9689V20.123H68V5.0144H65.9689V3Z" fill="#973503"/>
<path d="M5.03142 3V0H2.03142V3H5.03142ZM65.9689 3H68.9689V0H65.9689V3ZM5.03142 5.0144V8.0144H8.03142V5.0144H5.03142ZM3 5.0144V2.0144H0V5.0144H3ZM3 20.123H0V23.123H3V20.123ZM5.03142 20.123H8.03142V17.123H5.03142V20.123ZM5.03142 20.1231H2.03142V23.1231H5.03142V20.1231ZM65.9689 20.1231V23.1231H68.9689V20.1231H65.9689ZM65.9689 20.123V17.123H62.9689V20.123H65.9689ZM68 20.123V23.123H71V20.123H68ZM68 5.0144H71V2.0144H68V5.0144ZM65.9689 5.0144H62.9689V8.0144H65.9689V5.0144ZM5.03142 6H65.9689V0H5.03142V6ZM8.03142 5.0144V3H2.03142V5.0144H8.03142ZM3 8.0144H5.03142V2.0144H3V8.0144ZM6 20.123V5.0144H0V20.123H6ZM5.03142 17.123H3V23.123H5.03142V17.123ZM8.03142 20.1231V20.123H2.03142V20.1231H8.03142ZM65.9689 17.1231H5.03142V23.1231H65.9689V17.1231ZM62.9689 20.123V20.1231H68.9689V20.123H62.9689ZM68 17.123H65.9689V23.123H68V17.123ZM65 5.0144V20.123H71V5.0144H65ZM65.9689 8.0144H68V2.0144H65.9689V8.0144ZM62.9689 3V5.0144H68.9689V3H62.9689Z" fill="black" mask="url(#path-1-outside-1)"/>
</svg>
