<svg width="20" height="20" viewBox="0 0 20 20" fill="none" xmlns="http://www.w3.org/2000/svg">
<path d="M11.5261 3.68433V2.68433H10.5261H9.47345H8.47345V3.68433V3.73696H7.94714V4.73696V4.78959H7.42082V5.78959V5.84222H7.36819H6.36819V6.84222V6.89485H2.63135H1.63135V7.89485V8.94748V9.94748H2.63135H2.68398V10.0001V11.0001H3.68398H3.73661V11.0527V12.0527H4.26293V12.1054V12.158V13.1054V13.158V13.2106H3.73661V14.2106V14.2633H3.2103V15.2633V15.3159H2.68398V16.3159V17.3685V18.3685H3.68398H5.78924H6.78924V17.3685V17.3159H7.89451H8.89451V16.3159V16.2633H8.94714H9.94714V15.2633V15.2106H10.0524V15.2633V16.2633H11.0524H11.105V16.3159V17.3159H12.105H13.2103V17.3685V18.3685H14.2103H16.3156H17.3156V17.3685V16.3159V15.3159H16.7892V15.2633V14.2633H16.2629V14.2106V13.2106H15.7366V13.158V13.1054V12.158V12.1054V12.0527H16.2629V11.0527V11.0001H16.3156H17.3156V10.0001V9.94748H17.3682H18.3682V8.94748V7.89485V6.89485H17.3682H13.6313V6.84222V5.84222H12.6313H12.5787V5.78959V4.78959H12.0524V4.73696V3.73696H11.5261V3.68433Z" fill="#FFE24D" stroke="black" stroke-width="2"/>
<path d="M11.5261 2.63159V1.63159H10.5261H9.47345H8.47345V2.63159V2.68422H7.94714V3.68422V3.73686H7.42082V4.73686V4.78949H7.36819H6.36819V5.78949V5.84212H2.63135H1.63135V6.84212V7.89475V8.89475H2.63135H2.68398V8.94738V9.94738H3.68398H3.73661V10V11H4.26293V11.0526V11.1053V12.0526V12.1053V12.1579H3.73661V13.1579V13.2105H3.2103V14.2105V14.2632H2.68398V15.2632V16.3158V17.3158H3.68398H5.78924H6.78924V16.3158V16.2632H7.89451H8.89451V15.2632V15.2105H8.94714H9.94714V14.2105V14.1579H10.0524V14.2105V15.2105H11.0524H11.105V15.2632V16.2632H12.105H13.2103V16.3158V17.3158H14.2103H16.3156H17.3156V16.3158V15.2632V14.2632H16.7892V14.2105V13.2105H16.2629V13.1579V12.1579H15.7366V12.1053V12.0526V11.1053V11.0526V11H16.2629V10V9.94738H16.3156H17.3156V8.94738V8.89475H17.3682H18.3682V7.89475V6.84212V5.84212H17.3682H13.6313V5.78949V4.78949H12.6313H12.5787V4.73686V3.73686H12.0524V3.68422V2.68422H11.5261V2.63159Z" fill="#FFE24D" stroke="black" stroke-width="2"/>
</svg>
