<svg width="52" height="28" viewBox="0 0 52 28" fill="none" xmlns="http://www.w3.org/2000/svg">
<rect x="2" y="2" width="48" height="24" fill="#7DFF67"/>
<path d="M9.68 8.244L8.816 9.06C9.68 9.756 10.34 10.404 10.796 11.004L11.696 10.116C11.144 9.492 10.472 8.868 9.68 8.244ZM16.508 19.056H19.256L19.556 17.82C19.232 17.844 18.764 17.868 18.152 17.892C17.528 17.892 16.928 17.904 16.328 17.904C15.416 17.904 14.612 17.892 13.928 17.88C13.232 17.856 12.716 17.76 12.368 17.58C12.092 17.424 11.816 17.184 11.552 16.872L11.432 16.752V12.18H8.684V13.332H10.268V16.62C9.788 16.884 9.26 17.496 8.66 18.456L9.584 19.308C10.184 18.228 10.592 17.7 10.82 17.7C10.964 17.7 11.108 17.796 11.264 18C11.612 18.408 12.02 18.684 12.5 18.828C13.004 18.948 13.628 19.02 14.396 19.032C15.152 19.044 15.86 19.056 16.508 19.056ZM12.356 9.912V11.076H13.628V11.892C13.628 12.324 13.604 12.72 13.556 13.104H11.936V14.28H13.316C13.052 15.18 12.608 15.852 11.984 16.308L12.74 17.304C13.616 16.644 14.216 15.636 14.552 14.28H16.352V17.472H17.576V14.28H19.34V13.104H17.576V11.076H18.956V9.912H17.576V8.148H16.352V9.912H14.84V8.124H13.628V9.912H12.356ZM14.84 11.076H16.352V13.104H14.756C14.804 12.636 14.84 12.132 14.84 11.604V11.076ZM25.016 8.772V10.008H30.92V8.772H25.016ZM24.728 11.748V12.984H28.316V17.7C28.316 17.94 28.148 18.06 27.824 18.06C27.32 18.06 26.792 18.024 26.24 17.976L26.516 19.2H28.256C29.144 19.2 29.588 18.804 29.588 18.012V12.984H31.436V11.748H24.728ZM22.928 8.208C22.376 9.3 21.536 10.248 20.408 11.052L20.792 12.312C22.34 11.244 23.432 10.056 24.068 8.748L22.928 8.208ZM23.492 10.968C22.844 12.24 21.848 13.356 20.504 14.292L20.888 15.528C21.344 15.204 21.788 14.868 22.196 14.532V19.248H23.432V13.296C23.912 12.72 24.308 12.12 24.62 11.496L23.492 10.968ZM37.352 8.088V10.14H33.104V15.996H34.364V15.336H37.352V19.344H38.648V15.336H41.648V15.996H42.908V10.14H38.648V8.088H37.352ZM34.364 14.112V11.364H37.352V14.112H34.364ZM38.648 14.112V11.364H41.648V14.112H38.648Z" fill="#0F6C00"/>
<rect y="4" width="2" height="20" fill="#20E700"/>
<rect x="50" y="4" width="2" height="20" fill="#20E700"/>
<rect x="48" width="2" height="44" transform="rotate(90 48 0)" fill="#20E700"/>
<rect x="48" y="26" width="2" height="44" transform="rotate(90 48 26)" fill="#20E700"/>
<rect x="48" y="2" width="2" height="2" fill="#20E700"/>
<rect x="2" y="2" width="2" height="2" fill="#20E700"/>
<rect x="48" y="24" width="2" height="2" fill="#20E700"/>
<rect x="2" y="24" width="2" height="2" fill="#20E700"/>
</svg>
