<svg width="380" height="562" viewBox="0 0 380 562" fill="none" xmlns="http://www.w3.org/2000/svg">
<path d="M366.538 3.65393V6.15393H369.038H370.192V7.30787V9.80787H372.692H373.846V10.9618V13.4618H376.346H377.5V548.538H376.346H373.846V551.038V552.192H372.692H370.192V554.692V555.846H369.038H366.538V558.346V559.5H13.4615V558.346V555.846H10.9615H9.80769V554.692V552.192H7.30769H6.15385V551.038V548.538H3.65385H2.5V13.4618H3.65385H6.15385V10.9618V9.80787H7.30769H9.80769V7.30787V6.15393H10.9615H13.4615V3.65393V2.5H366.538V3.65393Z" fill="white" stroke="black" stroke-width="5"/>
<path d="M355.027 13.6565V15.6565H357.027H358.685V17.3129V19.3129H360.685H362.342V20.9694V22.9694H364.342H366V535.531H364.342H362.342V537.531V539.187H360.685H358.685V541.187V542.844H357.027H355.027V544.844V546.5H24.9726V544.844V542.844H22.9726H21.3151V541.187V539.187H19.3151H17.6575V537.531V535.531H15.6575H14V22.9694H15.6575H17.6575V20.9694V19.3129H19.3151H21.3151V17.3129V15.6565H22.9726H24.9726V13.6565V12H355.027V13.6565Z" fill="white" stroke="black" stroke-width="4"/>
<path d="M355.027 13.6565V15.6565H357.027H358.685V17.3129V19.3129H360.685H362.342V20.9694V22.9694H364.342H366V397.531H364.342H362.342V399.531V401.187H360.685H358.685V403.187V404.844H357.027H355.027V406.844V408.5H24.9726V406.844V404.844H22.9726H21.3151V403.187V401.187H19.3151H17.6575V399.531V397.531H15.6575H14V22.9694H15.6575H17.6575V20.9694V19.3129H19.3151H21.3151V17.3129V15.6565H22.9726H24.9726V13.6565V12H355.027V13.6565Z" fill="black" stroke="black" stroke-width="4"/>
<path d="M355.027 69.6559V71.6559H357.027H358.685V73.3117V75.3117H360.685H362.342V76.9676V78.9676H364.342H366V354.032H364.342H362.342V356.032V357.688H360.685H358.685V359.688V361.344H357.027H355.027V363.344V365H24.9726V363.344V361.344H22.9726H21.3151V359.688V357.688H19.3151H17.6575V356.032V354.032H15.6575H14V78.9676H15.6575H17.6575V76.9676V75.3117H19.3151H21.3151V73.3117V71.6559H22.9726H24.9726V69.6559V68H355.027V69.6559Z" fill="white" stroke="black" stroke-width="4"/>
<rect x="26" y="79" width="328" height="274" fill="white"/>
<path d="M263.345 55.6829H260.345V58.6829V59.3415H259.689H256.689V62.3415V63H19V26.3171H19.6553H22.6553V23.3171V22.6585H23.3107H26.3107V19.6585V19H264V55.6829H263.345Z" fill="white" stroke="white" stroke-width="6"/>
<path d="M273.662 55.6829H276.662V58.6829V59.3415H277.325H280.325V62.3415V63H361V26.3171H360.338H357.338V23.3171V22.6585H356.675H353.675V19.6585V19H273V55.6829H273.662Z" fill="white" stroke="white" stroke-width="6"/>
<path d="M47 436.5H48.75V438.25H50.5V440H52.5H115.75H117.75V438.25H119.5V438H325H327V436V433H329V431V397V395H327H119.5V393.75H117.75L117.75 392H115.75H52.5H50.5L50.5 393.75H48.75V395H47V397V434.5V436.5Z" fill="#20E700" stroke="black" stroke-width="4"/>
<path d="M358 367H32V373H26V393H32V399H358V395H362V371H358V367Z" fill="white"/>
<path d="M42.6426 371.643V369.929H40.9278V368.214H39.2147V366.5H35.7147H27.1434H23.6434V368.214H21.9279V369.929H20.2141V371.643H18.5V375.143V382V385.5H20.2141V388.93L21.9279 388.929V392.357L25.3575 392.357V395.785L27.0717 395.785V397.5H30.5717H32.2858H35.7858V395.785L37.5003 395.785V392.357L40.9278 392.357V388.929L42.6426 388.93V385.5H44.3571V382V375.143V371.643H42.6426Z" stroke="white" stroke-width="7"/>
<path d="M41.1426 373.143V371.429H39.4278V369.714H37.7147V368H35.7147H27.1434H25.1434V369.714H23.4279V371.429H21.7141V373.143H20V375.143V382V384H21.7141V385.429V387.429L23.4279 387.429V388.857V390.857L25.4278 390.857L26.8575 390.857V392.286V394.285L28.5717 394.285V396H30.5717H32.2858H34.2858V394.285L36.0003 394.285V392.286V390.857L37.4279 390.857L39.4278 390.857V388.857V387.429L41.1426 387.429V385.429V384H42.8571V382V375.143V373.143H41.1426ZM30.8575 380V378.857H32.0001L32.0001 380L30.8575 380Z" fill="#8EF8FF" stroke="black" stroke-width="4"/>
<path fill-rule="evenodd" clip-rule="evenodd" d="M35.7147 370H27.1434V371.714H25.4279V373.429H23.7141V375.143H22V382H23.7141V385.429L25.4279 385.428V388.857L28.8575 388.857V392.286L30.5717 392.286V394H32.2858V392.286L34.0003 392.286V388.857L37.4278 388.857V385.428L39.1426 385.429V382H40.8571V375.143H39.1426V373.429H37.4278V371.714H35.7147V370ZM34.0003 376.857H28.8575V382L33.9999 382L34.0003 376.857Z" fill="#8EF8FF"/>
<rect x="49" y="397" width="278" height="34" fill="white"/>
<rect x="108" y="398" width="217" height="38" fill="white"/>
<path d="M111.75 432.25H113.5V430.5H115.25V426.5V405.5V401.5H113.5L113.5 399.75H111.75L111.75 398H107.75H60.5H56.5L56.5 399.75H54.75V401.5H53V405.5V426.5V430.5H54.75V432.25H56.5V434H60.5H107.75H111.75V432.25Z" stroke="white" stroke-width="8"/>
<path d="M316.505 430H318.505V428.75H319.752V427.5H321V425.5V406.5V404.5H319.752V403.25H318.505V402L316.505 402L95 402L93 402V404V428V430H95L316.505 430Z" fill="white" stroke="black" stroke-width="4"/>
<rect x="60.4839" y="402" width="47.0323" height="28" fill="white"/>
<rect x="57" y="405.5" width="50.5161" height="21" fill="white"/>
<rect x="58.7419" y="403.75" width="50.5161" height="24.5" fill="white"/>
<rect x="107.516" y="402" width="3.5" height="47.0323" transform="rotate(90 107.516 402)" fill="white"/>
<rect x="107.516" y="403.75" width="1.74194" height="1.75" fill="white"/>
<rect x="111" y="405.5" width="21" height="3.48387" transform="rotate(90 111 405.5)" fill="white"/>
<rect x="58.7419" y="426.5" width="1.74194" height="1.75" fill="white"/>
<rect x="111" y="405.5" width="3.5" height="47.0323" transform="rotate(90 111 405.5)" fill="white"/>
<rect x="111" y="407.25" width="5.25" height="50.5161" transform="rotate(90 111 407.25)" fill="white"/>
<rect x="111" y="412.5" width="8.75" height="47.0323" transform="rotate(90 111 412.5)" fill="white"/>
<rect x="63.9678" y="412.5" width="17.5" height="3.48387" transform="rotate(90 63.9678 412.5)" fill="white"/>
<rect x="63.9678" y="403.75" width="3.5" height="5.22581" transform="rotate(90 63.9678 403.75)" fill="white"/>
<rect x="60.4839" y="405.5" width="21" height="3.48387" transform="rotate(90 60.4839 405.5)" fill="white"/>
<mask id="path-30-outside-1" maskUnits="userSpaceOnUse" x="53" y="398" width="62" height="36" fill="black">
<rect fill="white" x="53" y="398" width="62" height="36"/>
<path d="M109.258 428.25V426.5H111V405.5H109.258L109.258 403.75H107.516L107.516 402H60.4839L60.4839 403.75H58.7419V405.5H57V426.5H58.7419V428.25H60.4839V430H107.516V428.25H109.258Z"/>
</mask>
<path d="M109.258 426.5V422.5H105.258V426.5H109.258ZM109.258 428.25V432.25H113.258V428.25H109.258ZM111 426.5V430.5H115V426.5H111ZM111 405.5H115V401.5H111V405.5ZM109.258 405.5L105.258 405.5L105.258 409.5H109.258V405.5ZM109.258 403.75L113.258 403.75L113.258 399.75H109.258V403.75ZM107.516 403.75L103.516 403.75L103.516 407.75H107.516V403.75ZM107.516 402L111.516 402L111.516 398H107.516V402ZM60.4839 402V398H56.4839L56.4839 402L60.4839 402ZM60.4839 403.75V407.75H64.4839L64.4839 403.75L60.4839 403.75ZM58.7419 403.75V399.75H54.7419V403.75H58.7419ZM58.7419 405.5V409.5H62.7419V405.5H58.7419ZM57 405.5V401.5H53V405.5H57ZM57 426.5H53V430.5H57V426.5ZM58.7419 426.5H62.7419V422.5H58.7419V426.5ZM58.7419 428.25H54.7419V432.25H58.7419V428.25ZM60.4839 428.25H64.4839V424.25H60.4839V428.25ZM60.4839 430H56.4839V434H60.4839V430ZM107.516 430V434H111.516V430H107.516ZM107.516 428.25V424.25H103.516V428.25H107.516ZM105.258 426.5V428.25H113.258V426.5H105.258ZM111 422.5H109.258V430.5H111V422.5ZM109.258 409.5H111V401.5H109.258V409.5ZM105.258 403.75L105.258 405.5L113.258 405.5L113.258 403.75L105.258 403.75ZM107.516 407.75H109.258V399.75H107.516V407.75ZM103.516 402L103.516 403.75L111.516 403.75L111.516 402L103.516 402ZM60.4839 406H107.516V398H60.4839V406ZM64.4839 403.75L64.4839 402L56.4839 402L56.4839 403.75L64.4839 403.75ZM58.7419 407.75H60.4839V399.75H58.7419V407.75ZM62.7419 405.5V403.75H54.7419V405.5H62.7419ZM57 409.5H58.7419V401.5H57V409.5ZM61 426.5V405.5H53V426.5H61ZM58.7419 422.5H57V430.5H58.7419V422.5ZM62.7419 428.25V426.5H54.7419V428.25H62.7419ZM60.4839 424.25H58.7419V432.25H60.4839V424.25ZM64.4839 430V428.25H56.4839V430H64.4839ZM103.516 428.25V430H111.516V428.25H103.516ZM109.258 424.25H107.516V432.25H109.258V424.25ZM107 405.5V426.5H115V405.5H107ZM107.516 426H60.4839V434H107.516V426Z" fill="black" mask="url(#path-30-outside-1)"/>
</svg>
