<?xml version="1.0" encoding="UTF-8"?>
<svg width="126px" height="150px" viewBox="0 0 126 150" version="1.1" xmlns="http://www.w3.org/2000/svg" xmlns:xlink="http://www.w3.org/1999/xlink">
    <title>斗西宝典-类别2备份 9</title>
    <g id="页面-1" stroke="none" stroke-width="1" fill="none" fill-rule="evenodd">
        <g id="斗西宝典-未解锁状态" transform="translate(-427.000000, -700.000000)">
            <g id="编组-9" transform="translate(427.000000, 700.000000)">
                <g id="编组" transform="translate(11.000000, 8.000000)">
                    <path d="M103.4707,13.6993 C103.4557,13.6343 103.4557,13.5623 103.4307,13.5013 C103.3887,13.4013 103.3207,13.3183 103.2527,13.2363 C103.2307,13.2103 103.2187,13.1753 103.1947,13.1503 C103.1087,13.0643 103.0037,13.0023 102.8947,12.9483 C102.8757,12.9383 102.8627,12.9223 102.8437,12.9143 C102.7587,12.8773 102.6597,12.8713 102.5657,12.8573 C102.5137,12.8493 102.4677,12.8263 102.4147,12.8263 L91.6897,12.8173 L91.6897,2.1023 C91.6897,1.4933 91.1957,0.9993 90.5867,0.9993 L-0.0003,0.9993 L-0.0003,120.7593 C-0.0003,120.9023 0.0297,121.0463 0.0847,121.1803 C0.1407,121.3153 0.2217,121.4373 0.3237,121.5393 L12.4737,133.6893 L103.5167,133.6893 L103.5167,13.9293 C103.5167,13.8483 103.4877,13.7763 103.4707,13.6993" id="Fill-1" fill-opacity="0.8" fill="#FFFFFF"></path>
                    <g transform="translate(0.000000, 0.690000)" stroke="#020202" stroke-width="4">
                        <polyline id="Stroke-3" points="94.1899 12.1294 91.6899 12.1274 91.6899 9.6274"></polyline>
                        <path d="M91.6899,4.4683 L91.6899,1.4123 C91.6899,0.8033 91.1959,0.3093 90.5859,0.3093 L5.0799,0.3093" id="Stroke-5" stroke-dasharray="5.16,5.16"></path>
                        <polyline id="Stroke-7" points="2.5 0.3091 0 0.3091 0 2.8091"></polyline>
                        <path d="M0,7.7837 L0,120.0687 C0,120.2137 0.029,120.3557 0.085,120.4907 C0.141,120.6257 0.222,120.7487 0.323,120.8497 L12.474,133.0007 L98.53,133.0007" id="Stroke-9" stroke-dasharray="4.974,4.974"></path>
                        <polyline id="Stroke-11" points="101.0171 133.0005 103.5171 133.0005 103.5171 130.5005"></polyline>
                        <path d="M103.5171,125.4116 L103.5171,13.2406 C103.5171,13.1586 103.4871,13.0866 103.4711,13.0106 C103.4561,12.9436 103.4561,12.8726 103.4311,12.8106 C103.3891,12.7116 103.3201,12.6296 103.2521,12.5476 C103.2301,12.5196 103.2191,12.4846 103.1941,12.4616 C103.1091,12.3756 103.0041,12.3126 102.8941,12.2586 C102.8761,12.2486 102.8631,12.2316 102.8441,12.2236 C102.7581,12.1876 102.6601,12.1816 102.5651,12.1676 C102.5141,12.1606 102.4681,12.1376 102.4141,12.1376 L96.7341,12.1316" id="Stroke-13" stroke-dasharray="5.088,5.088"></path>
                    </g>
                </g>
            </g>
        </g>
    </g>
</svg>