<?xml version="1.0" encoding="UTF-8"?>
<svg width="290px" height="70px" viewBox="0 0 290 70" version="1.1" xmlns="http://www.w3.org/2000/svg" xmlns:xlink="http://www.w3.org/1999/xlink">
    <title>编组</title>
    <defs>
        <polygon id="path-1" points="0 64.6914 278.78 64.6914 278.78 0.0004 0 0.0004"></polygon>
    </defs>
    <g id="页面-1" stroke="none" stroke-width="1" fill="none" fill-rule="evenodd">
        <g id="斗西宝典-首页" transform="translate(-816.000000, -185.000000)">
            <g id="编组-25" transform="translate(816.000000, 185.000000)">
                <g id="编组" transform="translate(4.000000, 3.000000)">
                    <path d="M28.002,11.001 C27.719,10.215 26.996,8.989 26.383,8.078 L28.316,7.197 C28.945,8.047 29.731,9.209 30.061,9.995 L28.002,11.001 Z M22.863,0.424 C23.413,1.131 24.073,2.121 24.356,2.797 L22.203,3.678 C21.982,3.033 21.37,1.996 20.851,1.226 L22.863,0.424 Z M33.44,3.678 C33.44,3.678 33.424,4.432 33.408,4.73 C33.22,10.671 33.031,12.966 32.402,13.783 C31.899,14.459 31.397,14.663 30.69,14.773 C30.061,14.898 29.102,14.883 28.159,14.867 C28.112,14.176 27.782,13.139 27.342,12.463 C28.269,12.541 29.134,12.541 29.574,12.541 C29.872,12.541 30.045,12.479 30.25,12.273 C30.643,11.865 30.831,10.011 30.957,5.987 L26.839,5.987 C26.367,8.974 25.063,12.353 21.495,14.663 C21.118,14.145 20.238,13.327 19.672,12.966 C22.706,11.111 23.947,8.439 24.45,5.987 L20.034,5.987 L20.034,3.678 L24.733,3.678 C24.764,3.205 24.764,2.781 24.764,2.373 L24.764,0.094 L27.09,0.094 L27.09,2.389 C27.09,2.797 27.09,3.221 27.059,3.678 L33.44,3.678 Z" id="Fill-1" fill="#282828"></path>
                    <path d="M41.6719,4.8398 C40.9179,4.1638 39.2829,3.1738 38.1039,2.5288 L39.4239,0.7848 C40.5559,1.3358 42.2539,2.2318 43.0859,2.8908 L41.6719,4.8398 Z M40.0059,8.7068 C39.2039,7.9678 37.4279,6.8988 36.1399,6.2228 L37.5229,4.5098 C38.7489,5.0918 40.6029,6.0668 41.4989,6.7738 L40.0059,8.7068 Z M46.3079,10.9218 L46.3079,15.0088 L43.8719,15.0088 L43.8719,11.2678 L35.5889,12.4468 L35.2749,10.1678 L43.8719,8.9738 L43.8719,0.0778 L46.3079,0.0778 L46.3079,8.6438 L49.4509,8.2028 L49.7499,10.4358 L46.3079,10.9218 Z" id="Fill-3" fill="#282828"></path>
                    <path d="M60.9839,6.5059 L60.9839,7.7169 C60.9839,8.2979 61.0309,8.3459 61.4239,8.3459 L62.3039,8.3459 C62.4299,8.3459 62.5079,8.3289 62.5709,8.3139 L62.5709,6.5059 L60.9839,6.5059 Z M57.5109,4.4159 L58.8309,4.4159 L58.8309,3.0329 L57.5109,3.0329 L57.5109,4.4159 Z M54.0369,6.5059 L54.0369,8.8169 C55.1059,8.1719 55.3889,7.3709 55.4669,6.5059 L54.0369,6.5059 Z M62.5709,11.9909 L62.5709,10.4669 L62.5399,10.4669 L61.0459,10.4669 C59.2079,10.4669 58.8309,9.8219 58.8309,7.7329 L58.8309,6.5059 L57.4949,6.5059 C57.4009,8.1409 56.8029,9.8539 54.6339,10.7809 C54.5079,10.5759 54.2889,10.2779 54.0369,9.9949 L54.0369,11.9909 L62.5709,11.9909 Z M60.9839,3.0329 L60.9839,4.4159 L64.8969,4.4159 L64.8969,14.9299 L62.5709,14.9299 L62.5709,14.0819 L54.0369,14.0819 L54.0369,14.9299 L51.8209,14.9299 L51.8209,4.4159 L55.4829,4.4159 L55.4829,3.0329 L51.0509,3.0329 L51.0509,0.8319 L65.3529,0.8319 L65.3529,3.0329 L60.9839,3.0329 Z" id="Fill-5" fill="#282828"></path>
                    <path d="M78.2842,12.4629 L78.2842,2.7029 L69.4672,2.7029 L69.4672,9.4769 C70.6932,8.8629 72.0602,7.8579 73.1762,6.6009 L69.9232,6.6009 L69.9232,4.6049 L74.1192,4.6049 L74.1192,3.0649 L76.3192,3.0649 L76.3192,4.6049 L77.9222,4.6049 L77.9222,6.6009 L76.3192,6.6009 L76.3192,10.0589 C76.3192,11.0169 76.1782,11.5509 75.5652,11.8809 C74.9682,12.2109 74.2292,12.2579 73.2702,12.2579 C73.1762,11.6609 72.8462,10.7809 72.5632,10.2309 C73.0662,10.2619 73.6632,10.2619 73.8672,10.2459 C74.0562,10.2459 74.1192,10.1989 74.1192,10.0269 L74.1192,8.7379 C73.0662,9.7129 71.9032,10.5139 70.8502,11.0489 C70.5672,10.6399 69.9542,9.9319 69.4672,9.5239 L69.4672,12.4629 L78.2842,12.4629 Z M80.7672,0.6119 L80.7672,15.0089 L78.2842,15.0089 L78.2842,14.5059 L69.4672,14.5059 L69.4672,15.0089 L67.1092,15.0089 L67.1092,0.6119 L80.7672,0.6119 Z" id="Fill-7" fill="#282828"></path>
                    <path d="M97.313,13.2793 C96.653,13.7363 96.009,14.4273 95.647,15.0403 C93.934,13.7043 92.913,11.8183 92.284,9.9643 C91.592,11.9123 90.477,13.6413 88.653,14.9773 C88.292,14.3813 87.584,13.6413 86.94,13.2013 C91.23,10.2613 90.995,5.1853 91.042,0.1563 L93.399,0.1563 C93.384,1.5713 93.368,3.0023 93.29,4.4163 C93.416,6.0973 93.792,10.7183 97.313,13.2793 L97.313,13.2793 Z M89.141,1.5233 C88.669,2.8593 88.103,4.4003 87.6,5.5473 C88.685,6.7423 88.873,7.8423 88.873,8.7223 C88.873,9.8843 88.606,10.5913 87.993,11.0163 C87.694,11.2203 87.333,11.3463 86.94,11.4103 C86.61,11.4573 86.186,11.4723 85.761,11.4573 C85.746,10.8593 85.557,9.9313 85.211,9.3513 C85.494,9.3673 85.714,9.3673 85.903,9.3673 C86.076,9.3673 86.249,9.3353 86.39,9.2563 C86.594,9.1313 86.688,8.8793 86.688,8.4393 C86.688,7.7793 86.421,6.8043 85.431,5.8143 C85.746,4.9503 86.107,3.7093 86.39,2.6873 L85.085,2.6873 L85.085,14.9293 L82.933,14.9293 L82.933,0.6603 L87.16,0.6603 L87.506,0.5813 L89.141,1.5233 Z" id="Fill-9" fill="#282828"></path>
                    <path d="M110.5425,12.8711 C110.9045,12.8711 110.9665,12.4471 111.0455,10.7341 C111.5175,11.0961 112.3815,11.4731 112.9625,11.6131 C112.7745,13.9721 112.2405,14.8051 110.7475,14.8051 L109.3015,14.8051 C107.5565,14.8051 107.1005,14.1441 107.1005,12.0221 L107.1005,10.4981 L104.8695,10.8441 L104.5705,8.7691 L107.1005,8.3921 L107.1005,7.0571 L105.1675,7.3551 L104.8375,5.2961 L107.1005,4.9501 L107.1005,3.4881 C106.4565,3.6621 105.8125,3.8181 105.1835,3.9441 C105.0735,3.4571 104.7275,2.6871 104.4605,2.2471 C106.6295,1.7441 108.9085,0.9271 110.2595,0.0471 L112.1295,1.5711 C111.2815,2.0431 110.3225,2.4511 109.3015,2.8121 L109.3015,4.6201 L111.9105,4.2261 L112.2405,6.2381 L109.3015,6.7111 L109.3015,8.0621 L112.5705,7.5741 L112.8535,9.5861 L109.3015,10.1521 L109.3015,12.0221 C109.3015,12.7621 109.3485,12.8711 109.7095,12.8711 L110.5425,12.8711 Z M102.8575,8.7231 C103.5485,9.4141 104.5395,10.4981 104.8065,10.8281 L103.3915,12.5411 C103.1715,12.1481 102.8415,11.6611 102.4955,11.1581 L102.4955,14.9771 L100.3895,14.9771 L100.3895,11.2841 C99.8715,12.0861 99.3055,12.8091 98.6925,13.3271 C98.5035,12.6981 98.0475,11.7711 97.7335,11.2051 C98.5195,10.5921 99.3055,9.6491 99.9025,8.7231 L98.0475,8.7231 L98.0475,6.7731 L100.3895,6.7731 L100.3895,6.0511 L98.4885,6.0511 L98.4885,4.1481 L100.3895,4.1481 L100.3895,3.4571 L98.2365,3.4571 L98.2365,1.5551 L100.3895,1.5551 L100.3895,0.0471 L102.4955,0.0471 L102.4955,1.5551 L104.2555,1.5551 L104.2555,3.4571 L102.4955,3.4571 L102.4955,4.1481 L103.9415,4.1481 L103.9415,6.0511 L102.4955,6.0511 L102.4955,6.7731 L104.6335,6.7731 L104.6335,8.7231 L102.8575,8.7231 Z" id="Fill-11" fill="#282828"></path>
                    <mask id="mask-2" fill="white">
                        <use xlink:href="#path-1"></use>
                    </mask>
                    <g id="Clip-14"></g>
                    <path d="M118.79,9.4764 L123.269,9.4764 L123.269,8.6744 L118.79,8.6744 L118.79,9.4764 Z M118.79,6.7894 L123.269,6.7894 L123.269,6.0984 L118.79,6.0984 L118.79,6.7894 Z M118.79,4.2114 L123.269,4.2114 L123.269,3.5664 L118.79,3.5664 L118.79,4.2114 Z M123.427,11.5664 C125.155,12.1484 127.136,12.9654 128.299,13.5154 L126.067,14.9454 C125.108,14.3804 123.348,13.5314 121.682,12.9334 L123.301,11.5664 L118.853,11.5664 L120.456,12.8554 C119.01,13.6414 116.873,14.5054 115.223,14.9774 C114.877,14.5054 114.232,13.7524 113.745,13.2794 C115.207,12.9184 117.03,12.1954 118.193,11.5664 L113.965,11.5664 L113.965,9.4764 L116.527,9.4764 L116.527,3.5664 L114.468,3.5664 L114.468,1.4764 L116.527,1.4764 L116.527,0.1094 L118.79,0.1094 L118.79,1.4764 L123.27,1.4764 L123.27,0.1094 L125.596,0.1094 L125.596,1.4764 L127.78,1.4764 L127.78,3.5664 L125.596,3.5664 L125.596,9.4764 L128.188,9.4764 L128.188,11.5664 L123.427,11.5664 Z" id="Fill-13" fill="#282828" mask="url(#mask-2)"></path>
                    <polygon id="Fill-15" fill="#282828" mask="url(#mask-2)" points="144.0908 7.999 138.0868 7.999 138.0868 14.993 135.5718 14.993 135.5718 7.999 129.6468 7.999 129.6468 5.61 135.5718 5.61 135.5718 0.062 138.0868 0.062 138.0868 5.61 144.0908 5.61"></polygon>
                    <path d="M149.95,9.5704 L152.228,9.5704 L152.228,7.6224 L149.95,7.6224 L149.95,9.5704 Z M149.116,3.8964 C148.786,4.4784 148.425,5.0134 148.063,5.5004 L152.228,5.5004 L152.228,3.8964 L149.116,3.8964 Z M159.804,11.7714 L154.585,11.7714 L154.585,14.9934 L152.228,14.9934 L152.228,11.7714 L145.219,11.7714 L145.219,9.5704 L147.654,9.5704 L147.654,6.0354 C147.466,6.2544 147.277,6.4744 147.089,6.6634 C146.648,6.2544 145.674,5.5004 145.124,5.1704 C146.491,3.9924 147.67,1.9964 148.299,0.0004 L150.641,0.5964 C150.515,0.9584 150.373,1.3364 150.216,1.6974 L158.876,1.6974 L158.876,3.8964 L154.585,3.8964 L154.585,5.5004 L158.499,5.5004 L158.499,7.6224 L154.585,7.6224 L154.585,9.5704 L159.804,9.5704 L159.804,11.7714 Z" id="Fill-16" fill="#282828" mask="url(#mask-2)"></path>
                    <path d="M175.2021,3.2685 C175.2021,3.2685 175.2021,3.9925 175.1861,4.2745 C175.0451,10.6075 174.9031,12.9655 174.3531,13.7365 C173.9131,14.3805 173.4891,14.5835 172.8601,14.6945 C172.3091,14.8045 171.4771,14.8045 170.6281,14.7895 C170.5971,14.1445 170.3141,13.1695 169.9211,12.5405 C170.6761,12.6035 171.3671,12.6035 171.7281,12.6035 C172.0121,12.6035 172.1691,12.5405 172.3421,12.3215 C172.6721,11.8965 172.8121,10.0105 172.9231,5.4535 L171.3831,5.4535 C171.1151,9.6975 170.1881,12.9335 166.8091,15.0245 C166.4791,14.4275 165.7711,13.5785 165.2061,13.1545 C168.1131,11.4725 168.8841,8.9425 169.0881,5.4535 L167.2181,5.4535 L167.2181,3.2685 L169.1511,3.2685 C169.1671,2.3415 169.1671,1.3515 169.1671,0.3145 L171.4931,0.3145 C171.4931,1.3355 171.4771,2.3265 171.4611,3.2685 L175.2021,3.2685 Z M167.3281,10.7035 C165.2531,11.3315 162.9901,11.9595 161.2141,12.4475 L160.6801,10.0585 C161.2771,9.9485 162.0001,9.7755 162.7861,9.6015 L162.7861,3.8185 L160.8991,3.8185 L160.8991,1.6655 L166.9191,1.6655 L166.9191,3.8185 L165.0491,3.8185 L165.0491,9.0525 C165.7091,8.8785 166.3851,8.7065 167.0291,8.5335 L167.3281,10.7035 Z" id="Fill-17" fill="#282828" mask="url(#mask-2)"></path>
                    <path d="M190.585,3.2529 C190.585,3.2529 190.569,4.0079 190.537,4.3059 C190.239,10.4819 189.94,12.8869 189.233,13.7519 C188.715,14.4279 188.212,14.6309 187.473,14.7419 C186.86,14.8519 185.886,14.8519 184.942,14.8199 C184.911,14.1449 184.581,13.1069 184.141,12.4469 C185.1,12.5249 185.98,12.5249 186.42,12.5249 C186.734,12.5249 186.923,12.4629 187.143,12.2579 C187.599,11.8029 187.897,9.8219 188.117,5.5949 L184.204,5.5949 C183.952,8.8629 182.82,12.7309 178.483,15.0879 C178.106,14.5219 177.241,13.6249 176.676,13.2169 C180.4,11.3309 181.469,8.2339 181.752,5.5949 L177.194,5.5949 L177.194,3.2529 L181.847,3.2529 L181.847,0.0939 L184.282,0.0939 L184.282,3.2529 L190.585,3.2529 Z" id="Fill-18" fill="#282828" mask="url(#mask-2)"></path>
                    <path d="M204.3955,11.2676 C205.3235,11.8656 206.6125,12.7776 207.2085,13.4066 L206.0305,14.9606 C205.4805,14.3176 204.2545,13.3426 203.3425,12.6826 C202.7775,13.5936 201.8495,14.4436 200.2935,15.0726 C200.0415,14.6786 199.5395,14.0976 199.0835,13.7676 C200.5445,13.1856 201.3775,12.2896 201.8495,11.3636 L200.1215,11.3636 L200.1215,3.7086 L201.8805,3.7086 C201.9595,3.3946 202.0385,3.0646 202.1015,2.7346 L199.3665,2.7346 L199.3665,0.8316 L207.0835,0.8316 L207.0835,2.7346 L204.3795,2.7346 C204.2385,3.0796 204.0825,3.4106 203.9405,3.7086 L206.5335,3.7086 L206.5335,11.2846 L204.5055,11.2846 L204.5055,5.6576 L202.0535,5.6576 L202.0535,10.9216 C202.3215,10.2466 202.4005,9.5706 202.4005,9.0376 L202.4005,5.9246 L204.1445,5.9246 L204.1445,9.0526 C204.1445,10.1216 204.0495,11.2846 203.5155,12.3366 L204.3955,11.2676 Z M199.6655,9.2406 C199.5555,9.8696 199.5235,10.7656 199.5395,11.2366 C197.3545,12.2736 196.8515,12.6516 196.5695,12.9496 C196.4585,12.4006 196.0975,11.4566 195.7835,10.9856 C196.0825,10.8126 196.3325,10.4826 196.3325,9.8536 L196.3325,1.9016 L198.2355,1.9016 L198.2355,4.6206 L199.6185,4.6206 L199.6185,6.5216 L198.2355,6.5216 L198.2355,9.8226 L199.6655,9.2406 Z M196.4905,0.6916 C196.2235,1.5866 195.9095,2.5296 195.5325,3.4566 L195.5325,14.9936 L193.5035,14.9936 L193.5035,7.4496 C193.2995,7.7636 193.0955,8.0466 192.8915,8.3136 C192.7495,7.7476 192.2315,6.4126 191.9015,5.7986 C192.9695,4.3846 193.9135,2.2316 194.4625,0.0936 L196.4905,0.6916 Z" id="Fill-19" fill="#282828" mask="url(#mask-2)"></path>
                    <path d="M222.0107,3.2529 C222.0107,3.2529 221.9947,4.0079 221.9627,4.3059 C221.6647,10.4819 221.3657,12.8869 220.6587,13.7519 C220.1407,14.4279 219.6377,14.6309 218.8987,14.7419 C218.2857,14.8519 217.3117,14.8519 216.3677,14.8199 C216.3367,14.1449 216.0067,13.1069 215.5667,12.4469 C216.5257,12.5249 217.4057,12.5249 217.8457,12.5249 C218.1597,12.5249 218.3487,12.4629 218.5687,12.2579 C219.0247,11.8029 219.3227,9.8219 219.5427,5.5949 L215.6297,5.5949 C215.3777,8.8629 214.2457,12.7309 209.9087,15.0879 C209.5317,14.5219 208.6667,13.6249 208.1017,13.2169 C211.8257,11.3309 212.8947,8.2339 213.1777,5.5949 L208.6197,5.5949 L208.6197,3.2529 L213.2727,3.2529 L213.2727,0.0939 L215.7077,0.0939 L215.7077,3.2529 L222.0107,3.2529 Z" id="Fill-20" fill="#282828" mask="url(#mask-2)"></path>
                    <path d="M238.5088,3.4726 L236.1518,3.4726 L236.1518,12.1326 C236.1518,13.3746 235.8848,14.0506 235.0828,14.4436 C234.2808,14.8516 233.1968,14.8986 231.7358,14.8986 C231.6248,14.1916 231.1858,13.0446 230.8238,12.4006 C231.7038,12.4786 232.8988,12.4626 233.2288,12.4626 C233.5428,12.4626 233.6688,12.3686 233.6688,12.0856 L233.6688,3.4726 L229.9438,3.4726 L229.9438,1.1776 L238.5088,1.1776 L238.5088,3.4726 Z M229.8968,8.7536 C229.2828,8.9096 228.6708,9.0686 228.0418,9.2246 L228.0418,12.4786 C228.0418,13.5466 227.8538,14.1136 227.2398,14.4586 C226.6278,14.8206 225.8108,14.8826 224.6478,14.8826 C224.5838,14.2856 224.2858,13.3266 224.0028,12.7306 C224.5528,12.7616 225.2128,12.7616 225.4168,12.7616 C225.6378,12.7616 225.7158,12.6826 225.7158,12.4626 L225.7158,9.7906 L224.2858,10.1366 L223.6888,7.8576 C224.2708,7.7476 224.9618,7.6066 225.7158,7.4496 L225.7158,5.1076 L223.8618,5.1076 L223.8618,2.9536 L225.7158,2.9536 L225.7158,0.0626 L228.0418,0.0626 L228.0418,2.9536 L229.5978,2.9536 L229.5978,5.1076 L228.0418,5.1076 L228.0418,6.9306 L229.6128,6.5686 L229.8968,8.7536 Z" id="Fill-21" fill="#282828" mask="url(#mask-2)"></path>
                    <path d="M247.008,10.1214 L250.734,10.1214 L250.734,9.0534 L247.008,9.0534 L247.008,10.1214 Z M246.175,3.6454 C245.986,3.9924 245.798,4.2904 245.609,4.5724 L247.889,4.5724 L247.889,3.6454 L246.175,3.6454 Z M244.887,11.9284 L252.996,11.9284 L252.996,7.2444 L244.887,7.2444 L244.887,11.9284 Z M245.122,4.5724 C244.635,4.2744 243.943,3.9284 243.535,3.7404 C244.305,2.8904 244.902,1.5074 245.201,0.1874 L247.322,0.6444 C247.229,1.0054 247.118,1.3674 247.008,1.7284 L247.889,1.7284 L247.889,0.0624 L250.151,0.0624 L250.151,1.7284 L253.405,1.7284 L253.405,3.6454 L250.151,3.6454 L250.151,4.5724 L254.033,4.5724 L254.033,6.4744 L243.833,6.4744 L243.833,4.5724 L245.122,4.5724 Z M241.774,4.3694 C241.351,3.6144 240.312,2.5294 239.464,1.7594 L241.146,0.5174 C242.011,1.2254 243.095,2.2314 243.582,2.9864 L241.774,4.3694 Z M243.378,11.6614 C243.582,11.7874 243.817,11.9604 244.132,12.1484 C245.091,12.7464 246.505,12.8084 248.187,12.8084 C249.79,12.8084 252.745,12.6674 254.474,12.3844 C254.238,12.9654 253.876,14.0344 253.86,14.5994 C252.446,14.6944 249.853,14.7734 248.108,14.7734 C246.159,14.7734 244.934,14.6154 243.928,14.0344 C243.362,13.6884 242.891,13.2794 242.607,13.2794 C242.151,13.2794 241.397,14.2074 240.784,15.0564 L239.433,13.0604 C239.983,12.5564 240.596,12.1174 241.193,11.8184 L241.193,8.2504 L239.559,8.2504 L239.559,6.1444 L243.378,6.1444 L243.378,11.6614 Z" id="Fill-22" fill="#282828" mask="url(#mask-2)"></path>
                    <path d="M257.1738,12.7773 C256.3098,12.7773 255.4918,12.1953 255.4918,11.2053 C255.4918,10.2463 256.2778,9.6333 257.2358,9.6333 C258.4788,9.6333 259.1388,10.5453 259.1388,11.9913 C259.1388,13.8143 257.9278,15.3543 255.8068,15.9353 L255.2248,14.4273 C256.4358,14.0973 257.1578,13.4533 257.2838,12.7773 L257.1738,12.7773 Z" id="Fill-23" fill="#282828" mask="url(#mask-2)"></path>
                    <path d="M3.583,33.7364 L5.956,33.7364 L5.956,31.8194 L3.583,31.8194 L3.583,33.7364 Z M3.583,35.9054 L3.583,37.0844 L1.368,37.0844 L1.368,29.6504 L8.22,29.6504 L8.22,35.9054 L3.583,35.9054 Z M14.365,28.2044 L12.605,28.2044 L12.605,37.0374 C12.605,38.3264 12.306,38.9864 11.473,39.3474 C10.609,39.7404 9.43,39.7874 7.78,39.7874 C7.654,39.1114 7.183,37.9804 6.821,37.3674 C7.874,37.4454 9.304,37.4294 9.682,37.4294 C10.059,37.4294 10.2,37.3204 10.2,36.9904 L10.2,28.2044 L0,28.2044 L0,25.8944 L14.365,25.8944 L14.365,28.2044 Z" id="Fill-24" fill="#282828" mask="url(#mask-2)"></path>
                    <path d="M21.905,36.9584 L27.249,36.9584 L27.249,35.2294 L21.905,35.2294 L21.905,36.9584 Z M29.591,33.1384 L29.591,39.6464 L27.249,39.6464 L27.249,39.0174 L21.905,39.0174 L21.905,39.6464 L19.674,39.6464 L19.674,33.1384 L29.591,33.1384 Z M19.595,30.1694 L26.856,30.1694 L26.856,29.0684 L19.595,29.0684 L19.595,30.1694 Z M19.579,32.2754 C19.469,34.7574 18.982,37.9174 17.285,39.8664 C16.907,39.4254 15.917,38.5774 15.398,38.3104 C17.112,36.3144 17.237,33.3284 17.237,31.1594 L17.237,26.9624 L22.015,26.9624 C21.842,26.4434 21.607,25.8634 21.418,25.3904 L23.697,24.8404 C24.027,25.4854 24.357,26.3494 24.577,26.9624 L29.167,26.9624 L29.167,32.2754 L19.579,32.2754 Z" id="Fill-25" fill="#282828" mask="url(#mask-2)"></path>
                    <path d="M41.3433,35.3398 C41.8933,34.5538 42.6163,33.2658 43.0093,32.2598 L44.9893,33.3908 C44.3443,34.4588 43.6223,35.6078 43.0403,36.3768 L41.3433,35.3398 Z M44.4703,31.5998 L32.3693,31.5998 L32.3693,29.5878 L42.2863,29.5878 L42.2863,29.2268 L33.0603,29.2268 L33.0603,27.6858 L42.2863,27.6858 L42.2863,27.2768 L32.3693,27.2768 L32.3693,25.2658 L44.4703,25.2658 L44.4703,31.5998 Z M35.6543,33.0758 C35.2763,34.3188 34.7263,35.6388 33.8623,36.5018 L31.9603,35.3558 C32.7463,34.6168 33.3593,33.4848 33.6893,32.3538 L35.6543,33.0758 Z M39.8343,31.8818 C39.7873,32.3688 39.7393,32.8248 39.6773,33.2658 C40.5103,35.9218 42.2863,37.3198 46.1363,37.6658 C45.6803,38.1528 45.0993,39.1108 44.8323,39.7558 C41.7203,39.2528 39.9603,38.1208 38.8283,36.1098 C37.9013,37.8698 36.0783,39.1578 32.2273,39.9448 C32.0393,39.3478 31.5043,38.4508 31.0493,37.9648 C36.8323,36.9748 37.1463,34.9628 37.4143,31.8818 L39.8343,31.8818 Z" id="Fill-26" fill="#282828" mask="url(#mask-2)"></path>
                    <path d="M52.137,32.9204 L53.41,32.9204 L53.41,32.0394 L52.137,32.0394 L52.137,32.9204 Z M50.408,30.0584 L55.233,30.0584 L55.233,28.5814 L50.408,28.5814 L50.408,30.0584 Z M60.136,35.1034 C60.687,36.0624 61.441,37.3674 61.802,38.1834 L59.618,38.9394 C59.46,38.4664 59.162,37.8224 58.848,37.1624 C58.549,39.0484 57.889,39.5364 56.003,39.5364 L53.378,39.5364 C50.958,39.5364 50.329,39.0024 50.329,37.3364 L50.329,36.1094 C49.952,37.0684 49.465,38.3264 49.009,39.1424 L46.856,38.2954 C47.39,37.4924 47.972,36.3454 48.302,35.3554 L50.329,36.0624 L50.329,35.2294 L52.64,35.2294 L52.64,37.3044 C52.64,37.7594 52.781,37.8064 53.63,37.8064 L55.846,37.8064 C56.6,37.8064 56.71,37.5874 56.82,36.0624 C57.229,36.3144 58.015,36.5814 58.612,36.7074 C58.439,36.3774 58.266,36.0314 58.109,35.7324 L60.136,35.1034 Z M50.172,28.6914 C50.172,30.6714 49.889,33.5474 48.459,35.3554 C48.129,34.9624 47.233,34.2084 46.777,33.9724 C47.972,32.4164 48.082,30.2324 48.082,28.6604 L48.082,26.2554 L55.437,26.2554 C55.421,25.7994 55.421,25.3434 55.421,24.8734 L57.559,24.8734 C57.543,25.3434 57.543,25.8154 57.543,26.2554 L58.439,26.2554 C58.219,26.0504 58.015,25.8464 57.826,25.6734 L59.162,24.7784 C59.618,25.1554 60.247,25.6894 60.577,26.0354 L60.278,26.2554 L61.472,26.2554 L61.472,28.0464 L57.606,28.0464 C57.653,29.0214 57.763,29.9024 57.92,30.6254 C58.439,29.9184 58.848,29.1154 59.146,28.2674 L61.189,28.7534 C60.639,30.2484 59.838,31.5844 58.879,32.6834 C59.083,32.8564 59.319,32.9514 59.586,32.9514 C59.948,32.9514 60.074,32.4164 60.152,31.0954 C60.592,31.5044 61.347,31.8814 61.881,32.0394 C61.614,34.4124 60.985,34.9784 59.492,34.9784 C58.596,34.9784 57.905,34.6794 57.354,34.1604 C57.056,34.3804 56.757,34.6014 56.458,34.7894 C56.191,34.4594 55.579,33.8144 55.139,33.4214 L55.139,34.3964 L54.714,34.3964 C55.327,35.0414 56.223,35.9214 56.663,36.4864 L54.761,37.4144 C54.384,36.8324 53.52,35.8744 52.907,35.1824 L54.667,34.3964 L50.361,34.3964 L50.361,30.5624 L55.139,30.5624 L55.139,33.1384 C55.531,32.9044 55.909,32.6524 56.27,32.3694 C55.846,31.2214 55.626,29.7444 55.516,28.0464 L50.172,28.0464 L50.172,28.6914 Z" id="Fill-27" fill="#282828" mask="url(#mask-2)"></path>
                    <path d="M64.6909,37.5869 C63.8269,37.5869 63.0089,37.0059 63.0089,36.0159 C63.0089,35.0569 63.7949,34.4429 64.7539,34.4429 C65.9959,34.4429 66.6559,35.3559 66.6559,36.8009 C66.6559,38.6249 65.4449,40.1639 63.3239,40.7459 L62.7419,39.2369 C63.9529,38.9069 64.6749,38.2629 64.8009,37.5869 L64.6909,37.5869 Z" id="Fill-28" fill="#282828" mask="url(#mask-2)"></path>
                    <path d="M74.292,33.7364 L76.665,33.7364 L76.665,31.8194 L74.292,31.8194 L74.292,33.7364 Z M74.292,35.9054 L74.292,37.0844 L72.076,37.0844 L72.076,29.6504 L78.928,29.6504 L78.928,35.9054 L74.292,35.9054 Z M85.073,28.2044 L83.313,28.2044 L83.313,37.0374 C83.313,38.3264 83.014,38.9864 82.181,39.3474 C81.317,39.7404 80.138,39.7874 78.488,39.7874 C78.362,39.1114 77.891,37.9804 77.529,37.3674 C78.582,37.4454 80.012,37.4294 80.39,37.4294 C80.767,37.4294 80.908,37.3204 80.908,36.9904 L80.908,28.2044 L70.708,28.2044 L70.708,25.8944 L85.073,25.8944 L85.073,28.2044 Z" id="Fill-29" fill="#282828" mask="url(#mask-2)"></path>
                    <path d="M97.564,29.6035 C97.501,29.7905 97.439,29.9645 97.391,30.1365 C97.501,31.0485 97.674,31.9925 97.926,32.9195 C98.161,31.9145 98.303,30.8135 98.397,29.6035 L97.564,29.6035 Z M95.364,37.5405 C96.008,36.9905 96.511,36.3455 96.92,35.6235 C96.59,34.7105 96.338,33.7675 96.149,32.8255 C96.008,33.0445 95.867,33.2495 95.71,33.4535 C95.631,33.2815 95.505,33.0445 95.364,32.7775 L95.364,37.5405 Z M92.299,36.1405 L93.383,36.1405 L93.383,33.9255 L92.299,33.9255 L92.299,36.1405 Z M100.314,29.6035 C100.094,31.9925 99.717,34.0035 99.01,35.6855 C99.529,36.5975 100.189,37.3675 101.053,37.9165 C100.66,38.3105 100.016,39.1585 99.733,39.7085 C98.994,39.1585 98.397,38.4515 97.91,37.6665 C97.344,38.4515 96.652,39.1265 95.804,39.7085 C95.568,39.3325 94.861,38.5305 94.452,38.1835 L94.656,38.0585 L92.299,38.0585 L92.299,39.2215 L90.35,39.2215 L90.35,32.0075 L91.812,32.0075 L91.812,29.6505 L90.209,29.6505 L90.209,27.6075 L91.812,27.6075 L91.812,25.0765 L93.965,25.0765 L93.965,27.6075 L95.379,27.6075 L95.379,29.6505 L93.965,29.6505 L93.965,32.0075 L94.908,32.0075 C94.767,31.7875 94.625,31.5995 94.515,31.4575 C95.615,29.9025 96.212,27.4335 96.511,24.8885 L98.539,25.2345 C98.413,26.0665 98.255,26.8845 98.067,27.7015 L101.053,27.7015 L101.053,29.6035 L100.314,29.6035 Z M90.932,25.5005 C90.586,26.5545 90.162,27.6695 89.674,28.7385 L89.674,39.7875 L87.584,39.7875 L87.584,32.4315 C87.364,32.7305 87.144,33.0135 86.924,33.2815 C86.751,32.7145 86.201,31.3785 85.856,30.7655 C87.065,29.3355 88.181,27.1035 88.826,24.8735 L90.932,25.5005 Z" id="Fill-30" fill="#282828" mask="url(#mask-2)"></path>
                    <path d="M111.061,29.4775 C110.652,28.7855 109.646,27.7325 108.813,27.0095 L110.307,25.7365 C111.124,26.3965 112.192,27.3715 112.664,28.0625 L111.061,29.4775 Z M109.725,29.8705 C110.574,30.5305 111.689,31.5045 112.192,32.1965 L110.621,33.6585 C110.165,32.9515 109.112,31.8985 108.263,31.1745 L109.725,29.8705 Z M115.084,35.8895 L115.084,39.7875 L112.837,39.7875 L112.837,36.2985 L108.295,37.1305 L107.933,34.9475 L112.837,34.0665 L112.837,24.8575 L115.084,24.8575 L115.084,33.6735 L116.499,33.4215 L116.845,35.5755 L115.084,35.8895 Z M106.975,35.2925 C106.817,34.9315 106.582,34.4585 106.314,33.9885 L106.314,39.8025 L104.099,39.8025 L104.099,34.9475 C103.674,35.9055 103.218,36.7695 102.715,37.4295 C102.511,36.7695 102.024,35.8105 101.678,35.2295 C102.496,34.2715 103.266,32.7775 103.8,31.4105 L101.867,31.4105 L101.867,29.2895 L104.099,29.2895 L104.099,27.8275 C103.58,27.9065 103.061,27.9845 102.558,28.0315 C102.479,27.5285 102.197,26.7575 101.961,26.2715 C103.769,26.0035 105.702,25.5165 107.069,24.9665 L108.311,26.8365 C107.682,27.0565 107.006,27.2465 106.314,27.4025 L106.314,29.2895 L108.248,29.2895 L108.248,31.4105 L106.314,31.4105 L106.314,31.4565 C106.739,31.8195 107.98,33.1705 108.279,33.5005 L106.975,35.2925 Z" id="Fill-31" fill="#282828" mask="url(#mask-2)"></path>
                    <path d="M128.0312,30.373 C128.2672,29.839 128.5342,29.053 128.7072,28.408 L127.5282,28.408 L127.5282,30.687 L129.1622,30.687 L128.0312,30.373 Z M124.4952,30.687 L125.3752,30.687 L125.3752,28.408 L124.4952,28.408 L124.4952,30.687 Z M121.8542,37.635 L128.0782,37.635 L128.0782,37.006 L121.8542,37.006 L121.8542,37.635 Z M121.8542,35.371 L128.0782,35.371 L128.0782,34.726 L121.8542,34.726 L121.8542,35.371 Z M121.0692,28.408 C121.4302,28.99 121.7132,29.697 121.8542,30.2 L120.6442,30.687 L122.3732,30.687 L122.3732,28.408 L121.0692,28.408 Z M119.6222,33.029 L130.4352,33.029 L130.4352,39.74 L128.0782,39.74 L128.0782,39.363 L121.8542,39.363 L121.8542,39.803 L119.6222,39.803 L119.6222,33.029 Z M132.2742,30.687 L132.2742,32.511 L117.7682,32.511 L117.7682,30.687 L119.8272,30.687 C119.6702,30.105 119.3552,29.367 119.0412,28.802 L120.1252,28.408 L118.5702,28.408 L118.5702,26.586 L121.1472,26.586 C120.9582,26.225 120.7072,25.815 120.4712,25.501 L122.4992,24.794 C122.9232,25.25 123.3322,25.879 123.5202,26.334 L122.8912,26.586 L126.3342,26.586 C126.6952,26.035 127.0882,25.344 127.3232,24.81 L129.6022,25.422 C129.3512,25.847 129.0992,26.24 128.8482,26.586 L131.5202,26.586 L131.5202,28.408 L129.7602,28.408 L130.8602,28.691 C130.5302,29.445 130.2162,30.153 129.9322,30.687 L132.2742,30.687 Z" id="Fill-32" fill="#282828" mask="url(#mask-2)"></path>
                    <path d="M135.3994,37.5869 C134.5354,37.5869 133.7174,37.0059 133.7174,36.0159 C133.7174,35.0569 134.5034,34.4429 135.4614,34.4429 C136.7044,34.4429 137.3644,35.3559 137.3644,36.8009 C137.3644,38.6249 136.1534,40.1639 134.0324,40.7459 L133.4504,39.2369 C134.6614,38.9069 135.3834,38.2629 135.5094,37.5869 L135.3994,37.5869 Z" id="Fill-33" fill="#282828" mask="url(#mask-2)"></path>
                    <path d="M145,33.7364 L147.373,33.7364 L147.373,31.8194 L145,31.8194 L145,33.7364 Z M145,35.9054 L145,37.0844 L142.784,37.0844 L142.784,29.6504 L149.636,29.6504 L149.636,35.9054 L145,35.9054 Z M155.781,28.2044 L154.021,28.2044 L154.021,37.0374 C154.021,38.3264 153.723,38.9864 152.89,39.3474 C152.025,39.7404 150.847,39.7874 149.196,39.7874 C149.07,39.1114 148.599,37.9804 148.237,37.3674 C149.29,37.4454 150.721,37.4294 151.098,37.4294 C151.475,37.4294 151.616,37.3204 151.616,36.9904 L151.616,28.2044 L141.416,28.2044 L141.416,25.8944 L155.781,25.8944 L155.781,28.2044 Z" id="Fill-34" fill="#282828" mask="url(#mask-2)"></path>
                    <path d="M161.782,35.3404 L166.512,35.3404 L166.512,34.8204 L161.782,34.8204 L161.782,35.3404 Z M161.782,33.4224 L166.512,33.4224 L166.512,32.9204 L161.782,32.9204 L161.782,33.4224 Z M168.068,31.4574 C167.062,30.8134 166.135,30.0114 165.364,29.1154 L165.364,31.0334 L163.102,31.0334 L163.102,29.1304 C162.363,30.0114 161.498,30.7964 160.524,31.4574 L168.068,31.4574 Z M157.286,39.3944 L171.306,39.3944 L171.306,37.3984 L157.286,37.3984 L157.286,39.3944 Z M167.471,28.4554 C168.618,29.4454 170.174,30.2634 171.824,30.7344 C171.337,31.1594 170.661,32.0234 170.347,32.5894 C169.844,32.4004 169.372,32.1964 168.901,31.9454 L168.901,36.8004 L159.519,36.8004 L159.519,32.0704 C159.078,32.3064 158.638,32.5104 158.167,32.6994 C157.837,32.1484 157.177,31.3164 156.705,30.8764 C158.323,30.3734 159.849,29.4934 160.964,28.4554 L157.224,28.4554 L157.224,26.4914 L163.102,26.4914 L163.102,24.8734 L165.364,24.8734 L165.364,26.4914 L171.384,26.4914 L171.384,28.4554 L167.471,28.4554 Z" id="Fill-35" fill="#282828" mask="url(#mask-2)"></path>
                    <path d="M182.9795,29.791 C183.1675,30.797 183.4185,31.756 183.7335,32.668 C183.9855,31.803 184.1585,30.845 184.2685,29.791 L182.9795,29.791 Z M186.3585,29.791 C186.0905,31.914 185.6515,33.721 184.9595,35.229 C185.6675,36.346 186.5625,37.241 187.6785,37.87 C187.1915,38.279 186.5315,39.096 186.2015,39.662 C185.2105,39.018 184.3935,38.216 183.7175,37.241 C182.8535,38.326 181.7535,39.206 180.3385,39.897 C180.1505,39.426 179.5525,38.467 179.1755,38.043 C180.7005,37.383 181.8165,36.471 182.6025,35.262 C182.2085,34.396 181.8945,33.437 181.6125,32.432 C181.4075,32.825 181.1715,33.187 180.9365,33.517 C180.6065,33.139 179.7735,32.385 179.3175,32.07 C180.6065,30.436 181.2975,27.717 181.6275,24.857 L183.7025,25.155 C183.5765,26.02 183.4355,26.869 183.2625,27.686 L187.3175,27.686 L187.3175,29.791 L186.3585,29.791 Z M176.1735,34.758 C176.0645,34.963 175.9545,35.166 175.8435,35.371 C176.1735,35.528 176.5195,35.701 176.8495,35.874 C177.1795,35.528 177.4625,35.166 177.6985,34.758 L176.1735,34.758 Z M178.2015,38.907 C177.8865,38.672 177.5095,38.404 177.1015,38.137 C176.0645,38.892 174.8225,39.441 173.4395,39.818 C173.2355,39.316 172.7945,38.514 172.4335,38.105 C173.4865,37.886 174.4455,37.54 175.2785,37.068 C174.5555,36.691 173.8165,36.33 173.1405,36.047 C173.4085,35.67 173.6905,35.229 173.9735,34.758 L173.0145,34.758 L173.0145,32.936 L174.9165,32.936 C175.0585,32.637 175.1675,32.354 175.2785,32.07 L177.2745,32.447 C177.2105,32.605 177.1485,32.777 177.0705,32.936 L178.7365,32.936 L179.0655,32.872 L180.3075,33.312 C179.9155,34.727 179.3175,35.874 178.5315,36.816 C178.8925,37.037 179.2395,37.241 179.5215,37.445 L178.2015,38.907 Z M175.6085,30.924 C174.9485,31.536 174.1935,32.086 173.5015,32.479 C173.2505,31.992 172.7635,31.238 172.3545,30.829 C173.1565,30.515 174.0205,29.965 174.7285,29.352 L172.7635,29.352 L172.7635,27.576 L173.8005,27.576 C173.6745,27.041 173.3605,26.303 173.0305,25.736 L174.6495,25.061 C175.0425,25.643 175.4355,26.428 175.5615,26.978 L174.1935,27.576 L175.6085,27.576 L175.6085,24.857 L177.6985,24.857 L177.6985,26.916 C178.0285,26.365 178.4215,25.564 178.6415,24.998 L180.5585,25.736 C180.0085,26.428 179.5215,27.119 179.1285,27.576 L177.6985,26.947 L177.6985,27.576 L180.5585,27.576 L180.5585,29.352 L178.6725,29.352 C179.2865,29.682 179.8985,30.043 180.1345,30.2 L178.9405,31.756 C178.6415,31.457 178.1695,31.049 177.6985,30.641 L177.6985,32.07 L175.6085,32.07 L175.6085,30.924 Z" id="Fill-36" fill="#282828" mask="url(#mask-2)"></path>
                    <path d="M197.45,37.6504 L200.673,37.6504 L200.673,36.5344 L197.45,36.5344 L197.45,37.6504 Z M195.958,28.3924 L200.468,28.3924 L200.468,27.4024 L195.958,27.4024 L195.958,28.3924 Z M197.859,30.3264 L195.958,30.3264 C195.958,30.7034 195.958,31.0954 195.941,31.5204 L197.859,31.5204 L197.859,30.3264 Z M197.859,33.4214 L195.816,33.4214 C195.784,33.8314 195.737,34.2554 195.675,34.6794 L197.859,34.6794 L197.859,33.4214 Z M199.997,33.4214 L199.997,34.6794 L202.716,34.6794 L202.716,39.7874 L200.673,39.7874 L200.673,39.4414 L197.45,39.4414 L197.45,39.7874 L195.502,39.7874 L195.502,35.7164 C195.203,37.2564 194.716,38.7344 193.946,39.8664 C193.553,39.4724 192.594,38.7654 192.091,38.5304 C193.632,36.2354 193.741,32.7774 193.741,30.3264 L193.741,25.4694 L202.621,25.4694 L202.621,30.3264 L199.997,30.3264 L199.997,31.5204 L202.999,31.5204 L202.999,33.4214 L199.997,33.4214 Z M193.475,33.5014 C192.972,33.6424 192.469,33.7834 191.95,33.9254 L191.95,37.1944 C191.95,38.1834 191.809,38.7504 191.274,39.0954 C190.739,39.4574 190.001,39.5364 188.979,39.5364 C188.933,38.9704 188.681,38.0274 188.414,37.4294 C188.917,37.4454 189.436,37.4454 189.624,37.4454 C189.812,37.4454 189.875,37.3824 189.875,37.1774 L189.875,34.4904 L188.603,34.8204 L188.131,32.6364 C188.634,32.5424 189.23,32.4164 189.875,32.2594 L189.875,29.8384 L188.397,29.8384 L188.397,27.7484 L189.875,27.7484 L189.875,24.8884 L191.95,24.8884 L191.95,27.7484 L193.427,27.7484 L193.427,29.8384 L191.95,29.8384 L191.95,31.7714 L193.191,31.4574 L193.475,33.5014 Z" id="Fill-37" fill="#282828" mask="url(#mask-2)"></path>
                    <path d="M206.1074,37.5869 C205.2434,37.5869 204.4254,37.0059 204.4254,36.0159 C204.4254,35.0569 205.2114,34.4429 206.1694,34.4429 C207.4124,34.4429 208.0724,35.3559 208.0724,36.8009 C208.0724,38.6249 206.8614,40.1639 204.7404,40.7459 L204.1584,39.2369 C205.3694,38.9069 206.0914,38.2629 206.2174,37.5869 L206.1074,37.5869 Z" id="Fill-38" fill="#282828" mask="url(#mask-2)"></path>
                    <path d="M215.708,33.7364 L218.081,33.7364 L218.081,31.8194 L215.708,31.8194 L215.708,33.7364 Z M215.708,35.9054 L215.708,37.0844 L213.492,37.0844 L213.492,29.6504 L220.345,29.6504 L220.345,35.9054 L215.708,35.9054 Z M226.49,28.2044 L224.729,28.2044 L224.729,37.0374 C224.729,38.3264 224.431,38.9864 223.598,39.3474 C222.733,39.7404 221.555,39.7874 219.904,39.7874 C219.779,39.1114 219.308,37.9804 218.946,37.3674 C219.999,37.4454 221.429,37.4294 221.807,37.4294 C222.184,37.4294 222.325,37.3204 222.325,36.9904 L222.325,28.2044 L212.125,28.2044 L212.125,25.8944 L226.49,25.8944 L226.49,28.2044 Z" id="Fill-39" fill="#282828" mask="url(#mask-2)"></path>
                    <path d="M238.9023,28.3457 C239.1223,28.8647 239.3103,29.5397 239.3743,29.9957 L237.9433,30.3887 L239.5933,30.3887 C239.8443,29.7597 240.0963,28.9587 240.2383,28.3457 L238.9023,28.3457 Z M238.6193,32.1807 L236.8113,32.1807 L236.8113,30.3887 L237.7703,30.3887 C237.7233,29.9027 237.5503,29.1947 237.3463,28.6597 L238.6193,28.3457 L236.9223,28.3457 L236.9223,26.5707 L238.6033,26.5707 C238.4773,26.1607 238.3203,25.7367 238.1473,25.3747 L239.9393,24.8577 C240.2223,25.3747 240.4733,26.0197 240.6313,26.5707 L242.2343,26.5707 L242.2343,28.3457 L240.5993,28.3457 L242.0773,28.6757 C241.8093,29.2737 241.5273,29.8697 241.2913,30.3887 L242.3433,30.3887 L242.3433,32.1807 L240.6313,32.1807 L240.6313,32.9827 L242.2343,32.9827 L242.2343,34.7577 L240.6313,34.7577 L240.6313,36.7847 L238.6193,36.7847 L238.6193,34.7577 L236.9223,34.7577 L236.9223,32.9827 L238.6193,32.9827 L238.6193,32.1807 Z M234.2033,34.8207 L234.9263,34.8207 L234.9263,32.8257 L234.2033,32.8257 L234.2033,34.8207 Z M233.7783,27.1037 L233.7783,28.1247 L233.7783,28.5817 L234.5643,28.5817 L234.5643,27.1037 L233.7783,27.1037 Z M229.5353,29.5727 C229.2203,28.7067 228.3253,27.4027 227.5393,26.4597 L229.3463,25.4377 C230.1483,26.3187 231.0903,27.5447 231.4843,28.4237 L229.5353,29.5727 Z M230.9973,35.9527 C231.3893,36.1097 231.8303,36.3617 232.4903,36.5977 C233.6363,37.0527 235.2563,37.1467 236.9373,37.1467 C238.4153,37.1467 240.9923,37.0057 242.5643,36.7387 C242.3123,37.3667 241.9513,38.4827 241.9043,39.1267 C240.9453,39.2057 238.4463,39.3167 236.8593,39.3167 C234.8943,39.3167 233.4323,39.1267 232.1283,38.5927 C231.2953,38.2627 230.6983,37.8697 230.3053,37.8697 C229.8963,37.8697 229.2993,38.8917 228.9543,39.6157 L227.5233,37.3667 C227.9793,36.9107 228.4663,36.5337 228.9373,36.2677 L228.9373,33.0137 L227.6333,33.0137 L227.6333,30.9547 L230.9973,30.9547 L230.9973,33.6737 C231.7983,31.8987 231.8773,29.6977 231.8773,28.1097 L231.8773,25.4067 L236.4653,25.4067 L236.4653,30.2797 L233.6843,30.2797 C233.6533,30.5937 233.6213,30.9087 233.5743,31.2217 L236.5293,31.2217 L236.5293,36.4397 L232.6943,36.4397 L232.6943,34.6327 C232.5063,35.0877 232.2853,35.5127 232.0183,35.8897 C231.8303,35.6227 231.3743,35.1827 230.9973,34.8527 L230.9973,35.9527 Z" id="Fill-40" fill="#282828" mask="url(#mask-2)"></path>
                    <path d="M252.6816,33.9883 C253.7976,35.8263 255.6366,37.0683 258.4026,37.6193 C257.8836,38.1213 257.1926,39.1423 256.8626,39.8023 C253.8926,39.0173 252.0696,37.5243 250.7956,35.2613 C249.8216,37.1463 248.0136,38.7813 244.6666,39.7563 C244.3996,39.1893 243.6926,38.2003 243.2046,37.7443 C246.2226,36.9273 247.8096,35.5443 248.6266,33.9883 L243.5666,33.9883 L243.5666,31.6773 L249.3336,31.6773 C249.4126,31.0953 249.4446,30.4993 249.4446,29.9333 L249.4446,29.5403 L246.6946,29.5403 C246.3316,30.2323 245.9546,30.8603 245.5626,31.3633 C245.0596,30.9863 243.9436,30.4043 243.3466,30.1363 C244.4466,28.9743 245.3266,26.9783 245.7826,25.0293 L248.2186,25.5493 C248.0776,26.1133 247.9046,26.6643 247.7006,27.2153 L249.4446,27.2153 L249.4446,24.8733 L251.8486,24.8733 L251.8486,27.2153 L256.5006,27.2153 L256.5006,29.5403 L251.8486,29.5403 L251.8486,29.9493 C251.8486,30.5143 251.8326,31.0953 251.7706,31.6773 L257.8686,31.6773 L257.8686,33.9883 L252.6816,33.9883 Z" id="Fill-41" fill="#282828" mask="url(#mask-2)"></path>
                    <path d="M266.981,28.4714 L270.752,28.4714 L270.752,27.4654 L266.981,27.4654 L266.981,28.4714 Z M264.874,30.4204 L273,30.4204 L273,25.5334 L264.874,25.5334 L264.874,30.4204 Z M270.674,35.9374 C271.412,36.8484 272.575,37.5244 274.115,37.8544 C273.612,38.2954 272.953,39.1894 272.654,39.8024 C271.004,39.3004 269.825,38.3574 268.977,37.0844 C268.285,38.2474 267.122,39.1894 265.11,39.8494 C264.89,39.2854 264.324,38.4204 263.868,37.9804 C265.613,37.4924 266.571,36.8164 267.106,35.9374 L264.214,35.9374 L264.214,33.9414 L267.719,33.9414 C267.75,33.6734 267.767,33.3904 267.798,33.1074 L264.592,33.1074 L264.592,31.1114 L273.299,31.1114 L273.299,33.1074 L269.967,33.1074 C269.936,33.3904 269.919,33.6734 269.888,33.9414 L273.864,33.9414 L273.864,35.9374 L270.674,35.9374 Z M262.312,29.0214 C261.81,28.2984 260.646,27.1824 259.798,26.4124 L261.307,24.9824 C262.155,25.6734 263.365,26.7114 263.916,27.4024 L262.312,29.0214 Z M264.01,35.2454 C264.104,35.8584 264.355,36.7544 264.544,37.2104 C261.982,39.0024 261.464,39.4104 261.181,39.7714 C260.992,39.2064 260.38,38.1834 260.002,37.7284 C260.38,37.4454 260.851,36.8004 260.851,36.0624 L260.851,31.7714 L259.012,31.7714 L259.012,29.5874 L263.067,29.5874 L263.067,35.8744 L264.01,35.2454 Z" id="Fill-42" fill="#282828" mask="url(#mask-2)"></path>
                    <path d="M276.8154,37.5869 C275.9514,37.5869 275.1334,37.0059 275.1334,36.0159 C275.1334,35.0569 275.9194,34.4429 276.8784,34.4429 C278.1204,34.4429 278.7804,35.3559 278.7804,36.8009 C278.7804,38.6249 277.5704,40.1639 275.4484,40.7459 L274.8674,39.2369 C276.0774,38.9069 276.7994,38.2629 276.9254,37.5869 L276.8154,37.5869 Z" id="Fill-43" fill="#282828" mask="url(#mask-2)"></path>
                    <path d="M71.054,56.2984 L76.853,56.2984 L76.853,54.7744 L71.054,54.7744 L71.054,56.2984 Z M79.683,63.4504 C79.573,63.0254 79.353,62.5074 79.085,61.9574 C78.787,63.9684 78.111,64.4714 76.178,64.4714 L73.38,64.4714 C70.787,64.4714 70.143,63.8274 70.143,61.8324 L70.143,59.0964 L72.579,59.0964 L72.579,61.7994 C72.579,62.3344 72.736,62.3964 73.647,62.3964 L75.974,62.3964 C76.681,62.3964 76.822,62.2094 76.917,61.0924 C77.404,61.4384 78.394,61.7684 79.054,61.9104 C78.661,61.1714 78.158,60.4174 77.655,59.7724 L79.416,58.7664 C80.343,59.8514 81.286,61.2654 81.6,62.3494 L79.683,63.4504 Z M73.883,58.4364 L68.555,58.4364 L68.555,52.6524 L70.787,52.6524 C70.504,51.9924 70.033,51.2074 69.577,50.5934 L71.542,49.6664 C72.202,50.4374 72.877,51.4594 73.113,52.2444 L72.249,52.6524 L74.968,52.6524 C75.455,51.7254 75.958,50.5624 76.241,49.6194 L78.646,50.6094 C78.237,51.3004 77.828,52.0074 77.435,52.6524 L79.479,52.6524 L79.479,58.4364 L74.889,58.4364 C75.675,58.9864 76.445,59.6934 76.885,60.2284 L75.219,61.6894 C74.685,60.9664 73.632,59.9614 72.736,59.3474 L73.883,58.4364 Z M66.465,62.8844 C67.031,62.0664 67.471,60.5894 67.66,59.3004 L69.844,59.6934 C69.703,61.1394 69.263,62.7584 68.618,63.8274 L66.465,62.8844 Z" id="Fill-44" fill="#282828" mask="url(#mask-2)"></path>
                    <path d="M96.3228,53.5332 C94.3428,56.5042 91.1988,59.5372 88.0718,61.6742 C89.0308,62.1302 90.2568,62.2092 91.7498,62.2092 C93.2268,62.2092 95.6628,62.0512 97.1718,61.8002 C96.9358,62.4132 96.5588,63.6072 96.5278,64.2212 C95.4268,64.2992 93.2418,64.3922 91.6558,64.3922 C89.6908,64.3922 88.4648,64.1572 87.3648,63.5292 C86.6568,63.1042 86.1228,62.5862 85.7768,62.5862 C85.2898,62.5862 84.5978,63.7172 84.0168,64.6912 L82.3828,62.5392 C83.5608,61.2812 84.9128,60.4482 85.8398,60.4482 L85.8558,60.4482 C88.2758,58.9552 90.7438,56.7392 92.3938,54.7272 L83.1678,54.7272 L83.1678,52.4962 L89.0618,52.4962 C88.6848,51.8672 88.1818,51.1292 87.7888,50.5472 L89.8478,49.4312 C90.4288,50.2012 91.2778,51.2852 91.6708,51.9762 L90.7598,52.4962 L94.1228,52.4962 L94.5628,52.3862 L96.3228,53.5332 Z" id="Fill-45" fill="#282828" mask="url(#mask-2)"></path>
                    <polygon id="Fill-46" fill="#282828" mask="url(#mask-2)" points="98.064 58.2484 112.711 58.2484 112.711 55.7494 98.064 55.7494"></polygon>
                    <path d="M118.177,58.1064 L123.945,58.1064 L123.945,56.4724 L118.177,56.4724 L118.177,58.1064 Z M118.177,54.2554 L123.945,54.2554 L123.945,52.6674 L118.177,52.6674 L118.177,54.2554 Z M115.914,60.3064 L126.334,60.3064 L126.334,50.4684 L115.914,50.4684 L115.914,60.3064 Z M114.106,63.9374 L128.126,63.9374 L128.126,61.6894 L114.106,61.6894 L114.106,63.9374 Z" id="Fill-47" fill="#282828" mask="url(#mask-2)"></path>
                    <path d="M140.4287,62.4922 C140.8527,62.5232 141.3557,62.5232 141.5287,62.5232 C141.7007,62.5232 141.7647,62.4442 141.7647,62.2562 L141.7647,59.7572 L140.4287,59.7572 L140.4287,62.4922 Z M140.4287,57.7602 L141.7647,57.7602 L141.7647,56.1892 L140.4287,56.1892 L140.4287,57.7602 Z M140.4287,54.1932 L141.7647,54.1932 L141.7647,52.6682 L140.4287,52.6682 L140.4287,54.1932 Z M137.0017,54.1932 L138.3377,54.1932 L138.3377,52.6682 L137.0017,52.6682 L137.0017,54.1932 Z M138.3377,57.7612 L138.3377,56.1892 L137.0017,56.1892 L137.0017,56.3142 C137.0017,56.7702 136.9867,57.2582 136.9707,57.7612 L138.3377,57.7612 Z M143.9337,62.2872 C143.9337,63.2462 143.7917,63.8112 143.2257,64.1742 C142.6757,64.5192 141.9527,64.5662 140.9787,64.5662 C140.9157,64.0152 140.6797,63.1512 140.4287,62.5862 L140.4287,64.1412 L138.3377,64.1412 L138.3377,59.7572 L136.7977,59.7572 C136.5627,61.5642 136.0747,63.3872 135.1007,64.6762 C134.7397,64.2672 133.8267,63.5452 133.3557,63.3082 C134.7547,61.3902 134.8657,58.5152 134.8657,56.2992 L134.8657,50.6402 L143.9337,50.6402 L143.9337,62.2872 Z M133.1827,58.6872 L133.1827,62.0042 C133.1827,63.0102 133.0257,63.6072 132.4757,63.9692 C131.9257,64.3302 131.1867,64.4252 130.1497,64.4082 C130.1027,63.8272 129.8357,62.8532 129.5687,62.2402 C130.0547,62.2562 130.5897,62.2562 130.7787,62.2562 C130.9667,62.2562 131.0297,62.1932 131.0297,61.9882 L131.0297,59.2692 L129.6787,59.6312 L129.2067,57.4462 C129.7247,57.3362 130.3537,57.2112 131.0297,57.0542 L131.0297,54.6482 L129.4737,54.6482 L129.4737,52.5582 L131.0297,52.5582 L131.0297,49.6982 L133.1827,49.6982 L133.1827,52.5582 L134.5817,52.5582 L134.5817,54.6482 L133.1827,54.6482 L133.1827,56.5352 L134.3777,56.2362 L134.6597,58.2792 L133.1827,58.6872 Z" id="Fill-48" fill="#282828" mask="url(#mask-2)"></path>
                    <path d="M150.452,59.7574 L155.654,59.7574 L155.654,59.0814 L150.452,59.0814 L150.452,59.7574 Z M150.452,57.1954 L155.654,57.1954 L155.654,56.5354 L150.452,56.5354 L150.452,57.1954 Z M151.206,53.6424 C151.049,53.9574 150.892,54.2554 150.735,54.5544 L157.886,54.5544 L157.886,62.2554 C157.886,63.3084 157.697,63.9214 156.99,64.2674 C156.299,64.6134 155.387,64.6444 154.146,64.6444 C154.066,64.0154 153.769,63.0414 153.47,62.4444 C154.146,62.4924 155.057,62.4924 155.309,62.4924 C155.56,62.4924 155.654,62.4134 155.654,62.2094 L155.654,61.6424 L150.452,61.6424 L150.452,64.5974 L148.188,64.5974 L148.188,58.1224 C147.654,58.6874 147.073,59.1914 146.429,59.6304 C146.083,59.1284 145.359,58.2954 144.904,57.8714 C146.476,56.8654 147.701,55.3244 148.613,53.6424 L145.438,53.6424 L145.438,51.5054 L149.588,51.5054 C149.808,50.8924 149.996,50.2634 150.153,49.6664 L152.526,50.2014 C152.385,50.6404 152.244,51.0654 152.087,51.5054 L159.599,51.5054 L159.599,53.6424 L151.206,53.6424 Z" id="Fill-49" fill="#282828" mask="url(#mask-2)"></path>
                    <path d="M173.1426,62.1621 C173.5676,62.1621 173.6456,61.6271 173.7246,59.6781 C174.2746,60.0871 175.2176,60.5121 175.8626,60.6681 C175.6416,63.3081 175.0606,64.3921 173.3786,64.3921 L171.7126,64.3921 C169.8276,64.3921 169.2916,63.6391 169.2916,61.1241 L169.2916,49.6831 L171.6656,49.6831 L171.6656,54.6951 C172.4516,54.1621 173.1906,53.5801 173.7716,53.0611 L175.5796,54.9631 C174.3696,55.7651 172.9696,56.4881 171.6656,57.0851 L171.6656,61.1561 C171.6656,62.0511 171.7126,62.1621 172.1216,62.1621 L173.1426,62.1621 Z M168.6956,60.9201 L168.8686,63.1681 C166.2116,63.6851 163.3046,64.1891 161.1666,64.5981 L160.8056,62.1931 C161.1516,62.1451 161.5126,62.0991 161.9056,62.0351 L161.9056,52.9981 L164.1216,52.9981 L164.1216,61.7051 L164.9226,61.5641 L164.9226,49.6831 L167.2806,49.6831 L167.2806,54.2401 L168.8526,54.2401 L168.8526,56.4251 L167.2806,56.4251 L167.2806,61.1721 L168.6956,60.9201 Z" id="Fill-50" fill="#282828" mask="url(#mask-2)"></path>
                    <path d="M185.1465,60.1182 L185.1465,62.0512 L186.8285,62.0512 C186.4515,61.5802 185.9955,61.0772 185.6185,60.6522 L186.4355,60.1182 L185.1465,60.1182 Z M179.3945,54.6012 L188.3365,54.6012 L188.3365,53.4862 L179.3945,53.4862 L179.3945,54.6012 Z M185.1465,56.7072 L185.1465,58.0272 L188.7775,58.0272 L188.7775,60.1182 L187.8025,60.1182 C188.3055,60.6372 188.8555,61.2032 189.1695,61.5962 L188.5255,62.0512 L190.6165,62.0512 L190.6165,64.1572 L177.3045,64.1572 L177.3045,62.0512 L182.6315,62.0512 L182.6315,60.1182 L179.2215,60.1182 L179.2215,58.0272 L182.6315,58.0272 L182.6315,56.7072 L178.6085,56.7072 L178.6085,55.3082 L177.1315,55.3082 L177.1315,51.3322 L182.8365,51.3322 C182.6955,50.8772 182.5535,50.3742 182.4125,49.9652 L184.7385,49.4782 C184.9735,50.0442 185.2415,50.7672 185.4295,51.3322 L190.7105,51.3322 L190.7105,55.3082 L189.2335,55.3082 L189.2335,56.7072 L185.1465,56.7072 Z" id="Fill-51" fill="#282828" mask="url(#mask-2)"></path>
                    <path d="M202.321,58.8614 L203.358,58.8614 L203.358,57.2264 L202.321,57.2264 L202.321,58.8614 Z M202.321,55.1364 L203.358,55.1364 L203.358,53.5484 L202.321,53.5484 L202.321,55.1364 Z M199.084,58.8614 L200.152,58.8614 L200.152,57.2264 L199.084,57.2264 L199.084,58.8614 Z M199.084,55.1364 L200.152,55.1364 L200.152,53.5484 L199.084,53.5484 L199.084,55.1364 Z M195.956,58.8614 L196.962,58.8614 L196.962,57.2264 L195.956,57.2264 L195.956,58.8614 Z M195.956,55.1364 L196.962,55.1364 L196.962,53.5484 L195.956,53.5484 L195.956,55.1364 Z M207.083,61.0134 L203.044,61.0134 C204.459,61.6894 205.921,62.4754 206.785,63.0254 L204.647,64.5504 C203.72,63.8754 202.007,62.8054 200.482,62.0664 L201.63,61.0134 L197.434,61.0134 L198.88,62.0034 C197.638,62.9474 195.595,64.0154 193.96,64.5824 C193.521,64.1104 192.719,63.3714 192.152,62.9314 C193.552,62.5074 195.17,61.7204 196.224,61.0134 L192.216,61.0134 L192.216,58.8614 L193.756,58.8614 L193.756,51.4434 L196.962,51.4434 L196.962,49.6194 L199.084,49.6194 L199.084,51.4434 L200.152,51.4434 L200.152,49.6194 L202.321,49.6194 L202.321,51.4434 L205.669,51.4434 L205.669,58.8614 L207.083,58.8614 L207.083,61.0134 Z" id="Fill-52" fill="#282828" mask="url(#mask-2)"></path>
                    <path d="M211.999,61.8154 C211.999,61.0924 211.418,60.5114 210.694,60.5114 C209.987,60.5114 209.391,61.0924 209.391,61.8154 C209.391,62.5394 209.987,63.1204 210.694,63.1204 C211.418,63.1204 211.999,62.5394 211.999,61.8154 M213.319,61.8154 C213.319,63.2614 212.156,64.4404 210.694,64.4404 C209.249,64.4404 208.07,63.2614 208.07,61.8154 C208.07,60.3694 209.249,59.1914 210.694,59.1914 C212.156,59.1914 213.319,60.3694 213.319,61.8154" id="Fill-53" fill="#282828" mask="url(#mask-2)"></path>
                </g>
            </g>
        </g>
    </g>
</svg>