<?xml version="1.0" encoding="UTF-8"?>
<svg width="404px" height="108px" viewBox="0 0 404 108" version="1.1" xmlns="http://www.w3.org/2000/svg" xmlns:xlink="http://www.w3.org/1999/xlink">
    <title>编组</title>
    <defs>
        <polygon id="path-1" points="1 0.0975 1.75591982 0.0975 1.75591982 3.05509944 1 3.05509944"></polygon>
        <polygon id="path-3" points="1 0.842417966 1.55413449 0.842417966 1.55413449 1.93346952 1 1.93346952"></polygon>
        <polygon id="path-5" points="0.162 0.0671806226 4.82863658 0.0671806226 4.82863658 1 0.162 1"></polygon>
        <polygon id="path-7" points="0.3714 0.1447 387.112 0.1447 387.112 102.8967 0.3714 102.8967"></polygon>
        <polygon id="path-9" points="1 103.856 400.112 103.856 400.112 1 1 1"></polygon>
    </defs>
    <g id="页面-1" stroke="none" stroke-width="1" fill="none" fill-rule="evenodd">
        <g id="斗西宝典-首页" transform="translate(-486.000000, -325.000000)">
            <g id="编组-26" transform="translate(486.000000, 325.000000)">
                <g id="编组" transform="translate(0.000000, 1.000000)">
                    <path d="M9.4374,8.1784 C121.9654,-4.1116 235.6264,10.3094 348.7864,7.4014 C359.2744,7.1314 371.5994,7.5764 377.6084,16.1774 C382.1864,22.7304 381.1614,31.4924 380.4944,39.4594 C379.8264,47.4254 380.2284,56.6394 386.4234,61.6914 C390.2004,64.7714 395.6084,65.7514 398.6014,69.5984 C388.9814,72.7524 381.2694,81.1574 378.9504,91.0124 C378.6424,92.3244 378.3634,93.7634 377.3414,94.6424 C376.5394,95.3304 375.4384,95.5284 374.3954,95.6954 C279.8764,110.8334 183.4884,93.2804 87.7654,93.0614 C68.0834,93.0164 48.3424,93.7034 28.7654,91.6714 C22.3554,91.0054 15.5064,89.8264 10.9164,85.3034 C6.0224,80.4804 4.9224,73.0804 4.4414,66.2264 C3.0614,46.5324 4.6284,26.6354 9.0754,7.4014" id="Fill-1" fill="#FFFFFF"></path>
                    <path d="M6.4691,7.9118 C6.8011,6.5828 6.2861,6.9688 6.2581,6.7498 C5.8511,9.0138 6.5881,7.8778 6.4691,7.9118" id="Fill-3" fill="#FFFFFF"></path>
                    <polygon id="Fill-5" fill="#FFFFFF" points="3.6898 30.3014 3.5628 29.8864 3.6338 33.2284"></polygon>
                    <path d="M2.4686,51.2975 C3.1876,49.3195 2.4846,43.6755 2.9886,39.9405 L3.1936,39.3345 L2.7376,37.6085 C2.4726,42.1695 2.6756,48.0935 2.4686,51.2975" id="Fill-7" fill="#FFFFFF"></path>
                    <g transform="translate(0.000000, 59.856000)">
                        <mask id="mask-2" fill="white">
                            <use xlink:href="#path-1"></use>
                        </mask>
                        <g id="Clip-10"></g>
                        <path d="M1.1825,2.7345 C1.4335,2.0235 1.5265,5.1655 1.1585,0.0975 C1.1315,0.3525 1.1235,0.4275 1.1085,0.5775 C1.1315,1.0345 1.1575,1.6635 1.1825,2.7345" id="Fill-9" fill="#FFFFFF" mask="url(#mask-2)"></path>
                    </g>
                    <g transform="translate(0.000000, 58.856000)">
                        <mask id="mask-4" fill="white">
                            <use xlink:href="#path-3"></use>
                        </mask>
                        <g id="Clip-12"></g>
                        <path d="M1.1083,1.5773 C0.9943,-0.6537 0.9363,3.0473 1.1083,1.5773" id="Fill-11" fill="#FFFFFF" mask="url(#mask-4)"></path>
                    </g>
                    <path d="M2.0033,70.7946 C1.7943,69.7986 1.6163,68.8076 1.4473,67.8166 C1.3253,68.4496 1.5793,71.1466 1.3553,70.1606 C1.6043,71.7116 1.7843,72.3256 1.8763,72.3196435 C1.9653,72.3136 1.9783,71.6906 2.0033,70.7946" id="Fill-13" fill="#FFFFFF"></path>
                    <path d="M2.9525,73.5758 C2.8135,73.0608 2.7095,72.5488 2.5915,72.0338 C2.5715,72.3168 2.5935,72.7358 2.9525,73.5758" id="Fill-15" fill="#FFFFFF"></path>
                    <path d="M1.9769,68.7663 C2.1529,69.8523 2.3549,70.9433 2.5909,72.0343 C2.6339,71.5793 2.8679,71.5093 2.3079,70.5293 C2.5509,70.7733 2.2629,70.1483 1.9769,68.7663" id="Fill-17" fill="#FFFFFF"></path>
                    <path d="M1.93,66.9089 C1.969,65.2429 1.95,63.1289 2.371,66.0439 C1.942,60.4629 1.478,61.2969 1.93,66.9089" id="Fill-19" fill="#FFFFFF"></path>
                    <path d="M3.2098,52.3717 C3.2708,51.6437 3.3498,50.9187 3.4318,50.1927 L3.2178,48.3037 C3.3188,49.2467 2.9698,52.5057 3.2098,52.3717" id="Fill-21" fill="#FFFFFF"></path>
                    <path d="M10.1678,88.9352 C10.2998,88.9422 10.1338,88.6832 9.9328,88.3862 C9.7398,88.0772 9.5198,87.7192 9.4928,87.5642 C9.1588,87.3122 8.8478,87.0352 8.5448,86.7462 C8.2408,86.4592 7.9228,86.1802 7.6488,85.8662 C8.3568,86.9522 10.1338,88.6972 10.1678,88.9352" id="Fill-23" fill="#FFFFFF"></path>
                    <path d="M9.4926,87.5641 C10.4526,88.3641 11.5106,89.0041 12.5706,89.5851 C11.2146,88.7011 10.4586,88.0861 10.0246,87.7721 C9.5956,87.4471 9.4716,87.4311 9.4926,87.5641" id="Fill-25" fill="#FFFFFF"></path>
                    <path d="M3.8309,73.9606 C3.3029,72.2076 2.8909,70.4286 2.5399,68.6526 C2.9209,70.7726 3.3999,72.9026 4.0549,74.9916 C3.9769,74.6476 3.8929,74.3046 3.8309,73.9606" id="Fill-27" fill="#FFFFFF"></path>
                    <path d="M22.8241,94.1335 C22.1691,94.1395 21.5041,94.1155 20.8341,94.0925 C22.0211,94.1705 23.1891,94.2125 24.3361,94.2045 C23.8341,94.1865 23.3321,94.1705 22.8241,94.1335" id="Fill-29" fill="#FFFFFF"></path>
                    <path d="M31.1615,95.1003 C29.7765,95.2613 32.9795,95.7683 31.5265,95.8103 C33.7635,95.9493 35.6875,95.8573 37.4135,95.7353 C35.5875,95.7493 33.6455,95.5613 31.1615,95.1003" id="Fill-31" fill="#FFFFFF"></path>
                    <path d="M40.3055,95.5846 C39.3945,95.6136 38.4465,95.6646 37.4135,95.7346 C38.3845,95.7266 39.3405,95.7036 40.3055,95.5846" id="Fill-33" fill="#FFFFFF"></path>
                    <path d="M18.0326,92.1374 C18.2606,92.3014 18.6826,92.7234 20.5446,93.2834 C20.1366,93.0324 19.7346,92.8004 19.3366,92.5334 C18.9386,92.4134 18.4876,92.2964 18.0326,92.1374" id="Fill-35" fill="#FFFFFF"></path>
                    <path d="M19.2943,92.5065 L19.3363,92.5325 C20.7523,92.9305 21.7333,93.1265 22.1533,93.2225 C21.7923,93.1365 20.9313,92.9775 19.2943,92.5065" id="Fill-37" fill="#FFFFFF"></path>
                    <path d="M17.7054,92.027 C17.8254,92.067 17.9144,92.097 18.0324,92.137 C17.9204,92.055 17.8494,92.017 17.7054,92.027" id="Fill-39" fill="#FFFFFF"></path>
                    <path d="M6.4046,82.5094 C6.9946,83.3674 8.0326,84.6014 8.6656,85.1284 C9.3086,85.6554 9.3856,85.5874 8.2956,83.8804 C7.7716,83.3724 7.7896,83.6204 7.6936,83.7154 C7.6156,83.7964 7.3316,83.7764 6.4046,82.5094" id="Fill-41" fill="#FFFFFF"></path>
                    <path d="M16.2968,90.946 C15.1788,90.441 14.0698,89.896 13.0278,89.207 C13.0288,89.339 13.5368,89.829 12.5798,89.402 C13.7938,90.038 15.0418,90.539 16.2968,90.946" id="Fill-43" fill="#FFFFFF"></path>
                    <path d="M18.0199,91.4255 C17.4429,91.2945 16.8719,91.1155 16.2969,90.9465 C16.7149,91.1145 17.1329,91.2995 17.5549,91.4535 L18.0199,91.4255 Z" id="Fill-45" fill="#FFFFFF"></path>
                    <path d="M34.4574,94.7936 C35.9514,94.7356 37.5704,94.8116 39.3994,94.9016 C37.4464,94.6956 35.4254,94.5196 33.5034,94.3566 C33.2214,94.4696 32.3554,94.6426 34.4574,94.7936" id="Fill-47" fill="#FFFFFF"></path>
                    <path d="M27.1752,93.9967 C27.2792,94.0007 27.4122,94.0067 27.5102,94.0107 C27.3102,93.9527 27.1472,93.9207 27.1752,93.9967" id="Fill-49" fill="#FFFFFF"></path>
                    <path d="M57.3744,95.4762 C57.2754,95.4492 57.1874,95.4232 57.0874,95.3952 C57.0634,95.4202 57.0484,95.4442 57.0194,95.4682 L57.3744,95.4762 Z" id="Fill-51" fill="#FFFFFF"></path>
                    <path d="M33.1815,94.2516 C31.7175,94.0596 30.8315,94.0586 29.9805,94.1156 C31.0825,94.1906 32.2505,94.2716 33.5035,94.3566 C33.6305,94.3066 33.6565,94.2686 33.1815,94.2516" id="Fill-53" fill="#FFFFFF"></path>
                    <path d="M45.3422,95.6198 C44.5782,95.4968 43.7112,95.3958 42.8002,95.2778 C43.5442,95.4558 45.0662,95.7178 45.3422,95.6198" id="Fill-55" fill="#FFFFFF"></path>
                    <path d="M27.9984,94.1823 C27.9234,94.1803 27.8544,94.1783 27.7734,94.1763 C28.2514,94.3213 28.1954,94.2703 27.9984,94.1823" id="Fill-57" fill="#FFFFFF"></path>
                    <path d="M27.9984,94.1823 C28.7724,94.2073 29.3714,94.1493 29.9804,94.1163 C29.0824,94.0663 28.2474,94.0313 27.5104,94.0103 C27.6904,94.0603 27.8704,94.1253 27.9984,94.1823" id="Fill-59" fill="#FFFFFF"></path>
                    <path d="M62.8138,92.7673 C62.5568,93.1633 58.7068,93.5213 55.3928,93.0463 C52.1228,93.2883 54.2298,94.6353 57.0868,95.3953 C57.1898,95.2203 57.1938,95.0733 60.5648,94.8573 C59.3858,94.6453 53.0948,94.2733 55.9408,93.9513 C60.4018,93.8013 59.5928,94.1213 61.7608,94.3493 C59.9218,93.8543 67.4318,93.6383 66.4588,92.9083 L62.5558,93.1633 C62.4828,93.0493 63.8978,92.8713 62.8138,92.7673" id="Fill-61" fill="#FFFFFF"></path>
                    <path d="M50.6542,95.2448 L49.2622,95.2538 C50.8462,95.3738 51.9762,95.5478 54.0612,95.9008 C56.3782,95.7428 56.8582,95.5968 57.0192,95.4688 L50.1762,95.2898 L50.6542,95.2448 Z" id="Fill-63" fill="#FFFFFF"></path>
                    <path d="M43.015,95.027 C44.123,94.648 47.463,94.59 45.439,94.046 C41.368,93.914 42.571,94.272 40.125,94.344 C46.712,94.576 38.22,94.487 42.967,94.975 C41.668,94.98 40.501,94.948 39.4,94.902 C40.584,95.022 41.726,95.141 42.801,95.278 C42.742,95.263 42.7,95.255 42.651,95.243 L42.62,95.243 L42.626,95.236 C42.345,95.168 42.253,95.131 42.572,95.178 C42.594,95.174 42.674,95.176 42.71,95.176 C42.757,95.119 42.882,95.073 43.015,95.029 C44.92,95.2 43.311,95.161 42.71,95.176 C42.687,95.196 42.634,95.214 42.626,95.236 L42.651,95.243 C44.857,95.265 47.061,95.275 49.262,95.254 C47.868,95.158 46.119,95.113 43.015,95.027" id="Fill-65" fill="#FFFFFF"></path>
                    <path d="M11.4086,85.9508 C11.5346,86.1188 11.5086,86.1358 11.4996,86.1698 C11.8626,86.4078 11.9976,86.4958 11.4086,85.9508" id="Fill-67" fill="#FFFFFF"></path>
                    <path d="M13.4359,87.8132 C13.0089,87.5812 12.5329,87.5412 11.3209,86.4772 C10.3799,85.4432 11.4639,86.3292 11.4989,86.1692 C11.1059,85.9002 10.4429,85.3852 10.1569,85.1792 C9.8739,84.9722 9.8419,85.2012 10.8959,86.3212 L11.2939,86.6042 C12.2909,87.5572 13.5339,88.5542 14.5109,89.2442 C15.4829,89.9412 16.1609,90.3472 15.9189,90.2892 C15.3319,89.6002 14.7699,89.0782 13.4359,87.8132" id="Fill-69" fill="#FFFFFF"></path>
                    <path d="M28.1078,92.8542 C29.9428,92.9642 31.7668,93.0852 33.5978,93.1532 C32.6788,92.9602 31.7628,92.7502 30.8488,92.5362 L30.9688,92.7722 C27.8728,92.3912 28.5138,92.7222 28.1078,92.8542" id="Fill-71" fill="#FFFFFF"></path>
                    <polygon id="Fill-73" fill="#FFFFFF" points="57.9999 95.6989 57.2669 96.1449 60.4419 95.5269"></polygon>
                    <polygon id="Fill-75" fill="#FFFFFF" points="65.1244 95.6725 64.8614 96.0685 66.7404 95.8265"></polygon>
                    <path d="M378.4139,25.0925 C378.3279,24.6065 378.1759,24.1485 378.0599,23.6785 C378.2269,24.3475 378.3349,24.7775 378.4139,25.0925" id="Fill-77" fill="#FFFFFF"></path>
                    <path d="M378.3612,36.1667 L378.5322,36.4637 C378.4692,35.9227 378.4052,35.7017 378.3612,36.1667" id="Fill-79" fill="#FFFFFF"></path>
                    <g transform="translate(239.000000, 102.856000)">
                        <mask id="mask-6" fill="white">
                            <use xlink:href="#path-5"></use>
                        </mask>
                        <g id="Clip-82"></g>
                        <path d="M0.162,0.1339 C2.484,0.6129 5.074,1.3089 4.81,0.8509 L4.111,0.3839 C2.473,0.3839 1.222,0.2779 0.162,0.1339" id="Fill-81" fill="#FFFFFF" mask="url(#mask-6)"></path>
                    </g>
                    <path d="M358.5033,97.8044 C358.2773,97.7924 358.0433,97.7814 357.8103,97.7684 C357.2653,97.9884 356.7543,98.2174 356.2943,98.3834 C356.9613,98.2304 357.7123,98.0084 358.5033,97.8044" id="Fill-83" fill="#FFFFFF"></path>
                    <path d="M359.911,95.7966 L362.988,95.6506 C362.291,95.6496 361.301,95.6926 359.911,95.7966" id="Fill-85" fill="#FFFFFF"></path>
                    <path d="M325.9794,10.5895 L324.1044,11.0315 C327.0424,11.0275 325.7484,10.8065 325.9794,10.5895" id="Fill-87" fill="#FFFFFF"></path>
                    <path d="M137.6937,96.8786 C139.6977,97.1446 141.2947,97.2746 142.7007,97.3826 C140.2897,96.9986 138.3517,96.5536 137.6937,96.8786" id="Fill-89" fill="#FFFFFF"></path>
                    <path d="M383.307,29.3024 C383.226,28.2754 383.094,27.8314 383.007,27.8684 C383.132,28.9284 383.196,29.5214 383.307,29.3024" id="Fill-91" fill="#FFFFFF"></path>
                    <path d="M148.5121,97.7077 C148.1581,97.6537 147.8131,97.6017 147.4541,97.5467 C145.9791,97.5357 144.4961,97.5117 142.7011,97.3827 C144.4821,97.6687 146.5251,97.8977 148.5121,97.7077" id="Fill-93" fill="#FFFFFF"></path>
                    <path d="M95.8617,5.7448 C95.6947,5.7288 95.4937,5.7108 95.3407,5.6958 C95.2917,5.7548 95.5227,5.7568 95.8617,5.7448" id="Fill-95" fill="#FFFFFF"></path>
                    <path d="M28.6913,4.4421 C29.3483,4.3551 30.4223,4.2391 31.4393,4.1761 C30.9413,4.1741 30.1113,4.2381 28.6913,4.4421" id="Fill-97" fill="#FFFFFF"></path>
                    <path d="M93.6635,95.862 C92.1625,95.871 93.4245,95.907 93.6635,95.862" id="Fill-99" fill="#FFFFFF"></path>
                    <path d="M86.3651,94.07 C86.6851,94.021 86.9281,93.959 86.9661,93.859 C86.8421,93.964 86.6321,94.03 86.3651,94.07" id="Fill-101" fill="#FFFFFF"></path>
                    <path d="M163.6341,95.8786 C163.6781,95.8826 163.7131,95.8856 163.7641,95.8886 C163.3221,95.7756 163.3981,95.7966 163.6341,95.8786" id="Fill-103" fill="#FFFFFF"></path>
                    <path d="M91.4061,95.6354 C91.9691,95.6964 92.6181,95.7484 93.3241,95.7894 C93.0151,95.7514 92.4321,95.7014 91.4061,95.6354" id="Fill-105" fill="#FFFFFF"></path>
                    <path d="M91.7084,95.8444 C91.1904,95.8214 90.7844,95.8034 90.3964,95.7854 C90.2074,95.8554 90.3754,95.9034 91.7084,95.8444" id="Fill-107" fill="#FFFFFF"></path>
                    <path d="M95.7543,95.8659 C94.8963,95.8619 94.0953,95.8309 93.3243,95.7899 C93.6193,95.8229 93.7423,95.8479 93.6633,95.8619 C94.1033,95.8629 94.7243,95.8639 95.7543,95.8659" id="Fill-109" fill="#FFFFFF"></path>
                    <path d="M219.0882,6.9216 C218.9892,6.9056 218.8762,6.8876 218.7672,6.8696 C217.2432,6.9976 217.9102,6.9916 219.0882,6.9216" id="Fill-111" fill="#FFFFFF"></path>
                    <path d="M278.4711,99.7204 C278.4011,99.7284 278.3631,99.7324 278.2991,99.7394 C278.3691,99.7444 278.4581,99.7524 278.5211,99.7574 L278.4711,99.7204 Z" id="Fill-113" fill="#FFFFFF"></path>
                    <path d="M283.8676,99.4772 C281.5676,99.9832 280.2606,99.8972 278.5206,99.7572 L280.2936,101.0352 L283.8676,99.4772 Z" id="Fill-115" fill="#FFFFFF"></path>
                    <g transform="translate(13.000000, 0.856000)">
                        <mask id="mask-8" fill="white">
                            <use xlink:href="#path-7"></use>
                        </mask>
                        <g id="Clip-118"></g>
                        <path d="M190.1254,2.2687 L191.1124,2.4287 C188.8704,2.4917 189.5004,2.3867 190.1254,2.2687 M92.0504,94.5507 C91.5384,94.6117 91.5714,94.6787 91.7864,94.7487 C92.1434,94.6247 93.2844,94.6457 94.5834,94.7247 C94.2254,94.5917 93.5704,94.4677 92.0504,94.5507 M97.1264,94.9097 C97.1724,94.9017 97.2054,94.8957 97.2444,94.8887 C99.6854,95.1547 98.8194,95.0527 97.1264,94.9097 M337.1024,96.9287 C337.8974,96.6887 339.1604,96.6417 340.5984,96.6817 C339.5744,96.8247 338.4064,96.9227 337.1024,96.9287 M366.2494,53.3027 C365.7924,52.1827 365.0364,49.8707 365.2514,48.9767 C365.9714,50.2327 365.8614,51.2717 366.2494,53.3027 M348.2364,9.5057 C349.4064,9.7917 350.5434,10.1367 351.6394,10.5287 C349.5254,10.3707 347.7054,10.2337 346.7974,10.2467 C345.8954,10.2497 345.9584,10.3327 347.5664,10.7817 C347.8744,10.1507 351.3554,10.4997 354.4284,11.5767 C355.9354,12.1477 357.3874,12.7917 358.3964,13.4077 C358.9444,13.6657 359.3484,13.9547 359.7064,14.1027 C360.0574,14.2567 360.3314,14.3077 360.4894,14.2167 L361.1434,15.0777 L361.4674,15.4987 L361.7394,15.9597 C361.3904,15.4647 361.2354,15.4747 360.8314,15.0417 C362.0044,16.7197 362.5124,17.2207 363.2734,17.8497 C363.9334,18.5187 364.8994,19.3327 365.5024,22.1557 C365.8374,24.1417 365.7214,25.5837 365.4144,24.2367 C365.7404,25.6887 365.9244,27.2157 366.0404,28.7697 C366.0124,30.1287 365.7794,29.7897 365.8024,28.4467 C365.8574,30.8037 365.7364,33.2127 365.5674,35.6657 L365.5324,35.6077 C365.6594,36.6647 365.7714,39.1007 365.8454,40.3197 C365.5504,42.2417 365.7494,39.3417 365.5604,39.8267 C365.5864,41.2387 365.6284,42.6517 365.7564,44.0667 C365.4284,45.8167 364.9794,42.2497 365.2824,39.3317 C364.4704,41.2617 364.5284,42.1827 364.6754,43.6607 C364.7484,44.4017 364.8594,45.2897 364.9514,46.5417 C365.0704,47.7997 365.1424,49.4167 365.4174,51.6887 C365.0634,50.3067 364.8074,48.9147 364.6394,47.5327 C364.3674,48.9087 364.4284,50.4507 364.7634,52.2617 C365.1034,54.0717 365.6644,56.1657 366.7924,58.6427 C366.6644,58.3377 366.3864,57.5477 366.1044,56.6207 C365.8494,55.6897 365.6084,54.6227 365.5334,53.7537 C365.4174,52.8867 365.4604,52.2207 365.5624,52.0657 C365.6884,51.9097 365.8414,52.2667 366.2754,53.4197 C366.5584,54.7567 367.1104,56.6107 368.8234,58.7837 C368.6354,58.9197 368.9354,59.5497 369.6094,60.4467 C370.3164,61.3117 371.4254,62.4497 372.8384,63.4137 C372.6514,63.5457 372.4644,63.6737 372.2744,63.7957 C373.8774,64.8227 374.6454,65.0177 375.2514,65.2137 C375.8544,65.3727 376.3074,65.4387 377.2244,65.7337 C377.6184,65.9377 377.9774,66.1307 378.2804,66.3057 C378.4334,66.3957 378.5774,66.4807 378.7144,66.5617 C378.8154,66.6257 378.8284,66.6507 378.8814,66.6947 C379.0554,66.8517 379.1324,66.9917 379.1584,67.1097 C379.2034,67.3507 379.0294,67.5227 378.8364,67.6597 C379.1134,67.9307 379.3504,67.8537 379.5014,67.6367 C379.5744,67.5387 379.6194,67.4087 379.7814,67.3927 C379.9354,67.3837 380.2664,67.4657 380.8024,67.9417 C380.8704,68.0467 380.9424,68.1647 380.9874,68.2607 C380.8384,68.3057 380.6934,68.3497 380.5504,68.3927 C380.1864,68.4977 379.8984,68.6447 379.6084,68.7857 L379.1904,69.0437 L378.9764,69.1887 L378.8874,69.2597 L378.5814,69.4647 C376.9324,70.5457 375.2984,71.9027 373.5534,73.7287 C370.8694,76.0197 373.7144,73.0027 372.6774,73.7477 C372.0574,74.6237 371.4294,75.4727 370.8974,76.3877 C370.3904,76.9577 370.4304,76.6717 370.4524,76.5247 C369.6714,77.5967 369.8064,77.7667 369.7724,78.0437 C369.7584,78.3347 369.5824,78.7407 368.5454,80.4887 C368.5544,81.1407 367.2294,82.7427 365.9964,85.0447 C365.6754,85.6147 365.3724,86.2287 365.1104,86.8777 C364.8194,87.5177 364.5794,88.1927 364.3844,88.8807 C364.1644,89.5707 364.0144,90.2697 363.9054,90.8127 C363.8494,91.0677 363.7944,91.3187 363.7404,91.5667 C363.6994,91.7557 363.6694,91.9157 363.6174,92.0947 C363.3504,92.3207 363.3274,92.1687 363.3164,92.0107 C363.3054,91.8427 363.2724,91.6527 363.1304,91.6567 C363.0254,91.9897 362.8094,92.2387 362.5784,92.3937 C362.4514,92.4767 362.3694,92.5277 362.2034,92.5947 C362.0274,92.6637 361.8384,92.7227 361.6464,92.7767 C360.8494,92.9957 360.1234,93.1237 359.5314,93.2737 C358.3014,93.5647 357.2204,93.8567 354.5984,94.5777 L349.9884,94.7947 C353.3974,94.8057 349.2034,95.9627 345.5034,96.9487 C346.7224,97.0137 347.7654,97.0737 348.4604,97.0747 C346.4734,97.4447 344.4954,97.9057 342.4954,98.2017 C341.7554,98.1697 342.3384,97.8907 343.2934,97.5277 C342.8904,97.6237 342.5064,97.7167 342.2074,97.7897 C340.0264,97.7697 341.1034,97.2907 342.6024,96.7827 C343.3504,96.8447 344.0904,96.8827 344.8104,96.9127 C346.2434,96.3207 347.5694,95.7017 347.2144,95.3727 C346.8354,95.4997 346.0964,95.6667 345.2774,95.8167 C345.6504,95.6587 345.8854,95.5307 345.6994,95.4927 C345.4884,95.4537 344.8824,95.6807 343.9244,95.9787 C343.4444,95.8137 342.9604,95.6107 342.4794,95.4227 L342.1804,95.7377 L334.2874,96.0767 C331.5194,96.7487 328.9164,97.3817 325.9214,98.1107 C322.9024,98.7067 319.4564,99.2617 314.9804,99.7017 C317.1734,99.0357 315.4054,98.8187 315.4874,98.1917 C317.9714,98.6677 322.4024,97.5097 327.0354,97.2517 C324.6194,97.4297 325.1224,97.0387 325.7304,96.9137 L317.5114,98.0447 C317.6634,97.5267 315.7304,97.7797 313.5604,97.7097 C315.2514,98.5817 307.4404,98.8427 304.0774,99.1807 C303.8534,98.8407 304.6484,98.5057 308.7594,98.3977 C304.1954,97.8477 302.9484,99.7867 298.4664,99.3087 C299.4714,99.2667 300.0144,99.2997 300.4054,99.1157 C298.0694,99.4947 292.3244,99.4537 293.6674,99.1147 L294.6684,99.0737 C293.0004,99.0817 290.9004,99.1967 288.6684,99.2007 C286.4364,99.2237 284.0754,99.2717 281.8924,99.3477 C277.5244,99.4997 273.8644,99.7677 273.3654,100.1977 C273.2984,100.0877 274.2424,99.1647 274.6464,98.9907 C270.6784,99.9897 266.6944,100.8097 262.7004,101.7277 C263.7594,101.0127 259.7604,99.2137 265.2994,98.8827 C263.7114,98.7557 261.7504,98.6057 258.3964,98.8137 C259.4774,98.9337 261.0794,99.9097 259.5954,99.9547 C255.5434,99.0597 256.7784,99.5267 251.7844,98.6627 C253.4054,98.8727 251.5704,99.9577 249.0014,99.8367 C249.4064,99.6787 248.8204,98.6997 249.7624,98.6117 L243.3344,99.5247 C244.9374,99.3737 243.6474,98.5817 242.2304,98.2157 C242.8854,98.4487 236.7084,98.0357 235.0014,98.0467 L237.6984,98.4187 C230.4924,97.9427 230.5034,99.6717 223.3414,99.2837 C224.2204,99.0917 225.5514,97.9567 221.9194,97.6437 C220.2244,98.1607 214.3864,100.0257 208.0204,100.1037 L206.8224,99.7057 L201.9374,99.8027 C205.0204,99.1107 213.6174,97.7737 218.2874,97.3297 C215.6024,96.9147 217.5564,96.8987 213.5134,96.6987 C212.1034,96.3087 215.7414,96.3567 216.9314,96.4057 L207.5354,95.6707 C207.9164,96.3667 200.3024,95.9337 200.6264,96.5127 L210.8874,96.4007 C211.2654,97.0867 204.8684,97.9827 198.2034,97.4557 C196.5224,97.0817 199.5454,96.3407 199.4194,96.1077 C198.5404,96.2847 193.0634,96.1507 192.4604,95.9487 L195.3124,95.7677 C191.6164,95.2827 189.1984,96.2767 184.7774,95.3547 C183.2414,95.2167 180.2344,94.1977 179.9424,94.5777 C182.4054,95.5047 182.7434,97.9057 181.0324,98.3717 C180.4964,98.2857 172.9924,97.1167 171.2584,96.6237 C168.7614,95.8597 175.1574,95.4397 173.0324,94.7847 C172.9274,94.9617 171.5114,95.0967 170.9234,95.1317 C169.3154,94.8717 171.6294,94.6077 168.1094,94.4627 C167.4794,95.1037 160.9644,93.9447 166.4104,94.9297 C162.9604,94.9027 162.7654,94.5597 158.7244,94.3347 C159.9814,94.8557 155.0044,95.6047 151.5484,95.5827 C151.7624,95.4227 151.0024,95.1497 150.6344,95.0227 C143.5894,94.5147 139.8204,94.0297 133.2444,93.6427 C132.6474,93.4437 129.4844,93.0657 130.8514,92.8487 C129.8984,92.9177 129.0184,93.0887 126.9864,93.0177 C123.0874,92.2457 131.5184,93.1407 128.5594,92.2897 C128.2824,92.6727 123.2794,92.5937 120.3764,92.7087 C121.2374,93.3667 127.0514,93.1197 129.9584,93.0317 C129.9284,93.8567 124.8444,94.5137 117.9584,94.5877 C112.4894,94.5457 115.6144,93.9337 114.6614,94.0107 C104.4054,93.4247 105.8694,95.1767 97.3754,94.2747 C94.0104,93.6307 97.2514,93.2007 96.5124,92.7897 C100.9714,92.7257 103.3384,93.3447 106.3554,93.4177 L102.6484,93.0467 C104.0704,92.9137 107.0494,92.8717 108.6634,93.0787 C105.8434,92.5227 91.3194,92.3677 83.3954,91.9167 C81.9834,92.0797 79.5514,92.2347 80.7004,92.4657 L83.2084,92.4227 C85.5064,92.8857 78.4844,92.9607 81.6544,93.2057 C78.2894,93.4687 74.5254,93.8737 69.7944,93.6577 L68.9034,93.0467 C69.0064,93.2247 71.9984,93.4027 73.3284,93.2197 C71.3574,93.4837 66.0674,92.4057 63.9074,93.2207 L67.2294,93.6287 C63.8544,93.9517 59.6834,94.6307 55.4784,94.4527 C57.3934,95.0517 56.4464,94.3787 59.4364,95.0747 C56.8484,94.2067 70.1724,95.0537 66.0154,94.1507 C69.0764,94.9597 71.3094,94.4717 75.2964,95.1897 C75.1734,94.9857 73.8844,94.7847 77.3964,94.9297 C77.5564,94.8727 77.9304,94.8027 78.1684,94.7617 C78.2764,94.7697 78.3134,94.7727 78.4064,94.7797 C78.3354,94.7697 78.2834,94.7627 78.2124,94.7527 C78.3654,94.7247 78.3784,94.7187 78.1404,94.7447 C77.3044,94.6447 76.6264,94.5297 76.3514,94.4137 C78.0984,93.9717 83.6914,94.0587 85.5854,93.8427 C87.6714,93.9657 84.7094,94.0637 85.8454,94.2937 L88.6764,93.9707 C88.9494,94.4237 94.2024,94.7887 89.2854,94.9887 C90.7594,95.0227 92.2324,95.0207 93.7054,95.0847 C96.3024,95.4177 99.8784,95.6307 102.0914,95.5117 C104.1724,95.6737 107.3754,95.1807 105.5464,95.4747 C107.8614,95.4637 110.1764,95.4127 112.4914,95.4417 L112.5514,95.5567 C119.3884,95.9527 126.6744,95.4037 134.4544,96.6907 C136.7644,96.7067 139.1524,96.7027 142.9994,97.0457 L143.7284,97.4767 C146.6914,97.4927 152.5854,98.4097 153.8814,98.0787 C157.0064,99.3177 168.2214,99.2047 173.4164,99.7337 L173.6464,99.2407 C177.2274,99.4987 180.6684,99.5847 185.1324,99.6597 L184.8874,99.1957 C188.7474,99.0687 194.7294,100.1357 200.8014,100.4677 C200.3774,100.6177 198.8424,100.4727 197.7594,100.3017 C204.9514,101.7517 213.1064,100.4597 219.6464,101.5537 C221.2964,101.4687 222.4824,101.5807 223.6274,101.7467 C223.4744,101.7407 223.3374,101.7427 223.2194,101.7507 C223.3874,101.7597 223.6374,101.7737 223.8934,101.7887 C224.6144,101.8977 225.3584,102.0107 226.1624,102.1337 C225.4794,101.9927 224.8264,101.8727 224.2554,101.8037 C225.5214,101.8537 227.4444,101.8887 229.3314,101.8647 L230.1114,102.3837 C230.2644,102.3857 230.3874,102.3877 230.5474,102.3907 C232.3864,102.6547 232.0424,102.2327 231.0724,101.8247 C232.0234,101.7897 232.8964,101.7357 233.5744,101.6507 C235.0404,102.5127 238.5214,101.6007 240.5394,102.4887 C241.8244,102.1257 250.0214,102.4967 251.0464,101.6787 C251.1084,101.7917 251.6614,101.8627 250.6454,101.8357 C252.7404,102.0047 254.8354,102.1747 256.7254,101.9487 L257.6044,102.5737 L262.2054,101.8177 C264.9844,102.2317 266.1394,102.4657 263.3644,102.8967 C270.0564,102.2477 268.7914,102.7507 274.4764,102.0207 L274.1984,102.4177 C276.2314,102.3877 279.4764,101.8327 280.7024,102.1507 C285.2554,102.9307 303.1894,101.9737 314.8814,101.8347 C312.5464,100.8187 320.3354,102.0047 320.7374,101.0737 C321.4354,101.3047 323.0734,101.3547 321.2014,101.7157 C327.1364,101.1227 330.1784,101.3947 334.2094,100.2617 C334.9164,100.4687 332.9774,100.7907 333.5984,100.8927 C334.0694,100.7867 335.4624,100.4657 336.0974,100.5687 C336.7194,100.6707 335.2514,100.8847 334.3214,101.0987 C340.3934,100.4467 340.9114,99.5397 341.2624,98.7047 C344.3764,98.8087 345.8924,98.4677 348.0324,97.6617 C349.1284,97.7727 350.9404,97.7957 347.2034,98.4107 C349.3144,98.1557 360.1484,96.9967 360.2634,96.3337 C360.6144,96.3617 361.3274,96.2927 362.0834,96.1447 C362.4674,96.0687 362.8714,95.9667 363.2214,95.8447 C363.6104,95.7137 363.9124,95.5657 364.0734,95.4727 C365.5504,94.8217 366.2384,93.6507 366.6164,92.7067 C366.9604,91.8277 367.0954,91.1537 367.2514,90.5407 C367.4144,89.9517 367.5764,89.3647 367.7714,88.6567 C368.0214,87.9657 368.2474,87.1337 368.6924,86.1097 C368.5084,86.4787 368.2914,86.8377 368.1304,87.2187 C368.0714,85.2887 369.3694,83.6357 371.3344,80.5957 L371.3404,80.7277 C372.6664,79.1097 373.5564,78.2157 374.1384,77.5937 C374.7454,76.9957 375.0214,76.6437 375.3264,76.3237 C375.9674,75.7477 376.4544,74.8817 380.0474,72.9247 L379.4094,72.7527 C379.4234,72.5597 379.5894,72.3457 379.8754,72.1137 C380.0184,71.9977 380.1904,71.8757 380.3884,71.7497 C380.6354,71.5857 380.8944,71.4557 381.2094,71.3167 C381.8344,71.0487 382.5294,70.7027 383.4384,70.4117 C384.3354,70.1137 385.3684,69.7547 386.4704,69.4477 C386.6364,69.3257 386.7944,69.1987 386.9434,69.0667 L387.0544,68.9667 C387.0884,68.9327 387.1524,68.9077 387.0764,68.8387 L386.8144,68.4877 C386.4634,68.0017 386.0754,67.5647 385.6684,67.1247 C384.8704,66.2597 383.8964,65.4557 382.7804,64.8567 C383.3394,65.3107 383.8164,65.7737 384.2354,66.2347 C383.5444,65.7697 382.8304,65.2387 381.9954,64.6117 C381.5744,64.2987 381.1264,63.9627 380.6344,63.6157 C380.3644,63.4227 380.1884,63.2857 379.9984,63.1357 L379.4274,62.6837 C377.8924,61.4807 376.5664,60.2367 375.6754,59.5187 C375.3104,59.1617 376.4044,59.8567 377.0894,60.1647 C375.7954,59.2267 375.2764,58.7407 374.9554,58.4847 C374.6384,58.2387 374.5314,58.2817 374.4454,58.3727 C374.3574,58.4617 374.2924,58.6037 374.0304,58.5397 C373.7634,58.4817 373.3234,58.1787 372.5774,57.2957 C372.4644,56.8507 372.8004,56.9477 372.9394,56.8317 C373.0984,56.7017 372.9884,56.4527 372.2924,55.1557 C372.0784,54.4497 370.8614,52.6177 370.1714,49.9527 C369.4304,47.3337 369.1964,44.0767 369.6154,41.7567 C369.3314,42.7707 369.0314,43.8097 368.9134,41.4137 C368.9354,39.5857 369.4414,37.0967 369.7864,34.5737 C370.1444,32.0657 370.2894,29.4977 369.8304,27.7307 C369.8824,27.2287 369.9434,27.0367 370.0074,27.0127 C369.8464,25.5107 369.5484,23.0327 368.8304,20.7677 C368.1564,18.4897 366.9824,16.5427 366.3294,15.8607 C366.3104,15.4597 366.1474,14.8787 365.7924,14.2267 C365.6044,13.9097 365.3784,13.5667 365.1244,13.2047 C364.9934,13.0247 364.8584,12.8387 364.7194,12.6477 C364.5574,12.4767 364.3904,12.2997 364.2194,12.1187 C362.8874,10.6187 360.8554,9.2957 358.8284,8.3987 C356.7974,7.4807 354.7724,6.9367 353.2994,6.5637 C351.8304,6.1477 350.8894,5.8987 350.9764,5.5067 C347.9234,4.9587 344.8724,4.7597 341.8554,4.7107 L342.0964,4.5637 C339.1984,4.4447 337.2594,4.5717 335.7904,4.7227 C334.3364,4.8717 333.3444,5.0717 332.3544,5.2707 C331.0434,5.1887 331.9954,5.0307 332.1024,4.9487 C323.8284,4.7787 323.0134,4.8567 316.0884,5.7327 L315.3624,5.2487 C313.4834,5.5647 303.4064,4.4857 295.2984,5.0747 C295.3774,5.0177 295.5464,4.9217 296.1904,4.8517 C287.0584,5.3877 274.3694,3.2347 270.9954,4.9927 L264.9634,5.3007 C272.7544,5.6177 263.7864,6.0577 266.9864,6.4297 C263.9174,6.4667 259.0724,5.7067 262.8414,5.6997 L263.4294,5.8027 C264.8334,4.8937 253.7514,5.2507 253.9764,4.6157 C238.6414,4.2667 223.7114,3.2577 209.3484,2.7267 L210.9784,3.5127 L205.9684,3.3007 C204.6594,3.0857 204.2234,2.6687 207.7974,2.8217 C205.9314,2.3427 201.7894,2.9627 201.6814,3.1187 C194.6904,2.5817 204.4454,2.3597 202.2984,2.2687 L199.3814,2.2227 L200.0354,2.3307 C197.6624,2.5487 197.4414,2.8577 193.1454,2.6737 C190.4314,2.4347 191.7664,2.1757 190.6964,2.1107 C190.7044,2.0587 190.3444,2.0227 189.0554,2.0337 L182.7414,1.7637 L185.2484,2.4217 C182.4384,2.6167 179.3104,2.2007 182.2034,2.9487 C177.9584,1.7887 158.6544,1.8367 156.0334,1.4817 C152.0994,1.8007 148.2294,1.6737 143.4344,1.5137 C144.6244,1.6567 145.3224,2.3197 141.1874,2.1627 C142.7294,0.8507 133.6244,1.4377 130.2954,0.4117 C133.2744,1.0967 118.5244,0.3627 123.2034,1.3457 C119.7514,1.2107 123.0004,0.8427 120.3834,0.5077 C112.1554,0.9797 102.2634,-0.0303 92.0904,0.2767 C91.9334,0.4537 93.6374,0.7107 91.4594,0.9877 L86.0834,0.1447 C84.0744,0.2477 84.2474,1.1647 80.5694,0.5937 C81.0904,0.7287 81.8664,0.9437 80.5214,1.0227 C70.5584,0.8687 60.3814,1.1487 50.1814,1.7797 L42.5234,2.1537 L38.6924,2.3067 L34.8664,2.5147 C29.7654,2.7687 24.6684,2.9107 19.5844,2.8537 C22.3484,3.0067 20.5264,3.1647 18.4384,3.3207 C19.8034,3.3087 18.4424,3.7547 18.7284,3.9747 C15.8944,3.9537 13.0674,4.0487 10.2324,4.0807 C8.7554,4.8857 1.1884,4.9847 0.3714,5.6967 L3.0304,5.3307 C-0.4416,6.4097 8.1604,6.5097 7.7274,7.5137 C11.6214,6.2967 18.2754,7.7177 24.7014,6.1337 C26.1534,6.2307 23.4964,6.5257 24.2814,6.6947 C25.9034,6.1727 27.8934,5.9517 31.6024,5.8827 L31.1904,6.0127 C33.7854,5.8107 36.0114,5.6657 38.0724,5.5527 C40.1344,5.4567 42.0364,5.4457 43.9764,5.4127 C47.8574,5.3617 51.8984,5.3507 57.7424,5.2247 L56.8604,4.7897 C59.3724,4.7417 59.9054,4.8587 61.0864,4.9567 C62.5164,4.5717 60.7514,4.5757 58.9554,4.6377 C57.1604,4.6997 55.3314,4.7517 56.6294,4.2977 C58.3124,4.6757 62.7404,4.5567 67.0364,4.4857 C71.3324,4.4027 75.4934,4.3377 76.6294,4.8587 C80.4934,4.7707 75.4864,4.3377 79.3494,4.2507 L80.3784,4.5227 L81.3504,4.1227 C83.8864,4.1677 85.1694,4.5307 85.2674,4.7807 C84.6524,4.7547 83.5204,4.8627 82.8614,4.8887 C86.1514,5.2147 92.1264,4.7067 93.2564,4.8127 L89.5414,4.6557 C92.1784,4.5687 94.9614,4.5217 97.8124,4.4907 C100.6634,4.4467 103.5814,4.4487 106.4894,4.4787 C112.3054,4.5097 118.0764,4.4997 123.1804,4.2377 L122.4084,4.0077 C130.2054,3.7187 128.6444,4.3647 137.2004,4.3297 L136.8884,4.3767 C138.6044,4.1867 140.8934,4.1177 143.2334,4.1867 C141.0684,4.4017 147.2854,4.7817 144.4454,5.0077 C152.9034,4.7897 148.6324,4.7717 154.2334,4.0907 L155.5104,4.4967 C157.4214,4.2127 157.5854,4.0397 161.8604,4.0597 C158.3474,4.2837 164.5714,4.6987 160.6344,5.0127 C169.5724,6.0587 173.9714,4.6077 178.0464,5.9147 C182.1954,5.0207 170.3064,5.0947 172.6194,4.9497 C170.6984,4.5517 176.0414,4.2917 178.8524,4.4857 C181.7164,4.6047 183.6784,5.9467 190.8834,6.1747 C190.1674,6.1457 190.1154,6.2217 189.4004,6.1927 C192.0884,6.5467 194.6964,6.0197 197.9894,6.5577 C199.8644,6.0007 202.2824,6.7417 202.8434,5.9687 L196.2284,5.9247 C199.9814,5.8457 203.5264,5.0417 209.6854,5.7007 C209.1984,5.8447 207.3544,5.9927 206.0884,6.0657 C207.8854,6.3617 209.5694,6.0297 211.4334,6.3307 C210.8724,7.1077 203.3944,6.2317 199.3594,6.6967 C201.2844,7.0977 206.9724,6.3837 204.9254,7.1717 C207.8614,6.1827 212.0214,7.5497 216.9304,6.8807 L216.5924,7.3437 C217.3674,7.2947 218.9754,7.1247 220.3964,7.1847 L217.8024,7.7127 C221.7714,7.3207 225.4054,8.4267 229.2054,8.2677 C221.2684,8.0177 227.4424,7.6367 224.0984,7.1787 C233.9064,6.8727 229.6884,8.5987 240.6604,8.7027 C239.1734,8.7257 235.0954,8.2527 237.4234,8.1017 C239.5074,8.2607 242.2584,8.5247 243.5334,8.8117 C250.8004,8.9267 242.4314,8.2897 245.5314,8.0897 C247.9894,8.7367 249.1044,7.9697 252.2934,7.8587 L252.3044,8.3407 C260.5774,8.8367 254.5244,7.3857 261.9694,7.9267 L258.8034,8.5257 L262.6934,8.4397 L261.8804,8.9707 C266.1174,8.6587 267.4314,8.7937 271.5724,9.0407 C270.6154,8.6817 272.1294,8.1837 275.7984,8.2077 C278.2964,8.5257 274.3904,8.6487 279.5924,8.6447 C278.4144,8.9317 277.1204,9.2947 274.8644,8.8227 C274.6294,8.9767 273.7014,9.1107 273.4594,9.2627 C276.1494,9.6257 280.2334,9.4227 282.1174,9.4417 C281.3924,9.4147 280.5254,9.3777 280.0824,9.3037 L287.6304,8.7297 C288.8164,8.9257 287.8734,9.0587 286.9384,9.1897 C288.4674,9.1577 289.5254,8.9487 291.7714,8.9347 C291.1874,9.3197 291.3244,9.7267 288.1424,9.8717 C290.5394,9.7477 292.9354,9.6617 295.3334,9.4997 C295.8124,9.6697 299.0214,9.9657 298.0874,10.1117 C302.0764,10.3387 307.8674,9.3447 313.1524,9.6467 C313.4264,9.5667 313.9774,9.5047 315.1004,9.4317 C320.0674,9.4387 324.4794,9.8457 330.3574,9.2097 L333.7144,9.8577 C338.3164,9.6207 329.1854,9.0507 336.8274,8.6517 C342.1654,8.3717 338.8224,9.2287 340.6774,9.4257 C341.9904,9.2507 343.7784,9.0527 345.8364,9.0567 C347.8814,9.0797 350.2024,9.3687 352.3624,10.2287 C351.6074,10.0847 350.9384,9.9567 350.2794,9.8307 C349.6244,9.6847 348.9604,9.5837 348.2364,9.5057" id="Fill-117" fill="#FFFFFF" mask="url(#mask-8)"></path>
                    </g>
                    <path d="M359.7177,96.0339 C360.0347,96.0719 360.1317,96.1489 360.2147,96.2289 C360.6317,96.0899 360.6287,95.9949 359.7177,96.0339" id="Fill-119" fill="#FFFFFF"></path>
                    <path d="M326.326,10.5075 L326.153,10.5025 C326.058,10.5305 326.007,10.5605 325.979,10.5895 L326.326,10.5075 Z" id="Fill-121" fill="#FFFFFF"></path>
                    <path d="M184.0296,95.2614 C185.0716,95.3984 185.6496,95.5244 186.0316,95.6404 C186.0966,95.5264 185.6276,95.3964 184.0296,95.2614" id="Fill-123" fill="#FFFFFF"></path>
                    <path d="M78.118,96.026 L81.377,95.885 C79.802,95.914 79.237,95.814 78.441,95.74 C78.514,95.852 79.138,96.012 78.118,96.026" id="Fill-125" fill="#FFFFFF"></path>
                    <path d="M49.7831,92.9186 C49.3051,92.9636 48.7721,92.8956 48.3001,92.9416 L48.4241,93.1696 C50.4561,93.2136 51.8801,93.0746 49.7831,92.9186" id="Fill-127" fill="#FFFFFF"></path>
                    <path d="M75.0897,94.4382 C74.8287,94.0342 72.7827,94.1832 70.4967,94.2692 C70.6337,94.2682 70.7637,94.2682 70.9007,94.2672 C70.2287,94.8372 72.6667,94.6402 75.0897,94.4382" id="Fill-129" fill="#FFFFFF"></path>
                    <path d="M69.9662,94.2848 C69.2612,94.3078 68.5412,94.3198 67.8512,94.3028 C67.5842,94.5298 68.7092,94.3488 69.9662,94.2848" id="Fill-131" fill="#FFFFFF"></path>
                    <path d="M98.601,95.5934 C97.522,95.4744 97.915,96.1034 97.306,95.9294 C96.092,96.4304 104.521,95.3984 98.601,95.5934" id="Fill-133" fill="#FFFFFF"></path>
                    <polygon id="Fill-135" fill="#FFFFFF" points="73.2318 93.112 74.0538 93.608 75.3328 93.197"></polygon>
                    <path d="M91.2772,93.4762 L87.6272,93.2922 C87.6822,93.3762 87.2182,93.4252 86.6482,93.4632 C88.8982,93.4802 91.3622,93.6322 91.2772,93.4762" id="Fill-137" fill="#FFFFFF"></path>
                    <path d="M86.6483,93.4635 C85.4773,93.4535 84.3623,93.4625 83.7103,93.5465 C84.3443,93.5395 85.7083,93.5255 86.6483,93.4635" id="Fill-139" fill="#FFFFFF"></path>
                    <polygon id="Fill-141" fill="#FFFFFF" points="78.224 92.9342 79.304 93.0342 81.883 93.0602"></polygon>
                    <path d="M130.5033,94.6383 L134.4903,94.6773 C134.9043,94.5243 133.8243,94.3693 132.3383,94.3693 C131.3803,94.4463 129.9003,94.4443 130.5033,94.6383" id="Fill-143" fill="#FFFFFF"></path>
                    <path d="M118.5101,92.7897 C119.5851,92.9277 119.6541,93.0417 120.2551,93.2257 L120.3991,92.6087 L118.5101,92.7897 Z" id="Fill-145" fill="#FFFFFF"></path>
                    <path d="M130.14,93.1032 C130.544,92.9492 135.947,92.8742 130.892,92.6812 C130.48,92.8332 126.483,92.7932 130.14,93.1032" id="Fill-147" fill="#FFFFFF"></path>
                    <polygon id="Fill-149" fill="#FFFFFF" points="190.0707 97.3591 189.0587 97.3011 189.1377 98.3281"></polygon>
                    <path d="M243.0228,97.9733 C238.3248,97.5083 241.8758,98.5483 237.6328,98.0443 C236.5158,98.2333 241.1008,98.4553 239.9568,98.6113 C242.8128,98.4913 244.2988,98.7043 243.0228,97.9733" id="Fill-151" fill="#FFFFFF"></path>
                    <path d="M239.9569,98.611 C239.4989,98.63 239.0149,98.655 238.4979,98.697 C239.3249,98.673 239.7149,98.642 239.9569,98.611" id="Fill-153" fill="#FFFFFF"></path>
                    <polygon id="Fill-155" fill="#FFFFFF" points="17.5321 4.9508 14.4761 5.0278 16.4691 5.1818"></polygon>
                    <path d="M11.7875,6.2546 L11.0045,5.6776 L9.2465,6.4346 C9.9285,6.3406 11.2515,6.1586 11.7875,6.2546" id="Fill-157" fill="#FFFFFF"></path>
                    <path d="M383.0052,63.3053 L383.3262,63.3883 C383.1622,63.1363 382.9352,62.8503 382.6252,62.4453 C382.3062,62.0463 381.8622,61.5633 381.3862,60.8413 C381.8262,61.7053 382.4072,62.5073 383.0052,63.3053" id="Fill-159" fill="#FFFFFF"></path>
                    <path d="M377.0707,21.9294 C377.1297,22.1204 377.1937,22.3094 377.2327,22.5124 C377.3337,22.0884 377.3787,21.6814 377.4507,21.2444 L377.0707,21.9294 Z" id="Fill-161" fill="#FFFFFF"></path>
                    <path d="M351.0726,11.1169 C352.4426,11.1289 354.0456,10.9989 355.3926,11.0739 C352.4626,11.0959 350.6886,10.3999 351.0726,11.1169" id="Fill-163" fill="#FFFFFF"></path>
                    <path d="M64.9623,37.4216 L63.3753,37.4216 L63.3753,44.2736 C63.3753,45.4686 63.1703,46.0976 62.4953,46.4746 C61.8353,46.8516 60.8443,46.9296 59.5243,46.9296 C59.4453,46.2846 59.1313,45.2326 58.8173,44.5566 C59.6183,44.6036 60.4673,44.6036 60.7503,44.6036 C61.0173,44.6036 61.1113,44.5256 61.1113,44.2576 L61.1113,37.4216 L57.1673,37.4216 L57.1673,35.2356 L61.1113,35.2356 L61.1113,32.1096 L63.3753,32.1096 L63.3753,35.2356 L64.9623,35.2356 L64.9623,37.4216 Z M58.8173,43.2046 C58.5813,42.1516 57.7953,40.5486 57.0093,39.3386 L58.8333,38.4426 C59.6503,39.5896 60.5143,41.1146 60.8133,42.1986 L58.8173,43.2046 Z M57.0253,34.1056 C56.7113,36.5886 56.1763,38.8196 55.3913,40.7376 C56.0983,41.6806 56.7273,42.5756 57.1353,43.3156 L55.5013,45.0756 C55.1873,44.4786 54.7623,43.7716 54.2593,43.0166 C53.5213,44.2576 52.6403,45.3116 51.6193,46.1916 C51.2573,45.6416 50.5343,44.7926 50.0003,44.4006 C51.0853,43.5816 52.0273,42.3716 52.7823,40.9256 C51.9013,39.7476 50.9593,38.5526 50.1573,37.5156 L51.6033,36.0696 C52.2483,36.8556 53.0023,37.7516 53.7403,38.6626 C54.0863,37.7206 54.3543,36.7146 54.5423,35.6926 L50.2203,35.6926 L50.2203,33.6966 L55.1703,33.6966 L55.5483,33.6176 L57.0253,34.1056 Z" id="Fill-165" fill="#000000"></path>
                    <path d="M79.202,35.6608 C80.444,37.8918 81.717,40.7538 82.11,42.7648 L79.595,43.7558 C79.296,41.8218 78.149,38.8358 76.954,36.4938 L79.202,35.6608 Z M75.697,32.2978 L75.697,44.2418 C75.697,45.5618 75.414,46.1758 74.613,46.5528 C73.796,46.9138 72.648,46.9928 71.092,46.9758 C70.967,46.3168 70.542,45.2318 70.181,44.6028 C71.155,44.6668 72.349,44.6668 72.696,44.6508 C73.057,44.6508 73.182,44.5408 73.182,44.2258 L73.182,32.2978 L75.697,32.2978 Z M71.674,36.2898 C71.139,38.6948 70.306,41.6808 69.049,43.4258 C68.483,43.0158 67.431,42.4818 66.802,42.2298 C67.996,40.6588 68.766,37.8768 69.065,35.8488 L71.674,36.2898 Z" id="Fill-167" fill="#000000"></path>
                    <mask id="mask-10" fill="white">
                        <use xlink:href="#path-9"></use>
                    </mask>
                    <g id="Clip-170"></g>
                    <path d="M87.438,43.708 L94.966,43.708 L94.966,41.193 L87.438,41.193 L87.438,43.708 Z M87.437,38.929 L94.965,38.929 L94.965,36.556 L87.437,36.556 L87.437,38.929 Z M97.402,34.247 L97.402,46.976 L94.966,46.976 L94.966,46.018 L87.437,46.018 L87.437,46.976 L85.127,46.976 L85.127,34.247 L89.135,34.247 C89.37,33.507 89.575,32.691 89.669,32.015 L92.703,32.377 C92.42,33.037 92.121,33.681 91.838,34.247 L97.402,34.247 Z" id="Fill-169" fill="#000000" mask="url(#mask-10)"></path>
                    <path d="M109.3314,35.8649 L109.3314,38.8829 L111.6574,38.8829 L110.3524,38.4589 C110.7614,37.7359 111.2174,36.7149 111.4994,35.8649 L109.3314,35.8649 Z M104.8364,35.8649 C105.3394,36.6509 105.7944,37.6099 105.9674,38.3019 L104.4904,38.8829 L106.8944,38.8829 L106.8944,35.8649 L104.8364,35.8649 Z M110.6514,41.0679 C111.9404,42.5289 113.7794,43.8489 115.6494,44.6189 C115.1304,45.0759 114.3924,45.9699 114.0464,46.5529 C112.2864,45.6569 110.6514,44.2729 109.3314,42.6549 L109.3314,46.9929 L106.8944,46.9929 L106.8944,42.6549 C105.5434,44.2579 103.8774,45.6249 102.1174,46.5209 C101.7554,45.9549 101.0174,45.0599 100.4984,44.6029 C102.3844,43.8179 104.2544,42.5129 105.5754,41.0679 L100.9854,41.0679 L100.9854,38.8829 L103.7044,38.8829 C103.5314,38.1599 103.0914,37.1699 102.6514,36.4159 L104.1134,35.8649 L101.7244,35.8649 L101.7244,33.6809 L106.8944,33.6809 L106.8944,32.0619 L109.3314,32.0619 L109.3314,33.6809 L114.6124,33.6809 L114.6124,35.8649 L112.3954,35.8649 L113.9834,36.3209 C113.4644,37.2799 112.9304,38.2069 112.4904,38.8829 L115.2094,38.8829 L115.2094,41.0679 L110.6514,41.0679 Z" id="Fill-171" fill="#000000" mask="url(#mask-10)"></path>
                    <path d="M125.095,38.804 L129.024,38.804 L129.024,37.185 L125.095,37.185 L125.095,38.804 Z M130.187,44.73 C130.36,44.73 130.423,44.509 130.454,42.953 C130.879,43.315 131.837,43.692 132.434,43.834 C132.23,46.175 131.68,46.836 130.438,46.836 L129.558,46.836 C127.924,46.836 127.594,46.144 127.594,44.195 L127.594,40.8 L126.745,40.8 C126.541,43.55 125.928,45.688 122.894,46.993 C122.643,46.459 122.061,45.641 121.575,45.232 C123.995,44.289 124.309,42.765 124.451,40.8 L122.894,40.8 L122.894,35.189 L124.529,35.189 C124.278,34.482 123.806,33.618 123.335,32.926 L125.284,32.109 C125.896,32.911 126.541,33.979 126.777,34.75 L125.739,35.189 L127.499,35.189 C127.94,34.309 128.411,33.084 128.662,32.125 L131.114,32.816 C130.722,33.649 130.297,34.482 129.92,35.189 L131.334,35.189 L131.334,40.8 L129.841,40.8 L129.841,44.164 C129.841,44.682 129.857,44.73 129.998,44.73 L130.187,44.73 Z M120.663,36.4 C120.16,35.645 119.013,34.451 118.164,33.618 L119.688,32.251 C120.537,33.006 121.747,34.105 122.297,34.843 L120.663,36.4 Z M123.02,41.131 C123.178,41.806 123.555,42.797 123.806,43.267 C120.427,45.97 119.767,46.537 119.437,46.993 C119.233,46.412 118.604,45.342 118.18,44.855 C118.651,44.572 119.327,43.849 119.327,43.095 L119.327,39.103 L117.598,39.103 L117.598,36.871 L121.653,36.871 L121.653,42.199 L123.02,41.131 Z" id="Fill-172" fill="#000000" mask="url(#mask-10)"></path>
                    <path d="M136.4588,44.7926 C135.5948,44.7926 134.7768,44.2106 134.7768,43.2206 C134.7768,42.2616 135.5628,41.6486 136.5218,41.6486 C137.7638,41.6486 138.4238,42.5606 138.4238,44.0066 C138.4238,45.8296 137.2128,47.3696 135.0918,47.9506 L134.5098,46.4426 C135.7208,46.1126 136.4428,45.4686 136.5688,44.7926 L136.4588,44.7926 Z" id="Fill-173" fill="#000000" mask="url(#mask-10)"></path>
                    <path d="M147.195,40.941 L149.568,40.941 L149.568,39.025 L147.195,39.025 L147.195,40.941 Z M147.195,43.111 L147.195,44.289 L144.979,44.289 L144.979,36.855 L151.831,36.855 L151.831,43.111 L147.195,43.111 Z M157.976,35.41 L156.216,35.41 L156.216,44.242 C156.216,45.531 155.917,46.191 155.084,46.552 C154.22,46.945 153.041,46.993 151.391,46.993 C151.265,46.317 150.794,45.185 150.432,44.572 C151.485,44.651 152.915,44.635 153.293,44.635 C153.67,44.635 153.811,44.525 153.811,44.195 L153.811,35.41 L143.611,35.41 L143.611,33.099 L157.976,33.099 L157.976,35.41 Z" id="Fill-174" fill="#000000" mask="url(#mask-10)"></path>
                    <path d="M173.222,32.7536 C173.112,38.5056 173.112,41.9316 173.662,41.9316 C173.787,41.9316 173.898,41.1616 173.929,40.3136 C174.259,40.8946 174.762,41.6496 175.171,42.0586 C174.951,43.5196 174.557,44.2886 173.489,44.2886 C171.147,44.2886 170.943,40.5796 170.927,34.7966 L164.908,34.7966 L164.908,32.7536 L173.222,32.7536 Z M166.715,39.8256 L164.719,39.8256 L164.719,37.7986 L166.715,37.7986 L166.715,35.0796 L168.9,35.0796 L168.9,37.7986 L170.817,37.7986 L170.817,39.8256 L168.9,39.8256 L168.9,44.2736 L166.715,44.2736 L166.715,39.8256 Z M162.676,36.4936 C162.252,35.7246 161.183,34.5766 160.303,33.7746 L162.016,32.5326 C162.911,33.2566 164.028,34.3096 164.531,35.0956 L162.676,36.4936 Z M164.373,43.3306 C164.735,43.4726 165.112,43.8026 165.709,44.1486 C166.7,44.7616 168.067,44.8396 169.685,44.8396 C171.132,44.8396 173.599,44.6976 175.108,44.4466 C174.872,45.0606 174.511,46.1916 174.495,46.7886 C173.363,46.8666 171.163,46.9606 169.623,46.9606 C167.737,46.9606 166.527,46.7416 165.458,46.1446 C164.798,45.7516 164.295,45.2946 163.949,45.2946 C163.368,45.2946 162.487,46.2696 161.67,47.2596 L160.161,45.2636 C160.805,44.6826 161.513,44.1796 162.189,43.8176 L162.189,40.2656 L160.287,40.2656 L160.287,38.1596 L164.373,38.1596 L164.373,43.3306 Z" id="Fill-175" fill="#000000" mask="url(#mask-10)"></path>
                    <path d="M187.603,38.506 L188.892,38.506 L188.892,37.5 L187.603,37.5 L187.603,38.506 Z M184.114,38.506 L185.387,38.506 L185.387,37.5 L184.114,37.5 L184.114,38.506 Z M185.387,35.174 L181.694,35.174 L181.694,33.288 L185.387,33.288 L185.387,32.093 L187.603,32.093 L187.603,33.288 L191.532,33.288 L191.532,35.174 L187.603,35.174 L187.603,35.787 L191.108,35.787 L191.108,40.203 L188.452,40.203 C189.662,40.832 190.919,41.618 191.626,42.261 L190.259,43.818 C189.693,43.252 188.656,42.513 187.603,41.869 L187.603,44.195 L185.387,44.195 L185.387,41.822 C184.601,42.75 183.642,43.535 182.621,44.054 C182.307,43.535 181.646,42.734 181.175,42.325 C182.385,41.869 183.595,41.084 184.381,40.203 L182.024,40.203 L182.024,35.787 L185.387,35.787 L185.387,35.174 Z M179.556,36.463 C179.1,35.709 178,34.577 177.151,33.775 L178.865,32.517 C179.713,33.257 180.861,34.309 181.395,35.049 L179.556,36.463 Z M181.112,43.504 C181.426,43.661 181.788,43.881 182.291,44.101 C183.375,44.603 184.884,44.714 186.55,44.714 C188.027,44.714 190.479,44.572 192.004,44.337 C191.768,44.918 191.438,45.955 191.406,46.552 C190.416,46.631 188.027,46.725 186.472,46.725 C184.57,46.725 183.186,46.537 181.961,45.97 C181.175,45.609 180.64,45.201 180.232,45.201 C179.682,45.201 178.88,46.175 178.236,47.024 L176.853,45.044 C177.513,44.431 178.251,43.927 178.928,43.613 L178.928,39.841 L177.136,39.841 L177.136,37.736 L181.112,37.736 L181.112,43.504 Z" id="Fill-176" fill="#000000" mask="url(#mask-10)"></path>
                    <path d="M208.7572,35.488 L206.4002,35.488 L206.4002,44.148 C206.4002,45.389 206.1322,46.066 205.3312,46.459 C204.5292,46.867 203.4452,46.914 201.9842,46.914 C201.8732,46.207 201.4332,45.06 201.0722,44.416 C201.9522,44.494 203.1472,44.478 203.4762,44.478 C203.7912,44.478 203.9172,44.384 203.9172,44.101 L203.9172,35.488 L200.1922,35.488 L200.1922,33.193 L208.7572,33.193 L208.7572,35.488 Z M200.1452,40.769 C199.5312,40.925 198.9192,41.084 198.2902,41.24 L198.2902,44.494 C198.2902,45.562 198.1012,46.129 197.4882,46.474 C196.8762,46.836 196.0582,46.898 194.8952,46.898 C194.8322,46.301 194.5342,45.342 194.2512,44.746 C194.8012,44.777 195.4612,44.777 195.6652,44.777 C195.8852,44.777 195.9642,44.698 195.9642,44.478 L195.9642,41.806 L194.5342,42.152 L193.9372,39.873 C194.5182,39.763 195.2102,39.622 195.9642,39.465 L195.9642,37.123 L194.1102,37.123 L194.1102,34.969 L195.9642,34.969 L195.9642,32.078 L198.2902,32.078 L198.2902,34.969 L199.8462,34.969 L199.8462,37.123 L198.2902,37.123 L198.2902,38.946 L199.8612,38.584 L200.1452,40.769 Z" id="Fill-177" fill="#000000" mask="url(#mask-10)"></path>
                    <path d="M221.457,40.329 L222.824,40.329 L222.824,39.748 L221.457,39.748 L221.457,40.329 Z M221.457,38.191 L222.824,38.191 L222.824,37.641 L221.457,37.641 L221.457,38.191 Z M218.895,34.23 C219.367,34.404 219.901,34.608 220.42,34.828 C220.702,34.639 220.985,34.435 221.252,34.23 L218.895,34.23 Z M218.094,40.329 L219.43,40.329 L219.43,39.748 L218.094,39.748 L218.094,40.329 Z M218.094,38.191 L219.43,38.191 L219.43,37.641 L218.094,37.641 L218.094,38.191 Z M218.094,44.164 L215.956,44.164 L215.956,36.023 L218.769,36.023 C218.172,35.756 217.575,35.488 217.04,35.284 L218.329,34.23 L216.176,34.23 L216.176,32.533 L223.154,32.533 L223.594,32.424 L224.93,33.507 C224.176,34.23 223.233,35.002 222.258,35.645 C222.494,35.771 222.714,35.881 222.903,35.991 L222.871,36.023 L224.993,36.023 L224.993,42.277 C224.993,43.158 224.851,43.613 224.286,43.912 C223.751,44.211 223.044,44.226 222.164,44.226 C222.085,43.676 221.85,42.937 221.614,42.451 C221.975,42.466 222.463,42.466 222.604,42.466 C222.777,42.466 222.824,42.404 222.824,42.246 L222.824,41.947 L221.457,41.947 L221.457,44.101 L219.43,44.101 L219.43,41.947 L218.094,41.947 L218.094,44.164 Z M213.661,36.699 C213.08,35.96 211.791,34.812 210.864,33.996 L212.404,32.612 C213.316,33.336 214.667,34.42 215.296,35.127 L213.661,36.699 Z M214.777,43.645 C214.982,43.787 215.217,43.943 215.5,44.101 C216.506,44.698 217.952,44.777 219.649,44.777 C221.268,44.777 224.035,44.619 225.684,44.368 C225.449,44.933 225.119,45.97 225.087,46.537 C223.799,46.615 221.252,46.71 219.571,46.71 C217.606,46.71 216.333,46.537 215.249,45.939 C214.604,45.578 214.117,45.123 213.787,45.123 C213.316,45.123 212.561,46.097 211.949,46.993 L210.581,45.044 C211.225,44.431 211.932,43.912 212.593,43.597 L212.593,40.265 L210.738,40.265 L210.738,38.16 L214.777,38.16 L214.777,43.645 Z" id="Fill-178" fill="#000000" mask="url(#mask-10)"></path>
                    <path d="M238.6981,40.7536 L238.6981,44.3206 L242.2341,44.3206 L242.2341,46.5056 L232.9611,46.5056 L232.9611,44.3206 L236.3721,44.3206 L236.3721,40.7536 L232.3011,40.7536 L232.3011,38.5526 L236.3721,38.5526 L236.3721,35.4416 C235.3661,35.5986 234.3441,35.7246 233.3861,35.8176 C233.3071,35.3476 233.0551,34.6396 232.8361,34.1206 C232.5371,34.7496 232.2221,35.3946 231.8771,36.0236 L231.8771,46.9766 L229.6141,46.9766 L229.6141,39.4016 C229.2991,39.7946 228.9691,40.1556 228.6391,40.4856 C228.4191,39.9196 227.7281,38.6316 227.3191,38.0506 C228.8281,36.6506 230.2581,34.4036 231.0911,32.1556 L233.3541,32.8786 C233.2281,33.1926 233.1031,33.5076 232.9611,33.8216 C235.6641,33.4916 238.5251,32.9106 240.4581,32.2026 L242.1241,34.1366 C241.0711,34.4826 239.9081,34.7806 238.6981,35.0176 L238.6981,38.5526 L242.3601,38.5526 L242.3601,40.7536 L238.6981,40.7536 Z" id="Fill-179" fill="#000000" mask="url(#mask-10)"></path>
                    <path d="M254.1478,34.4196 C254.3988,34.8746 254.7298,35.3156 255.1058,35.7086 C255.4208,35.3156 255.7038,34.8746 255.9238,34.4196 L254.1478,34.4196 Z M248.5528,44.9966 L255.1378,44.9966 L255.1378,44.5716 L248.5528,44.5716 L248.5528,44.9966 Z M248.5528,43.3306 L255.1378,43.3306 L255.1378,42.9216 L248.5528,42.9216 L248.5528,43.3306 Z M248.5528,41.6806 L255.1378,41.6806 L255.1378,41.3036 L248.5528,41.3036 L248.5528,41.6806 Z M246.4158,39.7166 L257.3858,39.7166 L257.3858,46.9606 L255.1378,46.9606 L255.1378,46.5836 L248.5528,46.5836 L248.5528,46.9606 L246.4158,46.9606 L246.4158,39.7166 Z M258.5018,33.0836 C258.1238,34.6546 257.4958,35.9116 256.6778,36.9346 C257.4008,37.3746 258.2178,37.7046 259.1298,37.9406 C258.6738,38.3486 258.0618,39.1816 257.7778,39.7166 C256.8038,39.4016 255.9398,38.9456 255.1848,38.3806 C254.4778,38.9136 253.6918,39.3546 252.8118,39.7006 C252.6548,39.4016 252.3718,38.9776 252.1048,38.6156 L250.6898,39.1966 C250.5178,38.6316 250.0458,37.7356 249.6218,37.0756 L251.0208,36.5246 L249.5588,36.5246 L249.5588,39.5116 L247.4678,39.5116 L247.4678,36.5246 L245.8808,36.5246 L247.4208,36.9176 C247.0758,37.8606 246.5098,38.8986 245.9748,39.5426 C245.6288,39.2596 244.9068,38.8196 244.4818,38.6006 C244.9848,38.0506 245.4248,37.2646 245.6768,36.5246 L244.6868,36.5246 L244.6868,34.7806 L247.2488,34.7806 L247.2488,32.0626 L249.4328,32.0626 L249.4328,32.6596 L251.6328,32.6596 L251.6328,34.1676 L249.4328,34.1676 L249.4328,34.7806 L252.0578,34.7806 L252.0578,36.5246 L251.2718,36.5246 C251.5698,36.9496 251.8998,37.4836 252.1208,37.9406 C252.7018,37.7046 253.2518,37.3906 253.7388,37.0286 C253.1418,36.3206 252.6388,35.5036 252.2148,34.6076 L252.8748,34.4196 L252.0888,34.4196 L252.0888,32.6756 L256.8198,32.6756 L257.1808,32.6116 L258.5018,33.0836 Z" id="Fill-180" fill="#000000" mask="url(#mask-10)"></path>
                    <path d="M262.996,36.73 L274.469,36.73 L274.469,34.199 L262.996,34.199 L262.996,36.73 Z M261.692,45.845 L275.774,45.845 L275.774,43.204 L261.692,43.204 L261.692,45.845 Z" id="Fill-181" fill="#000000" mask="url(#mask-10)"></path>
                    <path d="M293.204,37.5944 C292.198,38.4114 291.318,39.3544 290.563,39.9674 C291.239,41.5074 292.135,42.8744 293.283,43.7554 C292.78,44.1634 292.041,44.9964 291.68,45.5934 C290.893,44.8554 290.265,43.8654 289.73,42.7344 L289.73,44.5874 C289.73,45.6094 289.558,46.2224 288.945,46.5834 C288.316,46.9454 287.515,46.9924 286.367,46.9924 C286.305,46.3794 286.021,45.3734 285.739,44.7924 C286.336,44.8234 287.059,44.8234 287.279,44.8234 C287.499,44.8084 287.578,44.7454 287.578,44.5404 L287.578,37.0134 L284.89,37.0134 L284.89,34.8434 L289.023,34.8434 C287.908,34.5294 286.572,34.1834 285.566,33.9634 L286.399,32.1874 C287.892,32.4234 290.281,32.9734 291.491,33.3514 L290.642,35.3474 C290.391,35.2524 290.077,35.1574 289.73,35.0484 L289.73,37.5624 C289.762,37.7044 289.809,37.8614 289.856,38.0024 C290.344,37.3744 290.847,36.6664 291.161,36.0854 L293.204,37.5944 Z M280.804,36.1484 L281.794,36.1484 L281.794,34.6714 L280.804,34.6714 L280.804,36.1484 Z M281.794,39.7474 L281.794,38.2064 L280.804,38.2064 L280.804,38.3964 C280.804,38.8204 280.804,39.2764 280.788,39.7474 L281.794,39.7474 Z M287.53,38.0974 C287.232,41.3654 286.446,44.0224 284.78,45.5774 C284.591,45.2004 284.214,44.6664 283.852,44.2264 L283.852,44.6184 C283.852,45.5464 283.727,46.1754 283.208,46.5364 C282.689,46.8984 282.045,46.9604 281.118,46.9604 C281.086,46.3794 280.835,45.3734 280.568,44.8084 C280.961,44.8394 281.416,44.8234 281.589,44.8234 C281.746,44.8234 281.794,44.7614 281.794,44.5874 L281.794,41.8534 L280.694,41.8534 C280.568,43.7244 280.285,45.6574 279.704,47.0724 C279.31,46.7414 278.414,46.2534 277.912,46.0664 C278.776,43.9114 278.823,40.7224 278.823,38.4114 L278.823,32.6124 L283.852,32.6124 L283.852,43.2994 C284.513,42.4664 284.969,41.2244 285.236,39.9044 L284.12,39.9044 L284.12,37.8144 L285.849,37.8144 L286.21,37.7674 L287.53,38.0974 Z" id="Fill-182" fill="#000000" mask="url(#mask-10)"></path>
                    <path d="M297.0868,44.7926 C296.2228,44.7926 295.4048,44.2106 295.4048,43.2206 C295.4048,42.2616 296.1908,41.6486 297.1498,41.6486 C298.3918,41.6486 299.0518,42.5606 299.0518,44.0066 C299.0518,45.8296 297.8408,47.3696 295.7198,47.9506 L295.1378,46.4426 C296.3488,46.1126 297.0708,45.4686 297.1968,44.7926 L297.0868,44.7926 Z" id="Fill-183" fill="#000000" mask="url(#mask-10)"></path>
                    <path d="M317.1112,35.4723 C316.7342,34.9533 315.9482,34.0893 315.3192,33.4763 L316.8122,32.4393 C317.4722,32.9903 318.2422,33.7433 318.6512,34.2303 L317.1112,35.4723 Z M313.1662,40.4393 C313.4962,41.0683 313.9052,41.6643 314.3922,42.1993 C314.8952,41.6643 315.3352,41.0833 315.6812,40.4393 L313.1662,40.4393 Z M307.7592,42.7813 C309.6462,41.6183 310.9032,39.9043 311.7202,37.7043 L311.1542,37.7043 C310.4312,37.7043 309.6462,37.7983 309.5042,37.9553 C309.3792,37.5313 309.0482,36.6353 308.8282,36.1013 L308.8282,37.0443 L307.7592,37.0443 L307.7592,38.9293 L308.9232,38.6473 L309.2052,40.6743 C308.7342,40.8163 308.2472,40.9413 307.7592,41.0833 L307.7592,42.7813 Z M318.5572,38.9933 C318.0232,40.8783 317.1582,42.4193 316.0272,43.6603 C316.9232,44.2883 317.9602,44.7773 319.1232,45.1223 C318.6202,45.5773 317.9442,46.4903 317.6142,47.1033 C316.3572,46.6303 315.2722,45.9873 314.3292,45.1853 C313.2292,45.9873 311.9562,46.5993 310.5572,47.0723 C310.3062,46.4903 309.7562,45.5463 309.3162,45.0763 C310.6202,44.7453 311.7992,44.2103 312.8042,43.5353 C312.4752,43.1113 312.1762,42.6393 311.9092,42.1523 C311.1702,43.1423 310.3062,43.9913 309.2682,44.6983 C308.9862,44.2573 308.2472,43.4093 307.7592,42.9373 L307.7592,44.4003 C307.7592,45.4523 307.6022,46.0813 307.0372,46.4583 C306.4712,46.8513 305.7012,46.9453 304.6322,46.9453 C304.5852,46.3173 304.3022,45.2943 304.0192,44.6353 C304.5062,44.6513 305.0412,44.6513 305.2292,44.6513 C305.4182,44.6513 305.4812,44.5873 305.4812,44.3833 L305.4812,41.6963 L304.1602,42.0583 L303.8152,39.8413 C304.3022,39.7473 304.8682,39.6213 305.4812,39.4803 L305.4812,37.0443 L304.0822,37.0443 L304.0822,34.9533 L305.4812,34.9533 L305.4812,32.0933 L307.7592,32.0933 L307.7592,34.9533 L308.8282,34.9533 L308.8282,36.0703 C309.0482,35.9753 309.2532,35.7403 309.4102,35.4103 C309.5672,35.0793 310.0232,33.8533 310.1952,32.6433 L312.3492,33.0683 C312.1762,33.9483 311.8302,34.9223 311.4692,35.7403 L312.3332,35.7403 C312.6002,34.6233 312.8042,33.4293 312.9462,32.1243 L315.2252,32.3763 C315.0682,33.5713 314.8792,34.6873 314.6432,35.7403 L318.6672,35.7403 L318.6512,37.7043 L314.1092,37.7043 C314.0302,37.9713 313.9362,38.2223 313.8422,38.4743 L316.7342,38.4743 L317.1112,38.3963 L318.5572,38.9933 Z" id="Fill-184" fill="#000000" mask="url(#mask-10)"></path>
                    <path d="M322.911,35.347 L333.818,35.347 L333.818,32.99 L322.911,32.99 L322.911,35.347 Z M328.286,39.748 C327.453,41.131 326.463,42.451 325.504,43.566 L330.848,43.299 C330.424,42.671 330.015,42.043 329.622,41.476 L331.744,40.377 C333.033,42.105 334.494,44.305 335.296,45.783 L333.048,47.15 C332.828,46.678 332.545,46.113 332.2,45.515 C324.671,46.049 323.414,46.113 322.455,46.459 C322.314,45.939 321.874,44.635 321.559,43.912 C322.062,43.771 322.377,43.472 322.895,42.906 C323.288,42.498 324.2,41.24 325.017,39.748 L321.072,39.748 L321.072,37.375 L335.437,37.375 L335.437,39.748 L328.286,39.748 Z" id="Fill-185" fill="#000000" mask="url(#mask-10)"></path>
                    <path d="M341.8651,41.8844 L339.4761,41.8844 L339.4761,32.7064 L350.7291,32.7064 L350.7291,41.8844 L348.2151,41.8844 L348.2151,35.0324 L341.8651,35.0324 L341.8651,41.8844 Z M349.6601,44.4154 C350.2891,44.4154 350.3991,44.1484 350.4781,42.2144 C350.9491,42.5754 351.9391,42.9374 352.5361,43.0794 C352.2851,45.8144 351.6881,46.5054 349.8491,46.5054 L347.6331,46.5054 C345.5431,46.5054 344.8981,45.8924 344.8981,43.8334 L344.8981,43.0954 C343.9241,44.8394 342.1791,46.1754 338.9731,47.0554 C338.7381,46.4434 338.1401,45.5464 337.6531,45.0604 C343.6411,43.5974 343.6101,40.7064 343.7511,36.0544 L346.1871,36.0544 C346.1241,37.7364 346.0461,39.2594 345.7791,40.6124 L347.1461,40.6124 L347.1461,43.8024 C347.1461,44.3524 347.2561,44.4154 347.9321,44.4154 L349.6601,44.4154 Z" id="Fill-186" fill="#000000" mask="url(#mask-10)"></path>
                    <path d="M54.26,68.282 L60.782,68.282 L60.782,65.217 L54.26,65.217 L54.26,68.282 Z M54.26,62.955 L60.782,62.955 L60.782,60.078 L54.26,60.078 L54.26,62.955 Z M63.249,57.767 L63.249,71.631 L60.782,71.631 L60.782,70.592 L54.26,70.592 L54.26,71.631 L51.902,71.631 L51.902,57.767 L63.249,57.767 Z" id="Fill-187" fill="#000000" mask="url(#mask-10)"></path>
                    <path d="M67.9296,69.6022 C67.0656,69.6022 66.2476,69.0212 66.2476,68.0312 C66.2476,67.0722 67.0336,66.4582 67.9926,66.4582 C69.2346,66.4582 69.8946,67.3712 69.8946,68.8162 C69.8946,70.6402 68.6836,72.1792 66.5626,72.7612 L65.9806,71.2522 C67.1916,70.9222 67.9136,70.2782 68.0396,69.6022 L67.9296,69.6022 Z" id="Fill-188" fill="#000000" mask="url(#mask-10)"></path>
                    <path d="M80.9877,65.5319 C81.4277,66.1919 81.9627,66.7889 82.6067,67.3079 C83.2197,66.7889 83.7377,66.1919 84.1627,65.5319 L80.9877,65.5319 Z M87.4947,63.9759 C86.8817,65.8929 85.9067,67.4019 84.6657,68.5809 C85.8287,69.1149 87.1957,69.5079 88.7677,69.7439 C88.2797,70.2309 87.6517,71.2059 87.3377,71.8339 C85.4667,71.4719 83.9267,70.8909 82.6377,70.0739 C81.3337,70.8439 79.8247,71.4099 78.1587,71.8339 C77.9077,71.2209 77.3887,70.3099 76.9487,69.8059 C78.3317,69.5399 79.6207,69.1149 80.7367,68.5339 C80.2487,68.0469 79.8247,67.4959 79.4317,66.8989 C78.3477,68.4239 76.9647,69.6659 75.1257,70.6249 C74.8267,70.1209 74.0097,69.1779 73.4597,68.7539 C76.2097,67.3859 77.8757,65.1539 78.8817,62.2479 L76.9017,62.2479 C76.1467,62.2479 75.3927,62.3879 75.2667,62.6559 C75.1257,62.1839 74.7637,61.1779 74.5287,60.6289 C74.7797,60.5339 75.0307,60.3139 75.2517,59.9529 C75.4557,59.6229 76.0527,58.4119 76.3827,57.1549 L78.7717,57.5159 C78.5207,58.3649 78.1277,59.2929 77.7187,60.0779 L79.5107,60.0779 C79.7457,59.0249 79.9197,57.9259 80.0607,56.7459 L82.6227,57.1709 C82.4967,58.1919 82.3397,59.1509 82.1347,60.0779 L85.4047,60.0779 C85.0267,59.5119 84.2567,58.5699 83.7067,57.8939 L85.4827,56.8409 C86.0487,57.4689 86.8977,58.3809 87.3057,58.9469 L85.5137,60.0779 L88.2487,60.0779 L88.2337,62.2479 L81.6007,62.2479 C81.4907,62.6249 81.3807,62.9859 81.2547,63.3319 L85.4667,63.3319 L85.8917,63.2369 L87.4947,63.9759 Z" id="Fill-189" fill="#000000" mask="url(#mask-10)"></path>
                    <path d="M97.785,65.9411 L95.632,65.9411 L95.632,57.5641 L103.632,57.5641 L103.632,65.9411 L101.368,65.9411 L101.368,59.5121 L97.785,59.5121 L97.785,65.9411 Z M102.154,69.9321 C102.5,69.9321 102.595,69.4611 102.641,67.5111 C103.144,67.9051 103.868,68.2041 104.386,68.3301 C104.213,70.7811 103.899,71.5671 102.154,71.5671 L101.164,71.5671 C99.734,71.5671 99.168,71.1421 99.168,69.6341 L99.168,68.4081 C98.382,69.7121 97.219,70.9221 95.506,71.8491 C95.239,71.4101 94.5,70.5611 94.076,70.2311 C98.131,68.1091 98.539,64.8871 98.539,62.4661 L98.539,60.2831 L100.645,60.2831 L100.645,62.5141 C100.645,63.5671 100.535,64.7771 100.19,66.0191 L101.259,66.0191 L101.259,69.3821 C101.259,69.7911 101.368,69.9321 101.636,69.9321 L102.154,69.9321 Z M95.443,68.8001 C93.447,69.3361 91.279,69.8851 89.581,70.3261 L89.157,68.1561 C89.785,68.0311 90.524,67.8741 91.326,67.6851 L91.326,64.3061 L89.738,64.3061 L89.738,62.2151 L91.326,62.2151 L91.326,59.8111 L89.502,59.8111 L89.502,57.7051 L95.239,57.7051 L95.239,59.8111 L93.526,59.8111 L93.526,62.2151 L94.909,62.2151 L94.909,64.3061 L93.526,64.3061 L93.526,67.1501 C94.076,67.0251 94.626,66.8831 95.16,66.7421 L95.443,68.8001 Z" id="Fill-190" fill="#000000" mask="url(#mask-10)"></path>
                    <path d="M113.1522,65.7673 C113.5762,66.4433 114.1272,67.0403 114.7872,67.5753 C115.3842,67.0563 115.8872,66.4583 116.2962,65.7673 L113.1522,65.7673 Z M113.9852,59.4643 C113.9062,61.0053 113.3402,62.6243 111.2502,63.5673 C110.9832,63.1263 110.1662,62.2313 109.7572,61.9013 C111.6742,61.1303 111.8632,60.0783 111.8632,59.0403 L111.8632,57.3593 L117.8672,57.3593 L117.8672,60.6913 C117.8672,61.1473 117.8992,61.3513 118.1182,61.3513 L118.7782,61.3513 C119.0462,61.3513 119.4702,61.3043 119.7062,61.2253 C119.7372,61.7903 119.7842,62.5783 119.8632,63.0953 C119.5962,63.2213 119.1722,63.2373 118.8102,63.2373 L117.8992,63.2373 C116.0752,63.2373 115.7142,62.4513 115.7142,60.6603 L115.7142,59.4643 L113.9852,59.4643 Z M119.2032,64.1483 C118.6692,66.0973 117.8042,67.5903 116.6412,68.7223 C117.6472,69.2093 118.8102,69.5713 120.0992,69.7903 C119.6272,70.2783 119.0142,71.2053 118.7322,71.8183 C117.1912,71.4563 115.8712,70.9073 114.7242,70.1833 C113.4662,70.9073 112.0052,71.4103 110.3702,71.7713 C110.1662,71.1893 109.7102,70.2783 109.3332,69.7903 C110.6852,69.5863 111.9102,69.2413 112.9642,68.7223 C112.2252,67.9683 111.5962,67.0873 111.0622,66.0813 L111.9892,65.7673 L110.6372,65.7673 L110.6372,63.6463 L117.4432,63.6463 L117.8042,63.5673 L119.2032,64.1483 Z M108.5782,61.0213 C108.0752,60.2983 106.9282,59.1823 106.0642,58.4123 L107.5262,57.0293 C108.3742,57.7203 109.5842,58.7573 110.1342,59.4493 L108.5782,61.0213 Z M110.1822,66.1283 C110.3702,66.7423 110.7632,67.6073 111.0462,68.0313 C108.0602,70.7183 107.4782,71.2373 107.1802,71.6623 C107.0072,71.1113 106.4412,70.1523 106.0642,69.7283 C106.4412,69.4453 106.8502,68.8643 106.8502,68.1093 L106.8502,63.8663 L105.1522,63.8663 L105.1522,61.6813 L109.0502,61.6813 L109.0502,67.1503 L110.1822,66.1283 Z" id="Fill-191" fill="#000000" mask="url(#mask-10)"></path>
                    <path d="M135.6703,64.0856 L132.2443,64.0856 L132.2443,71.8176 L129.7763,71.8176 L129.7763,64.0856 L126.1143,64.0856 L126.1143,61.6966 L129.7763,61.6966 L129.7763,56.9666 L132.2443,56.9666 L132.2443,61.6966 L135.6703,61.6966 L135.6703,64.0856 Z M124.6533,60.9426 C124.1183,60.2516 122.9083,59.1976 122.0123,58.4586 L123.4593,56.9816 C124.3383,57.6426 125.6113,58.6166 126.1933,59.2926 L124.6533,60.9426 Z M126.8533,66.3966 C126.9793,67.0566 127.3253,68.0466 127.5613,68.5176 C124.2603,70.9386 123.6153,71.4566 123.2853,71.8816 C123.1123,71.2836 122.5633,70.2316 122.1853,69.7436 C122.5943,69.4766 123.0973,68.9106 123.0973,68.1886 L123.0973,63.9446 L120.9283,63.9446 L120.9283,61.6816 L125.4393,61.6816 L125.4393,67.4016 L126.8533,66.3966 Z" id="Fill-192" fill="#000000" mask="url(#mask-10)"></path>
                    <path d="M146.448,68.062 L148.617,68.062 L148.617,60.613 L146.448,60.613 L146.448,68.062 Z M150.88,58.459 L150.88,71.127 L148.617,71.127 L148.617,70.215 L146.448,70.215 L146.448,71.379 L144.295,71.379 L144.295,58.459 L150.88,58.459 Z M140.099,62.043 C139.894,62.986 139.675,63.897 139.454,64.746 C139.879,65.107 140.319,65.484 140.759,65.862 C141.199,64.777 141.497,63.505 141.655,62.043 L140.099,62.043 Z M143.996,60.093 C143.839,63.206 143.384,65.579 142.535,67.402 C143.085,67.905 143.572,68.377 143.933,68.769 L142.456,70.703 C142.142,70.326 141.733,69.885 141.262,69.414 C140.366,70.482 139.219,71.268 137.788,71.882 C137.506,71.3 136.955,70.451 136.5,69.996 C137.804,69.571 138.826,68.847 139.627,67.858 C138.747,67.025 137.836,66.208 137.097,65.484 L137.065,65.468 L137.065,65.453 L137.081,65.437 C137.38,64.494 137.679,63.3 137.946,62.043 L136.657,62.043 L136.657,59.953 L138.339,59.953 C138.495,58.947 138.621,57.925 138.7,56.982 L140.932,57.124 C140.822,58.035 140.681,58.994 140.507,59.953 L142.205,59.953 L142.598,59.906 L143.996,60.093 Z" id="Fill-193" fill="#000000" mask="url(#mask-10)"></path>
                    <path d="M164.597,69.3669 C165.022,69.3669 165.1,68.8319 165.179,66.8839 C165.729,67.2929 166.672,67.7169 167.316,67.8739 C167.096,70.5129 166.514,71.5979 164.833,71.5979 L163.167,71.5979 C161.281,71.5979 160.746,70.8439 160.746,68.3299 L160.746,56.8879 L163.12,56.8879 L163.12,61.9009 C163.906,61.3669 164.644,60.7849 165.226,60.2669 L167.034,62.1689 C165.823,62.9709 164.424,63.6929 163.12,64.2909 L163.12,68.3609 C163.12,69.2569 163.167,69.3669 163.576,69.3669 L164.597,69.3669 Z M160.149,68.1249 L160.322,70.3729 C157.666,70.8909 154.759,71.3939 152.621,71.8029 L152.26,69.3979 C152.605,69.3509 152.967,69.3049 153.36,69.2409 L153.36,60.2039 L155.576,60.2039 L155.576,68.9109 L156.377,68.7689 L156.377,56.8879 L158.735,56.8879 L158.735,61.4449 L160.306,61.4449 L160.306,63.6309 L158.735,63.6309 L158.735,68.3769 L160.149,68.1249 Z" id="Fill-194" fill="#000000" mask="url(#mask-10)"></path>
                    <path d="M179.3202,61.2419 C179.1152,60.7689 178.7702,60.1879 178.4242,59.6539 L178.0002,59.6539 C177.6542,60.2669 177.2772,60.8009 176.9002,61.2419 L179.3202,61.2419 Z M174.0702,67.9049 L176.6952,67.9049 L176.6952,67.4329 L174.0702,67.4329 L174.0702,67.9049 Z M174.0702,65.9249 L176.6952,65.9249 L176.6952,65.4849 L174.0702,65.4849 L174.0702,65.9249 Z M174.0702,69.5549 L174.0702,70.1999 L172.0112,70.1999 L172.0112,63.8349 L178.8332,63.8349 L178.8332,69.5549 L174.0702,69.5549 Z M171.1632,63.8029 C171.1162,63.7089 171.0532,63.5989 170.9902,63.4879 L170.9902,71.8029 L168.7582,71.8029 L168.7582,63.3789 L170.9272,63.3789 C170.6132,62.8909 170.1262,62.3099 169.7012,61.8699 L171.3992,60.7689 C171.9652,61.3039 172.6722,62.0579 172.9702,62.6089 L171.1632,63.8029 Z M182.6522,59.6539 L180.8602,59.6539 C181.0642,59.9839 181.2532,60.3139 181.3632,60.5819 L179.9482,61.2419 L182.1332,61.2419 L182.1332,69.5229 C182.1332,70.6079 181.8662,71.1269 181.1122,71.4409 C180.3572,71.7399 179.3202,71.7559 177.8742,71.7559 C177.7642,71.1889 177.4492,70.3419 177.1512,69.8219 C177.9842,69.8699 179.1782,69.8699 179.4612,69.8529 C179.7762,69.8529 179.8852,69.7749 179.8852,69.5079 L179.8852,63.2539 L173.1592,63.2539 L173.1592,61.2419 L176.7272,61.2419 C176.2712,60.8799 175.4532,60.3609 174.9662,60.0939 C175.1082,59.9689 175.2492,59.8109 175.3912,59.6539 L173.7402,59.6539 C173.9452,60.0309 174.1332,60.3919 174.2432,60.6909 L172.2952,61.5239 C172.1532,61.0369 171.7922,60.2989 171.4302,59.6539 L171.1632,59.6539 C170.7072,60.3609 170.1892,60.9899 169.7172,61.4609 C169.2772,61.0989 168.3812,60.5179 167.8622,60.2359 C168.8682,59.4179 169.7962,58.0659 170.3142,56.7619 L172.4362,57.3439 C172.3732,57.5009 172.2952,57.6579 172.2162,57.8149 L175.4222,57.8149 L175.4222,59.6069 C176.0672,58.8369 176.5852,57.8149 176.8842,56.8089 L179.0212,57.3279 C178.9742,57.4849 178.9112,57.6579 178.8482,57.8149 L182.6522,57.8149 L182.6522,59.6539 Z" id="Fill-195" fill="#000000" mask="url(#mask-10)"></path>
                    <path d="M192.251,64.558 L194.734,64.558 L194.734,63.835 L192.251,63.835 L192.251,64.558 Z M192.251,62.121 L194.734,62.121 L194.734,61.398 L192.251,61.398 L192.251,62.121 Z M187.52,64.558 L189.893,64.558 L189.893,63.835 L187.52,63.835 L187.52,64.558 Z M187.52,62.121 L189.893,62.121 L189.893,61.398 L187.52,61.398 L187.52,62.121 Z M198.302,69.304 L192.251,69.304 L192.251,71.756 L189.893,71.756 L189.893,69.304 L183.937,69.304 L183.937,67.198 L189.893,67.198 L189.893,66.412 L185.288,66.412 L185.288,59.56 L187.63,59.56 C187.316,58.994 186.876,58.349 186.467,57.831 L188.448,56.951 C189.029,57.611 189.736,58.554 190.051,59.214 L189.296,59.56 L192.471,59.56 C192.958,58.805 193.446,57.815 193.728,57.029 L196.29,57.752 C195.882,58.396 195.457,59.009 195.064,59.56 L197.092,59.56 L197.092,66.412 L192.251,66.412 L192.251,67.198 L198.302,67.198 L198.302,69.304 Z" id="Fill-196" fill="#000000" mask="url(#mask-10)"></path>
                    <path d="M203.4535,69.0212 C203.4535,68.2982 202.8715,67.7162 202.1485,67.7162 C201.4415,67.7162 200.8445,68.2982 200.8445,69.0212 C200.8445,69.7442 201.4415,70.3262 202.1485,70.3262 C202.8715,70.3262 203.4535,69.7442 203.4535,69.0212 M204.7735,69.0212 C204.7735,70.4662 203.6105,71.6462 202.1485,71.6462 C200.7035,71.6462 199.5245,70.4662 199.5245,69.0212 C199.5245,67.5752 200.7035,66.3962 202.1485,66.3962 C203.6105,66.3962 204.7735,67.5752 204.7735,69.0212" id="Fill-197" fill="#000000" mask="url(#mask-10)"></path>
                    <polygon id="Fill-198" fill="#000000" mask="url(#mask-10)" points="352.956 81.226 357.706 81.226 357.706 71.463 352.956 71.463"></polygon>
                    <polygon id="Fill-199" fill="#000000" mask="url(#mask-10)" points="350.001 77.664 356.201 77.664 356.201 71.464 350.001 71.464"></polygon>
                    <polygon id="Fill-200" fill="#000000" mask="url(#mask-10)" points="362.34 81.226 367.09 81.226 367.09 71.463 362.34 71.463"></polygon>
                    <polygon id="Fill-201" fill="#000000" mask="url(#mask-10)" points="359.385 77.664 365.585 77.664 365.585 71.464 359.385 71.464"></polygon>
                    <polygon id="Fill-202" fill="#000000" mask="url(#mask-10)" points="39.11 27.168 43.86 27.168 43.86 17.404 39.11 17.404"></polygon>
                    <polygon id="Fill-203" fill="#000000" mask="url(#mask-10)" points="40.615 27.167 46.815 27.167 46.815 20.967 40.615 20.967"></polygon>
                    <polygon id="Fill-204" fill="#000000" mask="url(#mask-10)" points="29.725 27.168 34.475 27.168 34.475 17.404 29.725 17.404"></polygon>
                    <polygon id="Fill-205" fill="#000000" mask="url(#mask-10)" points="31.23 27.167 37.43 27.167 37.43 20.967 31.23 20.967"></polygon>
                </g>
            </g>
        </g>
    </g>
</svg>