<?xml version="1.0" encoding="UTF-8"?>
<svg width="402px" height="104px" viewBox="0 0 402 104" version="1.1" xmlns="http://www.w3.org/2000/svg" xmlns:xlink="http://www.w3.org/1999/xlink">
    <title>编组</title>
    <defs>
        <polygon id="path-1" points="0.3511 0.167617147 5.0873132 0.167617147 5.0873132 1 0.3511 1"></polygon>
        <polygon id="path-3" points="0.0223 0.4584 393.636 0.4584 393.636 98.4316308 0.0223 98.4316308"></polygon>
        <polygon id="path-5" points="0 0.4722 2.436 0.4722 2.436 1.4962 0 1.4962"></polygon>
        <polygon id="path-7" points="0 99.5424 397.636 99.5424 397.636 1.0004 0 1.0004"></polygon>
    </defs>
    <g id="页面-1" stroke="none" stroke-width="1" fill="none" fill-rule="evenodd">
        <g id="斗西宝典-首页" transform="translate(-1042.000000, -379.000000)">
            <g id="编组-27" transform="translate(1042.000000, 379.000000)">
                <g id="编组" transform="translate(1.000000, 1.000000)">
                    <path d="M0.4263,31.7415 C9.5103,29.4695 20.4013,25.2505 21.4493,15.9455 C21.7693,13.1135 21.2593,9.6885 23.5003,7.9285 C24.7323,6.9595 26.4173,6.8755 27.9843,6.8325 C146.3693,3.5795 264.9403,0.3305 383.1523,7.5255 C385.9863,7.6985 389.0223,7.9525 391.2253,9.7435 C394.2893,12.2325 394.6393,16.7015 394.7323,20.6475 C395.1873,40.1615 395.2843,59.6835 395.0223,79.2005 C394.9903,81.5615 394.9253,84.0335 393.7803,86.0985 C391.5233,90.1715 386.1643,91.0755 381.5283,91.5015 C357.3343,93.7215 333.0713,95.1785 308.7843,95.8695 C268.4143,97.0185 228.0183,96.0535 187.6433,95.0875 C135.3403,93.8355 83.0383,92.5835 30.7363,91.3315 C28.2523,91.2725 25.5863,91.1515 23.6093,89.6485 C20.7513,87.4775 20.4433,83.3725 20.3813,79.7855 C20.1873,68.3135 19.9923,56.8435 19.7983,45.3725 C19.7803,44.3065 19.6973,43.0995 18.8743,42.4235 C18.0523,41.7475 7.9253,31.8665 0.9543,32.0365" id="Fill-1" fill="#FFFFFF"></path>
                    <path d="M1.7749,34.5228 C0.8089,34.4288 1.1629,34.8598 1.0249,34.9268 C2.5209,34.9408 1.7729,34.4058 1.7749,34.5228" id="Fill-3" fill="#FFFFFF"></path>
                    <path d="M18.2915,44.7855 C18.2295,44.7155 18.1645,44.6395 18.0995,44.5745 L18.1745,44.8065 L18.2435,45.1605 L18.3635,45.9675 L18.6015,47.6235 L18.4525,46.1645 C18.3995,45.6785 18.3595,45.1735 18.2915,44.7855" id="Fill-5" fill="#FFFFFF"></path>
                    <path d="M18.6528,65.7689 C19.3328,63.7659 18.4078,58.1389 18.5978,54.3819 L18.7508,53.7609 L18.1478,52.0779 C18.3158,56.6369 18.7978,62.5539 18.6528,65.7689" id="Fill-7" fill="#FFFFFF"></path>
                    <path d="M17.2993,77.0257 C17.5653,76.3287 17.5793,79.4507 17.3423,74.4057 C17.3083,74.6587 17.2993,74.7327 17.2793,74.8807 C17.2913,75.3357 17.3013,75.9617 17.2993,77.0257" id="Fill-9" fill="#FFFFFF"></path>
                    <path d="M17.2798,74.8812 C17.2218,72.6632 17.0708,76.3362 17.2798,74.8812" id="Fill-11" fill="#FFFFFF"></path>
                    <path d="M18.1167,85.6966 C17.7647,84.5646 17.5467,83.4556 17.3827,82.3826 C17.3197,82.7216 17.3567,83.6356 17.4227,84.3526 C17.4987,85.0746 17.5547,85.5736 17.3897,85.0086 C17.7997,86.8006 18.2517,87.5526 18.3147,87.5196 C18.4087,87.4986 18.2207,86.7346 18.1167,85.6966" id="Fill-13" fill="#FFFFFF"></path>
                    <path d="M19.8335,88.7738 C19.4875,88.2148 19.1825,87.6378 18.9485,87.0608 C18.9995,87.3868 19.1245,87.8938 19.8335,88.7738" id="Fill-15" fill="#FFFFFF"></path>
                    <path d="M17.9224,83.4173 C18.1284,84.6013 18.4394,85.8323 18.9484,87.0613 C18.8894,86.5213 19.0744,86.4263 18.3864,85.3673 C18.6724,85.6263 18.2484,84.9313 17.9224,83.4173" id="Fill-17" fill="#FFFFFF"></path>
                    <path d="M17.8755,81.4222 C17.9605,79.6592 18.0455,77.5812 18.3415,80.5342 C18.2365,77.6952 18.0725,76.5392 17.9485,76.7362 C17.8885,76.8412 17.8395,77.2942 17.8175,78.0702 C17.8035,78.8542 17.7855,79.9162 17.8755,81.4222" id="Fill-19" fill="#FFFFFF"></path>
                    <path d="M19.4097,66.8323 L19.5807,64.6373 L19.3097,62.7463 C19.4447,63.6903 19.1877,66.9723 19.4097,66.8323" id="Fill-21" fill="#FFFFFF"></path>
                    <path d="M35.9526,94.6868 C36.1396,94.5398 34.9796,94.2578 34.7666,94.0588 L32.6046,94.1818 C33.7116,94.3118 35.8116,94.4578 35.9526,94.6868" id="Fill-23" fill="#FFFFFF"></path>
                    <path d="M34.7671,94.0589 L38.0011,93.8749 C35.1191,93.7759 34.5881,93.8869 34.7671,94.0589" id="Fill-25" fill="#FFFFFF"></path>
                    <path d="M20.855,88.9202 C19.508,87.2002 18.885,85.1782 18.483,83.2882 C18.702,84.4252 19.007,85.5892 19.499,86.7322 C19.99,87.8682 20.666,89.0062 21.632,89.9082 C21.347,89.5982 21.082,89.2662 20.855,88.9202" id="Fill-27" fill="#FFFFFF"></path>
                    <polygon id="Fill-29" fill="#FFFFFF" points="48.2837 95.0003 46.4447 95.3093 49.7177 94.8553"></polygon>
                    <path d="M56.4644,95.1351 C55.1034,95.3941 58.3094,95.6721 56.8724,95.8171 C59.0964,95.8191 60.9984,95.6141 62.7124,95.4301 C60.8944,95.5121 58.9604,95.4331 56.4644,95.1351" id="Fill-31" fill="#FFFFFF"></path>
                    <path d="M65.5884,95.1712 C64.6804,95.2192 63.7374,95.3212 62.7124,95.4302 C63.6784,95.3852 64.6294,95.3122 65.5884,95.1712" id="Fill-33" fill="#FFFFFF"></path>
                    <path d="M43.4995,94.0823 C43.7475,94.1803 44.2225,94.4323 46.0305,94.5763 L44.7705,94.1193 C44.3835,94.1073 43.9445,94.0953 43.4995,94.0823" id="Fill-35" fill="#FFFFFF"></path>
                    <path d="M44.7261,94.1048 L44.7711,94.1198 C46.1491,94.1648 47.1041,94.1958 47.5141,94.2088 C47.1621,94.1958 46.3231,94.1648 44.7261,94.1048" id="Fill-37" fill="#FFFFFF"></path>
                    <path d="M43.1792,94.0726 C43.2972,94.0766 43.3842,94.0786 43.4992,94.0826 C43.3782,94.0376 43.3052,94.0216 43.1792,94.0726" id="Fill-39" fill="#FFFFFF"></path>
                    <path d="M29.5015,93.2259 C31.4805,93.0539 35.3865,92.8759 31.5845,92.4259 C30.1995,92.6809 32.4405,92.9559 29.5015,93.2259" id="Fill-41" fill="#FFFFFF"></path>
                    <path d="M41.6157,93.5013 L38.1887,93.3213 C38.2537,93.4363 38.8677,93.6143 37.9257,93.7113 L41.6157,93.5013 Z" id="Fill-43" fill="#FFFFFF"></path>
                    <polygon id="Fill-45" fill="#FFFFFF" points="43.2983 93.4056 41.6153 93.5016 42.8863 93.5676"></polygon>
                    <path d="M59.7241,94.6302 C61.2091,94.4802 62.8301,94.5032 64.6611,94.5172 C62.7021,94.3862 60.6741,94.2922 58.7481,94.2472 C58.4731,94.3742 57.6211,94.5952 59.7241,94.6302" id="Fill-47" fill="#FFFFFF"></path>
                    <path d="M52.437,94.3372 C52.54,94.3322 52.67,94.3252 52.767,94.3202 C52.565,94.2792 52.403,94.2642 52.437,94.3372" id="Fill-49" fill="#FFFFFF"></path>
                    <path d="M82.6812,94.9515 C82.5822,94.9225 82.4952,94.8965 82.3942,94.8665 C82.3702,94.8905 82.3552,94.9145 82.3262,94.9385 L82.6812,94.9515 Z" id="Fill-51" fill="#FFFFFF"></path>
                    <path d="M58.4214,94.1595 C56.9484,94.0415 56.0654,94.1255 55.2214,94.2365 C56.3254,94.2205 57.4944,94.2205 58.7484,94.2475 C58.8724,94.1895 58.8964,94.1495 58.4214,94.1595" id="Fill-53" fill="#FFFFFF"></path>
                    <path d="M70.6206,95.0911 C69.8546,94.9841 68.9856,94.8871 68.0726,94.7951 C68.8196,94.9481 70.3466,95.1961 70.6206,95.0911" id="Fill-55" fill="#FFFFFF"></path>
                    <path d="M53.2612,94.4505 C53.1872,94.4555 53.1192,94.4595 53.0392,94.4645 C53.5212,94.5675 53.4612,94.5215 53.2612,94.4505" id="Fill-57" fill="#FFFFFF"></path>
                    <path d="M53.2612,94.4505 C54.0212,94.4075 54.6202,94.3165 55.2212,94.2365 C54.3232,94.2495 53.4902,94.2745 52.7672,94.3205 C52.9492,94.3555 53.1302,94.4055 53.2612,94.4505" id="Fill-59" fill="#FFFFFF"></path>
                    <path d="M88.2065,92.3392 C87.9365,92.7292 84.0515,93.0022 80.7155,92.4972 C77.4145,92.7162 79.5365,94.0692 82.3945,94.8662 C82.5005,94.6962 82.5045,94.5362 85.8985,94.3842 C84.7185,94.1392 78.3925,93.6982 81.2595,93.4082 C85.7535,93.3122 84.9345,93.6362 87.1115,93.8982 C85.2685,93.3602 92.8405,93.3172 91.8805,92.5682 L87.9365,92.7292 C87.8665,92.6142 89.2985,92.4692 88.2065,92.3392" id="Fill-61" fill="#FFFFFF"></path>
                    <path d="M75.938,94.6712 L74.542,94.6882 C76.13,94.7942 77.265,94.9802 79.353,95.3402 C81.677,95.2022 82.163,95.0672 82.326,94.9392 L75.459,94.7192 L75.938,94.6712 Z" id="Fill-63" fill="#FFFFFF"></path>
                    <path d="M68.2808,94.5394 C69.3808,94.1344 72.7338,94.0314 70.6938,93.5164 C66.6008,93.4474 67.8178,93.8074 65.3688,93.9354 C71.9748,93.9864 63.4658,94.1304 68.2318,94.4884 C66.9318,94.5304 65.7638,94.5254 64.6618,94.5174 C65.8498,94.5984 66.9948,94.6894 68.0728,94.7954 C68.0128,94.7834 67.9708,94.7744 67.9218,94.7654 L67.8908,94.7664 L67.8968,94.7594 C67.6138,94.6984 67.5208,94.6634 67.8418,94.7024 C67.8628,94.6974 67.9438,94.6974 67.9788,94.6964 C68.0248,94.6384 68.1488,94.5894 68.2808,94.5414 C70.1918,94.6764 68.5798,94.6604 67.9788,94.6964 C67.9568,94.7174 67.9038,94.7364 67.8968,94.7594 L67.9218,94.7654 L74.5428,94.6874 C73.1438,94.5944 71.3908,94.5634 68.2808,94.5394" id="Fill-65" fill="#FFFFFF"></path>
                    <path d="M35.1362,91.5833 C35.3402,91.6263 35.3292,91.6573 35.3452,91.6883 C35.7742,91.6463 35.9372,91.6143 35.1362,91.5833" id="Fill-67" fill="#FFFFFF"></path>
                    <path d="M37.8511,91.9085 C37.3681,91.9575 36.9631,92.1205 35.4021,92.0385 C34.0481,91.8765 35.4131,91.8325 35.3451,91.6885 C34.4001,91.7805 32.0391,91.9195 34.9901,92.1985 L35.4581,92.1515 C38.1191,92.3635 41.5281,92.9825 41.0611,93.0305 C40.2931,92.6245 39.6141,92.3315 37.8511,91.9085" id="Fill-69" fill="#FFFFFF"></path>
                    <path d="M53.2593,93.1185 L58.7733,93.0395 L55.9763,92.5985 L56.1133,92.8265 C52.9823,92.6635 53.6533,92.9555 53.2593,93.1185" id="Fill-71" fill="#FFFFFF"></path>
                    <polygon id="Fill-73" fill="#FFFFFF" points="83.3071 95.181 82.5651 95.618 85.7631 95.052"></polygon>
                    <polygon id="Fill-75" fill="#FFFFFF" points="90.4663 95.2972 90.1933 95.6872 92.0883 95.4932"></polygon>
                    <path d="M370.0659,9.179 L368.4449,9.201 C369.2109,9.209 369.7049,9.2 370.0659,9.179" id="Fill-77" fill="#FFFFFF"></path>
                    <path d="M381.7554,9.8538 L382.0534,9.6758 C381.5054,9.7528 381.2784,9.8198 381.7554,9.8538" id="Fill-79" fill="#FFFFFF"></path>
                    <g transform="translate(266.000000, 98.542400)">
                        <mask id="mask-2" fill="white">
                            <use xlink:href="#path-1"></use>
                        </mask>
                        <g id="Clip-82"></g>
                        <path d="M0.3511,0.3349 C2.7111,0.7069 5.3511,1.2849 5.0661,0.8379 L4.3401,0.4039 C2.6901,0.4799 1.4241,0.4299 0.3511,0.3349" id="Fill-81" fill="#FFFFFF" mask="url(#mask-2)"></path>
                    </g>
                    <path d="M386.5669,90.6409 C386.3399,90.6489 386.1049,90.6559 385.8709,90.6629 C385.3429,90.9199 384.8359,91.1509 384.3769,91.3489 C385.0449,91.1539 385.7989,90.9319 386.5669,90.6409" id="Fill-83" fill="#FFFFFF"></path>
                    <path d="M387.5913,88.4866 C388.4903,88.2856 389.3513,88.0076 390.1343,87.6216 C389.5823,87.8466 388.8073,88.1786 387.5913,88.4866" id="Fill-85" fill="#FFFFFF"></path>
                    <path d="M306.1528,7.0706 L304.2558,7.4626 C307.2068,7.5376 305.9138,7.2806 306.1528,7.0706" id="Fill-87" fill="#FFFFFF"></path>
                    <path d="M163.7905,96.8919 C165.8205,97.1109 167.4375,97.2199 168.8605,97.2759 C166.4145,96.9679 164.4465,96.5469 163.7905,96.8919" id="Fill-89" fill="#FFFFFF"></path>
                    <path d="M374.9272,4.8372 C373.9332,4.8612 373.5042,4.9262 373.5292,5.0242 C374.5522,5.0062 375.1332,4.9552 374.9272,4.8372" id="Fill-91" fill="#FFFFFF"></path>
                    <path d="M174.7368,97.4144 C174.3788,97.3714 174.0278,97.3304 173.6638,97.2864 C172.1738,97.3234 170.6758,97.3474 168.8608,97.2754 C170.6668,97.5044 172.7368,97.6684 174.7368,97.4144" id="Fill-93" fill="#FFFFFF"></path>
                    <path d="M74.1401,8.0657 C73.9711,8.0527 73.7681,8.0387 73.6141,8.0267 C73.5641,8.0867 73.7971,8.0847 74.1401,8.0657" id="Fill-95" fill="#FFFFFF"></path>
                    <path d="M16.5347,21.9886 C16.8867,21.5246 17.5347,20.8236 17.9717,20.0686 C17.8417,20.2376 17.6787,20.4706 17.4717,20.7976 C17.2277,21.1056 16.9227,21.4956 16.5347,21.9886" id="Fill-97" fill="#FFFFFF"></path>
                    <path d="M119.2661,96.1761 C117.7461,96.1681 119.0241,96.2181 119.2661,96.1761" id="Fill-99" fill="#FFFFFF"></path>
                    <path d="M111.9233,94.2835 C112.2473,94.2425 112.4943,94.1865 112.5343,94.0875 C112.4073,94.1885 112.1943,94.2505 111.9233,94.2835" id="Fill-101" fill="#FFFFFF"></path>
                    <path d="M189.9253,95.0765 C189.9693,95.0785 190.0053,95.0795 190.0563,95.0815 C189.6073,94.9855 189.6843,95.0045 189.9253,95.0765" id="Fill-103" fill="#FFFFFF"></path>
                    <path d="M116.9858,95.9241 C117.5548,95.9901 118.2108,96.0511 118.9248,96.0991 C118.6118,96.0581 118.0228,96.0021 116.9858,95.9241" id="Fill-105" fill="#FFFFFF"></path>
                    <path d="M117.2886,96.1361 C116.7656,96.1081 116.3546,96.0841 115.9626,96.0631 C115.7686,96.1301 115.9376,96.1801 117.2886,96.1361" id="Fill-107" fill="#FFFFFF"></path>
                    <path d="M121.3823,96.2034 C120.5133,96.1884 119.7033,96.1494 118.9253,96.0994 C119.2223,96.1364 119.3473,96.1634 119.2663,96.1764 C119.7113,96.1824 120.3403,96.1894 121.3823,96.2034" id="Fill-109" fill="#FFFFFF"></path>
                    <path d="M198.4683,4.6331 C198.3673,4.6211 198.2523,4.6081 198.1423,4.5951 C196.6133,4.7871 197.2843,4.7531 198.4683,4.6331" id="Fill-111" fill="#FFFFFF"></path>
                    <path d="M305.8257,93.929 C305.7557,93.94 305.7177,93.946 305.6537,93.954 C305.7237,93.957 305.8137,93.961 305.8777,93.964 L305.8257,93.929 Z" id="Fill-113" fill="#FFFFFF"></path>
                    <path d="M311.2593,93.4554 C308.9583,94.0684 307.6373,94.0344 305.8773,93.9644 L307.7133,95.1694 L311.2593,93.4554 Z" id="Fill-115" fill="#FFFFFF"></path>
                    <g transform="translate(4.000000, 0.542400)">
                        <mask id="mask-4" fill="white">
                            <use xlink:href="#path-3"></use>
                        </mask>
                        <g id="Clip-118"></g>
                        <path d="M178.2173,0.9804 L179.2183,1.0924 C176.9613,1.2614 177.5933,1.1274 178.2173,0.9804 M126.7853,95.3074 C126.2683,95.3624 126.3023,95.4294 126.5183,95.5014 C126.8803,95.3884 128.0333,95.4084 129.3463,95.4734 C128.9853,95.3384 128.3223,95.2364 126.7853,95.3074 M131.9173,95.6394 C131.9653,95.6304 131.9973,95.6264 132.0363,95.6194 C134.5053,95.8664 133.6303,95.7704 131.9173,95.6394 M374.1463,90.2314 C374.9513,89.9984 376.2323,89.9654 377.6743,90.0154 C376.6453,90.1514 375.4613,90.2374 374.1463,90.2314 M388.2783,16.2804 C388.1663,15.7884 387.9313,15.0914 387.7063,14.4754 C387.4903,13.8464 387.2553,13.3334 387.2613,12.9874 C388.1593,13.6704 388.1973,14.6044 388.2783,16.2804 M338.0573,7.4034 L341.8633,7.9654 C337.2223,8.3984 333.8963,8.0274 337.4593,8.7364 C338.0583,7.4034 352.3163,9.2664 352.9113,7.9354 L355.4173,8.3344 C354.6963,8.2894 354.5773,8.3634 353.8643,8.3174 C358.7323,9.1824 357.5523,7.5184 363.8563,8.0504 C366.0503,8.2774 367.5733,8.5594 366.0663,8.6364 L370.9863,8.5734 C372.4093,8.6784 372.0483,8.8944 370.6303,8.7904 L378.1113,9.0964 L378.0533,9.1334 C379.1643,8.9714 381.4973,8.7874 382.5653,8.8684 C384.1993,9.3914 381.6983,8.8454 382.0963,9.1064 C383.3473,9.1894 384.5233,9.3994 385.5383,9.8674 C386.0033,10.3884 385.6323,10.2934 384.9023,10.0634 C384.1733,9.8194 382.9263,9.5414 381.6353,9.3584 C383.2423,10.2824 383.7873,10.3854 384.7613,10.6704 C385.2263,10.8274 385.7473,11.0504 386.3103,11.6364 C386.8663,12.2144 387.4153,13.2334 387.6203,14.9714 C387.3303,13.9174 386.8933,13.0264 386.3773,12.3444 C386.5063,13.2424 386.7533,14.1284 386.9383,15.4324 C387.1183,16.7364 387.1963,18.3624 386.9933,20.5284 C387.1113,19.9814 387.3663,17.9094 387.4943,16.5714 C387.5673,15.8964 387.6223,15.3834 387.7413,15.2574 C387.8553,15.1354 388.0583,15.3874 388.2823,16.3784 C388.3453,17.5334 388.3713,19.0494 388.6873,21.4944 C388.2043,21.5284 388.3773,23.8924 388.4623,26.8564 L387.8183,26.6664 C388.0633,29.8654 388.3823,29.6064 388.7023,31.4874 C388.6963,35.0604 388.2073,35.8074 387.8013,36.6534 C387.7723,42.3724 388.5473,32.6944 388.7503,39.4604 C388.5573,44.2204 388.8463,47.5574 389.2453,53.2494 C389.0293,56.5794 388.8533,52.6674 388.6723,53.8624 L389.1873,56.8134 C389.1733,57.5364 389.0173,57.3024 388.9383,57.1834 C389.1333,59.6714 389.5793,57.3884 389.7453,61.3004 C390.4503,62.3604 388.6873,69.3254 389.4313,74.1714 C389.2383,75.3624 389.0453,73.5914 388.7943,73.9534 C389.0113,77.2564 389.1043,78.6704 389.1873,79.9404 C389.2243,80.5484 389.2593,81.1084 389.2673,81.8184 C389.2663,82.5264 389.2643,83.3884 388.9613,84.5194 C388.6363,85.0914 388.1913,85.5734 387.7383,86.0134 C387.2443,86.4254 386.7243,86.7934 386.1343,87.0794 C386.8003,86.7934 387.0923,86.6624 387.1913,86.7604 C387.2723,86.8414 387.1583,87.1624 386.7923,87.5534 C386.4513,87.9704 385.8483,88.4384 385.1113,88.9044 C384.3643,89.3574 383.4643,89.7624 382.5673,90.0984 C383.7943,90.0494 384.8573,89.8784 385.5593,89.6904 C383.6653,90.6144 381.6143,91.1394 379.5783,91.5154 C378.8203,91.5034 379.4223,91.2164 380.3763,90.8064 C379.9703,90.9194 379.5833,91.0284 379.2813,91.1124 C377.0703,91.1114 378.1873,90.6374 379.6653,90.0894 C380.4083,90.1224 381.1463,90.1274 381.8703,90.1214 C383.2733,89.4444 384.3633,88.5704 383.9573,88.3194 C383.6403,88.5054 382.9883,88.7864 382.2203,88.9964 C382.5623,88.8144 382.7563,88.6544 382.5793,88.6384 C382.3753,88.6194 381.8423,88.9034 380.9323,89.2354 C380.4513,89.0734 379.9863,88.9144 379.5163,88.7324 L379.2353,89.0564 C377.9713,89.1454 376.6413,89.1694 375.3053,89.2194 L371.3163,89.3474 C365.6963,90.5484 360.8313,92.0144 351.8063,92.9424 C354.0133,92.2634 352.2283,92.0564 352.3083,91.4294 C354.8203,91.9174 359.2833,90.6494 363.9703,90.4124 C361.5233,90.5354 362.0363,90.1984 362.6503,90.0464 L354.3513,91.2714 C354.5023,90.7514 352.5503,91.0154 350.3563,90.9604 C352.0733,91.8514 344.1763,92.0424 340.7943,92.5464 C340.5643,92.2244 341.3583,91.8334 345.5093,91.6564 C340.8893,91.1884 339.6673,93.1974 335.1353,92.8064 C336.1483,92.7444 336.6973,92.7664 337.0873,92.5714 C334.7383,93.0074 328.9383,93.0694 330.2843,92.7044 L331.2953,92.6464 C324.5643,92.9024 310.8153,93.5334 309.8343,94.3964 C309.7643,94.2884 310.6843,93.3404 311.0843,93.1554 C307.1143,94.2504 303.1343,95.3084 299.1433,96.3594 C300.1843,95.6024 296.0803,93.9654 301.6543,93.4124 C300.0483,93.3434 298.0643,93.2904 294.6893,93.6054 C295.7843,93.6884 297.4393,94.6094 295.9443,94.7054 C291.8223,93.9654 293.0853,94.3334 288.0163,93.7184 C289.6573,93.8534 287.8543,95.0224 285.2593,95.0214 C285.6613,94.8444 285.0293,93.8934 285.9753,93.7614 L279.5343,94.9594 C281.1443,94.7434 279.8103,94.0024 278.3643,93.6974 C279.0363,93.9144 272.7883,93.7224 271.0703,93.8304 L273.8053,94.0824 C266.5213,93.9384 266.6123,95.6864 259.3773,95.6164 C260.2533,95.3814 261.5423,94.1954 257.8673,94.0374 C256.1833,94.6064 250.3903,96.7704 243.9783,97.1454 L242.7533,96.8004 L237.8353,97.1154 C240.9083,96.2914 249.5083,94.5654 254.1933,93.8764 C251.4683,93.5984 253.4363,93.4904 249.3533,93.4824 C247.9143,93.1594 251.5823,93.0384 252.7823,93.0244 L243.2823,92.7384 C243.6973,93.4164 236.0063,93.3234 236.3613,93.8864 L246.6943,93.3104 C247.1073,93.9874 240.7023,95.1644 233.9633,94.9424 C232.2533,94.6494 235.2633,93.7654 235.1253,93.5394 C234.2483,93.7564 228.7253,93.8854 228.1093,93.7084 L230.9723,93.3944 C227.2273,93.0834 224.8363,94.1814 220.3403,93.4584 C218.7853,93.3834 215.7123,92.5004 215.4363,92.8924 C217.9563,93.7104 218.4073,96.0924 216.7033,96.6344 C216.1583,96.5764 208.5443,95.7324 206.7763,95.3144 C204.2263,94.6584 210.6543,93.9634 208.4843,93.4004 C208.3863,93.5824 206.9663,93.7784 206.3743,93.8384 C204.7433,93.6444 207.0633,93.2854 203.5113,93.2884 C202.9033,93.9564 196.2893,93.0664 201.8193,93.8264 C198.3413,93.9424 198.1303,93.6014 194.0503,93.5354 C195.3393,94.0064 190.3533,94.9484 186.8673,95.0594 C187.0763,94.8904 186.3003,94.6464 185.9253,94.5344 C178.8053,94.3024 174.9893,93.9014 168.3503,93.7374 C167.7413,93.5574 164.5423,93.2814 165.9133,93.0204 C164.9563,93.1184 164.0723,93.3284 162.0243,93.2954 C158.0743,92.6114 166.5933,93.3134 163.5883,92.5334 C163.3213,92.9224 158.2793,92.9524 155.3563,93.1294 C156.2383,93.7634 162.0933,93.4084 165.0203,93.2314 C165.0133,94.0754 159.9063,94.8364 152.9563,95.0614 C147.4363,95.1384 150.5783,94.4594 149.6173,94.5554 C139.2613,94.1604 140.7563,95.8174 132.1673,95.0024 C128.7663,94.3834 132.0383,93.9294 131.2903,93.5244 C135.7893,93.4274 138.1813,94.0304 141.2273,94.0824 L137.4843,93.7384 C138.9173,93.5934 141.9203,93.5294 143.5513,93.7244 C140.7013,93.1724 126.0493,93.2124 118.0663,92.5764 C116.6423,92.7214 114.1863,92.8494 115.3403,93.0934 L117.8713,93.0794 C120.1863,93.5684 113.0973,93.5644 116.2933,93.8434 C112.8943,94.0674 109.0783,94.4554 104.3083,94.0954 L103.4253,93.4604 C103.5243,93.6424 106.5383,93.9014 107.8863,93.7464 C105.8883,93.9704 100.5813,92.7414 98.3813,93.4924 L101.7193,93.9964 C98.3053,94.2224 94.0783,94.7734 89.8513,94.4784 C91.7623,95.1294 90.8283,94.4324 93.8193,95.2124 C91.2333,94.2694 104.6473,95.5084 100.4803,94.4824 C103.5463,95.3784 105.8143,94.9594 109.8313,95.7564 C109.7113,95.5514 108.4113,95.3354 111.9623,95.5204 C112.1243,95.4644 112.5053,95.3994 112.7463,95.3614 C112.8553,95.3704 112.8933,95.3744 112.9863,95.3814 C112.9153,95.3714 112.8633,95.3634 112.7903,95.3534 C112.9463,95.3264 112.9593,95.3204 112.7183,95.3424 C111.8733,95.2344 111.1913,95.1114 110.9143,94.9924 C112.6903,94.5704 118.3403,94.7194 120.2573,94.5254 C122.3633,94.6714 119.3693,94.7364 120.5153,94.9794 L123.3783,94.6884 C123.6513,95.1444 128.9623,95.5684 123.9893,95.7124 L128.4593,95.8394 C131.0853,96.1554 134.7043,96.3414 136.9413,96.2064 C139.0473,96.3534 142.2793,95.8364 140.4343,96.1444 L147.4523,96.0344 L147.5153,96.1474 C154.4313,96.3704 161.7743,95.7454 169.6633,96.7444 C171.9953,96.6864 174.4053,96.6054 178.2993,96.8264 L179.0503,97.2334 C182.0423,97.1684 188.0213,97.8364 189.3163,97.4624 C192.5173,98.5854 203.8263,98.0334 209.0853,98.3284 L209.2953,97.8264 C212.9163,97.9344 216.3933,97.8594 220.8943,97.7434 L220.6253,97.2904 C224.5093,96.9954 230.5873,97.7884 236.7233,97.8304 C236.3033,97.9964 234.7473,97.9264 233.6493,97.8064 C240.9643,98.9294 249.1193,97.2714 255.7613,98.0384 C257.4183,97.8824 258.6183,97.9484 259.7803,98.0634 C259.6253,98.0644 259.4883,98.0724 259.3683,98.0854 C259.5383,98.0874 259.7903,98.0894 260.0493,98.0924 C260.7803,98.1694 261.5353,98.2494 262.3513,98.3354 C261.6563,98.2244 260.9923,98.1334 260.4143,98.0914 C261.6933,98.0844 263.6303,98.0314 265.5303,97.9204 L266.3403,98.4044 C266.4943,98.3994 266.6183,98.3954 266.7803,98.3904 C268.6453,98.5634 268.2793,98.1584 267.2833,97.7994 C268.2393,97.7174 269.1163,97.6194 269.7953,97.5014 C271.3133,98.2724 274.7783,97.2284 276.8503,98.0354 C278.1273,97.6304 286.4013,97.6404 287.4003,96.7664 C287.4663,96.8764 288.0273,96.9214 287.0013,96.9424 C289.1193,97.0154 291.2383,97.0724 293.1323,96.7944 L294.0423,97.3894 L298.6483,96.4694 C301.4643,96.7714 302.6363,96.9594 299.8583,97.5004 C306.5743,96.6054 305.3183,97.0894 311.0203,96.1874 L310.7543,96.5924 C312.8013,96.5114 316.0523,95.8594 317.2983,96.1364 C321.9093,96.7454 339.9453,95.2344 351.7213,95.0764 C349.3633,94.0744 357.2133,95.2154 357.6133,94.2714 C358.3163,94.4964 359.9633,94.5304 358.0803,94.9104 C364.0473,94.1864 367.1133,94.6464 371.1813,93.5314 C371.8893,93.7494 369.9353,94.0434 370.5583,94.1554 C371.0323,94.0544 372.4383,93.7524 373.0753,93.8634 C373.6993,93.9744 372.2193,94.1684 371.2823,94.3704 C377.3913,93.7914 377.9343,92.8784 378.3143,92.0414 C381.4883,92.0764 383.2073,91.6854 385.2663,90.3694 C385.8533,90.2994 386.6183,90.0544 386.7823,90.1044 C386.8633,90.1264 386.7923,90.2274 386.4563,90.4284 C386.1223,90.6344 385.5213,90.9554 384.5373,91.2934 C385.0943,91.1304 386.2433,90.7684 387.5883,90.0154 C388.9293,89.2834 390.4193,87.9514 391.3123,86.3124 C392.2133,84.6554 392.4573,82.9544 392.5223,81.7804 C392.5793,80.5904 392.4783,79.8504 392.3253,79.7884 C392.5103,79.0884 392.4153,76.7804 392.3513,76.2104 C392.4433,71.4054 392.5033,70.9834 392.4733,66.2634 L392.3623,67.5714 C391.6013,65.7034 392.2133,63.6474 392.1283,59.8424 L392.2063,59.9524 C392.7613,51.2274 391.9493,56.1874 392.5473,47.5784 L392.0713,48.0484 C391.0373,47.2544 392.6283,40.4204 392.1613,35.4284 L391.9113,37.2354 C391.5283,34.5144 393.2023,29.5894 393.2793,26.8434 C393.3573,26.2454 393.4423,27.7854 393.5223,28.6184 C393.9913,21.4284 392.8793,27.6994 392.6223,22.3564 C392.9393,21.3624 393.5123,23.6104 393.4943,20.0054 C393.5483,19.5414 393.4993,18.6344 393.3293,17.4094 C393.1503,16.1864 392.8673,14.6444 392.2663,12.9704 C391.6883,11.3104 390.6843,9.4944 389.2343,8.1204 C387.7813,6.7244 386.0403,5.9504 384.6953,5.4194 C385.2823,5.7094 385.8503,6.0764 385.9053,6.2324 C385.9653,6.4054 385.5243,6.2714 384.1463,6.0174 C382.0473,5.5234 379.4063,5.2064 376.9283,4.9054 C374.4143,4.6104 371.9423,4.4084 370.2023,4.7244 C369.7233,4.6264 369.5443,4.5474 369.5293,4.4814 C366.6123,4.5334 360.0693,4.3104 358.2983,4.6594 C355.6943,2.8574 340.1983,4.6424 340.3323,3.1134 C337.3523,3.0044 334.3713,2.8924 331.3893,2.8264 L331.6293,2.6784 C325.9163,2.3754 323.8823,2.6684 321.8613,2.9644 C320.5433,2.8144 321.5133,2.7064 321.6243,2.6294 C313.2843,2.0194 312.4493,2.0544 305.4263,2.6384 L304.7123,2.1244 C302.8073,2.3844 292.6553,0.9784 284.4463,1.4394 C284.5293,1.3844 284.7003,1.2924 285.3533,1.2334 C280.7373,1.4404 275.2263,0.9974 270.4413,0.7184 C265.6553,0.4444 261.5963,0.3874 259.8973,1.2644 L253.8093,1.6454 C261.6773,1.8694 252.6303,2.4164 255.8633,2.7504 C252.7693,2.8234 247.8693,2.1214 251.6723,2.0684 L252.2673,2.1654 C253.6723,1.2334 242.4913,1.7324 242.7073,1.1134 C227.2203,1.0754 212.1253,0.5684 197.6163,0.6174 L199.2923,1.3344 L194.2333,1.3344 C192.9043,1.1734 192.4463,0.7764 196.0563,0.7774 C194.1553,0.3774 190.0043,1.1724 189.9033,1.3334 C182.8333,1.0934 192.6563,0.4584 190.4893,0.4584 L187.5463,0.5364 L188.2103,0.6164 C185.8273,0.9344 185.6183,1.2524 181.2803,1.2514 C178.5323,1.1264 179.8663,0.8104 178.7853,0.7944 C178.7913,0.7434 178.4263,0.7234 177.1283,0.7944 L170.7523,0.8144 L173.3083,1.3594 C170.4873,1.6804 167.3153,1.4064 170.2643,2.0224 C168.0993,1.5474 162.1543,1.5294 156.4183,1.6054 C150.6833,1.6994 145.1573,1.8764 143.8303,1.7434 C139.8813,2.2354 135.9763,2.2794 131.1383,2.3344 C132.3433,2.4294 133.0753,3.0644 128.9023,3.0704 C130.4013,1.6994 121.2513,2.6454 117.8603,1.7504 C120.8863,2.3214 106.0013,2.1604 110.7503,2.9664 C107.2673,2.9394 110.5283,2.4704 107.8793,2.2164 C99.6073,2.9274 89.6133,2.2954 79.3773,2.7394 C79.2223,2.9184 80.9443,3.1444 78.7533,3.4604 L73.3253,2.7184 C71.3053,2.8564 71.4893,3.7804 67.7793,3.2644 C68.3043,3.3984 69.0893,3.6014 67.7353,3.6934 C57.6953,3.5344 47.4513,3.9764 37.1693,4.3424 L29.4523,4.5854 L25.5923,4.6744 C24.3083,4.7214 23.0603,4.6464 21.5163,4.8624 C20.7613,4.9744 19.9373,5.1954 19.1413,5.6284 C18.3413,6.0694 17.6503,6.7254 17.1513,7.4774 C16.1573,9.0164 15.9623,10.6034 15.7963,11.9554 C15.6403,13.3124 15.6103,14.5794 15.3253,15.5884 C15.1883,16.1054 15.0833,16.6254 14.8403,17.0944 L14.5333,17.8114 L14.1193,18.4764 C14.8013,17.5584 14.8513,17.3534 14.8303,17.6854 C14.8223,17.8514 14.7023,18.1114 14.5513,18.4354 C14.3953,18.7574 14.2453,19.1624 13.9723,19.5264 C14.6863,18.5844 14.3373,19.7734 14.6603,19.7064 C13.1093,21.7674 10.9833,23.3474 8.5923,24.5024 C8.1553,25.1674 6.2503,26.2344 4.2813,27.0394 C2.3263,27.8684 0.3413,28.4624 0.0223,28.9014 C0.8563,28.6084 1.6773,28.2924 2.4883,27.9574 C0.9573,28.8794 2.2453,28.9024 3.9343,28.7264 C5.6213,28.5774 7.6793,28.0864 7.6523,28.6284 C9.3263,27.3374 11.8693,26.3084 14.3893,24.2604 C15.0383,23.7784 15.6043,23.1464 16.2023,22.5224 C16.4823,22.1914 16.7323,21.8244 16.9943,21.4634 C17.2683,21.1104 17.4903,20.7164 17.6873,20.3014 C17.8793,19.8874 18.1203,19.4914 18.2503,19.0444 C18.3883,18.6014 18.5163,18.1534 18.6303,17.7034 C18.7433,17.2524 18.7513,16.7794 18.7943,16.3184 C18.8333,15.8544 18.8443,15.3954 18.7953,14.9494 C18.9453,14.1914 18.9993,14.5194 19.0523,14.9454 C19.1003,15.3774 19.1143,15.9244 19.2773,15.5024 C19.1723,14.5524 19.0653,13.5894 19.0773,12.4584 C19.0973,11.3634 19.2283,9.9244 20.0043,9.0194 L19.9433,9.2964 C20.3603,8.5944 20.9673,8.2554 21.8733,8.0754 C22.7623,7.9004 23.8123,7.9144 24.8723,7.8944 C26.9583,7.8654 28.8783,7.8624 30.8383,7.8704 C34.7593,7.8844 38.8443,7.9424 44.7533,7.9154 L43.8653,7.4654 C46.4053,7.4594 46.9443,7.5934 48.1353,7.6804 C51.0293,6.8834 41.0053,7.8334 43.6383,6.9694 C47.0303,7.8394 61.5363,6.5054 63.8413,7.5404 C67.7453,7.4414 62.6823,7.0224 66.5853,6.9244 L67.6273,7.1934 L68.6053,6.7854 C71.1653,6.7834 72.4663,7.1214 72.5693,7.3704 C71.9463,7.3554 70.8053,7.4844 70.1403,7.5234 C73.4683,7.7884 79.4963,7.1674 80.6393,7.2514 L76.8833,7.1654 C87.5313,6.6084 100.5493,6.6964 110.8293,5.8574 L110.0433,5.6524 C117.8963,5.0624 116.3453,5.7644 124.9723,5.3934 L124.6593,5.4534 C126.3823,5.1954 128.6873,5.0354 131.0503,5.0124 C128.8753,5.3194 135.1603,5.4374 132.3073,5.7854 C140.8223,5.1774 136.5173,5.3604 142.1323,4.4294 L143.4383,4.7784 C145.3513,4.4104 145.5083,4.2304 149.8183,4.0614 C146.2863,4.4394 152.5783,4.5794 148.6243,5.0674 C157.6823,5.7144 162.0443,4.0424 166.2103,5.1724 C170.3513,4.0924 158.3753,4.7044 160.6983,4.4544 C158.7453,4.1434 164.1163,3.6424 166.9573,3.7094 C169.8493,3.6954 171.8883,4.9594 179.1563,4.8464 C178.4333,4.8504 178.3853,4.9284 177.6633,4.9334 C180.3863,5.1564 182.9893,4.5324 186.3303,4.9264 C188.1953,4.2914 190.6623,4.9264 191.1963,4.1314 L184.5293,4.3684 C188.3063,4.1304 191.8453,3.1754 198.0763,3.5754 C197.5923,3.7384 195.7403,3.9634 194.4683,4.0904 C196.2913,4.3094 197.9743,3.9084 199.8633,4.1324 C199.3303,4.9294 191.7613,4.3704 187.7163,5.0064 C189.6733,5.3254 195.3723,4.3714 193.3433,5.2454 C196.2613,4.1384 200.5053,5.3074 205.4223,4.4734 L205.1003,4.9494 C205.8783,4.8734 207.4913,4.6444 208.9253,4.6534 L206.3323,5.2744 C210.3153,4.7404 214.0143,5.7144 217.8353,5.4184 C209.8333,5.4544 216.0383,4.8514 212.6543,4.5144 C222.5243,3.8694 218.3323,5.7074 229.3793,5.5204 C227.8833,5.5814 223.7643,5.2134 226.1043,5.0024 C228.2063,5.1084 230.9843,5.3004 232.2753,5.5544 C239.5943,5.4834 231.1523,5.0624 234.2693,4.7824 C236.7593,5.3694 237.8643,4.5604 241.0753,4.3864 L241.0953,4.8694 C249.4353,5.2134 243.3143,3.8594 250.8223,4.3064 L247.6433,4.9424 L251.5603,4.8104 L250.7473,5.3504 C255.0093,4.9894 256.3353,5.1084 260.5063,5.3064 C259.5403,4.9564 261.0623,4.4364 264.7583,4.4604 C267.2743,4.7754 263.3403,4.9014 268.5793,4.8934 C267.3923,5.1764 266.0923,5.5454 263.8193,5.0764 C263.5833,5.2314 262.6493,5.3674 262.4063,5.5194 C265.1153,5.8764 269.2243,5.6644 271.1193,5.7054 C270.3903,5.6734 269.5183,5.6314 269.0713,5.5544 L276.6733,5.0244 C277.8643,5.2274 276.9133,5.3554 275.9733,5.4804 C277.5113,5.4574 278.5783,5.2534 280.8403,5.2534 C280.2473,5.6344 280.3803,6.0424 277.1783,6.1684 L284.4163,5.8654 C284.8973,6.0434 288.1173,6.4004 287.1763,6.5284 C291.1793,6.8114 297.0243,6.0124 302.3303,6.4454 C302.6093,6.3764 303.1643,6.3194 304.2953,6.2924 C309.2873,6.5064 313.6953,7.1054 319.6293,6.7934 L322.9613,7.6154 C327.6003,7.6204 318.4473,6.5694 326.1733,6.5774 C331.6463,6.5464 328.1913,7.2494 330.0993,7.5124 C332.8293,7.2394 337.5813,6.7194 342.5733,7.5264 C340.9073,7.5844 339.6103,7.4214 338.0573,7.4034" id="Fill-117" fill="#FFFFFF" mask="url(#mask-4)"></path>
                    </g>
                    <path d="M387.4653,88.7474 C387.7583,88.7364 387.8633,88.7974 387.9573,88.8614 C388.2993,88.6444 388.2793,88.5754 387.4653,88.7474" id="Fill-119" fill="#FFFFFF"></path>
                    <path d="M306.5044,6.9983 L306.3304,6.9873 C306.2334,7.0143 306.1824,7.0423 306.1524,7.0703 L306.5044,6.9983 Z" id="Fill-121" fill="#FFFFFF"></path>
                    <path d="M210.4507,93.6507 C211.5057,93.7427 212.0937,93.8427 212.4837,93.9427 C212.5437,93.8257 212.0657,93.7157 210.4507,93.6507" id="Fill-123" fill="#FFFFFF"></path>
                    <path d="M103.5454,96.0179 L106.8394,95.9709 C105.2474,95.9559 104.6814,95.8369 103.8804,95.7419 C103.9494,95.8569 104.5744,96.0349 103.5454,96.0179" id="Fill-125" fill="#FFFFFF"></path>
                    <path d="M75.0571,92.3499 C74.5761,92.3969 74.0371,92.3309 73.5621,92.3799 L73.6881,92.6079 C75.7371,92.6419 77.1731,92.4959 75.0571,92.3499" id="Fill-127" fill="#FFFFFF"></path>
                    <path d="M100.5376,94.3421 C100.2866,93.9301 98.2196,94.0191 95.9126,94.0381 C96.0516,94.0421 96.1836,94.0451 96.3206,94.0481 C95.6276,94.6001 98.0886,94.4711 100.5376,94.3421" id="Fill-129" fill="#FFFFFF"></path>
                    <path d="M95.3784,94.0394 C94.6674,94.0414 93.9414,94.0344 93.2474,93.9984 C92.9724,94.2204 94.1094,94.0664 95.3784,94.0394" id="Fill-131" fill="#FFFFFF"></path>
                    <path d="M124.2642,95.9622 C123.1732,95.8312 123.5662,96.4652 122.9522,96.2842 C121.7182,96.7722 130.2532,95.8342 124.2642,95.9622" id="Fill-133" fill="#FFFFFF"></path>
                    <polygon id="Fill-135" fill="#FFFFFF" points="98.7036 92.9613 99.5176 93.4823 100.8186 93.1083"></polygon>
                    <path d="M116.894,93.764 L113.214,93.537 C113.268,93.622 112.798,93.66 112.223,93.685 C114.492,93.755 116.977,93.914 116.894,93.764" id="Fill-137" fill="#FFFFFF"></path>
                    <path d="M112.2231,93.6849 C111.0411,93.6469 109.9161,93.6299 109.2571,93.6969 C109.8971,93.7059 111.2731,93.7229 112.2231,93.6849" id="Fill-139" fill="#FFFFFF"></path>
                    <polygon id="Fill-141" fill="#FFFFFF" points="103.7417 92.931 104.8287 93.062 107.4277 93.16"></polygon>
                    <path d="M156.481,94.8079 L160.504,94.7609 C160.918,94.5989 159.825,94.4669 158.327,94.4999 C157.362,94.5969 155.869,94.6269 156.481,94.8079" id="Fill-143" fill="#FFFFFF"></path>
                    <path d="M144.3589,93.1458 C145.4429,93.2758 145.5129,93.3888 146.1229,93.5688 L146.2589,92.9508 L144.3589,93.1458 Z" id="Fill-145" fill="#FFFFFF"></path>
                    <path d="M156.0835,93.2806 C156.4875,93.1186 161.9295,92.9266 156.8335,92.8436 C156.4215,93.0046 152.3925,93.0516 156.0835,93.2806" id="Fill-147" fill="#FFFFFF"></path>
                    <polygon id="Fill-149" fill="#FFFFFF" points="216.6274 95.4857 215.6054 95.4717 215.7304 96.4937"></polygon>
                    <path d="M270.0103,93.6898 C265.2543,93.4398 268.8803,94.3168 264.5813,94.0058 C263.4633,94.2458 268.0953,94.2588 266.9493,94.4658 C269.8233,94.2158 271.3293,94.3618 270.0103,93.6898" id="Fill-151" fill="#FFFFFF"></path>
                    <path d="M266.9497,94.4661 C266.4897,94.5051 266.0017,94.5541 265.4827,94.6181 C266.3147,94.5561 266.7077,94.5081 266.9497,94.4661" id="Fill-153" fill="#FFFFFF"></path>
                    <path d="M7.5601,26.9261 C6.6421,27.2281 5.6961,27.4771 4.7561,27.7291 L6.6491,27.4251 L7.5601,26.9261 Z" id="Fill-155" fill="#FFFFFF"></path>
                    <g transform="translate(0.000000, 28.542400)">
                        <mask id="mask-6" fill="white">
                            <use xlink:href="#path-5"></use>
                        </mask>
                        <g id="Clip-158"></g>
                        <path d="M2.436,0.9052 L1.587,0.4722 L-0.001,1.4962 C0.65,1.2972 1.907,0.9152 2.436,0.9052" id="Fill-157" fill="#FFFFFF" mask="url(#mask-6)"></path>
                    </g>
                    <path d="M391.3315,25.0911 L391.4925,25.3201 C391.6525,24.8441 391.6505,24.1281 391.6435,22.6941 L391.3315,25.0911 Z" id="Fill-159" fill="#FFFFFF"></path>
                    <polygon id="Fill-161" fill="#FFFFFF" points="366.1831 9.5999 366.8951 9.6529 365.5931 8.9929"></polygon>
                    <path d="M331.3647,8.7942 C332.7837,8.8692 334.4587,8.7972 335.8847,8.8732 C332.7847,8.8692 331.0077,8.0492 331.3647,8.7942" id="Fill-163" fill="#FFFFFF"></path>
                    <path d="M74.3999,38.8587 L72.8129,38.8587 L72.8129,45.7117 C72.8129,46.9057 72.6089,47.5347 71.9329,47.9117 C71.2729,48.2887 70.2829,48.3677 68.9629,48.3677 C68.8829,47.7227 68.5699,46.6707 68.2549,45.9947 C69.0559,46.0417 69.9059,46.0417 70.1879,46.0417 C70.4559,46.0417 70.5489,45.9627 70.5489,45.6957 L70.5489,38.8587 L66.6049,38.8587 L66.6049,36.6737 L70.5489,36.6737 L70.5489,33.5457 L72.8129,33.5457 L72.8129,36.6737 L74.3999,36.6737 L74.3999,38.8587 Z M68.2549,44.6417 C68.0189,43.5887 67.2339,41.9867 66.4479,40.7767 L68.2709,39.8797 C69.0879,41.0277 69.9529,42.5517 70.2519,43.6357 L68.2549,44.6417 Z M66.4629,35.5427 C66.1489,38.0267 65.6149,40.2567 64.8289,42.1747 C65.5359,43.1187 66.1649,44.0137 66.5739,44.7537 L64.9389,46.5127 C64.6249,45.9157 64.2009,45.2087 63.6979,44.4547 C62.9589,45.6957 62.0789,46.7497 61.0569,47.6287 C60.6959,47.0797 59.9719,46.2297 59.4379,45.8377 C60.5229,45.0197 61.4649,43.8097 62.2199,42.3637 C61.3389,41.1847 60.3969,39.9907 59.5949,38.9537 L61.0419,37.5067 C61.6859,38.2937 62.4399,39.1887 63.1779,40.1007 C63.5239,39.1577 63.7919,38.1517 63.9799,37.1297 L59.6579,37.1297 L59.6579,35.1337 L64.6089,35.1337 L64.9859,35.0557 L66.4629,35.5427 Z" id="Fill-165" fill="#000000"></path>
                    <path d="M82.897,38.5755 L83.714,38.5755 C84.154,38.1825 84.594,37.7905 85.002,37.3665 L82.897,37.3665 L82.897,38.5755 Z M84.689,40.6975 C83.824,41.4055 82.928,42.0655 82.001,42.6625 L82.001,42.9925 C83.777,42.5365 85.538,41.9715 86.732,41.4365 L88.602,43.1025 C86.622,43.8415 84.217,44.4705 82.001,44.9095 L82.001,45.4755 C82.001,46.1045 82.174,46.1825 83.29,46.1825 L86.26,46.1825 C87.204,46.1825 87.36,45.9155 87.486,44.3595 C88.004,44.7055 88.995,45.0515 89.624,45.1775 C89.325,47.5815 88.649,48.2105 86.433,48.2105 L83.085,48.2105 C80.367,48.2105 79.627,47.5815 79.627,45.4915 L79.627,44.0615 C78.701,44.5485 77.773,44.9715 76.815,45.3655 C76.485,44.8465 75.699,43.8875 75.243,43.4175 C77.239,42.7255 79.14,41.8135 80.87,40.6975 L75.73,40.6975 L75.73,38.5755 L80.508,38.5755 L80.508,37.3665 L77.192,37.3665 L77.192,35.2755 L80.508,35.2755 L80.508,33.5145 L82.897,33.5145 L82.897,35.2755 L85.977,35.2755 L85.977,36.2815 C86.559,35.6055 87.093,34.8825 87.565,34.1285 L89.702,35.1655 C88.901,36.3765 87.989,37.5225 86.967,38.5755 L90.173,38.5755 L90.173,40.6975 L84.689,40.6975 Z" id="Fill-167" fill="#000000"></path>
                    <path d="M99.0308,40.1478 C98.4028,39.5968 97.0518,38.7958 96.0458,38.2938 L97.2708,36.9098 C98.2458,37.3498 99.6438,38.0738 100.3358,38.6068 L99.0308,40.1478 Z M105.9468,40.7298 C105.9468,40.7298 105.9308,41.3268 105.9148,41.5778 C105.7258,45.3808 105.4908,46.9678 104.9878,47.5658 C104.5628,48.0528 104.1238,48.2108 103.5258,48.2888 C103.0228,48.3678 102.2208,48.3828 101.3728,48.3518 C101.3418,47.7548 101.0748,46.8898 100.7278,46.3398 C101.4358,46.4028 102.1278,46.4028 102.4728,46.4028 C102.7238,46.4028 102.8968,46.3718 103.0538,46.1988 C103.3058,45.9308 103.4948,44.9248 103.6358,42.7098 L93.3888,42.7098 L93.3888,34.6628 L97.1448,34.6628 C97.2398,34.2528 97.3178,33.8298 97.3488,33.4678 L100.1158,33.6258 C99.9588,33.9868 99.7858,34.3328 99.6128,34.6628 L104.3278,34.6628 C104.3278,34.6628 104.3118,35.1658 104.2968,35.4178 C104.2018,38.0428 104.0928,39.2828 103.7148,39.7398 C103.3998,40.1478 103.0538,40.2888 102.6148,40.3678 C102.2368,40.4468 101.6248,40.4618 100.9488,40.4618 C100.9178,39.8178 100.6968,38.9848 100.3988,38.4508 C100.8388,38.4978 101.2158,38.5128 101.4518,38.5128 C101.6398,38.5128 101.7658,38.4818 101.8908,38.3398 C102.0168,38.1828 102.0808,37.7118 102.1428,36.6588 L95.6208,36.6588 L95.6208,40.7298 L105.9468,40.7298 Z M91.6918,45.5848 L102.4578,45.5848 L102.4578,43.6358 L91.6918,43.6358 L91.6918,45.5848 Z" id="Fill-169" fill="#000000"></path>
                    <path d="M116.1089,37.3031 L116.1089,40.3211 L118.4349,40.3211 L117.1299,39.8961 C117.5399,39.1731 117.9949,38.1521 118.2779,37.3031 L116.1089,37.3031 Z M111.6139,37.3031 C112.1169,38.0891 112.5729,39.0481 112.7459,39.7401 L111.2679,40.3211 L113.6719,40.3211 L113.6719,37.3031 L111.6139,37.3031 Z M117.4289,42.5051 C118.7179,43.9661 120.5569,45.2861 122.4269,46.0571 C121.9089,46.5131 121.1699,47.4081 120.8239,47.9901 C119.0639,47.0951 117.4289,45.7111 116.1089,44.0931 L116.1089,48.4311 L113.6719,48.4311 L113.6719,44.0931 C112.3209,45.6961 110.6549,47.0631 108.8949,47.9581 C108.5339,47.3931 107.7949,46.4971 107.2759,46.0411 C109.1629,45.2551 111.0329,43.9501 112.3529,42.5051 L107.7629,42.5051 L107.7629,40.3211 L110.4819,40.3211 C110.3089,39.5971 109.8699,38.6071 109.4289,37.8531 L110.8909,37.3031 L108.5029,37.3031 L108.5029,35.1181 L113.6719,35.1181 L113.6719,33.4991 L116.1089,33.4991 L116.1089,35.1181 L121.3899,35.1181 L121.3899,37.3031 L119.1729,37.3031 L120.7609,37.7591 C120.2429,38.7181 119.7079,39.6451 119.2679,40.3211 L121.9869,40.3211 L121.9869,42.5051 L117.4289,42.5051 Z" id="Fill-171" fill="#000000"></path>
                    <mask id="mask-8" fill="white">
                        <use xlink:href="#path-7"></use>
                    </mask>
                    <g id="Clip-174"></g>
                    <path d="M130.986,40.2414 L134.915,40.2414 L134.915,38.6234 L130.986,38.6234 L130.986,40.2414 Z M136.078,46.1674 C136.25,46.1674 136.314,45.9464 136.345,44.3914 C136.77,44.7534 137.728,45.1304 138.326,45.2704 C138.122,47.6124 137.571,48.2724 136.33,48.2724 L135.45,48.2724 C133.815,48.2724 133.485,47.5814 133.485,45.6324 L133.485,42.2374 L132.636,42.2374 C132.432,44.9884 131.819,47.1264 128.786,48.4314 C128.534,47.8954 127.953,47.0794 127.465,46.6704 C129.885,45.7264 130.2,44.2024 130.341,42.2374 L128.786,42.2374 L128.786,36.6274 L130.42,36.6274 C130.168,35.9194 129.697,35.0564 129.226,34.3644 L131.174,33.5464 C131.788,34.3494 132.432,35.4174 132.667,36.1864 L131.63,36.6274 L133.39,36.6274 C133.831,35.7474 134.302,34.5204 134.553,33.5614 L137.005,34.2534 C136.613,35.0874 136.188,35.9194 135.811,36.6274 L137.225,36.6274 L137.225,42.2374 L135.732,42.2374 L135.732,45.6014 C135.732,46.1204 135.748,46.1674 135.889,46.1674 L136.078,46.1674 Z M126.554,37.8374 C126.051,37.0834 124.904,35.8884 124.055,35.0564 L125.58,33.6884 C126.428,34.4424 127.638,35.5424 128.188,36.2814 L126.554,37.8374 Z M128.912,42.5674 C129.069,43.2434 129.446,44.2334 129.697,44.7054 C126.318,47.4084 125.658,47.9744 125.328,48.4314 C125.124,47.8494 124.495,46.7804 124.071,46.2924 C124.542,46.0104 125.218,45.2864 125.218,44.5324 L125.218,40.5404 L123.489,40.5404 L123.489,38.3094 L127.544,38.3094 L127.544,43.6364 L128.912,42.5674 Z" id="Fill-173" fill="#000000" mask="url(#mask-8)"></path>
                    <path d="M141.4634,46.2298 C140.5994,46.2298 139.7814,45.6478 139.7814,44.6588 C139.7814,43.6998 140.5674,43.0868 141.5254,43.0868 C142.7684,43.0868 143.4284,43.9988 143.4284,45.4448 C143.4284,47.2668 142.2174,48.8078 140.0964,49.3888 L139.5144,47.8798 C140.7254,47.5498 141.4474,46.9058 141.5734,46.2298 L141.4634,46.2298 Z" id="Fill-175" fill="#000000" mask="url(#mask-8)"></path>
                    <path d="M158.7935,36.9886 C159.0135,37.5076 159.2015,38.1826 159.2655,38.6386 L157.8345,39.0326 L159.4845,39.0326 C159.7355,38.4036 159.9875,37.6006 160.1295,36.9886 L158.7935,36.9886 Z M158.5105,40.8236 L156.7025,40.8236 L156.7025,39.0326 L157.6615,39.0326 C157.6145,38.5446 157.4415,37.8376 157.2375,37.3026 L158.5105,36.9886 L156.8135,36.9886 L156.8135,35.2126 L158.4945,35.2126 C158.3685,34.8036 158.2115,34.3806 158.0385,34.0186 L159.8305,33.4996 C160.1135,34.0186 160.3645,34.6626 160.5225,35.2126 L162.1255,35.2126 L162.1255,36.9886 L160.4905,36.9886 L161.9685,37.3186 C161.7005,37.9156 161.4185,38.5126 161.1825,39.0326 L162.2345,39.0326 L162.2345,40.8236 L160.5225,40.8236 L160.5225,41.6246 L162.1255,41.6246 L162.1255,43.4016 L160.5225,43.4016 L160.5225,45.4286 L158.5105,45.4286 L158.5105,43.4016 L156.8135,43.4016 L156.8135,41.6246 L158.5105,41.6246 L158.5105,40.8236 Z M154.0945,43.4646 L154.8175,43.4646 L154.8175,41.4686 L154.0945,41.4686 L154.0945,43.4646 Z M153.6695,35.7476 L153.6695,36.7686 L153.6695,37.2236 L154.4555,37.2236 L154.4555,35.7476 L153.6695,35.7476 Z M149.4265,38.2146 C149.1115,37.3496 148.2165,36.0466 147.4305,35.1026 L149.2375,34.0816 C150.0395,34.9616 150.9815,36.1866 151.3755,37.0676 L149.4265,38.2146 Z M150.8885,44.5946 C151.2805,44.7536 151.7215,45.0046 152.3815,45.2396 C153.5275,45.6956 155.1475,45.7906 156.8285,45.7906 C158.3065,45.7906 160.8835,45.6476 162.4555,45.3816 C162.2035,46.0096 161.8425,47.1266 161.7955,47.7706 C160.8365,47.8486 158.3375,47.9586 156.7505,47.9586 C154.7855,47.9586 153.3235,47.7706 152.0195,47.2356 C151.1865,46.9056 150.5895,46.5126 150.1965,46.5126 C149.7875,46.5126 149.1905,47.5346 148.8455,48.2576 L147.4145,46.0096 C147.8705,45.5536 148.3575,45.1766 148.8285,44.9096 L148.8285,41.6566 L147.5245,41.6566 L147.5245,39.5966 L150.8885,39.5966 L150.8885,42.3166 C151.6895,40.5406 151.7685,38.3406 151.7685,36.7536 L151.7685,34.0506 L156.3565,34.0506 L156.3565,38.9216 L153.5755,38.9216 C153.5445,39.2356 153.5125,39.5506 153.4655,39.8646 L156.4205,39.8646 L156.4205,45.0836 L152.5855,45.0836 L152.5855,43.2746 C152.3975,43.7316 152.1765,44.1556 151.9095,44.5326 C151.7215,44.2646 151.2655,43.8256 150.8885,43.4956 L150.8885,44.5946 Z" id="Fill-176" fill="#000000" mask="url(#mask-8)"></path>
                    <path d="M174.5815,39.4407 L172.1145,39.4407 C172.0515,39.9907 171.9885,40.5247 171.8935,41.0597 L174.5815,41.0597 L174.5815,39.4407 Z M168.4045,36.2967 C168.1065,36.6737 167.7925,37.0517 167.4625,37.4287 L170.2605,37.4287 C170.5425,37.0837 170.8255,36.6907 171.0935,36.2967 L168.4045,36.2967 Z M169.4895,41.0597 C169.5845,40.5407 169.6465,39.9907 169.6935,39.4407 L167.3055,39.4407 L167.3055,41.0597 L169.4895,41.0597 Z M175.6025,46.1517 C176.0905,46.1517 176.1855,45.8687 176.2475,44.2337 C176.7195,44.5947 177.6935,44.9567 178.3225,45.0987 C178.0865,47.4877 177.5055,48.1637 175.8235,48.1637 L173.9695,48.1637 C171.8625,48.1637 171.3595,47.5037 171.3595,45.5697 L171.3595,43.0717 C170.5115,45.3177 168.7345,47.2047 164.7595,48.3517 C164.5225,47.7707 163.9735,46.9207 163.4705,46.4347 C166.5035,45.6647 167.9965,44.4857 168.7825,43.0717 L165.0105,43.0717 L165.0105,39.7237 L164.7595,39.9117 C164.4135,39.3787 163.6745,38.5597 163.1555,38.1987 C165.2305,36.8157 166.6915,35.0087 167.5245,33.4207 L169.9925,33.9077 C169.8825,34.0967 169.7725,34.2697 169.6625,34.4587 L172.3965,34.4587 L172.7585,34.3647 L174.3615,35.3857 C174.0005,35.9987 173.4975,36.7377 172.9635,37.4287 L177.0185,37.4287 L177.0185,43.0717 L173.7485,43.0717 L173.7485,45.5387 C173.7485,46.0887 173.8275,46.1517 174.3465,46.1517 L175.6025,46.1517 Z" id="Fill-177" fill="#000000" mask="url(#mask-8)"></path>
                    <path d="M187.542,45.6324 L191.235,45.6324 L191.235,43.4174 L187.542,43.4174 L187.542,45.6324 Z M190.669,38.7964 L190.669,41.2634 L193.625,41.2634 L193.625,48.3834 L191.235,48.3834 L191.235,47.7864 L187.542,47.7864 L187.542,48.4464 L185.279,48.4464 L185.279,41.8924 L184.038,43.3224 C183.912,42.9444 183.739,42.4744 183.535,41.9864 L183.535,48.4464 L181.413,48.4464 L181.413,43.2434 C181.067,44.2494 180.658,45.1454 180.218,45.8214 C180.014,45.1614 179.527,44.1084 179.165,43.4794 C180.092,42.3164 180.878,40.2574 181.287,38.4974 L179.495,38.4974 L179.495,36.3924 L181.413,36.3924 L181.413,33.5154 L183.535,33.5154 L183.535,36.3924 L184.807,36.3924 L184.807,38.4974 L183.535,38.4974 L183.535,38.9694 C183.943,39.5344 184.933,41.0594 185.279,41.6564 L185.279,41.2634 L188.281,41.2634 L188.281,38.7964 L185.122,38.7964 L185.122,36.5954 L188.281,36.5954 L188.281,33.4994 L190.669,33.4994 L190.669,36.5954 L194.19,36.5954 L194.19,38.7964 L190.669,38.7964 Z" id="Fill-178" fill="#000000" mask="url(#mask-8)"></path>
                    <path d="M207.354,40.3844 L207.983,40.3844 L207.983,39.5194 L207.354,39.5194 L207.354,40.3844 Z M203.959,36.0154 L206.521,36.0154 L206.521,35.4334 L203.959,35.4334 L203.959,36.0154 Z M202.576,40.3834 L203.158,40.3834 L203.158,39.5184 L202.576,39.5184 L202.576,40.3834 Z M201.994,37.6174 L208.626,37.6174 L208.626,33.8454 L201.994,33.8454 L201.994,37.6174 Z M207.511,44.6744 C208.344,45.4294 209.444,46.1044 210.498,46.5134 C210.026,46.9214 209.366,47.6914 209.036,48.2264 C208.108,47.7234 207.197,46.9524 206.411,46.0734 L206.411,48.4464 L204.242,48.4464 L204.242,46.0734 C203.346,46.9684 202.278,47.7554 201.193,48.2414 C200.863,47.7384 200.203,46.9524 199.748,46.5444 C200.926,46.1364 202.121,45.4444 203.016,44.6744 L200.47,44.6744 L200.47,42.8194 L204.242,42.8194 L204.242,41.8764 L200.785,41.8764 L200.785,38.0264 L205.059,38.0264 L205.059,41.6564 L205.546,41.6564 L205.546,38.0264 L209.884,38.0264 L209.884,41.8764 L206.411,41.8764 L206.411,42.8194 L210.104,42.8194 L210.104,44.6744 L207.511,44.6744 Z M199.26,46.7654 C199.071,46.2924 198.773,45.6804 198.458,45.0674 C198.113,46.2924 197.579,47.4404 196.761,48.4774 C196.447,48.0064 195.755,47.2514 195.315,46.9364 C196.965,44.7534 197.154,41.8454 197.154,39.1884 L197.154,33.6884 L199.087,33.6884 L199.087,38.7184 C199.292,37.8524 199.48,36.8004 199.574,36.0154 L201.162,36.5794 C200.721,37.6964 200.344,39.0484 199.999,39.8644 L199.087,39.4874 C199.087,40.4624 199.055,41.4834 198.946,42.4744 C199.496,43.2904 200.423,44.8624 200.659,45.2554 L199.26,46.7654 Z M196.965,37.0524 C196.997,38.4504 196.824,40.3204 196.494,41.5154 L195.142,40.8544 C195.457,39.8494 195.614,38.1674 195.614,36.8934 L196.965,37.0524 Z" id="Fill-179" fill="#000000" mask="url(#mask-8)"></path>
                    <path d="M221.7124,38.4349 C221.9004,39.4409 222.1524,40.3999 222.4674,41.3109 C222.7184,40.4469 222.8914,39.4879 223.0014,38.4349 L221.7124,38.4349 Z M225.0914,38.4349 C224.8244,40.5559 224.3844,42.3639 223.6924,43.8719 C224.4004,44.9889 225.2964,45.8839 226.4114,46.5129 C225.9244,46.9209 225.2654,47.7389 224.9354,48.3039 C223.9444,47.6599 223.1274,46.8589 222.4514,45.8839 C221.5874,46.9679 220.4864,47.8489 219.0724,48.5399 C218.8834,48.0689 218.2864,47.1109 217.9094,46.6859 C219.4344,46.0259 220.5494,45.1149 221.3354,43.9039 C220.9424,43.0389 220.6284,42.0809 220.3454,41.0759 C220.1414,41.4679 219.9054,41.8299 219.6694,42.1599 C219.3394,41.7829 218.5064,41.0279 218.0504,40.7139 C219.3394,39.0799 220.0304,36.3609 220.3604,33.4989 L222.4364,33.7979 C222.3104,34.6629 222.1684,35.5109 221.9954,36.3289 L226.0504,36.3289 L226.0504,38.4349 L225.0914,38.4349 Z M214.9074,43.4019 C214.7974,43.6049 214.6874,43.8099 214.5774,44.0139 C214.9074,44.1709 215.2534,44.3439 215.5834,44.5169 C215.9134,44.1709 216.1954,43.8099 216.4324,43.4019 L214.9074,43.4019 Z M216.9354,47.5499 C216.6204,47.3139 216.2434,47.0469 215.8344,46.7809 C214.7974,47.5349 213.5564,48.0849 212.1724,48.4619 C211.9684,47.9579 211.5284,47.1579 211.1664,46.7489 C212.2204,46.5289 213.1784,46.1829 214.0114,45.7109 C213.2884,45.3339 212.5504,44.9719 211.8744,44.6899 C212.1414,44.3119 212.4244,43.8719 212.7074,43.4019 L211.7484,43.4019 L211.7484,41.5779 L213.6494,41.5779 C213.7914,41.2789 213.9014,40.9969 214.0114,40.7139 L216.0074,41.0909 C215.9444,41.2479 215.8824,41.4209 215.8034,41.5779 L217.4694,41.5779 L217.7994,41.5149 L219.0404,41.9549 C218.6484,43.3699 218.0504,44.5169 217.2654,45.4599 C217.6264,45.6799 217.9724,45.8839 218.2554,46.0889 L216.9354,47.5499 Z M214.3414,39.5659 C213.6814,40.1789 212.9274,40.7299 212.2354,41.1229 C211.9834,40.6349 211.4964,39.8799 211.0884,39.4719 C211.8904,39.1579 212.7544,38.6069 213.4614,37.9949 L211.4964,37.9949 L211.4964,36.2179 L212.5344,36.2179 C212.4084,35.6849 212.0944,34.9459 211.7644,34.3799 L213.3834,33.7049 C213.7754,34.2859 214.1684,35.0719 214.2944,35.6219 L212.9274,36.2179 L214.3414,36.2179 L214.3414,33.4989 L216.4324,33.4989 L216.4324,35.5579 C216.7624,35.0089 217.1544,34.2059 217.3744,33.6409 L219.2924,34.3799 C218.7424,35.0719 218.2554,35.7629 217.8614,36.2179 L216.4324,35.5889 L216.4324,36.2179 L219.2924,36.2179 L219.2924,37.9949 L217.4064,37.9949 C218.0194,38.3249 218.6324,38.6859 218.8674,38.8429 L217.6734,40.3999 C217.3744,40.1009 216.9034,39.6919 216.4324,39.2829 L216.4324,40.7139 L214.3414,40.7139 L214.3414,39.5659 Z" id="Fill-180" fill="#000000" mask="url(#mask-8)"></path>
                    <path d="M236.433,46.2924 L239.655,46.2924 L239.655,45.1774 L236.433,45.1774 L236.433,46.2924 Z M234.94,37.0364 L239.451,37.0364 L239.451,36.0464 L234.94,36.0464 L234.94,37.0364 Z M236.841,38.9694 L234.94,38.9694 C234.94,39.3464 234.94,39.7394 234.924,40.1634 L236.841,40.1634 L236.841,38.9694 Z M236.841,42.0654 L234.798,42.0654 C234.767,42.4744 234.72,42.8974 234.657,43.3224 L236.841,43.3224 L236.841,42.0654 Z M238.979,42.0654 L238.979,43.3224 L241.698,43.3224 L241.698,48.4314 L239.655,48.4314 L239.655,48.0854 L236.433,48.0854 L236.433,48.4314 L234.484,48.4314 L234.484,44.3594 C234.186,45.8994 233.699,47.3774 232.928,48.5094 C232.536,48.1164 231.577,47.4084 231.074,47.1734 C232.614,44.8784 232.724,41.4214 232.724,38.9694 L232.724,34.1124 L241.604,34.1124 L241.604,38.9694 L238.979,38.9694 L238.979,40.1634 L241.981,40.1634 L241.981,42.0654 L238.979,42.0654 Z M232.457,42.1434 C231.954,42.2844 231.451,42.4274 230.932,42.5674 L230.932,45.8374 C230.932,46.8274 230.791,47.3924 230.256,47.7384 C229.722,48.1014 228.983,48.1794 227.961,48.1794 C227.915,47.6124 227.664,46.6704 227.396,46.0734 C227.899,46.0894 228.417,46.0894 228.606,46.0894 C228.794,46.0894 228.858,46.0254 228.858,45.8214 L228.858,43.1344 L227.584,43.4644 L227.113,41.2784 C227.616,41.1844 228.213,41.0594 228.858,40.9014 L228.858,38.4814 L227.38,38.4814 L227.38,36.3924 L228.858,36.3924 L228.858,33.5304 L230.932,33.5304 L230.932,36.3924 L232.41,36.3924 L232.41,38.4814 L230.932,38.4814 L230.932,40.4154 L232.174,40.1014 L232.457,42.1434 Z" id="Fill-181" fill="#000000" mask="url(#mask-8)"></path>
                    <path d="M253.1489,44.3753 C252.7399,43.4173 251.7969,41.8763 251.0899,40.7143 L252.8809,39.7083 C253.5889,40.7763 254.6109,42.2693 255.0819,43.1963 L253.1489,44.3753 Z M245.9029,44.8473 L247.9619,44.8473 L247.9619,42.1443 L245.9029,42.1443 L245.9029,44.8473 Z M245.9029,40.1793 L247.9619,40.1793 L247.9619,38.0583 L245.9029,38.0583 L245.9029,40.1793 Z M257.7859,35.9193 C257.7859,35.9193 257.7859,36.6433 257.7689,36.9093 C257.5809,43.9033 257.4229,46.4503 256.7629,47.3133 C256.2769,48.0063 255.7899,48.1943 255.0979,48.3193 C254.4689,48.4313 253.4949,48.4143 252.5509,48.3833 C252.5199,47.7713 252.2059,46.7963 251.7969,46.1673 C252.8029,46.2613 253.7459,46.2613 254.1699,46.2613 C254.4849,46.2613 254.6579,46.1983 254.8619,45.9783 C255.3179,45.4913 255.5059,43.1813 255.6319,37.9943 L252.6459,37.9943 C252.2209,38.8903 251.7659,39.6913 251.3099,40.3363 C251.0269,40.0853 250.4929,39.6763 250.0209,39.3613 L250.0209,46.8433 L245.9039,46.8433 L245.9039,47.9583 L243.8439,47.9583 L243.8439,36.0773 L245.6359,36.0773 C245.7939,35.2753 245.9349,34.2853 245.9819,33.5153 L248.4809,33.8603 C248.2129,34.6313 247.9469,35.4173 247.6949,36.0773 L250.0209,36.0773 L250.0209,38.1673 C250.8069,36.8943 251.4829,35.1963 251.8909,33.5623 L254.0919,34.0813 C253.9199,34.6943 253.7139,35.3073 253.4949,35.9193 L257.7859,35.9193 Z" id="Fill-182" fill="#000000" mask="url(#mask-8)"></path>
                    <path d="M271.3901,45.7904 C271.7981,45.7904 271.8931,45.4134 271.9551,43.8104 C272.4581,44.1864 273.3691,44.5794 273.9981,44.7214 C273.7791,47.0624 273.1811,47.8804 271.6101,47.8804 L269.9751,47.8804 C268.0741,47.8804 267.5861,47.1884 267.5861,44.9254 L267.5861,36.5484 L264.4901,36.5484 C264.3321,37.0044 264.1441,37.4764 263.9551,37.9314 L265.5431,37.9314 L265.9361,37.8684 L267.4131,38.3884 C266.5491,43.5734 264.2391,46.7964 260.9691,48.3194 C260.6391,47.8024 259.8381,46.8744 259.3201,46.4974 C260.7181,45.9154 261.8971,45.0834 262.8241,43.9664 C262.3531,43.5424 261.8181,43.1184 261.3631,42.7884 L262.6041,41.1064 C263.0291,41.3734 263.5471,41.7354 264.0191,42.0814 C264.3171,41.4684 264.5691,40.7924 264.7571,40.0544 L262.9181,40.0544 C262.3211,41.1224 261.6141,42.0974 260.8281,42.8514 C260.4191,42.4114 259.6331,41.7354 259.1301,41.3904 C260.4351,40.2104 261.4561,38.3094 262.0541,36.5484 L259.5711,36.5484 L259.5711,34.3494 L273.7311,34.3494 L273.7311,36.5484 L269.8971,36.5484 L269.8971,39.9594 C270.7301,39.3464 271.4991,38.6864 272.1281,38.1044 L273.7631,40.0214 C272.5521,40.8544 271.2011,41.6564 269.8971,42.3634 L269.8971,44.9254 C269.8971,45.6954 269.9441,45.7904 270.3681,45.7904 L271.3901,45.7904 Z" id="Fill-183" fill="#000000" mask="url(#mask-8)"></path>
                    <path d="M286.9263,45.9945 C287.6973,45.9945 287.8223,45.6475 287.9323,43.6205 C288.4513,44.0145 289.4573,44.3905 290.1013,44.5485 C289.8343,47.3615 289.1903,48.1795 287.1153,48.1795 L284.5223,48.1795 C282.2433,48.1795 281.5203,47.5345 281.5203,45.2085 L281.5203,39.5035 L286.9263,39.5035 L286.9263,36.7535 L281.1743,36.7535 L281.1743,34.4895 L289.2373,34.4895 L289.2373,42.3955 L286.9263,42.3955 L286.9263,41.6565 L283.8773,41.6565 L283.8773,45.1925 C283.8773,45.8995 283.9883,45.9945 284.8053,45.9945 L286.9263,45.9945 Z M278.8173,37.8845 C278.2823,37.1145 277.0413,35.9195 276.1293,35.0875 L277.6383,33.6735 C278.5333,34.4275 279.8223,35.5265 280.4363,36.2655 L278.8173,37.8845 Z M280.6873,43.4485 C280.8133,44.0775 281.1273,45.0195 281.3633,45.4755 C278.6283,47.4875 278.0633,47.9585 277.7643,48.3355 C277.5603,47.8645 276.9623,47.0315 276.6013,46.7015 C276.9783,46.3715 277.4183,45.7265 277.4183,44.8315 L277.4183,40.4465 L275.2653,40.4465 L275.2653,38.2615 L279.6973,38.2615 L279.6973,44.1405 L280.6873,43.4485 Z" id="Fill-184" fill="#000000" mask="url(#mask-8)"></path>
                    <path d="M302.559,41.4534 L303.455,41.4534 L303.455,40.8084 L302.559,40.8084 L302.559,41.4534 Z M302.559,39.2514 L303.455,39.2514 L303.455,38.6234 L302.559,38.6234 L302.559,39.2514 Z M299.509,41.4524 L300.39,41.4524 L300.39,40.8074 L299.509,40.8074 L299.509,41.4524 Z M299.509,39.2514 L300.39,39.2514 L300.39,38.6234 L299.509,38.6234 L299.509,39.2514 Z M294.04,44.5794 L295.14,44.5794 L295.14,41.0444 L294.04,41.0444 L294.04,44.5794 Z M302.48,43.1344 C302.354,44.0144 302.103,44.8474 301.678,45.6014 C302.826,46.1044 304.303,46.3874 306.142,46.4974 C305.686,46.9684 305.121,47.8804 304.853,48.4774 C302.967,48.2574 301.49,47.8494 300.295,47.1884 C299.667,47.6914 298.865,48.1164 297.875,48.4464 C297.608,47.9744 296.948,47.0954 296.507,46.6704 C296.68,46.6384 296.837,46.6064 296.995,46.5594 L294.041,46.5594 L294.041,47.6914 L292.138,47.6914 L292.138,43.3534 C291.998,43.5424 291.856,43.7314 291.699,43.9034 C291.62,43.2744 291.243,41.7354 290.944,41.0594 C291.856,39.8334 292.468,38.0894 292.846,36.1864 L291.148,36.1864 L291.148,34.1284 L296.963,34.1284 L296.963,36.1864 L294.999,36.1864 C294.794,37.1454 294.543,38.1204 294.245,39.0634 L297.01,39.0634 L297.01,46.5594 C297.67,46.3874 298.206,46.1674 298.645,45.8994 C298.095,45.3024 297.624,44.5954 297.215,43.7784 L299.164,43.3694 C299.384,43.7634 299.635,44.1244 299.95,44.4384 C300.138,44.0294 300.249,43.5894 300.311,43.1344 L297.513,43.1344 L297.513,36.9414 L300.39,36.9414 L300.39,36.1554 L297.309,36.1554 L297.309,34.1284 L305.875,34.1284 L305.875,36.1554 L302.559,36.1554 L302.559,36.9414 L305.544,36.9414 L305.544,43.1344 L302.48,43.1344 Z" id="Fill-185" fill="#000000" mask="url(#mask-8)"></path>
                    <path d="M319.1333,37.7904 C319.5723,37.7904 319.6833,37.6014 319.7453,36.6744 C320.2013,36.9884 321.1293,37.3034 321.7413,37.4294 C321.5063,39.1734 320.9083,39.6914 319.3683,39.6914 L317.4193,39.6914 C315.3293,39.6914 314.8263,39.0794 314.8263,37.2084 L314.8263,33.4994 L317.1533,33.4994 L317.1533,34.9454 C318.1583,34.6624 319.1493,34.3324 319.8873,34.0344 L321.3333,35.6684 C320.0443,36.0934 318.5203,36.4384 317.1533,36.7064 L317.1533,37.1924 C317.1533,37.7284 317.2463,37.7904 317.7813,37.7904 L319.1333,37.7904 Z M311.5103,44.3114 L317.4833,44.3114 L317.4833,43.7474 L311.5103,43.7474 L311.5103,44.3114 Z M311.5103,42.2064 L317.4833,42.2064 L317.4833,41.6724 L311.5103,41.6724 L311.5103,42.2064 Z M319.8403,46.2294 C319.8403,47.2824 319.5883,47.8024 318.8343,48.1164 C318.0953,48.4144 317.1063,48.4314 315.8173,48.4314 C315.7223,47.8334 315.4073,47.0004 315.1253,46.4504 C315.8013,46.4974 316.8693,46.4974 317.1063,46.4974 C317.3883,46.4814 317.4833,46.4194 317.4833,46.1984 L317.4833,45.8534 L311.5103,45.8534 L311.5103,48.4624 L309.1843,48.4624 L309.1843,40.0544 L319.8403,40.0544 L319.8403,46.2294 Z M311.2433,38.8114 C310.0013,39.0164 308.7763,39.2204 307.7543,39.3944 L307.4553,37.5384 C308.4613,37.4444 309.8133,37.2704 311.2433,37.0834 L311.2433,36.3284 L307.8173,36.3284 L307.8173,34.6004 L311.2433,34.6004 L311.2433,33.4994 L313.5373,33.4994 L313.5373,39.8024 L311.2433,39.8024 L311.2433,38.8114 Z" id="Fill-186" fill="#000000" mask="url(#mask-8)"></path>
                    <path d="M325.147,46.2298 C324.283,46.2298 323.465,45.6478 323.465,44.6588 C323.465,43.6998 324.251,43.0868 325.209,43.0868 C326.452,43.0868 327.112,43.9988 327.112,45.4448 C327.112,47.2668 325.901,48.8078 323.78,49.3888 L323.198,47.8798 C324.409,47.5498 325.131,46.9058 325.257,46.2298 L325.147,46.2298 Z" id="Fill-187" fill="#000000" mask="url(#mask-8)"></path>
                    <path d="M334.729,37.5697 C334.194,36.9247 333.047,35.8407 332.277,35.0877 L333.628,33.6097 C334.383,34.2857 335.578,35.2917 336.159,35.9037 L334.729,37.5697 Z M346.091,45.7587 L346.091,48.0067 L335.892,48.0067 L335.892,46.0417 C334.116,47.5657 333.691,47.9737 333.44,48.3357 C333.172,47.9587 332.387,47.2827 331.994,47.0477 C332.481,46.5907 333.314,45.5857 333.314,44.4547 L333.314,40.5087 L331.255,40.5087 L331.255,38.3247 L335.452,38.3247 L335.452,43.8257 L336.756,42.7417 C336.898,43.3697 337.228,44.2647 337.448,44.7057 L336.222,45.7587 L339.413,45.7587 L339.413,33.6887 L341.77,33.6887 L341.77,38.3407 L345.165,38.3407 L345.165,40.5407 L341.77,40.5407 L341.77,45.7587 L346.091,45.7587 Z" id="Fill-188" fill="#000000" mask="url(#mask-8)"></path>
                    <path d="M356.3804,43.5267 C358.4704,44.3287 360.7494,45.5697 361.9434,46.4817 L360.4664,48.2727 C359.3034,47.2827 357.1964,45.9947 355.2014,45.1767 L356.3804,43.5267 Z M352.7964,37.4137 C352.0424,36.7687 350.3924,35.9197 349.1184,35.4487 L350.3454,33.8297 C351.5864,34.2217 353.2684,34.9617 354.1164,35.6057 L352.7964,37.4137 Z M356.0504,42.5677 C355.0444,45.2707 352.9384,47.2667 348.4274,48.4307 C348.1924,47.8487 347.6094,47.0007 347.1224,46.5127 C350.6584,45.6647 352.5144,44.3757 353.4874,42.5677 L347.3904,42.5677 L347.3904,40.4627 L351.2094,40.4627 C350.3924,39.8017 348.8674,39.0007 347.6574,38.5127 L348.9774,36.9097 C350.2504,37.3497 351.9634,38.1517 352.8124,38.8427 L351.4914,40.4627 L354.2274,40.4627 C354.6194,38.5757 354.5574,36.2817 354.5724,33.5467 L356.9614,33.5467 C356.9454,36.1247 356.9454,38.4507 356.6004,40.4627 L361.7554,40.4627 L361.7554,42.5677 L356.0504,42.5677 Z" id="Fill-189" fill="#000000" mask="url(#mask-8)"></path>
                    <path d="M71.7603,63.7474 C71.4773,64.6594 71.1473,65.5554 70.7703,66.4034 C71.1313,66.8434 71.4613,67.2684 71.7603,67.6774 L71.7603,63.7474 Z M71.7603,70.6004 L71.7603,69.1384 L70.7703,69.9394 C70.5333,69.4684 70.1883,68.9184 69.7643,68.3214 C69.3083,69.0754 68.8213,69.7514 68.2863,70.3174 C68.1143,70.0814 67.7833,69.6734 67.4533,69.3274 L67.4533,70.6004 L71.7603,70.6004 Z M67.4533,68.2264 C67.8303,67.7704 68.1923,67.2524 68.5063,66.6864 C68.1603,66.2624 67.7993,65.8374 67.4533,65.4444 L67.4533,68.2264 Z M68.3803,63.7634 C68.7103,64.0934 69.0563,64.4544 69.4033,64.8314 C69.6853,64.0934 69.9373,63.3084 70.1253,62.5064 L71.9953,62.9314 L71.8853,63.3234 L73.8343,63.3234 L73.8343,73.2244 L71.7603,73.2244 L71.7603,72.7064 L65.3633,72.7064 L65.3633,63.3084 L67.4533,63.3084 L67.4533,64.4854 L68.3803,63.7634 Z M74.1803,62.5064 L65.1123,62.5064 L65.1123,60.3684 L68.4123,60.3684 C68.1763,59.8964 67.8943,59.3934 67.6573,58.9704 L69.7003,58.2784 C70.1103,58.9074 70.5973,59.7244 70.9113,60.3684 L74.1803,60.3684 L74.1803,62.5064 Z M62.1103,62.6014 L62.9123,62.6014 L62.9123,60.6364 L62.1103,60.6364 L62.1103,62.6014 Z M62.9113,66.1364 L62.9113,64.4234 L62.1103,64.4234 L62.1103,64.6904 C62.1103,65.1304 62.1103,65.6184 62.0943,66.1364 L62.9113,66.1364 Z M64.7973,70.9614 C64.7973,71.8254 64.6873,72.3924 64.1843,72.7224 C63.6813,73.0674 63.0533,73.1144 62.1723,73.1144 C62.1253,72.5804 61.8593,71.6694 61.6073,71.1494 C62.0473,71.1814 62.5183,71.1814 62.6923,71.1814 C62.8643,71.1814 62.9113,71.1184 62.9113,70.9304 L62.9113,68.0224 L61.9843,68.0224 C61.8423,69.9084 61.5293,71.8884 60.9153,73.3194 C60.5853,72.9414 59.7213,72.2344 59.2963,72.0154 C60.0983,69.9554 60.1453,66.9224 60.1453,64.7064 L60.1453,58.8914 L64.7973,58.8914 L64.7973,70.9614 Z" id="Fill-190" fill="#000000" mask="url(#mask-8)"></path>
                    <path d="M86.4194,65.8851 L84.0464,65.8851 L84.0464,66.3251 L84.0464,66.5921 L86.4194,66.5921 L86.4194,65.8851 Z M84.0464,64.2031 L86.4194,64.2031 L86.4194,63.5121 L84.0464,63.5121 L84.0464,64.2031 Z M79.3154,68.4151 C79.6924,68.8081 80.1024,69.1381 80.5414,69.4211 C80.8564,69.1071 81.0924,68.7771 81.2654,68.4151 L79.3154,68.4151 Z M79.2214,66.5921 L81.6424,66.5921 L81.6424,66.2941 L81.6424,65.8851 L79.2214,65.8851 L79.2214,66.5921 Z M79.2214,64.2031 L81.6424,64.2031 L81.6424,63.5121 L79.2214,63.5121 L79.2214,64.2031 Z M83.7794,68.4151 C83.5744,69.1071 83.2604,69.7671 82.7734,70.3491 C84.8164,70.8821 87.3474,70.8511 90.3804,70.7731 C89.9724,71.2911 89.5474,72.2661 89.4214,73.0361 C86.1054,73.0051 83.1974,72.8471 80.8714,71.9051 C79.8344,72.4861 78.4824,72.9421 76.7704,73.2721 C76.5184,72.7531 75.8734,71.7631 75.3704,71.2441 C76.6754,71.0721 77.7284,70.8351 78.5454,70.5531 C78.0424,70.1131 77.5714,69.6101 77.1474,69.0291 L78.6714,68.4151 L77.0684,68.4151 L77.0684,61.6891 L81.6424,61.6891 L81.6424,60.9971 L75.7484,60.9971 L75.7484,58.9701 L89.6894,58.9701 L89.6894,60.9971 L84.0464,60.9971 L84.0464,61.6891 L88.6834,61.6891 L88.6834,68.4151 L83.7794,68.4151 Z" id="Fill-191" fill="#000000" mask="url(#mask-8)"></path>
                    <path d="M105.6685,66.3255 C103.4375,71.1965 98.3765,72.7535 92.0735,73.3035 C91.9165,72.6755 91.5395,71.6695 91.1785,71.1025 C93.5825,70.9775 95.7995,70.6795 97.6695,70.1125 C97.3395,69.8135 96.9785,69.5305 96.6635,69.2965 L98.5495,68.2115 C98.9735,68.4935 99.4605,68.8545 99.9005,69.2175 C100.7655,68.7615 101.5205,68.2115 102.1165,67.5515 L98.9265,67.5515 C97.7005,68.3525 96.2705,69.0445 94.6045,69.6575 C94.3375,69.1225 93.6925,68.2735 93.2215,67.8815 C96.1295,67.0325 98.1565,65.8055 99.4135,64.4855 C97.3865,65.6185 94.9815,66.3415 92.4515,66.7965 C92.2465,66.2155 91.7915,65.2885 91.3975,64.8005 C92.9065,64.5965 94.3685,64.2665 95.7205,63.8255 C95.3905,63.5275 95.0445,63.2445 94.7455,62.9935 L96.4585,61.9405 C96.8675,62.2385 97.3555,62.6165 97.7945,62.9935 C98.6275,62.5685 99.3825,62.0965 100.0115,61.5475 L96.3805,61.5475 C95.4525,62.1435 94.4315,62.6945 93.2685,63.1975 C92.9385,62.6795 92.2305,61.9085 91.7285,61.5625 C94.2735,60.6825 96.1455,59.4565 97.2445,58.2625 L99.6965,58.8285 C99.4605,59.0795 99.2095,59.3155 98.9575,59.5515 L101.8505,59.5515 L102.2275,59.4565 L103.7355,60.3375 C102.8875,61.8615 101.6455,63.0875 100.1365,64.0465 L102.3375,64.5495 C102.0385,64.8945 101.7395,65.2245 101.4255,65.5395 L103.6735,65.5395 L104.0815,65.4295 L105.6685,66.3255 Z" id="Fill-192" fill="#000000" mask="url(#mask-8)"></path>
                    <path d="M116.604,69.1849 C116.195,68.2269 115.252,66.6869 114.545,65.5239 L116.336,64.5179 C117.044,65.5859 118.066,67.0799 118.537,68.0069 L116.604,69.1849 Z M109.358,69.6579 L111.417,69.6579 L111.417,66.9549 L109.358,66.9549 L109.358,69.6579 Z M109.358,64.9899 L111.417,64.9899 L111.417,62.8679 L109.358,62.8679 L109.358,64.9899 Z M121.241,60.7299 C121.241,60.7299 121.241,61.4529 121.224,61.7199 C121.036,68.7139 120.878,71.2599 120.218,72.1239 C119.732,72.8159 119.245,73.0049 118.553,73.1299 C117.924,73.2409 116.95,73.2239 116.006,73.1929 C115.975,72.5809 115.661,71.6059 115.252,70.9779 C116.258,71.0719 117.201,71.0719 117.625,71.0719 C117.94,71.0719 118.113,71.0089 118.317,70.7889 C118.773,70.3019 118.961,67.9919 119.087,62.8039 L116.101,62.8039 C115.676,63.7009 115.221,64.5009 114.765,65.1459 C114.482,64.8949 113.948,64.4859 113.476,64.1709 L113.476,71.6539 L109.359,71.6539 L109.359,72.7689 L107.299,72.7689 L107.299,60.8869 L109.091,60.8869 C109.249,60.0849 109.39,59.0949 109.437,58.3259 L111.936,58.6709 C111.668,59.4409 111.402,60.2269 111.15,60.8869 L113.476,60.8869 L113.476,62.9779 C114.262,61.7049 114.938,60.0069 115.346,58.3719 L117.547,58.8909 C117.375,59.5039 117.169,60.1169 116.95,60.7299 L121.241,60.7299 Z" id="Fill-193" fill="#000000" mask="url(#mask-8)"></path>
                    <path d="M135.3657,67.4876 C136.1987,68.6516 137.0627,70.1596 137.3457,71.2756 L135.1147,72.2176 C134.8937,71.1656 134.1247,69.5626 133.3227,68.3376 L135.3657,67.4876 Z M130.8707,64.7066 L133.2607,64.7066 L133.2607,63.7166 L130.8707,63.7166 L130.8707,64.7066 Z M130.8707,61.8926 L133.2607,61.8926 L133.2607,60.9346 L130.8707,60.9346 L130.8707,61.8926 Z M126.1867,64.7066 L128.6547,64.7066 L128.6547,63.7166 L126.1867,63.7166 L126.1867,64.7066 Z M126.1867,61.8926 L128.6547,61.8926 L128.6547,60.9346 L126.1867,60.9346 L126.1867,61.8926 Z M131.3267,70.9146 C131.9247,70.9146 132.0337,70.7106 132.1287,69.2486 C132.5847,69.5936 133.5737,69.9396 134.1867,70.0816 C133.9357,72.3916 133.3067,72.9726 131.5147,72.9726 L129.2047,72.9726 C126.9107,72.9726 126.3597,72.3296 126.3597,70.4116 L126.3597,68.1326 L128.6707,68.1326 C128.4347,67.9916 128.1987,67.8486 127.9787,67.7236 L129.0947,66.6716 L124.0347,66.6716 L124.0347,58.9696 L135.5227,58.9696 L135.5227,66.6716 L130.1787,66.6716 C131.0917,67.1736 132.0497,67.8336 132.5677,68.3996 L130.9337,69.9556 C130.4777,69.4056 129.5667,68.6986 128.6707,68.1326 L128.6707,70.3806 C128.6707,70.8666 128.7967,70.9146 129.5037,70.9146 L131.3267,70.9146 Z M122.4307,71.1496 C123.1227,70.2226 123.7197,68.8706 124.0507,67.5506 L126.1247,68.3056 C125.7477,69.6736 125.2137,71.2446 124.4897,72.2976 L122.4307,71.1496 Z" id="Fill-194" fill="#000000" mask="url(#mask-8)"></path>
                    <path d="M145.8452,62.6009 L146.5682,62.6009 C146.9452,62.3019 147.3232,61.9879 147.6842,61.6729 L145.8452,61.6729 L145.8452,62.6009 Z M147.3232,64.5009 C146.8982,64.8159 146.4742,65.1149 146.0492,65.4139 L150.9522,65.4139 L150.9522,67.1259 L145.2002,67.1259 C145.0592,67.4249 144.9172,67.7399 144.7602,68.0379 L150.6862,68.0379 C150.6862,68.0379 150.6222,68.6519 150.5442,68.9499 C150.1992,70.9609 149.8062,72.0619 149.2242,72.5799 C148.6902,73.0519 148.1402,73.1769 147.2752,73.2239 C146.6622,73.2719 145.6572,73.2719 144.5722,73.2409 C144.5402,72.5959 144.2262,71.7159 143.8022,71.1339 C144.8242,71.2119 146.0962,71.2449 146.5992,71.2449 C146.9452,71.2449 147.1812,71.2289 147.4012,71.0869 C147.6372,70.9299 147.8412,70.5209 148.0302,69.8609 L141.3972,69.8609 C141.8222,69.1689 142.3242,68.2739 142.7482,67.3939 C141.5232,68.0379 140.2662,68.6209 139.0242,69.1069 C138.8982,68.5879 138.4742,67.5509 138.2062,67.0479 C140.0932,66.4189 141.9942,65.5549 143.7712,64.5009 L138.7252,64.5009 L138.7252,62.6009 L143.5812,62.6009 L143.5812,61.6729 L140.0302,61.6729 L140.0302,59.8339 L143.5812,59.8339 L143.5812,58.3259 L145.8452,58.3259 L145.8452,59.8339 L148.8782,59.8339 L148.8782,60.5409 C149.3972,60.0069 149.8682,59.4719 150.2922,58.9079 L152.0532,59.9129 C151.3302,60.8559 150.4972,61.7509 149.5852,62.6009 L152.6032,62.6009 L152.6032,64.5009 L147.3232,64.5009 Z" id="Fill-195" fill="#000000" mask="url(#mask-8)"></path>
                    <path d="M161.8726,67.2054 C162.2966,67.8814 162.8476,68.4774 163.5076,69.0134 C164.1036,68.4934 164.6066,67.8964 165.0166,67.2054 L161.8726,67.2054 Z M162.7056,60.9024 C162.6266,62.4424 162.0606,64.0614 159.9706,65.0054 C159.7036,64.5644 158.8866,63.6694 158.4776,63.3394 C160.3946,62.5684 160.5836,61.5164 160.5836,60.4774 L160.5836,58.7964 L166.5876,58.7964 L166.5876,62.1284 C166.5876,62.5854 166.6186,62.7884 166.8386,62.7884 L167.4986,62.7884 C167.7666,62.7884 168.1896,62.7414 168.4266,62.6634 C168.4576,63.2284 168.5046,64.0154 168.5836,64.5334 C168.3156,64.6594 167.8926,64.6754 167.5306,64.6754 L166.6186,64.6754 C164.7956,64.6754 164.4346,63.8894 164.4346,62.0974 L164.4346,60.9024 L162.7056,60.9024 Z M167.9236,65.5864 C167.3896,67.5354 166.5246,69.0284 165.3616,70.1594 C166.3676,70.6474 167.5306,71.0094 168.8186,71.2284 C168.3476,71.7164 167.7346,72.6434 167.4516,73.2564 C165.9116,72.8934 164.5916,72.3454 163.4436,71.6214 C162.1866,72.3454 160.7256,72.8474 159.0906,73.2084 C158.8866,72.6274 158.4306,71.7164 158.0536,71.2284 C159.4046,71.0244 160.6306,70.6794 161.6846,70.1594 C160.9446,69.4054 160.3156,68.5244 159.7816,67.5184 L160.7096,67.2054 L159.3576,67.2054 L159.3576,65.0834 L166.1626,65.0834 L166.5246,65.0054 L167.9236,65.5864 Z M157.2986,62.4584 C156.7956,61.7354 155.6486,60.6204 154.7836,59.8504 L156.2456,58.4664 C157.0946,59.1584 158.3046,60.1954 158.8546,60.8874 L157.2986,62.4584 Z M158.9016,67.5664 C159.0906,68.1794 159.4836,69.0444 159.7666,69.4684 C156.7796,72.1554 156.1986,72.6754 155.8996,73.0994 C155.7266,72.5484 155.1616,71.5904 154.7836,71.1654 C155.1616,70.8824 155.5696,70.3024 155.5696,69.5474 L155.5696,65.3044 L153.8726,65.3044 L153.8726,63.1184 L157.7696,63.1184 L157.7696,68.5884 L158.9016,67.5664 Z" id="Fill-196" fill="#000000" mask="url(#mask-8)"></path>
                    <path d="M184.3901,65.5238 L180.9641,65.5238 L180.9641,73.2558 L178.4961,73.2558 L178.4961,65.5238 L174.8341,65.5238 L174.8341,63.1338 L178.4961,63.1338 L178.4961,58.4038 L180.9641,58.4038 L180.9641,63.1338 L184.3901,63.1338 L184.3901,65.5238 Z M173.3731,62.3798 C172.8381,61.6888 171.6281,60.6358 170.7331,59.8968 L172.1791,58.4198 C173.0591,59.0798 174.3311,60.0538 174.9131,60.7298 L173.3731,62.3798 Z M175.5741,67.8338 C175.7001,68.4938 176.0451,69.4838 176.2811,69.9558 C172.9801,72.3768 172.3351,72.8938 172.0051,73.3198 C171.8321,72.7218 171.2831,71.6698 170.9061,71.1808 C171.3141,70.9148 171.8171,70.3488 171.8171,69.6268 L171.8171,65.3818 L169.6481,65.3818 L169.6481,63.1188 L174.1591,63.1188 L174.1591,68.8388 L175.5741,67.8338 Z" id="Fill-197" fill="#000000" mask="url(#mask-8)"></path>
                    <path d="M196.2056,68.431 C195.2626,67.033 194.5086,65.382 193.8946,63.638 L193.8946,68.431 L196.2056,68.431 Z M191.4596,68.431 L191.4596,63.559 L191.4436,63.559 C190.8306,65.351 190.0286,67.017 189.0546,68.431 L191.4596,68.431 Z M196.2056,63.559 C197.1176,65.665 198.5006,67.661 200.1666,68.887 C199.5846,69.359 198.7516,70.27 198.3436,70.914 C197.8406,70.474 197.3686,69.988 196.9286,69.437 L196.9286,70.757 L193.8946,70.757 L193.8946,73.256 L191.4596,73.256 L191.4596,70.757 L188.3626,70.757 L188.3626,69.359 C187.8756,69.972 187.3416,70.521 186.7606,70.994 C186.3666,70.427 185.6126,69.578 185.0786,69.138 C186.7756,67.897 188.2056,65.79 189.1016,63.559 L185.6906,63.559 L185.6906,61.233 L191.4596,61.233 L191.4596,58.326 L193.8946,58.326 L193.8946,61.233 L199.7106,61.233 L199.7106,63.559 L196.2056,63.559 Z" id="Fill-198" fill="#000000" mask="url(#mask-8)"></path>
                    <path d="M210.8188,69.264 C210.0018,69.876 209.1528,70.443 208.2408,70.946 C209.0898,70.993 210.1108,70.993 210.4098,70.993 C210.7088,70.978 210.8188,70.882 210.8188,70.616 L210.8188,69.264 Z M210.4568,66.922 C210.5828,66.812 210.6928,66.702 210.8188,66.592 L210.8188,66.215 L205.8048,66.215 L205.8048,66.922 L210.4568,66.922 Z M205.8048,64.612 L210.8188,64.612 L210.8188,63.952 L205.8048,63.952 L205.8048,64.612 Z M205.8048,62.349 L210.8188,62.349 L210.8188,61.736 L205.8048,61.736 L205.8048,62.349 Z M215.7068,63.905 C214.9358,65.161 214.0408,66.294 213.0348,67.316 L213.0348,70.648 C213.0348,71.81 212.8138,72.423 212.0908,72.785 C211.3688,73.146 210.3788,73.193 208.9318,73.193 C208.8538,72.58 208.5238,71.559 208.2098,70.978 C206.4808,71.952 204.5938,72.738 202.6148,73.351 C202.3318,72.863 201.6398,71.952 201.2308,71.511 C203.5888,70.899 205.7568,70.035 207.6748,68.903 L201.5768,68.903 L201.5768,66.922 L203.5418,66.922 L203.5418,59.786 L206.8418,59.786 C207.0148,59.269 207.1568,58.734 207.2508,58.279 L209.9378,58.53 C209.7338,58.954 209.4988,59.378 209.2618,59.786 L213.0348,59.786 L213.0348,64.077 C213.2858,63.732 213.5068,63.37 213.7258,62.993 L215.7068,63.905 Z" id="Fill-199" fill="#000000" mask="url(#mask-8)"></path>
                    <path d="M220.7476,70.4583 C220.7476,69.7353 220.1666,69.1533 219.4426,69.1533 C218.7356,69.1533 218.1396,69.7353 218.1396,70.4583 C218.1396,71.1813 218.7356,71.7633 219.4426,71.7633 C220.1666,71.7633 220.7476,71.1813 220.7476,70.4583 M222.0676,70.4583 C222.0676,71.9043 220.9046,73.0833 219.4426,73.0833 C217.9976,73.0833 216.8186,71.9043 216.8186,70.4583 C216.8186,69.0133 217.9976,67.8333 219.4426,67.8333 C220.9046,67.8333 222.0676,69.0133 222.0676,70.4583" id="Fill-200" fill="#000000" mask="url(#mask-8)"></path>
                    <polygon id="Fill-201" fill="#000000" mask="url(#mask-8)" points="362.393 82.6634 367.143 82.6634 367.143 72.9004 362.393 72.9004"></polygon>
                    <polygon id="Fill-202" fill="#000000" mask="url(#mask-8)" points="359.438 79.1014 365.638 79.1014 365.638 72.9014 359.438 72.9014"></polygon>
                    <polygon id="Fill-203" fill="#000000" mask="url(#mask-8)" points="371.778 82.6634 376.528 82.6634 376.528 72.9004 371.778 72.9004"></polygon>
                    <polygon id="Fill-204" fill="#000000" mask="url(#mask-8)" points="368.822 79.1014 375.022 79.1014 375.022 72.9014 368.822 72.9014"></polygon>
                    <polygon id="Fill-205" fill="#000000" mask="url(#mask-8)" points="48.547 28.6054 53.296 28.6054 53.296 18.8414 48.547 18.8414"></polygon>
                    <polygon id="Fill-206" fill="#000000" mask="url(#mask-8)" points="50.052 28.6044 56.252 28.6044 56.252 22.4044 50.052 22.4044"></polygon>
                    <polygon id="Fill-207" fill="#000000" mask="url(#mask-8)" points="39.163 28.6054 43.913 28.6054 43.913 18.8414 39.163 18.8414"></polygon>
                    <polygon id="Fill-208" fill="#000000" mask="url(#mask-8)" points="40.667 28.6044 46.867 28.6044 46.867 22.4044 40.667 22.4044"></polygon>
                </g>
            </g>
        </g>
    </g>
</svg>