<?xml version="1.0" encoding="UTF-8"?>
<svg width="220px" height="278px" viewBox="0 0 220 278" version="1.1" xmlns="http://www.w3.org/2000/svg" xmlns:xlink="http://www.w3.org/1999/xlink">
    <title>斗西宝典-类别2备份 9</title>
    <defs>
        <polygon id="path-1" points="0.736871127 0.478 98.7347744 0.478 98.7347744 53.3274925 0.736871127 53.3274925"></polygon>
    </defs>
    <g id="页面-1" stroke="none" stroke-width="1" fill="none" fill-rule="evenodd">
        <g id="斗西宝典-首页" transform="translate(-852.000000, -348.000000)">
            <g id="编组-19" transform="translate(852.000000, 348.000000)">
                <g id="编组" transform="translate(18.000000, 21.000000)">
                    <path d="M177.941,198.5757 C180.399,206.2147 180.435,215.1637 175.729,221.6667 C170.897,228.3557 161.996,231.0917 153.761,230.6097 C147.066,230.2137 139.487,227.8507 131.355,224.2817 C142.03,218.5057 165.993,205.3967 177.676,197.8727 L177.737,197.9687 C177.809,198.1727 177.875,198.3707 177.941,198.5757" id="Fill-1" fill="#F2F2F2"></path>
                    <path d="M124.6363,222.3218 C123.4403,219.0048 121.7393,215.7828 119.7073,212.7178 C118.3553,210.6748 116.8523,208.6968 115.2533,206.8158 C113.6603,204.9398 111.9723,203.1548 110.2293,201.4718 C108.3843,199.6868 106.4733,198.0158 104.5613,196.4958 C102.7703,195.0648 100.9733,193.7608 99.2303,192.6008 C95.9243,190.4078 92.7933,188.7428 90.1603,187.7388 C89.4573,187.4678 88.7963,187.2458 88.1713,187.0718 C89.8783,184.8298 91.1343,182.7618 92.0483,180.8148 L92.0483,180.8088 C96.6273,180.7008 104.0563,178.6338 109.5733,174.1368 L110.1573,178.0868 C127.4603,178.0868 143.8573,168.0128 151.5683,160.5358 C151.7303,160.6088 151.8923,160.6748 152.0553,160.7528 C166.6653,167.1478 180.6393,178.0388 183.3743,193.8148 C182.2683,194.7948 180.2793,196.1948 177.6763,197.8728 C165.9923,205.3968 142.0303,218.5058 131.3553,224.2818 C128.0433,226.0728 126.0123,227.1608 126.0123,227.1608 C125.6813,225.5318 125.2193,223.9148 124.6363,222.3218" id="Fill-3" fill="#C8CECB"></path>
                    <path d="M105.9683,149.5977 C101.8633,150.3667 97.7573,150.8117 93.8873,150.9677 L113.3723,91.8087 C114.5383,90.6067 115.6383,89.3087 116.6363,87.9197 C117.7303,86.3877 118.7093,84.7527 119.5153,83.0157 C139.2293,88.5027 155.3423,105.6447 159.6823,125.8687 C161.9363,136.3567 160.9973,147.9927 154.8853,156.7617 C154.1043,157.8797 152.9803,159.1657 151.5683,160.5357 C143.8573,168.0137 127.4603,178.0867 110.1563,178.0867 L109.5733,174.1377 L106.9953,156.5637 L106.9893,156.5637 L105.9683,149.5977 Z" id="Fill-5" fill="#C8CECB"></path>
                    <path d="M117.2613,39.0923 C117.2313,38.2693 117.1643,37.4513 117.0693,36.6403 C116.8343,34.6813 116.4133,32.7513 115.7523,30.8703 C115.2593,29.4463 114.6343,28.0453 113.8593,26.6933 C113.7453,26.4953 113.6313,26.3023 113.5043,26.1043 C109.2803,19.2463 100.7393,13.6993 90.9303,13.1883 C80.8443,13.7113 72.1003,19.5653 68.0013,26.6933 C64.8453,32.1863 64.0823,38.2033 64.7193,44.1893 C65.0323,47.1523 63.5713,50.0493 60.9393,51.4553 C59.0273,52.4773 57.2843,53.7583 55.8003,55.3623 C55.1633,55.8853 54.6283,56.5643 54.2013,57.3583 C53.0473,59.4973 52.6983,62.4843 53.4503,65.5623 C53.8413,67.1483 54.2313,68.6453 54.6883,69.9433 C47.8423,68.2363 43.5873,58.3733 43.5873,52.3453 C40.5823,31.6033 56.8943,6.7153 81.5603,3.3853 C83.7903,3.0853 88.5863,2.5023 90.9003,2.5023 C93.4303,2.5023 95.9123,2.6883 98.3343,3.0493 C122.7063,6.6433 138.8803,25.1843 138.2133,52.3453 C138.2133,60.2423 132.6123,72.3833 129.4323,69.0113 C129.7623,67.9473 130.0633,66.7813 130.3643,65.5623 C131.6563,60.2603 129.6913,55.2303 125.9643,54.3163 C125.5853,54.2263 125.2003,54.1783 124.8223,54.1723 C123.7643,53.4813 122.6223,52.8263 121.4383,52.2183 C118.4513,50.6983 116.7813,47.4773 117.1053,44.1473 C117.2733,42.4643 117.3333,40.7753 117.2613,39.0923" id="Fill-7" fill="#060001"></path>
                    <path d="M81.524,88.0703 C81.825,87.8603 81.753,87.1803 81.35,86.5193 C80.947,85.8643 80.31,85.5093 79.956,85.7563 C79.781,85.8823 79.709,86.1173 79.745,86.3993 C79.781,86.6883 79.92,87.0183 80.148,87.3313 C80.376,87.6433 80.647,87.8783 80.893,88.0103 C81.139,88.1423 81.368,88.1783 81.524,88.0703 M85.876,99.7723 C85.972,99.2013 85.797,98.6963 85.491,98.6423 C85.191,98.5943 84.86,99.0153 84.752,99.5803 C84.649,100.1513 84.824,100.6553 85.136,100.7103 C85.455,100.7703 85.785,100.3493 85.876,99.7723 M88.135,100.0853 C88.202,99.5133 88.003,99.0153 87.703,98.9733 C87.396,98.9373 87.084,99.3693 87.005,99.9403 C86.921,100.5173 87.12,101.0163 87.438,101.0583 C87.757,101.0943 88.069,100.6613 88.135,100.0853 M88.202,97.2423 C88.304,96.6713 88.166,96.1663 87.889,96.1123 C87.612,96.0583 87.288,96.4663 87.162,97.0313 C87.036,97.5963 87.174,98.1073 87.474,98.1673 C87.775,98.2273 88.099,97.8133 88.202,97.2423 M89.656,92.7283 C89.656,92.1453 89.398,91.6763 89.073,91.6763 C88.749,91.6763 88.484,92.1453 88.484,92.7283 C88.484,93.3053 88.749,93.7743 89.073,93.7743 C89.398,93.7743 89.656,93.3053 89.656,92.7283 M90.311,97.5303 C90.365,96.9533 90.179,96.4603 89.903,96.4303 C89.626,96.4003 89.337,96.8333 89.253,97.4103 C89.175,97.9813 89.356,98.4803 89.662,98.5163 C89.968,98.5523 90.263,98.1073 90.311,97.5303 M90.401,100.2893 C90.437,99.7123 90.221,99.2253 89.915,99.2013 C89.608,99.1773 89.319,99.6283 89.265,100.2053 C89.217,100.7823 89.434,101.2693 89.758,101.2933 C90.077,101.3223 90.372,100.8723 90.401,100.2893 M92.006,92.7283 C92.006,92.1453 91.748,91.6763 91.423,91.6763 C91.098,91.6763 90.834,92.1453 90.834,92.7283 C90.834,93.3053 91.098,93.7743 91.423,93.7743 C91.748,93.7743 92.006,93.3053 92.006,92.7283 M91.892,98.6663 C92.205,98.6663 92.451,98.1973 92.439,97.6143 C92.426,97.0373 92.199,96.5693 91.921,96.5693 C91.645,96.5563 91.399,97.0193 91.375,97.6023 C91.345,98.1793 91.58,98.6543 91.892,98.6663 M92.09,101.4073 C92.415,101.4193 92.679,100.9443 92.679,100.3673 C92.679,99.7843 92.439,99.3213 92.132,99.3093 C91.826,99.3033 91.561,99.7663 91.544,100.3433 C91.519,100.9263 91.765,101.4013 92.09,101.4073 M94.356,92.7283 C94.356,92.1453 94.091,91.6763 93.767,91.6763 C93.443,91.6763 93.184,92.1453 93.184,92.7283 C93.184,93.3053 93.443,93.7743 93.767,93.7743 C94.091,93.7743 94.356,93.3053 94.356,92.7283 M94.133,98.5763 C94.446,98.5463 94.638,98.0473 94.56,97.4703 C94.482,96.8933 94.206,96.4603 93.935,96.4903 C93.659,96.5083 93.466,96.9953 93.503,97.5723 C93.539,98.1553 93.821,98.6003 94.133,98.5763 M94.434,101.3773 C94.765,101.3653 95,100.8723 94.957,100.2953 C94.921,99.7183 94.638,99.2733 94.338,99.2853 C94.038,99.2913 93.803,99.7723 93.821,100.3493 C93.834,100.9323 94.11,101.3893 94.434,101.3773 M96.364,98.2213 C96.67,98.1553 96.796,97.6333 96.652,97.0733 C96.507,96.5083 96.177,96.1183 95.913,96.1723 C95.642,96.2263 95.51,96.7373 95.612,97.3083 C95.72,97.8733 96.051,98.2873 96.364,98.2213 M96.791,101.1843 C97.115,101.1363 97.307,100.6373 97.223,100.0613 C97.139,99.4893 96.827,99.0573 96.532,99.0993 C96.231,99.1353 96.033,99.6223 96.093,100.2053 C96.147,100.7763 96.46,101.2203 96.791,101.1843 M99.123,100.7943 C99.441,100.7283 99.597,100.2113 99.464,99.6463 C99.327,99.0873 98.984,98.6783 98.689,98.7443 C98.401,98.8103 98.245,99.3093 98.347,99.8803 C98.449,100.4453 98.797,100.8723 99.123,100.7943 M100.715,85.7983 C101.076,85.1193 101.057,84.4033 100.667,84.2123 C100.312,84.0493 99.826,84.3803 99.506,84.9573 L97.962,84.8903 C97.999,84.8123 98.028,84.7343 98.058,84.6503 C98.311,83.9233 98.191,83.2083 97.776,83.0883 C97.572,83.0283 97.337,83.1173 97.139,83.3223 C96.94,83.5323 96.772,83.8513 96.67,84.2233 L95.198,84.1633 C95.221,84.0793 95.24,83.9953 95.257,83.9053 C95.408,83.1423 95.179,82.4683 94.747,82.4033 C94.32,82.3303 93.905,82.9313 93.827,83.6953 L92.378,83.6343 L92.378,83.5863 C92.415,82.8173 92.09,82.1803 91.658,82.1743 C91.225,82.1803 90.9,82.8173 90.93,83.5863 L89.488,83.6953 C89.41,82.9313 88.995,82.3303 88.568,82.4033 C88.135,82.4683 87.907,83.1423 88.057,83.9053 C88.063,83.9473 88.075,83.9953 88.087,84.0373 L86.645,84.2233 C86.543,83.8513 86.375,83.5323 86.176,83.3223 C85.972,83.1173 85.743,83.0283 85.539,83.0883 C85.118,83.2083 85.004,83.9233 85.256,84.6503 C85.287,84.7343 85.316,84.8123 85.353,84.8903 L83.808,84.9573 C83.483,84.3803 82.997,84.0493 82.642,84.2123 C82.257,84.4033 82.239,85.1193 82.6,85.7983 C82.913,86.3753 83.363,86.7663 83.688,86.7663 L84.349,88.2573 C83.802,88.4913 83.724,89.0383 84.415,89.2903 C86.302,89.9753 88.851,90.3963 91.658,90.3963 C94.464,90.3963 97.012,89.9753 98.9,89.2903 C99.795,88.9663 99.399,88.1363 98.353,88.1363 L99.399,86.6943 C99.422,86.7063 99.441,86.7173 99.464,86.7303 C99.79,86.8983 100.348,86.4773 100.715,85.7983 M103.57,86.3993 C103.606,86.1173 103.534,85.8823 103.36,85.7563 C102.999,85.5093 102.368,85.8643 101.965,86.5193 C101.562,87.1803 101.49,87.8603 101.791,88.0703 C101.941,88.1783 102.17,88.1423 102.421,88.0103 C102.669,87.8783 102.939,87.6433 103.168,87.3313 C103.395,87.0183 103.534,86.6883 103.57,86.3993 M119.515,83.0153 C118.71,84.7523 117.73,86.3873 116.636,87.9203 C115.638,89.3083 114.539,90.6063 113.373,91.8083 C112.033,93.1973 110.596,94.4653 109.118,95.5953 C105.253,98.5523 101.093,100.6083 97.469,101.6053 C97.433,101.6173 97.397,101.6233 97.361,101.6353 C95.63,102.1043 93.755,102.5073 91.904,102.5853 C90.606,102.5313 89.29,102.3143 88.027,102.0263 C87.492,101.9053 86.963,101.7743 86.453,101.6353 C83.207,100.7583 79.511,99.0213 75.989,96.5453 C75.556,96.2443 75.129,95.9253 74.702,95.6013 C71.072,92.8243 67.7,89.2483 65.315,84.9993 C64.93,84.3143 64.569,83.6163 64.238,82.8953 C64.022,82.4263 63.818,81.9513 63.626,81.4653 C61.27,75.5323 61.426,73.7543 61.396,73.6393 C60.945,73.9043 60.452,74.1083 59.929,74.2283 C57.212,74.8653 55.764,72.9603 54.688,69.9433 C54.232,68.6453 53.841,67.1483 53.45,65.5623 C52.699,62.4843 53.047,59.4973 54.201,57.3583 C54.688,56.6423 55.223,55.9753 55.8,55.3623 C56.401,54.8633 57.092,54.5033 57.85,54.3163 C59.388,53.9443 60.987,54.3283 62.418,55.2783 L67.304,62.5143 C67.124,62.9413 66.985,63.3923 66.883,63.8793 C66.757,64.4863 66.691,65.1413 66.691,65.8383 L66.691,66.7163 C66.691,72.1013 71.054,76.4703 76.445,76.4703 L77.317,76.4703 L78.189,76.4703 C83.58,76.4703 87.943,72.1013 87.943,66.7163 L87.943,65.8923 C90.101,64.9543 93.106,64.8883 95.372,65.7063 L95.372,65.8383 L95.372,66.7163 C95.372,72.1013 99.735,76.4703 105.127,76.4703 L105.998,76.4703 L106.87,76.4703 C112.26,76.4703 116.63,72.1013 116.63,66.7163 L116.63,65.8383 C116.63,65.2253 116.576,64.6543 116.474,64.1073 C116.366,63.5363 116.21,63.0073 116.005,62.5143 L116.011,62.5143 L121.39,55.2783 C122.472,54.5573 123.65,54.1663 124.822,54.172232 C125.201,54.1783 125.586,54.2263 125.964,54.3163 C129.691,55.2303 131.656,60.2603 130.364,65.5623 C130.063,66.7813 129.762,67.9473 129.432,69.0113 C128.326,72.5573 126.866,74.9313 123.884,74.2283 C123.362,74.1083 122.869,73.9043 122.419,73.6393 C122.388,73.7543 122.545,75.5323 120.188,81.4653 C119.996,81.9513 119.792,82.4263 119.569,82.8953 C119.557,82.9373 119.54,82.9793 119.515,83.0153" id="Fill-9" fill="#E4AF95"></path>
                    <path d="M124.8218,54.1724 C123.6498,54.1664 122.4718,54.5574 121.3898,55.2784 L116.0108,62.5144 L116.0058,62.5144 C115.4758,61.2224 114.6168,60.1824 113.5168,59.3834 C111.5928,57.9884 108.9308,57.3274 105.9978,57.3274 C100.1678,57.3274 95.4438,59.9304 95.3718,65.7064 C93.1058,64.8884 90.1008,64.9544 87.9428,65.8924 L87.9428,65.8384 C87.9428,62.9054 86.7528,60.7774 84.8298,59.3834 C82.9058,57.9884 80.2498,57.3274 77.3168,57.3274 C72.7008,57.3274 68.7768,58.9624 67.3038,62.5144 L62.4178,55.2784 C60.9868,54.3284 59.3878,53.9434 57.8498,54.3164 C57.0928,54.5034 56.4008,54.8634 55.7998,55.3624 C57.2848,53.7574 59.0278,52.4774 60.9388,51.4554 C63.5718,50.0494 65.0318,47.1524 64.7188,44.1894 C64.0818,38.2034 64.8458,32.1864 68.0008,26.6934 C72.0998,19.5654 80.8448,13.7114 90.9298,13.1884 C100.7388,13.6994 109.2798,19.2464 113.5048,26.1044 C107.6928,36.9704 75.9888,41.0154 70.9038,39.4354 C85.6108,44.5734 110.3008,36.2734 115.7528,30.8704 C116.4138,32.7514 116.8348,34.6814 117.0688,36.6404 C109.8918,39.8384 103.2208,41.7914 100.9728,41.6404 C105.9918,42.1454 111.6958,41.0404 117.2608,39.0924 C117.3338,40.7754 117.2728,42.4644 117.1048,44.1474 C116.7808,47.4774 118.4518,50.6984 121.4378,52.2184 C122.6228,52.8264 123.7638,53.4814 124.8218,54.1724" id="Fill-11" fill="#E4AF95"></path>
                    <path d="M119.7076,212.7173 C121.7386,215.7823 123.4396,219.0043 124.6366,222.3213 C120.3086,220.4773 116.1736,218.6973 112.1036,216.9373 C114.1476,215.3443 116.9546,213.9323 119.7076,212.7173" id="Fill-13" fill="#828282"></path>
                    <path d="M117.0689,36.6402 C117.1649,37.4522 117.2309,38.2692 117.2609,39.0922 C111.6959,41.0402 105.9919,42.1452 100.9729,41.6402 C103.2209,41.7912 109.8919,39.8382 117.0689,36.6402" id="Fill-15" fill="#060001"></path>
                    <path d="M110.8667,66.9263 C111.4677,66.6013 111.1967,65.7663 110.4997,65.7663 C107.4647,66.5833 104.4657,66.6193 101.5027,65.7663 C100.7997,65.7663 100.5287,66.6013 101.1297,66.9263 C102.4037,67.6053 104.1107,68.0263 105.9977,68.0263 C107.8857,68.0263 109.5927,67.6053 110.8667,66.9263 M116.6307,65.8383 L116.6307,66.7163 C116.6307,72.1013 112.2607,76.4703 106.8697,76.4703 L105.9977,76.4703 L105.1267,76.4703 C99.7347,76.4703 95.3717,72.1013 95.3717,66.7163 L95.3717,65.8383 L95.3717,65.7063 C95.4437,59.9303 100.1677,57.3273 105.9977,57.3273 C108.9307,57.3273 111.5937,57.9883 113.5167,59.3833 C114.6167,60.1823 115.4757,61.2223 116.0057,62.5143 C116.2097,63.0073 116.3657,63.5363 116.4737,64.1073 C116.5757,64.6543 116.6307,65.2253 116.6307,65.8383" id="Fill-17" fill="#E4AF95"></path>
                    <path d="M119.7076,212.7173 C116.9546,213.9323 114.1476,215.3443 112.1036,216.9373 C109.7846,215.9393 107.4886,214.9473 105.1866,213.9493 C107.7466,211.3533 111.7016,208.7803 115.2536,206.8163 C116.8526,208.6963 118.3546,210.6743 119.7076,212.7173" id="Fill-19" fill="#BCBCBC"></path>
                    <path d="M113.8589,26.6934 C114.6339,28.0454 115.2589,29.4454 115.7529,30.8704 C110.3009,36.2734 85.6109,44.5734 70.9039,39.4354 C75.9889,41.0154 107.6929,36.9704 113.5049,26.1044 C113.6309,26.3024 113.7459,26.4954 113.8589,26.6934" id="Fill-21" fill="#060001"></path>
                    <path d="M113.3726,91.8086 L93.8876,150.9676 C92.9556,151.0166 92.0356,151.0396 91.1346,151.0456 C88.1176,151.0216 84.9076,150.8236 81.6326,150.4206 L81.6326,150.4146 L81.7466,149.5016 L86.9276,133.7306 L86.9276,133.7246 L92.6736,116.2226 L97.4696,101.6056 C101.0936,100.6076 105.2526,98.5526 109.1176,95.5956 C110.5966,94.4656 112.0326,93.1976 113.3726,91.8086" id="Fill-23" fill="#060001"></path>
                    <path d="M110.4996,65.7661 C111.1966,65.7661 111.4676,66.6011 110.8666,66.9261 C109.5926,67.6051 107.8856,68.0261 105.9976,68.0261 C104.1106,68.0261 102.4036,67.6051 101.1296,66.9261 C100.5286,66.6011 100.7996,65.7661 101.5026,65.7661 C104.4656,66.6201 107.4646,66.5831 110.4996,65.7661" id="Fill-25" fill="#000000"></path>
                    <path d="M115.2535,206.8159 C111.7015,208.7809 107.7465,211.3529 105.1865,213.9499 C104.7415,213.7629 104.2975,213.5709 103.8525,213.3779 L104.0145,213.0009 C105.4505,208.8109 107.5065,204.9639 110.2295,201.4719 C111.9725,203.1549 113.6605,204.9399 115.2535,206.8159" id="Fill-27" fill="#BCBCBC"></path>
                    <path d="M98.7974,211.1909 C98.2624,210.9619 97.7284,210.7339 97.1934,210.5049 L97.5354,209.7069 C98.8104,205.9799 100.6434,202.4399 102.9444,199.2489 L102.9504,199.2489 C103.2384,198.8519 103.5334,198.4559 103.8344,198.0709 L104.5614,196.4959 C106.4734,198.0159 108.3844,199.6869 110.2294,201.4719 C107.5064,204.9639 105.4504,208.8109 104.0144,213.0009 L103.8524,213.3789 C102.1754,212.6519 100.4924,211.9239 98.7974,211.1909" id="Fill-29" fill="#BCBCBC"></path>
                    <path d="M99.7837,164.9239 C99.6147,164.0889 99.2907,163.1689 98.7737,162.1529 C97.4877,161.9549 96.2077,161.8469 94.9327,161.8289 C93.1177,161.8109 91.6577,160.3319 91.6577,158.5169 L91.6577,158.4749 C91.6697,157.1889 92.4207,156.0769 93.5087,155.5419 C93.9597,155.3199 94.4707,155.1939 95.0117,155.198757 C98.6717,155.2409 103.0957,155.4519 106.9897,156.5639 L106.9957,156.5639 L109.5737,174.1369 C104.0557,178.6329 96.6277,180.7009 92.0487,180.8089 C91.9217,180.8149 91.7957,180.8149 91.6757,180.8149 L91.6757,180.8089 C92.7877,180.8029 93.7007,180.6759 94.3557,180.4359 C96.0687,179.7939 96.9397,177.8819 96.2977,176.1699 C95.9607,175.2799 95.2097,174.6059 94.3977,174.2699 C93.6887,173.9749 92.7267,173.6869 91.6577,173.3499 C95.5827,172.1179 100.8777,170.2489 99.7837,164.9239" id="Fill-31" fill="#E4AF95"></path>
                    <path d="M93.8873,150.9678 C97.7573,150.8118 101.8633,150.3668 105.9683,149.5978 L106.9903,156.5638 C103.0953,155.4518 98.6713,155.2408 95.0113,155.1988 C94.4703,155.1938 93.9593,155.3198 93.5083,155.5418 C92.4203,156.0768 91.6693,157.1888 91.6583,158.4748 C91.6453,157.1828 90.8943,156.0768 89.8063,155.5418 C89.3553,155.3198 88.8453,155.1938 88.3043,155.1988 C84.6433,155.2408 80.2203,155.4518 76.3253,156.5638 L77.3173,149.7838 C78.7593,150.0358 80.2013,150.2468 81.6323,150.4148 L81.6323,150.4208 C84.9083,150.8238 88.1173,151.0218 91.1343,151.0458 C92.0353,151.0398 92.9553,151.0158 93.8873,150.9678" id="Fill-33" fill="#C8CECB"></path>
                    <path d="M104.5611,196.4956 L103.8341,198.0706 C103.5341,198.4556 103.2391,198.8516 102.9511,199.2486 L102.9451,199.2486 C98.8331,200.9006 92.8051,203.2456 89.4571,206.1476 L89.0851,207.0256 C88.6161,206.8216 88.1411,206.6236 87.6661,206.4186 C85.5031,205.4996 83.7121,204.7296 81.9751,203.9906 C85.6891,199.2486 95.1201,194.2546 99.2301,192.6006 C100.9731,193.7616 102.7701,195.0646 104.5611,196.4956" id="Fill-35" fill="#BCBCBC"></path>
                    <path d="M103.3599,85.7564 C103.5339,85.8824 103.6059,86.1174 103.5699,86.3994 C103.5339,86.6884 103.3949,87.0184 103.1679,87.3314 C102.9389,87.6434 102.6689,87.8784 102.4219,88.0104 C102.1699,88.1424 101.9409,88.1784 101.7909,88.0704 C101.4899,87.8604 101.5619,87.1804 101.9649,86.5194 C102.3679,85.8644 102.9989,85.5094 103.3599,85.7564" id="Fill-37" fill="#040000"></path>
                    <path d="M100.6665,84.2119 C101.0575,84.4039 101.0755,85.1189 100.7155,85.7979 C100.3485,86.4779 99.7895,86.8989 99.4645,86.7299 C99.4405,86.7179 99.4225,86.7059 99.3985,86.6939 C99.1285,86.4899 99.1225,85.8349 99.4045,85.1729 C99.4355,85.1009 99.4715,85.0289 99.5065,84.9569 C99.8255,84.3799 100.3125,84.0489 100.6665,84.2119" id="Fill-39" fill="#040000"></path>
                    <path d="M102.9449,199.2486 C100.6429,202.4396 98.8099,205.9796 97.5359,209.7066 L97.1929,210.5056 C94.5429,209.3576 91.8499,208.2036 89.0849,207.0256 L89.4579,206.1476 C92.8049,203.2456 98.8339,200.9006 102.9449,199.2486" id="Fill-41" fill="#828282"></path>
                    <path d="M99.7837,164.9239 C100.8777,170.2489 95.5827,172.1179 91.6577,173.3499 C87.7627,172.1299 82.5097,170.2729 83.5137,165.0199 C85.9537,165.1759 88.8387,165.2359 91.2847,165.2309 C93.9897,165.2309 97.1147,165.1159 99.7837,164.9239" id="Fill-43" fill="#C8CECB"></path>
                    <path d="M99.5064,84.9571 C99.4714,85.0291 99.4354,85.1011 99.4044,85.1731 C99.1224,85.8341 99.1284,86.4901 99.3994,86.6941 L98.3534,88.1361 L84.9624,88.1361 C84.7214,88.1361 84.5114,88.1791 84.3484,88.2571 L83.6874,86.7661 C83.7484,86.7661 83.8014,86.7541 83.8504,86.7301 C84.1864,86.5801 84.2104,85.8821 83.9104,85.1731 C83.8804,85.1011 83.8444,85.0291 83.8084,84.9571 L85.3524,84.8911 C85.6294,85.4801 86.0444,85.8471 86.3564,85.7561 C86.5364,85.7081 86.6514,85.5041 86.6984,85.2281 C86.7534,84.9571 86.7404,84.5961 86.6454,84.2241 L88.0874,84.0381 C88.2494,84.7231 88.6404,85.2211 88.9764,85.1671 C89.3374,85.1071 89.5664,84.4641 89.4874,83.6951 L90.9304,83.5861 C90.9664,84.3561 91.2904,84.9751 91.6574,84.9631 C92.0184,84.9751 92.3364,84.3801 92.3784,83.6351 L93.8264,83.6951 C93.7424,84.4641 93.9774,85.1071 94.3384,85.1671 C94.6564,85.2211 95.0174,84.7831 95.1974,84.1641 L96.6704,84.2241 C96.5734,84.5961 96.5624,84.9571 96.6154,85.2281 C96.6634,85.5041 96.7774,85.7081 96.9584,85.7561 C97.2714,85.8471 97.6864,85.4801 97.9624,84.8911 L99.5064,84.9571 Z" id="Fill-45" fill="#E4AF95"></path>
                    <path d="M99.4644,99.646 C99.5974,100.211 99.4414,100.728 99.1224,100.794 C98.7974,100.872 98.4484,100.445 98.3474,99.88 C98.2444,99.31 98.4014,98.811 98.6894,98.745 C98.9844,98.678 99.3264,99.087 99.4644,99.646" id="Fill-47" fill="#040000"></path>
                    <path d="M98.774,162.1529 C99.291,163.1689 99.615,164.0889 99.784,164.9239 C97.115,165.1159 93.99,165.2309 91.285,165.2309 C88.838,165.2359 85.954,165.1759 83.514,165.0199 C83.676,164.1539 84.006,163.2049 84.541,162.1469 C85.828,161.9489 87.107,161.8469 88.382,161.8289 C90.197,161.8109 91.658,160.3319 91.658,158.5169 C91.658,160.3319 93.118,161.8109 94.933,161.8289 C96.208,161.8469 97.488,161.9549 98.774,162.1529" id="Fill-49" fill="#C8CECB"></path>
                    <path d="M98.3531,88.1363 C99.3991,88.1363 99.7951,88.9663 98.9001,89.2903 C97.0121,89.9753 94.4641,90.3963 91.6581,90.3963 C88.8511,90.3963 86.3021,89.9753 84.4151,89.2903 C83.7241,89.0383 83.8021,88.4913 84.3491,88.2573 C84.5111,88.1783 84.7221,88.1363 84.9621,88.1363 L98.3531,88.1363 Z" id="Fill-51" fill="#000000"></path>
                    <path d="M97.1929,210.5054 C97.7279,210.7344 98.2619,210.9624 98.7969,211.1914 C96.7129,212.5374 94.3799,213.9014 91.9159,215.2184 C89.2289,210.9864 81.0189,204.1584 76.1569,201.5084 C78.2969,202.4224 80.0999,203.1914 81.9749,203.9904 C83.7119,204.7304 85.5029,205.4994 87.6669,206.4184 C88.1409,206.6234 88.6159,206.8214 89.0849,207.0264 C91.8499,208.2034 94.5429,209.3584 97.1929,210.5054" id="Fill-53" fill="#828282"></path>
                    <path d="M97.7759,83.0879 C98.1909,83.2079 98.3109,83.9229 98.0579,84.6499 C98.0279,84.7339 97.9989,84.8129 97.9629,84.8909 C97.6859,85.4799 97.2709,85.8469 96.9589,85.7559 C96.7779,85.7079 96.6639,85.5039 96.6159,85.2279 C96.5619,84.9569 96.5739,84.5959 96.6709,84.2239 C96.7719,83.8509 96.9399,83.5329 97.1389,83.3219 C97.3379,83.1179 97.5719,83.0279 97.7759,83.0879" id="Fill-55" fill="#040000"></path>
                    <path d="M97.4693,101.6055 L92.6733,116.2225 L92.4393,116.1445 L88.0153,102.0745 L88.0273,102.0265 C89.2893,102.3145 90.6063,102.5315 91.9043,102.5845 C93.7553,102.5065 95.6303,102.1045 97.3613,101.6355 C97.3973,101.6235 97.4333,101.6175 97.4693,101.6055" id="Fill-57" fill="#F2F2F2"></path>
                    <path d="M97.2232,100.0611 C97.3072,100.6381 97.1152,101.1371 96.7902,101.1851 C96.4592,101.2211 96.1472,100.7761 96.0932,100.2051 C96.0332,99.6221 96.2312,99.1351 96.5322,99.0991 C96.8272,99.0571 97.1392,99.4901 97.2232,100.0611" id="Fill-59" fill="#040000"></path>
                    <path d="M96.6519,97.0738 C96.7969,97.6328 96.6709,98.1558 96.3639,98.2218 C96.0509,98.2878 95.7199,97.8728 95.6119,97.3078 C95.5099,96.7378 95.6419,96.2258 95.9129,96.1728 C96.1769,96.1178 96.5069,96.5088 96.6519,97.0738" id="Fill-61" fill="#040000"></path>
                    <path d="M83.5137,165.02 C82.5097,170.273 87.7627,172.13 91.6577,173.35 C92.7267,173.687 93.6887,173.975 94.3977,174.27 C95.2097,174.606 95.9607,175.28 96.2977,176.169 C96.9397,177.882 96.0687,179.793 94.3557,180.436 C93.7007,180.676 92.7877,180.803 91.6757,180.809117 C87.1437,180.827 79.4267,178.765 73.7407,174.137 L76.3197,156.563 L76.3257,156.563 C80.2197,155.452 84.6437,155.241 88.3037,155.198795 C88.8447,155.193 89.3557,155.319 89.8057,155.541 C90.8937,156.077 91.6447,157.183 91.6577,158.475 L91.6577,158.517 C91.6577,160.332 90.1967,161.811 88.3817,161.829 C87.1077,161.847 85.8277,161.949 84.5407,162.147 C84.0067,163.205 83.6757,164.154 83.5137,165.02" id="Fill-63" fill="#E4AF95"></path>
                    <path d="M94.7466,82.4029 C95.1796,82.4689 95.4076,83.1419 95.2576,83.9049 C95.2396,83.9949 95.2216,84.0799 95.1976,84.1639 C95.0176,84.7829 94.6566,85.2209 94.3386,85.1679 C93.9766,85.1079 93.7426,84.4649 93.8266,83.6949 C93.9046,82.9319 94.3196,82.3309 94.7466,82.4029" id="Fill-65" fill="#040000"></path>
                    <path d="M94.9566,100.2954 C94.9996,100.8724 94.7656,101.3654 94.4346,101.3774 C94.1096,101.3894 93.8336,100.9324 93.8206,100.3494 C93.8036,99.7724 94.0376,99.2914 94.3386,99.2854 C94.6386,99.2734 94.9216,99.7184 94.9566,100.2954" id="Fill-67" fill="#040000"></path>
                    <path d="M94.5601,97.4702 C94.6381,98.0472 94.4461,98.5462 94.1331,98.5762 C93.8211,98.6002 93.5391,98.1562 93.5021,97.5732 C93.4661,96.9952 93.6591,96.5092 93.9351,96.4912 C94.2061,96.4602 94.4821,96.8932 94.5601,97.4702" id="Fill-69" fill="#040000"></path>
                    <path d="M93.7671,91.6763 C94.0911,91.6763 94.3561,92.1453 94.3561,92.7283 C94.3561,93.3053 94.0911,93.7743 93.7671,93.7743 C93.4431,93.7743 93.1841,93.3053 93.1841,92.7283 C93.1841,92.1453 93.4431,91.6763 93.7671,91.6763" id="Fill-71" fill="#040000"></path>
                    <path d="M92.6792,100.3672 C92.6792,100.9442 92.4142,101.4192 92.0902,101.4072 C91.7652,101.4012 91.5192,100.9262 91.5432,100.3432 C91.5612,99.7662 91.8252,99.3042 92.1322,99.3092 C92.4392,99.3222 92.6792,99.7842 92.6792,100.3672" id="Fill-73" fill="#040000"></path>
                    <path d="M92.6734,116.2227 L86.9274,133.7247 L74.4864,95.8837 L74.7024,95.6007 C75.1294,95.9257 75.5554,96.2437 75.9884,96.5447 C79.5104,99.0207 83.2074,100.7577 86.4524,101.6357 C86.9634,101.7737 87.4924,101.9057 88.0274,102.0267 L88.0154,102.0747 L92.4394,116.1447 L92.6734,116.2227 Z" id="Fill-75" fill="#060001"></path>
                    <path d="M92.439,97.6148 C92.451,98.1978 92.205,98.6668 91.892,98.6668 C91.58,98.6548 91.345,98.1798 91.375,97.6028 C91.399,97.0198 91.645,96.5568 91.921,96.5688 C92.199,96.5688 92.426,97.0378 92.439,97.6148" id="Fill-77" fill="#040000"></path>
                    <path d="M91.6578,82.1743 C92.0908,82.1803 92.4148,82.8173 92.3788,83.5863 L92.3788,83.6343 C92.3368,84.3803 92.0178,84.9753 91.6578,84.9633 C91.2908,84.9753 90.9668,84.3563 90.9298,83.5863 C90.8998,82.8173 91.2248,82.1803 91.6578,82.1743" id="Fill-79" fill="#040000"></path>
                    <path d="M91.6753,180.815 C91.7953,180.815 91.9213,180.815 92.0483,180.809 L92.0483,180.815 C91.1343,182.762 89.8783,184.83 88.1713,187.072 C85.1723,191.014 80.7733,195.48 74.4023,200.763 C72.2863,202.518 70.2843,204.381 68.4273,206.256 C66.6783,208.03 65.0503,209.815 63.5653,211.545 C61.3053,214.184 59.3763,216.684 57.8313,218.806 C55.1383,222.508 53.6363,225.039 53.6363,225.039 C53.6363,225.039 21.8303,207.561 7.3873,198.071 C4.7423,196.334 2.6813,194.861 1.5033,193.815 C3.7993,178.874 17.6583,167.538 32.2273,160.999 L32.2343,160.999 C40.1313,168.422 56.2083,178.086 73.1573,178.086 L73.7403,174.137 C79.4263,178.765 87.1433,180.827 91.6753,180.809 L91.6753,180.815 Z" id="Fill-81" fill="#C8CECB"></path>
                    <path d="M91.4234,91.6763 C91.7474,91.6763 92.0064,92.1453 92.0064,92.7283 C92.0064,93.3053 91.7474,93.7743 91.4234,93.7743 C91.0984,93.7743 90.8334,93.3053 90.8334,92.7283 C90.8334,92.1453 91.0984,91.6763 91.4234,91.6763" id="Fill-83" fill="#040000"></path>
                    <path d="M99.23,192.6011 C95.12,194.2541 85.689,199.2481 81.975,203.9911 C82.534,198.6411 87.432,191.2371 90.161,187.7391 C92.793,188.7431 95.924,190.4081 99.23,192.6011" id="Fill-85" fill="#828282"></path>
                    <path d="M89.9146,99.2012 C90.2216,99.2252 90.4366,99.7122 90.4006,100.2892 C90.3716,100.8722 90.0766,101.3232 89.7586,101.2932 C89.4336,101.2692 89.2176,100.7822 89.2656,100.2052 C89.3196,99.6282 89.6076,99.1772 89.9146,99.2012" id="Fill-87" fill="#040000"></path>
                    <path d="M89.9029,96.4307 C90.1789,96.4607 90.3649,96.9537 90.3109,97.5307 C90.2629,98.1077 89.9679,98.5527 89.6619,98.5157 C89.3559,98.4797 89.1749,97.9817 89.2539,97.4097 C89.3379,96.8337 89.6259,96.4007 89.9029,96.4307" id="Fill-89" fill="#040000"></path>
                    <path d="M89.4878,83.6949 C89.5658,84.4649 89.3378,85.1079 88.9768,85.1679 C88.6398,85.2209 88.2498,84.7229 88.0878,84.0379 C88.0748,83.9949 88.0628,83.9469 88.0568,83.9049 C87.9068,83.1419 88.1348,82.4689 88.5678,82.4029 C88.9948,82.3309 89.4098,82.9319 89.4878,83.6949" id="Fill-91" fill="#040000"></path>
                    <path d="M89.0728,91.6763 C89.3978,91.6763 89.6558,92.1453 89.6558,92.7283 C89.6558,93.3053 89.3978,93.7743 89.0728,93.7743 C88.7488,93.7743 88.4838,93.3053 88.4838,92.7283 C88.4838,92.1453 88.7488,91.6763 89.0728,91.6763" id="Fill-93" fill="#040000"></path>
                    <path d="M76.1568,201.5083 C75.5978,201.2743 75.0148,201.0283 74.4018,200.7633 C80.7728,195.4803 85.1728,191.0143 88.1718,187.0713 C88.7968,187.2453 89.4578,187.4683 90.1608,187.7383 C87.4318,191.2373 82.5338,198.6413 81.9748,203.9903 C80.0998,203.1913 78.2968,202.4223 76.1568,201.5083" id="Fill-95" fill="#828282"></path>
                    <path d="M87.8892,96.1118 C88.1652,96.1658 88.3042,96.6708 88.2012,97.2418 C88.0992,97.8128 87.7752,98.2278 87.4742,98.1678 C87.1742,98.1078 87.0352,97.5968 87.1612,97.0318 C87.2882,96.4668 87.6122,96.0578 87.8892,96.1118" id="Fill-97" fill="#040000"></path>
                    <path d="M87.7027,98.9732 C88.0027,99.0152 88.2017,99.5142 88.1357,100.0852 C88.0697,100.6612 87.7567,101.0952 87.4377,101.0582 C87.1197,101.0162 86.9217,100.5172 87.0057,99.9402 C87.0837,99.3692 87.3957,98.9372 87.7027,98.9732" id="Fill-99" fill="#040000"></path>
                    <path d="M82.7022,66.9263 C83.3032,66.6013 83.0382,65.7663 82.3352,65.7663 C79.3662,66.6193 76.3672,66.5833 73.3382,65.7663 C72.6352,65.7663 72.3702,66.6013 72.9712,66.9263 C74.2402,67.6053 75.9462,68.0263 77.8332,68.0263 C79.7212,68.0263 81.4342,67.6053 82.7022,66.9263 L82.7022,66.9263 Z M87.9432,65.8923 L87.9432,66.7163 C87.9432,72.1013 83.5792,76.4703 78.1882,76.4703 L77.3172,76.4703 L76.4452,76.4703 C71.0542,76.4703 66.6902,72.1013 66.6902,66.7163 L66.6902,65.8383 C66.6902,65.1413 66.7572,64.4863 66.8832,63.8793 C66.9852,63.3923 67.1232,62.9413 67.3042,62.5143 C68.7762,58.9623 72.7012,57.3273 77.3172,57.3273 C80.2502,57.3273 82.9062,57.9883 84.8292,59.3833 C86.7532,60.7783 87.9432,62.9053 87.9432,65.8383 L87.9432,65.8923 Z" id="Fill-101" fill="#E4AF95"></path>
                    <path d="M91.9156,215.2183 C89.4216,216.5583 86.7946,217.8563 84.1686,219.0463 C81.4576,215.5483 74.1136,208.4683 69.0886,206.9893 L69.0826,206.9953 C68.8666,206.7433 68.6496,206.4963 68.4276,206.2563 C70.2846,204.3813 72.2866,202.5183 74.4016,200.7633 C75.0156,201.0283 75.5976,201.2743 76.1566,201.5083 C81.0196,204.1583 89.2286,210.9873 91.9156,215.2183" id="Fill-103" fill="#BCBCBC"></path>
                    <path d="M73.7408,174.1372 L73.1578,178.0862 C56.2088,178.0862 40.1318,168.4222 32.2338,160.9992 L32.2278,160.9992 C30.5868,159.4542 29.2948,158.0062 28.4288,156.7622 C22.3168,147.9922 21.3788,136.3572 23.6328,125.8692 C28.0088,105.4942 44.3258,88.2502 64.2388,82.8952 C64.5688,83.6162 64.9298,84.3142 65.3148,84.9992 C67.6998,89.2482 71.0728,92.8242 74.7018,95.6012 L74.4858,95.8842 L86.9278,133.7242 L86.9278,133.7302 L81.7468,149.5012 L81.6328,150.4152 C80.2018,150.2462 78.7598,150.0362 77.3168,149.7832 L76.3248,156.5632 L76.3198,156.5632 L73.7408,174.1372 Z" id="Fill-105" fill="#C8CECB"></path>
                    <path d="M86.6451,84.2237 C86.7411,84.5967 86.7531,84.9567 86.6991,85.2277 C86.6511,85.5037 86.5371,85.7077 86.3561,85.7567 C86.0441,85.8467 85.6291,85.4797 85.3531,84.8907 C85.3161,84.8127 85.2871,84.7347 85.2561,84.6507 C85.0041,83.9237 85.1181,83.2077 85.5391,83.0877 C85.7431,83.0277 85.9721,83.1177 86.1761,83.3227 C86.3741,83.5327 86.5421,83.8507 86.6451,84.2237" id="Fill-107" fill="#040000"></path>
                    <path d="M85.4908,98.6426 C85.7978,98.6966 85.9718,99.2016 85.8758,99.7726 C85.7848,100.3496 85.4548,100.7696 85.1368,100.7096 C84.8238,100.6556 84.6498,100.1506 84.7518,99.5796 C84.8598,99.0156 85.1908,98.5946 85.4908,98.6426" id="Fill-109" fill="#040000"></path>
                    <path d="M83.9102,85.1734 C84.2102,85.8824 84.1862,86.5794 83.8502,86.7304 C83.8022,86.7544 83.7482,86.7664 83.6872,86.7664 C83.3632,86.7664 82.9122,86.3754 82.6002,85.7984 C82.2392,85.1194 82.2572,84.4034 82.6422,84.2124 C82.9962,84.0494 83.4832,84.3804 83.8082,84.9574 C83.8442,85.0294 83.8802,85.1014 83.9102,85.1734" id="Fill-111" fill="#040000"></path>
                    <path d="M82.3355,65.7661 C83.0385,65.7661 83.3035,66.6011 82.7025,66.9261 C81.4345,67.6051 79.7215,68.0261 77.8335,68.0261 C75.9465,68.0261 74.2395,67.6051 72.9715,66.9261 C72.3705,66.6011 72.6345,65.7661 73.3375,65.7661 C76.3675,66.5831 79.3665,66.6201 82.3355,65.7661" id="Fill-113" fill="#000000"></path>
                    <path d="M81.3497,86.5196 C81.7527,87.1806 81.8247,87.8596 81.5237,88.0706 C81.3677,88.1786 81.1397,88.1426 80.8927,88.0106 C80.6467,87.8776 80.3757,87.6436 80.1477,87.3316 C79.9197,87.0186 79.7817,86.6876 79.7457,86.3996 C79.7087,86.1176 79.7817,85.8826 79.9557,85.7566 C80.3097,85.5096 80.9477,85.8646 81.3497,86.5196" id="Fill-115" fill="#040000"></path>
                    <path d="M69.0889,206.9898 C74.1129,208.4688 81.4579,215.5488 84.1689,219.0468 C81.8909,220.0868 79.6129,221.0418 77.4189,221.8838 L76.9319,220.5968 C75.6519,216.6358 72.5149,210.9568 69.0829,206.9958 L69.0889,206.9898 Z" id="Fill-117" fill="#828282"></path>
                    <path d="M76.9322,220.5972 L77.4192,221.8832 C76.3912,222.2742 75.3812,222.6402 74.4022,222.9832 C74.1672,223.0552 73.9332,223.1332 73.7042,223.2112 C72.7012,223.5422 71.6552,223.8552 70.5912,224.1012 C69.2272,219.8882 66.2342,215.0852 63.5652,211.5452 C65.0502,209.8152 66.6792,208.0302 68.4282,206.2562 C68.6502,206.4962 68.8662,206.7432 69.0822,206.9952 C72.5152,210.9562 75.6522,216.6362 76.9322,220.5972" id="Fill-119" fill="#BCBCBC"></path>
                    <path d="M73.7046,223.2115 C73.9336,223.1335 74.1676,223.0555 74.4016,222.9825 C59.4356,230.3695 42.3306,233.3575 25.7486,231.4825 C20.6826,230.9105 15.4766,229.8165 11.3776,226.7815 C4.5806,221.7445 2.3146,211.9835 4.7846,203.8885 C5.4096,201.8395 6.2936,199.8925 7.3876,198.0705 C21.8296,207.5615 53.6366,225.0385 53.6366,225.0385 C53.6366,225.0385 55.1386,222.5085 57.8316,218.8065 C58.5106,220.5365 59.5866,222.0935 61.1136,223.1335 C63.8356,224.9965 67.2796,224.8705 70.5916,224.1015 C71.6556,223.8555 72.7016,223.5425 73.7046,223.2115" id="Fill-121" fill="#F2F2F2"></path>
                    <path d="M63.5655,211.5454 C66.2335,215.0854 69.2275,219.8884 70.5915,224.1014 C67.2795,224.8704 63.8365,224.9964 61.1135,223.1334 C59.5865,222.0934 58.5105,220.5364 57.8315,218.8064 C59.3765,216.6844 61.3055,214.1844 63.5655,211.5454" id="Fill-123" fill="#828282"></path>
                    <path d="M86.9268,135.2276 C86.2958,135.2276 85.7078,134.8266 85.4998,134.1936 L73.0588,96.3526 C72.7998,95.5646 73.2278,94.7156 74.0168,94.4566 C74.8028,94.1966 75.6538,94.6256 75.9128,95.4146 L88.3548,133.2556 C88.6138,134.0436 88.1848,134.8926 87.3968,135.1516 C87.2408,135.2036 87.0828,135.2276 86.9268,135.2276" id="Fill-125" fill="#060001"></path>
                    <path d="M93.8873,152.4737 C93.0573,152.4737 92.3843,151.8047 92.3843,150.9737 C92.3843,150.8147 92.4093,150.6497 92.4603,150.4977 L111.9463,91.3387 C112.2053,90.5517 113.0563,90.1237 113.8423,90.3817 C114.6303,90.6407 115.0593,91.4907 114.7993,92.2787 L95.3263,151.4017 C95.1403,152.0207 94.5663,152.4737 93.8873,152.4737" id="Fill-127" fill="#060001"></path>
                    <path d="M81.7471,151.0044 C81.5911,151.0044 81.4341,150.9804 81.2781,150.9294 C80.4891,150.6704 80.0601,149.8204 80.3191,149.0324 L85.4791,133.3244 C85.4851,133.3014 85.4921,133.2784 85.4991,133.2554 L96.0411,101.1374 C96.3011,100.3494 97.1481,99.9204 97.9381,100.1774 C98.7261,100.4364 99.1561,101.2854 98.8971,102.0734 L88.3751,134.1304 C88.3691,134.1534 88.3621,134.1764 88.3551,134.1994 L83.1741,149.9704 C82.9661,150.6034 82.3781,151.0044 81.7471,151.0044" id="Fill-129" fill="#060001"></path>
                    <path d="M91.1343,152.5484 L91.1223,152.5484 C87.9303,152.5234 84.6753,152.3094 81.4483,151.9124 C81.4063,151.9074 81.3653,151.9004 81.3243,151.8914 C79.9043,151.7214 78.4693,151.5104 77.0573,151.2634 C76.2403,151.1204 75.6943,150.3424 75.8373,149.5244 C75.9803,148.7074 76.7603,148.1614 77.5763,148.3034 C78.9763,148.5484 80.4003,148.7564 81.8083,148.9234 C81.8543,148.9284 81.9003,148.9364 81.9463,148.9454 C85.0163,149.3184 88.1113,149.5194 91.1463,149.5434 C91.9763,149.5494 92.6433,150.2284 92.6373402,151.0574 C92.6303,151.8834 91.9583,152.5484 91.1343,152.5484" id="Fill-131" fill="#060001"></path>
                    <path d="M91.1343,152.5484 C90.3093,152.5484 89.6373,151.8824 89.6322599,151.0554 C89.6263,150.2264 90.2943,149.5484 91.1243,149.5434 C92.0033,149.5374 92.9013,149.5144 93.8093,149.4674 C97.7863,149.3064 101.7793,148.8544 105.6923,148.1204 C106.5013,147.9734 107.2923,148.5054 107.4453,149.3204 C107.5983,150.1364 107.0613,150.9224 106.2443,151.0744 C102.1903,151.8344 98.0523,152.3034 93.9473,152.4694 C93.0103,152.5184 92.0683,152.5424 91.1443,152.5484 L91.1343,152.5484 Z" id="Fill-133" fill="#060001"></path>
                    <path d="M90.9546,166.7334 C88.2836,166.7334 85.5526,166.6564 83.4176,166.5194 C82.6086,166.4674 81.9826,165.7824 82.0086,164.9724 C82.0366,164.1294 82.7726,163.4744 83.6096,163.5204 C85.7686,163.6584 88.5516,163.7254 91.2806,163.7284 C93.9476,163.7284 97.0066,163.6174 99.6756,163.4254 C100.5506,163.3584 101.2896,164.0574 101.2896,164.9234 C101.2896,165.7304 100.6576,166.3874 99.8606,166.4244 C97.1306,166.6204 94.0066,166.7334 91.2846,166.7334 C91.1756,166.7334 91.0646,166.7334 90.9546,166.7334" id="Fill-135" fill="#060001"></path>
                    <path d="M92.439,117.6475 C91.799,117.6475 91.208,117.2365 91.005,116.5955 L86.582,102.5245 C86.333,101.7335 86.773,100.8895 87.564,100.6405 C88.357,100.3945 89.2,100.8325 89.449,101.6235 L93.873,115.6935 C94.122,116.4855 93.681,117.3295 92.889,117.5785 C92.74,117.6255 92.587,117.6475 92.439,117.6475" id="Fill-137" fill="#060001"></path>
                    <path d="M1.5049,195.3179 C1.4289,195.3179 1.3519,195.3119 1.2749,195.2999 C0.4549,195.1739 -0.1081,194.4069 0.0179,193.5869 C2.9639,174.4139 23.0939,163.4519 31.6119,159.6289 C32.3699,159.2869 33.2589,159.6269 33.5979,160.3839 C33.9379,161.1409 33.5999,162.0299 32.8429,162.3699 C8.6189,173.2429 3.8949,188.1419 2.9879,194.0439 C2.8739,194.7859 2.2339,195.3179 1.5049,195.3179" id="Fill-139" fill="#060001"></path>
                    <path d="M53.6348,226.5415 C53.3898,226.5415 53.1418,226.4805 52.9128,226.3545 C52.5938,226.1805 20.8888,208.7405 6.5618,199.3265 C3.7188,197.4595 1.6818,195.9825 0.5058,194.9385 C-0.1152,194.3885 -0.1722,193.4375 0.3798,192.8175 C0.9298,192.1955 1.8808,192.1405 2.5008,192.6905 C3.5688,193.6395 5.4898,195.0265 8.2128,196.8145 C20.8258,205.1035 47.0918,219.7045 53.1138,223.0345 C53.8228,221.9245 55.0078,220.1345 56.6158,217.9225 C58.4578,215.3925 60.4118,212.9175 62.4248,210.5675 C64.0158,208.7125 65.6758,206.9065 67.3578,205.2015 C69.3748,203.1655 71.4208,201.2835 73.4428,199.6065 C79.4678,194.6105 83.8938,190.2135 86.9758,186.1615 C88.5598,184.0805 89.7748,182.1225 90.6878,180.1765 C91.0418,179.4255 91.9338,179.1035 92.6868,179.4545 C93.4378,179.8075 93.7608,180.7025 93.4088,181.4535 C92.4038,183.5945 91.0818,185.7295 89.3668,187.9815 C86.1458,192.2165 81.5638,196.7755 75.3608,201.9195 C73.4148,203.5345 71.4408,205.3495 69.4948,207.3135 C67.8638,208.9685 66.2518,210.7215 64.7058,212.5235 C62.7458,214.8125 60.8418,217.2245 59.0468,219.6895 C56.4328,223.2825 54.9428,225.7805 54.9278,225.8065 C54.6478,226.2775 54.1488,226.5415 53.6348,226.5415" id="Fill-141" fill="#060001"></path>
                    <path d="M183.3726,195.3179 C182.6556,195.3179 182.0206,194.8019 181.8936,194.0719 C178.8546,176.5419 161.5176,166.5339 151.4526,162.1289 C151.3176,162.0659 151.2296,162.0279 151.1426,161.9899 L150.9566,161.9089 C150.1976,161.5709 149.8576,160.6819 150.1956,159.9239 C150.5336,159.1659 151.4216,158.8259 152.1796,159.1639 L152.3346,159.2309 C152.4576,159.2839 152.5806,159.3379 152.7046,159.3979 C163.2746,164.0229 181.5756,174.6429 184.8546,193.5579 C184.9966,194.3759 184.4486,195.1539 183.6316,195.2959 C183.5446,195.3099 183.4576,195.3179 183.3726,195.3179" id="Fill-143" fill="#060001"></path>
                    <path d="M126.0123,228.6636 C125.7943,228.6636 125.5753,228.6156 125.3733,228.5206 C124.9433,228.3186 124.6343,227.9256 124.5393,227.4596 C124.2273,225.9226 123.7843,224.3676 123.2253,222.8386 C122.1263,219.7906 120.5223,216.6666 118.4543,213.5476 C117.1743,211.6126 115.7123,209.6756 114.1093,207.7886 C112.5983,206.0106 110.9423,204.2486 109.1853,202.5536 C107.4133,200.8386 105.5433,199.1966 103.6253,197.6716 C101.9323,196.3186 100.1733,195.0336 98.3983,193.8516 C95.2363,191.7536 92.2013,190.1256 89.6253,189.1426 C88.9583,188.8866 88.3343,188.6776 87.7683,188.5186 C86.9693,188.2976 86.5013,187.4686 86.7233,186.6696 C86.9463,185.8696 87.7763,185.3976 88.5743,185.6246 C89.2413,185.8096 89.9373,186.0426 90.6993,186.3366 C93.4763,187.3946 96.7143,189.1286 100.0613,191.3496 C101.9103,192.5806 103.7403,193.9166 105.4983,195.3216 C107.4903,196.9046 109.4333,198.6116 111.2743,200.3926 C113.1003,202.1556 114.8243,203.9896 116.3993,205.8436 C118.0793,207.8206 119.6143,209.8536 120.9603,211.8886 C123.1593,215.2066 124.8713,218.5456 126.0493,221.8116 C126.4243,222.8346 126.7513,223.8716 127.0273,224.9096 C127.9283,224.4246 129.1563,223.7636 130.6403,222.9606 C140.6253,217.5576 165.1193,204.1726 176.8633,196.6086 C179.5203,194.8956 181.3753,193.5776 182.3783,192.6896 C183.0023,192.1406 183.9503,192.2006 184.4993,192.8186 C185.0493,193.4396 184.9913,194.3906 184.3703,194.9396 C183.2543,195.9286 181.2763,197.3406 178.4913,199.1356 C166.6593,206.7546 142.0863,220.1836 132.0703,225.6026 C128.7553,227.3956 126.7213,228.4846 126.7213,228.4846 C126.5003,228.6036 126.2563,228.6636 126.0123,228.6636" id="Fill-145" fill="#060001"></path>
                    <path d="M124.6421,223.8247 C124.4401,223.8247 124.2331,223.7837 124.0471,223.7037 C119.7161,221.8577 115.5791,220.0777 111.5071,218.3157 C109.1901,217.3187 106.8921,216.3267 104.5881,215.3287 C104.1851,215.1587 103.7661,214.9777 103.3461,214.7967 L96.6031,211.8867 C93.9481,210.7377 91.2581,209.5847 88.4961,208.4087 L75.5661,202.8897 C75.0121,202.6577 74.4251,202.4097 73.8071,202.1427 C73.0441,201.8137 72.6931,200.9297 73.0221,200.1677 C73.3501,199.4067 74.2351,199.0557 74.9971,199.3837 C75.6051,199.6457 76.1831,199.8897 76.7381,200.1227 L89.6841,205.6477 C92.4421,206.8227 95.1371,207.9777 97.7891,209.1267 L104.4501,211.9997 C104.9491,212.2157 105.3581,212.3917 105.7681,212.5637 C108.0851,213.5687 110.3791,214.5587 112.6981,215.5567 C116.7561,217.3127 120.8761,219.0857 125.1881,220.9237 C125.7461,221.1427 126.1421,221.6867 126.1421,222.3217 C126.1421,223.1517 125.4721,223.8247 124.6421,223.8247" id="Fill-147" fill="#060001"></path>
                    <path d="M66.4341,226.1324 C64.0201,226.1324 61.9811,225.5484 60.2651,224.3734 C58.6021,223.2414 57.2771,221.5054 56.4331,219.3554 C56.1301,218.5824 56.5101,217.7104 57.2831,217.4074 C58.0551,217.1034 58.9271,217.4854 59.2301,218.2574 C59.8521,219.8424 60.7961,221.0994 61.9591,221.8914 C63.9231,223.2354 66.6361,223.4794 70.2511,222.6374 C71.1461,222.4304 72.1211,222.1524 73.2341,221.7844 C73.4611,221.7064 73.7101,221.6234 73.9591,221.5474 C74.8731,221.2264 75.8701,220.8644 76.8851,220.4794 C79.0811,219.6364 81.3231,218.6944 83.5441,217.6794 C86.1541,216.4964 88.7301,215.2244 91.2051,213.8954 C93.6491,212.5884 95.9281,211.2554 97.9821,209.9294 C98.0071,209.9124 98.0331,209.8974 98.0581,209.8824 C98.0911,209.8624 98.1251,209.8444 98.1561,209.8294 C98.8981,209.4564 99.8011,209.7594 100.1711,210.5014 C100.5291,211.2154 100.2631,212.0784 99.5811,212.4734 C97.4661,213.8374 95.1251,215.2074 92.6231,216.5434 C90.0931,217.9034 87.4561,219.2064 84.7881,220.4144 C82.5151,221.4524 80.2151,222.4194 77.9571,223.2864 C76.9121,223.6834 75.8901,224.0544 74.8981,224.4014 C74.6251,224.4864 74.4051,224.5604 74.1901,224.6334 C72.9751,225.0344 71.9131,225.3374 70.9301,225.5654 C69.3041,225.9434 67.8081,226.1324 66.4341,226.1324" id="Fill-149" fill="#060001"></path>
                    <path d="M35.3619,233.522 C32.0859,233.522 28.8199,233.341 25.5799,232.975 C20.9869,232.458 15.1199,231.422 10.4839,227.99 C3.4609,222.786 0.5269,212.694 3.3479,203.45 C3.9939,201.332 4.9199,199.261 6.0989,197.297 C6.5269,196.585 7.4499,196.356 8.1609,196.783 C8.8719,197.209 9.1029,198.133 8.6749,198.844 C7.6219,200.598 6.7969,202.443 6.2219,204.327 C3.8049,212.25 6.3489,221.185 12.2729,225.575 C16.3339,228.582 21.6969,229.513 25.9169,229.989 C42.1289,231.821 59.1099,228.855 73.7369,221.635 C74.4799,221.269 75.3819,221.574 75.7489,222.318 C76.1169,223.062 75.8109,223.963 75.0669,224.331 C62.8529,230.359 49.0499,233.522 35.3619,233.522" id="Fill-151" fill="#060001"></path>
                    <path d="M155.6294,232.1675 C154.9814,232.1675 154.3294,232.1475 153.6734,232.1095 C147.2764,231.7305 139.7794,229.6205 130.7514,225.6575 C129.9904,225.3235 129.6464,224.4385 129.9794,223.6785 C130.3124,222.9185 131.1984,222.5745 131.9584,222.9055 C140.6554,226.7235 147.8174,228.7525 153.8504,229.1095 C160.6434,229.5155 169.6404,227.5295 174.5114,220.7865 C178.4114,215.3965 179.1584,207.2665 176.5104,199.0355 C176.4494,198.8465 176.3884,198.6605 176.3204,198.4705 C176.0434,197.6885 176.4524,196.8285 177.2344,196.5525 C178.0194,196.2715 178.8764,196.6855 179.1524,197.4665 C179.2304,197.6845 179.2994,197.8955 179.3704,198.1125 C182.3554,207.3895 181.4714,216.2945 176.9454,222.5475 C172.5934,228.5735 164.5464,232.1675 155.6294,232.1675" id="Fill-153" fill="#060001"></path>
                    <path d="M104.0142,214.0523 C103.9012,214.0523 103.7852,214.0343 103.6732,213.9953 C103.1232,213.8073 102.8302,213.2083 103.0192,212.6593 C104.5012,208.3353 106.6482,204.3543 109.4002,200.8253 C109.7552,200.3673 110.4152,200.2823 110.8752,200.6433 C111.3332,200.9993 111.4152,201.6603 111.0582,202.1183 C108.4512,205.4633 106.4152,209.2393 105.0092,213.3413 C104.8602,213.7783 104.4512,214.0523 104.0142,214.0523" id="Fill-155" fill="#060001"></path>
                    <path d="M97.5357,210.7583 C97.4227,210.7583 97.3077,210.7403 97.1947,210.7013 C96.6457,210.5143 96.3517,209.9153 96.5407,209.3653 C97.8497,205.5343 99.7187,201.9243 102.0917,198.6333 C102.4317,198.1623 103.0887,198.0573 103.5597,198.3953 C104.0307,198.7353 104.1377,199.3933 103.7987,199.8633 C101.5467,202.9863 99.7737,206.4123 98.5307,210.0473 C98.3817,210.4843 97.9727,210.7583 97.5357,210.7583" id="Fill-157" fill="#060001"></path>
                    <path d="M102.9498,200.3003 C102.7358,200.3003 102.5188,200.2353 102.3328,200.0993 C101.8628,199.7583 101.7588,199.1003 102.0998,198.6303 C102.3948,198.2243 102.6978,197.8183 103.0058,197.4233 C103.3638,196.9663 104.0248,196.8873 104.4818,197.2413 C104.9398,197.6003 105.0208,198.2613 104.6638,198.7183 C104.3698,199.0933 104.0828,199.4803 103.8018,199.8663 C103.5958,200.1503 103.2748,200.3003 102.9498,200.3003" id="Fill-159" fill="#060001"></path>
                    <path d="M70.5914,225.1529 C70.1474,225.1529 69.7354,224.8699 69.5914,224.4249 C67.9824,219.4579 64.2544,214.2059 62.7254,212.1779 C62.3764,211.7149 62.4684,211.0549 62.9324,210.7059 C63.3974,210.3569 64.0574,210.4499 64.4054,210.9129 C65.9974,213.0249 69.8854,218.5069 71.5914,223.7769 C71.7714,224.3299 71.4674,224.9229 70.9154,225.1019 C70.8074,225.1359 70.6984,225.1529 70.5914,225.1529" id="Fill-161" fill="#060001"></path>
                    <path d="M76.9322,221.649 C76.4882,221.649 76.0752,221.366 75.9312,220.92 C74.6122,216.84 71.3982,211.274 68.2872,207.684 C68.0772,207.439 67.8692,207.202 67.6562,206.97 C67.2612,206.545 67.2872,205.878 67.7132,205.484 C68.1402,205.09 68.8072,205.116 69.2002,205.543 C69.4312,205.792 69.6562,206.048 69.8802,206.31 C73.2032,210.145 76.5152,215.888 77.9332,220.274 C78.1122,220.827 77.8082,221.42 77.2562,221.598 C77.1482,221.632 77.0392,221.649 76.9322,221.649" id="Fill-163" fill="#060001"></path>
                    <path d="M84.1695,220.0982 C83.8555,220.0982 83.5445,219.9582 83.3365,219.6912 C80.6675,216.2442 73.5235,209.3912 68.7925,207.9982 C68.2345,207.8342 67.9165,207.2502 68.0805,206.6932 C68.2435,206.1352 68.8285,205.8162 69.3855,205.9812 C74.8015,207.5752 82.3465,214.9772 85.0005,218.4022 C85.3555,218.8622 85.2725,219.5222 84.8125,219.8772 C84.6215,220.0262 84.3945,220.0982 84.1695,220.0982" id="Fill-165" fill="#060001"></path>
                    <path d="M76.1553,203.0113 C75.9123,203.0113 75.6653,202.9513 75.4363,202.8263 L75.0673,202.6343 C74.3333,202.2483 74.0503,201.3403 74.4363,200.6063 C74.8223,199.8713 75.7293,199.5873 76.4653,199.9743 L76.8773,200.1903 C77.6053,200.5873 77.8733,201.5003 77.4753,202.2283 C77.2023,202.7283 76.6873,203.0113 76.1553,203.0113" id="Fill-167" fill="#060001"></path>
                    <path d="M91.9165,216.27 C91.5685,216.27 91.2285,216.097 91.0275,215.782 C88.4285,211.689 80.4015,205.02 75.6535,202.432 C75.1435,202.154 74.9555,201.515 75.2335,201.005 C75.5105,200.495 76.1495,200.306 76.6605,200.584 C81.6545,203.307 89.9695,210.19 92.8035,214.655 C93.1145,215.145 92.9695,215.794 92.4785,216.106 C92.3045,216.217 92.1085,216.27 91.9165,216.27" id="Fill-169" fill="#060001"></path>
                    <path d="M81.9761,205.0425 C81.9391,205.0425 81.9021,205.0405 81.8651,205.0365 C81.2881,204.9765 80.8681,204.4595 80.9291,203.8815 C81.6341,197.1285 88.5451,188.0995 89.3311,187.0925 C89.3581,187.0585 89.3861,187.0255 89.4171,186.9945 C89.8301,186.5845 90.4971,186.5835 90.9081,186.9915 C91.2981,187.3835 91.3201,188.0035 90.9661,188.4165 C88.2491,191.9065 83.5431,199.1045 83.0201,204.1005 C82.9641,204.6415 82.5081,205.0425 81.9761,205.0425" id="Fill-171" fill="#060001"></path>
                    <path d="M89.4581,207.1997 C89.1641,207.1997 88.8711,207.0767 88.6631,206.8377 C88.2821,206.3977 88.3301,205.7337 88.7691,205.3527 C92.1001,202.4657 97.8171,200.1727 101.9911,198.4987 L102.5521,198.2727 C103.2181,198.0037 104.0001,198.5327 104.0001,199.2487 C104.0001,199.7157 103.6971,200.1117 103.2761,200.2487 L102.7741,200.4507 C98.7381,202.0687 93.2101,204.2857 90.1471,206.9427 C89.9481,207.1147 89.7021,207.1997 89.4581,207.1997" id="Fill-173" fill="#060001"></path>
                    <path d="M81.9742,205.0425 C81.7472,205.0425 81.5182,204.9695 81.3262,204.8185 C80.8692,204.4605 80.7882,203.7995 81.1462,203.3425 C85.0832,198.3155 94.9442,193.1915 98.8372,191.6255 C99.3762,191.4095 99.9892,191.6695 100.2052,192.2085 C100.4222,192.7475 100.1612,193.3595 99.6222,193.5765 C95.4712,195.2465 86.2752,200.2065 82.8032,204.6395 C82.5952,204.9035 82.2862,205.0425 81.9742,205.0425" id="Fill-175" fill="#060001"></path>
                    <path d="M112.105,217.9888 C111.792,217.9888 111.482,217.8498 111.274,217.5838 C110.918,217.1258 111,216.4648 111.458,216.1068 C113.272,214.6928 115.759,213.3098 119.283,211.7558 C119.818,211.5178 120.436,211.7608 120.669,212.2928 C120.905,212.8238 120.664,213.4448 120.132,213.6788 C116.817,215.1418 114.402,216.4788 112.751,217.7668 C112.558,217.9168 112.331,217.9888 112.105,217.9888" id="Fill-177" fill="#060001"></path>
                    <path d="M105.1861,215.0015 C104.9191,215.0015 104.6531,214.9005 104.4481,214.6985 C104.0341,214.2905 104.0291,213.6245 104.4371,213.2115 C107.4831,210.1215 112.2031,207.3015 114.7451,205.8965 C115.2511,205.6115 115.8921,205.7985 116.1731,206.3075 C116.4551,206.8145 116.2711,207.4555 115.7621,207.7355 C111.5451,210.0695 108.0551,212.5385 105.9351,214.6885 C105.7291,214.8975 105.4571,215.0015 105.1861,215.0015" id="Fill-179" fill="#060001"></path>
                    <g transform="translate(41.000000, 0.522000)">
                        <mask id="mask-2" fill="white">
                            <use xlink:href="#path-1"></use>
                        </mask>
                        <g id="Clip-182"></g>
                        <path d="M2.585,53.3262 C1.851,53.3262 1.209,52.7872 1.1,52.0382 C-0.448,41.3522 3.012,29.1602 10.357,19.4262 C17.942,9.3732 28.597,2.9622 40.359,1.3742 C41.472,1.2242 47.158,0.4772 49.9,0.4772 C52.471,0.4772 55.047,0.6672 57.556,1.0402 C83.224,4.8262 99.38,24.7742 98.715,51.8602 C98.696,52.6902 97.99,53.3722 97.176,53.3252 C96.347,53.3052 95.691,52.6162 95.711,51.7862 C96.346,25.9232 81.557,7.6182 57.116,4.0132 C54.751,3.6612 52.324,3.4822 49.9,3.4822 C47.922,3.4822 43.74,3.9512 40.761,4.3522 C29.8,5.8322 19.854,11.8282 12.756,21.2362 C5.884,30.3442 2.638,41.6982 4.074,51.6082 C4.193,52.4292 3.624,53.1912 2.802,53.3102 C2.73,53.3212 2.657,53.3262 2.585,53.3262" id="Fill-181" fill="#060001" mask="url(#mask-2)"></path>
                    </g>
                    <path d="M130.6392,71.0923 C129.7922,71.0923 128.9922,70.7353 128.3392,70.0423 C127.7702,69.4393 127.7972,68.4883 128.4012,67.9183 C129.0052,67.3503 129.9562,67.3773 130.5252,67.9813 C130.5962,68.0563 130.6452,68.0853 130.6582,68.0903 C130.7102,68.0873 131.0232,67.9783 131.5132,67.4883 C133.8682,65.1413 136.7102,57.8633 136.7102,52.3453 C136.7102,51.5153 137.3832,50.8423 138.2132,50.8423 C139.0432,50.8423 139.7162,51.5153 139.7162,52.3453 C139.7162,59.0623 135.9062,69.2423 131.8602,70.8493 C131.4502,71.0123 131.0392,71.0923 130.6392,71.0923" id="Fill-183" fill="#060001"></path>
                    <path d="M54.689,71.4463 C54.569,71.4463 54.446,71.4313 54.324,71.4013 C46.741,69.5103 42.085,59.0283 42.085,52.3453 C42.085,51.5153 42.757,50.8423 43.587,50.8423 C44.417,50.8423 45.089,51.5153 45.089,52.3453 C45.089,57.7813 49.063,66.9923 55.052,68.4853 C55.857,68.6863 56.347,69.5023 56.146,70.3073 C55.976,70.9903 55.363,71.4463 54.689,71.4463" id="Fill-185" fill="#060001"></path>
                    <path d="M54.1998,58.8609 C53.9088,58.8609 53.6148,58.7769 53.3558,58.5999 C52.6698,58.1329 52.4918,57.1989 52.9588,56.5129 C53.4868,55.7379 54.0738,55.0049 54.7048,54.3329 C55.2728,53.7289 56.2238,53.6979 56.8288,54.2679 C57.4338,54.8359 57.4628,55.7869 56.8948,56.3919 C56.3708,56.9489 55.8828,57.5589 55.4438,58.2029 C55.1528,58.6309 54.6798,58.8609 54.1998,58.8609" id="Fill-187" fill="#060001"></path>
                    <path d="M91.9048,104.0874 C91.8838,104.0874 91.8628,104.0874 91.8418,104.0864 C90.5748,104.0334 89.2168,103.8394 87.6928,103.4914 C87.1408,103.3664 86.5918,103.2304 86.0598,103.0864 C82.5178,102.1284 78.6338,100.2414 75.1248,97.7744 C74.6808,97.4654 74.2368,97.1344 73.7928,96.7964 C69.6888,93.6574 66.3048,89.8334 64.0048,85.7344 C63.5738,84.9694 63.2038,84.2454 62.8728,83.5214 C62.6458,83.0304 62.4308,82.5304 62.2278,82.0174 C61.2188,79.4754 59.9948,75.9834 59.9008,73.7934 C59.8248,73.0694 60.2858,72.3794 61.0108,72.1874 C61.8128,71.9764 62.6348,72.4524 62.8478,73.2544 C62.8758,73.3594 62.8988,73.5524 62.9028,73.6614 C62.9298,74.3054 63.1908,76.3004 65.0218,80.9104 C65.2048,81.3734 65.3978,81.8224 65.6028,82.2664 C65.9018,82.9174 66.2348,83.5694 66.6248,84.2634 C68.7278,88.0094 71.8368,91.5174 75.6148,94.4074 C76.0218,94.7164 76.4308,95.0224 76.8458,95.3104 C80.0838,97.5874 83.6318,99.3164 86.8448,100.1854 C87.3358,100.3174 87.8438,100.4444 88.3578,100.5604 C89.7048,100.8684 90.8838,101.0394 91.9668,101.0834 C92.7958,101.1184 93.4388,101.8174 93.4048,102.6474 C93.3718,103.4554 92.7068,104.0874 91.9048,104.0874" id="Fill-189" fill="#060001"></path>
                    <path d="M91.9031,104.0873 C91.1021,104.0873 90.4371,103.4563 90.4031,102.6483 C90.3681,101.8193 91.0111,101.1183 91.8401,101.0833 C93.3041,101.0223 94.9331,100.7363 96.9681,100.1853 C96.9961,100.1763 97.0421,100.1643 97.0711,100.1563 C100.7081,99.1553 104.6631,97.1113 108.2051,94.4023 C109.6651,93.2863 111.0401,92.0623 112.2911,90.7653 C113.4441,89.5763 114.4951,88.3253 115.4161,87.0433 C116.5041,85.5183 117.4261,83.9483 118.1521,82.3833 C118.1591,82.3693 118.1651,82.3563 118.1711,82.3423 C118.1841,82.3113 118.1971,82.2813 118.2111,82.2513 C118.4191,81.8123 118.6111,81.3683 118.7911,80.9123 C120.6231,76.2993 120.8841,74.3053 120.9111,73.6613 C120.9161,73.5523 120.9381,73.3603 120.9661,73.2553 C121.1771,72.4533 121.9971,71.9713 122.8031,72.1873 C123.5291,72.3793 123.9891,73.0703 123.9141,73.7943 C123.8081,76.0133 122.5901,79.4863 121.5841,82.0193 C121.3911,82.5073 121.1861,82.9873 120.9631,83.4613 C120.9311,83.5493 120.8921,83.6333 120.8471,83.7153 C120.0481,85.4253 119.0421,87.1343 117.8591,88.7933 C116.8491,90.1983 115.7041,91.5643 114.4511,92.8543 C113.0971,94.2573 111.6091,95.5823 110.0301,96.7893 C106.1891,99.7273 101.8701,101.9523 97.8681,103.0543 C97.8391,103.0643 97.7841,103.0783 97.7531,103.0863 C95.4991,103.6963 93.6601,104.0143 91.9671,104.0863 C91.9461,104.0873 91.9241,104.0873 91.9031,104.0873" id="Fill-191" fill="#060001"></path>
                    <path d="M67.3052,64.0176 C66.8232,64.0176 66.3482,63.7856 66.0582,63.3556 L61.1722,56.1196 C60.7082,55.4316 60.8882,54.4976 61.5762,54.0336 C62.2652,53.5676 63.1982,53.7496 63.6622,54.4376 L68.5492,61.6736 C69.0132,62.3616 68.8322,63.2956 68.1442,63.7596 C67.8872,63.9346 67.5942,64.0176 67.3052,64.0176" id="Fill-193" fill="#060001"></path>
                    <path d="M121.0708,66.7456 C120.9018,66.7456 120.7298,66.6986 120.5778,66.5996 C120.1528,66.3266 120.0308,65.7616 120.3038,65.3376 L123.2308,60.7936 C123.5038,60.3696 124.0698,60.2466 124.4928,60.5206 C124.9178,60.7936 125.0398,61.3586 124.7658,61.7836 L121.8398,66.3266 C121.6648,66.5976 121.3708,66.7456 121.0708,66.7456" id="Fill-195" fill="#060001"></path>
                    <path d="M58.9097,75.8579 C55.2017,75.8579 53.7757,71.8589 53.2727,70.4479 C52.7837,69.0559 52.3677,67.4499 51.9917,65.9209 C51.1757,62.5819 51.4997,59.2019 52.8787,56.6449 C53.4077,55.6619 54.0697,54.8389 54.8467,54.2009 C55.6307,53.5489 56.5227,53.0959 57.4907,52.8579 C59.3817,52.3989 61.4247,52.8149 63.2487,54.0259 C63.9397,54.4849 64.1287,55.4179 63.6697,56.1089 C63.2107,56.8009 62.2807,56.9889 61.5867,56.5299 C60.7947,56.0039 59.5647,55.4459 58.2027,55.7769 C57.6857,55.9039 57.1987,56.1539 56.7597,56.5189 C56.2817,56.9109 55.8677,57.4319 55.5247,58.0699 C54.5087,59.9539 54.2787,62.6209 54.9097,65.2059 C55.2677,66.6579 55.6607,68.1799 56.1057,69.4449 C57.3617,72.9669 58.5137,73.0149 59.5857,72.7659 C59.9487,72.6829 60.2987,72.5409 60.6347,72.3439 C61.3497,71.9229 62.2717,72.1639 62.6917,72.8789 C63.1117,73.5939 62.8717,74.5149 62.1567,74.9359 C61.5557,75.2879 60.9197,75.5429 60.2657,75.6929 C59.7827,75.8059 59.3307,75.8579 58.9097,75.8579" id="Fill-197" fill="#060001"></path>
                    <path d="M116.0103,64.0171 C115.6983,64.0171 115.3843,63.9211 115.1143,63.7211 C114.4483,63.2251 114.3103,62.2841 114.8053,61.6181 L120.1843,54.3821 C120.6793,53.7161 121.6203,53.5781 122.2863,54.0721 C122.9523,54.5671 123.0913,55.5091 122.5963,56.1751 L117.2173,63.4111 C116.9223,63.8081 116.4693,64.0171 116.0103,64.0171" id="Fill-199" fill="#060001"></path>
                    <path d="M124.9078,75.8589 C124.4818,75.8589 124.0268,75.8059 123.5398,75.6909 C122.8918,75.5419 122.2568,75.2869 121.6568,74.9349 C120.9418,74.5149 120.7028,73.5939 121.1238,72.8789 C121.5438,72.1629 122.4658,71.9229 123.1798,72.3439 C123.5138,72.5409 123.8648,72.6819 124.2208,72.7639 C125.3868,73.0409 126.6348,72.9389 127.9978,68.5639 C128.3338,67.4829 128.6448,66.2579 128.9048,65.2019 C129.9788,60.7959 128.4688,56.4779 125.6068,55.7759 C125.3448,55.7139 125.0698,55.6789 124.7988,55.6749 L124.7818,55.6749 C123.9518,55.6749 123.0618,55.9699 122.2228,56.5289 C121.5338,56.9859 120.5998,56.8029 120.1398,56.1119 C119.6788,55.4219 119.8668,54.4879 120.5568,54.0279 C121.8898,53.1389 123.3558,52.6699 124.7968,52.6699 L124.8298,52.6699 C125.3338,52.6779 125.8268,52.7399 126.3108,52.8549 C130.9178,53.9839 133.3338,59.7209 131.8238,65.9179 C131.5528,67.0199 131.2268,68.2989 130.8678,69.4569 C130.2958,71.2899 128.8698,75.8589 124.9078,75.8589" id="Fill-201" fill="#060001"></path>
                    <path d="M60.7354,66.7456 C60.4354,66.7456 60.1414,66.5986 59.9674,66.3276 L57.0344,61.7836 C56.7604,61.3606 56.8824,60.7946 57.3064,60.5216 C57.7294,60.2466 58.2954,60.3696 58.5684,60.7936 L61.5014,65.3366 C61.7754,65.7606 61.6534,66.3256 61.2294,66.5996 C61.0764,66.6986 60.9044,66.7456 60.7354,66.7456" id="Fill-203" fill="#060001"></path>
                    <path d="M105.9976,58.8301 C103.2806,58.8301 96.9516,59.5021 96.8746,65.7251 L96.8746,66.7161 C96.8746,71.2661 100.5756,74.9681 105.1266,74.9681 L106.8696,74.9681 C111.4236,74.9681 115.1276,71.2661 115.1276,66.7161 L115.1276,65.8381 C115.1276,65.3331 115.0846,64.8561 114.9966,64.3821 C114.9096,63.9241 114.7816,63.4871 114.6176,63.0901 L114.6146,63.0841 C114.2106,62.0971 113.5436,61.2601 112.6336,60.5991 C111.0386,59.4421 108.7426,58.8301 105.9976,58.8301 M106.8696,77.9731 L105.1266,77.9731 C98.9196,77.9731 93.8686,72.9231 93.8686,66.7161 L93.8686,65.7061 C93.9446,59.6041 98.5926,55.8251 105.9976,55.8251 C109.3806,55.8251 112.2856,56.6351 114.3986,58.1661 C115.7676,59.1621 116.7746,60.4311 117.3936,61.9401 C117.6376,62.5271 117.8236,63.1621 117.9506,63.8271 C118.0736,64.4911 118.1336,65.1461 118.1336,65.8381 L118.1336,66.7161 C118.1336,72.9231 113.0806,77.9731 106.8696,77.9731" id="Fill-205" fill="#060001"></path>
                    <path d="M77.3169,58.8301 C72.9579,58.8301 69.8139,60.3831 68.6919,63.0901 C68.5459,63.4341 68.4369,63.7901 68.3529,64.1881 C68.2469,64.6991 68.1929,65.2551 68.1929,65.8381 L68.1929,66.7161 C68.1929,71.2661 71.8949,74.9681 76.4449,74.9681 L78.1889,74.9681 C82.7389,74.9681 86.4409,71.2661 86.4409,66.7161 L86.4409,65.8381 C86.4409,63.5611 85.6019,61.7991 83.9479,60.6001 C82.3509,59.4421 80.0579,58.8301 77.3169,58.8301 M78.1889,77.9731 L76.4449,77.9731 C70.2379,77.9731 65.1879,72.9231 65.1879,66.7161 L65.1879,65.8381 C65.1879,65.0511 65.2629,64.2881 65.4119,63.5741 C65.5369,62.9811 65.7019,62.4451 65.9199,61.9301 C67.5259,58.0541 71.6819,55.8251 77.3169,55.8251 C80.6959,55.8251 83.5989,56.6351 85.7119,58.1671 C88.1539,59.9381 89.4449,62.5911 89.4449,65.8381 L89.4449,66.7161 C89.4449,72.9231 84.3959,77.9731 78.1889,77.9731" id="Fill-207" fill="#060001"></path>
                    <path d="M87.9439,67.3955 C87.3629,67.3955 86.8109,67.0575 86.5649,66.4915 C86.2339,65.7305 86.5829,64.8455 87.3439,64.5145 C89.8269,63.4355 93.2579,63.3455 95.8809,64.2925 C96.6619,64.5745 97.0669,65.4355 96.7849,66.2155 C96.5039,66.9965 95.6419,67.4015 94.8619,67.1195 C92.9379,66.4255 90.3399,66.4885 88.5419,67.2705 C88.3469,67.3555 88.1439,67.3955 87.9439,67.3955" id="Fill-209" fill="#060001"></path>
                    <path d="M91.9048,79.5537 C91.8308,79.5537 91.7548,79.5447 91.6788,79.5257 L85.3568,77.9207 C85.1098,77.8577 84.8998,77.6947 84.7778,77.4707 C84.6558,77.2457 84.6338,76.9807 84.7178,76.7397 L87.3138,69.1607 C87.4768,68.6837 87.9968,68.4287 88.4728,68.5927 C88.9498,68.7557 89.2048,69.2757 89.0408,69.7527 L86.7658,76.3937 L92.1288,77.7547 C92.6178,77.8787 92.9128,78.3757 92.7888,78.8647 C92.6838,79.2787 92.3118,79.5537 91.9048,79.5537" id="Fill-211" fill="#060001"></path>
                    <path d="M55.7994,56.8648 C55.4344,56.8648 55.0684,56.7328 54.7794,56.4658 C54.1704,55.9018 54.1334,54.9508 54.6964,54.3418 C56.2194,52.6968 58.0814,51.2798 60.2304,50.1308 C62.3034,49.0228 63.4784,46.7528 63.2254,44.3468 C62.4884,37.4308 63.6574,31.2388 66.6984,25.9448 C71.3814,17.8018 80.8614,12.2058 90.8524,11.6878 C91.6714,11.6408 92.3874,12.2818 92.4314,13.1108 C92.4744,13.9388 91.8364,14.6458 91.0084,14.6888 C82.0094,15.1558 73.4904,20.1608 69.3034,27.4428 C66.5854,32.1748 65.5454,37.7558 66.2134,44.0308 C66.5964,47.6598 64.8034,51.0938 61.6474,52.7808 C59.7944,53.7718 58.1974,54.9838 56.9034,56.3828 C56.6064,56.7028 56.2034,56.8648 55.7994,56.8648" id="Fill-213" fill="#060001"></path>
                    <path d="M124.8208,55.6753 C124.5388,55.6753 124.2538,55.5953 123.9998,55.4303 C123.0148,54.7863 121.9228,54.1553 120.7528,53.5553 C117.2388,51.7673 115.2178,48.0153 115.6098,44.0013 C115.7758,42.3333 115.8268,40.7043 115.7598,39.1563 C115.7318,38.3963 115.6708,37.6123 115.5768,36.8163 C115.3458,34.8913 114.9278,33.0573 114.3348,31.3683 C113.8558,29.9853 113.2578,28.6663 112.5548,27.4413 C112.4538,27.2623 112.3518,27.0913 112.2388,26.9153 C107.9368,19.9323 99.5488,15.1413 90.8518,14.6883 C90.0228,14.6453 89.3858,13.9383 89.4298,13.1103 C89.4728,12.2813 90.1898,11.6443 91.0078,11.6873 C100.6608,12.1903 109.9938,17.5403 114.7838,25.3163 C114.9108,25.5143 115.0378,25.7273 115.1638,25.9473 C115.9588,27.3333 116.6338,28.8253 117.1728,30.3793 C117.8368,32.2673 118.3038,34.3163 118.5608,36.4613 C118.6648,37.3403 118.7318,38.2053 118.7628,39.0373 C118.8358,40.7173 118.7808,42.4903 118.5998,44.2963 C118.3308,47.0683 119.7118,49.6543 122.1198,50.8803 C123.3868,51.5293 124.5718,52.2143 125.6438,52.9143 C126.3388,53.3683 126.5338,54.3003 126.0798,54.9943 C125.7918,55.4353 125.3108,55.6753 124.8208,55.6753" id="Fill-215" fill="#060001"></path>
                    <path d="M81.8916,41.6792 C77.9136,41.6792 74.0836,41.1832 70.7056,40.0022 C70.3956,39.8942 70.2306,39.5582 70.3326,39.2462 C70.4356,38.9352 70.7686,38.7622 71.0816,38.8612 C76.0276,40.4002 107.3096,36.4122 112.9746,25.8212 C113.1306,25.5292 113.4936,25.4152 113.7876,25.5752 C114.0806,25.7312 114.1906,26.0952 114.0346,26.3882 C109.3256,35.1912 88.9096,39.5222 77.6056,40.2492 C92.1396,41.7252 110.9946,34.7402 115.3296,30.4442 C115.5586,30.2152 115.9376,30.2072 116.1726,30.4352 C116.4076,30.6612 116.4216,31.0322 116.1996,31.2722 C112.0286,35.4072 96.0296,41.6792 81.8916,41.6792" id="Fill-217" fill="#060001"></path>
                    <path d="M103.5083,42.3653 C102.6163,42.3653 101.7523,42.3233 100.9123,42.2393 C100.5863,42.2053 100.3473,41.9173 100.3743,41.5903 C100.4023,41.2633 100.6823,41.0183 101.0133,41.0413 C103.0263,41.1693 109.4873,39.3613 116.8243,36.0913 L117.7413,35.6783 C118.0423,35.5413 118.3993,35.6753 118.5363,35.9783 C118.6733,36.2813 118.5383,36.6373 118.2363,36.7733 L117.3163,37.1883 C113.9513,38.6873 110.5383,39.9743 107.6413,40.8753 C110.5543,40.4853 113.7033,39.7003 117.0633,38.5253 C117.4263,38.4003 117.7873,38.2693 118.1493,38.1333 C118.4573,38.0163 118.8063,38.1733 118.9233,38.4833 C119.0403,38.7943 118.8833,39.1413 118.5723,39.2583 C118.2013,39.3983 117.8283,39.5323 117.4563,39.6603 C112.3193,41.4593 107.6393,42.3653 103.5083,42.3653" id="Fill-219" fill="#060001"></path>
                    <path d="M76.3272,158.0664 C76.2552,158.0664 76.1812,158.0614 76.1082,158.0504 C75.2862,157.9304 74.7182,157.1674 74.8382,156.3464 L75.7992,149.7754 C69.0292,148.7294 58.1822,145.4754 53.9412,138.7644 C49.6842,132.0404 48.6702,123.5244 51.2272,115.9854 C51.4952,115.2014 52.3482,114.7804 53.1332,115.0454 C53.9192,115.3124 54.3402,116.1654 54.0732,116.9514 C51.8052,123.6384 52.7042,131.1924 56.4802,137.1574 C59.9402,142.6314 69.8962,146.0964 77.6822,146.9994 C78.0862,147.0454 78.4542,147.2544 78.7022,147.5774 C78.9502,147.9004 79.0552,148.3104 78.9952,148.7124 L77.8122,156.7804 C77.7022,157.5284 77.0602,158.0664 76.3272,158.0664" id="Fill-221" fill="#060001"></path>
                    <path d="M73.1578,179.5894 C57.0818,179.5894 40.5648,170.8524 31.2848,162.1694 C31.2548,162.1454 31.2258,162.1194 31.1978,162.0934 C29.4858,160.4814 28.1388,158.9764 27.1958,157.6194 C21.4048,149.3114 19.5698,137.6234 22.1638,125.5534 C26.6488,104.6694 43.4008,86.9434 63.8478,81.4444 C64.6458,81.2274 65.4728,81.7034 65.6898,82.5054 C65.9048,83.3064 65.4298,84.1314 64.6288,84.3464 C45.2408,89.5604 29.3558,106.3744 25.1018,126.1844 C22.6828,137.4424 24.3448,148.2744 29.6618,155.9024 C30.4628,157.0534 31.6778,158.4104 33.1798,159.8324 C33.2088,159.8554 33.2368,159.8794 33.2628,159.9044 C39.6918,165.9464 54.8968,176.0684 71.8638,176.5654 L74.8328,156.3454 C74.9538,155.5244 75.7138,154.9574 76.5378,155.0764 C77.3588,155.1974 77.9268,155.9604 77.8058,156.7814 L74.6438,178.3064 C74.5348,179.0434 73.9028,179.5894 73.1578,179.5894" id="Fill-223" fill="#060001"></path>
                    <path d="M152.0552,162.2491 C151.6742,162.2491 151.2932,162.1051 151.0002,161.8171 C150.4092,161.2341 150.4032,160.2831 150.9852,159.6921 C152.1732,158.4851 153.2392,157.2101 154.1522,155.9021 C159.4682,148.2741 161.1302,137.4431 158.7112,126.1851 C154.4572,106.3751 138.5732,89.5621 119.1842,84.3471 C118.3832,84.1311 117.9082,83.3071 118.1232,82.5051 C118.3392,81.7041 119.1622,81.2301 119.9652,81.4441 C140.4132,86.9451 157.1652,104.6711 161.6492,125.5541 C164.2432,137.6241 162.4092,149.3111 156.6172,157.6211 C155.6072,159.0681 154.4332,160.4751 153.1252,161.8011 C152.8312,162.1001 152.4442,162.2491 152.0552,162.2491" id="Fill-225" fill="#060001"></path>
                    <path d="M91.6187,182.312 C86.6847,182.312 78.7167,180.124 72.7917,175.302 C72.7527,175.27 72.7147,175.236 72.6787,175.2 C72.0917,174.613 72.0887,173.659 72.6757,173.072 C73.2377,172.509 74.1317,172.483 74.7227,172.999 C79.8587,177.163 87.1187,179.359 91.6697,179.306 C92.9067,179.3 93.5597,179.127 93.8387,179.025 C94.7647,178.678 95.2407,177.631 94.8897,176.697 C94.7257,176.262 94.3157,175.863 93.8237,175.659 C93.2817,175.433 92.5407,175.202 91.6827,174.933 L91.2067,174.784 C87.8117,173.72 80.7437,171.506 82.0377,164.738 C82.2317,163.704 82.6117,162.633 83.1997,161.469 C83.4187,161.037 83.8327,160.736 84.3117,160.662 C85.6327,160.458 86.9947,160.346 88.3607,160.326 C89.3527,160.316 90.1547,159.504 90.1547,158.517 C90.1547,157.687 90.8277,157.014 91.6577,157.014 C92.4877,157.014 93.1607,157.687 93.1607,158.517 C93.1607,161.145 91.0227,163.305 88.3967,163.331 C87.4437,163.345 86.4897,163.409 85.5547,163.524 C85.2827,164.155 85.0937,164.749 84.9907,165.296 C84.3277,168.762 87.0987,170.347 92.1067,171.916 L92.5807,172.065 C93.5087,172.355 94.3087,172.606 94.9747,172.882 C96.2437,173.408 97.2387,174.413 97.7027,175.637 C98.6377,178.127 97.3717,180.91 94.8837,181.843 C94.0507,182.148 92.9767,182.305 91.6827,182.312 L91.6187,182.312 Z" id="Fill-227" fill="#060001"></path>
                    <path d="M91.6578,159.9771 C90.8348,159.9771 90.1638,159.3141 90.1548,158.4891 C90.1488,157.8071 89.7608,157.1941 89.1428,156.8901 C88.8838,156.7621 88.6078,156.7031 88.3198,156.7021 C84.9228,156.7411 80.5338,156.9241 76.7378,158.0081 C75.8048,158.2711 74.8198,157.5331 74.8198,156.5631 C74.8198,155.8501 75.3158,155.2521 75.9818,155.0991 C80.1048,153.9351 84.7208,153.7381 88.2868,153.6971 C89.0468,153.7061 89.7948,153.8601 90.4708,154.1941 C92.1108,155.0011 93.1418,156.6361 93.1608713,158.4601 C93.1688,159.2901 92.5028,159.9691 91.6728,159.9771 L91.6578,159.9771 Z" id="Fill-229" fill="#060001"></path>
                    <path d="M91.6753,182.3179 C90.8453,182.3179 90.1633,181.6449 90.1633,180.8149 C90.1633,179.9849 90.8273,179.3119 91.6573,179.3119 L91.6753,179.3119 C91.7753,179.3109 91.8753,179.3129 91.9793,179.3079 C96.3933,179.2039 103.4523,177.1799 108.6113,172.9829 C109.2033,172.4889 110.0843,172.5179 110.6393,173.0719 C111.2263,173.6589 111.2293,174.6069 110.6423,175.1939 C110.6063,175.2299 110.5623,175.2699 110.5233,175.3019 C104.7843,179.9779 97.1273,182.1919 92.0833,182.3109 C91.9673,182.3169 91.8183,182.3179 91.6753,182.3179" id="Fill-231" fill="#060001"></path>
                    <path d="M91.6578,174.8531 C91.0178,174.8531 90.4258,174.4421 90.2238,173.8001 C89.9758,173.0081 90.4158,172.1651 91.2078,171.9161 C96.2528,170.3331 99.0318,168.7311 98.3118,165.2261 C98.2048,164.6931 98.0198,164.1251 97.7618,163.5291 C96.8088,163.4111 95.8538,163.3441 94.9118,163.3311 C92.2918,163.3051 90.1546437,161.1451 90.1546437,158.5171 C90.1718,156.6371 91.2028,155.0011 92.8448,154.1931 C93.5208,153.8611 94.2928,153.7031 95.0278,153.6971 C98.6148,153.7381 103.2618,153.9361 107.4018,155.1191 C108.1998,155.3461 108.6628,156.1781 108.4348,156.9761 C108.2078,157.7741 107.3748,158.2381 106.5778,158.0081 C102.7808,156.9241 98.3928,156.7411 94.9938,156.7021 C94.7518,156.7061 94.4308,156.7621 94.1728,156.8901 C93.5538,157.1931 93.1668,157.8061 93.1608,158.4881 C93.1608,159.5041 93.9628,160.3161 94.9478,160.3261 C96.2938,160.3451 97.6558,160.4601 99.0028,160.6681 C99.4808,160.7421 99.8938,161.0401 100.1138,161.4721 C100.6708,162.5671 101.0538,163.6281 101.2568,164.6261 C102.6628,171.4711 95.5338,173.7081 92.1078,174.7841 C91.9578,174.8311 91.8058,174.8531 91.6578,174.8531" id="Fill-233" fill="#060001"></path>
                    <path d="M110.1568,179.5894 C109.4118,179.5894 108.7788,179.0434 108.6708,178.3064 L105.5278,156.9114 C105.5178,156.8684 105.5098,156.8254 105.5038,156.7814 L104.3188,148.7114 C104.2598,148.3084 104.3658,147.8994 104.6128,147.5774 C104.8608,147.2544 105.2278,147.0464 105.6328,146.9994 C113.4188,146.0964 123.3748,142.6314 126.8338,137.1584 C130.6098,131.1924 131.5108,123.6384 129.2418,116.9514 C128.9748,116.1654 129.3958,115.3124 130.1818,115.0464 C130.9688,114.7794 131.8208,115.1994 132.0878,115.9864 C134.6438,123.5244 133.6298,132.0404 129.3738,138.7654 C125.1318,145.4764 114.2828,148.7304 107.5128,149.7764 L108.4578,156.2154 C108.4678,156.2584 108.4758,156.3014 108.4818,156.3454 L111.4508,176.5644 C126.6468,176.0934 142.2508,167.4784 150.5218,159.4574 C151.8358,158.1824 152.9188,156.9524 153.6538,155.9014 C158.9698,148.2744 160.6328,137.4424 158.2138,126.1854 C154.0038,106.5684 138.2908,89.8014 119.1118,84.4634 L118.6548,84.3374 C117.8578,84.1044 117.4018,83.2704 117.6348,82.4734 C117.8678,81.6774 118.7038,81.2204 119.4988,81.4534 L119.9338,81.5724 C140.1428,87.1974 156.7138,104.8744 161.1508,125.5534 C163.7448,137.6224 161.9108,149.3104 156.1178,157.6214 C155.2618,158.8454 154.0848,160.1884 152.6138,161.6144 C145.7288,168.2904 129.0398,179.5894 110.1568,179.5894" id="Fill-235" fill="#060001"></path>
                    <path d="M90.4498,11.2305 C79.4958,11.8415 69.4018,18.6705 64.9538,26.9885 C62.1828,32.1685 60.3988,38.9925 60.4898,44.6265 C60.5958,51.1415 62.1158,54.6565 63.5168,56.3605 C66.6878,60.2155 69.1618,56.7775 69.1618,56.7775 C70.9078,54.3675 80.4498,55.0565 90.9328,54.9745 C101.6568,54.8955 110.9258,54.2895 112.6708,56.6985 C112.6708,56.6985 117.2578,61.5675 119.7268,54.8685 C120.4878,52.8035 121.2948,49.6575 121.3768,44.6265 C121.4678,38.9925 119.6828,32.1685 116.9128,26.9885 C112.4648,18.6705 102.3708,11.8415 91.4168,11.2305" id="Fill-237" fill="#070102"></path>
                    <path d="M113.9517,55.5899 C114.4187,56.0499 115.5277,56.8609 116.3297,56.6939 C116.9737,56.5589 117.6167,55.7029 118.1397,54.2829 C119.1167,51.6319 119.6227,48.4639 119.6847,44.5989 C119.7687,39.3859 118.0957,32.7869 115.4217,27.7859 C111.0317,19.5799 101.1227,13.4659 91.3217,12.9199 C91.1867,12.9119 91.0567,12.8889 90.9327,12.8519 C90.8087,12.8889 90.6797,12.9119 90.5447,12.9199 C80.7437,13.4659 70.8337,19.5799 66.4457,27.7859 C63.7697,32.7869 62.0967,39.3859 62.1807,44.5989 C62.2887,51.2339 63.8827,54.1429 64.8237,55.2869 C65.4737,56.0769 66.1147,56.5039 66.5987,56.4979 C67.1377,56.4869 67.6607,55.9579 67.8017,55.7729 C69.6087,53.2769 74.8417,53.1999 84.7137,53.2699 C86.7047,53.2849 88.7937,53.3009 90.9197,53.2829 C92.6267,53.2699 94.2967,53.2439 95.9037,53.2189 C106.3647,53.0569 111.9747,53.0899 113.9517,55.5899 M116.0997,60.0999 C113.6307,60.0999 111.6767,58.1109 111.4387,57.8589 C111.3887,57.8059 111.3437,57.7499 111.3007,57.6909 C110.3467,56.3799 102.0297,56.5069 95.9567,56.6019 C94.3397,56.6269 92.6617,56.6529 90.9457,56.6659 C88.7997,56.6819 86.6967,56.6669 84.6887,56.6529 C79.1127,56.6109 71.4767,56.5569 70.5307,57.7709 C70.3847,57.9739 69.0027,59.8049 66.7207,59.8789 C65.0927,59.9299 63.5867,59.1089 62.2107,57.4359 C60.7197,55.6219 58.9167,51.9319 58.7987,44.6529 C58.7037,38.8199 60.4907,31.7459 63.4617,26.1909 C68.4567,16.8519 79.2647,10.1609 90.3547,9.5419 C90.5557,9.5329 90.7507,9.5549 90.9327,9.6089 C91.1167,9.5549 91.3147,9.5339 91.5117,9.5419 C102.6017,10.1609 113.4097,16.8509 118.4037,26.1909 C121.3747,31.7459 123.1617,38.8199 123.0677,44.6529 C122.9987,48.9059 122.4247,52.4389 121.3137,55.4529 C120.3417,58.0909 118.8897,59.6239 117.0007,60.0099 C116.6937,60.0719 116.3927,60.0999 116.0997,60.0999" id="Fill-239" fill="#060001"></path>
                </g>
            </g>
        </g>
    </g>
</svg>