<svg width="24" height="24" viewBox="0 0 24 24" fill="none" xmlns="http://www.w3.org/2000/svg">
<path fill-rule="evenodd" clip-rule="evenodd" d="M13 4.47826V2H11V4.47826H13ZM6.99821 6.33183L5.34604 4.26661L3.7843 5.516L5.43648 7.58122L6.99821 6.33183ZM18.5634 7.58122L20.2156 5.516L18.6539 4.26661L17.0017 6.33183L18.5634 7.58122ZM16.6086 16.0001V12.7391C16.6086 10.1938 14.5453 8.13043 12 8.13043C9.45464 8.13043 7.39126 10.1938 7.39126 12.7391V16.0001H16.6086ZM12 6.13043C8.35007 6.13043 5.39126 9.08925 5.39126 12.7391V16.0001V18.0001H7.39126H16.6086H18.6086V16.0001V12.7391C18.6086 9.08925 15.6498 6.13043 12 6.13043ZM4.56519 20H19.4348V21.6522H4.56519V20Z" fill="#A63D3D"/>
</svg>
