<svg width="864" height="48" viewBox="0 0 864 48" fill="none" xmlns="http://www.w3.org/2000/svg">
<mask id="path-1-inside-1" fill="white">
<path fill-rule="evenodd" clip-rule="evenodd" d="M-1.04688e-06 24.0502L23.9497 0.100432L33.8492 9.99993L26.7988 17.0503L837.201 17.0503L830.151 9.99996L840.05 0.100465L864 24.0502L840.05 48L830.151 38.1005L837.201 31.0503L26.7991 31.0503L33.8492 38.1004L23.9497 47.9999L-1.04688e-06 24.0502Z"/>
</mask>
<path d="M23.9497 0.100432L26.7782 -2.72799L23.9497 -5.55642L21.1213 -2.72799L23.9497 0.100432ZM-1.04688e-06 24.0502L-2.82843 21.2218L-5.65686 24.0502L-2.82843 26.8786L-1.04688e-06 24.0502ZM33.8492 9.99993L36.6777 12.8284L39.5061 9.99993L36.6777 7.1715L33.8492 9.99993ZM26.7988 17.0503L23.9704 14.2219L17.142 21.0503L26.7988 21.0503L26.7988 17.0503ZM837.201 17.0503L837.201 21.0503L846.858 21.0503L840.029 14.2219L837.201 17.0503ZM830.151 9.99996L827.322 7.17154L824.494 9.99996L827.322 12.8284L830.151 9.99996ZM840.05 0.100465L842.879 -2.72796L840.05 -5.55639L837.222 -2.72796L840.05 0.100465ZM864 24.0502L866.828 26.8786L869.657 24.0502L866.828 21.2218L864 24.0502ZM840.05 48L837.222 50.8284L840.05 53.6568L842.879 50.8284L840.05 48ZM830.151 38.1005L827.322 35.272L824.494 38.1005L827.322 40.9289L830.151 38.1005ZM837.201 31.0503L840.029 33.8787L846.858 27.0503L837.201 27.0503L837.201 31.0503ZM26.7991 31.0503L26.7991 27.0503L17.1422 27.0503L23.9707 33.8787L26.7991 31.0503ZM33.8492 38.1004L36.6777 40.9289L39.5061 38.1004L36.6777 35.272L33.8492 38.1004ZM23.9497 47.9999L21.1213 50.8284L23.9497 53.6568L26.7782 50.8284L23.9497 47.9999ZM21.1213 -2.72799L-2.82843 21.2218L2.82843 26.8786L26.7782 2.92886L21.1213 -2.72799ZM36.6777 7.1715L26.7782 -2.72799L21.1213 2.92886L31.0208 12.8284L36.6777 7.1715ZM29.6273 19.8788L36.6777 12.8284L31.0208 7.1715L23.9704 14.2219L29.6273 19.8788ZM837.201 13.0503L26.7988 13.0503L26.7988 21.0503L837.201 21.0503L837.201 13.0503ZM827.322 12.8284L834.373 19.8787L840.029 14.2219L832.979 7.17154L827.322 12.8284ZM837.222 -2.72796L827.322 7.17154L832.979 12.8284L842.879 2.92889L837.222 -2.72796ZM866.828 21.2218L842.879 -2.72796L837.222 2.92889L861.172 26.8786L866.828 21.2218ZM842.879 50.8284L866.828 26.8786L861.172 21.2218L837.222 45.1715L842.879 50.8284ZM827.322 40.9289L837.222 50.8284L842.879 45.1715L832.979 35.272L827.322 40.9289ZM834.373 28.2218L827.322 35.272L832.979 40.9289L840.029 33.8787L834.373 28.2218ZM26.7991 35.0503L837.201 35.0503L837.201 27.0503L26.7991 27.0503L26.7991 35.0503ZM36.6777 35.272L29.6275 28.2219L23.9707 33.8787L31.0208 40.9289L36.6777 35.272ZM26.7782 50.8284L36.6777 40.9289L31.0208 35.272L21.1213 45.1715L26.7782 50.8284ZM-2.82843 26.8786L21.1213 50.8284L26.7782 45.1715L2.82843 21.2218L-2.82843 26.8786Z" fill="#262626" mask="url(#path-1-inside-1)"/>
</svg>
