<svg width="864" height="48" viewBox="0 0 864 48" fill="none" xmlns="http://www.w3.org/2000/svg">
<mask id="path-1-inside-1" fill="white">
<path fill-rule="evenodd" clip-rule="evenodd" d="M-1.04688e-06 23.9999L23.9497 0.0501393L33.8492 9.94964L26.7988 17L837.201 17L830.151 9.94967L840.05 0.0501723L864 23.9999L840.05 47.9497L830.151 38.0502L837.201 31L26.7991 31L33.8492 38.0501L23.9497 47.9496L-1.04688e-06 23.9999Z"/>
</mask>
<path fill-rule="evenodd" clip-rule="evenodd" d="M-1.04688e-06 23.9999L23.9497 0.0501393L33.8492 9.94964L26.7988 17L837.201 17L830.151 9.94967L840.05 0.0501723L864 23.9999L840.05 47.9497L830.151 38.0502L837.201 31L26.7991 31L33.8492 38.0501L23.9497 47.9496L-1.04688e-06 23.9999Z" fill="url(#paint0_linear)"/>
<path d="M23.9497 0.0501393L26.7782 -2.77829L23.9497 -5.60672L21.1213 -2.77829L23.9497 0.0501393ZM-1.04688e-06 23.9999L-2.82843 21.1715L-5.65686 23.9999L-2.82843 26.8283L-1.04688e-06 23.9999ZM33.8492 9.94964L36.6777 12.7781L39.5061 9.94964L36.6777 7.12121L33.8492 9.94964ZM26.7988 17L23.9704 14.1716L17.142 21L26.7988 21L26.7988 17ZM837.201 17L837.201 21L846.858 21L840.029 14.1716L837.201 17ZM830.151 9.94967L827.322 7.12125L824.494 9.94967L827.322 12.7781L830.151 9.94967ZM840.05 0.0501723L842.879 -2.77825L840.05 -5.60668L837.222 -2.77825L840.05 0.0501723ZM864 23.9999L866.828 26.8284L869.657 23.9999L866.828 21.1715L864 23.9999ZM840.05 47.9497L837.222 50.7781L840.05 53.6065L842.879 50.7781L840.05 47.9497ZM830.151 38.0502L827.322 35.2217L824.494 38.0502L827.322 40.8786L830.151 38.0502ZM837.201 31L840.029 33.8284L846.858 27L837.201 27L837.201 31ZM26.7991 31L26.7991 27L17.1422 27L23.9707 33.8284L26.7991 31ZM33.8492 38.0501L36.6777 40.8786L39.5061 38.0501L36.6777 35.2217L33.8492 38.0501ZM23.9497 47.9496L21.1213 50.7781L23.9497 53.6065L26.7782 50.7781L23.9497 47.9496ZM21.1213 -2.77829L-2.82843 21.1715L2.82843 26.8283L26.7782 2.87857L21.1213 -2.77829ZM36.6777 7.12121L26.7782 -2.77829L21.1213 2.87857L31.0208 12.7781L36.6777 7.12121ZM29.6273 19.8285L36.6777 12.7781L31.0208 7.12121L23.9704 14.1716L29.6273 19.8285ZM837.201 13L26.7988 13L26.7988 21L837.201 21L837.201 13ZM827.322 12.7781L834.373 19.8284L840.029 14.1716L832.979 7.12125L827.322 12.7781ZM837.222 -2.77825L827.322 7.12125L832.979 12.7781L842.879 2.87859L837.222 -2.77825ZM866.828 21.1715L842.879 -2.77825L837.222 2.8786L861.172 26.8284L866.828 21.1715ZM842.879 50.7781L866.828 26.8284L861.172 21.1715L837.222 45.1212L842.879 50.7781ZM827.322 40.8786L837.222 50.7781L842.879 45.1212L832.979 35.2218L827.322 40.8786ZM834.373 28.1715L827.322 35.2217L832.979 40.8786L840.029 33.8284L834.373 28.1715ZM26.7991 35L837.201 35L837.201 27L26.7991 27L26.7991 35ZM36.6777 35.2217L29.6275 28.1716L23.9707 33.8284L31.0208 40.8786L36.6777 35.2217ZM26.7782 50.7781L36.6777 40.8786L31.0208 35.2217L21.1213 45.1212L26.7782 50.7781ZM-2.82843 26.8283L21.1213 50.7781L26.7782 45.1212L2.82843 21.1715L-2.82843 26.8283Z" fill="#262626" mask="url(#path-1-inside-1)"/>
<defs>
<linearGradient id="paint0_linear" x1="-62.9998" y1="23.9999" x2="926.715" y2="23.9999" gradientUnits="userSpaceOnUse">
<stop stop-color="#54995A"/>
<stop offset="1" stop-color="#753EC2"/>
</linearGradient>
</defs>
</svg>
