<svg width="48" height="920" viewBox="0 0 48 920" fill="none" xmlns="http://www.w3.org/2000/svg">
<mask id="path-1-inside-1" fill="white">
<path fill-rule="evenodd" clip-rule="evenodd" d="M23.9498 0L47.8995 23.9497L38 33.8492L30.9497 26.7989L30.9497 893.201L38 886.151L47.8995 896.05L23.9497 920L0 896.05L9.8995 886.151L16.9497 893.201L16.9497 26.7991L9.89954 33.8492L4.3869e-05 23.9497L23.9498 0Z"/>
</mask>
<path d="M47.8995 23.9497L50.728 26.7782L53.5564 23.9497L50.728 21.1213L47.8995 23.9497ZM23.9498 0L26.7782 -2.82843L23.9498 -5.65685L21.1214 -2.82843L23.9498 0ZM38 33.8492L35.1716 36.6777L38 39.5061L40.8285 36.6777L38 33.8492ZM30.9497 26.7989L33.7781 23.9705L26.9497 17.1421L26.9497 26.7989L30.9497 26.7989ZM30.9497 893.201H26.9497L26.9497 902.858L33.7781 896.029L30.9497 893.201ZM38 886.151L40.8284 883.322L38 880.494L35.1716 883.322L38 886.151ZM47.8995 896.05L50.7279 898.879L53.5564 896.05L50.7279 893.222L47.8995 896.05ZM23.9497 920L21.1213 922.828L23.9497 925.657L26.7782 922.828L23.9497 920ZM0 896.05L-2.82842 893.222L-5.65686 896.05L-2.82843 898.879L0 896.05ZM9.8995 886.151L12.7279 883.322L9.8995 880.494L7.07107 883.322L9.8995 886.151ZM16.9497 893.201L14.1213 896.029L20.9497 902.858L20.9497 893.201H16.9497ZM16.9497 26.7991L20.9497 26.7991L20.9497 17.1422L14.1213 23.9706L16.9497 26.7991ZM9.89954 33.8492L7.07111 36.6777L9.89954 39.5061L12.728 36.6777L9.89954 33.8492ZM4.3869e-05 23.9497L-2.82838 21.1213L-5.65681 23.9497L-2.82838 26.7782L4.3869e-05 23.9497ZM50.728 21.1213L26.7782 -2.82843L21.1214 2.82843L45.0711 26.7782L50.728 21.1213ZM40.8285 36.6777L50.728 26.7782L45.0711 21.1213L35.1716 31.0208L40.8285 36.6777ZM28.1213 29.6273L35.1716 36.6777L40.8285 31.0208L33.7781 23.9705L28.1213 29.6273ZM34.9497 893.201L34.9497 26.7989L26.9497 26.7989L26.9497 893.201H34.9497ZM35.1716 883.322L28.1213 890.373L33.7781 896.029L40.8284 888.979L35.1716 883.322ZM50.7279 893.222L40.8284 883.322L35.1716 888.979L45.0711 898.879L50.7279 893.222ZM26.7782 922.828L50.7279 898.879L45.0711 893.222L21.1213 917.172L26.7782 922.828ZM-2.82843 898.879L21.1213 922.828L26.7782 917.172L2.82843 893.222L-2.82843 898.879ZM7.07107 883.322L-2.82842 893.222L2.82842 898.879L12.7279 888.979L7.07107 883.322ZM19.7781 890.373L12.7279 883.322L7.07106 888.979L14.1213 896.029L19.7781 890.373ZM12.9497 26.7991L12.9497 893.201H20.9497L20.9497 26.7991L12.9497 26.7991ZM12.728 36.6777L19.7781 29.6275L14.1213 23.9706L7.07111 31.0208L12.728 36.6777ZM-2.82838 26.7782L7.07111 36.6777L12.728 31.0208L2.82847 21.1213L-2.82838 26.7782ZM21.1214 -2.82843L-2.82838 21.1213L2.82847 26.7782L26.7782 2.82843L21.1214 -2.82843Z" fill="#262626" mask="url(#path-1-inside-1)"/>
</svg>
