<svg width="48" height="920" viewBox="0 0 48 920" fill="none" xmlns="http://www.w3.org/2000/svg">
<mask id="path-1-inside-1" fill="white">
<path fill-rule="evenodd" clip-rule="evenodd" d="M24.0001 0L47.9498 23.9497L38.0503 33.8492L31 26.7989L31 893.201L38.0503 886.151L47.9498 896.05L24 920L0.050293 896.05L9.94979 886.151L17 893.201L17 26.7991L9.94983 33.8492L0.0503368 23.9497L24.0001 0Z"/>
</mask>
<path fill-rule="evenodd" clip-rule="evenodd" d="M24.0001 0L47.9498 23.9497L38.0503 33.8492L31 26.7989L31 893.201L38.0503 886.151L47.9498 896.05L24 920L0.050293 896.05L9.94979 886.151L17 893.201L17 26.7991L9.94983 33.8492L0.0503368 23.9497L24.0001 0Z" fill="url(#paint0_linear)"/>
<path d="M47.9498 23.9497L50.7783 26.7782L53.6067 23.9497L50.7783 21.1213L47.9498 23.9497ZM24.0001 0L26.8285 -2.82843L24.0001 -5.65685L21.1717 -2.82843L24.0001 0ZM38.0503 33.8492L35.2219 36.6777L38.0503 39.5061L40.8788 36.6777L38.0503 33.8492ZM31 26.7989L33.8284 23.9705L27 17.142V26.7989H31ZM31 893.201H27L27 902.858L33.8284 896.029L31 893.201ZM38.0503 886.151L40.8787 883.322L38.0503 880.494L35.2219 883.322L38.0503 886.151ZM47.9498 896.05L50.7782 898.879L53.6066 896.05L50.7782 893.222L47.9498 896.05ZM24 920L21.1716 922.828L24 925.657L26.8285 922.828L24 920ZM0.050293 896.05L-2.77813 893.222L-5.60656 896.05L-2.77814 898.879L0.050293 896.05ZM9.94979 886.151L12.7782 883.322L9.94979 880.494L7.12136 883.322L9.94979 886.151ZM17 893.201L14.1716 896.029L21 902.858L21 893.201H17ZM17 26.7991H21V17.1422L14.1716 23.9706L17 26.7991ZM9.94983 33.8492L7.12141 36.6777L9.94983 39.5061L12.7783 36.6777L9.94983 33.8492ZM0.0503368 23.9497L-2.77809 21.1213L-5.60652 23.9497L-2.77809 26.7782L0.0503368 23.9497ZM50.7783 21.1213L26.8285 -2.82843L21.1717 2.82843L45.1214 26.7782L50.7783 21.1213ZM40.8788 36.6777L50.7783 26.7782L45.1214 21.1213L35.2219 31.0208L40.8788 36.6777ZM28.1716 29.6273L35.2219 36.6777L40.8788 31.0208L33.8284 23.9705L28.1716 29.6273ZM35 893.201L35 26.7989L27 26.7989L27 893.201H35ZM35.2219 883.322L28.1716 890.373L33.8284 896.029L40.8787 888.979L35.2219 883.322ZM50.7782 893.222L40.8787 883.322L35.2219 888.979L45.1214 898.879L50.7782 893.222ZM26.8285 922.828L50.7782 898.879L45.1214 893.222L21.1716 917.172L26.8285 922.828ZM-2.77814 898.879L21.1716 922.828L26.8285 917.172L2.87872 893.222L-2.77814 898.879ZM7.12136 883.322L-2.77813 893.222L2.87872 898.879L12.7782 888.979L7.12136 883.322ZM19.8284 890.373L12.7782 883.322L7.12136 888.979L14.1716 896.029L19.8284 890.373ZM13 26.7991L13 893.201H21L21 26.7991H13ZM12.7783 36.6777L19.8284 29.6275L14.1716 23.9706L7.1214 31.0208L12.7783 36.6777ZM-2.77809 26.7782L7.12141 36.6777L12.7783 31.0208L2.87876 21.1213L-2.77809 26.7782ZM21.1717 -2.82843L-2.77809 21.1213L2.87876 26.7782L26.8285 2.82843L21.1717 -2.82843Z" fill="#262626" mask="url(#path-1-inside-1)"/>
<defs>
<linearGradient id="paint0_linear" x1="24.1622" y1="-69" x2="24.1622" y2="987.118" gradientUnits="userSpaceOnUse">
<stop stop-color="#EC656D"/>
<stop offset="1" stop-color="#4883D5"/>
</linearGradient>
</defs>
</svg>
