<svg width="240" height="160" viewBox="0 0 240 160" fill="none" xmlns="http://www.w3.org/2000/svg">
<rect x="116" y="66" width="72" height="44" fill="#6B6B6B"/>
<rect x="52" y="96" width="52" height="32" fill="#6B6B6B"/>
<rect x="160" y="110" width="12" height="8" fill="#6B6B6B"/>
<rect x="64" y="128" width="4" height="4" fill="#6B6B6B"/>
<rect x="96" y="92" width="4" height="4" fill="#DDDDDD"/>
<rect x="100" y="96" width="4" height="4" fill="#DDDDDD"/>
<rect x="100" y="100" width="4" height="4" fill="#DDDDDD"/>
<rect x="104" y="104" width="4" height="4" fill="#DDDDDD"/>
<rect x="104" y="112" width="4" height="4" fill="#DDDDDD"/>
<rect x="104" y="108" width="4" height="4" fill="#DDDDDD"/>
<rect x="104" y="116" width="4" height="4" fill="#DDDDDD"/>
<rect x="100" y="120" width="4" height="4" fill="#DDDDDD"/>
<rect x="92" y="92" width="4" height="4" fill="#DDDDDD"/>
<rect x="88" y="92" width="4" height="4" fill="#DDDDDD"/>
<rect x="84" y="92" width="4" height="4" fill="#DDDDDD"/>
<rect x="80" y="92" width="4" height="4" fill="#DDDDDD"/>
<rect x="76" y="92" width="4" height="4" fill="#DDDDDD"/>
<rect x="64" y="92" width="4" height="4" fill="#DDDDDD"/>
<rect x="72" y="92" width="4" height="4" fill="#DDDDDD"/>
<rect x="60" y="92" width="4" height="4" fill="#DDDDDD"/>
<rect x="68" y="92" width="4" height="4" fill="#DDDDDD"/>
<rect x="56" y="92" width="4" height="4" fill="#DDDDDD"/>
<rect x="52" y="96" width="4" height="4" fill="#DDDDDD"/>
<rect x="52" y="100" width="4" height="4" fill="#DDDDDD"/>
<rect x="64" y="110" width="4" height="4" fill="#DDDDDD"/>
<rect x="76" y="110" width="4" height="4" fill="#DDDDDD"/>
<rect x="88" y="110" width="4" height="4" fill="#DDDDDD"/>
<rect x="48" y="104" width="4" height="4" fill="#DDDDDD"/>
<rect x="48" y="112" width="4" height="4" fill="#DDDDDD"/>
<rect x="48" y="108" width="4" height="4" fill="#DDDDDD"/>
<rect x="48" y="116" width="4" height="4" fill="#DDDDDD"/>
<rect x="52" y="120" width="4" height="4" fill="#DDDDDD"/>
<rect x="52" y="124" width="4" height="4" fill="#DDDDDD"/>
<rect x="68" y="128" width="4" height="4" fill="#DDDDDD"/>
<rect x="56" y="128" width="4" height="4" fill="#DDDDDD"/>
<rect x="72" y="128" width="4" height="4" fill="#DDDDDD"/>
<rect x="60" y="128" width="4" height="4" fill="#DDDDDD"/>
<rect x="76" y="128" width="4" height="4" fill="#DDDDDD"/>
<rect x="60" y="132" width="4" height="4" fill="#DDDDDD"/>
<rect x="60" y="136" width="4" height="4" fill="#DDDDDD"/>
<rect x="64" y="132" width="4" height="4" fill="#DDDDDD"/>
<rect x="80" y="128" width="4" height="4" fill="#DDDDDD"/>
<rect x="84" y="128" width="4" height="4" fill="#DDDDDD"/>
<rect x="88" y="128" width="4" height="4" fill="#DDDDDD"/>
<rect x="92" y="128" width="4" height="4" fill="#DDDDDD"/>
<rect x="96" y="128" width="4" height="4" fill="#DDDDDD"/>
<rect x="100" y="124" width="4" height="4" fill="#DDDDDD"/>
<rect x="116" y="66" width="4" height="4" fill="#DDDDDD"/>
<rect x="184" y="66" width="4" height="4" fill="#DDDDDD"/>
<rect x="116" y="70" width="4" height="4" fill="#DDDDDD"/>
<rect x="184" y="70" width="4" height="4" fill="#DDDDDD"/>
<rect x="112" y="78" width="4" height="4" fill="#DDDDDD"/>
<rect x="112" y="74" width="4" height="4" fill="#DDDDDD"/>
<rect x="188" y="78" width="4" height="4" fill="#DDDDDD"/>
<rect x="188" y="74" width="4" height="4" fill="#DDDDDD"/>
<rect x="112" y="82" width="4" height="4" fill="#DDDDDD"/>
<rect x="188" y="82" width="4" height="4" fill="#DDDDDD"/>
<rect x="112" y="86" width="4" height="4" fill="#DDDDDD"/>
<rect x="188" y="86" width="4" height="4" fill="#DDDDDD"/>
<rect x="112" y="90" width="4" height="4" fill="#DDDDDD"/>
<rect x="188" y="90" width="4" height="4" fill="#DDDDDD"/>
<rect x="112" y="94" width="4" height="4" fill="#DDDDDD"/>
<rect x="188" y="94" width="4" height="4" fill="#DDDDDD"/>
<rect x="112" y="98" width="4" height="4" fill="#DDDDDD"/>
<rect x="188" y="98" width="4" height="4" fill="#DDDDDD"/>
<rect x="116" y="102" width="4" height="4" fill="#DDDDDD"/>
<rect x="184" y="102" width="4" height="4" fill="#DDDDDD"/>
<rect x="116" y="106" width="4" height="4" fill="#DDDDDD"/>
<rect x="184" y="106" width="4" height="4" fill="#DDDDDD"/>
<rect x="120" y="62" width="4" height="4" fill="#DDDDDD"/>
<rect x="120" y="110" width="4" height="4" fill="#DDDDDD"/>
<rect x="132" y="84" width="4" height="4" fill="#DDDDDD"/>
<rect x="148" y="84" width="4" height="4" fill="#DDDDDD"/>
<rect x="164" y="84" width="4" height="4" fill="#DDDDDD"/>
<rect x="136" y="84" width="4" height="4" fill="#DDDDDD"/>
<rect x="152" y="84" width="4" height="4" fill="#DDDDDD"/>
<rect x="168" y="84" width="4" height="4" fill="#DDDDDD"/>
<rect x="132" y="88" width="4" height="4" fill="#DDDDDD"/>
<rect x="148" y="88" width="4" height="4" fill="#DDDDDD"/>
<rect x="164" y="88" width="4" height="4" fill="#DDDDDD"/>
<rect x="136" y="88" width="4" height="4" fill="#DDDDDD"/>
<rect x="152" y="88" width="4" height="4" fill="#DDDDDD"/>
<rect x="168" y="88" width="4" height="4" fill="#DDDDDD"/>
<rect x="124" y="62" width="4" height="4" fill="#DDDDDD"/>
<rect x="124" y="110" width="4" height="4" fill="#DDDDDD"/>
<rect x="128" y="62" width="4" height="4" fill="#DDDDDD"/>
<rect x="128" y="110" width="4" height="4" fill="#DDDDDD"/>
<rect x="132" y="62" width="4" height="4" fill="#DDDDDD"/>
<rect x="132" y="110" width="4" height="4" fill="#DDDDDD"/>
<rect x="136" y="62" width="4" height="4" fill="#DDDDDD"/>
<rect x="136" y="110" width="4" height="4" fill="#DDDDDD"/>
<rect x="140" y="62" width="4" height="4" fill="#DDDDDD"/>
<rect x="140" y="110" width="4" height="4" fill="#DDDDDD"/>
<rect x="144" y="62" width="4" height="4" fill="#DDDDDD"/>
<rect x="144" y="110" width="4" height="4" fill="#DDDDDD"/>
<rect x="148" y="62" width="4" height="4" fill="#DDDDDD"/>
<rect x="148" y="110" width="4" height="4" fill="#DDDDDD"/>
<rect x="152" y="62" width="4" height="4" fill="#DDDDDD"/>
<rect x="152" y="110" width="4" height="4" fill="#DDDDDD"/>
<rect x="156" y="62" width="4" height="4" fill="#DDDDDD"/>
<rect x="156" y="110" width="4" height="4" fill="#DDDDDD"/>
<rect x="160" y="62" width="4" height="4" fill="#DDDDDD"/>
<rect x="164" y="62" width="4" height="4" fill="#DDDDDD"/>
<rect x="160" y="114" width="4" height="4" fill="#DDDDDD"/>
<rect x="164" y="118" width="4" height="4" fill="#DDDDDD"/>
<rect x="168" y="122" width="4" height="4" fill="#DDDDDD"/>
<rect x="168" y="118" width="4" height="4" fill="#DDDDDD"/>
<rect x="168" y="114" width="4" height="4" fill="#DDDDDD"/>
<rect x="168" y="62" width="4" height="4" fill="#DDDDDD"/>
<rect x="172" y="62" width="4" height="4" fill="#DDDDDD"/>
<rect x="176" y="62" width="4" height="4" fill="#DDDDDD"/>
<rect x="172" y="110" width="4" height="4" fill="#DDDDDD"/>
<rect x="176" y="110" width="4" height="4" fill="#DDDDDD"/>
<rect x="180" y="62" width="4" height="4" fill="#DDDDDD"/>
<rect x="180" y="110" width="4" height="4" fill="#DDDDDD"/>
</svg>
