<svg width="24" height="24" viewBox="0 0 24 24" fill="none" xmlns="http://www.w3.org/2000/svg">
<g opacity="0.6">
<path fill-rule="evenodd" clip-rule="evenodd" d="M12 2C8.96243 2 6.5 4.46243 6.5 7.5V8H4.5C3.94772 8 3.5 8.44772 3.5 9V21C3.5 21.5523 3.94772 22 4.5 22H19.5C20.0523 22 20.5 21.5523 20.5 21V9C20.5 8.44772 20.0523 8 19.5 8H17.5V7.5C17.5 4.46243 15.0376 2 12 2ZM15.5 8V7.5C15.5 5.567 13.933 4 12 4C10.067 4 8.5 5.567 8.5 7.5V8H15.5ZM5.5 20V10H18.5V20H5.5ZM13 15.7324C13.5978 15.3866 14 14.7403 14 14C14 12.8954 13.1046 12 12 12C10.8954 12 10 12.8954 10 14C10 14.7403 10.4022 15.3866 11 15.7324V18H13V15.7324Z" fill="#EEEEEE"/>
</g>
</svg>
