<svg width="24" height="24" viewBox="0 0 24 24" fill="none" xmlns="http://www.w3.org/2000/svg">
<path fill-rule="evenodd" clip-rule="evenodd" d="M12 2.5C9.23858 2.5 7 4.73858 7 7.5V8.5H4.5C4.22386 8.5 4 8.72386 4 9V21C4 21.2761 4.22386 21.5 4.5 21.5H19.5C19.7761 21.5 20 21.2761 20 21V9C20 8.72386 19.7761 8.5 19.5 8.5H17V7.5C17 4.73858 14.7614 2.5 12 2.5ZM16 8.5V7.5C16 5.29086 14.2091 3.5 12 3.5C9.79086 3.5 8 5.29086 8 7.5V8.5H16ZM5 20.5V9.5H19V20.5H5ZM12.5 14.8662C12.7989 14.6933 13 14.3701 13 14C13 13.4477 12.5523 13 12 13C11.4477 13 11 13.4477 11 14C11 14.3701 11.2011 14.6933 11.5 14.8662V17H12.5V14.8662Z" fill="#2C3330"/>
</svg>
