<svg width="240" height="160" viewBox="0 0 240 160" fill="none" xmlns="http://www.w3.org/2000/svg">
<g opacity="0.3">
<rect x="202" y="112" width="32" height="12" fill="#6B6B6B"/>
<rect x="214" y="108" width="8" height="4" fill="#6B6B6B"/>
<rect x="202" y="112" width="4" height="4" fill="#DDDDDD"/>
<rect x="198" y="116" width="4" height="4" fill="#DDDDDD"/>
<rect x="198" y="120" width="4" height="4" fill="#DDDDDD"/>
<rect x="202" y="124" width="4" height="4" fill="#DDDDDD"/>
<rect x="206" y="124" width="4" height="4" fill="#DDDDDD"/>
<rect x="210" y="124" width="4" height="4" fill="#DDDDDD"/>
<rect x="214" y="124" width="4" height="4" fill="#DDDDDD"/>
<rect x="206" y="108" width="4" height="4" fill="#DDDDDD"/>
<rect x="210" y="108" width="4" height="4" fill="#DDDDDD"/>
<rect x="214" y="104" width="4" height="4" fill="#DDDDDD"/>
<rect x="218" y="104" width="4" height="4" fill="#DDDDDD"/>
<rect x="222" y="108" width="4" height="4" fill="#DDDDDD"/>
<rect x="226" y="112" width="4" height="4" fill="#DDDDDD"/>
<rect x="230" y="112" width="4" height="4" fill="#DDDDDD"/>
<rect x="234" y="116" width="4" height="4" fill="#DDDDDD"/>
<rect x="234" y="120" width="4" height="4" fill="#DDDDDD"/>
<rect x="230" y="124" width="4" height="4" fill="#DDDDDD"/>
<rect x="226" y="124" width="4" height="4" fill="#DDDDDD"/>
<rect x="222" y="124" width="4" height="4" fill="#DDDDDD"/>
<rect x="218" y="124" width="4" height="4" fill="#DDDDDD"/>
</g>
<g opacity="0.3">
<rect x="10" y="92" width="20" height="12" fill="#6B6B6B"/>
<rect x="30" y="100" width="4" height="4" fill="#6B6B6B"/>
<rect x="6" y="96" width="4" height="4" fill="#DDDDDD"/>
<rect x="6" y="100" width="4" height="4" fill="#DDDDDD"/>
<rect x="6" y="104" width="4" height="4" fill="#DDDDDD"/>
<rect x="10" y="104" width="4" height="4" fill="#DDDDDD"/>
<rect x="14" y="104" width="4" height="4" fill="#DDDDDD"/>
<rect x="18" y="104" width="4" height="4" fill="#DDDDDD"/>
<rect x="10" y="92" width="4" height="4" fill="#DDDDDD"/>
<rect x="14" y="92" width="4" height="4" fill="#DDDDDD"/>
<rect x="18" y="88" width="4" height="4" fill="#DDDDDD"/>
<rect x="22" y="88" width="4" height="4" fill="#DDDDDD"/>
<rect x="26" y="92" width="4" height="4" fill="#DDDDDD"/>
<rect x="30" y="96" width="4" height="4" fill="#DDDDDD"/>
<rect x="34" y="100" width="4" height="4" fill="#DDDDDD"/>
<rect x="34" y="104" width="4" height="4" fill="#DDDDDD"/>
<rect x="30" y="104" width="4" height="4" fill="#DDDDDD"/>
<rect x="26" y="104" width="4" height="4" fill="#DDDDDD"/>
<rect x="22" y="104" width="4" height="4" fill="#DDDDDD"/>
</g>
<g opacity="0.3">
<rect x="126" y="12" width="20" height="12" fill="#6B6B6B"/>
<rect x="146" y="20" width="4" height="4" fill="#6B6B6B"/>
<rect x="122" y="16" width="4" height="4" fill="#DDDDDD"/>
<rect x="122" y="20" width="4" height="4" fill="#DDDDDD"/>
<rect x="122" y="24" width="4" height="4" fill="#DDDDDD"/>
<rect x="126" y="24" width="4" height="4" fill="#DDDDDD"/>
<rect x="130" y="24" width="4" height="4" fill="#DDDDDD"/>
<rect x="134" y="24" width="4" height="4" fill="#DDDDDD"/>
<rect x="126" y="12" width="4" height="4" fill="#DDDDDD"/>
<rect x="130" y="12" width="4" height="4" fill="#DDDDDD"/>
<rect x="134" y="8" width="4" height="4" fill="#DDDDDD"/>
<rect x="138" y="8" width="4" height="4" fill="#DDDDDD"/>
<rect x="142" y="12" width="4" height="4" fill="#DDDDDD"/>
<rect x="146" y="16" width="4" height="4" fill="#DDDDDD"/>
<rect x="150" y="20" width="4" height="4" fill="#DDDDDD"/>
<rect x="150" y="24" width="4" height="4" fill="#DDDDDD"/>
<rect x="146" y="24" width="4" height="4" fill="#DDDDDD"/>
<rect x="142" y="24" width="4" height="4" fill="#DDDDDD"/>
<rect x="138" y="24" width="4" height="4" fill="#DDDDDD"/>
</g>
<rect x="62" y="48" width="4" height="84" fill="#494949"/>
<rect x="174" y="48" width="4" height="84" fill="#494949"/>
<rect x="66" y="128" width="108" height="4" fill="#494949"/>
<rect x="78" y="132" width="84" height="8" fill="#494949"/>
<rect x="110" y="140" width="20" height="4" fill="#494949"/>
<rect x="62" y="132" width="4" height="4" fill="#DDDDDD"/>
<rect x="58" y="44" width="4" height="92" fill="#DDDDDD"/>
<rect x="66" y="132" width="4" height="4" fill="#DDDDDD"/>
<rect x="70" y="132" width="4" height="4" fill="#DDDDDD"/>
<rect x="62" y="44" width="4" height="4" fill="#DDDDDD"/>
<rect x="174" y="44" width="4" height="4" fill="#DDDDDD"/>
<rect x="74" y="132" width="4" height="4" fill="#DDDDDD"/>
<rect x="78" y="136" width="4" height="4" fill="#DDDDDD"/>
<rect x="86" y="136" width="4" height="4" fill="#DDDDDD"/>
<rect x="94" y="140" width="4" height="4" fill="#DDDDDD"/>
<rect x="130" y="140" width="4" height="4" fill="#DDDDDD"/>
<rect x="146" y="136" width="4" height="4" fill="#DDDDDD"/>
<rect x="162" y="132" width="4" height="4" fill="#DDDDDD"/>
<rect x="102" y="140" width="4" height="4" fill="#DDDDDD"/>
<rect x="138" y="140" width="4" height="4" fill="#DDDDDD"/>
<rect x="154" y="136" width="4" height="4" fill="#DDDDDD"/>
<rect x="170" y="132" width="4" height="4" fill="#DDDDDD"/>
<rect x="82" y="136" width="4" height="4" fill="#DDDDDD"/>
<rect x="90" y="136" width="4" height="4" fill="#DDDDDD"/>
<rect x="98" y="140" width="4" height="4" fill="#DDDDDD"/>
<rect x="134" y="140" width="4" height="4" fill="#DDDDDD"/>
<rect x="150" y="136" width="4" height="4" fill="#DDDDDD"/>
<rect x="166" y="132" width="4" height="4" fill="#DDDDDD"/>
<rect x="106" y="140" width="4" height="4" fill="#DDDDDD"/>
<rect x="142" y="140" width="4" height="4" fill="#DDDDDD"/>
<rect x="158" y="136" width="4" height="4" fill="#DDDDDD"/>
<rect x="174" y="132" width="4" height="4" fill="#DDDDDD"/>
<rect x="178" y="44" width="4" height="92" fill="#DDDDDD"/>
<rect x="110" y="144" width="4" height="4" fill="#DDDDDD"/>
<rect x="114" y="144" width="4" height="4" fill="#DDDDDD"/>
<rect x="118" y="144" width="4" height="4" fill="#DDDDDD"/>
<rect x="122" y="144" width="4" height="4" fill="#DDDDDD"/>
<rect x="126" y="144" width="4" height="4" fill="#DDDDDD"/>
<rect x="70" y="44" width="32" height="84" fill="#6B6B6B"/>
<rect x="138" y="44" width="32" height="84" fill="#6B6B6B"/>
<rect x="102" y="52" width="36" height="84" fill="#6B6B6B"/>
<rect x="70" y="40" width="4" height="4" fill="#DDDDDD"/>
<rect x="70" y="124" width="4" height="4" fill="#DDDDDD"/>
<rect x="66" y="40" width="4" height="88" fill="#DDDDDD"/>
<rect x="74" y="40" width="4" height="4" fill="#DDDDDD"/>
<rect x="74" y="124" width="4" height="4" fill="#DDDDDD"/>
<rect x="78" y="40" width="4" height="4" fill="#DDDDDD"/>
<rect x="78" y="68" width="4" height="4" fill="#DDDDDD"/>
<rect x="78" y="88" width="4" height="4" fill="#DDDDDD"/>
<rect x="78" y="124" width="4" height="4" fill="#DDDDDD"/>
<rect x="82" y="40" width="4" height="4" fill="#DDDDDD"/>
<rect x="82" y="68" width="4" height="4" fill="#DDDDDD"/>
<rect x="82" y="88" width="4" height="4" fill="#DDDDDD"/>
<rect x="82" y="124" width="4" height="4" fill="#DDDDDD"/>
<rect x="86" y="44" width="4" height="4" fill="#DDDDDD"/>
<rect x="86" y="72" width="4" height="4" fill="#DDDDDD"/>
<rect x="86" y="92" width="4" height="4" fill="#DDDDDD"/>
<rect x="86" y="128" width="4" height="4" fill="#DDDDDD"/>
<rect x="94" y="44" width="4" height="4" fill="#DDDDDD"/>
<rect x="94" y="72" width="4" height="4" fill="#DDDDDD"/>
<rect x="94" y="92" width="4" height="4" fill="#DDDDDD"/>
<rect x="94" y="128" width="4" height="4" fill="#DDDDDD"/>
<rect x="102" y="48" width="4" height="4" fill="#DDDDDD"/>
<rect x="102" y="76" width="4" height="4" fill="#DDDDDD"/>
<rect x="102" y="96" width="4" height="4" fill="#DDDDDD"/>
<rect x="102" y="132" width="4" height="4" fill="#DDDDDD"/>
<rect x="110" y="48" width="4" height="4" fill="#DDDDDD"/>
<rect x="122" y="48" width="4" height="4" fill="#DDDDDD"/>
<rect x="130" y="48" width="4" height="4" fill="#DDDDDD"/>
<rect x="130" y="76" width="4" height="4" fill="#DDDDDD"/>
<rect x="130" y="96" width="4" height="4" fill="#DDDDDD"/>
<rect x="138" y="44" width="4" height="4" fill="#DDDDDD"/>
<rect x="138" y="72" width="4" height="4" fill="#DDDDDD"/>
<rect x="138" y="92" width="4" height="4" fill="#DDDDDD"/>
<rect x="146" y="44" width="4" height="4" fill="#DDDDDD"/>
<rect x="146" y="72" width="4" height="4" fill="#DDDDDD"/>
<rect x="146" y="92" width="4" height="4" fill="#DDDDDD"/>
<rect x="154" y="40" width="4" height="4" fill="#DDDDDD"/>
<rect x="154" y="68" width="4" height="4" fill="#DDDDDD"/>
<rect x="154" y="88" width="4" height="4" fill="#DDDDDD"/>
<rect x="162" y="40" width="4" height="4" fill="#DDDDDD"/>
<rect x="110" y="132" width="4" height="4" fill="#DDDDDD"/>
<rect x="122" y="132" width="4" height="4" fill="#DDDDDD"/>
<rect x="130" y="132" width="4" height="4" fill="#DDDDDD"/>
<rect x="138" y="128" width="4" height="4" fill="#DDDDDD"/>
<rect x="146" y="128" width="4" height="4" fill="#DDDDDD"/>
<rect x="154" y="124" width="4" height="4" fill="#DDDDDD"/>
<rect x="162" y="124" width="4" height="4" fill="#DDDDDD"/>
<rect x="90" y="44" width="4" height="4" fill="#DDDDDD"/>
<rect x="90" y="72" width="4" height="4" fill="#DDDDDD"/>
<rect x="90" y="92" width="4" height="4" fill="#DDDDDD"/>
<rect x="90" y="128" width="4" height="4" fill="#DDDDDD"/>
<rect x="98" y="44" width="4" height="4" fill="#DDDDDD"/>
<rect x="98" y="72" width="4" height="4" fill="#DDDDDD"/>
<rect x="98" y="92" width="4" height="4" fill="#DDDDDD"/>
<rect x="98" y="128" width="4" height="4" fill="#DDDDDD"/>
<rect x="106" y="48" width="4" height="4" fill="#DDDDDD"/>
<rect x="106" y="76" width="4" height="4" fill="#DDDDDD"/>
<rect x="106" y="96" width="4" height="4" fill="#DDDDDD"/>
<rect x="106" y="132" width="4" height="4" fill="#DDDDDD"/>
<rect x="114" y="48" width="4" height="4" fill="#DDDDDD"/>
<rect x="126" y="48" width="4" height="4" fill="#DDDDDD"/>
<rect x="134" y="48" width="4" height="4" fill="#DDDDDD"/>
<rect x="134" y="76" width="4" height="4" fill="#DDDDDD"/>
<rect x="134" y="96" width="4" height="4" fill="#DDDDDD"/>
<rect x="142" y="44" width="4" height="4" fill="#DDDDDD"/>
<rect x="142" y="72" width="4" height="4" fill="#DDDDDD"/>
<rect x="142" y="92" width="4" height="4" fill="#DDDDDD"/>
<rect x="150" y="44" width="4" height="4" fill="#DDDDDD"/>
<rect x="150" y="72" width="4" height="4" fill="#DDDDDD"/>
<rect x="150" y="92" width="4" height="4" fill="#DDDDDD"/>
<rect x="158" y="40" width="4" height="4" fill="#DDDDDD"/>
<rect x="158" y="68" width="4" height="4" fill="#DDDDDD"/>
<rect x="158" y="88" width="4" height="4" fill="#DDDDDD"/>
<rect x="166" y="40" width="4" height="4" fill="#DDDDDD"/>
<rect x="170" y="40" width="4" height="88" fill="#DDDDDD"/>
<rect x="118" y="48" width="4" height="88" fill="#DDDDDD"/>
<rect x="114" y="132" width="4" height="4" fill="#DDDDDD"/>
<rect x="126" y="132" width="4" height="4" fill="#DDDDDD"/>
<rect x="134" y="132" width="4" height="4" fill="#DDDDDD"/>
<rect x="142" y="128" width="4" height="4" fill="#DDDDDD"/>
<rect x="150" y="128" width="4" height="4" fill="#DDDDDD"/>
<rect x="158" y="124" width="4" height="4" fill="#DDDDDD"/>
<rect x="166" y="124" width="4" height="4" fill="#DDDDDD"/>
</svg>
