<?xml version="1.0" encoding="UTF-8"?>
<svg width="12px" height="12px" viewBox="0 0 12 12" version="1.1" xmlns="http://www.w3.org/2000/svg" xmlns:xlink="http://www.w3.org/1999/xlink">
    <title>定位icon</title>
    <g id="页面-1" stroke="none" stroke-width="1" fill="none" fill-rule="evenodd">
        <g id="搜索页面" transform="translate(-370.000000, -777.000000)">
            <g id="内容卡片" transform="translate(360.000000, 459.000000)">
                <g id="定位icon" transform="translate(10.000000, 318.000000)">
                    <rect id="矩形" fill="#D8D8D8" opacity="0" x="0" y="0" width="12" height="12"></rect>
                    <path d="M6,1 C8.209139,1 10,2.790861 10,5 C10,6.47275933 8.66666667,8.47275933 6,11 C3.33333333,8.47275933 2,6.47275933 2,5 C2,2.790861 3.790861,1 6,1 Z M6,3 C4.8954305,3 4,3.8954305 4,5 C4,6.1045695 4.8954305,7 6,7 C7.1045695,7 8,6.1045695 8,5 C8,3.8954305 7.1045695,3 6,3 Z" id="形状结合备份-8" fill="#ABABAB"></path>
                </g>
            </g>
        </g>
    </g>
</svg>