<svg width="16" height="16" viewBox="0 0 16 16" fill="none" xmlns="http://www.w3.org/2000/svg">
<path d="M8.00008 4.00002V6.00002L10.6667 3.33335L8.00008 0.666687V2.66669C5.05341 2.66669 2.66675 5.05335 2.66675 8.00002C2.66675 9.04669 2.97341 10.02 3.49341 10.84L4.46675 9.86669C4.16675 9.31335 4.00008 8.67335 4.00008 8.00002C4.00008 5.79335 5.79341 4.00002 8.00008 4.00002ZM12.5067 5.16002L11.5334 6.13335C11.8267 6.69335 12.0001 7.32669 12.0001 8.00002C12.0001 10.2067 10.2067 12 8.00008 12V10L5.33341 12.6667L8.00008 15.3334V13.3334C10.9467 13.3334 13.3334 10.9467 13.3334 8.00002C13.3334 6.95335 13.0267 5.98002 12.5067 5.16002Z" fill="white"/>
</svg>
