<?xml version="1.0" encoding="UTF-8"?>
<svg width="16px" height="16px" viewBox="0 0 16 16" version="1.1" xmlns="http://www.w3.org/2000/svg" xmlns:xlink="http://www.w3.org/1999/xlink">
    <title>3icon</title>
    <defs>
        <path d="M6.48564293,0.518302085 C6.648883,0.608991011 6.78346835,0.743576365 6.87415728,0.90681643 L11.8413095,9.8476904 C12.1095227,10.3304741 11.9355789,10.9392774 11.4527951,11.2074906 C11.3042371,11.2900228 11.1370965,11.3333333 10.9671522,11.3333333 L1.03284779,11.3333333 C0.480563044,11.3333333 0.0328477938,10.8856181 0.0328477938,10.3333333 C0.0328477938,10.1633891 0.0761582945,9.9962484 0.158690518,9.8476904 L5.12584272,0.90681643 C5.39405591,0.424032698 6.0028592,0.250088901 6.48564293,0.518302085 Z M5.98666667,8.06666667 C5.62768158,8.06666667 5.33666667,8.35768158 5.33666667,8.71666667 C5.33666667,9.07565175 5.62768158,9.36666667 5.98666667,9.36666667 C6.34565175,9.36666667 6.63666667,9.07565175 6.63666667,8.71666667 C6.63666667,8.35768158 6.34565175,8.06666667 5.98666667,8.06666667 Z M6.61666667,3.66666667 L5.36666667,3.66666667 L5.61666667,7.66666667 L6.36666667,7.66666667 L6.61666667,3.66666667 Z" id="path-1"></path>
    </defs>
    <g id="é¡µé¢-1" stroke="none" stroke-width="1" fill="none" fill-rule="evenodd">
        <g id="å¼¹æ¡†-å…¨å±€æç¤º" transform="translate(-60.000000, -239.000000)">
            <g id="è­¦å‘Š" transform="translate(44.000000, 223.000000)">
                <g id="3icon" transform="translate(16.000000, 16.000000)">
                    <g id="warning" transform="translate(2.000000, 2.000000)">
                        <mask id="mask-2" fill="white">
                            <use xlink:href="#path-1"></use>
                        </mask>
                        <g id="01_PC/01_Basic/26_warning"></g>
                        <g id="ðŸŽ¨-color" mask="url(#mask-2)" fill="#FAAD14">
                            <g transform="translate(-2.000000, -2.000000)" id="çŸ©å½¢">
                                <rect x="0" y="0" width="16" height="16"></rect>
                            </g>
                        </g>
                    </g>
                    <rect id="01_PC/01_Basic/26_warning" fill="#000000" opacity="0" x="0" y="1.77635684e-15" width="16" height="16"></rect>
                </g>
            </g>
        </g>
    </g>
</svg>