<svg width="32" height="33" viewBox="0 0 32 33" fill="none" xmlns="http://www.w3.org/2000/svg">
<path fill-rule="evenodd" clip-rule="evenodd" d="M23.3337 4.83325H25.667V25.1666H9.50033V4.83325H18.0003V11.8333L20.667 9.83325L23.3337 11.8333V4.83325ZM23.3337 3.83325H25.667H26.667V4.83325V25.1666V26.1666V28.1666V29.1666H25.667H7.66699H6.66699C5.56242 29.1666 4.66699 28.2712 4.66699 27.1666C4.66699 27.0123 4.68446 26.8621 4.71753 26.7179C4.68434 26.5392 4.66699 26.3549 4.66699 26.1666V6.83325C4.66699 5.1764 6.01014 3.83325 7.66699 3.83325H18.0003H23.3337ZM25.667 28.1666H7.66699C6.7674 28.1666 6.00653 27.5727 5.75511 26.7555C5.9119 26.4083 6.26122 26.1666 6.66699 26.1666H25.667V28.1666ZM5.66699 6.83325V25.4341C5.96117 25.264 6.30271 25.1666 6.66699 25.1666H8.50033V4.83325H7.66699C6.56242 4.83325 5.66699 5.72868 5.66699 6.83325Z" fill="#2C3330"/>
</svg>
