<svg width="32" height="33" viewBox="0 0 32 33" fill="none" xmlns="http://www.w3.org/2000/svg">
<path fill-rule="evenodd" clip-rule="evenodd" d="M3.16699 16.5001C3.16699 9.41243 8.91267 3.66675 16.0003 3.66675C23.088 3.66675 28.8337 9.41243 28.8337 16.5001C28.8337 23.5877 23.088 29.3334 16.0003 29.3334C8.91267 29.3334 3.16699 23.5877 3.16699 16.5001ZM16.0003 2.66675C8.36039 2.66675 2.16699 8.86014 2.16699 16.5001C2.16699 24.14 8.36039 30.3334 16.0003 30.3334C23.6403 30.3334 29.8337 24.14 29.8337 16.5001C29.8337 8.86014 23.6403 2.66675 16.0003 2.66675ZM15.0205 20.8536L21.6872 14.187L20.9801 13.4799L14.667 19.793L11.0205 16.1465L10.3134 16.8536L14.3134 20.8536L14.667 21.2072L15.0205 20.8536Z" fill="#2C3330"/>
</svg>
