<svg width="16" height="16" viewBox="0 0 16 16" fill="none" xmlns="http://www.w3.org/2000/svg">
<path fill-rule="evenodd" clip-rule="evenodd" d="M13.1429 8C13.1429 10.8403 10.8403 13.1429 8 13.1429C5.15968 13.1429 2.85714 10.8403 2.85714 8C2.85714 5.15968 5.15968 2.85714 8 2.85714C10.8403 2.85714 13.1429 5.15968 13.1429 8ZM14 8C14 11.3137 11.3137 14 8 14C4.68629 14 2 11.3137 2 8C2 4.68629 4.68629 2 8 2C11.3137 2 14 4.68629 14 8ZM7.57143 4.57143V7.82248L5.98267 9.41124L6.58876 10.0173L8.42857 8.17752V4.57143H7.57143Z" fill="#8EA098"/>
</svg>
