<svg width="100" height="100" viewBox="0 0 100 100" fill="none" xmlns="http://www.w3.org/2000/svg">
<g clip-path="url(#clip0)">
<path d="M58.2191 22.7786V31.0732V41.7808V50.9802V55.6554V77.2214H77.2213V22.7786H58.2191Z" fill="white"/>
<path d="M53.5439 55.6554H40.5742H29.8666H22.7784V77.2214H53.5439V55.6554Z" fill="white"/>
<path d="M29.8666 50.9802V55.6554H40.5742V50.9802H53.5439V41.7808H58.2191V31.0732H53.5439V22.7786H22.7784V50.9802H29.8666Z" fill="#16AF64"/>
<path d="M81.8966 22.7786H77.2214V77.2214H81.8966V22.7786Z" fill="black"/>
<path d="M58.2191 55.6555V50.9804V41.7809H53.5439V50.9804H40.5742V55.6555H53.5439V77.2215H22.7784V81.8966H53.5439H58.2191H77.2213V77.2215H58.2191V55.6555Z" fill="black"/>
<path d="M53.5439 31.0733H58.2191V22.7787H77.2213V18.1035H58.2191H53.5439H22.7784V22.7787H53.5439V31.0733Z" fill="black"/>
<path d="M29.8667 55.6554V50.9802H22.7785V22.7786H18.1034V50.9802V55.6554V77.2214H22.7785V55.6554H29.8667Z" fill="black"/>
</g>
<defs>
<clipPath id="clip0">
<rect width="63.7931" height="63.7931" fill="white" transform="translate(18.1034 18.1035)"/>
</clipPath>
</defs>
</svg>
