<svg width="32" height="33" viewBox="0 0 32 33" fill="none" xmlns="http://www.w3.org/2000/svg">
<path fill-rule="evenodd" clip-rule="evenodd" d="M3.66699 9.5H28.3337V23.5H3.66699V9.5ZM2.66699 8.5H3.66699H28.3337H29.3337V9.5V23.5V24.5H28.3337H3.66699H2.66699V23.5V9.5V8.5ZM11.455 19.8333H7.60034V12.9827H8.46834V19.096H11.455V19.8333ZM13.536 19.8333H12.668V12.9827H13.536V19.8333ZM16.6624 19.8333H17.6611L19.8358 12.9827H18.9584L17.8571 16.6973C17.7512 17.0477 17.6594 17.3697 17.5688 17.688L17.5688 17.6881L17.5687 17.6881L17.5687 17.6882L17.5687 17.6882C17.4517 18.099 17.3364 18.5038 17.1944 18.956H17.1571C17.0027 18.4818 16.8841 18.0597 16.7629 17.6281C16.679 17.3292 16.5937 17.0258 16.4944 16.6973L15.3838 12.9827H14.4784L16.6624 19.8333ZM24.8216 19.8333H20.7709V12.9827H24.7189V13.72H21.6389V15.8667H24.2336V16.604H21.6389V19.096H24.8216V19.8333Z" fill="#8EA098"/>
</svg>
