<svg width="100" height="100" viewBox="0 0 100 100" fill="none" xmlns="http://www.w3.org/2000/svg">
<path d="M79.7299 32.4324H29.7299V72.9729H79.7299V32.4324Z" fill="white"/>
<path d="M29.7298 32.4324H25.6758V72.9729H29.7298V32.4324Z" fill="black"/>
<path d="M37.8378 41.8918H33.7838V63.5135H37.8378V41.8918Z" fill="black"/>
<path d="M70.2704 41.8918H66.2164V63.5135H70.2704V41.8918Z" fill="black"/>
<path d="M83.7839 32.4324H79.7299V72.9729H83.7839V32.4324Z" fill="black"/>
<path d="M79.7299 32.4322V28.3782L29.7299 28.3782V32.4322L79.7299 32.4322Z" fill="black"/>
<path d="M77.0271 45.9459V41.8918H72.973V45.9459H77.0271Z" fill="black"/>
<path d="M77.0271 54.0541V50H72.973V54.0541H77.0271Z" fill="black"/>
<path d="M39.1896 83.7838V79.7297H35.1355V83.7838H39.1896Z" fill="black"/>
<path d="M43.2435 82.4325V78.3784H39.1895V82.4325H43.2435Z" fill="black"/>
<path d="M47.2975 79.7297V75.6757H43.2435V79.7297H47.2975Z" fill="black"/>
<path d="M72.9732 83.7838L72.9732 79.7297L68.9192 79.7297L68.9192 83.7838L72.9732 83.7838Z" fill="black"/>
<path d="M68.9191 82.4325L68.9191 78.3784L64.8651 78.3784L64.8651 82.4325L68.9191 82.4325Z" fill="black"/>
<path d="M64.8652 79.7297L64.8652 75.6757L60.8111 75.6757L60.8111 79.7297L64.8652 79.7297Z" fill="black"/>
<path d="M40.5407 28.3784V24.3243H36.4867V28.3784H40.5407Z" fill="black"/>
<path d="M44.5948 28.3784V24.3243H40.5407V28.3784H44.5948Z" fill="black"/>
<path d="M48.6488 28.3784V24.3243H44.5947V28.3784H48.6488Z" fill="black"/>
<path d="M45.946 24.3243V20.2703H39.1892V24.3243H45.946Z" fill="black"/>
<path d="M50.0001 21.6216V17.5675H45.9461V21.6216H50.0001Z" fill="black"/>
<path d="M54.0542 18.9189V14.8649H50.0001V18.9189H54.0542Z" fill="black"/>
<path d="M58.1083 16.2162V12.1621H54.0543V16.2162H58.1083Z" fill="black"/>
<path d="M39.1894 21.6216L39.1894 17.5675L35.1353 17.5675L35.1353 21.6216L39.1894 21.6216Z" fill="black"/>
<path d="M35.1352 18.9189L35.1352 14.8649L31.0811 14.8649L31.0811 18.9189L35.1352 18.9189Z" fill="black"/>
<path d="M31.0812 16.2162L31.0812 12.1621L27.0272 12.1621L27.0272 16.2162L31.0812 16.2162Z" fill="black"/>
<path d="M79.7299 77.027V72.9729L29.7299 72.9729V77.027L79.7299 77.027Z" fill="black"/>
<path d="M66.2164 67.5675V63.5134L37.838 63.5134V67.5675H66.2164Z" fill="black"/>
<path d="M66.2164 41.8918V37.8378L37.838 37.8378V41.8918L66.2164 41.8918Z" fill="black"/>
<path d="M66.2163 41.8918H37.838V63.5135H66.2163V41.8918Z" fill="#16AF64"/>
<path d="M75.6757 32.4324H25.6757V72.9729H75.6757V32.4324Z" fill="white"/>
<path d="M25.6756 32.4324H21.6216V72.9729H25.6756V32.4324Z" fill="black"/>
<path d="M33.7839 41.8918H29.7298V63.5135H33.7839V41.8918Z" fill="black"/>
<path d="M66.2162 41.8918H62.1621V63.5135H66.2162V41.8918Z" fill="black"/>
<path d="M79.7297 32.4324H75.6757V72.9729H79.7297V32.4324Z" fill="black"/>
<path d="M75.6757 32.4322V28.3782L25.6757 28.3782V32.4322L75.6757 32.4322Z" fill="black"/>
<path d="M72.973 45.9459V41.8918H68.9189V45.9459H72.973Z" fill="black"/>
<path d="M72.973 54.0541V50H68.9189V54.0541H72.973Z" fill="black"/>
<path d="M35.1351 83.7837V79.7296H31.081V83.7837H35.1351Z" fill="black"/>
<path d="M39.1891 82.4324V78.3783H35.1351V82.4324H39.1891Z" fill="black"/>
<path d="M43.2432 79.7296V75.6755H39.1892V79.7296H43.2432Z" fill="black"/>
<path d="M68.9188 83.7837L68.9188 79.7296L64.8648 79.7296L64.8648 83.7837L68.9188 83.7837Z" fill="black"/>
<path d="M64.8647 82.4324L64.8647 78.3783L60.8107 78.3783L60.8107 82.4324L64.8647 82.4324Z" fill="black"/>
<path d="M60.8106 79.7296L60.8106 75.6755L56.7566 75.6755L56.7566 79.7296L60.8106 79.7296Z" fill="black"/>
<path d="M36.4865 28.3784V24.3243H32.4324V28.3784H36.4865Z" fill="black"/>
<path d="M40.5406 28.3784V24.3243H36.4866V28.3784H40.5406Z" fill="black"/>
<path d="M44.5946 28.3784V24.3243H40.5406V28.3784H44.5946Z" fill="black"/>
<path d="M41.8918 24.3243V20.2703H35.1351V24.3243H41.8918Z" fill="black"/>
<path d="M45.9459 21.6216V17.5675H41.8919V21.6216H45.9459Z" fill="black"/>
<path d="M50 18.9189V14.8649H45.9459V18.9189H50Z" fill="black"/>
<path d="M54.054 16.2162V12.1621H50V16.2162H54.054Z" fill="black"/>
<path d="M35.1351 21.6216L35.1351 17.5675L31.0811 17.5675L31.0811 21.6216L35.1351 21.6216Z" fill="black"/>
<path d="M31.081 18.9189L31.081 14.8649L27.0269 14.8649L27.0269 18.9189L31.081 18.9189Z" fill="black"/>
<path d="M27.027 16.2162L27.027 12.1621L22.973 12.1621L22.973 16.2162L27.027 16.2162Z" fill="black"/>
<path d="M75.6757 77.027V72.9729L25.6757 72.9729V77.027L75.6757 77.027Z" fill="black"/>
<path d="M62.1621 67.5675V63.5134L33.7837 63.5134V67.5675H62.1621Z" fill="black"/>
<path d="M62.1621 41.8918V37.8378L33.7837 37.8378V41.8918L62.1621 41.8918Z" fill="black"/>
<path d="M62.1621 41.8918H33.7837V63.5135H62.1621V41.8918Z" fill="#16AF64"/>
</svg>
