<svg width="24" height="24" viewBox="0 0 24 24" fill="none" xmlns="http://www.w3.org/2000/svg">
<path fill-rule="evenodd" clip-rule="evenodd" d="M10 4L12 5L14 4H19H20V5V5.5H21.5H22V6V19.5V20H21.5H14.118L12.2236 20.9472L12 21.059L11.7764 20.9472L9.88197 20H2.5H2V19.5V6V5.5H2.5H4V5V4H5H10ZM20 17V6.5H21V19H14H13.882L13.7764 19.0528L12 19.941L10.2236 19.0528L10.118 19H10H3V6.5H4V17V18H5H10L12 19L14 18H19H20V17ZM12.4472 5.89443L14.2361 5H19V17H14H13.7639L13.5528 17.1056L12 17.882L10.4472 17.1056L10.2361 17H10H5V5H9.76393L11.5528 5.89443L12 6.11803L12.4472 5.89443ZM11.5 8V16H12.5V8H11.5ZM7 10H10V9H7V10ZM14 10H17V9H14V10ZM7 13H10V12H7V13ZM14 13H17V12H14V13Z" fill="#2C3330"/>
</svg>
