<svg width="18" height="18" viewBox="0 0 18 18" fill="none" xmlns="http://www.w3.org/2000/svg">
<rect x="4.2002" y="4.60059" width="9.6" height="7.2" fill="#F8AD2E"/>
<rect x="9.7998" y="4.60059" width="4" height="4" fill="#F77622"/>
<rect x="1.7998" y="7.00098" width="14.4" height="2.4" fill="#F8AD2E"/>
<rect x="5" y="7.80078" width="4.8" height="4" fill="#F77622"/>
<rect x="8.2002" y="11.001" width="1.6" height="2.4" fill="#F8AD2E"/>
<rect x="5.7998" y="3" width="6.4" height="1.6" fill="#FFE761"/>
<rect x="4.2002" y="7" width="4.8" height="1.6" fill="#FFE761"/>
<rect x="9" y="7" width="4.8" height="1.6" fill="#FFE761"/>
<rect x="10.5996" y="8.59961" width="1.6" height="1.6" fill="#FFE761"/>
<rect x="5.7998" y="9.40039" width="1.6" height="1.6" fill="#FFE761"/>
<rect x="9.7998" y="8.59961" width="0.8" height="0.8" fill="#FFE761"/>
<rect x="5" y="9.40039" width="0.8" height="0.8" fill="#FFE761"/>
<rect x="5.7998" y="5.40039" width="1.6" height="1.6" fill="#FFE761"/>
<rect x="7.40039" y="6.2002" width="0.8" height="0.8" fill="#FFE761"/>
<rect x="4.2002" y="3.7998" width="1.6" height="1.6" fill="#FFE761"/>
<rect width="1.6" height="0.8" transform="matrix(-1 0 0 1 3.40039 8.59961)" fill="#FFE761"/>
<rect x="14.5996" y="8.59961" width="1.6" height="0.8" fill="#FFE761"/>
<rect width="1.6" height="1.6" transform="matrix(-1 0 0 1 13.7998 3.7998)" fill="#FFE761"/>
<rect x="3.40039" y="4.59961" width="1.6" height="1.6" fill="#FFE761"/>
<rect width="1.6" height="0.8" transform="matrix(-1 0 0 1 4.2002 9.40039)" fill="#FFE761"/>
<rect x="13.7998" y="9.40039" width="1.6" height="0.8" fill="#FFE761"/>
<rect width="1.6" height="1.6" transform="matrix(-1 0 0 1 14.5996 4.59961)" fill="#FFE761"/>
<rect x="2.59961" y="5.40039" width="1.6" height="1.6" fill="#FFE761"/>
<rect width="1.6" height="0.8" transform="matrix(-1 0 0 1 5 10.2002)" fill="#FFE761"/>
<rect x="13" y="10.2002" width="1.6" height="0.8" fill="#FFE761"/>
<rect width="1.6" height="1.6" transform="matrix(-1 0 0 1 15.4004 5.40039)" fill="#FFE761"/>
<rect x="1.7998" y="6.2002" width="1.6" height="1.6" fill="#FFE761"/>
<rect width="1.6" height="0.8" transform="matrix(-1 0 0 1 5.7998 11)" fill="#FFE761"/>
<rect x="12.2002" y="11" width="1.6" height="0.8" fill="#FFE761"/>
<rect width="1.6" height="1.6" transform="matrix(-1 0 0 1 16.2002 6.2002)" fill="#FFE761"/>
<rect x="1" y="7" width="0.8" height="1.6" fill="#FFE761"/>
<rect width="1.6" height="0.8" transform="matrix(-1 0 0 1 6.59961 11.7998)" fill="#FFE761"/>
<rect x="11.4004" y="11.7998" width="1.6" height="0.8" fill="#FFE761"/>
<rect width="1.6" height="1.6" transform="matrix(-1 0 0 1 8.2002 11.7998)" fill="#FFE761"/>
<rect x="9.7998" y="11.7998" width="1.6" height="1.6" fill="#FFE761"/>
<rect width="0.8" height="0.8" transform="matrix(-1 0 0 1 8.2002 13.4004)" fill="#FFE761"/>
<rect x="9.7998" y="13.4004" width="0.8" height="0.8" fill="#FFE761"/>
<rect width="1.6" height="0.8" transform="matrix(-1 0 0 1 9.7998 13.4004)" fill="#FFE761"/>
<rect width="1.6" height="0.8" transform="matrix(-1 0 0 1 9.7998 14.2002)" fill="#FFE761"/>
<rect width="0.8" height="1.6" transform="matrix(-1 0 0 1 17 7)" fill="#FFE761"/>
<mask id="path-41-outside-1" maskUnits="userSpaceOnUse" x="0" y="2" width="18" height="14" fill="black">
<rect fill="white" y="2" width="18" height="14"/>
<path fill-rule="evenodd" clip-rule="evenodd" d="M12.2 3H5.8V3.8H4.2V4.6H3.4V5.4H2.6V6.2H1.8V7H1V8.6H1.8V9.4H1.8002V9.40039H2.6V10.2L3.4 10.2V11H4.2V11.8H4.2002V11.8004H5V12.6H6.6V13.4L7.4 13.4V14.2H8.2L8.2 15H9.8V14.2H10.6V13.4L11.4 13.4L11.4 12.6H13V11.8004H13.8002V11H14.6V10.2L15.4 10.2V9.40039H16.2002V8.6H17V7H16.2V6.2H15.4V5.4H14.6V4.6H13.8V3.8H12.2L12.2 3ZM1.8 8.6L1.8 7.8H1.8002V8.6H1.8ZM8.20019 13.4V11.8004H8.2V13.4L8.20019 13.4ZM14.6 7H13.8002V7.00039H14.6V7ZM3.4 7.00039V7H4.2V7.00039H3.4ZM4.2 7V6.2H4.2002V7H4.2ZM4.2002 10.2V9.40039H4.2V10.2L4.2002 10.2ZM12.2 4.6H5.8V4.60039H9.8002H12.2L12.2 4.6Z"/>
</mask>
<path d="M5.8 3V2H4.8V3H5.8ZM12.2 3L13.2 3L13.2 2H12.2V3ZM5.8 3.8V4.8H6.8V3.8H5.8ZM4.2 3.8V2.8H3.2V3.8H4.2ZM4.2 4.6V5.6H5.2V4.6H4.2ZM3.4 4.6V3.6H2.4V4.6H3.4ZM3.4 5.4V6.4H4.4V5.4H3.4ZM2.6 5.4V4.4H1.6V5.4H2.6ZM2.6 6.2V7.2H3.6V6.2H2.6ZM1.8 6.2V5.2H0.8V6.2H1.8ZM1.8 7V8H2.8V7H1.8ZM1 7V6H0V7H1ZM1 8.6H0V9.6H1V8.6ZM1.8 9.4H0.8V10.4H1.8V9.4ZM1.8002 9.4H2.8002V8.4H1.8002V9.4ZM1.8002 9.40039H0.800195V10.4004H1.8002V9.40039ZM2.6 9.40039H3.6V8.40039H2.6V9.40039ZM2.6 10.2H1.6V11.2L2.6 11.2L2.6 10.2ZM3.4 10.2H4.4V9.2L3.4 9.2L3.4 10.2ZM3.4 11H2.4V12H3.4V11ZM4.2 11H5.2V10H4.2V11ZM4.2 11.8H3.2V12.8H4.2V11.8ZM4.2002 11.8H5.2002V10.8H4.2002V11.8ZM4.2002 11.8004H3.2002V12.8004H4.2002V11.8004ZM5 11.8004H6V10.8004H5V11.8004ZM5 12.6H4V13.6H5V12.6ZM6.6 12.6H7.6V11.6H6.6V12.6ZM6.6 13.4H5.6V14.4L6.6 14.4L6.6 13.4ZM7.4 13.4H8.4V12.4L7.4 12.4L7.4 13.4ZM7.4 14.2H6.4V15.2H7.4V14.2ZM8.2 14.2L9.2 14.2L9.2 13.2H8.2V14.2ZM8.2 15L7.2 15L7.2 16H8.2V15ZM9.8 15V16H10.8V15H9.8ZM9.8 14.2V13.2H8.8V14.2H9.8ZM10.6 14.2V15.2H11.6V14.2H10.6ZM10.6 13.4L10.6 12.4L9.6 12.4V13.4H10.6ZM11.4 13.4L11.4 14.4L12.4 14.4L12.4 13.4L11.4 13.4ZM11.4 12.6V11.6H10.4L10.4 12.6L11.4 12.6ZM13 12.6V13.6H14V12.6H13ZM13 11.8004V10.8004H12V11.8004H13ZM13.8002 11.8004V12.8004H14.8002V11.8004H13.8002ZM13.8002 11V10H12.8002V11H13.8002ZM14.6 11V12H15.6V11H14.6ZM14.6 10.2L14.6 9.2L13.6 9.2V10.2H14.6ZM15.4 10.2L15.4 11.2L16.4 11.2V10.2H15.4ZM15.4 9.40039V8.40039H14.4V9.40039H15.4ZM16.2002 9.40039V10.4004H17.2002V9.40039H16.2002ZM16.2002 8.6V7.6H15.2002V8.6H16.2002ZM17 8.6V9.6H18V8.6H17ZM17 7H18V6H17V7ZM16.2 7H15.2V8H16.2V7ZM16.2 6.2H17.2V5.2H16.2V6.2ZM15.4 6.2H14.4V7.2H15.4V6.2ZM15.4 5.4H16.4V4.4H15.4V5.4ZM14.6 5.4H13.6V6.4H14.6V5.4ZM14.6 4.6H15.6V3.6H14.6V4.6ZM13.8 4.6H12.8V5.6H13.8V4.6ZM13.8 3.8H14.8V2.8H13.8V3.8ZM12.2 3.8L11.2 3.8L11.2 4.8H12.2V3.8ZM1.8 7.8V6.8H0.8L0.8 7.8H1.8ZM1.8002 7.8H2.8002V6.8H1.8002V7.8ZM1.8002 8.6V9.6H2.8002V8.6H1.8002ZM8.20019 11.8004H9.2002V10.8004H8.20019V11.8004ZM8.20019 13.4L8.20508 14.4L9.2002 14.3951V13.4H8.20019ZM8.2 11.8004V10.8004H7.2V11.8004H8.2ZM8.2 13.4H7.2V14.4049L8.20489 14.4L8.2 13.4ZM13.8002 7V6H12.8002V7H13.8002ZM14.6 7H15.6V6H14.6V7ZM13.8002 7.00039H12.8002V8.00039H13.8002V7.00039ZM14.6 7.00039V8.00039H15.6V7.00039H14.6ZM3.4 7V6H2.4V7H3.4ZM3.4 7.00039H2.4V8.00039H3.4V7.00039ZM4.2 7.00039V8.00039H5.2V7.00039H4.2ZM4.2 6.2V5.2H3.2V6.2H4.2ZM4.2002 6.2H5.2002V5.2H4.2002V6.2ZM4.2002 7V8H5.2002V7H4.2002ZM4.2002 9.40039H5.2002V8.40039H4.2002V9.40039ZM4.2002 10.2L4.20264 11.2L5.2002 11.1976V10.2H4.2002ZM4.2 9.40039V8.40039H3.2V9.40039H4.2ZM4.2 10.2H3.2V11.2024L4.20244 11.2L4.2 10.2ZM5.8 4.6V3.6H4.8V4.6H5.8ZM12.2 4.6L13.2 4.60244L13.2024 3.6H12.2V4.6ZM5.8 4.60039H4.8V5.60039H5.8V4.60039ZM12.2 4.60039V5.60039H13.1976L13.2 4.60283L12.2 4.60039ZM5.8 4H12.2V2H5.8V4ZM6.8 3.8V3H4.8V3.8H6.8ZM4.2 4.8H5.8V2.8H4.2V4.8ZM5.2 4.6V3.8H3.2V4.6H5.2ZM3.4 5.6H4.2V3.6H3.4V5.6ZM4.4 5.4V4.6H2.4V5.4H4.4ZM2.6 6.4H3.4V4.4H2.6V6.4ZM3.6 6.2V5.4H1.6V6.2H3.6ZM1.8 7.2H2.6V5.2H1.8V7.2ZM2.8 7V6.2H0.8V7H2.8ZM1 8H1.8V6H1V8ZM2 8.6V7H0V8.6H2ZM1.8 7.6H1V9.6H1.8V7.6ZM2.8 9.4V8.6H0.8V9.4H2.8ZM1.8002 8.4H1.8V10.4H1.8002V8.4ZM2.8002 9.40039V9.4H0.800195V9.40039H2.8002ZM2.6 8.40039H1.8002V10.4004H2.6V8.40039ZM3.6 10.2V9.40039H1.6V10.2H3.6ZM3.4 9.2L2.6 9.2L2.6 11.2H3.4L3.4 9.2ZM4.4 11V10.2H2.4V11H4.4ZM4.2 10H3.4V12H4.2V10ZM5.2 11.8V11H3.2V11.8H5.2ZM4.2002 10.8H4.2V12.8H4.2002V10.8ZM5.2002 11.8004V11.8H3.2002V11.8004H5.2002ZM5 10.8004H4.2002V12.8004H5V10.8004ZM6 12.6V11.8004H4V12.6H6ZM6.6 11.6H5V13.6H6.6V11.6ZM7.6 13.4V12.6H5.6V13.4H7.6ZM7.4 12.4L6.6 12.4L6.6 14.4L7.4 14.4L7.4 12.4ZM8.4 14.2V13.4H6.4V14.2H8.4ZM8.2 13.2H7.4V15.2H8.2V13.2ZM9.2 15V14.2L7.2 14.2L7.2 15L9.2 15ZM9.8 14H8.2V16H9.8V14ZM8.8 14.2V15H10.8V14.2H8.8ZM10.6 13.2H9.8V15.2H10.6V13.2ZM9.6 13.4V14.2H11.6V13.4H9.6ZM11.4 12.4L10.6 12.4L10.6 14.4L11.4 14.4L11.4 12.4ZM10.4 12.6L10.4 13.4L12.4 13.4L12.4 12.6L10.4 12.6ZM13 11.6H11.4V13.6H13V11.6ZM12 11.8004V12.6H14V11.8004H12ZM13.8002 10.8004H13V12.8004H13.8002V10.8004ZM12.8002 11V11.8004H14.8002V11H12.8002ZM14.6 10H13.8002V12H14.6V10ZM13.6 10.2V11H15.6V10.2H13.6ZM15.4 9.2L14.6 9.2L14.6 11.2H15.4L15.4 9.2ZM14.4 9.40039V10.2H16.4V9.40039H14.4ZM16.2002 8.40039H15.4V10.4004H16.2002V8.40039ZM15.2002 8.6V9.40039H17.2002V8.6H15.2002ZM16.2002 9.6H17V7.6H16.2002V9.6ZM18 8.6V7H16V8.6H18ZM17 6H16.2V8H17V6ZM15.2 6.2V7H17.2V6.2H15.2ZM15.4 7.2H16.2V5.2H15.4V7.2ZM14.4 5.4V6.2H16.4V5.4H14.4ZM14.6 6.4H15.4V4.4H14.6V6.4ZM13.6 4.6V5.4H15.6V4.6H13.6ZM13.8 5.6H14.6V3.6H13.8V5.6ZM12.8 3.8V4.6H14.8V3.8H12.8ZM12.2 4.8H13.8V2.8H12.2V4.8ZM11.2 3L11.2 3.8L13.2 3.8L13.2 3L11.2 3ZM0.8 7.8L0.8 8.6H2.8L2.8 7.8H0.8ZM1.8002 6.8H1.8V8.8H1.8002V6.8ZM2.8002 8.6V7.8H0.800195V8.6H2.8002ZM1.8 9.6H1.8002V7.6H1.8V9.6ZM7.20019 11.8004V13.4H9.2002V11.8004H7.20019ZM8.2 12.8004H8.20019V10.8004H8.2V12.8004ZM9.2 13.4V11.8004H7.2V13.4H9.2ZM8.1953 12.4L8.19511 12.4L8.20489 14.4L8.20508 14.4L8.1953 12.4ZM13.8002 8H14.6V6H13.8002V8ZM14.8002 7.00039V7H12.8002V7.00039H14.8002ZM14.6 6.00039H13.8002V8.00039H14.6V6.00039ZM13.6 7V7.00039H15.6V7H13.6ZM2.4 7V7.00039H4.4V7H2.4ZM4.2 6H3.4V8H4.2V6ZM5.2 7.00039V7H3.2V7.00039H5.2ZM3.4 8.00039H4.2V6.00039H3.4V8.00039ZM3.2 6.2V7H5.2V6.2H3.2ZM4.2002 5.2H4.2V7.2H4.2002V5.2ZM5.2002 7V6.2H3.2002V7H5.2002ZM4.2 8H4.2002V6H4.2V8ZM3.2002 9.40039V10.2H5.2002V9.40039H3.2002ZM4.2 10.4004H4.2002V8.40039H4.2V10.4004ZM5.2 10.2V9.40039H3.2V10.2H5.2ZM4.19775 9.2L4.19756 9.2L4.20244 11.2H4.20264L4.19775 9.2ZM5.8 5.6H12.2V3.6H5.8V5.6ZM6.8 4.60039V4.6H4.8V4.60039H6.8ZM9.8002 3.60039H5.8V5.60039H9.8002V3.60039ZM12.2 3.60039H9.8002V5.60039H12.2V3.60039ZM11.2 4.59756L11.2 4.59795L13.2 4.60283L13.2 4.60244L11.2 4.59756Z" fill="black" mask="url(#path-41-outside-1)"/>
</svg>
