<svg width="1920" height="830" viewBox="0 0 1920 830" fill="none" xmlns="http://www.w3.org/2000/svg">
<rect width="1920" height="830" fill="#EBEBEB"/>
<mask id="mask0" mask-type="alpha" maskUnits="userSpaceOnUse" x="33" y="39" width="1855" height="603">
<g clip-path="url(#clip0)">
<path d="M35.9 39H33V41.9H35.9V39Z" fill="#BCBCBC"/>
<path d="M35.9 93.5H33V96.4H35.9V93.5Z" fill="#BCBCBC"/>
<path d="M35.9 148.1H33V151H35.9V148.1Z" fill="#BCBCBC"/>
<path d="M35.9 202.6H33V205.5H35.9V202.6Z" fill="#BCBCBC"/>
<path d="M35.9 257.2H33V260.1H35.9V257.2Z" fill="#BCBCBC"/>
<path d="M35.9 311.7H33V314.6H35.9V311.7Z" fill="#BCBCBC"/>
<path d="M35.9 366.2H33V369.1H35.9V366.2Z" fill="#BCBCBC"/>
<path d="M35.9 420.8H33V423.7H35.9V420.8Z" fill="#BCBCBC"/>
<path d="M35.9 475.3H33V478.2H35.9V475.3Z" fill="#BCBCBC"/>
<path d="M35.9 529.8H33V532.7H35.9V529.8Z" fill="#BCBCBC"/>
<path d="M35.9 584.4H33V587.3H35.9V584.4Z" fill="#BCBCBC"/>
<path d="M35.9 638.9H33V641.8H35.9V638.9Z" fill="#BCBCBC"/>
<path d="M82.2 39H79.3V41.9H82.2V39Z" fill="#BCBCBC"/>
<path d="M82.2 93.5H79.3V96.4H82.2V93.5Z" fill="#BCBCBC"/>
<path d="M82.2 148.1H79.3V151H82.2V148.1Z" fill="#BCBCBC"/>
<path d="M82.2 202.6H79.3V205.5H82.2V202.6Z" fill="#BCBCBC"/>
<path d="M82.2 257.2H79.3V260.1H82.2V257.2Z" fill="#BCBCBC"/>
<path d="M82.2 311.7H79.3V314.6H82.2V311.7Z" fill="#BCBCBC"/>
<path d="M82.2 366.2H79.3V369.1H82.2V366.2Z" fill="#BCBCBC"/>
<path d="M82.2 420.8H79.3V423.7H82.2V420.8Z" fill="#BCBCBC"/>
<path d="M82.2 475.3H79.3V478.2H82.2V475.3Z" fill="#BCBCBC"/>
<path d="M82.2 529.8H79.3V532.7H82.2V529.8Z" fill="#BCBCBC"/>
<path d="M82.2 584.4H79.3V587.3H82.2V584.4Z" fill="#BCBCBC"/>
<path d="M82.2 638.9H79.3V641.8H82.2V638.9Z" fill="#BCBCBC"/>
<path d="M128.5 39H125.6V41.9H128.5V39Z" fill="#BCBCBC"/>
<path d="M128.5 93.5H125.6V96.4H128.5V93.5Z" fill="#BCBCBC"/>
<path d="M128.5 148.1H125.6V151H128.5V148.1Z" fill="#BCBCBC"/>
<path d="M128.5 202.6H125.6V205.5H128.5V202.6Z" fill="#BCBCBC"/>
<path d="M128.5 257.2H125.6V260.1H128.5V257.2Z" fill="#BCBCBC"/>
<path d="M128.5 311.7H125.6V314.6H128.5V311.7Z" fill="#BCBCBC"/>
<path d="M128.5 366.2H125.6V369.1H128.5V366.2Z" fill="#BCBCBC"/>
<path d="M128.5 420.8H125.6V423.7H128.5V420.8Z" fill="#BCBCBC"/>
<path d="M128.5 475.3H125.6V478.2H128.5V475.3Z" fill="#BCBCBC"/>
<path d="M128.5 529.8H125.6V532.7H128.5V529.8Z" fill="#BCBCBC"/>
<path d="M128.5 584.4H125.6V587.3H128.5V584.4Z" fill="#BCBCBC"/>
<path d="M128.5 638.9H125.6V641.8H128.5V638.9Z" fill="#BCBCBC"/>
<path d="M174.8 39H171.9V41.9H174.8V39Z" fill="#BCBCBC"/>
<path d="M174.8 93.5H171.9V96.4H174.8V93.5Z" fill="#BCBCBC"/>
<path d="M174.8 148.1H171.9V151H174.8V148.1Z" fill="#BCBCBC"/>
<path d="M174.8 202.6H171.9V205.5H174.8V202.6Z" fill="#BCBCBC"/>
<path d="M174.8 257.2H171.9V260.1H174.8V257.2Z" fill="#BCBCBC"/>
<path d="M174.8 311.7H171.9V314.6H174.8V311.7Z" fill="#BCBCBC"/>
<path d="M174.8 366.2H171.9V369.1H174.8V366.2Z" fill="#BCBCBC"/>
<path d="M174.8 420.8H171.9V423.7H174.8V420.8Z" fill="#BCBCBC"/>
<path d="M174.8 475.3H171.9V478.2H174.8V475.3Z" fill="#BCBCBC"/>
<path d="M174.8 529.8H171.9V532.7H174.8V529.8Z" fill="#BCBCBC"/>
<path d="M174.8 584.4H171.9V587.3H174.8V584.4Z" fill="#BCBCBC"/>
<path d="M174.8 638.9H171.9V641.8H174.8V638.9Z" fill="#BCBCBC"/>
<path d="M221.1 39H218.2V41.9H221.1V39Z" fill="#BCBCBC"/>
<path d="M221.1 93.5H218.2V96.4H221.1V93.5Z" fill="#BCBCBC"/>
<path d="M221.1 148.1H218.2V151H221.1V148.1Z" fill="#BCBCBC"/>
<path d="M221.1 202.6H218.2V205.5H221.1V202.6Z" fill="#BCBCBC"/>
<path d="M221.1 257.2H218.2V260.1H221.1V257.2Z" fill="#BCBCBC"/>
<path d="M221.1 311.7H218.2V314.6H221.1V311.7Z" fill="#BCBCBC"/>
<path d="M221.1 366.2H218.2V369.1H221.1V366.2Z" fill="#BCBCBC"/>
<path d="M221.1 420.8H218.2V423.7H221.1V420.8Z" fill="#BCBCBC"/>
<path d="M221.1 475.3H218.2V478.2H221.1V475.3Z" fill="#BCBCBC"/>
<path d="M221.1 529.8H218.2V532.7H221.1V529.8Z" fill="#BCBCBC"/>
<path d="M221.1 584.4H218.2V587.3H221.1V584.4Z" fill="#BCBCBC"/>
<path d="M221.1 638.9H218.2V641.8H221.1V638.9Z" fill="#BCBCBC"/>
<path d="M267.4 39H264.5V41.9H267.4V39Z" fill="#BCBCBC"/>
<path d="M267.4 93.5H264.5V96.4H267.4V93.5Z" fill="#BCBCBC"/>
<path d="M267.4 148.1H264.5V151H267.4V148.1Z" fill="#BCBCBC"/>
<path d="M267.4 202.6H264.5V205.5H267.4V202.6Z" fill="#BCBCBC"/>
<path d="M267.4 257.2H264.5V260.1H267.4V257.2Z" fill="#BCBCBC"/>
<path d="M267.4 311.7H264.5V314.6H267.4V311.7Z" fill="#BCBCBC"/>
<path d="M267.4 366.2H264.5V369.1H267.4V366.2Z" fill="#BCBCBC"/>
<path d="M267.4 420.8H264.5V423.7H267.4V420.8Z" fill="#BCBCBC"/>
<path d="M267.4 475.3H264.5V478.2H267.4V475.3Z" fill="#BCBCBC"/>
<path d="M267.4 529.8H264.5V532.7H267.4V529.8Z" fill="#BCBCBC"/>
<path d="M267.4 584.4H264.5V587.3H267.4V584.4Z" fill="#BCBCBC"/>
<path d="M267.4 638.9H264.5V641.8H267.4V638.9Z" fill="#BCBCBC"/>
<path d="M313.7 39H310.8V41.9H313.7V39Z" fill="#BCBCBC"/>
<path d="M313.7 93.5H310.8V96.4H313.7V93.5Z" fill="#BCBCBC"/>
<path d="M313.7 148.1H310.8V151H313.7V148.1Z" fill="#BCBCBC"/>
<path d="M313.7 202.6H310.8V205.5H313.7V202.6Z" fill="#BCBCBC"/>
<path d="M313.7 257.2H310.8V260.1H313.7V257.2Z" fill="#BCBCBC"/>
<path d="M313.7 311.7H310.8V314.6H313.7V311.7Z" fill="#BCBCBC"/>
<path d="M313.7 366.2H310.8V369.1H313.7V366.2Z" fill="#BCBCBC"/>
<path d="M313.7 420.8H310.8V423.7H313.7V420.8Z" fill="#BCBCBC"/>
<path d="M313.7 475.3H310.8V478.2H313.7V475.3Z" fill="#BCBCBC"/>
<path d="M313.7 529.8H310.8V532.7H313.7V529.8Z" fill="#BCBCBC"/>
<path d="M313.7 584.4H310.8V587.3H313.7V584.4Z" fill="#BCBCBC"/>
<path d="M313.7 638.9H310.8V641.8H313.7V638.9Z" fill="#BCBCBC"/>
<path d="M360 39H357.1V41.9H360V39Z" fill="#BCBCBC"/>
<path d="M360 93.5H357.1V96.4H360V93.5Z" fill="#BCBCBC"/>
<path d="M360 148.1H357.1V151H360V148.1Z" fill="#BCBCBC"/>
<path d="M360 202.6H357.1V205.5H360V202.6Z" fill="#BCBCBC"/>
<path d="M360 257.2H357.1V260.1H360V257.2Z" fill="#BCBCBC"/>
<path d="M360 311.7H357.1V314.6H360V311.7Z" fill="#BCBCBC"/>
<path d="M360 366.2H357.1V369.1H360V366.2Z" fill="#BCBCBC"/>
<path d="M360 420.8H357.1V423.7H360V420.8Z" fill="#BCBCBC"/>
<path d="M360 475.3H357.1V478.2H360V475.3Z" fill="#BCBCBC"/>
<path d="M360 529.8H357.1V532.7H360V529.8Z" fill="#BCBCBC"/>
<path d="M360 584.4H357.1V587.3H360V584.4Z" fill="#BCBCBC"/>
<path d="M360 638.9H357.1V641.8H360V638.9Z" fill="#BCBCBC"/>
<path d="M406.3 39H403.4V41.9H406.3V39Z" fill="#BCBCBC"/>
<path d="M406.3 93.5H403.4V96.4H406.3V93.5Z" fill="#BCBCBC"/>
<path d="M406.3 148.1H403.4V151H406.3V148.1Z" fill="#BCBCBC"/>
<path d="M406.3 202.6H403.4V205.5H406.3V202.6Z" fill="#BCBCBC"/>
<path d="M406.3 257.2H403.4V260.1H406.3V257.2Z" fill="#BCBCBC"/>
<path d="M406.3 311.7H403.4V314.6H406.3V311.7Z" fill="#BCBCBC"/>
<path d="M406.3 366.2H403.4V369.1H406.3V366.2Z" fill="#BCBCBC"/>
<path d="M406.3 420.8H403.4V423.7H406.3V420.8Z" fill="#BCBCBC"/>
<path d="M406.3 475.3H403.4V478.2H406.3V475.3Z" fill="#BCBCBC"/>
<path d="M406.3 529.8H403.4V532.7H406.3V529.8Z" fill="#BCBCBC"/>
<path d="M406.3 584.4H403.4V587.3H406.3V584.4Z" fill="#BCBCBC"/>
<path d="M406.3 638.9H403.4V641.8H406.3V638.9Z" fill="#BCBCBC"/>
<path d="M452.5 39H449.6V41.9H452.5V39Z" fill="#BCBCBC"/>
<path d="M452.5 93.5H449.6V96.4H452.5V93.5Z" fill="#BCBCBC"/>
<path d="M452.5 148.1H449.6V151H452.5V148.1Z" fill="#BCBCBC"/>
<path d="M452.5 202.6H449.6V205.5H452.5V202.6Z" fill="#BCBCBC"/>
<path d="M452.5 257.2H449.6V260.1H452.5V257.2Z" fill="#BCBCBC"/>
<path d="M452.5 311.7H449.6V314.6H452.5V311.7Z" fill="#BCBCBC"/>
<path d="M452.5 366.2H449.6V369.1H452.5V366.2Z" fill="#BCBCBC"/>
<path d="M452.5 420.8H449.6V423.7H452.5V420.8Z" fill="#BCBCBC"/>
<path d="M452.5 475.3H449.6V478.2H452.5V475.3Z" fill="#BCBCBC"/>
<path d="M452.5 529.8H449.6V532.7H452.5V529.8Z" fill="#BCBCBC"/>
<path d="M452.5 584.4H449.6V587.3H452.5V584.4Z" fill="#BCBCBC"/>
<path d="M452.5 638.9H449.6V641.8H452.5V638.9Z" fill="#BCBCBC"/>
<path d="M498.8 39H495.9V41.9H498.8V39Z" fill="#BCBCBC"/>
<path d="M498.8 93.5H495.9V96.4H498.8V93.5Z" fill="#BCBCBC"/>
<path d="M498.8 148.1H495.9V151H498.8V148.1Z" fill="#BCBCBC"/>
<path d="M498.8 202.6H495.9V205.5H498.8V202.6Z" fill="#BCBCBC"/>
<path d="M498.8 257.2H495.9V260.1H498.8V257.2Z" fill="#BCBCBC"/>
<path d="M498.8 311.7H495.9V314.6H498.8V311.7Z" fill="#BCBCBC"/>
<path d="M498.8 366.2H495.9V369.1H498.8V366.2Z" fill="#BCBCBC"/>
<path d="M498.8 420.8H495.9V423.7H498.8V420.8Z" fill="#BCBCBC"/>
<path d="M498.8 475.3H495.9V478.2H498.8V475.3Z" fill="#BCBCBC"/>
<path d="M498.8 529.8H495.9V532.7H498.8V529.8Z" fill="#BCBCBC"/>
<path d="M498.8 584.4H495.9V587.3H498.8V584.4Z" fill="#BCBCBC"/>
<path d="M498.8 638.9H495.9V641.8H498.8V638.9Z" fill="#BCBCBC"/>
<path d="M545.1 39H542.2V41.9H545.1V39Z" fill="#BCBCBC"/>
<path d="M545.1 93.5H542.2V96.4H545.1V93.5Z" fill="#BCBCBC"/>
<path d="M545.1 148.1H542.2V151H545.1V148.1Z" fill="#BCBCBC"/>
<path d="M545.1 202.6H542.2V205.5H545.1V202.6Z" fill="#BCBCBC"/>
<path d="M545.1 257.2H542.2V260.1H545.1V257.2Z" fill="#BCBCBC"/>
<path d="M545.1 311.7H542.2V314.6H545.1V311.7Z" fill="#BCBCBC"/>
<path d="M545.1 366.2H542.2V369.1H545.1V366.2Z" fill="#BCBCBC"/>
<path d="M545.1 420.8H542.2V423.7H545.1V420.8Z" fill="#BCBCBC"/>
<path d="M545.1 475.3H542.2V478.2H545.1V475.3Z" fill="#BCBCBC"/>
<path d="M545.1 529.8H542.2V532.7H545.1V529.8Z" fill="#BCBCBC"/>
<path d="M545.1 584.4H542.2V587.3H545.1V584.4Z" fill="#BCBCBC"/>
<path d="M545.1 638.9H542.2V641.8H545.1V638.9Z" fill="#BCBCBC"/>
<path d="M591.4 39H588.5V41.9H591.4V39Z" fill="#BCBCBC"/>
<path d="M591.4 93.5H588.5V96.4H591.4V93.5Z" fill="#BCBCBC"/>
<path d="M591.4 148.1H588.5V151H591.4V148.1Z" fill="#BCBCBC"/>
<path d="M591.4 202.6H588.5V205.5H591.4V202.6Z" fill="#BCBCBC"/>
<path d="M591.4 257.2H588.5V260.1H591.4V257.2Z" fill="#BCBCBC"/>
<path d="M591.4 311.7H588.5V314.6H591.4V311.7Z" fill="#BCBCBC"/>
<path d="M591.4 366.2H588.5V369.1H591.4V366.2Z" fill="#BCBCBC"/>
<path d="M591.4 420.8H588.5V423.7H591.4V420.8Z" fill="#BCBCBC"/>
<path d="M591.4 475.3H588.5V478.2H591.4V475.3Z" fill="#BCBCBC"/>
<path d="M591.4 529.8H588.5V532.7H591.4V529.8Z" fill="#BCBCBC"/>
<path d="M591.4 584.4H588.5V587.3H591.4V584.4Z" fill="#BCBCBC"/>
<path d="M591.4 638.9H588.5V641.8H591.4V638.9Z" fill="#BCBCBC"/>
<path d="M637.7 39H634.8V41.9H637.7V39Z" fill="#BCBCBC"/>
<path d="M637.7 93.5H634.8V96.4H637.7V93.5Z" fill="#BCBCBC"/>
<path d="M637.7 148.1H634.8V151H637.7V148.1Z" fill="#BCBCBC"/>
<path d="M637.7 202.6H634.8V205.5H637.7V202.6Z" fill="#BCBCBC"/>
<path d="M637.7 257.2H634.8V260.1H637.7V257.2Z" fill="#BCBCBC"/>
<path d="M637.7 311.7H634.8V314.6H637.7V311.7Z" fill="#BCBCBC"/>
<path d="M637.7 366.2H634.8V369.1H637.7V366.2Z" fill="#BCBCBC"/>
<path d="M637.7 420.8H634.8V423.7H637.7V420.8Z" fill="#BCBCBC"/>
<path d="M637.7 475.3H634.8V478.2H637.7V475.3Z" fill="#BCBCBC"/>
<path d="M637.7 529.8H634.8V532.7H637.7V529.8Z" fill="#BCBCBC"/>
<path d="M637.7 584.4H634.8V587.3H637.7V584.4Z" fill="#BCBCBC"/>
<path d="M637.7 638.9H634.8V641.8H637.7V638.9Z" fill="#BCBCBC"/>
<path d="M684 39H681.1V41.9H684V39Z" fill="#BCBCBC"/>
<path d="M684 93.5H681.1V96.4H684V93.5Z" fill="#BCBCBC"/>
<path d="M684 148.1H681.1V151H684V148.1Z" fill="#BCBCBC"/>
<path d="M684 202.6H681.1V205.5H684V202.6Z" fill="#BCBCBC"/>
<path d="M684 257.2H681.1V260.1H684V257.2Z" fill="#BCBCBC"/>
<path d="M684 311.7H681.1V314.6H684V311.7Z" fill="#BCBCBC"/>
<path d="M684 366.2H681.1V369.1H684V366.2Z" fill="#BCBCBC"/>
<path d="M684 420.8H681.1V423.7H684V420.8Z" fill="#BCBCBC"/>
<path d="M684 475.3H681.1V478.2H684V475.3Z" fill="#BCBCBC"/>
<path d="M684 529.8H681.1V532.7H684V529.8Z" fill="#BCBCBC"/>
<path d="M684 584.4H681.1V587.3H684V584.4Z" fill="#BCBCBC"/>
<path d="M684 638.9H681.1V641.8H684V638.9Z" fill="#BCBCBC"/>
<path d="M730.3 39H727.4V41.9H730.3V39Z" fill="#BCBCBC"/>
<path d="M730.3 93.5H727.4V96.4H730.3V93.5Z" fill="#BCBCBC"/>
<path d="M730.3 148.1H727.4V151H730.3V148.1Z" fill="#BCBCBC"/>
<path d="M730.3 202.6H727.4V205.5H730.3V202.6Z" fill="#BCBCBC"/>
<path d="M730.3 257.2H727.4V260.1H730.3V257.2Z" fill="#BCBCBC"/>
<path d="M730.3 311.7H727.4V314.6H730.3V311.7Z" fill="#BCBCBC"/>
<path d="M730.3 366.2H727.4V369.1H730.3V366.2Z" fill="#BCBCBC"/>
<path d="M730.3 420.8H727.4V423.7H730.3V420.8Z" fill="#BCBCBC"/>
<path d="M730.3 475.3H727.4V478.2H730.3V475.3Z" fill="#BCBCBC"/>
<path d="M730.3 529.8H727.4V532.7H730.3V529.8Z" fill="#BCBCBC"/>
<path d="M730.3 584.4H727.4V587.3H730.3V584.4Z" fill="#BCBCBC"/>
<path d="M730.3 638.9H727.4V641.8H730.3V638.9Z" fill="#BCBCBC"/>
<path d="M776.6 39H773.7V41.9H776.6V39Z" fill="#BCBCBC"/>
<path d="M776.6 93.5H773.7V96.4H776.6V93.5Z" fill="#BCBCBC"/>
<path d="M776.6 148.1H773.7V151H776.6V148.1Z" fill="#BCBCBC"/>
<path d="M776.6 202.6H773.7V205.5H776.6V202.6Z" fill="#BCBCBC"/>
<path d="M776.6 257.2H773.7V260.1H776.6V257.2Z" fill="#BCBCBC"/>
<path d="M776.6 311.7H773.7V314.6H776.6V311.7Z" fill="#BCBCBC"/>
<path d="M776.6 366.2H773.7V369.1H776.6V366.2Z" fill="#BCBCBC"/>
<path d="M776.6 420.8H773.7V423.7H776.6V420.8Z" fill="#BCBCBC"/>
<path d="M776.6 475.3H773.7V478.2H776.6V475.3Z" fill="#BCBCBC"/>
<path d="M776.6 529.8H773.7V532.7H776.6V529.8Z" fill="#BCBCBC"/>
<path d="M776.6 584.4H773.7V587.3H776.6V584.4Z" fill="#BCBCBC"/>
<path d="M776.6 638.9H773.7V641.8H776.6V638.9Z" fill="#BCBCBC"/>
<path d="M822.9 39H820V41.9H822.9V39Z" fill="#BCBCBC"/>
<path d="M822.9 93.5H820V96.4H822.9V93.5Z" fill="#BCBCBC"/>
<path d="M822.9 148.1H820V151H822.9V148.1Z" fill="#BCBCBC"/>
<path d="M822.9 202.6H820V205.5H822.9V202.6Z" fill="#BCBCBC"/>
<path d="M822.9 257.2H820V260.1H822.9V257.2Z" fill="#BCBCBC"/>
<path d="M822.9 311.7H820V314.6H822.9V311.7Z" fill="#BCBCBC"/>
<path d="M822.9 366.2H820V369.1H822.9V366.2Z" fill="#BCBCBC"/>
<path d="M822.9 420.8H820V423.7H822.9V420.8Z" fill="#BCBCBC"/>
<path d="M822.9 475.3H820V478.2H822.9V475.3Z" fill="#BCBCBC"/>
<path d="M822.9 529.8H820V532.7H822.9V529.8Z" fill="#BCBCBC"/>
<path d="M822.9 584.4H820V587.3H822.9V584.4Z" fill="#BCBCBC"/>
<path d="M822.9 638.9H820V641.8H822.9V638.9Z" fill="#BCBCBC"/>
<path d="M869.2 39H866.3V41.9H869.2V39Z" fill="#BCBCBC"/>
<path d="M869.2 93.5H866.3V96.4H869.2V93.5Z" fill="#BCBCBC"/>
<path d="M869.2 148.1H866.3V151H869.2V148.1Z" fill="#BCBCBC"/>
<path d="M869.2 202.6H866.3V205.5H869.2V202.6Z" fill="#BCBCBC"/>
<path d="M869.2 257.2H866.3V260.1H869.2V257.2Z" fill="#BCBCBC"/>
<path d="M869.2 311.7H866.3V314.6H869.2V311.7Z" fill="#BCBCBC"/>
<path d="M869.2 366.2H866.3V369.1H869.2V366.2Z" fill="#BCBCBC"/>
<path d="M869.2 420.8H866.3V423.7H869.2V420.8Z" fill="#BCBCBC"/>
<path d="M869.2 475.3H866.3V478.2H869.2V475.3Z" fill="#BCBCBC"/>
<path d="M869.2 529.8H866.3V532.7H869.2V529.8Z" fill="#BCBCBC"/>
<path d="M869.2 584.4H866.3V587.3H869.2V584.4Z" fill="#BCBCBC"/>
<path d="M869.2 638.9H866.3V641.8H869.2V638.9Z" fill="#BCBCBC"/>
<path d="M915.5 39H912.6V41.9H915.5V39Z" fill="#BCBCBC"/>
<path d="M915.5 93.5H912.6V96.4H915.5V93.5Z" fill="#BCBCBC"/>
<path d="M915.5 148.1H912.6V151H915.5V148.1Z" fill="#BCBCBC"/>
<path d="M915.5 202.6H912.6V205.5H915.5V202.6Z" fill="#BCBCBC"/>
<path d="M915.5 257.2H912.6V260.1H915.5V257.2Z" fill="#BCBCBC"/>
<path d="M915.5 311.7H912.6V314.6H915.5V311.7Z" fill="#BCBCBC"/>
<path d="M915.5 366.2H912.6V369.1H915.5V366.2Z" fill="#BCBCBC"/>
<path d="M915.5 420.8H912.6V423.7H915.5V420.8Z" fill="#BCBCBC"/>
<path d="M915.5 475.3H912.6V478.2H915.5V475.3Z" fill="#BCBCBC"/>
<path d="M915.5 529.8H912.6V532.7H915.5V529.8Z" fill="#BCBCBC"/>
<path d="M915.5 584.4H912.6V587.3H915.5V584.4Z" fill="#BCBCBC"/>
<path d="M915.5 638.9H912.6V641.8H915.5V638.9Z" fill="#BCBCBC"/>
<path d="M961.8 39H958.9V41.9H961.8V39Z" fill="#BCBCBC"/>
<path d="M961.8 93.5H958.9V96.4H961.8V93.5Z" fill="#BCBCBC"/>
<path d="M961.8 148.1H958.9V151H961.8V148.1Z" fill="#BCBCBC"/>
<path d="M961.8 202.6H958.9V205.5H961.8V202.6Z" fill="#BCBCBC"/>
<path d="M961.8 257.2H958.9V260.1H961.8V257.2Z" fill="#BCBCBC"/>
<path d="M961.8 311.7H958.9V314.6H961.8V311.7Z" fill="#BCBCBC"/>
<path d="M961.8 366.2H958.9V369.1H961.8V366.2Z" fill="#BCBCBC"/>
<path d="M961.8 420.8H958.9V423.7H961.8V420.8Z" fill="#BCBCBC"/>
<path d="M961.8 475.3H958.9V478.2H961.8V475.3Z" fill="#BCBCBC"/>
<path d="M961.8 529.8H958.9V532.7H961.8V529.8Z" fill="#BCBCBC"/>
<path d="M961.8 584.4H958.9V587.3H961.8V584.4Z" fill="#BCBCBC"/>
<path d="M961.8 638.9H958.9V641.8H961.8V638.9Z" fill="#BCBCBC"/>
<path d="M1008.1 39H1005.2V41.9H1008.1V39Z" fill="#BCBCBC"/>
<path d="M1008.1 93.5H1005.2V96.4H1008.1V93.5Z" fill="#BCBCBC"/>
<path d="M1008.1 148.1H1005.2V151H1008.1V148.1Z" fill="#BCBCBC"/>
<path d="M1008.1 202.6H1005.2V205.5H1008.1V202.6Z" fill="#BCBCBC"/>
<path d="M1008.1 257.2H1005.2V260.1H1008.1V257.2Z" fill="#BCBCBC"/>
<path d="M1008.1 311.7H1005.2V314.6H1008.1V311.7Z" fill="#BCBCBC"/>
<path d="M1008.1 366.2H1005.2V369.1H1008.1V366.2Z" fill="#BCBCBC"/>
<path d="M1008.1 420.8H1005.2V423.7H1008.1V420.8Z" fill="#BCBCBC"/>
<path d="M1008.1 475.3H1005.2V478.2H1008.1V475.3Z" fill="#BCBCBC"/>
<path d="M1008.1 529.8H1005.2V532.7H1008.1V529.8Z" fill="#BCBCBC"/>
<path d="M1008.1 584.4H1005.2V587.3H1008.1V584.4Z" fill="#BCBCBC"/>
<path d="M1008.1 638.9H1005.2V641.8H1008.1V638.9Z" fill="#BCBCBC"/>
<path d="M1054.4 39H1051.5V41.9H1054.4V39Z" fill="#BCBCBC"/>
<path d="M1054.4 93.5H1051.5V96.4H1054.4V93.5Z" fill="#BCBCBC"/>
<path d="M1054.4 148.1H1051.5V151H1054.4V148.1Z" fill="#BCBCBC"/>
<path d="M1054.4 202.6H1051.5V205.5H1054.4V202.6Z" fill="#BCBCBC"/>
<path d="M1054.4 257.2H1051.5V260.1H1054.4V257.2Z" fill="#BCBCBC"/>
<path d="M1054.4 311.7H1051.5V314.6H1054.4V311.7Z" fill="#BCBCBC"/>
<path d="M1054.4 366.2H1051.5V369.1H1054.4V366.2Z" fill="#BCBCBC"/>
<path d="M1054.4 420.8H1051.5V423.7H1054.4V420.8Z" fill="#BCBCBC"/>
<path d="M1054.4 475.3H1051.5V478.2H1054.4V475.3Z" fill="#BCBCBC"/>
<path d="M1054.4 529.8H1051.5V532.7H1054.4V529.8Z" fill="#BCBCBC"/>
<path d="M1054.4 584.4H1051.5V587.3H1054.4V584.4Z" fill="#BCBCBC"/>
<path d="M1054.4 638.9H1051.5V641.8H1054.4V638.9Z" fill="#BCBCBC"/>
<path d="M1100.7 39H1097.8V41.9H1100.7V39Z" fill="#BCBCBC"/>
<path d="M1100.7 93.5H1097.8V96.4H1100.7V93.5Z" fill="#BCBCBC"/>
<path d="M1100.7 148.1H1097.8V151H1100.7V148.1Z" fill="#BCBCBC"/>
<path d="M1100.7 202.6H1097.8V205.5H1100.7V202.6Z" fill="#BCBCBC"/>
<path d="M1100.7 257.2H1097.8V260.1H1100.7V257.2Z" fill="#BCBCBC"/>
<path d="M1100.7 311.7H1097.8V314.6H1100.7V311.7Z" fill="#BCBCBC"/>
<path d="M1100.7 366.2H1097.8V369.1H1100.7V366.2Z" fill="#BCBCBC"/>
<path d="M1100.7 420.8H1097.8V423.7H1100.7V420.8Z" fill="#BCBCBC"/>
<path d="M1100.7 475.3H1097.8V478.2H1100.7V475.3Z" fill="#BCBCBC"/>
<path d="M1100.7 529.8H1097.8V532.7H1100.7V529.8Z" fill="#BCBCBC"/>
<path d="M1100.7 584.4H1097.8V587.3H1100.7V584.4Z" fill="#BCBCBC"/>
<path d="M1100.7 638.9H1097.8V641.8H1100.7V638.9Z" fill="#BCBCBC"/>
<path d="M1147 39H1144.1V41.9H1147V39Z" fill="#BCBCBC"/>
<path d="M1147 93.5H1144.1V96.4H1147V93.5Z" fill="#BCBCBC"/>
<path d="M1147 148.1H1144.1V151H1147V148.1Z" fill="#BCBCBC"/>
<path d="M1147 202.6H1144.1V205.5H1147V202.6Z" fill="#BCBCBC"/>
<path d="M1147 257.2H1144.1V260.1H1147V257.2Z" fill="#BCBCBC"/>
<path d="M1147 311.7H1144.1V314.6H1147V311.7Z" fill="#BCBCBC"/>
<path d="M1147 366.2H1144.1V369.1H1147V366.2Z" fill="#BCBCBC"/>
<path d="M1147 420.8H1144.1V423.7H1147V420.8Z" fill="#BCBCBC"/>
<path d="M1147 475.3H1144.1V478.2H1147V475.3Z" fill="#BCBCBC"/>
<path d="M1147 529.8H1144.1V532.7H1147V529.8Z" fill="#BCBCBC"/>
<path d="M1147 584.4H1144.1V587.3H1147V584.4Z" fill="#BCBCBC"/>
<path d="M1147 638.9H1144.1V641.8H1147V638.9Z" fill="#BCBCBC"/>
<path d="M1193.2 39H1190.3V41.9H1193.2V39Z" fill="#BCBCBC"/>
<path d="M1193.2 93.5H1190.3V96.4H1193.2V93.5Z" fill="#BCBCBC"/>
<path d="M1193.2 148.1H1190.3V151H1193.2V148.1Z" fill="#BCBCBC"/>
<path d="M1193.2 202.6H1190.3V205.5H1193.2V202.6Z" fill="#BCBCBC"/>
<path d="M1193.2 257.2H1190.3V260.1H1193.2V257.2Z" fill="#BCBCBC"/>
<path d="M1193.2 311.7H1190.3V314.6H1193.2V311.7Z" fill="#BCBCBC"/>
<path d="M1193.2 366.2H1190.3V369.1H1193.2V366.2Z" fill="#BCBCBC"/>
<path d="M1193.2 420.8H1190.3V423.7H1193.2V420.8Z" fill="#BCBCBC"/>
<path d="M1193.2 475.3H1190.3V478.2H1193.2V475.3Z" fill="#BCBCBC"/>
<path d="M1193.2 529.8H1190.3V532.7H1193.2V529.8Z" fill="#BCBCBC"/>
<path d="M1193.2 584.4H1190.3V587.3H1193.2V584.4Z" fill="#BCBCBC"/>
<path d="M1193.2 638.9H1190.3V641.8H1193.2V638.9Z" fill="#BCBCBC"/>
<path d="M1239.5 39H1236.6V41.9H1239.5V39Z" fill="#BCBCBC"/>
<path d="M1239.5 93.5H1236.6V96.4H1239.5V93.5Z" fill="#BCBCBC"/>
<path d="M1239.5 148.1H1236.6V151H1239.5V148.1Z" fill="#BCBCBC"/>
<path d="M1239.5 202.6H1236.6V205.5H1239.5V202.6Z" fill="#BCBCBC"/>
<path d="M1239.5 257.2H1236.6V260.1H1239.5V257.2Z" fill="#BCBCBC"/>
<path d="M1239.5 311.7H1236.6V314.6H1239.5V311.7Z" fill="#BCBCBC"/>
<path d="M1239.5 366.2H1236.6V369.1H1239.5V366.2Z" fill="#BCBCBC"/>
<path d="M1239.5 420.8H1236.6V423.7H1239.5V420.8Z" fill="#BCBCBC"/>
<path d="M1239.5 475.3H1236.6V478.2H1239.5V475.3Z" fill="#BCBCBC"/>
<path d="M1239.5 529.8H1236.6V532.7H1239.5V529.8Z" fill="#BCBCBC"/>
<path d="M1239.5 584.4H1236.6V587.3H1239.5V584.4Z" fill="#BCBCBC"/>
<path d="M1239.5 638.9H1236.6V641.8H1239.5V638.9Z" fill="#BCBCBC"/>
<path d="M1285.8 39H1282.9V41.9H1285.8V39Z" fill="#BCBCBC"/>
<path d="M1285.8 93.5H1282.9V96.4H1285.8V93.5Z" fill="#BCBCBC"/>
<path d="M1285.8 148.1H1282.9V151H1285.8V148.1Z" fill="#BCBCBC"/>
<path d="M1285.8 202.6H1282.9V205.5H1285.8V202.6Z" fill="#BCBCBC"/>
<path d="M1285.8 257.2H1282.9V260.1H1285.8V257.2Z" fill="#BCBCBC"/>
<path d="M1285.8 311.7H1282.9V314.6H1285.8V311.7Z" fill="#BCBCBC"/>
<path d="M1285.8 366.2H1282.9V369.1H1285.8V366.2Z" fill="#BCBCBC"/>
<path d="M1285.8 420.8H1282.9V423.7H1285.8V420.8Z" fill="#BCBCBC"/>
<path d="M1285.8 475.3H1282.9V478.2H1285.8V475.3Z" fill="#BCBCBC"/>
<path d="M1285.8 529.8H1282.9V532.7H1285.8V529.8Z" fill="#BCBCBC"/>
<path d="M1285.8 584.4H1282.9V587.3H1285.8V584.4Z" fill="#BCBCBC"/>
<path d="M1285.8 638.9H1282.9V641.8H1285.8V638.9Z" fill="#BCBCBC"/>
<path d="M1332.1 39H1329.2V41.9H1332.1V39Z" fill="#BCBCBC"/>
<path d="M1332.1 93.5H1329.2V96.4H1332.1V93.5Z" fill="#BCBCBC"/>
<path d="M1332.1 148.1H1329.2V151H1332.1V148.1Z" fill="#BCBCBC"/>
<path d="M1332.1 202.6H1329.2V205.5H1332.1V202.6Z" fill="#BCBCBC"/>
<path d="M1332.1 257.2H1329.2V260.1H1332.1V257.2Z" fill="#BCBCBC"/>
<path d="M1332.1 311.7H1329.2V314.6H1332.1V311.7Z" fill="#BCBCBC"/>
<path d="M1332.1 366.2H1329.2V369.1H1332.1V366.2Z" fill="#BCBCBC"/>
<path d="M1332.1 420.8H1329.2V423.7H1332.1V420.8Z" fill="#BCBCBC"/>
<path d="M1332.1 475.3H1329.2V478.2H1332.1V475.3Z" fill="#BCBCBC"/>
<path d="M1332.1 529.8H1329.2V532.7H1332.1V529.8Z" fill="#BCBCBC"/>
<path d="M1332.1 584.4H1329.2V587.3H1332.1V584.4Z" fill="#BCBCBC"/>
<path d="M1332.1 638.9H1329.2V641.8H1332.1V638.9Z" fill="#BCBCBC"/>
<path d="M1378.4 39H1375.5V41.9H1378.4V39Z" fill="#BCBCBC"/>
<path d="M1378.4 93.5H1375.5V96.4H1378.4V93.5Z" fill="#BCBCBC"/>
<path d="M1378.4 148.1H1375.5V151H1378.4V148.1Z" fill="#BCBCBC"/>
<path d="M1378.4 202.6H1375.5V205.5H1378.4V202.6Z" fill="#BCBCBC"/>
<path d="M1378.4 257.2H1375.5V260.1H1378.4V257.2Z" fill="#BCBCBC"/>
<path d="M1378.4 311.7H1375.5V314.6H1378.4V311.7Z" fill="#BCBCBC"/>
<path d="M1378.4 366.2H1375.5V369.1H1378.4V366.2Z" fill="#BCBCBC"/>
<path d="M1378.4 420.8H1375.5V423.7H1378.4V420.8Z" fill="#BCBCBC"/>
<path d="M1378.4 475.3H1375.5V478.2H1378.4V475.3Z" fill="#BCBCBC"/>
<path d="M1378.4 529.8H1375.5V532.7H1378.4V529.8Z" fill="#BCBCBC"/>
<path d="M1378.4 584.4H1375.5V587.3H1378.4V584.4Z" fill="#BCBCBC"/>
<path d="M1378.4 638.9H1375.5V641.8H1378.4V638.9Z" fill="#BCBCBC"/>
<path d="M1424.7 39H1421.8V41.9H1424.7V39Z" fill="#BCBCBC"/>
<path d="M1424.7 93.5H1421.8V96.4H1424.7V93.5Z" fill="#BCBCBC"/>
<path d="M1424.7 148.1H1421.8V151H1424.7V148.1Z" fill="#BCBCBC"/>
<path d="M1424.7 202.6H1421.8V205.5H1424.7V202.6Z" fill="#BCBCBC"/>
<path d="M1424.7 257.2H1421.8V260.1H1424.7V257.2Z" fill="#BCBCBC"/>
<path d="M1424.7 311.7H1421.8V314.6H1424.7V311.7Z" fill="#BCBCBC"/>
<path d="M1424.7 366.2H1421.8V369.1H1424.7V366.2Z" fill="#BCBCBC"/>
<path d="M1424.7 420.8H1421.8V423.7H1424.7V420.8Z" fill="#BCBCBC"/>
<path d="M1424.7 475.3H1421.8V478.2H1424.7V475.3Z" fill="#BCBCBC"/>
<path d="M1424.7 529.8H1421.8V532.7H1424.7V529.8Z" fill="#BCBCBC"/>
<path d="M1424.7 584.4H1421.8V587.3H1424.7V584.4Z" fill="#BCBCBC"/>
<path d="M1424.7 638.9H1421.8V641.8H1424.7V638.9Z" fill="#BCBCBC"/>
<path d="M1471 39H1468.1V41.9H1471V39Z" fill="#BCBCBC"/>
<path d="M1471 93.5H1468.1V96.4H1471V93.5Z" fill="#BCBCBC"/>
<path d="M1471 148.1H1468.1V151H1471V148.1Z" fill="#BCBCBC"/>
<path d="M1471 202.6H1468.1V205.5H1471V202.6Z" fill="#BCBCBC"/>
<path d="M1471 257.2H1468.1V260.1H1471V257.2Z" fill="#BCBCBC"/>
<path d="M1471 311.7H1468.1V314.6H1471V311.7Z" fill="#BCBCBC"/>
<path d="M1471 366.2H1468.1V369.1H1471V366.2Z" fill="#BCBCBC"/>
<path d="M1471 420.8H1468.1V423.7H1471V420.8Z" fill="#BCBCBC"/>
<path d="M1471 475.3H1468.1V478.2H1471V475.3Z" fill="#BCBCBC"/>
<path d="M1471 529.8H1468.1V532.7H1471V529.8Z" fill="#BCBCBC"/>
<path d="M1471 584.4H1468.1V587.3H1471V584.4Z" fill="#BCBCBC"/>
<path d="M1471 638.9H1468.1V641.8H1471V638.9Z" fill="#BCBCBC"/>
<path d="M1517.3 39H1514.4V41.9H1517.3V39Z" fill="#BCBCBC"/>
<path d="M1517.3 93.5H1514.4V96.4H1517.3V93.5Z" fill="#BCBCBC"/>
<path d="M1517.3 148.1H1514.4V151H1517.3V148.1Z" fill="#BCBCBC"/>
<path d="M1517.3 202.6H1514.4V205.5H1517.3V202.6Z" fill="#BCBCBC"/>
<path d="M1517.3 257.2H1514.4V260.1H1517.3V257.2Z" fill="#BCBCBC"/>
<path d="M1517.3 311.7H1514.4V314.6H1517.3V311.7Z" fill="#BCBCBC"/>
<path d="M1517.3 366.2H1514.4V369.1H1517.3V366.2Z" fill="#BCBCBC"/>
<path d="M1517.3 420.8H1514.4V423.7H1517.3V420.8Z" fill="#BCBCBC"/>
<path d="M1517.3 475.3H1514.4V478.2H1517.3V475.3Z" fill="#BCBCBC"/>
<path d="M1517.3 529.8H1514.4V532.7H1517.3V529.8Z" fill="#BCBCBC"/>
<path d="M1517.3 584.4H1514.4V587.3H1517.3V584.4Z" fill="#BCBCBC"/>
<path d="M1517.3 638.9H1514.4V641.8H1517.3V638.9Z" fill="#BCBCBC"/>
<path d="M1563.6 39H1560.7V41.9H1563.6V39Z" fill="#BCBCBC"/>
<path d="M1563.6 93.5H1560.7V96.4H1563.6V93.5Z" fill="#BCBCBC"/>
<path d="M1563.6 148.1H1560.7V151H1563.6V148.1Z" fill="#BCBCBC"/>
<path d="M1563.6 202.6H1560.7V205.5H1563.6V202.6Z" fill="#BCBCBC"/>
<path d="M1563.6 257.2H1560.7V260.1H1563.6V257.2Z" fill="#BCBCBC"/>
<path d="M1563.6 311.7H1560.7V314.6H1563.6V311.7Z" fill="#BCBCBC"/>
<path d="M1563.6 366.2H1560.7V369.1H1563.6V366.2Z" fill="#BCBCBC"/>
<path d="M1563.6 420.8H1560.7V423.7H1563.6V420.8Z" fill="#BCBCBC"/>
<path d="M1563.6 475.3H1560.7V478.2H1563.6V475.3Z" fill="#BCBCBC"/>
<path d="M1563.6 529.8H1560.7V532.7H1563.6V529.8Z" fill="#BCBCBC"/>
<path d="M1563.6 584.4H1560.7V587.3H1563.6V584.4Z" fill="#BCBCBC"/>
<path d="M1563.6 638.9H1560.7V641.8H1563.6V638.9Z" fill="#BCBCBC"/>
<path d="M1609.9 39H1607V41.9H1609.9V39Z" fill="#BCBCBC"/>
<path d="M1609.9 93.5H1607V96.4H1609.9V93.5Z" fill="#BCBCBC"/>
<path d="M1609.9 148.1H1607V151H1609.9V148.1Z" fill="#BCBCBC"/>
<path d="M1609.9 202.6H1607V205.5H1609.9V202.6Z" fill="#BCBCBC"/>
<path d="M1609.9 257.2H1607V260.1H1609.9V257.2Z" fill="#BCBCBC"/>
<path d="M1609.9 311.7H1607V314.6H1609.9V311.7Z" fill="#BCBCBC"/>
<path d="M1609.9 366.2H1607V369.1H1609.9V366.2Z" fill="#BCBCBC"/>
<path d="M1609.9 420.8H1607V423.7H1609.9V420.8Z" fill="#BCBCBC"/>
<path d="M1609.9 475.3H1607V478.2H1609.9V475.3Z" fill="#BCBCBC"/>
<path d="M1609.9 529.8H1607V532.7H1609.9V529.8Z" fill="#BCBCBC"/>
<path d="M1609.9 584.4H1607V587.3H1609.9V584.4Z" fill="#BCBCBC"/>
<path d="M1609.9 638.9H1607V641.8H1609.9V638.9Z" fill="#BCBCBC"/>
<path d="M1656.2 39H1653.3V41.9H1656.2V39Z" fill="#BCBCBC"/>
<path d="M1656.2 93.5H1653.3V96.4H1656.2V93.5Z" fill="#BCBCBC"/>
<path d="M1656.2 148.1H1653.3V151H1656.2V148.1Z" fill="#BCBCBC"/>
<path d="M1656.2 202.6H1653.3V205.5H1656.2V202.6Z" fill="#BCBCBC"/>
<path d="M1656.2 257.2H1653.3V260.1H1656.2V257.2Z" fill="#BCBCBC"/>
<path d="M1656.2 311.7H1653.3V314.6H1656.2V311.7Z" fill="#BCBCBC"/>
<path d="M1656.2 366.2H1653.3V369.1H1656.2V366.2Z" fill="#BCBCBC"/>
<path d="M1656.2 420.8H1653.3V423.7H1656.2V420.8Z" fill="#BCBCBC"/>
<path d="M1656.2 475.3H1653.3V478.2H1656.2V475.3Z" fill="#BCBCBC"/>
<path d="M1656.2 529.8H1653.3V532.7H1656.2V529.8Z" fill="#BCBCBC"/>
<path d="M1656.2 584.4H1653.3V587.3H1656.2V584.4Z" fill="#BCBCBC"/>
<path d="M1656.2 638.9H1653.3V641.8H1656.2V638.9Z" fill="#BCBCBC"/>
<path d="M1702.5 39H1699.6V41.9H1702.5V39Z" fill="#BCBCBC"/>
<path d="M1702.5 93.5H1699.6V96.4H1702.5V93.5Z" fill="#BCBCBC"/>
<path d="M1702.5 148.1H1699.6V151H1702.5V148.1Z" fill="#BCBCBC"/>
<path d="M1702.5 202.6H1699.6V205.5H1702.5V202.6Z" fill="#BCBCBC"/>
<path d="M1702.5 257.2H1699.6V260.1H1702.5V257.2Z" fill="#BCBCBC"/>
<path d="M1702.5 311.7H1699.6V314.6H1702.5V311.7Z" fill="#BCBCBC"/>
<path d="M1702.5 366.2H1699.6V369.1H1702.5V366.2Z" fill="#BCBCBC"/>
<path d="M1702.5 420.8H1699.6V423.7H1702.5V420.8Z" fill="#BCBCBC"/>
<path d="M1702.5 475.3H1699.6V478.2H1702.5V475.3Z" fill="#BCBCBC"/>
<path d="M1702.5 529.8H1699.6V532.7H1702.5V529.8Z" fill="#BCBCBC"/>
<path d="M1702.5 584.4H1699.6V587.3H1702.5V584.4Z" fill="#BCBCBC"/>
<path d="M1702.5 638.9H1699.6V641.8H1702.5V638.9Z" fill="#BCBCBC"/>
<path d="M1748.8 39H1745.9V41.9H1748.8V39Z" fill="#BCBCBC"/>
<path d="M1748.8 93.5H1745.9V96.4H1748.8V93.5Z" fill="#BCBCBC"/>
<path d="M1748.8 148.1H1745.9V151H1748.8V148.1Z" fill="#BCBCBC"/>
<path d="M1748.8 202.6H1745.9V205.5H1748.8V202.6Z" fill="#BCBCBC"/>
<path d="M1748.8 257.2H1745.9V260.1H1748.8V257.2Z" fill="#BCBCBC"/>
<path d="M1748.8 311.7H1745.9V314.6H1748.8V311.7Z" fill="#BCBCBC"/>
<path d="M1748.8 366.2H1745.9V369.1H1748.8V366.2Z" fill="#BCBCBC"/>
<path d="M1748.8 420.8H1745.9V423.7H1748.8V420.8Z" fill="#BCBCBC"/>
<path d="M1748.8 475.3H1745.9V478.2H1748.8V475.3Z" fill="#BCBCBC"/>
<path d="M1748.8 529.8H1745.9V532.7H1748.8V529.8Z" fill="#BCBCBC"/>
<path d="M1748.8 584.4H1745.9V587.3H1748.8V584.4Z" fill="#BCBCBC"/>
<path d="M1748.8 638.9H1745.9V641.8H1748.8V638.9Z" fill="#BCBCBC"/>
<path d="M1795.1 39H1792.2V41.9H1795.1V39Z" fill="#BCBCBC"/>
<path d="M1795.1 93.5H1792.2V96.4H1795.1V93.5Z" fill="#BCBCBC"/>
<path d="M1795.1 148.1H1792.2V151H1795.1V148.1Z" fill="#BCBCBC"/>
<path d="M1795.1 202.6H1792.2V205.5H1795.1V202.6Z" fill="#BCBCBC"/>
<path d="M1795.1 257.2H1792.2V260.1H1795.1V257.2Z" fill="#BCBCBC"/>
<path d="M1795.1 311.7H1792.2V314.6H1795.1V311.7Z" fill="#BCBCBC"/>
<path d="M1795.1 366.2H1792.2V369.1H1795.1V366.2Z" fill="#BCBCBC"/>
<path d="M1795.1 420.8H1792.2V423.7H1795.1V420.8Z" fill="#BCBCBC"/>
<path d="M1795.1 475.3H1792.2V478.2H1795.1V475.3Z" fill="#BCBCBC"/>
<path d="M1795.1 529.8H1792.2V532.7H1795.1V529.8Z" fill="#BCBCBC"/>
<path d="M1795.1 584.4H1792.2V587.3H1795.1V584.4Z" fill="#BCBCBC"/>
<path d="M1795.1 638.9H1792.2V641.8H1795.1V638.9Z" fill="#BCBCBC"/>
<path d="M1841.4 39H1838.5V41.9H1841.4V39Z" fill="#BCBCBC"/>
<path d="M1841.4 93.5H1838.5V96.4H1841.4V93.5Z" fill="#BCBCBC"/>
<path d="M1841.4 148.1H1838.5V151H1841.4V148.1Z" fill="#BCBCBC"/>
<path d="M1841.4 202.6H1838.5V205.5H1841.4V202.6Z" fill="#BCBCBC"/>
<path d="M1841.4 257.2H1838.5V260.1H1841.4V257.2Z" fill="#BCBCBC"/>
<path d="M1841.4 311.7H1838.5V314.6H1841.4V311.7Z" fill="#BCBCBC"/>
<path d="M1841.4 366.2H1838.5V369.1H1841.4V366.2Z" fill="#BCBCBC"/>
<path d="M1841.4 420.8H1838.5V423.7H1841.4V420.8Z" fill="#BCBCBC"/>
<path d="M1841.4 475.3H1838.5V478.2H1841.4V475.3Z" fill="#BCBCBC"/>
<path d="M1841.4 529.8H1838.5V532.7H1841.4V529.8Z" fill="#BCBCBC"/>
<path d="M1841.4 584.4H1838.5V587.3H1841.4V584.4Z" fill="#BCBCBC"/>
<path d="M1841.4 638.9H1838.5V641.8H1841.4V638.9Z" fill="#BCBCBC"/>
<path d="M1887.7 39H1884.8V41.9H1887.7V39Z" fill="#BCBCBC"/>
<path d="M1887.7 93.5H1884.8V96.4H1887.7V93.5Z" fill="#BCBCBC"/>
<path d="M1887.7 148.1H1884.8V151H1887.7V148.1Z" fill="#BCBCBC"/>
<path d="M1887.7 202.6H1884.8V205.5H1887.7V202.6Z" fill="#BCBCBC"/>
<path d="M1887.7 257.2H1884.8V260.1H1887.7V257.2Z" fill="#BCBCBC"/>
<path d="M1887.7 311.7H1884.8V314.6H1887.7V311.7Z" fill="#BCBCBC"/>
<path d="M1887.7 366.2H1884.8V369.1H1887.7V366.2Z" fill="#BCBCBC"/>
<path d="M1887.7 420.8H1884.8V423.7H1887.7V420.8Z" fill="#BCBCBC"/>
<path d="M1887.7 475.3H1884.8V478.2H1887.7V475.3Z" fill="#BCBCBC"/>
<path d="M1887.7 529.8H1884.8V532.7H1887.7V529.8Z" fill="#BCBCBC"/>
<path d="M1887.7 584.4H1884.8V587.3H1887.7V584.4Z" fill="#BCBCBC"/>
<path d="M1887.7 638.9H1884.8V641.8H1887.7V638.9Z" fill="#BCBCBC"/>
</g>
</mask>
<g mask="url(#mask0)">
<rect y="2" width="1920" height="269" fill="#B8DED1"/>
</g>
<defs>
<clipPath id="clip0">
<rect width="1854.7" height="602.8" fill="white" transform="translate(33 39)"/>
</clipPath>
</defs>
</svg>
