<svg width="186" height="48" viewBox="0 0 186 48" fill="none" xmlns="http://www.w3.org/2000/svg">
<rect x="3" y="3" width="180" height="36" fill="#D9D9D9"/>
<rect y="6" width="3" height="30" fill="#B4B4B4"/>
<rect x="186" y="36" width="3" height="30" transform="rotate(-180 186 36)" fill="#B4B4B4"/>
<rect x="180" width="3" height="174" transform="rotate(90 180 0)" fill="#B4B4B4"/>
<rect x="180" y="39" width="3" height="174" transform="rotate(90 180 39)" fill="#B4B4B4"/>
<rect x="3" y="3" width="3" height="3" fill="#B4B4B4"/>
<rect x="3" y="36" width="3" height="3" fill="#B4B4B4"/>
<rect x="183" y="6" width="3" height="3" transform="rotate(-180 183 6)" fill="#B4B4B4"/>
<rect x="183" y="39" width="3" height="3" transform="rotate(-180 183 39)" fill="#B4B4B4"/>
<rect y="36" width="3" height="6" fill="#B4B4B4"/>
<rect x="183" y="36" width="3" height="6" fill="#B4B4B4"/>
<rect x="3" y="39" width="3" height="6" fill="#B4B4B4"/>
<rect x="180" y="39" width="3" height="6" fill="#B4B4B4"/>
<rect x="6" y="42" width="174" height="6" fill="#B4B4B4"/>
</svg>
