<svg width="60" height="60" viewBox="0 0 60 60" fill="none" xmlns="http://www.w3.org/2000/svg">
<g clip-path="url(#clip0)">
<path d="M15.5772 54.9814C29.3741 62.9471 47.0162 58.2199 54.9818 44.423C62.9475 30.6261 58.2203 12.9841 44.4234 5.01842C30.6265 -2.94723 12.9845 1.77994 5.01882 15.5768C-2.94683 29.3737 1.78034 47.0158 15.5772 54.9814Z" fill="white" fill-opacity="0.7" stroke="#14AF64" stroke-miterlimit="10"/>
<path d="M45.5913 30.3412C45.6872 24.8674 42.8847 19.4522 37.7885 16.5099C32.6923 13.5676 26.6013 13.8482 21.9088 16.6682" stroke="#14AF64" stroke-miterlimit="10"/>
<path d="M14.4087 29.6586C14.3128 35.1324 17.1152 40.5476 22.2115 43.4899C27.3077 46.4322 33.3986 46.1517 38.0912 43.3316" stroke="#14AF64" stroke-miterlimit="10"/>
<path d="M49.6998 22.1874L49.5541 21.1706L48.7047 20.6803L49.6082 20.2692L49.8487 19.2756L50.525 20.0658L51.5418 19.9201L50.9726 20.7905L51.4336 21.7229L50.44 21.4823L49.6998 22.1874Z" fill="#14AF64"/>
<path d="M46.282 16.6836L45.9786 15.709L45.0139 15.4185L45.8252 14.821L45.8082 13.8119L46.6498 14.4311L47.5744 14.0989L47.2839 15.0636L47.8814 15.8749L46.8223 15.863L46.282 16.6836Z" fill="#14AF64"/>
<path d="M41.3209 12.3536L40.8023 11.5212L39.7721 11.4594L40.4412 10.6466L40.1878 9.70085L41.1237 10.0413L42.0061 9.55151L41.8943 10.5528L42.6571 11.1931L41.6614 11.4177L41.3209 12.3536Z" fill="#14AF64"/>
<path d="M35.573 9.50135L34.6736 8.98212L33.7702 9.39314L34.0107 8.39954L33.3056 7.65934L34.2935 7.56356L34.8128 6.66422L35.1949 7.61766L36.2174 7.80827L35.4272 8.48456L35.573 9.50135Z" fill="#14AF64"/>
<path d="M29.021 8.84973L28.0562 8.5592L27.2661 9.23549L27.1991 8.19759L26.3498 7.7072L27.3032 7.32503L27.5438 6.33142L28.1413 7.1427L29.208 7.0258L28.6388 7.89629L29.021 8.84973Z" fill="#14AF64"/>
<path d="M33.084 50.9663L32.1306 51.3484L31.2812 50.858L31.377 51.846L30.6368 52.5511L31.6592 52.7417L32.0414 53.6952L32.5107 52.767L33.5486 52.7001L32.8435 51.9599L33.084 50.9663Z" fill="#14AF64"/>
<path d="M26.6091 50.7584L25.6134 50.983L24.8794 50.2927L24.7676 51.2941L23.8853 51.7839L24.8423 52.2032L25.0169 53.17L25.7071 52.436L26.7084 52.5478L26.1687 51.6366L26.6091 50.7584Z" fill="#14AF64"/>
<path d="M20.3784 48.6269L19.3982 48.5939L18.8295 47.7326L18.4602 48.7185L17.5145 48.9719L18.2773 49.6122L18.2943 50.6212L19.1056 50.0238L20.0415 50.3643L19.7381 49.3897L20.3784 48.6269Z" fill="#14AF64"/>
<path d="M15.0342 45.0751L14.1349 44.5559L14.0391 43.568L13.2989 44.2731L12.3053 44.0325L12.7163 44.936L12.1971 45.8353L13.2139 45.6896L13.8902 46.4798L14.0808 45.4573L15.0342 45.0751Z" fill="#14AF64"/>
<path d="M11.1941 39.727L10.4602 39.0368L10.6508 38.0143L9.71844 38.4753L8.86907 37.9849L9.01481 39.0017L8.27461 39.7068L9.27595 39.8186L9.70808 40.8009L10.1774 39.8728L11.1941 39.727Z" fill="#14AF64"/>
<path d="M18.8569 28.7625C20.1059 29.4837 20.4578 29.2204 21.6461 27.5083C21.8305 27.8812 22.2436 28.3196 22.4857 28.5926C20.9955 30.5968 20.2496 30.9656 18.2511 29.8117L14.1541 27.4463C12.1556 26.2925 11.708 25.5677 12.6311 23.9689L15.833 18.423L16.9322 19.0577L15.9226 20.8064L21.5684 24.066L23.1838 21.268L15.9392 17.0854L16.5449 16.0361L24.9387 20.8823L21.7945 26.3283L20.6953 25.6936L21.0126 25.144L15.3668 21.8844L13.7514 24.6824C13.3475 25.3818 13.5108 25.676 14.7599 26.3971L18.8569 28.7625Z" fill="#14AF64"/>
<path d="M27.406 34.0316C27.1752 34.4313 26.9522 34.7022 26.6158 34.7079C26.2795 34.7135 25.9009 34.5616 25.3513 34.2443C25.4955 33.9945 25.5764 33.5082 25.6207 33.2007L25.4188 33.5505L24.6693 33.1178L25.852 31.0693L24.9027 30.5212C24.2547 31.4128 23.428 32.2678 22.4668 32.7788C22.4035 32.5424 22.148 32.0618 21.9559 31.8176C23.4476 31.08 24.4783 29.4101 25.2283 28.1111L26.3245 26.2125L26.138 26.3047C26.0747 26.0683 25.8769 25.4878 25.7136 25.1936C27.0034 24.8058 28.3818 23.803 29.5392 22.6059L30.3731 23.3539C30.1001 23.5959 29.9059 23.8169 29.6329 24.059L31.0819 24.8955L31.2606 24.9321L31.6794 25.7068C31.191 26.0911 30.6739 26.5253 30.1645 26.8307L31.2636 27.4653L27.4559 34.0604L27.406 34.0316ZM28.7928 24.7064C28.441 24.9696 28.0892 25.2329 27.6874 25.4672L29.0864 26.2749C29.4094 26.0617 29.79 25.7485 30.1418 25.4853L28.7928 24.7064ZM26.2636 30.241L27.0424 28.892L26.1931 28.4016L26.0777 28.6015C25.8758 28.9512 25.645 29.3509 25.3643 29.7218L26.2636 30.241ZM26.6546 27.6022L27.504 28.0926L28.1963 26.8935L27.3469 26.4031L26.6546 27.6022ZM29.1028 29.0157L29.7951 27.8166L28.9457 27.3262L28.2534 28.5253L29.1028 29.0157ZM27.7919 29.3247L27.013 30.6737L27.8624 31.1641L28.6413 29.8151L27.7919 29.3247ZM25.5707 33.1719C25.9205 33.3738 26.1703 33.518 26.2702 33.5757C26.3702 33.6334 26.449 33.6123 26.5067 33.5124L27.372 32.0135L26.5227 31.5231L25.5707 33.1719ZM34.8193 27.6529C33.8406 28.8865 32.7352 29.6473 30.9612 29.4891C30.9767 29.2316 30.9288 28.7376 30.7944 28.3935C32.232 28.5573 33.0932 27.9887 33.82 27.076L32.3711 26.2394L32.8903 25.3401L37.8367 28.1959C37.8367 28.1959 37.6924 28.4457 37.6348 28.5456C36.5175 30.3654 35.956 31.1071 35.562 31.2127C35.2967 31.326 35.0392 31.3106 34.7394 31.1375C34.4607 31.0432 34.0111 30.7836 33.5403 30.4452C33.7133 30.1454 33.8153 29.738 33.8097 29.4016C34.2305 29.7112 34.5802 29.9131 34.7301 29.9996C34.88 30.0862 34.98 30.1439 35.0876 30.0728C35.324 30.0094 35.6336 29.5886 36.3759 28.4184L34.877 27.553L34.8193 27.6529ZM33.5499 36.3131L31.6513 35.2169L30.4398 37.3154L29.4405 36.7384L30.6521 34.64L28.4037 33.3419L28.9518 32.3926L31.2001 33.6907L31.9213 32.4416L30.7222 31.7493C30.3415 32.0625 29.9398 32.2968 29.5957 32.4313C29.4535 32.2159 29.1692 31.7853 29.027 31.57C29.8517 31.1801 30.7495 30.4327 31.4974 29.5988L32.3102 30.2679C32.0872 30.5389 31.843 30.731 31.62 31.0019L32.4694 31.4923L33.0463 30.4931L34.0456 31.07L33.4686 32.0692L35.0675 32.9923L34.5482 33.8917L32.9494 32.9686L32.1994 34.2676L34.098 35.3638L33.5499 36.3131Z" fill="#14AF64"/>
<path d="M38.5163 36.2491C37.2456 37.1809 35.7384 38.176 34.4754 38.979L33.9011 37.7814C34.9699 37.1994 36.7135 36.1409 38.0919 35.1381L38.5163 36.2491ZM39.29 32.8321C39.3153 31.9806 39.1716 30.4987 38.9548 29.3743L40.0926 29.365C40.3383 30.4395 40.5608 31.9003 40.5855 32.7806L39.29 32.8321ZM43.3704 38.9184C42.997 40.8346 43.325 42.6894 44.6065 44.1621C44.2413 44.2177 43.6819 44.4943 43.309 44.6787C42.0141 42.9984 41.7437 41.0437 42.1826 38.8988C40.8964 40.0882 39.1395 40.939 36.4852 40.8056C36.4795 40.4692 36.3606 39.8676 36.1762 39.4947C38.7727 39.7281 40.3433 38.9694 41.4219 37.7934L38.8738 36.3223L39.4795 35.2731L42.1775 36.8308C42.4871 36.4099 42.7467 35.9603 43.0064 35.5106L43.641 34.4114L41.4426 33.1422L42.0195 32.1429L44.3178 33.4698L45.3274 31.7211L46.4266 32.3558L45.417 34.1045L47.9651 35.5756L45.9747 39.0231L47.024 39.6288L46.4182 40.6781L43.3704 38.9184ZM44.1766 36.2529C43.917 36.7025 43.6574 37.1522 43.3478 37.573L44.8967 38.4673L46.3101 36.0191L44.8112 35.1537L44.1766 36.2529Z" fill="#14AF64"/>
</g>
<defs>
<clipPath id="clip0">
<rect width="60" height="60" fill="white"/>
</clipPath>
</defs>
</svg>
