<svg width="260" height="180" viewBox="0 0 260 180" fill="none" xmlns="http://www.w3.org/2000/svg">
<ellipse cx="125" cy="144" rx="116" ry="21" fill="#F2F2F2"/>
<path fill-rule="evenodd" clip-rule="evenodd" d="M16 104C12.6863 104 10 106.239 10 109H8.5H8V109.041C6.30385 109.318 5 110.985 5 113C5 115.015 6.30385 116.682 8 116.959V117H8.5H40.9783L41.0423 116.646C41.6559 116.875 42.3145 117 43 117C46.3137 117 49 114.09 49 110.5C49 106.91 46.3137 104 43 104C41.8955 104 40.8607 104.323 39.9719 104.887C39.5655 100.479 34.8085 97 29 97C23.4446 97 18.851 100.182 18.1058 104.317C17.4506 104.112 16.741 104 16 104Z" fill="#F7F7F7"/>
<path d="M10 109V110C10.5523 110 11 109.552 11 109H10ZM8 109V108C7.44772 108 7 108.448 7 109H8ZM8 109.041L8.16133 110.027C8.64493 109.948 9 109.531 9 109.041H8ZM8 116.959H9C9 116.469 8.64493 116.052 8.16133 115.973L8 116.959ZM8 117H7C7 117.552 7.44772 118 8 118V117ZM40.9783 117V118C41.4619 118 41.8762 117.654 41.9623 117.178L40.9783 117ZM41.0423 116.646L41.3924 115.709C41.1148 115.606 40.8056 115.63 40.548 115.777C40.2904 115.923 40.1111 116.176 40.0583 116.468L41.0423 116.646ZM39.9719 104.887L38.9761 104.979C39.0081 105.326 39.2182 105.631 39.5309 105.785C39.8435 105.938 40.2135 105.918 40.5076 105.732L39.9719 104.887ZM18.1058 104.317L17.8076 105.271C18.0814 105.357 18.3787 105.32 18.624 105.172C18.8693 105.023 19.039 104.776 19.0899 104.494L18.1058 104.317ZM11 109C11 106.954 13.0601 105 16 105V103C12.3125 103 9 105.523 9 109H11ZM8.5 110H10V108H8.5V110ZM8 110H8.5V108H8V110ZM9 109.041V109H7V109.041H9ZM6 113C6 111.382 7.03482 110.212 8.16133 110.027L7.83867 108.054C5.57289 108.424 4 110.587 4 113H6ZM8.16133 115.973C7.03482 115.788 6 114.618 6 113H4C4 115.413 5.57289 117.576 7.83867 117.946L8.16133 115.973ZM9 117V116.959H7V117H9ZM8.5 116H8V118H8.5V116ZM40.9783 116H8.5V118H40.9783V116ZM40.0583 116.468L39.9942 116.822L41.9623 117.178L42.0263 116.824L40.0583 116.468ZM43 116C42.4368 116 41.8966 115.898 41.3924 115.709L40.6922 117.583C41.4152 117.853 42.1923 118 43 118V116ZM48 110.5C48 113.614 45.6876 116 43 116V118C46.9399 118 50 114.565 50 110.5H48ZM43 105C45.6876 105 48 107.386 48 110.5H50C50 106.435 46.9399 103 43 103V105ZM40.5076 105.732C41.2444 105.264 42.0947 105 43 105V103C41.6963 103 40.477 103.382 39.4361 104.043L40.5076 105.732ZM29 98C34.5093 98 38.6348 101.276 38.9761 104.979L40.9676 104.796C40.4963 99.6814 35.1078 96 29 96V98ZM19.0899 104.494C19.7202 100.997 23.7436 98 29 98V96C23.1455 96 17.9818 99.3675 17.1216 104.139L19.0899 104.494ZM16 105C16.6403 105 17.2493 105.097 17.8076 105.271L18.4039 103.362C17.6518 103.127 16.8416 103 16 103V105Z" fill="#E6E6E6"/>
<circle cx="55" cy="46" r="5" fill="#F7F7F7" stroke="#E6E6E6" stroke-width="2" stroke-linejoin="round"/>
<circle cx="212" cy="102" r="3" fill="#F7F7F7" stroke="#E6E6E6" stroke-width="2" stroke-linejoin="round"/>
<path fill-rule="evenodd" clip-rule="evenodd" d="M139.901 22.1765C139.951 18.2045 143.222 15 147.25 15C151.192 15 154.409 18.0691 154.592 21.9231L154.6 21.9231C159.239 21.9231 163 24.4027 163 27.4615C163 30.4319 159.453 32.8562 155 32.9938V33H154.6H142H141V32.9439C137.608 32.56 135 30.2517 135 27.4615C135 24.9814 137.06 22.8821 139.901 22.1765Z" fill="#F7F7F7"/>
<path d="M139.901 22.1765L140.901 22.1891C140.895 22.6438 140.583 23.0374 140.142 23.147L139.901 22.1765ZM154.592 21.9231L154.592 22.9231C154.058 22.9234 153.618 22.5039 153.593 21.9704L154.592 21.9231ZM154.6 21.9231L154.599 20.9231H154.6V21.9231ZM155 32.9938H154C154 32.4536 154.429 32.011 154.969 31.9943L155 32.9938ZM155 33H156C156 33.5523 155.552 34 155 34V33ZM141 33V34C140.448 34 140 33.5523 140 33H141ZM141 32.9439L141.112 31.9503C141.618 32.0075 142 32.4351 142 32.9439H141ZM138.901 22.1638C138.958 17.6351 142.684 14 147.25 14V16C143.76 16 140.944 18.774 140.901 22.1891L138.901 22.1638ZM147.25 14C151.719 14 155.382 17.4814 155.591 21.8757L153.593 21.9704C153.436 18.6569 150.665 16 147.25 16V14ZM154.591 20.9231L154.599 20.9231L154.601 22.9231L154.592 22.9231L154.591 20.9231ZM154.6 20.9231C157.087 20.9231 159.385 21.586 161.09 22.7104C162.788 23.8295 164 25.4886 164 27.4615H162C162 26.3757 161.332 25.2655 159.989 24.3801C158.654 23.5 156.752 22.9231 154.6 22.9231V20.9231ZM164 27.4615C164 29.3769 162.856 30.9981 161.237 32.1134C159.613 33.2326 157.42 33.9195 155.031 33.9934L154.969 31.9943C157.033 31.9305 158.84 31.3365 160.103 30.4665C161.371 29.5927 162 28.5166 162 27.4615H164ZM156 32.9938V33H154V32.9938H156ZM155 34H154.6V32H155V34ZM154.6 34H142V32H154.6V34ZM142 34H141V32H142V34ZM140 33V32.9439H142V33H140ZM136 27.4615C136 29.5648 138.026 31.601 141.112 31.9503L140.888 33.9376C137.189 33.519 134 30.9386 134 27.4615H136ZM140.142 23.147C137.587 23.7816 136 25.5876 136 27.4615H134C134 24.3753 136.534 21.9825 139.659 21.206L140.142 23.147Z" fill="#E6E6E6"/>
<path fill-rule="evenodd" clip-rule="evenodd" d="M250.099 119.176C250.049 115.205 246.778 112 242.75 112C238.808 112 235.591 115.069 235.408 118.923L235.4 118.923C230.761 118.923 227 121.403 227 124.462C227 127.432 230.547 129.856 235 129.994V130H235.4H248H249V129.944C252.392 129.56 255 127.252 255 124.462C255 121.981 252.94 119.882 250.099 119.176Z" fill="#F7F7F7"/>
<path d="M250.099 119.176L249.099 119.189C249.105 119.644 249.417 120.037 249.858 120.147L250.099 119.176ZM235.408 118.923L235.408 119.923C235.942 119.923 236.382 119.504 236.407 118.97L235.408 118.923ZM235.4 118.923L235.401 117.923H235.4V118.923ZM235 129.994H236C236 129.454 235.571 129.011 235.031 128.994L235 129.994ZM235 130H234C234 130.552 234.448 131 235 131V130ZM249 130V131C249.552 131 250 130.552 250 130H249ZM249 129.944L248.888 128.95C248.382 129.007 248 129.435 248 129.944H249ZM251.099 119.164C251.042 114.635 247.316 111 242.75 111V113C246.24 113 249.056 115.774 249.099 119.189L251.099 119.164ZM242.75 111C238.281 111 234.618 114.481 234.409 118.876L236.407 118.97C236.564 115.657 239.335 113 242.75 113V111ZM235.409 117.923L235.401 117.923L235.399 119.923L235.408 119.923L235.409 117.923ZM235.4 117.923C232.913 117.923 230.615 118.586 228.91 119.71C227.212 120.83 226 122.489 226 124.462H228C228 123.376 228.668 122.266 230.011 121.38C231.346 120.5 233.248 119.923 235.4 119.923V117.923ZM226 124.462C226 126.377 227.144 127.998 228.763 129.113C230.387 130.233 232.58 130.92 234.969 130.993L235.031 128.994C232.967 128.931 231.16 128.336 229.897 127.467C228.629 126.593 228 125.517 228 124.462H226ZM234 129.994V130H236V129.994H234ZM235 131H235.4V129H235V131ZM235.4 131H248V129H235.4V131ZM248 131H249V129H248V131ZM250 130V129.944H248V130H250ZM254 124.462C254 126.565 251.974 128.601 248.888 128.95L249.112 130.938C252.811 130.519 256 127.939 256 124.462H254ZM249.858 120.147C252.413 120.782 254 122.588 254 124.462H256C256 121.375 253.466 118.983 250.341 118.206L249.858 120.147Z" fill="#E6E6E6"/>
<path d="M79 52.7115L148.462 41L163 141.558L93.5385 153.269L79 52.7115Z" fill="#E6E6E6" stroke="#CCCCCC" stroke-width="2" stroke-linejoin="round"/>
<path d="M91.9232 56.75L104.442 144.385" stroke="#CCCCCC" stroke-width="2"/>
<circle cx="87.0768" cy="64.8269" r="1.61538" fill="#C4C4C4"/>
<circle cx="90.3078" cy="89.8654" r="1.61538" fill="#C4C4C4"/>
<circle cx="94.3463" cy="114.096" r="1.61538" fill="#C4C4C4"/>
<circle cx="97.5768" cy="136.712" r="1.61538" fill="#C4C4C4"/>
<path d="M99.1924 64.0192L137.154 57.5577" stroke="#CCCCCC" stroke-opacity="0.5" stroke-width="2"/>
<path d="M101.615 76.9423L139.577 70.4808" stroke="#CCCCCC" stroke-opacity="0.5" stroke-width="2"/>
<path d="M104.039 89.8654L142 83.4039" stroke="#CCCCCC" stroke-opacity="0.5" stroke-width="2"/>
<path d="M105.654 102.788L143.615 96.3269" stroke="#CCCCCC" stroke-opacity="0.5" stroke-width="2"/>
<path d="M108.885 115.712L135.539 110.865" stroke="#CCCCCC" stroke-opacity="0.5" stroke-width="2"/>
<path d="M177.364 62.8307C182.102 62.2845 184.054 63.3145 186.12 67.6611L157.62 119.321L148.864 114.491L177.364 62.8307Z" fill="white"/>
<path d="M157.62 119.321L148.864 114.491L149.378 123.911L157.62 119.321Z" fill="white"/>
<path d="M157.62 119.321L186.12 67.6611C184.054 63.3145 182.102 62.2845 177.364 62.8307L148.864 114.491M157.62 119.321L148.864 114.491M157.62 119.321L149.378 123.911L148.864 114.491" stroke="#CCCCCC" stroke-width="2"/>
<path d="M174.465 68.0846C178.058 67.7825 181.561 69.7147 183.221 72.915" stroke="#CCCCCC" stroke-width="2"/>
</svg>
