<svg width="24" height="24" viewBox="0 0 24 24" fill="none" xmlns="http://www.w3.org/2000/svg">
<path fill-rule="evenodd" clip-rule="evenodd" d="M14.2135 6.33651L10.0611 2.18408L6.34862 6.02912L7.69159 7.37209L5.69424 9.36943C5.00801 10.0557 4.17428 10.5479 3.19114 10.7118L1.7998 10.9437L13.3371 22.4809L13.5849 21.1179C13.7499 20.2106 14.2538 19.2796 14.9291 18.6043L16.9264 16.6069L18.2875 17.968L22 14.123L17.953 10.0761L20.648 7.38107L16.9265 3.52663L14.2135 6.33651ZM8.71814 8.39864L15.8999 15.5804L13.9025 17.5777C13.3323 18.1479 12.8544 18.8573 12.5305 19.6213L10.4696 17.5603L12.3222 15.7078L11.2956 14.6812L9.44302 16.5338L7.76537 14.8561L9.618 13.0035L8.59145 11.9769L6.73881 13.8296L4.68996 11.7807C5.47223 11.4537 6.14936 10.9674 6.7208 10.396L8.71814 8.39864ZM17.953 15.5804L18.2694 15.8967L19.9647 14.1408L15.8999 10.0761L18.6128 7.36322L16.9265 5.61672L14.2317 8.40778L10.0792 4.25536L8.38387 6.01127L8.71814 6.34554L8.71829 6.34539L17.9531 15.5802L17.953 15.5804Z" fill="#14AF64"/>
</svg>
