<svg width="24" height="24" viewBox="0 0 24 24" fill="none" xmlns="http://www.w3.org/2000/svg">
<path fill-rule="evenodd" clip-rule="evenodd" d="M4.21467 6.62856L3.44549 5.2825C3.44549 5.0902 3.2532 4.89791 3.0609 4.80176L1.71484 4.12873L3.15705 3.4557C3.34935 3.35956 3.44549 3.26341 3.54164 3.07111L4.21467 1.62891L4.8877 3.07111L5.27229 3.4557L6.7145 4.12873L5.27229 4.80176C5.17614 4.89791 4.98385 5.0902 4.8877 5.2825L4.21467 6.62856ZM10.1206 3.02267L8.02422 5.19396L18.9035 16.0733L20.9999 13.902L16.6459 9.54796L19.551 6.64293L17.4618 4.47911L14.571 7.47307L10.1206 3.02267ZM6.38145 9.74851L8.66448 7.46548L16.646 15.447L14.3629 17.73C13.7001 18.3929 13.1574 19.2367 12.8243 20.1364L10.2571 17.5693L12.385 15.4414L11.5692 14.6255L9.4413 16.7534L7.35892 14.671L9.48624 12.5437L8.6704 11.7279L6.54308 13.8552L3.98688 11.299C4.91836 10.9645 5.71676 10.4132 6.38145 9.74851ZM16.7138 21.3391L17.1945 22.2044L17.5791 21.4352L17.8676 21.1468L18.829 20.5699L17.9637 20.0892L17.6753 19.8007L17.1945 18.9354L16.7138 19.8007L16.4254 20.0892L15.56 20.5699L16.4254 21.0506L16.7138 21.3391Z" fill="#14AF64"/>
</svg>
