<svg width="24" height="24" viewBox="0 0 24 24" fill="none" xmlns="http://www.w3.org/2000/svg">
<path fill-rule="evenodd" clip-rule="evenodd" d="M14.2136 6.33651L10.0611 2.18408L6.34869 6.02912L7.69158 7.37201L5.69424 9.36935C5.00801 10.0556 4.17428 10.5478 3.19114 10.7117L1.7998 10.9436L13.3371 22.4809L13.5849 21.1178C13.7499 20.2105 14.2538 19.2795 14.9291 18.6042L16.9264 16.6069L18.2876 17.968L22 14.123L17.9531 10.0761L20.6481 7.38107L16.9266 3.52663L14.2136 6.33651ZM8.71813 8.39857L15.8999 15.5803L13.9025 17.5776C13.3323 18.1479 12.8544 18.8572 12.5305 19.6212L10.4696 17.5603L12.3222 15.7077L11.2957 14.6812L9.44309 16.5338L7.76538 14.8561L9.6179 13.0035L8.59135 11.977L6.73882 13.8295L4.68995 11.7806C5.47223 11.4536 6.14936 10.9673 6.7208 10.3959L8.71813 8.39857ZM17.953 15.5803L18.2694 15.8967L19.9648 14.1408L15.9 10.0761L18.6128 7.36322L16.9266 5.61672L14.2317 8.40779L10.0793 4.25536L8.38394 6.01127L8.71813 6.34546L8.71829 6.3453L17.9531 15.5801L17.953 15.5803Z" fill="#2C3330"/>
</svg>
