<svg width="24" height="24" viewBox="0 0 24 24" fill="none" xmlns="http://www.w3.org/2000/svg">
<path d="M14.0481 12.7905L13.6949 13.1444C13.8665 13.3157 14.1363 13.3391 14.3349 13.2C14.5336 13.061 14.6038 12.7994 14.5015 12.5796L14.0481 12.7905ZM13.2373 9.12117L13.542 9.5176C13.6562 9.4299 13.7269 9.29728 13.7363 9.15367C13.7456 9.01006 13.6927 8.86938 13.5909 8.76762L13.2373 9.12117ZM11.1584 7.04224L10.776 7.36432C10.7852 7.37522 10.7948 7.38572 10.8049 7.39579L11.1584 7.04224ZM9.4329 8.17526L8.98535 8.39817C9.00942 8.44651 9.04117 8.49063 9.07935 8.52881L9.4329 8.17526ZM15.888 8.47671L15.6819 8.02109L15.6759 8.02393L15.888 8.47671ZM15.3579 9.94235L15.8112 9.73145L15.8105 9.73003L15.3579 9.94235ZM16.4701 12.3331L16.0168 12.544C16.0203 12.5516 16.024 12.559 16.0278 12.5664L16.4701 12.3331ZM16.969 13.279L16.5267 13.5124L16.5325 13.5229L16.969 13.279ZM17.1561 17.5201L17.6081 17.7341L17.6124 17.7245L17.1561 17.5201ZM16.1167 19.0585L16.4802 19.4018L16.4838 19.3979L16.1167 19.0585ZM15.94 19.2456L16.2884 19.6041C16.2936 19.5992 16.2986 19.5941 16.3035 19.5889L15.94 19.2456ZM14.3184 20.337L14.1174 19.8792C13.9051 19.9724 13.7847 20.1993 13.8266 20.4273C13.8685 20.6554 14.0617 20.8247 14.2932 20.8364L14.3184 20.337ZM18.3515 18.7882L18.7045 19.1423L18.7051 19.1418L18.3515 18.7882ZM18.5386 18.6011L18.8922 18.9547C18.8975 18.9494 18.9027 18.9439 18.9077 18.9384L18.5386 18.6011ZM19.5781 17.0627L20.0289 17.2793L20.0332 17.2698L19.5781 17.0627ZM19.4014 12.8217L18.9612 13.059L18.9651 13.0659L19.4014 12.8217ZM17.3225 8.96525L17.7627 8.72794L17.7573 8.71837L17.3225 8.96525ZM17.125 8.70539L16.7697 9.0572L16.7707 9.05821L17.125 8.70539ZM14.7238 9.12116L14.3648 9.46925L14.3695 9.47398L14.7238 9.12116ZM14.9213 9.38102L15.3615 9.1437L15.3561 9.13414L14.9213 9.38102ZM17.0002 13.2374L16.56 13.4747L16.5637 13.4813L17.0002 13.2374ZM17.1873 17.4785L17.6393 17.6925L17.6436 17.6829L17.1873 17.4785ZM16.1479 19.0169L16.5114 19.3602L16.515 19.3563L16.1479 19.0169ZM15.9711 19.204L16.3239 19.5583C16.3276 19.5547 16.3311 19.551 16.3347 19.5473L15.9711 19.204ZM8.37265 19.204L8.72547 18.8496L8.72148 18.8458L8.37265 19.204ZM4.00689 14.9526L3.65331 15.3061L3.65806 15.3108L4.00689 14.9526ZM4.7709 13.1081V13.6081V13.1081ZM5.53491 13.4245L5.18135 13.7781C5.37607 13.9728 5.69157 13.9734 5.88705 13.7795C6.08254 13.5856 6.08442 13.2701 5.89126 13.0738L5.53491 13.4245ZM4.23557 12.1044L4.59198 11.7536L4.58546 11.7472L4.23557 12.1044ZM5.73241 10.5764L5.38252 10.9336C5.57865 11.1257 5.89303 11.1238 6.08675 10.9292C6.28046 10.7346 6.28103 10.4202 6.08802 10.2249L5.73241 10.5764ZM4.84886 9.68247L5.20448 9.33098L5.20241 9.32892L4.84886 9.68247ZM4.53455 8.92366H4.03455H4.53455ZM5.60767 7.85054V7.35054V7.85054ZM6.36648 8.16485L6.01293 8.5184L6.36648 8.16485ZM7.26042 9.05879L6.90808 9.41355C7.10377 9.60791 7.41988 9.6071 7.61458 9.41174C7.80927 9.21638 7.809 8.90026 7.61397 8.70524L7.26042 9.05879ZM8.77804 7.53077L9.13125 7.17687L9.13039 7.17602L8.77804 7.53077ZM13.4764 8.93405L13.6847 9.38863C13.6958 9.38353 13.7067 9.37802 13.7175 9.37212L13.4764 8.93405ZM14.5015 12.5796L13.3892 10.1888L12.4826 10.6106L13.5948 13.0014L14.5015 12.5796ZM13.3856 10.1811C13.3313 10.0694 13.3172 9.94242 13.3457 9.82153L12.3724 9.59205C12.2911 9.93703 12.3313 10.2995 12.4862 10.6183L13.3856 10.1811ZM13.3457 9.82153C13.3742 9.70064 13.4436 9.59329 13.542 9.5176L12.9327 8.72474C12.6516 8.94073 12.4538 9.24707 12.3724 9.59205L13.3457 9.82153ZM13.5909 8.76762L11.512 6.68869L10.8049 7.39579L12.8838 9.47472L13.5909 8.76762ZM11.5409 6.72015C11.2982 6.43205 10.9584 6.2429 10.5857 6.1885L10.4413 7.17802C10.5719 7.19708 10.691 7.26337 10.776 7.36432L11.5409 6.72015ZM10.5857 6.1885C10.213 6.13411 9.83323 6.21824 9.51837 6.42499L10.0672 7.26089C10.1776 7.18844 10.3106 7.15896 10.4413 7.17802L10.5857 6.1885ZM9.51837 6.42499C9.20352 6.63173 8.97538 6.94673 8.87715 7.31036L9.84255 7.57115C9.87697 7.44372 9.95692 7.33334 10.0672 7.26089L9.51837 6.42499ZM8.87715 7.31036C8.77893 7.67399 8.81742 8.06101 8.98535 8.39817L9.88046 7.95234C9.82162 7.83419 9.80813 7.69857 9.84255 7.57115L8.87715 7.31036ZM9.07935 8.52881L13.6946 13.144L14.4017 12.4369L9.78646 7.8217L9.07935 8.52881ZM15.6759 8.02393C15.4853 8.11319 15.3142 8.23912 15.1724 8.39453L15.9109 9.06872C15.9642 9.01034 16.0285 8.96302 16.1001 8.92948L15.6759 8.02393ZM15.1724 8.39453C15.0305 8.54993 14.9207 8.73176 14.8491 8.92963L15.7895 9.26977C15.8164 9.19542 15.8576 9.12711 15.9109 9.06872L15.1724 8.39453ZM14.8491 8.92963C14.7775 9.12751 14.7456 9.33754 14.7553 9.54773L15.7542 9.502C15.7506 9.42302 15.7626 9.34411 15.7895 9.26977L14.8491 8.92963ZM14.7553 9.54773C14.7649 9.75792 14.8158 9.96416 14.9052 10.1547L15.8105 9.73003C15.777 9.65846 15.7578 9.58097 15.7542 9.502L14.7553 9.54773ZM14.9045 10.1533L16.0168 12.544L16.9234 12.1222L15.8112 9.73145L14.9045 10.1533ZM16.0278 12.5664L16.5268 13.5123L17.4113 13.0458L16.9123 12.0999L16.0278 12.5664ZM16.5325 13.5229C16.854 14.0983 17.0366 14.7409 17.0656 15.3994L18.0647 15.3553C18.0287 14.5412 17.803 13.7466 17.4055 13.0352L16.5325 13.5229ZM17.0656 15.3994C17.0947 16.0579 16.9694 16.7141 16.6999 17.3156L17.6124 17.7245C17.9457 16.9808 18.1006 16.1695 18.0647 15.3553L17.0656 15.3994ZM16.7042 17.3061C16.4596 17.8228 16.1376 18.2992 15.7495 18.7191L16.4838 19.3979C16.9408 18.9035 17.3199 18.3425 17.608 17.734L16.7042 17.3061ZM15.7532 18.7152L15.5765 18.9023L16.3035 19.5889L16.4802 19.4018L15.7532 18.7152ZM15.5915 18.887C15.1633 19.3031 14.6641 19.6392 14.1174 19.8792L14.5194 20.7948C15.1755 20.5068 15.7746 20.1035 16.2884 19.6041L15.5915 18.887ZM14.2932 20.8364C15.106 20.8774 15.9184 20.7479 16.6781 20.4561L16.3196 19.5226C15.6901 19.7643 15.017 19.8716 14.3436 19.8376L14.2932 20.8364ZM16.6781 20.4561C17.4378 20.1644 18.1281 19.7168 18.7045 19.1423L17.9986 18.4341C17.521 18.9101 16.9491 19.2809 16.3196 19.5226L16.6781 20.4561ZM18.7051 19.1418L18.8922 18.9547L18.1851 18.2476L17.998 18.4347L18.7051 19.1418ZM18.9077 18.9384C19.3604 18.4431 19.7381 17.8841 20.0288 17.2793L19.1274 16.8461C18.8791 17.3629 18.5563 17.8405 18.1695 18.2638L18.9077 18.9384ZM20.0332 17.2698C20.3711 16.5272 20.5295 15.7155 20.4955 14.9003L19.4964 14.9419C19.5238 15.6003 19.3959 16.2558 19.123 16.8556L20.0332 17.2698ZM20.4955 14.9003C20.4616 14.0851 20.2362 13.2894 19.8377 12.5774L18.9651 13.0659C19.287 13.6409 19.469 14.2835 19.4964 14.9419L20.4955 14.9003ZM19.8415 12.5844L17.7626 8.72799L16.8823 9.20252L18.9613 13.0589L19.8415 12.5844ZM17.7573 8.71837C17.6813 8.58459 17.5878 8.46157 17.4792 8.35257L16.7707 9.05821C16.8163 9.10408 16.8557 9.15585 16.8877 9.21214L17.7573 8.71837ZM17.4802 8.35358C17.2502 8.12129 16.9547 7.96494 16.6332 7.90551L16.4514 8.88884C16.5722 8.91117 16.6832 8.96992 16.7697 9.05719L17.4802 8.35358ZM16.6332 7.90551C16.3118 7.84608 15.9798 7.88643 15.682 8.02113L16.094 8.93228C16.2059 8.88168 16.3306 8.86652 16.4514 8.88884L16.6332 7.90551ZM14.3695 9.47398C14.4152 9.51985 14.4545 9.57162 14.4865 9.62791L15.3561 9.13414C15.2801 9.00037 15.1866 8.87734 15.0781 8.76834L14.3695 9.47398ZM14.4812 9.61829L16.5601 13.4747L17.4403 13.0002L15.3614 9.14376L14.4812 9.61829ZM16.5637 13.4813C16.8852 14.0567 17.0678 14.6993 17.0968 15.3578L18.0958 15.3137C18.0599 14.4996 17.8342 13.705 17.4367 12.9936L16.5637 13.4813ZM17.0968 15.3578C17.1259 16.0163 17.0006 16.6725 16.731 17.274L17.6436 17.6829C17.9769 16.9392 18.1318 16.1279 18.0958 15.3137L17.0968 15.3578ZM16.7354 17.2645C16.4907 17.7812 16.1688 18.2576 15.7807 18.6775L16.515 19.3563C16.972 18.8619 17.3511 18.3009 17.6392 17.6925L16.7354 17.2645ZM15.7843 18.6736L15.6076 18.8607L16.3347 19.5473L16.5114 19.3602L15.7843 18.6736ZM15.6183 18.8497C14.7029 19.7612 13.4637 20.2729 12.1719 20.2729V21.2729C13.7282 21.2729 15.2211 20.6564 16.3239 19.5583L15.6183 18.8497ZM12.1719 20.2729C10.8801 20.2729 9.64085 19.7612 8.72545 18.8497L8.01985 19.5583C9.12267 20.6564 10.6156 21.2729 12.1719 21.2729V20.2729ZM8.72148 18.8458L4.35572 14.5943L3.65806 15.3108L8.02382 19.5622L8.72148 18.8458ZM4.36045 14.599C4.25159 14.4901 4.19043 14.3425 4.19043 14.1886H3.19043C3.19043 14.6077 3.35694 15.0097 3.65334 15.3061L4.36045 14.599ZM4.19043 14.1886C4.19043 14.0346 4.25159 13.887 4.36045 13.7781L3.65334 13.071C3.35694 13.3674 3.19043 13.7694 3.19043 14.1886H4.19043ZM4.36045 13.7781C4.4693 13.6692 4.61695 13.6081 4.7709 13.6081V12.6081C4.35173 12.6081 3.94973 12.7746 3.65334 13.071L4.36045 13.7781ZM4.7709 13.6081C4.92485 13.6081 5.07249 13.6692 5.18135 13.7781L5.88846 13.071C5.59206 12.7746 5.19007 12.6081 4.7709 12.6081V13.6081ZM5.89126 13.0738L4.59192 11.7537L3.87923 12.4552L5.17856 13.7753L5.89126 13.0738ZM4.58546 11.7472C4.47757 11.6416 4.41608 11.4973 4.41452 11.3463L3.41457 11.3566C3.41886 11.7728 3.58833 12.1703 3.88568 12.4616L4.58546 11.7472ZM4.41452 11.3463C4.41296 11.1953 4.47147 11.0498 4.57716 10.9419L3.8628 10.2421C3.57151 10.5395 3.41028 10.9404 3.41457 11.3566L4.41452 11.3463ZM4.57716 10.9419C4.68286 10.834 4.82709 10.7725 4.97812 10.7709L4.96781 9.771C4.55157 9.77529 4.15409 9.94476 3.8628 10.2421L4.57716 10.9419ZM4.97812 10.7709C5.12915 10.7694 5.27462 10.8279 5.38252 10.9336L6.0823 10.2192C5.78494 9.92794 5.38405 9.76671 4.96781 9.771L4.97812 10.7709ZM6.08802 10.2249L5.20447 9.33099L4.49324 10.0339L5.37679 10.9279L6.08802 10.2249ZM5.20241 9.32892C5.14919 9.2757 5.10698 9.21252 5.07818 9.14298L4.1543 9.52567C4.23335 9.71653 4.34923 9.88995 4.49531 10.036L5.20241 9.32892ZM5.07818 9.14298C5.04937 9.07345 5.03455 8.99892 5.03455 8.92366H4.03455C4.03455 9.13025 4.07524 9.33481 4.1543 9.52567L5.07818 9.14298ZM5.03455 8.92366C5.03455 8.8484 5.04937 8.77387 5.07818 8.70434L4.1543 8.32165C4.07524 8.51251 4.03455 8.71707 4.03455 8.92366H5.03455ZM5.07818 8.70434C5.10698 8.6348 5.14919 8.57162 5.20241 8.5184L4.49531 7.8113C4.34923 7.95737 4.23335 8.13079 4.1543 8.32165L5.07818 8.70434ZM5.20241 8.5184C5.25563 8.46518 5.31881 8.42297 5.38835 8.39417L5.00566 7.47029C4.8148 7.54934 4.64138 7.66522 4.49531 7.8113L5.20241 8.5184ZM5.38835 8.39417C5.45788 8.36536 5.53241 8.35054 5.60767 8.35054V7.35054C5.40109 7.35054 5.19652 7.39123 5.00566 7.47029L5.38835 8.39417ZM5.60767 8.35054C5.68293 8.35054 5.75746 8.36536 5.82699 8.39417L6.20968 7.47029C6.01882 7.39123 5.81425 7.35054 5.60767 7.35054V8.35054ZM5.82699 8.39417C5.89653 8.42297 5.95971 8.46518 6.01293 8.5184L6.72003 7.8113C6.57396 7.66522 6.40054 7.54934 6.20968 7.47029L5.82699 8.39417ZM6.01293 8.5184L6.90687 9.41234L7.61397 8.70524L6.72003 7.8113L6.01293 8.5184ZM7.61277 8.70403C7.50423 8.59623 7.44296 8.44973 7.44243 8.29675L6.44244 8.30016C6.44387 8.71835 6.61136 9.11885 6.90808 9.41355L7.61277 8.70403ZM7.44243 8.29675C7.44191 8.14377 7.50218 7.99686 7.60998 7.88832L6.90047 7.18363C6.60577 7.48034 6.44101 7.88197 6.44244 8.30016L7.44243 8.29675ZM7.60998 7.88832C7.71778 7.77978 7.86429 7.71851 8.01726 7.71798L8.01385 6.71799C7.59566 6.71942 7.19516 6.88691 6.90047 7.18363L7.60998 7.88832ZM8.01726 7.71798C8.17024 7.71746 8.31716 7.77773 8.4257 7.88553L9.13039 7.17602C8.83367 6.88132 8.43204 6.71656 8.01385 6.71799L8.01726 7.71798ZM8.42484 7.88468L13.6949 13.1444L14.4013 12.4366L9.13125 7.17687L8.42484 7.88468ZM13.3894 10.1892C13.356 10.1173 13.3372 10.0395 13.334 9.96023L12.3348 10.0009C12.3434 10.2117 12.3935 10.4188 12.4824 10.6102L13.3894 10.1892ZM13.334 9.96023C13.3308 9.88101 13.3432 9.80193 13.3707 9.72754L12.4324 9.38153C12.3594 9.57952 12.3262 9.79 12.3348 10.0009L13.334 9.96023ZM13.3707 9.72754C13.3981 9.65315 13.44 9.58491 13.4938 9.52675L12.7603 8.84711C12.6169 9.00191 12.5054 9.18353 12.4324 9.38153L13.3707 9.72754ZM13.4938 9.52675C13.5477 9.46859 13.6126 9.42165 13.6847 9.38863L13.2682 8.47948C13.0763 8.56737 12.9037 8.6923 12.7603 8.84711L13.4938 9.52675ZM13.7175 9.37212C13.8211 9.3151 13.9406 9.29372 14.0576 9.31126L14.2059 8.32232C13.8721 8.27226 13.5311 8.33327 13.2354 8.49599L13.7175 9.37212ZM14.0576 9.31126C14.1745 9.32881 14.2825 9.38431 14.3648 9.46922L15.0827 8.77309C14.8478 8.53078 14.5397 8.37239 14.2059 8.32232L14.0576 9.31126ZM5.18049 13.7876L7.301 15.9185L8.00983 15.2132L5.88932 13.0823L5.18049 13.7876ZM5.34712 10.8982L8.66301 14.2245L9.37123 13.5185L6.05533 10.1922L5.34712 10.8982ZM6.80292 9.30841L10.1916 12.6971L10.8987 11.99L7.51003 8.6013L6.80292 9.30841Z" fill="#81948B"/>
<path fill-rule="evenodd" clip-rule="evenodd" d="M10.3057 5.48283L8.93359 3.57022L10.0042 3.2168L10.3057 5.48283Z" fill="#81948B"/>
<path fill-rule="evenodd" clip-rule="evenodd" d="M12.0105 4.88022L11.4492 2.65576H12.5822L12.0105 4.88022Z" fill="#81948B"/>
<path fill-rule="evenodd" clip-rule="evenodd" d="M13.7471 5.48283L14.0589 3.2168L15.1296 3.57022L13.7471 5.48283Z" fill="#81948B"/>
</svg>
