<svg width="24" height="24" viewBox="0 0 24 24" fill="none" xmlns="http://www.w3.org/2000/svg">
<path fill-rule="evenodd" clip-rule="evenodd" d="M14.048 12.7907L12.9358 10.4C12.8311 10.1847 12.804 9.93997 12.8589 9.70703C12.9138 9.4741 13.0475 9.26726 13.2372 9.12142L11.1583 7.04248C10.9944 6.84795 10.765 6.72023 10.5133 6.68351C10.2616 6.64678 10.0053 6.70359 9.79266 6.84318C9.58006 6.98278 9.42603 7.19547 9.3597 7.441C9.29338 7.68652 9.31937 7.94785 9.43275 8.1755L14.048 12.7907Z" stroke="#14AF64" stroke-linecap="round" stroke-linejoin="round"/>
<path fill-rule="evenodd" clip-rule="evenodd" d="M15.888 8.47704C15.7569 8.53844 15.6392 8.62506 15.5416 8.73196C15.444 8.83886 15.3685 8.96393 15.3192 9.10004C15.27 9.23614 15.2481 9.38061 15.2547 9.5252C15.2613 9.66978 15.2964 9.81165 15.3578 9.94269L16.4701 12.3335L16.969 13.2794C17.3285 13.9228 17.5326 14.6414 17.5651 15.3777C17.5976 16.1141 17.4575 16.8478 17.1561 17.5204C16.8897 18.083 16.5392 18.6017 16.1166 19.0588L15.9399 19.2459C15.4689 19.7036 14.9197 20.0733 14.3184 20.3373C15.0615 20.3749 15.8042 20.2564 16.4988 19.9897C17.1934 19.7229 17.8245 19.3138 18.3515 18.7885L18.5386 18.6014C18.9583 18.1421 19.3085 17.6238 19.5781 17.063C19.8835 16.3918 20.0266 15.6582 19.9959 14.9214C19.9652 14.1847 19.7615 13.4655 19.4013 12.822L17.3224 8.96559C17.2685 8.87056 17.202 8.78316 17.1249 8.70572C16.9667 8.54594 16.7634 8.43839 16.5423 8.39751C16.3212 8.35663 16.0928 8.38439 15.888 8.47704V8.47704Z" stroke="#14AF64" stroke-linecap="round" stroke-linejoin="round"/>
<path fill-rule="evenodd" clip-rule="evenodd" d="M14.7238 9.12144C14.8009 9.19888 14.8673 9.28627 14.9213 9.3813L17.0002 13.2377C17.3597 13.8812 17.5638 14.5997 17.5963 15.3361C17.6288 16.0724 17.4887 16.8061 17.1873 17.4787C16.9209 18.0413 16.5704 18.5601 16.1479 19.0172L15.9711 19.2043C14.962 20.2091 13.596 20.7732 12.1719 20.7732C10.7478 20.7732 9.38176 20.2091 8.37265 19.2043L4.00689 14.9528C3.80426 14.7502 3.69043 14.4754 3.69043 14.1888C3.69043 13.9023 3.80426 13.6275 4.00689 13.4248C4.20952 13.2222 4.48434 13.1084 4.7709 13.1084C5.05746 13.1084 5.33228 13.2222 5.53491 13.4248L4.23557 12.1047C4.03295 11.9062 3.91747 11.6354 3.91455 11.3517C3.91162 11.0681 4.02149 10.7949 4.21998 10.5923C4.41847 10.3897 4.68933 10.2742 4.97296 10.2713C5.2566 10.2683 5.52978 10.3782 5.73241 10.5767L4.84886 9.68275C4.74921 9.5831 4.67017 9.4648 4.61624 9.33461C4.56231 9.20441 4.53455 9.06486 4.53455 8.92394C4.53455 8.78302 4.56231 8.64347 4.61624 8.51327C4.67017 8.38308 4.74921 8.26478 4.84886 8.16513C4.94851 8.06548 5.06681 7.98644 5.197 7.93251C5.3272 7.87858 5.46675 7.85082 5.60767 7.85082C5.74859 7.85082 5.88814 7.87858 6.01833 7.93251C6.14853 7.98644 6.26683 8.06548 6.36648 8.16513L7.26042 9.05907C7.05779 8.85782 6.94341 8.58432 6.94244 8.29874C6.94146 8.01315 7.05397 7.73888 7.25522 7.53625C7.45647 7.33363 7.72997 7.21924 8.01556 7.21827C8.30114 7.21729 8.57541 7.32981 8.77804 7.53106L14.0481 12.7908L12.9359 10.4C12.8748 10.2683 12.8403 10.1259 12.8344 9.98083C12.8285 9.83579 12.8513 9.69101 12.9015 9.55481C12.9518 9.41862 13.0284 9.29369 13.1271 9.18721C13.2257 9.08073 13.3445 8.99479 13.4764 8.93433C13.6761 8.82447 13.9063 8.78327 14.1317 8.81707C14.3571 8.85088 14.5651 8.95782 14.7238 9.12144V9.12144Z" stroke="#14AF64" stroke-linecap="round" stroke-linejoin="round"/>
<path d="M5.53467 13.4353L7.65518 15.5662" stroke="#14AF64" stroke-linejoin="round"/>
<path d="M5.70117 10.5457L9.01707 13.8719" stroke="#14AF64" stroke-linejoin="round"/>
<path d="M7.15625 8.95508L10.5449 12.3437" stroke="#14AF64" stroke-linejoin="round"/>
<path fill-rule="evenodd" clip-rule="evenodd" d="M10.3062 5.48332L8.93408 3.5707L10.0047 3.21729L10.3062 5.48332Z" fill="#14AF64"/>
<path fill-rule="evenodd" clip-rule="evenodd" d="M12.011 4.88046L11.4497 2.65601H12.5827L12.011 4.88046Z" fill="#14AF64"/>
<path fill-rule="evenodd" clip-rule="evenodd" d="M13.7466 5.48332L14.0584 3.21729L15.1291 3.5707L13.7466 5.48332Z" fill="#14AF64"/>
</svg>
