<svg width="24" height="24" viewBox="0 0 24 24" fill="none" xmlns="http://www.w3.org/2000/svg">
<path fill-rule="evenodd" clip-rule="evenodd" d="M14.0481 12.7909L12.9359 10.4001C12.8312 10.1848 12.8041 9.94009 12.859 9.70716C12.9139 9.47422 13.0476 9.26738 13.2373 9.12154L11.1584 7.04261C10.9945 6.84807 10.7651 6.72036 10.5134 6.68363C10.2618 6.6469 10.0054 6.70371 9.79277 6.8433C9.58017 6.9829 9.42613 7.19559 9.35981 7.44112C9.29348 7.68665 9.31947 7.94797 9.43286 8.17562L14.0481 12.7909Z" fill="#14AF64" stroke="#E9FFF4" stroke-width="0.5" stroke-linecap="round" stroke-linejoin="round"/>
<path fill-rule="evenodd" clip-rule="evenodd" d="M15.8879 8.47707C15.7569 8.53847 15.6392 8.62509 15.5416 8.73199C15.444 8.83889 15.3685 8.96396 15.3192 9.10007C15.27 9.23617 15.2481 9.38064 15.2547 9.52523C15.2613 9.66981 15.2964 9.81168 15.3578 9.94272L16.47 12.3335L16.969 13.2794C17.3285 13.9228 17.5326 14.6414 17.5651 15.3777C17.5976 16.1141 17.4575 16.8478 17.1561 17.5204C16.8897 18.083 16.5392 18.6018 16.1166 19.0588L15.9399 19.2459C15.4689 19.7037 14.9197 20.0733 14.3184 20.3374C15.0615 20.3749 15.8042 20.2565 16.4988 19.9897C17.1934 19.723 17.8245 19.3138 18.3515 18.7886L18.5386 18.6015C18.9583 18.1422 19.3085 17.6239 19.578 17.0631C19.8835 16.3919 20.0266 15.6582 19.9959 14.9215C19.9652 14.1847 19.7615 13.4655 19.4013 12.822L17.3224 8.96562C17.2684 8.87059 17.202 8.78319 17.1249 8.70575C16.9667 8.54597 16.7634 8.43842 16.5423 8.39754C16.3212 8.35666 16.0928 8.38442 15.8879 8.47707Z" fill="#14AF64" stroke="#E9FFF4" stroke-width="0.5" stroke-linecap="round" stroke-linejoin="round"/>
<path fill-rule="evenodd" clip-rule="evenodd" d="M14.7237 9.12153C14.8009 9.19897 14.8673 9.28636 14.9212 9.3814L17.0002 13.2378C17.3597 13.8813 17.5638 14.5998 17.5963 15.3362C17.6288 16.0725 17.4887 16.8062 17.1873 17.4788C16.9209 18.0414 16.5704 18.5602 16.1478 19.0172L15.9711 19.2044C14.962 20.2092 13.5959 20.7733 12.1719 20.7733C10.7478 20.7733 9.38171 20.2092 8.3726 19.2044L4.00685 14.9529C3.80422 14.7503 3.69038 14.4755 3.69038 14.1889C3.69038 13.9024 3.80422 13.6275 4.00685 13.4249C4.20947 13.2223 4.4843 13.1085 4.77085 13.1085C5.05741 13.1085 5.33223 13.2223 5.53486 13.4249L4.23553 12.1048C4.0329 11.9063 3.91742 11.6354 3.9145 11.3518C3.91158 11.0682 4.02144 10.795 4.21994 10.5924C4.41843 10.3897 4.68928 10.2743 4.97292 10.2713C5.25655 10.2684 5.52973 10.3783 5.73236 10.5768L4.84881 9.68284C4.74917 9.58319 4.67012 9.46489 4.61619 9.3347C4.56226 9.2045 4.5345 9.06496 4.5345 8.92403C4.5345 8.78311 4.56226 8.64356 4.61619 8.51337C4.67012 8.38317 4.74917 8.26487 4.84881 8.16522C4.94846 8.06557 5.06676 7.98653 5.19696 7.9326C5.32716 7.87867 5.4667 7.85091 5.60762 7.85091C5.74855 7.85091 5.88809 7.87867 6.01829 7.9326C6.14849 7.98653 6.26679 8.06557 6.36643 8.16522L7.26037 9.05916C7.05775 8.85791 6.94336 8.58441 6.94239 8.29883C6.94142 8.01325 7.05393 7.73897 7.25518 7.53634C7.45643 7.33372 7.72993 7.21933 8.01551 7.21836C8.30109 7.21738 8.57537 7.3299 8.77799 7.53115L14.0481 12.7908L12.9359 10.4001C12.8747 10.2684 12.8402 10.126 12.8343 9.98092C12.8284 9.83588 12.8513 9.6911 12.9015 9.55491C12.9517 9.41871 13.0284 9.29378 13.127 9.1873C13.2257 9.08082 13.3444 8.99488 13.4764 8.93443C13.6761 8.82456 13.9063 8.78336 14.1317 8.81716C14.3571 8.85097 14.5651 8.95791 14.7237 9.12153Z" fill="#14AF64" stroke="#E9FFF4" stroke-width="0.5" stroke-linecap="round" stroke-linejoin="round"/>
<path d="M5.53486 13.4353L7.65537 15.5662" stroke="#E9FFF4" stroke-width="0.5" stroke-linejoin="round"/>
<path d="M5.70118 10.5456L9.01708 13.8719" stroke="#E9FFF4" stroke-width="0.5" stroke-linejoin="round"/>
<path d="M7.15643 8.95523L10.5451 12.3439" stroke="#E9FFF4" stroke-width="0.5" stroke-linejoin="round"/>
<path fill-rule="evenodd" clip-rule="evenodd" d="M10.306 5.48341L8.93391 3.5708L10.0046 3.21738L10.306 5.48341Z" fill="#14AF64"/>
<path fill-rule="evenodd" clip-rule="evenodd" d="M12.0107 4.88052L11.4494 2.65607H12.5824L12.0107 4.88052Z" fill="#14AF64"/>
<path fill-rule="evenodd" clip-rule="evenodd" d="M13.7466 5.48341L14.0585 3.21738L15.1291 3.5708L13.7466 5.48341Z" fill="#14AF64"/>
</svg>
