<svg width="16" height="16" viewBox="0 0 16 16" fill="none" xmlns="http://www.w3.org/2000/svg">
<path fill-rule="evenodd" clip-rule="evenodd" d="M1.5 3C1.5 2.72386 1.72386 2.5 2 2.5H14C14.1326 2.5 14.2598 2.55268 14.3536 2.64645C14.4473 2.74021 14.5 2.86739 14.5 3L14.5 11C14.5 11.2761 14.2761 11.5 14 11.5H10.2071L8.35355 13.3536C8.15829 13.5488 7.84171 13.5488 7.64645 13.3536L5.79289 11.5H2C1.86739 11.5 1.74021 11.4473 1.64645 11.3536C1.55268 11.2598 1.5 11.1326 1.5 11L1.5 3ZM2.5 3.5L2.5 10.5H6C6.13261 10.5 6.25979 10.5527 6.35355 10.6464L8 12.2929L9.64645 10.6464C9.74022 10.5527 9.86739 10.5 10 10.5H13.5L13.5 3.5H2.5ZM6 7.5H4V6.5H6V7.5ZM9 7.5H7V6.5H9V7.5ZM12 7.5H10V6.5H12V7.5Z" fill="#2C3330"/>
</svg>
