<svg width="24" height="24" viewBox="0 0 24 24" fill="none" xmlns="http://www.w3.org/2000/svg">
<path fill-rule="evenodd" clip-rule="evenodd" d="M4 5C3.44772 5 3 5.44772 3 6L3 17.6667C3 17.9319 3.10536 18.1862 3.29289 18.3738C3.48043 18.5613 3.73478 18.6667 4 18.6667H9.29402L11.2856 20.6998C11.4737 20.8918 11.7312 21 12 21C12.2688 21 12.5263 20.8918 12.7144 20.6998L14.706 18.6667H20C20.5523 18.6667 21 18.219 21 17.6667L21 6C21 5.73478 20.8946 5.48043 20.7071 5.29289C20.5196 5.10536 20.2652 5 20 5H4ZM5 16.6667L5 7H19L19 16.6667H14.2857C14.0169 16.6667 13.7594 16.7749 13.5714 16.9669L12 18.571L10.4286 16.9669C10.2405 16.7749 9.98308 16.6667 9.71429 16.6667H5ZM9 11H7V13H9V11ZM11 11H13V13H11V11ZM17 11H15V13H17V11Z" fill="#606C66"/>
</svg>
