<svg width="24" height="24" viewBox="0 0 24 24" fill="none" xmlns="http://www.w3.org/2000/svg">
<rect x="5" y="15" width="14" height="4" fill="white" stroke="#14AF64"/>
<path fill-rule="evenodd" clip-rule="evenodd" d="M13.6569 5H9.65685V11.5858H6L11.6569 17.2426L17.3137 11.5858H13.6569V5Z" fill="white"/>
<path d="M9.65685 5V4.5H9.15685V5H9.65685ZM13.6569 5H14.1569V4.5H13.6569V5ZM9.65685 11.5858V12.0858H10.1569V11.5858H9.65685ZM6 11.5858V11.0858H4.79289L5.64645 11.9393L6 11.5858ZM11.6569 17.2426L11.3033 17.5962L11.6569 17.9497L12.0104 17.5962L11.6569 17.2426ZM17.3137 11.5858L17.6673 11.9393L18.5208 11.0858H17.3137V11.5858ZM13.6569 11.5858H13.1569V12.0858H13.6569V11.5858ZM9.65685 5.5H13.6569V4.5H9.65685V5.5ZM10.1569 11.5858V5H9.15685V11.5858H10.1569ZM6 12.0858H9.65685V11.0858H6V12.0858ZM12.0104 16.8891L6.35355 11.2322L5.64645 11.9393L11.3033 17.5962L12.0104 16.8891ZM16.9602 11.2322L11.3033 16.8891L12.0104 17.5962L17.6673 11.9393L16.9602 11.2322ZM13.6569 12.0858H17.3137V11.0858H13.6569V12.0858ZM13.1569 5V11.5858H14.1569V5H13.1569Z" fill="#14AF64"/>
</svg>
