<svg width="32" height="32" viewBox="0 0 32 32" fill="none" xmlns="http://www.w3.org/2000/svg">
<rect opacity="0.01" width="32" height="32" fill="#D8D8D8"/>
<path d="M8 22.5H14" stroke="#14AF64" stroke-width="2" stroke-linecap="square"/>
<path d="M17 22.5H20" stroke="#14AF64" stroke-width="2"/>
<path d="M23.0046 15.7703V26.0003H7V6.99771H16.5855" stroke="#14AF64" stroke-width="2"/>
<mask id="mask0" mask-type="alpha" maskUnits="userSpaceOnUse" x="11" y="4" width="16" height="16">
<path fill-rule="evenodd" clip-rule="evenodd" d="M11.6288 4.27966H26.4973V19.4074H11.6288V4.27966Z" fill="white"/>
</mask>
<g mask="url(#mask0)">
<path fill-rule="evenodd" clip-rule="evenodd" d="M23.1352 4.27966C22.067 4.27966 21.3143 4.97908 21.0352 5.288L13.1734 13.2153L12.7843 13.6067L12.6761 14.1503L12.1734 16.6684L11.6288 19.4074L14.3379 18.8226L16.8079 18.2891L17.337 18.1745L17.7179 17.7867C20.4997 14.9597 24.7552 10.6468 25.4452 9.98866C26.4779 9.16641 26.8006 7.69975 26.1879 6.50991L26.0888 6.31558L25.947 6.1515C25.9234 6.124 25.3734 5.48783 24.7661 4.92866C24.3134 4.50975 23.7343 4.27966 23.1352 4.27966ZM23.1352 6.113C23.2688 6.113 23.407 6.15883 23.5388 6.28075C24.0761 6.77666 24.5743 7.35416 24.5743 7.35416C24.7943 7.78133 24.667 8.30658 24.2752 8.5825C23.5961 9.20675 16.427 16.4961 16.427 16.4961L13.9561 17.0296L14.4588 14.5115L22.357 6.5475C22.357 6.5475 22.7243 6.113 23.1352 6.113Z" fill="#14AF64"/>
</g>
<path d="M20.6511 7.55334L23.262 10.4353" stroke="#14AF64" stroke-width="2"/>
<path fill-rule="evenodd" clip-rule="evenodd" d="M20.6511 7.99999L21.5654 5.49999L23.262 5.22296L25.2908 6.61148V8.64874L24.0429 10.4354L20.6511 7.99999Z" fill="#14AF64"/>
</svg>
