<svg width="50" height="50" viewBox="0 0 50 50" fill="none" xmlns="http://www.w3.org/2000/svg">
<path d="M19.3318 1.91253L24.0318 1L23.3145 10.0324L19.3318 1.91253Z" fill="#430CBC"/>
<path d="M20.7682 10.4787C21.5149 10.4787 22.1202 9.8758 22.1202 9.13203C22.1202 8.38826 21.5149 7.78532 20.7682 7.78532C20.0215 7.78532 19.4161 8.38826 19.4161 9.13203C19.4161 9.8758 20.0215 10.4787 20.7682 10.4787Z" fill="#E0AA32"/>
<path d="M1 24.6176L1.58119 19.8843L9.98394 23.3547L1 24.6176Z" fill="#430CBC"/>
<path d="M8.33689 26.8357C9.08359 26.8357 9.68892 26.2328 9.68892 25.489C9.68892 24.7452 9.08359 24.1423 8.33689 24.1423C7.59019 24.1423 6.98486 24.7452 6.98486 25.489C6.98486 26.2328 7.59019 26.8357 8.33689 26.8357Z" fill="#E0AA32"/>
<path d="M17.0147 49L12.6742 46.9876L18.584 40.1002L17.0147 49Z" fill="#430CBC"/>
<path d="M20.1135 43.665C20.8602 43.665 21.4655 43.062 21.4655 42.3183C21.4655 41.5745 20.8602 40.9716 20.1135 40.9716C19.3668 40.9716 18.7615 41.5745 18.7615 42.3183C18.7615 43.062 19.3668 43.665 20.1135 43.665Z" fill="#E0AA32"/>
<path d="M45.2438 41.3631L41.98 44.8532L37.2311 37.1264L45.2438 41.3631Z" fill="#430CBC"/>
<path d="M39.8219 37.7099C40.5686 37.7099 41.1739 37.107 41.1739 36.3632C41.1739 35.6195 40.5686 35.0165 39.8219 35.0165C39.0752 35.0165 38.4698 35.6195 38.4698 36.3632C38.4698 37.107 39.0752 37.7099 39.8219 37.7099Z" fill="#E0AA32"/>
<path d="M46.6752 12.2611L49 16.4323L40.1537 18.5437L46.6752 12.2611Z" fill="#430CBC"/>
<path d="M40.2257 17.2001C40.9724 17.2001 41.5777 16.5971 41.5777 15.8534C41.5777 15.1096 40.9724 14.5067 40.2257 14.5067C39.479 14.5067 38.8737 15.1096 38.8737 15.8534C38.8737 16.5971 39.479 17.2001 40.2257 17.2001Z" fill="#E0AA32"/>
</svg>
