<svg width="50" height="50" viewBox="0 0 50 50" fill="none" xmlns="http://www.w3.org/2000/svg">
<path d="M5.70215 7.54935L8.99976 4.22513L13.3549 12.0012L5.70215 7.54935Z" fill="#430CBC"/>
<path d="M10.8064 13.9906C11.5336 13.9906 12.1231 13.3963 12.1231 12.6633C12.1231 11.9302 11.5336 11.336 10.8064 11.336C10.0792 11.336 9.48975 11.9302 9.48975 12.6633C9.48975 13.3963 10.0792 13.9906 10.8064 13.9906Z" fill="#E0AA32"/>
<path d="M3.11798 36.7601L1 32.5711L9.68191 30.7994L3.11798 36.7601Z" fill="#430CBC"/>
<path d="M9.51954 34.7737C10.2467 34.7737 10.8362 34.1795 10.8362 33.4464C10.8362 32.7134 10.2467 32.1191 9.51954 32.1191C8.79237 32.1191 8.20288 32.7134 8.20288 33.4464C8.20288 34.1795 8.79237 34.7737 9.51954 34.7737Z" fill="#E0AA32"/>
<path d="M29.8772 48.2643L25.2719 49L26.2832 40.1279L29.8772 48.2643Z" fill="#430CBC"/>
<path d="M28.7302 42.4296C29.4574 42.4296 30.0469 41.8354 30.0469 41.1023C30.0469 40.3693 29.4574 39.7751 28.7302 39.7751C28.0031 39.7751 27.4136 40.3693 27.4136 41.1023C27.4136 41.8354 28.0031 42.4296 28.7302 42.4296Z" fill="#E0AA32"/>
<path d="M49 26.1644L48.2702 30.8069L40.2139 27.0953L49 26.1644Z" fill="#430CBC"/>
<path d="M41.8895 26.3776C42.6167 26.3776 43.2062 25.7833 43.2062 25.0503C43.2062 24.3173 42.6167 23.723 41.8895 23.723C41.1624 23.723 40.5729 24.3173 40.5729 25.0503C40.5729 25.7833 41.1624 26.3776 41.8895 26.3776Z" fill="#E0AA32"/>
<path d="M34.0596 1L38.2151 3.13507L32.2231 9.71294L34.0596 1Z" fill="#430CBC"/>
<path d="M30.8125 8.80154C31.5397 8.80154 32.1292 8.2073 32.1292 7.47426C32.1292 6.74122 31.5397 6.14697 30.8125 6.14697C30.0853 6.14697 29.4958 6.74122 29.4958 7.47426C29.4958 8.2073 30.0853 8.80154 30.8125 8.80154Z" fill="#E0AA32"/>
</svg>
