<svg width="50" height="50" viewBox="0 0 50 50" fill="none" xmlns="http://www.w3.org/2000/svg">
<path d="M5.70239 7.52685L8.9605 4.24117L13.2654 11.9285L5.70239 7.52685Z" fill="#7360EB"/>
<path d="M10.9554 14.0166C11.5116 14.0166 11.9624 13.5621 11.9624 13.0015C11.9624 12.4409 11.5116 11.9864 10.9554 11.9864C10.3992 11.9864 9.94836 12.4409 9.94836 13.0015C9.94836 13.5621 10.3992 14.0166 10.9554 14.0166Z" fill="#EFBE5E"/>
<path d="M3.09208 36.7433L1 32.6043L9.58179 30.8516L3.09208 36.7433Z" fill="#7360EB"/>
<path d="M9.88068 34.4148C10.4368 34.4148 10.8877 33.9603 10.8877 33.3997C10.8877 32.8391 10.4368 32.3846 9.88068 32.3846C9.32452 32.3846 8.87366 32.8391 8.87366 33.3997C8.87366 33.9603 9.32452 34.4148 9.88068 34.4148Z" fill="#EFBE5E"/>
<path d="M29.8518 48.2728L25.2996 49L26.2992 40.2308L29.8518 48.2728Z" fill="#7360EB"/>
<path d="M28.7947 41.7475C29.3509 41.7475 29.8018 41.293 29.8018 40.7324C29.8018 40.1718 29.3509 39.7173 28.7947 39.7173C28.2386 39.7173 27.7877 40.1718 27.7877 40.7324C27.7877 41.293 28.2386 41.7475 28.7947 41.7475Z" fill="#EFBE5E"/>
<path d="M49 26.1828L48.2786 30.7715L40.3137 27.1044L49 26.1828Z" fill="#7360EB"/>
<path d="M41.5578 25.8815C42.114 25.8815 42.5648 25.4271 42.5648 24.8664C42.5648 24.3058 42.114 23.8513 41.5578 23.8513C41.0016 23.8513 40.5508 24.3058 40.5508 24.8664C40.5508 25.4271 41.0016 25.8815 41.5578 25.8815Z" fill="#EFBE5E"/>
<path d="M34.0742 1L38.1803 3.10883L32.2589 9.61043L34.0742 1Z" fill="#7360EB"/>
<path d="M30.532 8.74227C31.0882 8.74227 31.5391 8.2878 31.5391 7.72718C31.5391 7.16657 31.0882 6.7121 30.532 6.7121C29.9759 6.7121 29.525 7.16657 29.525 7.72718C29.525 8.2878 29.9759 8.74227 30.532 8.74227Z" fill="#EFBE5E"/>
</svg>
