<svg width="16" height="16" viewBox="0 0 16 16" fill="none" xmlns="http://www.w3.org/2000/svg">
<path fill-rule="evenodd" clip-rule="evenodd" d="M8 1.96387C10.434 1.96387 12.6289 3.81239 12.6289 6.73349C12.6289 7.63193 12.2659 8.71242 11.3932 9.9989C10.6289 11.1257 9.50572 12.3625 8 13.7086C6.49427 12.3625 5.3711 11.1257 4.60677 9.9989C3.73412 8.71242 3.37109 7.63193 3.37109 6.73349C3.37109 3.81239 5.566 1.96387 8 1.96387ZM13.6289 6.73349C13.6289 9.06948 11.7503 11.8347 8 15.0361C4.24974 11.8347 2.37109 9.06948 2.37109 6.73349C2.37109 3.2295 5.04482 0.963867 8 0.963867C10.9552 0.963867 13.6289 3.2295 13.6289 6.73349ZM9.11035 6.59277C9.11035 7.20627 8.61301 7.70361 7.99951 7.70361C7.38601 7.70361 6.88867 7.20627 6.88867 6.59277C6.88867 5.97927 7.38601 5.48193 7.99951 5.48193C8.61301 5.48193 9.11035 5.97927 9.11035 6.59277ZM10.1103 6.59277C10.1103 7.75856 9.16529 8.70361 7.99951 8.70361C6.83373 8.70361 5.88867 7.75856 5.88867 6.59277C5.88867 5.42699 6.83373 4.48193 7.99951 4.48193C9.16529 4.48193 10.1103 5.42699 10.1103 6.59277Z" fill="#C8D0CC"/>
</svg>
