<svg width="16" height="16" viewBox="0 0 16 16" fill="none" xmlns="http://www.w3.org/2000/svg">
<path d="M12.8173 2H9.68392C9.48392 2 9.21725 2.13333 9.15059 2.33333L8.35059 4C9.61725 4.13333 10.6839 4.6 11.6173 5.4L13.0839 2.4C13.1506 2.2 13.0173 2 12.8173 2Z" fill="#14AF64"/>
<path d="M7.41742 4L6.61742 2.33333C6.55076 2.13333 6.28409 2 6.08409 2H2.95076C2.75076 2 2.61742 2.2 2.68409 2.4L4.15076 5.4C5.01742 4.6 6.15076 4.06667 7.41742 4Z" fill="#14AF64"/>
<path d="M7.88403 4.66675C5.1507 4.66675 2.88403 6.86675 2.88403 9.66675C2.88403 12.4001 5.1507 14.6667 7.88403 14.6667C10.6174 14.6667 12.884 12.4001 12.884 9.66675C12.884 6.86675 10.6174 4.66675 7.88403 4.66675ZM10.4174 9.20008L9.48403 10.1334L9.68403 11.4667C9.7507 11.9334 9.48403 12.1334 9.08403 11.8667L7.88403 11.2001L6.68403 11.8667C6.28403 12.0667 6.01737 11.9334 6.08403 11.4667L6.28403 10.1334L5.3507 9.20008C5.01737 8.86675 5.1507 8.53341 5.5507 8.53341L6.88403 8.33342L7.48403 7.06675C7.68403 6.66675 8.01737 6.66675 8.21737 7.06675L8.81737 8.33342L10.1507 8.53341C10.6174 8.53341 10.7507 8.93341 10.4174 9.20008Z" fill="#14AF64"/>
</svg>
