<svg width="24" height="24" viewBox="0 0 24 24" fill="none" xmlns="http://www.w3.org/2000/svg">
<path fill-rule="evenodd" clip-rule="evenodd" d="M12.8682 4.50386C12.6902 4.19229 12.3589 4 12 4C11.6411 4 11.3098 4.19229 11.1318 4.50386L3.13176 18.5039C2.9549 18.8134 2.95617 19.1936 3.13509 19.5019C3.31401 19.8102 3.64353 20 4 20H20C20.3565 20 20.686 19.8102 20.8649 19.5019C21.0438 19.1936 21.0451 18.8134 20.8682 18.5039L12.8682 4.50386ZM12 7.01556L18.2768 18H5.72318L12 7.01556ZM11 10V14H13V10H11ZM13 17V15H11V17H13Z" fill="#606C66"/>
</svg>
