<svg width="24" height="24" viewBox="0 0 24 24" fill="none" xmlns="http://www.w3.org/2000/svg">
<path d="M11.2267 20.1C12.0601 18.9462 12.6001 17.16 12.6001 15.1548C12.6001 13.647 12.3001 12.2646 11.7913 11.1816C10.7959 9.04796 10.2001 6.74996 10.2001 4.39556V3.89996H7.8001V4.39556C7.8001 6.74996 7.2049 9.04796 6.2089 11.1816C5.7043 12.2646 5.4001 13.647 5.4001 15.1548C5.4001 17.1624 5.9401 18.9462 6.7741 20.1H11.2267Z" fill="white" stroke="#333333" stroke-linecap="round" stroke-linejoin="round"/>
<path d="M9.73145 18.171H18.4705C18.2955 18.8886 17.945 19.5514 17.4505 20.1H10.7665C10.2697 19.5508 9.91439 18.8886 9.73145 18.171Z" fill="#14AF64" stroke="#333333" stroke-linecap="round" stroke-linejoin="round"/>
<path d="M18.54 16.371H9.66002C9.79384 15.5563 10.1499 14.7943 10.689 14.169C11.691 13.008 12.3 11.562 12.3 10.029V9.60004H15.9V10.071C15.9 11.583 16.509 13.011 17.502 14.154C18.0481 14.7817 18.4076 15.5497 18.54 16.371Z" fill="#14AF64" stroke="#333333" stroke-linecap="round" stroke-linejoin="round"/>
<path d="M18.5999 17.1C18.5999 17.4608 18.5566 17.8204 18.4709 18.171H9.7313C9.58376 17.5823 9.55924 16.9695 9.6593 16.371H18.5399C18.5797 16.6119 18.5998 16.8557 18.5999 17.1Z" fill="#14AF64" stroke="#333333" stroke-linecap="round" stroke-linejoin="round"/>
</svg>
