<svg width="24" height="24" viewBox="0 0 24 24" fill="none" xmlns="http://www.w3.org/2000/svg">
<path d="M16.9361 5.11893L16.9362 5.11902C18.2588 6.5026 19 8.35413 19 10.2833C19 12.2116 18.2594 14.0624 16.9379 15.4457C16.9373 15.4463 16.9368 15.4469 16.9362 15.4475L12 20.5603L7.06378 15.4475C7.06324 15.4469 7.0627 15.4464 7.06215 15.4458C5.74059 14.0624 5 12.2116 5 10.2833C5 8.35414 5.74119 6.5026 7.06378 5.11902L7.06387 5.11893C7.70518 4.44787 8.47282 3.91488 9.32071 3.55109C10.1686 3.18731 11.0797 3 12 3C12.9203 3 13.8314 3.18731 14.6793 3.55109C15.5272 3.91488 16.2948 4.44787 16.9361 5.11893Z" stroke="white" stroke-width="2"/>
<circle cx="12" cy="10" r="2" fill="white"/>
</svg>
