<svg width="140" height="140" viewBox="0 0 140 140" fill="none" xmlns="http://www.w3.org/2000/svg">
<g opacity="0.3">
<path d="M73 30H35V75M73 30H111V45H131C131 47.6264 130.483 50.2272 129.478 52.6537C128.472 55.0802 126.999 57.285 125.142 59.1421C123.285 60.9993 121.08 62.4725 118.654 63.4776C116.227 64.4827 113.626 65 111 65V89M73 30V55M35 75V110H111V89M35 75H52M73 65V75M89 89H73V75M111 89H99M73 75H61" stroke="#DDDDDD" stroke-width="2"/>
</g>
<circle opacity="0.2" cx="43" cy="86" r="5" fill="#606C66"/>
<circle cx="43" cy="86" r="2" fill="#606C66"/>
<line x1="32" y1="86" x2="42" y2="86" stroke="#606C66"/>
<circle cx="20" cy="86" r="12" fill="#606C66"/>
<path d="M19.3906 81.004C19.0546 81.368 18.6346 81.69 18.1306 81.998C17.6266 82.278 17.1646 82.474 16.7166 82.586V84.098C17.6406 83.832 18.4106 83.412 19.0126 82.838V91H20.5386V81.004H19.3906Z" fill="white"/>
<circle opacity="0.2" cx="61" cy="52" r="5" fill="#C8D0CC"/>
<circle cx="61" cy="52" r="2" fill="#C8D0CC"/>
<line x1="50" y1="52" x2="60" y2="52" stroke="#C8D0CC"/>
<circle cx="39" cy="52" r="12" fill="#C8D0CC"/>
<path d="M38.6567 46.808C37.5927 46.808 36.7247 47.158 36.0807 47.886C35.4507 48.558 35.1287 49.454 35.1147 50.574H36.6407C36.6687 49.762 36.8367 49.16 37.1727 48.74C37.4947 48.306 37.9707 48.096 38.6007 48.096C39.1887 48.096 39.6507 48.236 39.9587 48.516C40.2667 48.796 40.4207 49.216 40.4207 49.776C40.4207 50.364 40.1827 50.91 39.7347 51.414C39.4547 51.708 38.9787 52.086 38.3067 52.562C37.1727 53.346 36.4167 53.948 36.0527 54.382C35.3807 55.138 35.0587 56.006 35.0587 57H41.9467V55.656H36.9487C37.1587 55.11 37.8027 54.48 38.8807 53.766C39.8747 53.094 40.5607 52.562 40.9527 52.156C41.5967 51.442 41.9327 50.658 41.9327 49.79C41.9327 48.908 41.6247 48.194 41.0227 47.634C40.4067 47.074 39.6087 46.808 38.6567 46.808Z" fill="white"/>
<circle opacity="0.2" cx="103" cy="76" r="5" fill="#C8D0CC"/>
<circle cx="103" cy="76" r="2" fill="#C8D0CC"/>
<line x1="92" y1="76" x2="102" y2="76" stroke="#C8D0CC"/>
<circle cx="81" cy="76" r="12" fill="#C8D0CC"/>
<path d="M80.6007 70.808C79.6207 70.808 78.8227 71.074 78.2067 71.634C77.5487 72.194 77.1847 72.964 77.1007 73.958H78.5987C78.6547 73.342 78.8647 72.88 79.2007 72.572C79.5367 72.264 80.0127 72.11 80.6147 72.11C81.2027 72.11 81.6647 72.236 81.9727 72.516C82.2527 72.782 82.4067 73.16 82.4067 73.664C82.4067 74.168 82.2387 74.56 81.9307 74.826C81.6227 75.092 81.1607 75.232 80.5447 75.232H79.8307V76.38H80.5587C81.2167 76.38 81.7207 76.52 82.0567 76.8C82.4207 77.08 82.6027 77.514 82.6027 78.102C82.6027 78.606 82.4207 79.012 82.0847 79.348C81.6927 79.712 81.1747 79.908 80.5307 79.908C79.9427 79.908 79.4667 79.74 79.1027 79.404C78.6827 79.04 78.4727 78.522 78.4447 77.85H76.9047C76.9887 78.97 77.3807 79.824 78.0807 80.412C78.6967 80.93 79.5227 81.196 80.5447 81.196C81.6087 81.196 82.4907 80.888 83.1627 80.3C83.7927 79.712 84.1147 78.956 84.1147 78.032C84.1147 77.444 83.9467 76.954 83.6107 76.576C83.3027 76.212 82.8547 75.932 82.2667 75.75C83.3587 75.386 83.9187 74.644 83.9187 73.552C83.9187 72.698 83.6107 72.026 83.0227 71.536C82.4067 71.046 81.6087 70.808 80.6007 70.808Z" fill="white"/>
</svg>
