<svg width="60" height="60" viewBox="0 0 60 60" fill="none" xmlns="http://www.w3.org/2000/svg">
<path d="M56.13 36.2985L56.1195 40.449L58.9395 38.808L58.9995 16.869L56.1795 18.498L56.1495 31.389V31.4085" fill="white"/>
<path d="M56.13 36.2985L56.1195 40.449L58.9395 38.808L58.9995 16.869L56.1795 18.498L56.1495 31.389V31.4085" stroke="#333333" stroke-linecap="round" stroke-linejoin="round"/>
<path d="M30.642 4.06049L33.4605 2.42099L58.9965 16.8645L56.178 18.5025L30.642 4.06049Z" fill="white" stroke="#333333" stroke-linecap="round" stroke-linejoin="round"/>
<path d="M48.2505 35.9985L30.5805 26.0085L30.6105 16.659L30.6405 4.05899L56.1795 18.498L56.1495 31.389V31.4085" fill="white"/>
<path d="M48.2505 35.9985L30.5805 26.0085L30.6105 16.659L30.6405 4.05899L56.1795 18.498L56.1495 31.389V31.4085" stroke="#333333" stroke-linecap="round" stroke-linejoin="round"/>
<path d="M56.1299 36.2985L56.1194 40.449L52.5104 38.409" fill="white"/>
<path d="M56.1299 36.2985L56.1194 40.449L52.5104 38.409" stroke="#333333" stroke-linecap="round" stroke-linejoin="round"/>
<path d="M26.5605 48.5985L48.2505 35.9985L56.1495 31.4085L56.16 31.398" fill="#D9D9D9"/>
<path d="M26.5605 48.5985L48.2505 35.9985L56.1495 31.4085L56.16 31.398" stroke="#333333" stroke-linecap="round" stroke-linejoin="round"/>
<path d="M56.1495 36.288L56.13 36.2985L52.5105 38.409L30.0705 51.438L30.0495 51.4485" fill="#D9D9D9"/>
<path d="M56.1495 36.288L56.13 36.2985L52.5105 38.409L30.0705 51.438L30.0495 51.4485" stroke="#333333" stroke-linecap="round" stroke-linejoin="round"/>
<path d="M1.00653 33.8535V42.8385L4.54053 44.889L4.56003 40.7985L8.08953 42.8385L23.01 51.4485L23.0205 51.459H23.0295V55.5285L26.55 57.579L30.1005 55.5285L30.0705 51.438L56.1495 36.288L56.118 40.449L58.938 38.811L58.9965 16.8645L56.178 18.5025L56.16 31.398L26.5455 48.5985L1.00653 33.8535Z" fill="#D9D9D9" stroke="#333333" stroke-linecap="round" stroke-linejoin="round"/>
<path d="M1.01999 38.7585L1.00049 38.748L1.01999 33.858L26.5605 48.5985" fill="#D9D9D9"/>
<path d="M1.01999 38.7585L1.00049 38.748L1.01999 33.858L26.5605 48.5985" stroke="#333333" stroke-linecap="round" stroke-linejoin="round"/>
<path d="M56.16 31.395L26.556 48.5985L1.01849 33.8535L30.621 16.65L56.16 31.395Z" fill="#D9D9D9" stroke="#333333" stroke-linecap="round" stroke-linejoin="round"/>
<path d="M56.1585 28.134L56.148 31.395L26.5455 48.5985L26.5545 45.3375L56.1585 28.134Z" fill="white" stroke="#333333" stroke-linecap="round" stroke-linejoin="round"/>
<path d="M26.5545 45.3375L26.5455 48.5985L1.00647 33.8535L1.01547 30.594L26.5545 45.3375Z" fill="white" stroke="#333333" stroke-linecap="round" stroke-linejoin="round"/>
<path d="M56.1584 28.134L26.5544 45.3375L1.01544 30.594L30.6194 13.389L56.1584 28.134Z" fill="white" stroke="#333333" stroke-linecap="round" stroke-linejoin="round"/>
<path d="M26.5604 48.5985V57.579" stroke="#333333" stroke-linecap="round" stroke-linejoin="round"/>
<path d="M42.7455 18.189L42.7395 20.634L37.0995 23.9115L37.107 21.465L42.7455 18.189Z" fill="white" stroke="#333333" stroke-linecap="round" stroke-linejoin="round"/>
<path d="M37.107 21.465L37.0995 23.9115L28.5885 18.9975L28.596 16.551L37.107 21.465Z" fill="white" stroke="#333333" stroke-linecap="round" stroke-linejoin="round"/>
<path d="M42.7454 18.189L37.1069 21.465L28.5959 16.551L34.2344 13.275L42.7454 18.189Z" fill="white" stroke="#333333" stroke-linecap="round" stroke-linejoin="round"/>
<path d="M52.9125 24.1635L52.905 26.6085L47.2665 29.886L47.2725 27.441L52.9125 24.1635Z" fill="white" stroke="#333333" stroke-linecap="round" stroke-linejoin="round"/>
<path d="M47.2725 27.441L47.2665 29.886L38.7555 24.972L38.763 22.527L47.2725 27.441Z" fill="white" stroke="#333333" stroke-linecap="round" stroke-linejoin="round"/>
<path d="M52.9124 24.1635L47.2724 27.441L38.7629 22.527L44.4014 19.2495L52.9124 24.1635Z" fill="white" stroke="#333333" stroke-linecap="round" stroke-linejoin="round"/>
<path d="M46.4551 33.7725V37.05" stroke="#333333" stroke-linecap="round" stroke-linejoin="round"/>
<path d="M1.0155 30.594L20.64 19.1775L46.455 33.7725L26.5545 45.3375L1.0155 30.594Z" fill="#14AF64" stroke="#333333" stroke-linecap="round" stroke-linejoin="round"/>
</svg>
