<svg width="60" height="60" viewBox="0 0 60 60" fill="none" xmlns="http://www.w3.org/2000/svg">
<path d="M32.133 58.782L30.084 57.591L30.078 54.2535L32.127 55.4445L32.133 58.782Z" fill="#D9D9D9" stroke="#333333" stroke-linecap="round" stroke-linejoin="round"/>
<path d="M32.127 55.4445L30.078 54.2535L32.1375 53.064L34.188 54.255L32.127 55.4445Z" fill="#D9D9D9" stroke="#333333" stroke-linecap="round" stroke-linejoin="round"/>
<path d="M34.188 54.255L34.194 57.5925L32.133 58.782L32.127 55.4445L34.188 54.255Z" fill="#D9D9D9" stroke="#333333" stroke-linecap="round" stroke-linejoin="round"/>
<path d="M44.6175 51.6L42.5685 50.409L42.561 47.0715L44.6115 48.2625L44.6175 51.6Z" fill="#D9D9D9" stroke="#333333" stroke-linecap="round" stroke-linejoin="round"/>
<path d="M44.6115 48.2625L42.561 47.0715L44.622 45.882L46.671 47.0715L44.6115 48.2625Z" fill="#D9D9D9" stroke="#333333" stroke-linecap="round" stroke-linejoin="round"/>
<path d="M46.6709 47.0715L46.6784 50.409L44.6175 51.6L44.6115 48.2625L46.6709 47.0715Z" fill="#D9D9D9" stroke="#333333" stroke-linecap="round" stroke-linejoin="round"/>
<path d="M15.4905 49.089L13.4415 47.898L13.434 44.5605L15.4845 45.7515L15.4905 49.089Z" fill="#D9D9D9" stroke="#333333" stroke-linecap="round" stroke-linejoin="round"/>
<path d="M15.4845 45.7515L13.434 44.5605L15.495 43.371L17.5455 44.562L15.4845 45.7515Z" fill="#D9D9D9" stroke="#333333" stroke-linecap="round" stroke-linejoin="round"/>
<path d="M17.5455 44.562L17.5515 47.8995L15.4905 49.089L15.4845 45.7515L17.5455 44.562Z" fill="#D9D9D9" stroke="#333333" stroke-linecap="round" stroke-linejoin="round"/>
<path d="M32.148 55.662L13.425 44.7825L13.3305 11.388L32.052 22.2675L32.148 55.662Z" fill="white" stroke="#333333" stroke-linecap="round" stroke-linejoin="round"/>
<path d="M32.052 22.2675L13.3305 11.388L27.861 2.9985L46.584 13.878L32.052 22.2675Z" fill="white" stroke="#333333" stroke-linecap="round" stroke-linejoin="round"/>
<path d="M46.584 13.878L46.6785 47.2725L32.148 55.662L32.052 22.2675L46.584 13.878Z" fill="white" stroke="#333333" stroke-linecap="round" stroke-linejoin="round"/>
<path d="M47.5005 12.9045L47.4915 16.065L32.742 24.636L32.751 21.4755L47.5005 12.9045Z" fill="white" stroke="#333333" stroke-linecap="round" stroke-linejoin="round"/>
<path d="M32.751 21.4755L32.742 24.636L12.4995 12.9495L12.5085 9.78903L32.751 21.4755Z" fill="white" stroke="#333333" stroke-linecap="round" stroke-linejoin="round"/>
<path d="M47.5005 12.9045L32.751 21.4755L12.5085 9.78902L27.258 1.21802L47.5005 12.9045Z" fill="white" stroke="#333333" stroke-linecap="round" stroke-linejoin="round"/>
<path d="M15.2685 23.5245V18.5625L30.2085 27.1875V32.208L15.2685 23.5245Z" fill="#14AF64" stroke="#333333" stroke-linecap="round" stroke-linejoin="round"/>
<path d="M20.748 23.652V21.7485L24.729 24.048V25.9665L20.748 23.652Z" fill="white" stroke="#333333" stroke-linecap="round" stroke-linejoin="round"/>
<path d="M15.2685 41.511V36.549L30.2085 45.174V50.1945L15.2685 41.511Z" fill="#14AF64" stroke="#333333" stroke-linecap="round" stroke-linejoin="round"/>
<path d="M20.748 41.6385V39.7365L24.729 42.0345V43.953L20.748 41.6385Z" fill="white" stroke="#333333" stroke-linecap="round" stroke-linejoin="round"/>
<path d="M15.2685 32.334V27.372L30.2085 35.997V41.016L15.2685 32.334Z" fill="#14AF64" stroke="#333333" stroke-linecap="round" stroke-linejoin="round"/>
<path d="M20.748 32.4615V30.558L24.729 32.8575V34.776L20.748 32.4615Z" fill="white" stroke="#333333" stroke-linecap="round" stroke-linejoin="round"/>
</svg>
