<svg width="60" height="60" viewBox="0 0 60 60" fill="none" xmlns="http://www.w3.org/2000/svg">
<path d="M12.2385 22.9305L8.10004 46.8L10.8105 48.375L15.435 21.7035L14.6685 21.2535C13.8911 21.8583 13.0798 22.4182 12.2385 22.9305Z" fill="#D9D9D9" stroke="#333333" stroke-linecap="round" stroke-linejoin="round"/>
<path d="M17.6086 18.9135C17.5336 18.9735 17.4586 19.035 17.3836 19.0965C17.2336 19.2225 17.0836 19.35 16.9336 19.479C16.2841 20.043 15.6091 20.559 14.9191 21.0705L14.6671 21.258L15.4336 21.708L18.9901 19.65L17.6581 18.876L17.6086 18.9135Z" fill="#D9D9D9" stroke="#333333" stroke-linecap="round" stroke-linejoin="round"/>
<path d="M18.99 19.6515L12.936 47.157L10.8165 48.3795L15.435 21.7035L18.99 19.6515Z" fill="#D9D9D9" stroke="#333333" stroke-linecap="round" stroke-linejoin="round"/>
<path d="M28.7025 38.061L26.6685 36.879L20.484 16.44L22.518 17.622L28.7025 38.061Z" fill="#D9D9D9" stroke="#333333" stroke-linecap="round" stroke-linejoin="round"/>
<path d="M22.518 17.622L20.484 16.44L24.0405 14.3865L26.0745 15.5685L22.518 17.622Z" fill="#D9D9D9" stroke="#333333" stroke-linecap="round" stroke-linejoin="round"/>
<path d="M26.0745 15.5685L30.8205 36.837L28.7025 38.061L22.518 17.622L26.0745 15.5685Z" fill="#D9D9D9" stroke="#333333" stroke-linecap="round" stroke-linejoin="round"/>
<path d="M31.35 12.5055L8.29951 25.896C7.54951 26.3325 6.32551 26.3325 5.57101 25.896C5.19451 25.6785 5.00551 25.3905 5.00701 25.104L4.99951 27.456C4.99951 27.7425 5.18701 28.0305 5.56351 28.248C6.31351 28.683 7.54351 28.683 8.29351 28.248L31.3365 14.8575C31.71 14.6415 31.896 14.3565 31.8975 14.073V11.7195C31.9035 12 31.716 12.288 31.35 12.5055Z" fill="#14AF64" stroke="#333333" stroke-linecap="round" stroke-linejoin="round"/>
<path d="M31.335 10.9245C32.085 11.3595 32.094 12.069 31.344 12.5055L8.29952 25.896C7.54952 26.3325 6.32552 26.3325 5.57102 25.896C4.81652 25.4595 4.82102 24.7545 5.57102 24.3195L28.611 10.9275C29.361 10.491 30.585 10.491 31.335 10.9245Z" fill="#14AF64" stroke="#333333" stroke-linecap="round" stroke-linejoin="round"/>
<path d="M36.612 1.76101C36.5703 1.73713 36.5272 1.71559 36.483 1.69651C35.94 1.46101 35.2905 1.57951 34.653 1.94701C33.7095 2.49151 32.7945 3.58201 32.292 4.87951L26.4 20.1L44.025 30.342L49.9185 15.123C50.421 13.824 51.336 12.7335 52.2795 12.189C52.9155 11.8215 53.5665 11.703 54.1095 11.9385C54.1545 11.958 54.1965 11.9805 54.2385 12.003L36.612 1.76101Z" fill="white" stroke="#333333" stroke-linecap="round" stroke-linejoin="round"/>
<path d="M26.4 20.1L12.6075 28.062C11.1825 28.8855 9.90748 30.819 9.78448 32.526C9.70648 33.555 10.0215 34.275 10.569 34.593L28.2 44.8365C27.6525 44.517 27.3375 43.7985 27.4155 42.7695C27.5445 41.061 28.8135 39.1275 30.2385 38.3055L44.0295 30.342L26.4 20.1Z" fill="white" stroke="#333333" stroke-linecap="round" stroke-linejoin="round"/>
<path d="M52.278 12.189C52.914 11.8215 53.565 11.703 54.108 11.9385C55.0875 12.363 55.2645 13.95 54.618 15.624L48.3645 31.7655C47.6385 33.642 46.29 35.3175 44.8275 36.162L30.1275 44.646C28.53 45.567 27.255 44.7285 27.4035 42.7695C27.5325 41.061 28.8015 39.1275 30.2265 38.3055L44.0175 30.342L49.911 15.123C50.4195 13.824 51.3345 12.7335 52.278 12.189Z" fill="white" stroke="#333333" stroke-linecap="round" stroke-linejoin="round"/>
<path d="M31.098 32.5875L26.898 56.85L29.61 58.425L34.227 31.7505L33.177 31.1505C32.5164 31.6748 31.8219 32.1548 31.098 32.5875Z" fill="#D9D9D9" stroke="#333333" stroke-linecap="round" stroke-linejoin="round"/>
<path d="M36.348 28.9965L36.261 29.0385C36.1785 29.0775 36.0975 29.118 36.0165 29.16C35.853 29.247 35.6925 29.3385 35.5335 29.4345C35.193 29.64 34.866 29.8665 34.5435 30.1005C34.3935 30.2145 34.2345 30.333 34.08 30.4485L34.0635 30.459L34.0275 30.489L33.7965 30.669L33.1845 31.1445L34.2345 31.7445L37.782 29.7L36.492 28.95L36.348 28.9965Z" fill="#D9D9D9" stroke="#333333" stroke-linecap="round" stroke-linejoin="round"/>
<path d="M37.7835 29.697L31.728 57.2025L29.61 58.425L34.227 31.7505L37.7835 29.697Z" fill="#D9D9D9" stroke="#333333" stroke-linecap="round" stroke-linejoin="round"/>
<path d="M47.4945 48.1065L45.462 46.9245L39.2775 26.4855L41.31 27.6675L47.4945 48.1065Z" fill="#D9D9D9" stroke="#333333" stroke-linecap="round" stroke-linejoin="round"/>
<path d="M41.31 27.6675L39.2775 26.4855L42.8325 24.432L44.8665 25.614L41.31 27.6675Z" fill="#D9D9D9" stroke="#333333" stroke-linecap="round" stroke-linejoin="round"/>
<path d="M44.8665 25.614L49.614 46.884L47.4945 48.1065L41.31 27.6675L44.8665 25.614Z" fill="#D9D9D9" stroke="#333333" stroke-linecap="round" stroke-linejoin="round"/>
<path d="M50.136 22.551L27.093 35.943C26.343 36.378 25.119 36.378 24.363 35.943C23.9865 35.7255 23.799 35.439 23.799 35.151V37.503C23.799 37.791 23.9865 38.0775 24.3615 38.295C25.1115 38.7315 26.3415 38.7315 27.0915 38.295L50.13 24.9C50.502 24.684 50.688 24.399 50.6895 24.1155V21.7635C50.7 22.05 50.5095 22.335 50.136 22.551Z" fill="#14AF64" stroke="#333333" stroke-linecap="round" stroke-linejoin="round"/>
<path d="M50.127 20.97C50.877 21.4065 50.886 22.1145 50.136 22.551L27.093 35.943C26.343 36.378 25.1175 36.378 24.363 35.943C23.6085 35.508 23.613 34.8015 24.363 34.365L47.4 20.973C48.15 20.538 49.3785 20.538 50.127 20.97Z" fill="#14AF64" stroke="#333333" stroke-linecap="round" stroke-linejoin="round"/>
</svg>
