<svg width="240" height="57" viewBox="0 0 240 57" fill="none" xmlns="http://www.w3.org/2000/svg">
<path d="M240 18.8182V47.1818H234.545V51.5455H230.182V57H9.81818V51.5455H4.99855V47.1818H0L0 18.8182H5.45455V14.0048H9.81818V9H230.182V14.4545H234.545V18.8182H240Z" fill="#454EFF"/>
<path d="M240 9.81818V38.1818H234.545V42.5455H230.182V48H9.81818V42.5455H4.99855V38.1818H0L0 9.81818H5.45455V5.00481H9.81818V0H230.182V5.45455H234.545V9.81818H240Z" fill="#969BFF"/>
<path d="M29.128 13.608L27.424 15.24C29.08 16.488 30.376 17.688 31.312 18.792L33.016 17.064C31.96 15.912 30.664 14.76 29.128 13.608ZM25.936 20.424V22.824H29.032V31.248C29.032 31.776 28.816 32.232 28.408 32.592L29.368 34.848C31.144 33.696 32.824 32.424 34.408 30.984L33.712 28.344C32.92 29.088 32.176 29.76 31.48 30.384V20.424H25.936ZM34.528 23.304V25.704H35.896C36.472 27.576 37.552 29.256 39.088 30.792C37.36 31.896 35.272 32.808 32.8 33.528L34.192 35.64C36.928 34.848 39.208 33.792 41.08 32.472C42.664 33.648 44.656 34.704 47.008 35.664L48.352 33.504C46.216 32.76 44.416 31.92 42.928 30.96C44.464 29.448 45.568 27.648 46.24 25.584V23.304H34.528ZM38.248 25.704H43.72C43.048 27.096 42.112 28.32 40.888 29.424C39.64 28.32 38.776 27.072 38.248 25.704ZM36.16 14.016V17.28C36.16 18.84 35.128 20.04 33.112 20.88L34.792 22.8C37.336 21.456 38.632 19.512 38.632 17.016V16.368H42.328V19.56C42.328 21.24 43.216 22.08 45.016 22.08H47.752V19.8H45.688C45.088 19.8 44.8 19.512 44.8 18.984V14.016H36.16ZM57.496 20.208V22.704H63.688V35.568H66.28V22.704H72.16V20.208H66.28V13.248H63.688V20.208H57.496ZM53.272 13.44L51.496 15.168C53.2 16.416 54.52 17.592 55.432 18.696L57.16 16.944C56.08 15.792 54.784 14.616 53.272 13.44ZM49.936 20.376V22.776H53.224V31.296C53.224 31.8 53.008 32.232 52.576 32.592L53.536 34.848C55.312 33.696 56.968 32.4 58.528 30.96L57.88 28.392C57.088 29.136 56.344 29.808 55.648 30.408V20.376H49.936ZM77.752 13.824L75.856 15.192C77.152 16.536 78.208 17.784 79 18.888L80.968 17.544C80.2 16.464 79.144 15.216 77.752 13.824ZM86.44 23.904L84.424 25.176C85.912 27 87.112 28.656 88 30.144L90.208 28.608C89.32 27.264 88.072 25.704 86.44 23.904ZM82.48 13.272V16.896C82.456 17.592 82.408 18.288 82.36 18.984H74.92V21.432H82.096C81.784 23.592 81.28 25.464 80.608 27.072C79.48 29.52 77.32 31.56 74.104 33.192L75.52 35.424C78.76 33.912 81.088 31.752 82.504 28.968C83.512 26.952 84.208 24.432 84.616 21.432H92.056C92.056 24.264 91.984 26.904 91.84 29.304C91.696 31.704 91.12 32.952 90.136 33.048C89.008 33.048 87.76 32.952 86.416 32.808L87.088 35.232C87.952 35.328 89.008 35.376 90.256 35.376C91.888 35.376 93.04 34.392 93.688 32.472C94.312 30.552 94.624 26.04 94.624 18.984H84.856C84.904 18.312 84.928 17.616 84.952 16.896V13.272H82.48ZM103.072 19.848H108.16V24.552H101.392V26.976H108.16V32.208H98.488V34.704H119.848V32.208H110.68V26.976H117.832V24.552H110.68V19.848H118.288V17.424H110.68V13.488H108.16V17.424H103.984C104.272 16.512 104.512 15.528 104.728 14.496L102.16 14.016C101.416 17.832 99.976 20.856 97.816 23.112L99.472 25.2C100.936 23.76 102.136 21.96 103.072 19.848ZM131.008 17.184H127.36C127.792 16.08 128.152 14.856 128.416 13.56L125.896 13.224C125.704 14.592 125.392 15.912 124.96 17.184H122.656V34.704H125.056V32.808H128.608V34.008H131.008V17.184ZM125.056 30.504V25.968H128.608V30.504H125.056ZM125.056 23.736V19.536H128.608V23.736H125.056ZM135.376 23.016L133.336 24.288C134.824 26.208 136.024 27.96 136.912 29.544L138.928 28.152C138.088 26.664 136.912 24.96 135.376 23.016ZM143.368 17.184H136.072C136.432 16.032 136.744 14.808 136.984 13.512L134.512 13.2C133.936 16.488 132.88 19.272 131.296 21.528L132.808 23.52C133.696 22.368 134.464 21.072 135.112 19.632H140.92C140.872 26.424 140.8 30.384 140.656 31.536C140.512 32.472 140.008 32.952 139.144 32.952C138.352 32.952 137.416 32.904 136.36 32.832L136.96 35.112C138.208 35.208 139.072 35.256 139.552 35.256C141.616 35.256 142.768 34.416 143.008 32.736C143.248 30.768 143.368 25.584 143.368 17.184ZM146.104 20.304V22.704H152.128C151.624 24.336 151.096 25.944 150.52 27.48H162.064C160.936 28.704 159.376 29.928 157.408 31.128C155.92 30.648 154.36 30.216 152.728 29.808L151.408 31.776C155.152 32.712 158.776 34.008 162.328 35.664L163.72 33.504C162.568 33 161.392 32.52 160.144 32.088C162.376 30.48 164.032 28.896 165.088 27.336V25.176H154.096C154.36 24.408 154.624 23.568 154.888 22.704H167.896V20.304H155.536C155.704 19.584 155.872 18.864 156.04 18.096H166.456V15.768H156.544C156.688 14.952 156.856 14.136 157 13.272L154.432 13.056C154.24 13.968 154.072 14.856 153.88 15.768H147.76V18.096H153.352C153.16 18.816 152.992 19.56 152.8 20.304H146.104ZM177.136 13.44V32.232H170.272V34.68H191.728V32.232H184.816V13.44H182.296V32.232H179.656V13.44H177.136ZM189.064 17.976C188.056 22.248 186.904 25.8 185.56 28.584L187.816 29.376C189.208 26.304 190.36 22.704 191.272 18.6L189.064 17.976ZM172.84 17.904L170.704 18.624C171.952 22.104 172.96 25.704 173.776 29.448L176.056 28.896C175.12 24.768 174.04 21.096 172.84 17.904ZM206.176 13.32H203.632C203.632 14.232 203.608 15.48 203.608 17.088C203.416 23.976 200.128 29.352 193.696 33.192L195.232 35.448C200.224 32.232 203.512 28.176 205.096 23.28C206.944 28.344 210.112 32.376 214.6 35.4L216.28 33.192C210.832 29.856 207.4 25.032 206.008 18.72C206.104 17.232 206.176 15.432 206.176 13.32Z" fill="black"/>
</svg>
