<svg width="240" height="57" viewBox="0 0 240 57" fill="none" xmlns="http://www.w3.org/2000/svg">
<path d="M240 18.8182V47.1818H234.545V51.5455H230.182V57H9.81818V51.5455H4.99855V47.1818H0L0 18.8182H5.45455V14.0048H9.81818V9H230.182V14.4545H234.545V18.8182H240Z" fill="#D8C800"/>
<path d="M240 9.81818V38.1818H234.545V42.5455H230.182V48H9.81818V42.5455H4.99855V38.1818H0L0 9.81818H5.45455V5.00481H9.81818V0H230.182V5.45455H234.545V9.81818H240Z" fill="#FFEC00"/>
<path d="M30.808 22.368H39.544V24.288H30.808V22.368ZM39.544 26.448V28.32H30.808V26.448H39.544ZM39.544 30.48V32.424C39.544 32.952 39.256 33.216 38.68 33.216C37.912 33.216 37.072 33.168 36.184 33.096L36.784 35.352H39.472C41.08 35.304 41.896 34.608 41.896 33.216V20.208H31.048C31.456 19.512 31.84 18.816 32.224 18.096H44.728V15.672H33.28C33.544 14.952 33.784 14.208 34.024 13.44L31.456 13.128C31.192 13.992 30.88 14.832 30.52 15.672H23.536V18.096H29.32C27.736 20.832 25.6 23.28 22.888 25.416L24.52 27.552C25.96 26.376 27.28 25.104 28.456 23.76V35.472H30.808V30.48H39.544ZM55.84 26.256C55.552 29.568 53.944 31.92 50.968 33.288L52.336 35.472C54.784 34.224 56.488 32.448 57.496 30.168H64.576C64.456 31.488 64.384 32.28 64.336 32.52C64.24 32.76 64.048 32.928 63.76 33.024C63.424 33.12 62.68 33.192 61.504 33.192C60.976 33.192 60.472 33.168 59.944 33.12L60.616 35.376H60.856C63.184 35.376 64.672 35.256 65.32 35.064C65.944 34.872 66.376 34.488 66.592 33.912C66.784 33.336 66.976 31.344 67.12 27.912H58.168C58.264 27.384 58.336 26.832 58.384 26.256H68.728V23.904H61.408C61.216 23.232 61.024 22.608 60.832 22.056L58.168 22.488C58.384 22.92 58.576 23.4 58.768 23.904H52.384V26.256H55.84ZM65.128 17.232V19.512H51.712V17.232H65.128ZM51.712 21.816H67.6V14.904H59.776C59.56 14.232 59.344 13.608 59.128 13.032L56.416 13.464C56.632 13.896 56.848 14.376 57.04 14.904H49.192V23.568C49.168 27.768 48.352 31.2 46.72 33.84L48.592 35.52C50.656 32.184 51.688 28.2 51.712 23.568V21.816ZM71.296 14.04V16.296H78.112V17.88H72.712V24.36H78.688C78.4 24.84 78.088 25.344 77.8 25.872H70.984V28.176H76.36C75.88 28.92 75.376 29.664 74.848 30.432C76.624 30.84 78.4 31.296 80.2 31.824C78.088 32.472 75.232 33 71.584 33.384L72.52 35.64C77.656 34.944 81.328 34.032 83.584 32.88C86.104 33.696 88.624 34.656 91.144 35.712L92.704 33.648C90.352 32.76 88.072 31.992 85.816 31.32C86.824 30.408 87.568 29.376 88.024 28.176H92.992V25.872H80.656L81.52 24.36H91.288V17.88H85.888V16.296H92.704V14.04H71.296ZM83.128 30.552C81.52 30.12 79.936 29.736 78.4 29.424C78.64 29.04 78.928 28.632 79.24 28.176H85.432C84.952 29.088 84.184 29.88 83.128 30.552ZM83.512 17.88H80.488V16.296H83.512V17.88ZM88.888 22.248H85.888V19.992H88.888V22.248ZM83.512 22.248H80.488V19.992H83.512V22.248ZM78.112 22.248H75.112V19.992H78.112V22.248ZM100.912 13.296V18.96C99.256 19.824 97.36 20.568 95.224 21.192L96.208 23.448C97.984 22.8 99.544 22.104 100.912 21.36V24.288H103.456V13.296H100.912ZM104.464 15.792V18.024H109.24V20.856H105.208V23.088H115.84V20.856H111.76V18.024H116.512V15.792H111.76V13.248H109.24V15.792H104.464ZM96.928 14.208L95.608 16.152C96.88 16.68 98.128 17.4 99.376 18.336L100.6 16.392C99.496 15.528 98.272 14.808 96.928 14.208ZM95.272 25.224V27.48H103.312C101.464 28.824 98.752 29.952 95.152 30.864L96.448 32.976C97.84 32.52 99.112 32.016 100.312 31.464V32.232C100.312 32.76 99.952 33.168 99.28 33.432L99.808 35.568C102.88 34.992 105.52 34.392 107.68 33.768L107.296 31.56C105.808 32.04 104.248 32.472 102.592 32.832V30.264C103.888 29.472 105.016 28.608 105.952 27.648C107.992 31.464 111.184 34.128 115.528 35.616L116.992 33.456C115.216 32.928 113.632 32.232 112.24 31.344C113.368 30.624 114.376 29.808 115.24 28.896L113.656 27.48H116.728V25.224H107.752C107.368 24.48 106.96 23.784 106.48 23.16L104.176 23.928C104.512 24.336 104.824 24.768 105.112 25.224H95.272ZM108.256 27.48H113.344C112.528 28.416 111.568 29.256 110.464 30C109.624 29.28 108.88 28.44 108.256 27.48ZM128.008 17.184H124.36C124.792 16.08 125.152 14.856 125.416 13.56L122.896 13.224C122.704 14.592 122.392 15.912 121.96 17.184H119.656V34.704H122.056V32.808H125.608V34.008H128.008V17.184ZM122.056 30.504V25.968H125.608V30.504H122.056ZM122.056 23.736V19.536H125.608V23.736H122.056ZM132.376 23.016L130.336 24.288C131.824 26.208 133.024 27.96 133.912 29.544L135.928 28.152C135.088 26.664 133.912 24.96 132.376 23.016ZM140.368 17.184H133.072C133.432 16.032 133.744 14.808 133.984 13.512L131.512 13.2C130.936 16.488 129.88 19.272 128.296 21.528L129.808 23.52C130.696 22.368 131.464 21.072 132.112 19.632H137.92C137.872 26.424 137.8 30.384 137.656 31.536C137.512 32.472 137.008 32.952 136.144 32.952C135.352 32.952 134.416 32.904 133.36 32.832L133.96 35.112C135.208 35.208 136.072 35.256 136.552 35.256C138.616 35.256 139.768 34.416 140.008 32.736C140.248 30.768 140.368 25.584 140.368 17.184ZM143.992 14.712V17.088H153.016V14.712H143.992ZM143.104 21.168V23.616H146.08C145.048 27.504 144.208 29.904 143.584 30.816C143.488 30.888 143.32 30.96 143.08 31.032L143.656 33.384C146.536 32.856 149.248 32.184 151.768 31.32C151.96 31.776 152.152 32.256 152.344 32.784L154.408 31.728C153.88 32.568 153.28 33.336 152.584 34.008L154.48 35.664C157.744 32.472 159.4 27.432 159.472 20.544V20.352H162.208C162.16 26.712 162.088 30.432 161.944 31.512C161.752 32.568 161.176 33.096 160.168 33.096C159.544 33.096 158.824 33.048 157.984 33L158.56 35.184C159.52 35.256 160.168 35.304 160.552 35.304C162.76 35.304 164.008 34.416 164.296 32.64C164.512 30.768 164.632 25.872 164.632 17.952H159.472V13.344H156.976V17.952H154.024V20.352H156.976V20.544C156.928 25.104 156.112 28.8 154.504 31.584C153.496 29.184 152.44 27 151.384 25.032L149.296 26.04C149.824 27.048 150.352 28.104 150.88 29.256C149.416 29.784 147.928 30.24 146.416 30.576C147.016 29.04 147.712 26.736 148.504 23.616H153.88V21.168H143.104ZM185.896 13.44C181.192 14.496 175.456 15.024 168.664 15.024L169.456 17.28C172.216 17.28 174.784 17.184 177.184 17.04V20.064H169.168V22.512H177.184V25.68H167.176V28.104H177.184V32.256C177.184 32.76 176.848 33.024 176.224 33.024C175.12 33.024 173.992 32.976 172.792 32.88L173.368 35.304H177.088C178.816 35.304 179.704 34.488 179.704 32.856V28.104H188.848V25.68H179.704V22.512H187.048V20.064H179.704V16.824C182.488 16.536 184.96 16.104 187.12 15.552L185.896 13.44ZM204.352 22.992H205.504C205.456 24 205.384 24.936 205.288 25.8H202.6C203.248 25.032 203.824 24.096 204.352 22.992ZM207.856 22.992H211.48V20.712H205.24C205.384 20.232 205.528 19.728 205.672 19.2L203.632 18.768C202.912 21.072 202.048 22.872 201.088 24.12L202.456 25.8H200.656V28.224H204.784C204.76 28.296 204.736 28.392 204.712 28.512C204.04 30.528 202.576 32.232 200.368 33.648L201.952 35.592C204.352 34.056 205.936 32.16 206.752 29.904C208 32.592 209.728 34.488 211.912 35.592L213.256 33.432C210.928 32.472 209.176 30.72 208.024 28.224H212.656V25.8H207.664C207.76 24.936 207.808 24 207.856 22.992ZM191.344 16.464V18.84H193.096V22.584C193.072 27.816 192.28 31.632 190.72 33.984L192.568 35.64C194.344 33.096 195.328 29.16 195.496 23.832H197.512C197.464 28.536 197.392 31.272 197.296 32.064C197.152 32.832 196.696 33.24 195.904 33.24C195.52 33.24 195.04 33.192 194.512 33.144L195.04 35.208C195.616 35.28 196.048 35.328 196.288 35.328C198.208 35.328 199.288 34.584 199.504 33.144C199.72 31.656 199.84 27.792 199.84 21.528H195.52V18.84H199.912V16.464H197.08C196.696 15.312 196.312 14.304 195.928 13.392L193.408 13.824C193.888 14.64 194.296 15.504 194.68 16.464H191.344ZM203.152 18.096H212.248V15.72H204.064C204.28 15.096 204.496 14.472 204.688 13.8L202.36 13.272C201.52 16.248 200.536 18.552 199.408 20.184L200.944 22.056C201.736 20.928 202.48 19.608 203.152 18.096Z" fill="black"/>
</svg>
