<svg width="40" height="40" viewBox="0 0 40 40" fill="none" xmlns="http://www.w3.org/2000/svg">
<circle opacity="0.1" cx="20" cy="20" r="20" fill="black"/>
<path d="M19.7027 19.1321C19.8855 19.2245 20.1045 19.2225 20.2873 19.1281L28.996 14.5899C28.9357 13.5794 28.096 12.7778 27.0714 12.7778H12.9286C11.8658 12.7778 11 13.6437 11 14.7064V14.7827L19.7027 19.1321Z" fill="#606C66"/>
<path d="M20.8819 19.9452C20.6047 20.0898 20.2973 20.1621 19.99 20.1621C19.6946 20.1621 19.3993 20.0938 19.1281 19.9592L11 15.8972L11 25.2956C11 26.3583 11.8658 27.2241 12.9286 27.2241H27.0714C28.1342 27.2241 29 26.3583 29 25.2956V15.7144L20.8819 19.9452Z" fill="#606C66"/>
</svg>
