<?xml version="1.0" encoding="UTF-8"?>
<svg width="308px" height="98px" viewBox="0 0 308 98" version="1.1" xmlns="http://www.w3.org/2000/svg" xmlns:xlink="http://www.w3.org/1999/xlink">
    <title>进入班级按钮</title>
    <g id="页面-1" stroke="none" stroke-width="1" fill="none" fill-rule="evenodd">
        <g id="首页" transform="translate(-805.000000, -797.000000)">
            <g id="编组-8" transform="translate(805.000000, 797.000000)">
                <g id="编组" transform="translate(13.000000, 11.227973)">
                    <polygon id="Fill-1" fill="#FFFFFF" points="7.009 76.5329276 283.806 76.5329276 283.806 7.15323966 7.009 7.15323966"></polygon>
                    <polygon id="Stroke-2" stroke="#000000" stroke-width="3" points="7.009 76.5329276 283.806 76.5329276 283.806 7.15323966 7.009 7.15323966"></polygon>
                    <polygon id="Fill-4" fill="#7A55FF" points="162.6716 0.510260346 115.1266 0.510260346 0.5006 0.510260346 0.5006 69.8899483 277.2976 69.8899483 277.2976 0.510260346"></polygon>
                    <g transform="translate(0.000000, 0.353171)">
                        <polygon id="Stroke-5" stroke="#282828" stroke-width="3" stroke-linejoin="round" points="162.6716 0.157089553 115.1266 0.157089553 0.5006 0.157089553 0.5006 69.5367775 277.2976 69.5367775 277.2976 0.157089553"></polygon>
                        <path d="M59.3022434,24.938038 L64.1753321,20.8551799 C62.6826743,18.8796034 59.4339485,15.8942878 57.1071584,13.8309079 L52.5852833,17.4308473 C54.9120734,19.669834 57.9851924,22.8746581 59.3022434,24.938038 Z M70.3215701,47.8108237 C73.3068857,45.2645251 74.9312486,41.5767823 75.8531843,37.7573344 L80.5067645,37.7573344 L80.5067645,46.888888 L86.872511,46.888888 L86.872511,37.7573344 L92.4480269,37.7573344 L92.4480269,31.6549981 L86.872511,31.6549981 L86.872511,26.5184992 L91.5260912,26.5184992 L91.5260912,20.3722612 L86.872511,20.3722612 L86.872511,14.4894334 L80.5067645,14.4894334 L80.5067645,20.3722612 L76.8190217,20.3722612 L76.8190217,14.40163 L70.4971769,14.40163 L70.4971769,20.3722612 L65.4045797,20.3722612 L65.4045797,26.5184992 L70.4971769,26.5184992 L70.4971769,28.011157 C70.4971769,29.1965029 70.4971769,30.4257505 70.4093735,31.6549981 L64.9655627,31.6549981 L64.9655627,37.7573344 L69.2240276,37.7573344 C68.5216004,39.8207143 67.3362545,41.7084874 65.5362848,43.3328503 C66.8533358,44.1669826 69.3996344,46.5815761 70.3215701,47.8108237 Z M80.5067645,31.6549981 L76.6873166,31.6549981 C76.77512,30.4257505 76.8190217,29.2404046 76.8190217,28.0989604 L76.8190217,26.5184992 L80.5067645,26.5184992 L80.5067645,31.6549981 Z M55.3071887,55.0107025 C56.5364363,52.6400107 58.336406,49.6107934 59.5656536,49.6107934 C60.5753927,49.6107934 62.1119522,50.8839427 64.2192338,51.9375835 C67.555763,53.6058481 71.3313092,54.1326685 76.9507268,54.1326685 C81.6482087,54.1326685 88.5846773,53.8692583 91.701698,53.6497498 C91.7895014,51.8936818 92.8431422,48.7327594 93.5455694,47.0205931 C89.0236943,47.766922 81.5604053,48.1620373 77.214137,48.1620373 C72.3410483,48.1620373 68.0825834,47.9425288 65.0533661,46.3181659 C64.2631355,45.9230506 63.5607083,45.5279353 62.9899862,45.1767217 L62.9899862,29.0647978 L52.1462663,29.0647978 L52.1462663,34.9476256 L56.7120431,34.9476256 L56.7120431,44.6059996 C54.9120734,45.4401319 52.8925952,46.9327897 51.0487238,48.8644645 L55.3071887,55.0107025 Z M134.549757,54.4399804 C134.900971,52.4644039 136.613137,48.8205628 137.622876,47.0644948 C123.706037,37.9768429 123.662136,23.3136751 109.613592,12.9528739 L105.662439,18.4844881 C108.340442,20.2405561 110.535527,22.5234445 112.467202,25.0697431 C109.964805,36.3085783 104.608798,44.5620979 95.5211459,48.9522679 C97.1894105,50.1376138 100.218628,52.8156175 101.360072,54.1765702 C108.823361,49.7424985 114.135467,42.7182265 117.603701,33.3232627 C121.993871,41.2255687 126.032827,49.6546951 134.549757,54.4399804 Z M155.710377,54.8350957 C164.095601,49.6985968 165.149242,41.4889789 165.149242,32.401327 L165.149242,13.084579 L159.573726,13.084579 L159.573726,32.3574253 C159.573726,39.6451075 158.695692,46.1425591 151.803125,50.2693189 C153.032373,51.2351563 154.920146,53.474143 155.710377,54.8350957 Z M139.77406,51.5863699 C143.856918,50.7083359 148.949515,49.5668917 153.646997,48.4693492 L153.032373,42.8938333 L149.432434,43.6401622 L149.432434,35.6061511 L152.110437,35.6061511 C151.93483,36.1329715 151.715322,36.6158902 151.495813,37.0988089 L155.754278,40.2597313 C158.168872,35.8256596 158.300577,29.2404046 158.38838,22.6112479 L153.559193,22.0405258 C153.515292,26.4306958 153.383587,30.4257505 152.681159,33.6305746 L152.681159,29.9428318 L149.432434,29.9428318 L149.432434,21.3380986 L153.603095,21.3380986 L153.603095,15.5869759 L139.730158,15.5869759 L139.730158,21.3380986 L143.637409,21.3380986 L143.637409,29.9428318 L139.993568,29.9428318 L139.993568,35.6061511 L143.637409,35.6061511 L143.637409,44.8255081 C141.837439,45.1767217 140.125273,45.4840336 138.720419,45.7035421 L139.77406,51.5863699 Z M180.997756,53.474143 L180.997756,47.5913152 L176.300274,47.5913152 L176.300274,36.6158902 L180.031918,36.6158902 L180.031918,30.9525709 L176.300274,30.9525709 L176.300274,21.3380986 L180.427034,21.3380986 L180.427034,15.5869759 L166.158981,15.5869759 L166.158981,21.3380986 L170.241839,21.3380986 L170.241839,30.9525709 L166.554097,30.9525709 L166.554097,36.6158902 L170.241839,36.6158902 L170.241839,47.5913152 L164.183405,47.5913152 L164.183405,53.474143 L180.997756,53.474143 Z M184.861105,44.0352775 C186.134255,43.1572435 188.153733,42.3670129 199.260863,39.2499922 C199.041355,37.9329412 198.909649,35.5183477 198.997453,33.8939848 L193.773151,35.2110358 C196.275547,32.0062117 198.646239,28.450174 200.534012,24.938038 L195.485317,21.6893122 C194.78289,23.2258717 193.948757,24.8063329 193.070723,26.2989907 L190.261015,26.4745975 C192.675608,23.1380683 194.958496,19.1430136 196.538958,15.4113691 L190.743933,12.645562 C189.251275,17.7381592 186.309862,23.0941666 185.344024,24.4551193 C184.378187,25.8599737 183.631858,26.7380077 182.622119,27.0014179 C183.324546,28.6257808 184.290383,31.523293 184.597695,32.7086389 C185.300122,32.3574253 186.397665,32.0501134 189.690292,31.6988998 C188.373241,33.5866729 187.231797,35.035429 186.617173,35.6939545 C185.168417,37.3622191 184.20258,38.2841548 182.929431,38.5914667 C183.631858,40.1280262 184.553794,42.8938333 184.861105,44.0352775 Z M201.016931,54.9668008 C202.202277,53.5180447 203.212016,51.8936818 204.09005,50.0937121 C205.451003,51.1473529 207.558284,53.4302413 208.392417,54.791194 C210.587502,53.474143 212.650882,51.8058784 214.494753,49.7864002 C216.558133,51.6741733 218.79712,53.2546345 221.343418,54.5716855 C222.265354,52.9912243 224.109225,50.6205325 225.470178,49.4351866 C222.792174,48.2498407 220.377581,46.6693795 218.226397,44.7816064 C221.036106,40.2158296 223.143388,34.596412 224.328734,27.8794519 L220.421482,26.3867941 L219.367842,26.6063026 L217.919086,26.6063026 C218.841021,23.1380683 219.85076,19.230817 220.640991,15.718681 L199.831585,15.718681 L199.831585,21.6454105 L203.738836,21.6454105 C203.299819,30.645259 202.202277,38.5914667 199.568175,44.6059996 L198.777944,41.2255687 C193.290232,43.4206537 187.495207,45.7035421 183.763563,46.888888 L185.300122,53.2107328 C189.075669,51.5863699 193.685347,49.5668917 198.075517,47.5474135 C197.329188,48.8644645 196.451154,50.0498104 195.441415,51.1034512 C196.977975,51.9375835 200.007192,54.0009634 201.016931,54.9668008 Z M213.967933,40.1719279 C211.948454,37.4500225 210.28019,34.3769035 209.138746,31.1281777 C209.489959,28.0989604 209.797271,24.938038 209.972878,21.6454105 L212.958193,21.6454105 C212.080159,25.4209567 211.07042,29.1965029 210.148485,32.0501134 L217.304462,32.0501134 C216.470329,35.035429 215.372787,37.7573344 213.967933,40.1719279 Z M204.221755,49.8742036 C205.538806,47.1522982 206.592447,44.0791792 207.426579,40.6987483 C208.304613,42.2792095 209.270451,43.7718673 210.324091,45.13282 C208.524122,47.0644948 206.504644,48.644956 204.221755,49.8742036 Z" id="进入班级" fill="#FFFFFF" fill-rule="nonzero"></path>
                    </g>
                </g>
            </g>
        </g>
    </g>
</svg>