<?xml version="1.0" encoding="UTF-8"?>
<svg width="773px" height="594px" viewBox="0 0 773 594" version="1.1" xmlns="http://www.w3.org/2000/svg" xmlns:xlink="http://www.w3.org/1999/xlink">
    <title>编组 4</title>
    <defs>
        <polygon id="path-1" points="0.107237705 0.0285917355 29.864041 0.0285917355 29.864041 30.03125 0.107237705 30.03125"></polygon>
        <polygon id="path-3" points="0 0 100 0 100 32 0 32"></polygon>
    </defs>
    <g id="页面-1" stroke="none" stroke-width="1" fill="none" fill-rule="evenodd">
        <g id="首页" transform="translate(-564.000000, -143.000000)">
            <g id="编组-4" transform="translate(564.000000, 143.000000)">
                <polygon id="Fill-3" fill="#F6F6F6" points="230.6442 590.442 383.4272 496.005 382.3192 211.829 230.6442 118.499"></polygon>
                <g id="编组" transform="translate(230.000000, 117.942000)" stroke-linejoin="round">
                    <polygon id="Stroke-4" stroke="#282828" stroke-width="5" points="0.6442 472.5 153.4272 378.063 152.3192 93.887 0.6442 0.557"></polygon>
                    <polyline id="Stroke-6" stroke="#000000" stroke-width="7" stroke-linecap="round" points="313.5681 472.5 313.5681 0.557 0.6441 0.557 0.6441 472.5"></polyline>
                </g>
                <g id="编组" transform="translate(599.000000, 117.000000)">
                    <polygon id="Fill-1" fill="#B0DACB" points="5.332 141.325 152.95 141.325 152.95 5.332 5.332 5.332"></polygon>
                    <polygon id="Stroke-2" stroke="#000000" stroke-width="3" stroke-linecap="round" stroke-linejoin="round" points="5.332 141.325 152.95 141.325 152.95 5.332 5.332 5.332"></polygon>
                    <polygon id="Fill-4" fill="#FFFFFF" points="0.5 136.493 148.118 136.493 148.118 0.5 0.5 0.5"></polygon>
                    <polygon id="Stroke-5" stroke="#000000" stroke-width="3" stroke-linecap="round" stroke-linejoin="round" points="0.5 136.493 148.118 136.493 148.118 0.5 0.5 0.5"></polygon>
                    <line x1="148.118" y1="0.4999" x2="152.95" y2="5.3319" id="Fill-7" fill="#B0DACB"></line>
                    <line x1="148.118" y1="0.4999" x2="152.95" y2="5.3319" id="Stroke-8" stroke="#000000" stroke-width="3" stroke-linecap="round"></line>
                    <line x1="148.118" y1="136.493" x2="152.95" y2="141.325" id="Fill-10" fill="#B0DACB"></line>
                    <line x1="148.118" y1="136.493" x2="152.95" y2="141.325" id="Stroke-11" stroke="#000000" stroke-width="3" stroke-linecap="round"></line>
                    <line x1="0.4998" y1="136.493" x2="5.3318" y2="141.325" id="Fill-13" fill="#B0DACB"></line>
                    <g transform="translate(0.000000, 6.825000)">
                        <line x1="0.4998" y1="129.668" x2="5.3318" y2="134.5" id="Stroke-14" stroke="#000000" stroke-width="3" stroke-linecap="round"></line>
                        <path d="M142.5686,2.4566 C142.5686,3.8116 141.4706,4.9096 140.1156,4.9096 C138.7616,4.9096 137.6636,3.8116 137.6636,2.4566 C137.6636,1.1016 138.7616,0.0036 140.1156,0.0036 C141.4706,0.0036 142.5686,1.1016 142.5686,2.4566" id="Fill-16" fill="#B0DACB"></path>
                        <path d="M142.5686,2.4566 C142.5686,3.8116 141.4706,4.9096 140.1156,4.9096 C138.7616,4.9096 137.6636,3.8116 137.6636,2.4566 C137.6636,1.1016 138.7616,0.0036 140.1156,0.0036 C141.4706,0.0036 142.5686,1.1016 142.5686,2.4566 Z" id="Stroke-18" stroke="#000000" stroke-width="3" stroke-linecap="round"></path>
                        <path d="M12.2767,2.4566 C12.2767,3.8116 11.1787,4.9096 9.8237,4.9096 C8.4697,4.9096 7.3717,3.8116 7.3717,2.4566 C7.3717,1.1016 8.4697,0.0036 9.8237,0.0036 C11.1787,0.0036 12.2767,1.1016 12.2767,2.4566" id="Fill-20" fill="#B0DACB"></path>
                        <path d="M12.2767,2.4566 C12.2767,3.8116 11.1787,4.9096 9.8237,4.9096 C8.4697,4.9096 7.3717,3.8116 7.3717,2.4566 C7.3717,1.1016 8.4697,0.0036 9.8237,0.0036 C11.1787,0.0036 12.2767,1.1016 12.2767,2.4566 Z" id="Stroke-22" stroke="#000000" stroke-width="3" stroke-linecap="round"></path>
                        <path d="M142.5686,122.0525 C142.5686,123.4075 141.4706,124.5055 140.1156,124.5055 C138.7616,124.5055 137.6636,123.4075 137.6636,122.0525 C137.6636,120.6975 138.7616,119.5995 140.1156,119.5995 C141.4706,119.5995 142.5686,120.6975 142.5686,122.0525" id="Fill-24" fill="#B0DACB"></path>
                        <path d="M142.5686,122.0525 C142.5686,123.4075 141.4706,124.5055 140.1156,124.5055 C138.7616,124.5055 137.6636,123.4075 137.6636,122.0525 C137.6636,120.6975 138.7616,119.5995 140.1156,119.5995 C141.4706,119.5995 142.5686,120.6975 142.5686,122.0525 Z" id="Stroke-26" stroke="#000000" stroke-width="3" stroke-linecap="round"></path>
                        <path d="M12.2767,122.0525 C12.2767,123.4075 11.1787,124.5055 9.8237,124.5055 C8.4697,124.5055 7.3717,123.4075 7.3717,122.0525 C7.3717,120.6975 8.4697,119.5995 9.8237,119.5995 C11.1787,119.5995 12.2767,120.6975 12.2767,122.0525" id="Fill-28" fill="#B0DACB"></path>
                        <path d="M12.2767,122.0525 C12.2767,123.4075 11.1787,124.5055 9.8237,124.5055 C8.4697,124.5055 7.3717,123.4075 7.3717,122.0525 C7.3717,120.6975 8.4697,119.5995 9.8237,119.5995 C11.1787,119.5995 12.2767,120.6975 12.2767,122.0525 Z" id="Stroke-30" stroke="#000000" stroke-width="3" stroke-linecap="round"></path>
                    </g>
                </g>
                <g id="编组-21" transform="translate(256.000000, 37.000000)" stroke="#000000" stroke-linejoin="round" stroke-width="3">
                    <g id="编组-20">
                        <rect id="矩形" fill="#50D38E" x="0" y="0" width="250" height="48"></rect>
                        <polygon id="矩形备份-3" fill="#159E56" points="0 48 250 48 261 59 11 59"></polygon>
                        <polygon id="矩形备份-2" fill="#14AF64" points="250 0 261 11.1768917 261 59 250 47.8231083"></polygon>
                    </g>
                </g>
                <g id="编组" transform="translate(273.000000, 45.856360)">
                    <path d="M12,2.01476119 C10.0207324,2.90420708 9.12347421,4.68358556 9.12347421,5.41972067 C9.21646323,5.38905851 9.43286512,5.32749085 9.68042692,5.32749085 C11.0411581,5.32749085 11.9690854,6.37049087 11.9690854,7.72035581 C11.9690854,9.0699774 10.979329,10.1436396 9.37103601,10.1436396 C7.7011593,10.1436396 6.49500092,8.5793829 6.49500092,6.61603148 C6.49500092,3.42595044 8.56701221,1.24796392 10.979329,0.143639584 L12,2.01476119 Z M5.50499908,2.01476119 C3.52573146,2.90420708 2.62896399,4.68358556 2.62896399,5.41972067 C2.72170766,5.38905851 2.93810955,5.32749085 3.185426,5.32749085 C4.5464025,5.32749085 5.47408452,6.37049087 5.47408452,7.72035581 C5.47408452,9.0699774 4.48457339,10.1436396 2.87628044,10.1436396 C1.20615838,10.1436396 0,8.5793829 0,6.61603148 C0,3.42595044 2.07225664,1.24796392 4.48457339,0.143639584 L5.50499908,2.01476119 Z" id="Fill-1" fill="#FFFFFF"></path>
                    <path d="M34.6549983,4.99050485 C34.3695484,6.32121892 33.9572321,7.52476749 33.4175457,8.6019045 C34.4012651,8.69690166 35.2264013,8.69690166 35.702151,8.69690166 C36.0830024,8.69690166 36.368704,8.63357022 36.6221854,8.38024448 C36.8761703,8.03192159 37.0347535,7.11286185 37.1618718,4.99050485 L34.6549983,4.99050485 Z M32.5292279,19.8480091 L36.3369873,19.8480091 L36.3369873,16.996838 L32.5292279,16.996838 L32.5292279,19.8480091 Z M28.2457187,23.4910745 L40.9059463,23.4910745 L40.9059463,13.3537726 L28.2457187,13.3537726 L28.2457187,23.4910745 Z M22.9150569,24.4412973 C24.5650776,24.9165344 26.5002964,25.0117829 28.8485867,25.0117829 C31.7675249,25.0434486 39.6050604,25.0434486 43,24.853203 C42.3019821,25.8986743 41.5405309,28.0212826 41.2550811,29.4150768 L28.8168701,29.4150768 C23.2959083,29.4150768 19.5198655,28.7498454 16.981527,25.5503514 C16.6641089,27.2924685 16.2517925,28.8448425 15.6806412,30.1436396 C14.91919,29.6050711 12.9834677,28.5912655 12,28.2110256 C13.5229024,25.0751143 13.7451706,19.9113406 13.7451706,14.5892382 L17.7429782,14.8428153 C17.7429782,16.2999409 17.679545,17.7256521 17.6163634,19.0877806 C17.9649948,20.1013349 18.3775629,20.9251461 18.853816,21.6220432 L18.853816,13.3537726 L12.9834677,13.3537726 L12.9834677,9.33071863 L18.1555464,9.33071863 L18.1555464,6.98619898 L13.7451706,6.98619898 L13.7451706,3.02647643 L18.1555464,3.02647643 L18.1555464,0.143639584 L22.3756222,0.143639584 L22.3756222,3.02647643 L26.6274147,3.02647643 L26.6274147,6.98619898 L22.3756222,6.98619898 L22.3756222,9.33071863 L27.1351327,9.33071863 L27.1351327,9.74237296 C28.8168701,8.6019045 29.8323062,7.0178647 30.3397725,4.99050485 L27.5477008,4.99050485 L27.5477008,1.18911088 L41.6673975,1.18911088 C41.6673975,1.18911088 41.6673975,2.20266515 41.6356808,2.67815354 C41.4453809,7.77834454 41.1596794,10.1226129 40.3982282,11.0728357 C39.731927,11.8649813 38.9704757,12.1499727 38.0819062,12.3083013 C37.2570218,12.4352155 35.9561359,12.4668812 34.5281317,12.4352155 C34.4646984,11.2630813 34.0204136,9.61571009 33.4175457,8.6019045 C32.5292279,10.4395214 31.2600586,11.8649813 29.6417546,12.973784 C29.1340365,12.4668812 28.0551671,11.6116555 27.1351327,10.9778386 L27.1351327,13.3537726 L22.9150569,13.3537726 L22.9150569,16.2049437 L26.690848,16.2049437 L26.690848,20.1649176 L22.9150569,20.1649176 L22.9150569,24.4412973 Z" id="Fill-3" fill="#8300D8"></path>
                    <path d="M50.4950009,8.2727158 C52.4742685,7.38300491 53.3712814,5.60382648 53.3712814,4.86767346 C53.2785377,4.89833636 53.0618904,4.95966217 52.814574,4.95966217 C51.4535975,4.95966217 50.5259155,3.91688012 50.5259155,2.56698233 C50.5259155,1.21732789 51.5154266,0.143639584 53.1237196,0.143639584 C54.7938416,0.143639584 56,1.70793434 56,3.67133354 C56,6.86149221 53.9277434,9.03953173 51.5154266,10.1436396 L50.4950009,8.2727158 Z M44,8.2727158 C45.979513,7.38300491 46.8765258,5.60382648 46.8765258,4.86767346 C46.7835368,4.89833636 46.5671349,4.95966217 46.3195731,4.95966217 C44.9590873,4.95966217 44.0309146,3.91688012 44.0309146,2.56698233 C44.0309146,1.21732789 45.020671,0.143639584 46.628964,0.143639584 C48.2990861,0.143639584 49.5052444,1.70793434 49.5052444,3.67133354 C49.5052444,6.86149221 47.4332331,9.03953173 45.020671,10.1436396 L44,8.2727158 Z" id="Fill-5" fill="#FFFFFF"></path>
                    <path d="M78.360846,8.51713807 C77.6188876,11.0354309 76.6907034,13.2705282 75.5154452,15.0019169 C74.7423265,14.2776955 72.9176092,12.9241505 71.9278406,12.3575097 C74.0001227,9.58748745 75.144466,4.92849586 75.6393503,0.143639584 L79.9382437,0.773212793 C79.7836691,2.03235921 79.5981795,3.26003945 79.3506146,4.45625352 L84.9486714,4.45625352 L85.5981304,4.33038883 L88.6290208,5.02289438 C88.0413917,8.26515895 87.237358,11.8852673 86.5567387,14.2776955 L82.9691341,13.427859 C83.2476139,12.1372465 83.5879235,10.3429254 83.8659126,8.51713807 L78.360846,8.51713807 Z M82.2887602,12.9241505 C82.2887602,13.9001014 82.2578453,15.0333831 82.1341855,16.2295972 C83.185784,20.6366096 85.2578207,24.4140489 89,26.2086197 C88.0413917,27.0899223 86.6803985,28.8527773 86.0620998,30.0489913 C83.4640185,28.5381155 81.6702162,26.2086197 80.3710528,23.2810169 C79.3196997,25.7049112 77.6807174,28.0970896 75.144466,30.1436396 C74.4329318,29.167439 72.8557794,27.7197453 71.8041809,27.02699 C77.4640675,22.6829099 78.0207817,16.5759748 78.0207817,12.7985356 L78.0207817,11.3188762 L82.2887602,11.3188762 L82.2887602,12.9241505 Z M66.1754545,13.1129476 L66.1754545,9.61895362 C65.7112398,10.8466339 65.2475158,12.0113818 64.7835464,13.1129476 L66.1754545,13.1129476 Z M70.1651986,23.6903269 L70.1651986,30.0489913 L66.1754545,30.0489913 L66.1754545,24.3825827 C63.9176829,24.7918927 61.7838163,25.1382704 59.9279388,25.4529321 L59,20.8254067 C60.948377,20.6051435 63.4537135,20.2904817 66.1754545,19.9441041 L66.1754545,17.2052983 L63.4227985,17.2052983 C62.402115,17.2052983 61.0722821,17.3943451 60.7938023,17.7092565 C60.5773977,16.8906366 59.8970238,14.9389846 59.4330544,13.8686352 C60.1752582,13.6169058 60.6701426,12.8300017 61.2577717,11.4447409 C61.5362514,10.8466339 62.0308904,9.46137302 62.5566896,7.73023399 L59.4639694,7.73023399 L59.4639694,3.41737032 L63.7319479,3.41737032 C63.9795127,2.37873685 64.1961626,1.30838748 64.3814069,0.238038105 L68.7114606,1.08787453 C68.525971,1.87477861 68.340236,2.63046625 68.1547464,3.41737032 L73.1340138,3.41737032 L73.1340138,7.73023399 L66.8246682,7.73023399 L66.422774,8.92644806 L70.1651986,8.92644806 L70.1651986,13.1129476 L72.7939495,13.1129476 L72.7630346,17.2052983 L70.1651986,17.2052983 L70.1651986,19.3774632 L73.1340138,18.968403 L73.3506637,23.1234363 L70.1651986,23.6903269 Z" id="Fill-7" fill="#FFFFFF"></path>
                    <g transform="translate(91.000000, 0.143640)">
                        <mask id="mask-2" fill="white">
                            <use xlink:href="#path-1"></use>
                        </mask>
                        <g id="Clip-10"></g>
                        <path d="M19.0151066,19.8948841 C19.5110902,20.7082098 20.1000246,21.4592392 20.7821557,22.1159556 C21.9600246,21.4592392 23.1998607,20.6456653 24.2225656,19.8948841 L19.0151066,19.8948841 Z M18.0853525,7.16163409 L11.8549426,7.16163409 L11.8549426,3.28214261 L18.0853525,3.28214261 L18.0853525,0.0285917355 L22.6106803,0.0285917355 L22.6106803,3.28214261 L29.0269918,3.28214261 L29.0269918,7.16163409 L22.6106803,7.16163409 L22.6106803,10.1337351 L28.3760902,10.1337351 L28.3760902,14.0132265 L12.5987951,14.0132265 L12.5987951,10.1337351 L18.0853525,10.1337351 L18.0853525,7.16163409 Z M17.0624016,23.8994644 C16.1943689,22.7731684 15.4505164,21.4905114 14.7996148,20.0199729 C13.7456803,21.0211801 12.5058443,21.9283224 11.1418279,22.710624 L11.1418279,25.0257604 L17.0624016,23.8994644 Z M0.231172131,10.6030664 C1.9669918,10.0086462 4.32272951,9.10150393 6.74043443,8.13156901 L6.74043443,4.84649773 L4.44690984,7.25545072 C3.67182787,6.285764 1.9360082,4.81522552 0.603221311,3.84553879 L3.14486066,1.27997655 C4.2917459,2.0307578 5.77969672,3.12602975 6.74043443,4.00189985 L6.74043443,0.0285917355 L10.8942049,0.0285917355 L10.8942049,15.3899484 L6.74043443,15.3899484 L6.74043443,12.1046289 C5.00461475,12.8556584 3.20682787,13.6064396 1.65690984,14.2323802 L0.231172131,10.6030664 Z M28.2521557,21.584328 C26.8883852,22.5540148 25.3074836,23.4614053 23.8505164,24.2124347 C25.5246148,24.9944882 27.5083033,25.557388 29.864041,25.9016305 C28.9960082,26.7775006 27.8803525,28.4669445 27.384123,29.5932405 C22.7658443,28.6860982 19.5733033,26.9338616 17.3102705,24.1811625 C17.1243689,25.2446659 17.0004344,26.6839321 17.0004344,27.4659856 C8.29035246,29.2177258 6.89559836,29.5619683 6.05879508,30.0312996 C5.90363115,29.0616129 5.28371311,27.3719208 4.81871311,26.6526599 C5.56256557,26.402234 6.6165,25.9016305 6.77141803,24.6502457 C5.40764754,25.119577 3.98166393,25.5261158 2.49395902,25.8078138 C1.9669918,24.8691511 0.913303279,23.3988608 0.107237705,22.5855352 C3.42395902,22.0846834 6.6165,21.1462689 9.06518852,19.8948841 L0.758139344,19.8948841 L0.758139344,16.3596351 L12.4748607,16.3596351 C12.3506803,16.0153926 12.1960082,15.6711501 12.0720738,15.358428 L16.5044508,14.1070432 C16.8765,14.79528 17.2483033,15.6086057 17.5271557,16.3596351 L29.244123,16.3596351 L29.244123,19.8948841 L26.0203525,19.8948841 L28.2521557,21.584328 Z" id="Fill-9" fill="#FFFFFF" mask="url(#mask-2)"></path>
                    </g>
                    <path d="M147.387708,29.7321717 L152,29.7321717 L152,0.808415021 L147.387708,0.808415021 L147.387708,29.7321717 Z M141.227626,25.7133933 L145.460991,25.7133933 L145.460991,2.77035613 L141.227626,2.77035613 L141.227626,25.7133933 Z M129.88661,8.27684572 C128.686171,6.88428176 126.001098,4.70091621 124.042552,3.21345607 L126.854186,0.143639584 C128.749326,1.47293941 131.56096,3.46651258 132.887958,4.82719342 L129.88661,8.27684572 Z M134.814676,1.06147153 L139.39539,1.06147153 L139.39539,12.1374638 C139.39539,18.2133305 139.079617,24.8585744 136.015115,30.0168603 C134.909658,29.1941756 132.792976,27.991655 131.43465,27.485291 C132.224334,26.3460346 132.824553,25.1435141 133.266886,23.8777294 C128.496707,28.2765947 127.485732,29.3207038 126.948667,30.1436396 C126.56974,29.2258076 125.369301,27.6118192 124.674099,26.979178 C125.432455,26.3144025 126.253716,25.0802499 126.253716,23.2767202 L126.253716,14.0994049 L123,14.0994049 L123,9.70079069 L130.644716,9.70079069 L130.644716,20.7132678 L132.477203,19.0676473 C132.792976,20.0168603 133.330041,21.314528 133.803951,22.23236 C134.688366,19.0043832 134.814676,15.5549819 134.814676,12.1058317 L134.814676,1.06147153 Z" id="Fill-11" fill="#FFFFFF"></path>
                    <path d="M179.798011,20.258294 C180.855064,22.3230663 182.316343,25.1385521 183,26.859113 L179.238408,28.7985595 C178.647731,27.0467293 177.311,24.106166 176.285021,21.9163161 L179.798011,20.258294 Z M171.621999,15.2532065 L171.621999,13.5326457 L170.16072,13.5326457 C169.974268,14.1270122 169.756495,14.6901094 169.538967,15.2532065 L171.621999,15.2532065 Z M175.974268,19.3199642 L175.974268,25.7016493 C175.974268,27.7036346 175.632193,28.7672902 174.388688,29.4241955 C173.176258,30.0811008 171.528527,30.1436396 169.383344,30.1436396 C169.228214,28.9861759 168.699441,27.2343456 168.170914,26.1081513 C169.25929,26.1394207 170.657925,26.1394207 171.062151,26.1394207 C171.466376,26.1394207 171.621999,26.0143431 171.621999,25.6391105 L171.621999,19.3199642 L168.699441,19.3199642 C167.42486,19.3199642 165.932506,19.5075805 165.652828,19.8515438 C165.466376,19.0695609 164.782473,17.1303625 164.316097,16.0664588 C165.062151,15.8163037 165.528527,15.0028033 166.088129,13.5326457 L164.813548,13.5326457 L164.813548,9.40334923 L167.42486,9.40334923 C167.549161,8.84025207 167.704785,8.27715491 167.860161,7.65151897 L164.347172,7.65151897 L164.347172,3.52222253 L168.792914,3.52222253 C168.979365,2.48983638 169.166064,1.42618084 169.290365,0.39404286 L173.673709,0.92587063 C173.518333,1.80166167 173.331634,2.64618332 173.113861,3.52222253 L181.725419,3.52222253 L181.725419,7.65151897 L172.057054,7.65151897 C171.90143,8.24588552 171.715225,8.84025207 171.559849,9.40334923 L175.974268,9.40334923 L175.974268,15.2532065 L181.414666,15.2532065 L181.414666,19.3199642 L175.974268,19.3199642 Z M170.564699,21.3532189 C169.25929,24.0748966 167.42486,27.1090199 165.528527,29.0487147 C164.751151,28.2980012 163.321194,27.2030762 162.419763,26.6399791 C164.09857,24.9506876 165.714979,22.22901 166.492354,20.1644858 L170.564699,21.3532189 Z M163.507646,24.6064762 C160.430204,26.2019595 157.165571,27.7974428 154.461279,29.1112534 L153.435054,24.6377456 C155.704785,23.9183015 159.248849,22.6044908 162.761592,21.2906802 L163.507646,24.6064762 Z M154.647484,22.0729112 C154.398882,21.196872 153.808205,19.4450417 153.372904,18.443925 C154.181355,18.2250393 154.802861,17.5681339 155.642634,16.473209 C155.984216,16.0351894 156.606215,15.128129 157.321194,13.9393959 C155.549161,14.1582816 154.896333,14.3461461 154.461279,14.5650318 L154.461279,14.4086849 C154.430204,14.4712237 154.430204,14.5337624 154.430204,14.5650318 C154.21243,13.720262 153.497205,11.6557379 153,10.4982742 C153.652828,10.3106578 154.15028,9.6537525 154.67856,8.65238757 C155.238408,7.68278836 156.823989,3.74110825 157.507646,0.143639584 L161.673709,2.02079556 C160.834183,4.7734944 159.435301,7.77659653 157.974022,10.2791403 L159.404226,10.2166015 C159.870355,9.2157329 160.336731,8.18334674 160.74071,7.18247815 L164.378494,9.37207984 C163.196892,11.8433542 161.704785,14.3774155 160.088129,16.6608253 L163.601118,16.00392 C163.47657,17.1613837 163.445495,18.8819446 163.538721,19.789005 C156.917215,21.2594108 155.549161,21.7599692 154.709635,22.22901 L154.709635,22.2602794 L154.709635,22.22901 L154.67856,22.2602794 L154.647484,22.0729112 Z" id="Fill-13" fill="#FFFFFF"></path>
                    <path d="M196.031042,16.2634124 L203.750051,16.2634124 L203.750051,14.9070221 L196.031042,14.9070221 L196.031042,16.2634124 Z M193.281195,25.7273629 L206.718805,25.7273629 L206.718805,23.8031406 L193.281195,23.8031406 L193.281195,25.7273629 Z M191.81256,19.1971695 L208.250162,19.1971695 L208.250162,11.9732649 L191.81256,11.9732649 L191.81256,19.1971695 Z M188.968754,19.8911308 L211.249905,19.8911308 L211.249905,30.1436396 L206.718805,30.1436396 L206.718805,29.418146 L193.281195,29.418146 L193.281195,30.1436396 L188.968754,30.1436396 L188.968754,19.8911308 Z M186.562514,7.77771451 L213.656145,7.77771451 L213.656145,14.5601665 L209.28123,14.5601665 L209.28123,11.216239 L190.687533,11.216239 L190.687533,14.5601665 L186.562514,14.5601665 L186.562514,7.77771451 Z M214,2.09964449 L214,6.16881539 L208.093729,6.16881539 L208.093729,7.24166506 L203.562381,7.24166506 L203.562381,6.16881539 L196.249949,6.16881539 L196.249949,7.24166506 L191.781323,7.24166506 L191.781323,6.16881539 L186,6.16881539 L186,2.09964449 L191.781323,2.09964449 L191.781323,0.143639584 L196.249949,0.143639584 L196.249949,2.09964449 L203.562381,2.09964449 L203.562381,0.143639584 L208.093729,0.143639584 L208.093729,2.09964449 L214,2.09964449 Z" id="Fill-14" fill="#FFFFFF"></path>
                </g>
                <g id="编组-22" transform="translate(622.000000, 170.000000)">
                    <mask id="mask-4" fill="white">
                        <use xlink:href="#path-3"></use>
                    </mask>
                    <g id="Clip-2"></g>
                    <path d="M7.9704444,26.460936 L22.4189401,26.460936 L22.4189401,24.8925886 L7.9704444,24.8925886 L7.9704444,26.460936 Z M7.9704444,21.2554414 L22.4189401,21.2554414 L22.4189401,19.7873816 L7.9704444,19.7873816 L7.9704444,21.2554414 Z M7.9704444,16.1500373 L22.4189401,16.1500373 L22.4189401,14.8153658 L7.9704444,14.8153658 L7.9704444,16.1500373 Z M18.484686,9.17621126 C18.2133236,9.67666381 17.9760067,10.1771164 17.704444,10.6444681 L27.5742249,10.6444681 L27.5742249,32 L22.4189401,32 L22.4189401,30.6320307 L7.9704444,30.6320307 L7.9704444,32 L3.05247653,32 L3.05247653,10.6444681 L12.0743251,10.6444681 C12.2439516,10.1438185 12.3795327,9.67666381 12.4812685,9.17621126 L0,9.17621126 L0,4.70484506 L7.22424787,4.70484506 C6.5797872,3.77053561 5.7318548,2.73613565 4.98585853,1.93521455 L9.3949468,0 C10.6838681,1.16778829 12.0743251,2.76963051 12.7866764,3.9374188 L11.2942833,4.70484506 L18.3829501,4.70484506 C19.2647277,3.33687574 20.1805508,1.56815033 20.7232756,0.20018102 L26.4551304,1.33467149 C25.607198,2.56925246 24.7254204,3.70374293 23.9111329,4.70484506 L31,4.70484506 L31,9.17621126 L18.484686,9.17621126 Z" id="Fill-1" fill="#282828" mask="url(#mask-4)"></path>
                    <path d="M55.6755036,8.66242933 L59.3383606,8.66242933 L59.3383606,5.50302757 L55.6755036,5.50302757 L55.6755036,8.66242933 Z M59.3383606,16.3397896 L59.3383606,12.9765943 L55.6755036,12.9765943 L55.6755036,13.6220743 C55.6755036,14.4713478 55.6755036,15.3886194 55.6422764,16.3397896 L59.3383606,16.3397896 Z M40.6251522,19.6008876 L43.7217705,19.6008876 L43.7217705,17.9703386 L40.6251522,17.9703386 L40.6251522,19.6008876 Z M40.6251522,14.2675543 L43.7217705,14.2675543 L43.7217705,12.7389021 L40.6251522,12.7389021 L40.6251522,14.2675543 Z M40.6251522,9.03611769 L43.7217705,9.03611769 L43.7217705,7.60936227 L40.6251522,7.60936227 L40.6251522,9.03611769 Z M64,26.700766 C64,28.9767949 63.6002905,30.2675543 62.3016769,31.014931 C61.0030633,31.7962065 59.2382858,31.932002 56.7077097,31.8981032 C56.5746042,30.6073439 55.9751383,28.4671105 55.3758689,27.2441486 C56.6078314,27.3462459 58.2060797,27.3121466 58.6722436,27.3121466 C59.1718314,27.3121466 59.3383606,27.1422518 59.3383606,26.6327679 L59.3383606,20.7217521 L55.3758689,20.7217521 C54.9761594,24.7643261 54.1439063,28.9767949 52.4790071,31.932002 C51.7130118,31.1168278 49.8151289,29.7239711 48.7496956,29.1803879 L46.0191664,30.8111374 C45.3200188,29.4523801 43.6551195,27.2441486 42.3232787,25.6474983 L45.4533208,23.8811539 L37.3952319,23.8811539 L41.8571148,25.2060125 C40.6251522,27.685835 38.6271944,30.369451 36.8624169,32 C35.9635129,31.1509271 34.0988571,29.7580704 33,29.1123898 C34.7313537,27.8216305 36.3630258,25.8175937 37.295157,23.8811539 L33.4329367,23.8811539 L33.4329367,19.6008876 L36.2963748,19.6008876 L36.2963748,7.60916168 L33.7990258,7.60916168 L33.7990258,3.32909599 L36.2963748,3.32909599 L36.2963748,0 L40.6251522,0 L40.6251522,3.32909599 L43.7217705,3.32909599 L43.7217705,0 L48.1502296,0 L48.1502296,3.32909599 L50.31452,3.32909599 L50.31452,7.60916168 L48.1502296,7.60916168 L48.1502296,19.6008876 L49.9484309,19.6008876 L49.9484309,23.8811539 L46.2523466,23.8811539 C47.2845527,25.0361177 48.5167119,26.4630737 49.3489649,27.6517357 C51.0138642,23.4733662 51.1471663,17.9023406 51.1471663,13.6220743 L51.1471663,1.05306706 L64,1.05306706 L64,26.700766 Z" id="Fill-3" fill="#282828" mask="url(#mask-4)"></path>
                    <path d="M100,26.4481119 L100,30.9568975 L86.8753518,30.9568975 L86.8753518,26.4481119 L91.6044662,26.4481119 L91.6044662,18.0357387 L88.7257605,18.0357387 L88.7257605,13.6950415 L91.6044662,13.6950415 L91.6044662,6.32616821 L88.4173927,6.32616821 L88.4173927,1.91791777 L99.5544451,1.91791777 L99.5544451,6.32616821 L96.3333783,6.32616821 L96.3333783,13.6950415 L99.2460773,13.6950415 L99.2460773,18.0357387 L96.3333783,18.0357387 L96.3333783,26.4481119 L100,26.4481119 Z M87.6292745,14.8054986 C87.6292745,21.7708403 86.8067582,28.0632319 80.2616331,32 C79.6446953,30.9568975 78.171248,29.2410436 77.2117468,28.5007389 C82.5919947,25.3376548 83.2773237,20.3577842 83.2773237,14.771722 L83.2773237,0 L87.6292745,0 L87.6292745,14.8054986 Z M78.6509985,27.121062 C74.9843768,27.9622993 71.0093874,28.8371146 67.8225163,29.5100647 L67,25.001279 C68.096486,24.8329918 69.4331508,24.5975487 70.8380045,24.3281302 L70.8380045,17.2620547 L67.9936968,17.2620547 L67.9936968,12.9211588 L70.8380045,12.9211588 L70.8380045,6.32616821 L67.7881183,6.32616821 L67.7881183,1.91791777 L78.6168029,1.91791777 L78.6168029,6.32616821 L75.3613381,6.32616821 L75.3613381,12.9211588 L77.8972782,12.9211588 L77.8972782,15.7478672 C78.4456224,13.2913112 78.5482093,10.2293584 78.5824049,6.86440909 L82.3520182,7.30191608 C82.2834246,12.382918 82.1808377,17.4301432 80.2958287,20.8286704 L76.9717704,18.405891 C77.1433555,18.0357387 77.3147384,17.665785 77.4515209,17.2620547 L75.3613381,17.2620547 L75.3613381,23.419737 L78.171248,22.8477195 L78.6509985,27.121062 Z" id="Fill-4" fill="#282828" mask="url(#mask-4)"></path>
                </g>
            </g>
        </g>
    </g>
</svg>