<?xml version="1.0" encoding="UTF-8"?>
<svg width="773px" height="594px" viewBox="0 0 773 594" version="1.1" xmlns="http://www.w3.org/2000/svg" xmlns:xlink="http://www.w3.org/1999/xlink">
    <title>编组 4</title>
    <defs>
        <polygon id="path-1" points="0 62 180.583 62 180.583 0.005 0 0.005"></polygon>
    </defs>
    <g id="页面-1" stroke="none" stroke-width="1" fill="none" fill-rule="evenodd">
        <g id="首页" transform="translate(-564.000000, -143.000000)">
            <g id="编组-4" transform="translate(564.000000, 143.000000)">
                <polygon id="Fill-3" fill="#F6F6F6" points="230.6442 590.442 383.4272 496.005 382.3192 211.829 230.6442 118.499"></polygon>
                <g id="编组" transform="translate(230.000000, 117.942000)" stroke-linejoin="round">
                    <polygon id="Stroke-4" stroke="#282828" stroke-width="5" points="0.6442 472.5 153.4272 378.063 152.3192 93.887 0.6442 0.557"></polygon>
                    <polyline id="Stroke-6" stroke="#000000" stroke-width="7" stroke-linecap="round" points="313.5681 472.5 313.5681 0.557 0.6441 0.557 0.6441 472.5"></polyline>
                </g>
                <g id="编组" transform="translate(599.000000, 117.000000)">
                    <polygon id="Fill-1" fill="#B0DACB" points="5.332 141.325 152.95 141.325 152.95 5.332 5.332 5.332"></polygon>
                    <polygon id="Stroke-2" stroke="#000000" stroke-width="3" stroke-linecap="round" stroke-linejoin="round" points="5.332 141.325 152.95 141.325 152.95 5.332 5.332 5.332"></polygon>
                    <polygon id="Fill-4" fill="#FFFFFF" points="0.5 136.493 148.118 136.493 148.118 0.5 0.5 0.5"></polygon>
                    <polygon id="Stroke-5" stroke="#000000" stroke-width="3" stroke-linecap="round" stroke-linejoin="round" points="0.5 136.493 148.118 136.493 148.118 0.5 0.5 0.5"></polygon>
                    <line x1="148.118" y1="0.4999" x2="152.95" y2="5.3319" id="Fill-7" fill="#B0DACB"></line>
                    <line x1="148.118" y1="0.4999" x2="152.95" y2="5.3319" id="Stroke-8" stroke="#000000" stroke-width="3" stroke-linecap="round"></line>
                    <line x1="148.118" y1="136.493" x2="152.95" y2="141.325" id="Fill-10" fill="#B0DACB"></line>
                    <line x1="148.118" y1="136.493" x2="152.95" y2="141.325" id="Stroke-11" stroke="#000000" stroke-width="3" stroke-linecap="round"></line>
                    <line x1="0.4998" y1="136.493" x2="5.3318" y2="141.325" id="Fill-13" fill="#B0DACB"></line>
                    <g transform="translate(0.000000, 6.825000)">
                        <line x1="0.4998" y1="129.668" x2="5.3318" y2="134.5" id="Stroke-14" stroke="#000000" stroke-width="3" stroke-linecap="round"></line>
                        <path d="M142.5686,2.4566 C142.5686,3.8116 141.4706,4.9096 140.1156,4.9096 C138.7616,4.9096 137.6636,3.8116 137.6636,2.4566 C137.6636,1.1016 138.7616,0.0036 140.1156,0.0036 C141.4706,0.0036 142.5686,1.1016 142.5686,2.4566" id="Fill-16" fill="#B0DACB"></path>
                        <path d="M142.5686,2.4566 C142.5686,3.8116 141.4706,4.9096 140.1156,4.9096 C138.7616,4.9096 137.6636,3.8116 137.6636,2.4566 C137.6636,1.1016 138.7616,0.0036 140.1156,0.0036 C141.4706,0.0036 142.5686,1.1016 142.5686,2.4566 Z" id="Stroke-18" stroke="#000000" stroke-width="3" stroke-linecap="round"></path>
                        <path d="M12.2767,2.4566 C12.2767,3.8116 11.1787,4.9096 9.8237,4.9096 C8.4697,4.9096 7.3717,3.8116 7.3717,2.4566 C7.3717,1.1016 8.4697,0.0036 9.8237,0.0036 C11.1787,0.0036 12.2767,1.1016 12.2767,2.4566" id="Fill-20" fill="#B0DACB"></path>
                        <path d="M12.2767,2.4566 C12.2767,3.8116 11.1787,4.9096 9.8237,4.9096 C8.4697,4.9096 7.3717,3.8116 7.3717,2.4566 C7.3717,1.1016 8.4697,0.0036 9.8237,0.0036 C11.1787,0.0036 12.2767,1.1016 12.2767,2.4566 Z" id="Stroke-22" stroke="#000000" stroke-width="3" stroke-linecap="round"></path>
                        <path d="M142.5686,122.0525 C142.5686,123.4075 141.4706,124.5055 140.1156,124.5055 C138.7616,124.5055 137.6636,123.4075 137.6636,122.0525 C137.6636,120.6975 138.7616,119.5995 140.1156,119.5995 C141.4706,119.5995 142.5686,120.6975 142.5686,122.0525" id="Fill-24" fill="#B0DACB"></path>
                        <path d="M142.5686,122.0525 C142.5686,123.4075 141.4706,124.5055 140.1156,124.5055 C138.7616,124.5055 137.6636,123.4075 137.6636,122.0525 C137.6636,120.6975 138.7616,119.5995 140.1156,119.5995 C141.4706,119.5995 142.5686,120.6975 142.5686,122.0525 Z" id="Stroke-26" stroke="#000000" stroke-width="3" stroke-linecap="round"></path>
                        <path d="M12.2767,122.0525 C12.2767,123.4075 11.1787,124.5055 9.8237,124.5055 C8.4697,124.5055 7.3717,123.4075 7.3717,122.0525 C7.3717,120.6975 8.4697,119.5995 9.8237,119.5995 C11.1787,119.5995 12.2767,120.6975 12.2767,122.0525" id="Fill-28" fill="#B0DACB"></path>
                        <path d="M12.2767,122.0525 C12.2767,123.4075 11.1787,124.5055 9.8237,124.5055 C8.4697,124.5055 7.3717,123.4075 7.3717,122.0525 C7.3717,120.6975 8.4697,119.5995 9.8237,119.5995 C11.1787,119.5995 12.2767,120.6975 12.2767,122.0525 Z" id="Stroke-30" stroke="#000000" stroke-width="3" stroke-linecap="round"></path>
                    </g>
                    <path d="M49.6136494,61.8844919 L49.6136494,56.378952 L24.6506424,56.378952 L24.6506424,61.8844919 L49.6136494,61.8844919 Z M52.4519091,81.7181139 L52.4519091,75.9732027 L21.8123827,75.9732027 L21.8123827,81.7181139 L52.4519091,81.7181139 Z M58.5729752,84.3511982 C60.3853579,82.709795 62.4371119,80.0083189 63.7023602,77.5120182 L59.1201096,76.1783781 L67.3955174,76.1783781 L64.1811028,77.9565649 C65.5489388,79.5637722 67.2587338,81.7865057 67.9768477,83.1543417 L70.7809115,81.5129385 C71.8751803,82.0600729 73.8243466,83.4621048 74.6108523,84.2828064 C76.3206473,81.3077631 77.1755448,77.0674715 77.5858956,72.9981594 L81.6552077,72.9981594 L81.6552077,78.948246 C81.6552077,79.4611845 81.4842282,79.632164 80.9712897,79.632164 C80.4925471,79.632164 78.8511439,79.6663599 77.5858956,79.5637722 C78.2014218,80.7948246 78.816948,82.9491663 78.9537316,84.2486105 C81.55262,84.2828064 83.3650027,84.1460228 84.6986428,83.3595171 C86.0322829,82.6072073 86.4426337,81.3077631 86.4426337,79.0166378 L86.4426337,53.1987333 L73.2430163,53.1987333 L73.2430163,65.8512163 C73.2430163,70.1598997 73.1062327,75.7680273 71.3964377,79.974123 C70.5415402,78.7772665 69.2762919,77.3410387 68.216219,76.1783781 L72.0119639,76.1783781 L72.0119639,71.8696947 L70.1653853,71.8696947 L70.1653853,59.798542 L72.3881188,59.798542 L72.3881188,55.4898586 L70.1653853,55.4898586 L70.1653853,52.1386604 L65.6173306,52.1386604 L65.6173306,55.4898586 L62.4371119,55.4898586 L62.4371119,52.1386604 L57.9916449,52.1386604 L57.9916449,55.4898586 L55.4269524,55.4898586 L55.4269524,59.798542 L57.9916449,59.798542 L57.9916449,71.8696947 L55.0507975,71.8696947 L55.0507975,76.1783781 L59.0175219,76.1783781 C58.0600367,78.1275444 56.3844376,80.1451025 54.6062508,81.4445467 C55.7347155,82.0942688 57.6496859,83.4963007 58.5729752,84.3511982 Z M81.6552077,60.8586149 L77.8936587,60.8586149 L77.8936587,57.6783962 L81.6552077,57.6783962 L81.6552077,60.8586149 Z M65.6173306,61.2347698 L62.4371119,61.2347698 L62.4371119,59.798542 L65.6173306,59.798542 L65.6173306,61.2347698 Z M65.6173306,66.5009384 L62.4371119,66.5009384 L62.4371119,64.9621229 L65.6173306,64.9621229 L65.6173306,66.5009384 Z M81.6552077,68.5868883 L77.8594628,68.5868883 C77.8868195,67.8209001 77.8922909,67.0767974 77.8933851,66.3720882 L77.8936587,65.2014942 L81.6552077,65.2014942 L81.6552077,68.5868883 Z M65.6173306,71.8696947 L62.4371119,71.8696947 L62.4371119,70.2282915 L65.6173306,70.2282915 L65.6173306,71.8696947 Z M102.001768,84.2828064 C108.420574,80.3508675 109.323889,74.1070458 109.35313,67.1742148 L109.353887,51.7625055 L105.011007,51.7625055 L105.011007,66.7745056 C105.011007,72.451025 104.327089,77.5120182 98.9583331,80.7264328 C99.9158183,81.4787426 101.386242,83.2227335 102.001768,84.2828064 Z M89.5886565,81.7523098 C92.7688752,81.0683918 96.7355996,80.1792984 100.394561,79.3244009 L99.9158183,74.9815216 L97.1117545,75.5628519 L97.1117545,69.3050022 L99.1977044,69.3050022 C99.0609208,69.715353 98.8899413,70.0915079 98.7189618,70.4676628 L102.035964,72.9297676 C103.916739,69.4759817 104.019326,64.3465967 104.087718,59.1830158 L100.326169,58.7384691 C100.291973,62.1580591 100.189386,65.269886 99.6422511,67.7661867 L99.6422511,64.8937311 L97.1117545,64.8937311 L97.1117545,58.1913347 L100.360365,58.1913347 L100.360365,53.7116718 L89.5544606,53.7116718 L89.5544606,58.1913347 L92.5978957,58.1913347 L92.5978957,64.8937311 L89.759636,64.8937311 L89.759636,69.3050022 L92.5978957,69.3050022 L92.5978957,76.4861412 C91.1958638,76.7597084 89.8622237,76.9990797 88.7679549,77.1700592 L89.5886565,81.7523098 Z M121.698607,83.2227335 L121.698607,78.6404829 L118.039645,78.6404829 L118.039645,70.0915079 L120.946297,70.0915079 L120.946297,65.6802368 L118.039645,65.6802368 L118.039645,58.1913347 L121.25406,58.1913347 L121.25406,53.7116718 L110.140392,53.7116718 L110.140392,58.1913347 L113.320611,58.1913347 L113.320611,65.6802368 L110.448156,65.6802368 L110.448156,70.0915079 L113.320611,70.0915079 L113.320611,78.6404829 L108.601577,78.6404829 L108.601577,83.2227335 L121.698607,83.2227335 Z" id="二期班" fill="#282828" fill-rule="nonzero"></path>
                </g>
                <g id="编组" transform="translate(305.000000, 20.000000)">
                    <polygon id="Fill-1" fill="#159E56" points="11.259 57.6944 1 47.4354 169.324 47.4354 179.583 57.6944"></polygon>
                    <g transform="translate(0.000000, 0.994700)">
                        <polygon id="Stroke-2" stroke="#000000" stroke-width="2" stroke-linecap="round" stroke-linejoin="round" points="11.259 56.6997 1 46.4407 169.324 46.4407 179.583 56.6997"></polygon>
                        <polygon id="Fill-4" fill="#50D38E" points="1.002 46.441 169.323 46.441 169.323 1.007 1.002 1.007"></polygon>
                        <mask id="mask-2" fill="white">
                            <use xlink:href="#path-1"></use>
                        </mask>
                        <g id="Clip-7"></g>
                        <polygon id="Stroke-6" stroke="#000000" stroke-width="2" stroke-linecap="round" stroke-linejoin="round" mask="url(#mask-2)" points="1.002 46.441 169.323 46.441 169.323 1.007 1.002 1.007"></polygon>
                        <path d="M19.86249,37.2075993 C22.0111794,34.2701505 22.9359318,29.9727717 23.2895136,26.1105705 L35.6104794,26.1105705 L35.6104794,27.3345075 L39.6902694,27.3345075 L39.6902694,15.1495347 L30.5243412,15.1495347 L32.3466474,14.6327613 C32.0202642,13.5992145 31.3946964,12.1032915 30.8235258,10.9609503 L26.8525302,11.9400999 C27.2605092,12.9192495 27.750084,14.1703851 28.0492686,15.1495347 L19.318518,15.1495347 L19.318518,21.4868085 C19.318518,25.3762083 19.1009292,31.0063185 16.3538706,34.7869239 C17.3330202,35.2221015 19.1281278,36.4732371 19.86249,37.2075993 Z M35.6104794,22.4387595 L23.4799038,22.4387595 L23.4799038,18.8213457 L35.6104794,18.8213457 L35.6104794,22.4387595 Z M62.0475186,26.6817411 C63.924222,26.6817411 65.3657478,26.6001453 66.4808904,26.0833719 C67.6232316,25.5122013 67.9224162,24.6146475 67.9224162,22.9011357 L67.9224162,11.5321209 L64.1690094,11.5321209 L64.1690094,22.8195399 C64.1690094,23.1731217 64.0330164,23.2547175 63.652236,23.2547175 C63.2714556,23.2819161 61.9387242,23.2819161 60.8779788,23.2275189 C61.3675536,24.1794699 61.884327,25.6753929 62.0475186,26.6817411 Z M68.8471686,36.1196553 L68.8471686,32.4750429 L58.5117006,32.4750429 L58.5117006,31.0063185 L66.1817058,31.0063185 L66.1817058,27.4433019 L58.5117006,27.4433019 L58.5117006,25.7841873 L56.172621,25.7841873 L56.172621,21.2692197 L58.4029062,21.2692197 L58.4029062,17.8149975 L56.172621,17.8149975 L56.172621,15.4487193 L57.7773384,15.4487193 L57.7773384,12.0216957 L45.2659824,12.0216957 L45.2659824,15.4487193 L47.197083,15.4487193 L47.197083,17.8149975 L44.3140314,17.8149975 L44.3140314,21.2692197 L46.7075082,21.2692197 C46.245132,22.3571637 45.3203796,23.3907105 43.5524706,24.2066685 C44.2596342,24.7506405 45.6195642,26.2193649 46.109139,26.9537271 C48.828999,25.5937971 50.0257374,23.4723063 50.5153122,21.2692197 L52.50081,21.2692197 L52.50081,26.1921663 L54.4319106,26.1921663 L54.4319106,27.4433019 L46.9522956,27.4433019 L46.9522956,31.0063185 L54.4319106,31.0063185 L54.4319106,32.4750429 L44.2324356,32.4750429 L44.2324356,36.1196553 L68.8471686,36.1196553 Z M62.836278,22.0035819 L62.836278,12.7016607 L59.2460628,12.7016607 L59.2460628,22.0035819 L62.836278,22.0035819 Z M52.50081,17.8149975 L50.8144968,17.8149975 L50.8144968,15.4487193 L52.50081,15.4487193 L52.50081,17.8149975 Z M93.7338876,36.8540175 C94.3594554,35.7116763 95.6921868,33.9709659 96.6713364,33.1006107 C91.666794,31.1695101 88.5117564,27.1985145 86.7438474,22.2755679 L95.9913714,22.2755679 L95.9913714,18.1685793 L85.547109,18.1685793 C85.7646978,15.7751025 85.7918964,13.3816257 85.819095,11.1241419 L81.467319,11.1241419 C81.4401204,13.3816257 81.467319,15.7751025 81.2769288,18.1685793 L71.6214258,18.1685793 L71.6214258,22.2755679 L80.6241624,22.2755679 C79.5362184,26.7089397 77.0339472,30.7887297 71.0774538,33.4813911 C72.2469936,34.3517463 73.443732,35.7660735 74.0692998,36.8540175 C79.427424,34.1885547 82.3104756,30.4079493 83.8607958,26.2193649 C85.955088,31.0335171 88.946934,34.6509309 93.7338876,36.8540175 Z M111.412978,37.0716063 C113.616064,36.0108609 115.43837,34.7053281 116.961492,33.1006107 C118.239826,34.5693351 119.762948,35.7932721 121.612453,36.7724217 C122.183623,35.7388749 123.380362,34.1613561 124.277915,33.3997953 C122.319616,32.5294401 120.742097,31.3055031 119.436565,29.7551829 C121.041282,26.9809257 122.074829,23.5811007 122.727595,19.5285093 L123.625149,19.5285093 L123.625149,15.8838969 L116.118335,15.8838969 C116.499116,14.5511655 116.7983,13.1912355 117.070286,11.8041069 L113.153688,11.0969433 C112.473723,15.1767333 111.249786,19.1477289 109.400281,21.8675889 L109.400281,12.7016607 L99.010416,12.7016607 L99.010416,16.5910605 L105.483683,16.5910605 L105.483683,20.5076589 L99.2280048,20.5076589 L99.2280048,30.5439423 C99.2280048,31.5774891 98.7656286,32.0942625 98.1400608,32.3934471 C98.7656286,33.3725967 99.3911964,35.3580945 99.5815866,36.4732371 L99.6776406,36.4012363 C100.611445,35.7155986 102.214319,34.9602573 109.80826,32.1486597 C109.590671,31.2783045 109.373083,29.5919913 109.373083,28.4224515 L103.226199,30.4895451 L103.226199,24.3970587 L109.400281,24.3970587 L109.400281,23.6082993 C110.161842,24.3698601 111.086594,25.4034069 111.494573,25.9745775 C111.848155,25.5122013 112.201737,25.0498251 112.52812,24.5330517 C113.072092,26.3825565 113.752057,28.0688697 114.568015,29.6191899 C113.180887,31.2239073 111.412978,32.4750429 109.155494,33.3997953 C109.889856,34.2701505 111.032197,36.1196553 111.412978,37.0716063 Z M116.934293,25.8113859 C116.03674,23.9346825 115.383973,21.8403903 114.921597,19.6101051 L114.948796,19.5285093 L118.593408,19.5285093 C118.239826,21.8947875 117.723053,23.9890797 116.934293,25.8113859 Z M150.714955,22.2211707 L150.714955,18.9301401 L143.9969,18.9301401 L143.9969,17.3254227 L149.627011,17.3254227 L149.627011,14.0071935 L143.9969,14.0071935 L143.9969,11.1241419 L140.080302,11.1241419 L140.080302,14.0071935 L138.55718,14.0071935 C138.747571,13.3816257 138.937961,12.7560579 139.101152,12.1304901 L135.429341,11.3417307 C134.912568,13.6264131 133.879021,16.0198899 132.54629,17.4886143 C133.253453,17.8149975 134.450192,18.4133667 135.293348,18.9301401 L133.063063,18.9301401 L133.063063,22.2211707 L150.714955,22.2211707 Z M129.500047,18.5765583 L132.627886,16.1830815 C131.784729,14.8775487 129.908026,13.1368383 128.412103,11.9129013 L125.501852,14.0615907 C126.970577,15.3943221 128.765684,17.2710255 129.500047,18.5765583 Z M140.080302,18.9301401 L136.136505,18.9301401 C136.462888,18.4405653 136.789271,17.9237919 137.115655,17.3254227 L140.080302,17.3254227 L140.080302,18.9301401 Z M127.786535,37.0716063 C128.84728,35.6028819 130.152813,33.9981645 130.941572,33.9981645 C131.431147,33.9981645 132.247105,34.7053281 133.226255,35.3036973 C134.966965,36.3100455 137.088456,36.5820315 140.461082,36.5820315 C143.480127,36.5820315 147.967896,36.4460385 150.41577,36.2828469 C150.442969,35.3036973 151.068536,33.4541925 151.476515,32.4478443 C148.484669,32.9374191 143.371333,33.1822065 140.597075,33.1822065 C137.686825,33.1822065 135.238951,33.0734121 133.579837,32.0398653 C133.035865,31.7134821 132.627886,31.4142975 132.274304,31.1967087 L132.274304,21.6500001 L125.665044,21.6500001 L125.665044,25.2946125 L128.493698,25.2946125 L128.493698,31.4686947 C127.460152,31.9854681 126.399406,32.7470289 125.447455,33.6173841 L127.786535,37.0716063 Z M148.919847,31.6590849 L148.919847,23.5539021 L134.885369,23.5539021 L134.885369,31.6590849 L148.919847,31.6590849 Z M145.003249,28.5312459 L138.55718,28.5312459 L138.55718,26.6817411 L145.003249,26.6817411 L145.003249,28.5312459 Z" id="户型大改造" fill="#FFFFFF" fill-rule="nonzero" mask="url(#mask-2)"></path>
                    </g>
                    <polygon id="Fill-8" fill="#14AF64" points="169.3244 1.9999 179.5834 12.2589 179.5834 57.6939 169.3244 47.4359"></polygon>
                    <polygon id="Stroke-9" stroke="#000000" stroke-width="2" stroke-linecap="round" stroke-linejoin="round" points="169.3244 1.9999 179.5834 12.2589 179.5834 57.6939 169.3244 47.4359"></polygon>
                </g>
            </g>
        </g>
    </g>
</svg>