<svg width="145" height="60" viewBox="0 0 145 60" fill="none" xmlns="http://www.w3.org/2000/svg">
<g clip-path="url(#clip0)">
<path d="M44.5759 17.313H34.6353V23.2129H44.5759V27.1657H34.6353V42.9183H60.4557V27.1657H50.5202V23.2129H60.4557V17.313H44.5759ZM54.5114 33.0656V37.0185H40.5976V33.0656H44.5759V35.4061H50.5253V33.0656H54.5114Z" fill="#14AF64"/>
<path d="M22.8985 17.313H16.9516V27.1657H7.01611V33.0656H16.9516V42.9183H22.8985V33.0656H32.8365V27.1657H22.8985V17.313Z" fill="#14AF64"/>
<path d="M3.56448 14.5914L0.000732422 18.1255L5.69616 23.7735L9.25991 20.2394L3.56448 14.5914Z" fill="#14AF64"/>
<path d="M8.19289 9.99964L4.62915 13.5337L10.3264 19.1835L13.8901 15.6494L8.19289 9.99964Z" fill="#14AF64"/>
<path d="M138.072 19.3545H134.647V35.3958H138.072V19.3545Z" fill="#14AF64"/>
<path d="M139.058 17.3921V36.6019L135.856 39.7779L139.058 42.9566H145V17.3921H139.058Z" fill="#14AF64"/>
<path d="M134.078 32.005L130.872 28.8263L129.46 30.2266V28.5402H133.758V22.6479H129.46V17.3511H123.519V22.6479H119.218V28.5402H123.519V36.1188L119.922 39.6858L123.127 42.8644L125.353 40.6542L127.719 42.9999L136.039 42.9181L129.556 36.4893L134.078 32.005Z" fill="#14AF64"/>
<path d="M62.8622 27.7073H67.7449L62.7849 32.626L65.9902 35.8047L70.0175 31.8109H74.6632V36.6019L71.4579 39.778L74.6632 42.9566H80.6049V38.1248L85.4773 42.9566L88.6827 39.778L84.6193 35.7485L88.6827 31.719L85.4773 28.5403L80.6049 33.3721V31.8109V28.5991V28.4126H73.4444L74.1556 27.7073H88.6827V24.3115H62.8622V27.7073Z" fill="#14AF64"/>
<path d="M78.7444 18.4908V17.3921H72.8027V18.4908H68.8038H62.8621V22.6481V23.6574H68.8038V22.6481H82.7408V23.6574H88.6825V22.6481V18.4908H82.7408H78.7444Z" fill="#14AF64"/>
<path d="M69.43 33.8952L63.5068 39.769L66.7117 42.9472L72.6349 37.0733L69.43 33.8952Z" fill="#14AF64"/>
<path d="M100.004 30.3952V28.5402V24.503H99.1231L100.589 23.0517L94.8407 17.3511L91.6354 20.5297L95.6421 24.503H91.0325V30.3952H94.0626V42.9564H100.004V42.9411L100.022 42.9564L103.228 39.7778L100.004 36.5838V30.3952Z" fill="#14AF64"/>
<path d="M111.942 17.3511H106V25.1137H101.13V31.0059H106V42.9564H111.942V31.0059H116.812V25.1137H111.942V17.3511Z" fill="#14AF64"/>
</g>
<defs>
<clipPath id="clip0">
<rect width="145" height="33" fill="white" transform="translate(0 10)"/>
</clipPath>
</defs>
</svg>
