<svg width="240" height="57" viewBox="0 0 240 57" fill="none" xmlns="http://www.w3.org/2000/svg">
<path d="M240 18.8182V47.1818H234.545V51.5455H230.182V57H9.81818V51.5455H4.99855V47.1818H0L0 18.8182H5.45455V14.0048H9.81818V9H230.182V14.4545H234.545V18.8182H240Z" fill="#FF4B33"/>
<path d="M240 9.81818V38.1818H234.545V42.5455H230.182V48H9.81818V42.5455H4.99855V38.1818H0L0 9.81818H5.45455V5.00481H9.81818V0H230.182V5.45455H234.545V9.81818H240Z" fill="#FF7F29"/>
<path d="M27.52 14.496V16.92H31.672V22.032C31.672 22.176 31.648 22.296 31.648 22.44H26.296V24.864H31.48C31.288 26.496 30.976 27.912 30.544 29.112C29.872 30.792 28.576 32.208 26.632 33.336L28 35.472C30.136 34.392 31.672 32.832 32.608 30.816C33.304 29.208 33.784 27.216 34.024 24.864H40.24V35.16H42.76V24.864H47.728V22.44H42.76V16.92H46.528V14.496H27.52ZM34.216 16.92H40.24V22.44H34.192C34.192 22.296 34.216 22.176 34.216 22.032V16.92ZM53.512 35.28C55.072 35.28 55.864 34.464 55.864 32.832V26.4C56.728 26.064 57.568 25.728 58.408 25.368V22.872C57.568 23.256 56.728 23.64 55.864 23.976V20.04H58.504V17.616H55.864V13.392H53.344V17.616H50.296V20.04H53.344V24.84C52.192 25.2 51.016 25.488 49.816 25.728L50.44 28.128C51.4 27.864 52.384 27.576 53.344 27.288V32.184C53.344 32.712 53.104 33 52.624 33C51.88 33 51.088 32.952 50.224 32.856L50.776 35.28H53.512ZM58 14.376V16.824H62.104C61.432 21.432 59.608 25.08 56.608 27.768L57.808 30.072C58.72 29.256 59.536 28.392 60.28 27.456V35.544H62.704V34.56H68.416V35.544H70.84V22.488H63.088C63.76 20.76 64.24 18.864 64.552 16.824H71.8V14.376H58ZM68.416 32.208H62.704V24.84H68.416V32.208ZM88.288 15.6V30.192H90.712V15.6H88.288ZM92.992 35.28C94.576 35.28 95.368 34.344 95.368 32.472V13.368H92.92V31.872C92.92 32.688 92.656 33.096 92.152 33.096C91.264 33.096 90.352 33.024 89.392 32.928L89.896 35.28H92.992ZM74.272 13.968V16.176H87.16V13.968H74.272ZM75.688 17.232V23.016H85.912V17.232H75.688ZM83.56 21.048H78.04V19.2H83.56V21.048ZM86.8 24.24H74.704V35.52H77.08V34.632H84.448V35.52H86.8V24.24ZM77.08 32.472V30.408H79.624V32.472H77.08ZM81.88 32.472V30.408H84.448V32.472H81.88ZM77.08 28.344V26.4H79.624V28.344H77.08ZM81.88 26.4H84.448V28.344H81.88V26.4ZM105.136 13.44V32.232H98.272V34.68H119.728V32.232H112.816V13.44H110.296V32.232H107.656V13.44H105.136ZM117.064 17.976C116.056 22.248 114.904 25.8 113.56 28.584L115.816 29.376C117.208 26.304 118.36 22.704 119.272 18.6L117.064 17.976ZM100.84 17.904L98.704 18.624C99.952 22.104 100.96 25.704 101.776 29.448L104.056 28.896C103.12 24.768 102.04 21.096 100.84 17.904ZM131.008 17.184H127.36C127.792 16.08 128.152 14.856 128.416 13.56L125.896 13.224C125.704 14.592 125.392 15.912 124.96 17.184H122.656V34.704H125.056V32.808H128.608V34.008H131.008V17.184ZM125.056 30.504V25.968H128.608V30.504H125.056ZM125.056 23.736V19.536H128.608V23.736H125.056ZM135.376 23.016L133.336 24.288C134.824 26.208 136.024 27.96 136.912 29.544L138.928 28.152C138.088 26.664 136.912 24.96 135.376 23.016ZM143.368 17.184H136.072C136.432 16.032 136.744 14.808 136.984 13.512L134.512 13.2C133.936 16.488 132.88 19.272 131.296 21.528L132.808 23.52C133.696 22.368 134.464 21.072 135.112 19.632H140.92C140.872 26.424 140.8 30.384 140.656 31.536C140.512 32.472 140.008 32.952 139.144 32.952C138.352 32.952 137.416 32.904 136.36 32.832L136.96 35.112C138.208 35.208 139.072 35.256 139.552 35.256C141.616 35.256 142.768 34.416 143.008 32.736C143.248 30.768 143.368 25.584 143.368 17.184ZM167.344 18.936H163.624C164.032 18.312 164.416 17.64 164.752 16.872L162.688 16.104C164.128 15.96 165.472 15.816 166.72 15.624L165.472 13.44C160.48 14.04 154.384 14.352 147.232 14.352L148.024 16.68C153.544 16.68 158.296 16.488 162.28 16.152C161.896 17.112 161.44 18.048 160.96 18.936H158.32C158.08 18.072 157.816 17.304 157.552 16.632L155.128 16.992C155.392 17.592 155.632 18.24 155.848 18.936H152.68C152.464 18.168 152.248 17.448 152.008 16.824L149.56 17.184C149.8 17.736 150.016 18.312 150.208 18.936H146.704V23.232H148.768V25.248H152.056C150.88 28.632 148.96 31.248 146.32 33.12L147.52 35.304C149.68 33.888 151.432 31.944 152.824 29.472C153.856 30.408 154.96 31.248 156.16 32.016C154.624 32.64 152.848 33.072 150.856 33.36L151.984 35.616C154.336 35.184 156.544 34.44 158.608 33.36C160.864 34.416 163.384 35.136 166.12 35.52L167.224 33.264C164.992 33.024 162.904 32.592 160.96 31.92C162.352 30.912 163.552 29.784 164.536 28.488V26.64H154.144C154.312 26.208 154.48 25.728 154.624 25.248H165.304V23.232H167.344V18.936ZM149.248 22.944V21.192H164.8V22.944H155.248L155.488 21.816L152.992 21.504L152.704 22.944H149.248ZM154.984 28.752H161.416C160.552 29.472 159.568 30.192 158.44 30.864C157.192 30.264 156.04 29.568 154.984 28.752ZM173.752 13.08C173.512 14.616 173.248 16.128 172.96 17.592H170.224V20.016H172.432C171.856 22.368 171.232 24.552 170.536 26.568C171.808 27.504 172.984 28.416 174.064 29.304C173.008 30.936 171.64 32.328 170.008 33.528L171.736 35.664C173.464 34.32 174.88 32.76 176.032 30.936C177.04 31.8 177.928 32.616 178.672 33.384L180.376 31.416C179.56 30.6 178.504 29.712 177.232 28.704C178.504 25.944 179.224 22.704 179.368 18.96V17.592H175.432C175.672 16.272 175.936 14.856 176.2 13.32L173.752 13.08ZM175.216 27.192C174.616 26.736 173.968 26.28 173.272 25.8C173.848 24.24 174.4 22.32 174.928 20.016H176.92C176.728 22.68 176.152 25.08 175.216 27.192ZM179.848 23.088V25.536H184.96V31.68C184.96 32.496 184.744 32.904 184.336 32.904C183.16 32.904 182.08 32.88 181.12 32.856L181.768 35.232H185.368C186.76 35.232 187.48 34.296 187.48 32.424V25.536H192.064V23.088H187.48V21.216C188.872 19.8 190.12 18.288 191.224 16.704V14.256H180.52V16.704H188.344C187.24 18.144 186.112 19.392 184.96 20.448V23.088H179.848ZM196.192 15.528V17.856H202.696V19.992H194.272V22.344H204.16C200.944 24.072 197.512 25.368 193.888 26.208L194.944 28.536C196.192 28.08 197.392 27.648 198.544 27.216V35.568H201.088V34.704H210.448V35.568H212.968V24.336H205.216C206.224 23.808 207.136 23.328 207.952 22.848L208.744 22.344H215.848V19.992H211.84C213.136 18.84 214.384 17.568 215.536 16.152L213.64 14.76C212.08 16.68 210.184 18.408 207.976 19.992H205.24V17.856H210.4V15.528H205.24V13.248H202.696V15.528H196.192ZM201.088 30.528H210.448V32.496H201.088V30.528ZM210.448 28.368H201.088V26.496H210.448V28.368Z" fill="black"/>
</svg>
