<svg width="32" height="32" viewBox="0 0 32 32" fill="none" xmlns="http://www.w3.org/2000/svg">
<path d="M4 10L16 4L28 10L16 16L4 10Z" fill="#14AF64"/>
<path fill-rule="evenodd" clip-rule="evenodd" d="M15.5528 3.10557C15.8343 2.96481 16.1657 2.96481 16.4472 3.10557L28.4472 9.10557C28.786 9.27496 29 9.62123 29 10V23C29 23.3788 28.786 23.725 28.4472 23.8944L16.4472 29.8944C16.1657 30.0352 15.8343 30.0352 15.5528 29.8944L3.55279 23.8944C3.214 23.725 3 23.3788 3 23V10C3 9.62123 3.214 9.27496 3.55279 9.10557L15.5528 3.10557ZM5 11.618V22.382L15 27.382V16.618L5 11.618ZM17 16.618V27.382L27 22.382V11.618L17 16.618ZM25.7639 10L16 14.882L6.23607 10L16 5.11803L25.7639 10Z" fill="#2C3330"/>
</svg>
