<svg width="32" height="32" viewBox="0 0 32 32" fill="none" xmlns="http://www.w3.org/2000/svg">
<rect x="24" y="10" width="4" height="17" fill="#14AF64"/>
<path fill-rule="evenodd" clip-rule="evenodd" d="M3 4C3 3.44772 3.44772 3 4 3H24C24.5523 3 25 3.44772 25 4V9H28C28.5523 9 29 9.44772 29 10V26C29 27.6569 27.6569 29 26 29H24H20H4C3.44772 29 3 28.5523 3 28V4ZM20 27H23V26V10V5H5V27H20ZM26 27C26.5523 27 27 26.5523 27 26V11H25V26C25 26.5523 25.4477 27 26 27ZM9 9C9 8.44772 9.44772 8 10 8H18C18.5523 8 19 8.44772 19 9V14C19 14.5523 18.5523 15 18 15H10C9.44772 15 9 14.5523 9 14V9ZM11 10V13H17V10H11ZM9 19H19V17H9V19ZM9 23H19V21H9V23Z" fill="#2C3330"/>
</svg>
