<svg width="160" height="166" viewBox="0 0 160 166" fill="none" xmlns="http://www.w3.org/2000/svg">
<g filter="url(#filter0_d)">
<path d="M10 10H150V150H86L80 156L74 150H10V10Z" fill="white"/>
</g>
<path d="M140 20H20V140H140V20Z" fill="white"/>
<path d="M61.3669 31.4783C62.094 31.4783 62.6835 30.8888 62.6835 30.1617C62.6835 29.4346 62.094 28.8452 61.3669 28.8452C60.6398 28.8452 60.0504 29.4346 60.0504 30.1617C60.0504 30.8888 60.6398 31.4783 61.3669 31.4783Z" fill="#040000"/>
<path d="M80.5269 31.4773C81.254 31.4773 81.8434 30.8879 81.8434 30.1608C81.8434 29.4337 81.254 28.8442 80.5269 28.8442C79.7998 28.8442 79.2104 29.4337 79.2104 30.1608C79.2104 30.8879 79.7998 31.4773 80.5269 31.4773Z" fill="#040000"/>
<path d="M84.3591 31.4783C85.0862 31.4783 85.6756 30.8888 85.6756 30.1617C85.6756 29.4346 85.0862 28.8452 84.3591 28.8452C83.632 28.8452 83.0425 29.4346 83.0425 30.1617C83.0425 30.8888 83.632 31.4783 84.3591 31.4783Z" fill="#040000"/>
<path d="M95.8548 31.4783C96.5819 31.4783 97.1713 30.8888 97.1713 30.1617C97.1713 29.4346 96.5819 28.8452 95.8548 28.8452C95.1277 28.8452 94.5383 29.4346 94.5383 30.1617C94.5383 30.8888 95.1277 31.4783 95.8548 31.4783Z" fill="#040000"/>
<path d="M99.6869 31.4783C100.414 31.4783 101.003 30.8888 101.003 30.1617C101.003 29.4346 100.414 28.8452 99.6869 28.8452C98.9598 28.8452 98.3704 29.4346 98.3704 30.1617C98.3704 30.8888 98.9598 31.4783 99.6869 31.4783Z" fill="#040000"/>
<path d="M103.519 27.6296C104.246 27.6296 104.836 27.0402 104.836 26.3131C104.836 25.586 104.246 24.9966 103.519 24.9966C102.792 24.9966 102.203 25.586 102.203 26.3131C102.203 27.0402 102.792 27.6296 103.519 27.6296Z" fill="#040000"/>
<path d="M99.6869 27.6296C100.414 27.6296 101.003 27.0402 101.003 26.3131C101.003 25.586 100.414 24.9966 99.6869 24.9966C98.9598 24.9966 98.3704 25.586 98.3704 26.3131C98.3704 27.0402 98.9598 27.6296 99.6869 27.6296Z" fill="#040000"/>
<path d="M57.5356 35.3259C58.2627 35.3259 58.8522 34.7365 58.8522 34.0094C58.8522 33.2823 58.2627 32.6929 57.5356 32.6929C56.8085 32.6929 56.2191 33.2823 56.2191 34.0094C56.2191 34.7365 56.8085 35.3259 57.5356 35.3259Z" fill="#040000"/>
<path d="M69.0313 35.3259C69.7584 35.3259 70.3478 34.7365 70.3478 34.0094C70.3478 33.2823 69.7584 32.6929 69.0313 32.6929C68.3042 32.6929 67.7148 33.2823 67.7148 34.0094C67.7148 34.7365 68.3042 35.3259 69.0313 35.3259Z" fill="#040000"/>
<path d="M80.5269 35.3259C81.254 35.3259 81.8434 34.7365 81.8434 34.0094C81.8434 33.2823 81.254 32.6929 80.5269 32.6929C79.7998 32.6929 79.2104 33.2823 79.2104 34.0094C79.2104 34.7365 79.7998 35.3259 80.5269 35.3259Z" fill="#040000"/>
<path d="M84.3591 35.3259C85.0862 35.3259 85.6756 34.7365 85.6756 34.0094C85.6756 33.2823 85.0862 32.6929 84.3591 32.6929C83.632 32.6929 83.0425 33.2823 83.0425 34.0094C83.0425 34.7365 83.632 35.3259 84.3591 35.3259Z" fill="#040000"/>
<path d="M88.1913 35.3259C88.9184 35.3259 89.5078 34.7365 89.5078 34.0094C89.5078 33.2823 88.9184 32.6929 88.1913 32.6929C87.4642 32.6929 86.8748 33.2823 86.8748 34.0094C86.8748 34.7365 87.4642 35.3259 88.1913 35.3259Z" fill="#040000"/>
<path d="M99.6869 35.3259C100.414 35.3259 101.003 34.7365 101.003 34.0094C101.003 33.2823 100.414 32.6929 99.6869 32.6929C98.9598 32.6929 98.3704 33.2823 98.3704 34.0094C98.3704 34.7365 98.9598 35.3259 99.6869 35.3259Z" fill="#040000"/>
<path d="M103.519 35.3259C104.246 35.3259 104.836 34.7365 104.836 34.0094C104.836 33.2823 104.246 32.6929 103.519 32.6929C102.792 32.6929 102.203 33.2823 102.203 34.0094C102.203 34.7365 102.792 35.3259 103.519 35.3259Z" fill="#040000"/>
<path d="M61.3669 39.1741C62.094 39.1741 62.6835 38.5846 62.6835 37.8575C62.6835 37.1304 62.094 36.541 61.3669 36.541C60.6398 36.541 60.0504 37.1304 60.0504 37.8575C60.0504 38.5846 60.6398 39.1741 61.3669 39.1741Z" fill="#040000"/>
<path d="M72.8635 39.1741C73.5906 39.1741 74.18 38.5846 74.18 37.8575C74.18 37.1304 73.5906 36.541 72.8635 36.541C72.1364 36.541 71.5469 37.1304 71.5469 37.8575C71.5469 38.5846 72.1364 39.1741 72.8635 39.1741Z" fill="#040000"/>
<path d="M76.6948 39.1745C77.4219 39.1745 78.0113 38.5851 78.0113 37.858C78.0113 37.1309 77.4219 36.5415 76.6948 36.5415C75.9677 36.5415 75.3782 37.1309 75.3782 37.858C75.3782 38.5851 75.9677 39.1745 76.6948 39.1745Z" fill="#040000"/>
<path d="M80.5269 39.1741C81.254 39.1741 81.8434 38.5846 81.8434 37.8575C81.8434 37.1304 81.254 36.541 80.5269 36.541C79.7998 36.541 79.2104 37.1304 79.2104 37.8575C79.2104 38.5846 79.7998 39.1741 80.5269 39.1741Z" fill="#040000"/>
<path d="M84.3591 39.1741C85.0862 39.1741 85.6756 38.5846 85.6756 37.8575C85.6756 37.1304 85.0862 36.541 84.3591 36.541C83.632 36.541 83.0425 37.1304 83.0425 37.8575C83.0425 38.5846 83.632 39.1741 84.3591 39.1741Z" fill="#040000"/>
<path d="M88.1913 39.1741C88.9184 39.1741 89.5078 38.5846 89.5078 37.8575C89.5078 37.1304 88.9184 36.541 88.1913 36.541C87.4642 36.541 86.8748 37.1304 86.8748 37.8575C86.8748 38.5846 87.4642 39.1741 88.1913 39.1741Z" fill="#040000"/>
<path d="M92.0235 39.1741C92.7506 39.1741 93.34 38.5846 93.34 37.8575C93.34 37.1304 92.7506 36.541 92.0235 36.541C91.2964 36.541 90.707 37.1304 90.707 37.8575C90.707 38.5846 91.2964 39.1741 92.0235 39.1741Z" fill="#040000"/>
<path d="M95.8548 39.1741C96.5819 39.1741 97.1713 38.5846 97.1713 37.8575C97.1713 37.1304 96.5819 36.541 95.8548 36.541C95.1277 36.541 94.5383 37.1304 94.5383 37.8575C94.5383 38.5846 95.1277 39.1741 95.8548 39.1741Z" fill="#040000"/>
<path d="M99.6869 39.1741C100.414 39.1741 101.003 38.5846 101.003 37.8575C101.003 37.1304 100.414 36.541 99.6869 36.541C98.9598 36.541 98.3704 37.1304 98.3704 37.8575C98.3704 38.5846 98.9598 39.1741 99.6869 39.1741Z" fill="#040000"/>
<path d="M103.519 39.1741C104.246 39.1741 104.836 38.5846 104.836 37.8575C104.836 37.1304 104.246 36.541 103.519 36.541C102.792 36.541 102.203 37.1304 102.203 37.8575C102.203 38.5846 102.792 39.1741 103.519 39.1741Z" fill="#040000"/>
<path d="M61.3669 43.0227C62.094 43.0227 62.6835 42.4333 62.6835 41.7062C62.6835 40.9791 62.094 40.3896 61.3669 40.3896C60.6398 40.3896 60.0504 40.9791 60.0504 41.7062C60.0504 42.4333 60.6398 43.0227 61.3669 43.0227Z" fill="#040000"/>
<path d="M72.8635 43.0227C73.5906 43.0227 74.18 42.4333 74.18 41.7062C74.18 40.9791 73.5906 40.3896 72.8635 40.3896C72.1364 40.3896 71.5469 40.9791 71.5469 41.7062C71.5469 42.4333 72.1364 43.0227 72.8635 43.0227Z" fill="#040000"/>
<path d="M76.6948 43.0227C77.4219 43.0227 78.0113 42.4333 78.0113 41.7062C78.0113 40.9791 77.4219 40.3896 76.6948 40.3896C75.9677 40.3896 75.3782 40.9791 75.3782 41.7062C75.3782 42.4333 75.9677 43.0227 76.6948 43.0227Z" fill="#040000"/>
<path d="M84.3591 43.0217C85.0862 43.0217 85.6756 42.4323 85.6756 41.7052C85.6756 40.9781 85.0862 40.3887 84.3591 40.3887C83.632 40.3887 83.0425 40.9781 83.0425 41.7052C83.0425 42.4323 83.632 43.0217 84.3591 43.0217Z" fill="#040000"/>
<path d="M99.6869 43.0227C100.414 43.0227 101.003 42.4333 101.003 41.7062C101.003 40.9791 100.414 40.3896 99.6869 40.3896C98.9598 40.3896 98.3704 40.9791 98.3704 41.7062C98.3704 42.4333 98.9598 43.0227 99.6869 43.0227Z" fill="#040000"/>
<path d="M65.1991 46.7688C65.9262 46.7688 66.5156 46.1794 66.5156 45.4523C66.5156 44.7252 65.9262 44.1357 65.1991 44.1357C64.472 44.1357 63.8826 44.7252 63.8826 45.4523C63.8826 46.1794 64.472 46.7688 65.1991 46.7688Z" fill="#040000"/>
<path d="M69.0313 46.7688C69.7584 46.7688 70.3478 46.1794 70.3478 45.4523C70.3478 44.7252 69.7584 44.1357 69.0313 44.1357C68.3042 44.1357 67.7148 44.7252 67.7148 45.4523C67.7148 46.1794 68.3042 46.7688 69.0313 46.7688Z" fill="#040000"/>
<path d="M72.8635 46.7688C73.5906 46.7688 74.18 46.1794 74.18 45.4523C74.18 44.7252 73.5906 44.1357 72.8635 44.1357C72.1364 44.1357 71.5469 44.7252 71.5469 45.4523C71.5469 46.1794 72.1364 46.7688 72.8635 46.7688Z" fill="#040000"/>
<path d="M80.5269 46.7688C81.254 46.7688 81.8434 46.1794 81.8434 45.4523C81.8434 44.7252 81.254 44.1357 80.5269 44.1357C79.7998 44.1357 79.2104 44.7252 79.2104 45.4523C79.2104 46.1794 79.7998 46.7688 80.5269 46.7688Z" fill="#040000"/>
<path d="M84.3591 46.7688C85.0862 46.7688 85.6756 46.1794 85.6756 45.4523C85.6756 44.7252 85.0862 44.1357 84.3591 44.1357C83.632 44.1357 83.0425 44.7252 83.0425 45.4523C83.0425 46.1794 83.632 46.7688 84.3591 46.7688Z" fill="#040000"/>
<path d="M92.0235 46.7688C92.7506 46.7688 93.34 46.1794 93.34 45.4523C93.34 44.7252 92.7506 44.1357 92.0235 44.1357C91.2964 44.1357 90.707 44.7252 90.707 45.4523C90.707 46.1794 91.2964 46.7688 92.0235 46.7688Z" fill="#040000"/>
<path d="M99.6869 46.7688C100.414 46.7688 101.003 46.1794 101.003 45.4523C101.003 44.7252 100.414 44.1357 99.6869 44.1357C98.9598 44.1357 98.3704 44.7252 98.3704 45.4523C98.3704 46.1794 98.9598 46.7688 99.6869 46.7688Z" fill="#040000"/>
<path d="M103.519 46.7688C104.246 46.7688 104.836 46.1794 104.836 45.4523C104.836 44.7252 104.246 44.1357 103.519 44.1357C102.792 44.1357 102.203 44.7252 102.203 45.4523C102.203 46.1794 102.792 46.7688 103.519 46.7688Z" fill="#040000"/>
<path d="M57.5356 50.6008C58.2627 50.6008 58.8522 50.0114 58.8522 49.2843C58.8522 48.5572 58.2627 47.9678 57.5356 47.9678C56.8085 47.9678 56.2191 48.5572 56.2191 49.2843C56.2191 50.0114 56.8085 50.6008 57.5356 50.6008Z" fill="#040000"/>
<path d="M65.1991 50.6008C65.9262 50.6008 66.5156 50.0114 66.5156 49.2843C66.5156 48.5572 65.9262 47.9678 65.1991 47.9678C64.472 47.9678 63.8826 48.5572 63.8826 49.2843C63.8826 50.0114 64.472 50.6008 65.1991 50.6008Z" fill="#040000"/>
<path d="M72.8635 50.6008C73.5906 50.6008 74.18 50.0114 74.18 49.2843C74.18 48.5572 73.5906 47.9678 72.8635 47.9678C72.1364 47.9678 71.5469 48.5572 71.5469 49.2843C71.5469 50.0114 72.1364 50.6008 72.8635 50.6008Z" fill="#040000"/>
<path d="M80.5269 50.6008C81.254 50.6008 81.8434 50.0114 81.8434 49.2843C81.8434 48.5572 81.254 47.9678 80.5269 47.9678C79.7998 47.9678 79.2104 48.5572 79.2104 49.2843C79.2104 50.0114 79.7998 50.6008 80.5269 50.6008Z" fill="#040000"/>
<path d="M88.1913 50.6008C88.9184 50.6008 89.5078 50.0114 89.5078 49.2843C89.5078 48.5572 88.9184 47.9678 88.1913 47.9678C87.4642 47.9678 86.8748 48.5572 86.8748 49.2843C86.8748 50.0114 87.4642 50.6008 88.1913 50.6008Z" fill="#040000"/>
<path d="M95.8548 50.6008C96.5819 50.6008 97.1713 50.0114 97.1713 49.2843C97.1713 48.5572 96.5819 47.9678 95.8548 47.9678C95.1277 47.9678 94.5383 48.5572 94.5383 49.2843C94.5383 50.0114 95.1277 50.6008 95.8548 50.6008Z" fill="#040000"/>
<path d="M103.519 50.6008C104.246 50.6008 104.836 50.0114 104.836 49.2843C104.836 48.5572 104.246 47.9678 103.519 47.9678C102.792 47.9678 102.203 48.5572 102.203 49.2843C102.203 50.0114 102.792 50.6008 103.519 50.6008Z" fill="#040000"/>
<path d="M57.5356 54.4328C58.2627 54.4328 58.8522 53.8434 58.8522 53.1163C58.8522 52.3892 58.2627 51.7998 57.5356 51.7998C56.8085 51.7998 56.2191 52.3892 56.2191 53.1163C56.2191 53.8434 56.8085 54.4328 57.5356 54.4328Z" fill="#040000"/>
<path d="M69.0313 54.4328C69.7584 54.4328 70.3478 53.8434 70.3478 53.1163C70.3478 52.3892 69.7584 51.7998 69.0313 51.7998C68.3042 51.7998 67.7148 52.3892 67.7148 53.1163C67.7148 53.8434 68.3042 54.4328 69.0313 54.4328Z" fill="#040000"/>
<path d="M76.6948 54.4328C77.4219 54.4328 78.0113 53.8434 78.0113 53.1163C78.0113 52.3892 77.4219 51.7998 76.6948 51.7998C75.9677 51.7998 75.3782 52.3892 75.3782 53.1163C75.3782 53.8434 75.9677 54.4328 76.6948 54.4328Z" fill="#040000"/>
<path d="M80.5269 54.4328C81.254 54.4328 81.8434 53.8434 81.8434 53.1163C81.8434 52.3892 81.254 51.7998 80.5269 51.7998C79.7998 51.7998 79.2104 52.3892 79.2104 53.1163C79.2104 53.8434 79.7998 54.4328 80.5269 54.4328Z" fill="#040000"/>
<path d="M88.1913 54.4328C88.9184 54.4328 89.5078 53.8434 89.5078 53.1163C89.5078 52.3892 88.9184 51.7998 88.1913 51.7998C87.4642 51.7998 86.8748 52.3892 86.8748 53.1163C86.8748 53.8434 87.4642 54.4328 88.1913 54.4328Z" fill="#040000"/>
<path d="M92.0235 54.4328C92.7506 54.4328 93.34 53.8434 93.34 53.1163C93.34 52.3892 92.7506 51.7998 92.0235 51.7998C91.2964 51.7998 90.707 52.3892 90.707 53.1163C90.707 53.8434 91.2964 54.4328 92.0235 54.4328Z" fill="#040000"/>
<path d="M103.519 54.4324C104.246 54.4324 104.836 53.8429 104.836 53.1158C104.836 52.3887 104.246 51.7993 103.519 51.7993C102.792 51.7993 102.203 52.3887 102.203 53.1158C102.203 53.8429 102.792 54.4324 103.519 54.4324Z" fill="#040000"/>
<path d="M26.9034 58.2644C27.6305 58.2644 28.22 57.675 28.22 56.9479C28.22 56.2208 27.6305 55.6313 26.9034 55.6313C26.1763 55.6313 25.5869 56.2208 25.5869 56.9479C25.5869 57.675 26.1763 58.2644 26.9034 58.2644Z" fill="#040000"/>
<path d="M30.7513 58.2644C31.4784 58.2644 32.0678 57.675 32.0678 56.9479C32.0678 56.2208 31.4784 55.6313 30.7513 55.6313C30.0242 55.6313 29.4348 56.2208 29.4348 56.9479C29.4348 57.675 30.0242 58.2644 30.7513 58.2644Z" fill="#040000"/>
<path d="M34.5991 58.2644C35.3262 58.2644 35.9156 57.675 35.9156 56.9479C35.9156 56.2208 35.3262 55.6313 34.5991 55.6313C33.872 55.6313 33.2826 56.2208 33.2826 56.9479C33.2826 57.675 33.872 58.2644 34.5991 58.2644Z" fill="#040000"/>
<path d="M42.2956 58.2644C43.0227 58.2644 43.6122 57.675 43.6122 56.9479C43.6122 56.2208 43.0227 55.6313 42.2956 55.6313C41.5686 55.6313 40.9791 56.2208 40.9791 56.9479C40.9791 57.675 41.5686 58.2644 42.2956 58.2644Z" fill="#040000"/>
<path d="M46.0391 58.2644C46.7662 58.2644 47.3556 57.675 47.3556 56.9479C47.3556 56.2208 46.7662 55.6313 46.0391 55.6313C45.312 55.6313 44.7226 56.2208 44.7226 56.9479C44.7226 57.675 45.312 58.2644 46.0391 58.2644Z" fill="#040000"/>
<path d="M49.8713 58.2644C50.5984 58.2644 51.1879 57.675 51.1879 56.9479C51.1879 56.2208 50.5984 55.6313 49.8713 55.6313C49.1442 55.6313 48.5548 56.2208 48.5548 56.9479C48.5548 57.675 49.1442 58.2644 49.8713 58.2644Z" fill="#040000"/>
<path d="M53.7035 58.2644C54.4306 58.2644 55.02 57.675 55.02 56.9479C55.02 56.2208 54.4306 55.6313 53.7035 55.6313C52.9764 55.6313 52.387 56.2208 52.387 56.9479C52.387 57.675 52.9764 58.2644 53.7035 58.2644Z" fill="#040000"/>
<path d="M57.5356 58.2644C58.2627 58.2644 58.8522 57.675 58.8522 56.9479C58.8522 56.2208 58.2627 55.6313 57.5356 55.6313C56.8085 55.6313 56.2191 56.2208 56.2191 56.9479C56.2191 57.675 56.8085 58.2644 57.5356 58.2644Z" fill="#040000"/>
<path d="M72.8635 58.2644C73.5906 58.2644 74.18 57.675 74.18 56.9479C74.18 56.2208 73.5906 55.6313 72.8635 55.6313C72.1364 55.6313 71.5469 56.2208 71.5469 56.9479C71.5469 57.675 72.1364 58.2644 72.8635 58.2644Z" fill="#040000"/>
<path d="M84.3591 58.2644C85.0862 58.2644 85.6756 57.675 85.6756 56.9479C85.6756 56.2208 85.0862 55.6313 84.3591 55.6313C83.632 55.6313 83.0425 56.2208 83.0425 56.9479C83.0425 57.675 83.632 58.2644 84.3591 58.2644Z" fill="#040000"/>
<path d="M88.1913 58.2644C88.9184 58.2644 89.5078 57.675 89.5078 56.9479C89.5078 56.2208 88.9184 55.6313 88.1913 55.6313C87.4642 55.6313 86.8748 56.2208 86.8748 56.9479C86.8748 57.675 87.4642 58.2644 88.1913 58.2644Z" fill="#040000"/>
<path d="M99.6869 58.2644C100.414 58.2644 101.003 57.675 101.003 56.9479C101.003 56.2208 100.414 55.6313 99.6869 55.6313C98.9598 55.6313 98.3704 56.2208 98.3704 56.9479C98.3704 57.675 98.9598 58.2644 99.6869 58.2644Z" fill="#040000"/>
<path d="M103.519 58.2654C104.246 58.2654 104.836 57.6759 104.836 56.9488C104.836 56.2218 104.246 55.6323 103.519 55.6323C102.792 55.6323 102.203 56.2218 102.203 56.9488C102.203 57.6759 102.792 58.2654 103.519 58.2654Z" fill="#040000"/>
<path d="M107.351 58.2644C108.078 58.2644 108.668 57.675 108.668 56.9479C108.668 56.2208 108.078 55.6313 107.351 55.6313C106.624 55.6313 106.035 56.2208 106.035 56.9479C106.035 57.675 106.624 58.2644 107.351 58.2644Z" fill="#040000"/>
<path d="M111.183 58.2654C111.91 58.2654 112.499 57.6759 112.499 56.9488C112.499 56.2218 111.91 55.6323 111.183 55.6323C110.456 55.6323 109.866 56.2218 109.866 56.9488C109.866 57.6759 110.456 58.2654 111.183 58.2654Z" fill="#040000"/>
<path d="M126.459 58.2644C127.186 58.2644 127.776 57.675 127.776 56.9479C127.776 56.2208 127.186 55.6313 126.459 55.6313C125.732 55.6313 125.143 56.2208 125.143 56.9479C125.143 57.675 125.732 58.2644 126.459 58.2644Z" fill="#040000"/>
<path d="M30.7513 62.0964C31.4784 62.0964 32.0678 61.507 32.0678 60.7799C32.0678 60.0528 31.4784 59.4634 30.7513 59.4634C30.0242 59.4634 29.4348 60.0528 29.4348 60.7799C29.4348 61.507 30.0242 62.0964 30.7513 62.0964Z" fill="#040000"/>
<path d="M34.5991 62.0964C35.3262 62.0964 35.9156 61.507 35.9156 60.7799C35.9156 60.0528 35.3262 59.4634 34.5991 59.4634C33.872 59.4634 33.2826 60.0528 33.2826 60.7799C33.2826 61.507 33.872 62.0964 34.5991 62.0964Z" fill="#040000"/>
<path d="M53.7035 62.0964C54.4306 62.0964 55.02 61.507 55.02 60.7799C55.02 60.0528 54.4306 59.4634 53.7035 59.4634C52.9764 59.4634 52.387 60.0528 52.387 60.7799C52.387 61.507 52.9764 62.0964 53.7035 62.0964Z" fill="#040000"/>
<path d="M61.3669 62.0964C62.094 62.0964 62.6835 61.507 62.6835 60.7799C62.6835 60.0528 62.094 59.4634 61.3669 59.4634C60.6398 59.4634 60.0504 60.0528 60.0504 60.7799C60.0504 61.507 60.6398 62.0964 61.3669 62.0964Z" fill="#040000"/>
<path d="M69.0313 62.0964C69.7584 62.0964 70.3478 61.507 70.3478 60.7799C70.3478 60.0528 69.7584 59.4634 69.0313 59.4634C68.3042 59.4634 67.7148 60.0528 67.7148 60.7799C67.7148 61.507 68.3042 62.0964 69.0313 62.0964Z" fill="#040000"/>
<path d="M72.8635 62.0964C73.5906 62.0964 74.18 61.507 74.18 60.7799C74.18 60.0528 73.5906 59.4634 72.8635 59.4634C72.1364 59.4634 71.5469 60.0528 71.5469 60.7799C71.5469 61.507 72.1364 62.0964 72.8635 62.0964Z" fill="#040000"/>
<path d="M76.6948 62.0964C77.4219 62.0964 78.0113 61.507 78.0113 60.7799C78.0113 60.0528 77.4219 59.4634 76.6948 59.4634C75.9677 59.4634 75.3782 60.0528 75.3782 60.7799C75.3782 61.507 75.9677 62.0964 76.6948 62.0964Z" fill="#040000"/>
<path d="M80.5269 62.0964C81.254 62.0964 81.8434 61.507 81.8434 60.7799C81.8434 60.0528 81.254 59.4634 80.5269 59.4634C79.7998 59.4634 79.2104 60.0528 79.2104 60.7799C79.2104 61.507 79.7998 62.0964 80.5269 62.0964Z" fill="#040000"/>
<path d="M88.1913 62.0964C88.9184 62.0964 89.5078 61.507 89.5078 60.7799C89.5078 60.0528 88.9184 59.4634 88.1913 59.4634C87.4642 59.4634 86.8748 60.0528 86.8748 60.7799C86.8748 61.507 87.4642 62.0964 88.1913 62.0964Z" fill="#040000"/>
<path d="M92.0235 62.0964C92.7506 62.0964 93.34 61.507 93.34 60.7799C93.34 60.0528 92.7506 59.4634 92.0235 59.4634C91.2964 59.4634 90.707 60.0528 90.707 60.7799C90.707 61.507 91.2964 62.0964 92.0235 62.0964Z" fill="#040000"/>
<path d="M107.351 62.0964C108.078 62.0964 108.668 61.507 108.668 60.7799C108.668 60.0528 108.078 59.4634 107.351 59.4634C106.624 59.4634 106.035 60.0528 106.035 60.7799C106.035 61.507 106.624 62.0964 107.351 62.0964Z" fill="#040000"/>
<path d="M111.183 62.0964C111.91 62.0964 112.499 61.507 112.499 60.7799C112.499 60.0528 111.91 59.4634 111.183 59.4634C110.456 59.4634 109.866 60.0528 109.866 60.7799C109.866 61.507 110.456 62.0964 111.183 62.0964Z" fill="#040000"/>
<path d="M122.611 62.0964C123.338 62.0964 123.928 61.507 123.928 60.7799C123.928 60.0528 123.338 59.4634 122.611 59.4634C121.884 59.4634 121.295 60.0528 121.295 60.7799C121.295 61.507 121.884 62.0964 122.611 62.0964Z" fill="#040000"/>
<path d="M134.156 62.0964C134.883 62.0964 135.472 61.507 135.472 60.7799C135.472 60.0528 134.883 59.4634 134.156 59.4634C133.429 59.4634 132.839 60.0528 132.839 60.7799C132.839 61.507 133.429 62.0964 134.156 62.0964Z" fill="#040000"/>
<path d="M26.9034 65.9285C27.6305 65.9285 28.22 65.339 28.22 64.6119C28.22 63.8848 27.6305 63.2954 26.9034 63.2954C26.1763 63.2954 25.5869 63.8848 25.5869 64.6119C25.5869 65.339 26.1763 65.9285 26.9034 65.9285Z" fill="#040000"/>
<path d="M30.7513 65.9285C31.4784 65.9285 32.0678 65.339 32.0678 64.6119C32.0678 63.8848 31.4784 63.2954 30.7513 63.2954C30.0242 63.2954 29.4348 63.8848 29.4348 64.6119C29.4348 65.339 30.0242 65.9285 30.7513 65.9285Z" fill="#040000"/>
<path d="M38.4478 65.9285C39.1749 65.9285 39.7643 65.339 39.7643 64.6119C39.7643 63.8848 39.1749 63.2954 38.4478 63.2954C37.7207 63.2954 37.1313 63.8848 37.1313 64.6119C37.1313 65.339 37.7207 65.9285 38.4478 65.9285Z" fill="#040000"/>
<path d="M42.2956 65.9285C43.0227 65.9285 43.6122 65.339 43.6122 64.6119C43.6122 63.8848 43.0227 63.2954 42.2956 63.2954C41.5686 63.2954 40.9791 63.8848 40.9791 64.6119C40.9791 65.339 41.5686 65.9285 42.2956 65.9285Z" fill="#040000"/>
<path d="M46.0391 65.9285C46.7662 65.9285 47.3556 65.339 47.3556 64.6119C47.3556 63.8848 46.7662 63.2954 46.0391 63.2954C45.312 63.2954 44.7226 63.8848 44.7226 64.6119C44.7226 65.339 45.312 65.9285 46.0391 65.9285Z" fill="#040000"/>
<path d="M49.8713 65.9285C50.5984 65.9285 51.1879 65.339 51.1879 64.6119C51.1879 63.8848 50.5984 63.2954 49.8713 63.2954C49.1442 63.2954 48.5548 63.8848 48.5548 64.6119C48.5548 65.339 49.1442 65.9285 49.8713 65.9285Z" fill="#040000"/>
<path d="M57.5356 65.928C58.2627 65.928 58.8522 65.3385 58.8522 64.6114C58.8522 63.8843 58.2627 63.2949 57.5356 63.2949C56.8085 63.2949 56.2191 63.8843 56.2191 64.6114C56.2191 65.3385 56.8085 65.928 57.5356 65.928Z" fill="#040000"/>
<path d="M65.1991 65.928C65.9262 65.928 66.5156 65.3385 66.5156 64.6114C66.5156 63.8843 65.9262 63.2949 65.1991 63.2949C64.472 63.2949 63.8826 63.8843 63.8826 64.6114C63.8826 65.3385 64.472 65.928 65.1991 65.928Z" fill="#040000"/>
<path d="M69.0313 65.928C69.7584 65.928 70.3478 65.3385 70.3478 64.6114C70.3478 63.8843 69.7584 63.2949 69.0313 63.2949C68.3042 63.2949 67.7148 63.8843 67.7148 64.6114C67.7148 65.3385 68.3042 65.928 69.0313 65.928Z" fill="#040000"/>
<path d="M72.8635 65.9285C73.5906 65.9285 74.18 65.339 74.18 64.6119C74.18 63.8848 73.5906 63.2954 72.8635 63.2954C72.1364 63.2954 71.5469 63.8848 71.5469 64.6119C71.5469 65.339 72.1364 65.9285 72.8635 65.9285Z" fill="#040000"/>
<path d="M76.6948 65.9285C77.4219 65.9285 78.0113 65.339 78.0113 64.6119C78.0113 63.8848 77.4219 63.2954 76.6948 63.2954C75.9677 63.2954 75.3782 63.8848 75.3782 64.6119C75.3782 65.339 75.9677 65.9285 76.6948 65.9285Z" fill="#040000"/>
<path d="M88.1913 65.9294C88.9184 65.9294 89.5078 65.34 89.5078 64.6129C89.5078 63.8858 88.9184 63.2964 88.1913 63.2964C87.4642 63.2964 86.8748 63.8858 86.8748 64.6129C86.8748 65.34 87.4642 65.9294 88.1913 65.9294Z" fill="#040000"/>
<path d="M92.0235 65.9285C92.7506 65.9285 93.34 65.339 93.34 64.6119C93.34 63.8848 92.7506 63.2954 92.0235 63.2954C91.2964 63.2954 90.707 63.8848 90.707 64.6119C90.707 65.339 91.2964 65.9285 92.0235 65.9285Z" fill="#040000"/>
<path d="M95.8548 65.9285C96.5819 65.9285 97.1713 65.339 97.1713 64.6119C97.1713 63.8848 96.5819 63.2954 95.8548 63.2954C95.1277 63.2954 94.5383 63.8848 94.5383 64.6119C94.5383 65.339 95.1277 65.9285 95.8548 65.9285Z" fill="#040000"/>
<path d="M107.351 65.9285C108.078 65.9285 108.668 65.339 108.668 64.6119C108.668 63.8848 108.078 63.2954 107.351 63.2954C106.624 63.2954 106.035 63.8848 106.035 64.6119C106.035 65.339 106.624 65.9285 107.351 65.9285Z" fill="#040000"/>
<path d="M115.015 65.9285C115.742 65.9285 116.331 65.339 116.331 64.6119C116.331 63.8848 115.742 63.2954 115.015 63.2954C114.288 63.2954 113.698 63.8848 113.698 64.6119C113.698 65.339 114.288 65.9285 115.015 65.9285Z" fill="#040000"/>
<path d="M118.763 65.9285C119.491 65.9285 120.08 65.339 120.08 64.6119C120.08 63.8848 119.491 63.2954 118.763 63.2954C118.036 63.2954 117.447 63.8848 117.447 64.6119C117.447 65.339 118.036 65.9285 118.763 65.9285Z" fill="#040000"/>
<path d="M126.459 65.9285C127.186 65.9285 127.776 65.339 127.776 64.6119C127.776 63.8848 127.186 63.2954 126.459 63.2954C125.732 63.2954 125.143 63.8848 125.143 64.6119C125.143 65.339 125.732 65.9285 126.459 65.9285Z" fill="#040000"/>
<path d="M130.308 65.9285C131.035 65.9285 131.624 65.339 131.624 64.6119C131.624 63.8848 131.035 63.2954 130.308 63.2954C129.581 63.2954 128.991 63.8848 128.991 64.6119C128.991 65.339 129.581 65.9285 130.308 65.9285Z" fill="#040000"/>
<path d="M134.156 65.9285C134.883 65.9285 135.472 65.339 135.472 64.6119C135.472 63.8848 134.883 63.2954 134.156 63.2954C133.429 63.2954 132.839 63.8848 132.839 64.6119C132.839 65.339 133.429 65.9285 134.156 65.9285Z" fill="#040000"/>
<path d="M26.9034 69.76C27.6305 69.76 28.22 69.1706 28.22 68.4435C28.22 67.7164 27.6305 67.127 26.9034 67.127C26.1763 67.127 25.5869 67.7164 25.5869 68.4435C25.5869 69.1706 26.1763 69.76 26.9034 69.76Z" fill="#040000"/>
<path d="M34.5991 69.76C35.3262 69.76 35.9156 69.1706 35.9156 68.4435C35.9156 67.7164 35.3262 67.127 34.5991 67.127C33.872 67.127 33.2826 67.7164 33.2826 68.4435C33.2826 69.1706 33.872 69.76 34.5991 69.76Z" fill="#040000"/>
<path d="M57.5356 69.761C58.2627 69.761 58.8522 69.1715 58.8522 68.4445C58.8522 67.7174 58.2627 67.1279 57.5356 67.1279C56.8085 67.1279 56.2191 67.7174 56.2191 68.4445C56.2191 69.1715 56.8085 69.761 57.5356 69.761Z" fill="#040000"/>
<path d="M61.3669 69.761C62.094 69.761 62.6835 69.1715 62.6835 68.4445C62.6835 67.7174 62.094 67.1279 61.3669 67.1279C60.6398 67.1279 60.0504 67.7174 60.0504 68.4445C60.0504 69.1715 60.6398 69.761 61.3669 69.761Z" fill="#040000"/>
<path d="M65.1991 69.76C65.9262 69.76 66.5156 69.1706 66.5156 68.4435C66.5156 67.7164 65.9262 67.127 65.1991 67.127C64.472 67.127 63.8826 67.7164 63.8826 68.4435C63.8826 69.1706 64.472 69.76 65.1991 69.76Z" fill="#040000"/>
<path d="M72.8635 69.761C73.5906 69.761 74.18 69.1715 74.18 68.4445C74.18 67.7174 73.5906 67.1279 72.8635 67.1279C72.1364 67.1279 71.5469 67.7174 71.5469 68.4445C71.5469 69.1715 72.1364 69.761 72.8635 69.761Z" fill="#040000"/>
<path d="M76.6948 69.761C77.4219 69.761 78.0113 69.1715 78.0113 68.4445C78.0113 67.7174 77.4219 67.1279 76.6948 67.1279C75.9677 67.1279 75.3782 67.7174 75.3782 68.4445C75.3782 69.1715 75.9677 69.761 76.6948 69.761Z" fill="#040000"/>
<path d="M80.5269 69.76C81.254 69.76 81.8434 69.1706 81.8434 68.4435C81.8434 67.7164 81.254 67.127 80.5269 67.127C79.7998 67.127 79.2104 67.7164 79.2104 68.4435C79.2104 69.1706 79.7998 69.76 80.5269 69.76Z" fill="#040000"/>
<path d="M92.0235 69.76C92.7506 69.76 93.34 69.1706 93.34 68.4435C93.34 67.7164 92.7506 67.127 92.0235 67.127C91.2964 67.127 90.707 67.7164 90.707 68.4435C90.707 69.1706 91.2964 69.76 92.0235 69.76Z" fill="#040000"/>
<path d="M99.6869 69.761C100.414 69.761 101.003 69.1715 101.003 68.4445C101.003 67.7174 100.414 67.1279 99.6869 67.1279C98.9598 67.1279 98.3704 67.7174 98.3704 68.4445C98.3704 69.1715 98.9598 69.761 99.6869 69.761Z" fill="#040000"/>
<path d="M103.519 69.76C104.246 69.76 104.836 69.1706 104.836 68.4435C104.836 67.7164 104.246 67.127 103.519 67.127C102.792 67.127 102.203 67.7164 102.203 68.4435C102.203 69.1706 102.792 69.76 103.519 69.76Z" fill="#040000"/>
<path d="M107.351 69.761C108.078 69.761 108.668 69.1715 108.668 68.4445C108.668 67.7174 108.078 67.1279 107.351 67.1279C106.624 67.1279 106.035 67.7174 106.035 68.4445C106.035 69.1715 106.624 69.761 107.351 69.761Z" fill="#040000"/>
<path d="M111.183 69.76C111.91 69.76 112.499 69.1706 112.499 68.4435C112.499 67.7164 111.91 67.127 111.183 67.127C110.456 67.127 109.866 67.7164 109.866 68.4435C109.866 69.1706 110.456 69.76 111.183 69.76Z" fill="#040000"/>
<path d="M115.015 69.761C115.742 69.761 116.331 69.1715 116.331 68.4445C116.331 67.7174 115.742 67.1279 115.015 67.1279C114.288 67.1279 113.698 67.7174 113.698 68.4445C113.698 69.1715 114.288 69.761 115.015 69.761Z" fill="#040000"/>
<path d="M118.763 69.76C119.491 69.76 120.08 69.1706 120.08 68.4435C120.08 67.7164 119.491 67.127 118.763 67.127C118.036 67.127 117.447 67.7164 117.447 68.4435C117.447 69.1706 118.036 69.76 118.763 69.76Z" fill="#040000"/>
<path d="M122.611 69.76C123.338 69.76 123.928 69.1706 123.928 68.4435C123.928 67.7164 123.338 67.127 122.611 67.127C121.884 67.127 121.295 67.7164 121.295 68.4435C121.295 69.1706 121.884 69.76 122.611 69.76Z" fill="#040000"/>
<path d="M130.308 69.761C131.035 69.761 131.624 69.1715 131.624 68.4445C131.624 67.7174 131.035 67.1279 130.308 67.1279C129.581 67.1279 128.991 67.7174 128.991 68.4445C128.991 69.1715 129.581 69.761 130.308 69.761Z" fill="#040000"/>
<path d="M26.9034 73.592C27.6305 73.592 28.22 73.0026 28.22 72.2755C28.22 71.5484 27.6305 70.959 26.9034 70.959C26.1763 70.959 25.5869 71.5484 25.5869 72.2755C25.5869 73.0026 26.1763 73.592 26.9034 73.592Z" fill="#040000"/>
<path d="M49.8713 73.592C50.5984 73.592 51.1879 73.0026 51.1879 72.2755C51.1879 71.5484 50.5984 70.959 49.8713 70.959C49.1442 70.959 48.5548 71.5484 48.5548 72.2755C48.5548 73.0026 49.1442 73.592 49.8713 73.592Z" fill="#040000"/>
<path d="M57.5356 73.593C58.2627 73.593 58.8522 73.0036 58.8522 72.2765C58.8522 71.5494 58.2627 70.96 57.5356 70.96C56.8085 70.96 56.2191 71.5494 56.2191 72.2765C56.2191 73.0036 56.8085 73.593 57.5356 73.593Z" fill="#040000"/>
<path d="M65.1991 73.592C65.9262 73.592 66.5156 73.0026 66.5156 72.2755C66.5156 71.5484 65.9262 70.959 65.1991 70.959C64.472 70.959 63.8826 71.5484 63.8826 72.2755C63.8826 73.0026 64.472 73.592 65.1991 73.592Z" fill="#040000"/>
<path d="M69.0313 73.592C69.7584 73.592 70.3478 73.0026 70.3478 72.2755C70.3478 71.5484 69.7584 70.959 69.0313 70.959C68.3042 70.959 67.7148 71.5484 67.7148 72.2755C67.7148 73.0026 68.3042 73.592 69.0313 73.592Z" fill="#040000"/>
<path d="M76.6948 73.592C77.4219 73.592 78.0113 73.0026 78.0113 72.2755C78.0113 71.5484 77.4219 70.959 76.6948 70.959C75.9677 70.959 75.3782 71.5484 75.3782 72.2755C75.3782 73.0026 75.9677 73.592 76.6948 73.592Z" fill="#040000"/>
<path d="M80.5269 73.592C81.254 73.592 81.8434 73.0026 81.8434 72.2755C81.8434 71.5484 81.254 70.959 80.5269 70.959C79.7998 70.959 79.2104 71.5484 79.2104 72.2755C79.2104 73.0026 79.7998 73.592 80.5269 73.592Z" fill="#040000"/>
<path d="M88.1913 73.593C88.9184 73.593 89.5078 73.0036 89.5078 72.2765C89.5078 71.5494 88.9184 70.96 88.1913 70.96C87.4642 70.96 86.8748 71.5494 86.8748 72.2765C86.8748 73.0036 87.4642 73.593 88.1913 73.593Z" fill="#040000"/>
<path d="M92.0235 73.592C92.7506 73.592 93.34 73.0026 93.34 72.2755C93.34 71.5484 92.7506 70.959 92.0235 70.959C91.2964 70.959 90.707 71.5484 90.707 72.2755C90.707 73.0026 91.2964 73.592 92.0235 73.592Z" fill="#040000"/>
<path d="M95.8548 73.592C96.5819 73.592 97.1713 73.0026 97.1713 72.2755C97.1713 71.5484 96.5819 70.959 95.8548 70.959C95.1277 70.959 94.5383 71.5484 94.5383 72.2755C94.5383 73.0026 95.1277 73.592 95.8548 73.592Z" fill="#040000"/>
<path d="M99.6869 73.592C100.414 73.592 101.003 73.0026 101.003 72.2755C101.003 71.5484 100.414 70.959 99.6869 70.959C98.9598 70.959 98.3704 71.5484 98.3704 72.2755C98.3704 73.0026 98.9598 73.592 99.6869 73.592Z" fill="#040000"/>
<path d="M103.519 73.592C104.246 73.592 104.836 73.0026 104.836 72.2755C104.836 71.5484 104.246 70.959 103.519 70.959C102.792 70.959 102.203 71.5484 102.203 72.2755C102.203 73.0026 102.792 73.592 103.519 73.592Z" fill="#040000"/>
<path d="M111.183 73.593C111.91 73.593 112.499 73.0036 112.499 72.2765C112.499 71.5494 111.91 70.96 111.183 70.96C110.456 70.96 109.866 71.5494 109.866 72.2765C109.866 73.0036 110.456 73.593 111.183 73.593Z" fill="#040000"/>
<path d="M122.611 73.592C123.338 73.592 123.928 73.0026 123.928 72.2755C123.928 71.5484 123.338 70.959 122.611 70.959C121.884 70.959 121.295 71.5484 121.295 72.2755C121.295 73.0026 121.884 73.592 122.611 73.592Z" fill="#040000"/>
<path d="M130.308 73.592C131.035 73.592 131.624 73.0026 131.624 72.2755C131.624 71.5484 131.035 70.959 130.308 70.959C129.581 70.959 128.991 71.5484 128.991 72.2755C128.991 73.0026 129.581 73.592 130.308 73.592Z" fill="#040000"/>
<path d="M134.156 73.593C134.883 73.593 135.472 73.0036 135.472 72.2765C135.472 71.5494 134.883 70.96 134.156 70.96C133.429 70.96 132.839 71.5494 132.839 72.2765C132.839 73.0036 133.429 73.593 134.156 73.593Z" fill="#040000"/>
<path d="M34.5991 77.4241C35.3262 77.4241 35.9156 76.8346 35.9156 76.1075C35.9156 75.3804 35.3262 74.791 34.5991 74.791C33.872 74.791 33.2826 75.3804 33.2826 76.1075C33.2826 76.8346 33.872 77.4241 34.5991 77.4241Z" fill="#040000"/>
<path d="M38.4478 77.4241C39.1749 77.4241 39.7643 76.8346 39.7643 76.1075C39.7643 75.3804 39.1749 74.791 38.4478 74.791C37.7207 74.791 37.1313 75.3804 37.1313 76.1075C37.1313 76.8346 37.7207 77.4241 38.4478 77.4241Z" fill="#040000"/>
<path d="M42.2956 77.4241C43.0227 77.4241 43.6122 76.8346 43.6122 76.1075C43.6122 75.3804 43.0227 74.791 42.2956 74.791C41.5686 74.791 40.9791 75.3804 40.9791 76.1075C40.9791 76.8346 41.5686 77.4241 42.2956 77.4241Z" fill="#040000"/>
<path d="M61.3669 77.4241C62.094 77.4241 62.6835 76.8346 62.6835 76.1075C62.6835 75.3804 62.094 74.791 61.3669 74.791C60.6398 74.791 60.0504 75.3804 60.0504 76.1075C60.0504 76.8346 60.6398 77.4241 61.3669 77.4241Z" fill="#040000"/>
<path d="M65.1991 77.4241C65.9262 77.4241 66.5156 76.8346 66.5156 76.1075C66.5156 75.3804 65.9262 74.791 65.1991 74.791C64.472 74.791 63.8826 75.3804 63.8826 76.1075C63.8826 76.8346 64.472 77.4241 65.1991 77.4241Z" fill="#040000"/>
<path d="M69.0313 77.4241C69.7584 77.4241 70.3478 76.8346 70.3478 76.1075C70.3478 75.3804 69.7584 74.791 69.0313 74.791C68.3042 74.791 67.7148 75.3804 67.7148 76.1075C67.7148 76.8346 68.3042 77.4241 69.0313 77.4241Z" fill="#040000"/>
<path d="M80.5269 77.4241C81.254 77.4241 81.8434 76.8346 81.8434 76.1075C81.8434 75.3804 81.254 74.791 80.5269 74.791C79.7998 74.791 79.2104 75.3804 79.2104 76.1075C79.2104 76.8346 79.7998 77.4241 80.5269 77.4241Z" fill="#040000"/>
<path d="M88.1913 77.4241C88.9184 77.4241 89.5078 76.8346 89.5078 76.1075C89.5078 75.3804 88.9184 74.791 88.1913 74.791C87.4642 74.791 86.8748 75.3804 86.8748 76.1075C86.8748 76.8346 87.4642 77.4241 88.1913 77.4241Z" fill="#040000"/>
<path d="M92.0235 77.4241C92.7506 77.4241 93.34 76.8346 93.34 76.1075C93.34 75.3804 92.7506 74.791 92.0235 74.791C91.2964 74.791 90.707 75.3804 90.707 76.1075C90.707 76.8346 91.2964 77.4241 92.0235 77.4241Z" fill="#040000"/>
<path d="M95.8548 77.4241C96.5819 77.4241 97.1713 76.8346 97.1713 76.1075C97.1713 75.3804 96.5819 74.791 95.8548 74.791C95.1277 74.791 94.5383 75.3804 94.5383 76.1075C94.5383 76.8346 95.1277 77.4241 95.8548 77.4241Z" fill="#040000"/>
<path d="M103.519 77.4241C104.246 77.4241 104.836 76.8346 104.836 76.1075C104.836 75.3804 104.246 74.791 103.519 74.791C102.792 74.791 102.203 75.3804 102.203 76.1075C102.203 76.8346 102.792 77.4241 103.519 77.4241Z" fill="#040000"/>
<path d="M107.351 77.4241C108.078 77.4241 108.668 76.8346 108.668 76.1075C108.668 75.3804 108.078 74.791 107.351 74.791C106.624 74.791 106.035 75.3804 106.035 76.1075C106.035 76.8346 106.624 77.4241 107.351 77.4241Z" fill="#040000"/>
<path d="M111.183 77.4241C111.91 77.4241 112.499 76.8346 112.499 76.1075C112.499 75.3804 111.91 74.791 111.183 74.791C110.456 74.791 109.866 75.3804 109.866 76.1075C109.866 76.8346 110.456 77.4241 111.183 77.4241Z" fill="#040000"/>
<path d="M122.611 77.4241C123.338 77.4241 123.928 76.8346 123.928 76.1075C123.928 75.3804 123.338 74.791 122.611 74.791C121.884 74.791 121.295 75.3804 121.295 76.1075C121.295 76.8346 121.884 77.4241 122.611 77.4241Z" fill="#040000"/>
<path d="M126.459 77.4241C127.186 77.4241 127.776 76.8346 127.776 76.1075C127.776 75.3804 127.186 74.791 126.459 74.791C125.732 74.791 125.143 75.3804 125.143 76.1075C125.143 76.8346 125.732 77.4241 126.459 77.4241Z" fill="#040000"/>
<path d="M134.156 77.4241C134.883 77.4241 135.472 76.8346 135.472 76.1075C135.472 75.3804 134.883 74.791 134.156 74.791C133.429 74.791 132.839 75.3804 132.839 76.1075C132.839 76.8346 133.429 77.4241 134.156 77.4241Z" fill="#040000"/>
<path d="M26.9034 81.2566C27.6305 81.2566 28.22 80.6671 28.22 79.9401C28.22 79.213 27.6305 78.6235 26.9034 78.6235C26.1763 78.6235 25.5869 79.213 25.5869 79.9401C25.5869 80.6671 26.1763 81.2566 26.9034 81.2566Z" fill="#040000"/>
<path d="M30.7513 81.2566C31.4784 81.2566 32.0678 80.6671 32.0678 79.9401C32.0678 79.213 31.4784 78.6235 30.7513 78.6235C30.0242 78.6235 29.4348 79.213 29.4348 79.9401C29.4348 80.6671 30.0242 81.2566 30.7513 81.2566Z" fill="#040000"/>
<path d="M38.4478 81.2566C39.1749 81.2566 39.7643 80.6671 39.7643 79.9401C39.7643 79.213 39.1749 78.6235 38.4478 78.6235C37.7207 78.6235 37.1313 79.213 37.1313 79.9401C37.1313 80.6671 37.7207 81.2566 38.4478 81.2566Z" fill="#040000"/>
<path d="M42.2956 81.2566C43.0227 81.2566 43.6122 80.6671 43.6122 79.9401C43.6122 79.213 43.0227 78.6235 42.2956 78.6235C41.5686 78.6235 40.9791 79.213 40.9791 79.9401C40.9791 80.6671 41.5686 81.2566 42.2956 81.2566Z" fill="#040000"/>
<path d="M46.0391 81.2566C46.7662 81.2566 47.3556 80.6671 47.3556 79.9401C47.3556 79.213 46.7662 78.6235 46.0391 78.6235C45.312 78.6235 44.7226 79.213 44.7226 79.9401C44.7226 80.6671 45.312 81.2566 46.0391 81.2566Z" fill="#040000"/>
<path d="M49.8713 81.2566C50.5984 81.2566 51.1879 80.6671 51.1879 79.9401C51.1879 79.213 50.5984 78.6235 49.8713 78.6235C49.1442 78.6235 48.5548 79.213 48.5548 79.9401C48.5548 80.6671 49.1442 81.2566 49.8713 81.2566Z" fill="#040000"/>
<path d="M53.7035 81.2566C54.4306 81.2566 55.02 80.6671 55.02 79.9401C55.02 79.213 54.4306 78.6235 53.7035 78.6235C52.9764 78.6235 52.387 79.213 52.387 79.9401C52.387 80.6671 52.9764 81.2566 53.7035 81.2566Z" fill="#040000"/>
<path d="M57.5356 81.2566C58.2627 81.2566 58.8522 80.6671 58.8522 79.9401C58.8522 79.213 58.2627 78.6235 57.5356 78.6235C56.8085 78.6235 56.2191 79.213 56.2191 79.9401C56.2191 80.6671 56.8085 81.2566 57.5356 81.2566Z" fill="#040000"/>
<path d="M65.1991 81.2566C65.9262 81.2566 66.5156 80.6671 66.5156 79.9401C66.5156 79.213 65.9262 78.6235 65.1991 78.6235C64.472 78.6235 63.8826 79.213 63.8826 79.9401C63.8826 80.6671 64.472 81.2566 65.1991 81.2566Z" fill="#040000"/>
<path d="M80.5269 81.2566C81.254 81.2566 81.8434 80.6671 81.8434 79.9401C81.8434 79.213 81.254 78.6235 80.5269 78.6235C79.7998 78.6235 79.2104 79.213 79.2104 79.9401C79.2104 80.6671 79.7998 81.2566 80.5269 81.2566Z" fill="#040000"/>
<path d="M92.0235 81.2566C92.7506 81.2566 93.34 80.6671 93.34 79.9401C93.34 79.213 92.7506 78.6235 92.0235 78.6235C91.2964 78.6235 90.707 79.213 90.707 79.9401C90.707 80.6671 91.2964 81.2566 92.0235 81.2566Z" fill="#040000"/>
<path d="M95.8548 81.2566C96.5819 81.2566 97.1713 80.6671 97.1713 79.9401C97.1713 79.213 96.5819 78.6235 95.8548 78.6235C95.1277 78.6235 94.5383 79.213 94.5383 79.9401C94.5383 80.6671 95.1277 81.2566 95.8548 81.2566Z" fill="#040000"/>
<path d="M107.351 81.2566C108.078 81.2566 108.668 80.6671 108.668 79.9401C108.668 79.213 108.078 78.6235 107.351 78.6235C106.624 78.6235 106.035 79.213 106.035 79.9401C106.035 80.6671 106.624 81.2566 107.351 81.2566Z" fill="#040000"/>
<path d="M118.763 81.2566C119.491 81.2566 120.08 80.6671 120.08 79.9401C120.08 79.213 119.491 78.6235 118.763 78.6235C118.036 78.6235 117.447 79.213 117.447 79.9401C117.447 80.6671 118.036 81.2566 118.763 81.2566Z" fill="#040000"/>
<path d="M130.308 81.2566C131.035 81.2566 131.624 80.6671 131.624 79.9401C131.624 79.213 131.035 78.6235 130.308 78.6235C129.581 78.6235 128.991 79.213 128.991 79.9401C128.991 80.6671 129.581 81.2566 130.308 81.2566Z" fill="#040000"/>
<path d="M134.156 81.2566C134.883 81.2566 135.472 80.6671 135.472 79.9401C135.472 79.213 134.883 78.6235 134.156 78.6235C133.429 78.6235 132.839 79.213 132.839 79.9401C132.839 80.6671 133.429 81.2566 134.156 81.2566Z" fill="#040000"/>
<path d="M26.9034 85.0886C27.6305 85.0886 28.22 84.4992 28.22 83.7721C28.22 83.045 27.6305 82.4556 26.9034 82.4556C26.1763 82.4556 25.5869 83.045 25.5869 83.7721C25.5869 84.4992 26.1763 85.0886 26.9034 85.0886Z" fill="#040000"/>
<path d="M34.5991 85.0886C35.3262 85.0886 35.9156 84.4992 35.9156 83.7721C35.9156 83.045 35.3262 82.4556 34.5991 82.4556C33.872 82.4556 33.2826 83.045 33.2826 83.7721C33.2826 84.4992 33.872 85.0886 34.5991 85.0886Z" fill="#040000"/>
<path d="M38.4478 85.0886C39.1749 85.0886 39.7643 84.4992 39.7643 83.7721C39.7643 83.045 39.1749 82.4556 38.4478 82.4556C37.7207 82.4556 37.1313 83.045 37.1313 83.7721C37.1313 84.4992 37.7207 85.0886 38.4478 85.0886Z" fill="#040000"/>
<path d="M42.2956 85.0876C43.0227 85.0876 43.6122 84.4982 43.6122 83.7711C43.6122 83.044 43.0227 82.4546 42.2956 82.4546C41.5686 82.4546 40.9791 83.044 40.9791 83.7711C40.9791 84.4982 41.5686 85.0876 42.2956 85.0876Z" fill="#040000"/>
<path d="M46.0391 85.0886C46.7662 85.0886 47.3556 84.4992 47.3556 83.7721C47.3556 83.045 46.7662 82.4556 46.0391 82.4556C45.312 82.4556 44.7226 83.045 44.7226 83.7721C44.7226 84.4992 45.312 85.0886 46.0391 85.0886Z" fill="#040000"/>
<path d="M53.7035 85.0886C54.4306 85.0886 55.02 84.4992 55.02 83.7721C55.02 83.045 54.4306 82.4556 53.7035 82.4556C52.9764 82.4556 52.387 83.045 52.387 83.7721C52.387 84.4992 52.9764 85.0886 53.7035 85.0886Z" fill="#040000"/>
<path d="M57.5356 85.0886C58.2627 85.0886 58.8522 84.4992 58.8522 83.7721C58.8522 83.045 58.2627 82.4556 57.5356 82.4556C56.8085 82.4556 56.2191 83.045 56.2191 83.7721C56.2191 84.4992 56.8085 85.0886 57.5356 85.0886Z" fill="#040000"/>
<path d="M65.1991 85.0886C65.9262 85.0886 66.5156 84.4992 66.5156 83.7721C66.5156 83.045 65.9262 82.4556 65.1991 82.4556C64.472 82.4556 63.8826 83.045 63.8826 83.7721C63.8826 84.4992 64.472 85.0886 65.1991 85.0886Z" fill="#040000"/>
<path d="M69.0313 85.0876C69.7584 85.0876 70.3478 84.4982 70.3478 83.7711C70.3478 83.044 69.7584 82.4546 69.0313 82.4546C68.3042 82.4546 67.7148 83.044 67.7148 83.7711C67.7148 84.4982 68.3042 85.0876 69.0313 85.0876Z" fill="#040000"/>
<path d="M76.6948 85.0886C77.4219 85.0886 78.0113 84.4992 78.0113 83.7721C78.0113 83.045 77.4219 82.4556 76.6948 82.4556C75.9677 82.4556 75.3782 83.045 75.3782 83.7721C75.3782 84.4992 75.9677 85.0886 76.6948 85.0886Z" fill="#040000"/>
<path d="M80.5269 85.0886C81.254 85.0886 81.8434 84.4992 81.8434 83.7721C81.8434 83.045 81.254 82.4556 80.5269 82.4556C79.7998 82.4556 79.2104 83.045 79.2104 83.7721C79.2104 84.4992 79.7998 85.0886 80.5269 85.0886Z" fill="#040000"/>
<path d="M84.3591 85.0886C85.0862 85.0886 85.6756 84.4992 85.6756 83.7721C85.6756 83.045 85.0862 82.4556 84.3591 82.4556C83.632 82.4556 83.0425 83.045 83.0425 83.7721C83.0425 84.4992 83.632 85.0886 84.3591 85.0886Z" fill="#040000"/>
<path d="M88.1913 85.0876C88.9184 85.0876 89.5078 84.4982 89.5078 83.7711C89.5078 83.044 88.9184 82.4546 88.1913 82.4546C87.4642 82.4546 86.8748 83.044 86.8748 83.7711C86.8748 84.4982 87.4642 85.0876 88.1913 85.0876Z" fill="#040000"/>
<path d="M92.0235 85.0886C92.7506 85.0886 93.34 84.4992 93.34 83.7721C93.34 83.045 92.7506 82.4556 92.0235 82.4556C91.2964 82.4556 90.707 83.045 90.707 83.7721C90.707 84.4992 91.2964 85.0886 92.0235 85.0886Z" fill="#040000"/>
<path d="M95.8548 85.0886C96.5819 85.0886 97.1713 84.4992 97.1713 83.7721C97.1713 83.045 96.5819 82.4556 95.8548 82.4556C95.1277 82.4556 94.5383 83.045 94.5383 83.7721C94.5383 84.4992 95.1277 85.0886 95.8548 85.0886Z" fill="#040000"/>
<path d="M103.519 85.0886C104.246 85.0886 104.836 84.4992 104.836 83.7721C104.836 83.045 104.246 82.4556 103.519 82.4556C102.792 82.4556 102.203 83.045 102.203 83.7721C102.203 84.4992 102.792 85.0886 103.519 85.0886Z" fill="#040000"/>
<path d="M107.351 85.0886C108.078 85.0886 108.668 84.4992 108.668 83.7721C108.668 83.045 108.078 82.4556 107.351 82.4556C106.624 82.4556 106.035 83.045 106.035 83.7721C106.035 84.4992 106.624 85.0886 107.351 85.0886Z" fill="#040000"/>
<path d="M111.183 85.0876C111.91 85.0876 112.499 84.4982 112.499 83.7711C112.499 83.044 111.91 82.4546 111.183 82.4546C110.456 82.4546 109.866 83.044 109.866 83.7711C109.866 84.4982 110.456 85.0876 111.183 85.0876Z" fill="#040000"/>
<path d="M115.015 85.0886C115.742 85.0886 116.331 84.4992 116.331 83.7721C116.331 83.045 115.742 82.4556 115.015 82.4556C114.288 82.4556 113.698 83.045 113.698 83.7721C113.698 84.4992 114.288 85.0886 115.015 85.0886Z" fill="#040000"/>
<path d="M118.763 85.0886C119.491 85.0886 120.08 84.4992 120.08 83.7721C120.08 83.045 119.491 82.4556 118.763 82.4556C118.036 82.4556 117.447 83.045 117.447 83.7721C117.447 84.4992 118.036 85.0886 118.763 85.0886Z" fill="#040000"/>
<path d="M122.611 85.0886C123.338 85.0886 123.928 84.4992 123.928 83.7721C123.928 83.045 123.338 82.4556 122.611 82.4556C121.884 82.4556 121.295 83.045 121.295 83.7721C121.295 84.4992 121.884 85.0886 122.611 85.0886Z" fill="#040000"/>
<path d="M130.308 85.0876C131.035 85.0876 131.624 84.4982 131.624 83.7711C131.624 83.044 131.035 82.4546 130.308 82.4546C129.581 82.4546 128.991 83.044 128.991 83.7711C128.991 84.4982 129.581 85.0876 130.308 85.0876Z" fill="#040000"/>
<path d="M30.7513 88.9202C31.4784 88.9202 32.0678 88.3307 32.0678 87.6036C32.0678 86.8765 31.4784 86.2871 30.7513 86.2871C30.0242 86.2871 29.4348 86.8765 29.4348 87.6036C29.4348 88.3307 30.0242 88.9202 30.7513 88.9202Z" fill="#040000"/>
<path d="M38.4478 88.9206C39.1749 88.9206 39.7643 88.3312 39.7643 87.6041C39.7643 86.877 39.1749 86.2876 38.4478 86.2876C37.7207 86.2876 37.1313 86.877 37.1313 87.6041C37.1313 88.3312 37.7207 88.9206 38.4478 88.9206Z" fill="#040000"/>
<path d="M49.8713 88.9202C50.5984 88.9202 51.1879 88.3307 51.1879 87.6036C51.1879 86.8765 50.5984 86.2871 49.8713 86.2871C49.1442 86.2871 48.5548 86.8765 48.5548 87.6036C48.5548 88.3307 49.1442 88.9202 49.8713 88.9202Z" fill="#040000"/>
<path d="M57.5356 88.9206C58.2627 88.9206 58.8522 88.3312 58.8522 87.6041C58.8522 86.877 58.2627 86.2876 57.5356 86.2876C56.8085 86.2876 56.2191 86.877 56.2191 87.6041C56.2191 88.3312 56.8085 88.9206 57.5356 88.9206Z" fill="#040000"/>
<path d="M72.8635 88.9202C73.5906 88.9202 74.18 88.3307 74.18 87.6036C74.18 86.8765 73.5906 86.2871 72.8635 86.2871C72.1364 86.2871 71.5469 86.8765 71.5469 87.6036C71.5469 88.3307 72.1364 88.9202 72.8635 88.9202Z" fill="#040000"/>
<path d="M76.6948 88.9202C77.4219 88.9202 78.0113 88.3307 78.0113 87.6036C78.0113 86.8765 77.4219 86.2871 76.6948 86.2871C75.9677 86.2871 75.3782 86.8765 75.3782 87.6036C75.3782 88.3307 75.9677 88.9202 76.6948 88.9202Z" fill="#040000"/>
<path d="M80.5269 88.9206C81.254 88.9206 81.8434 88.3312 81.8434 87.6041C81.8434 86.877 81.254 86.2876 80.5269 86.2876C79.7998 86.2876 79.2104 86.877 79.2104 87.6041C79.2104 88.3312 79.7998 88.9206 80.5269 88.9206Z" fill="#040000"/>
<path d="M88.1913 88.9206C88.9184 88.9206 89.5078 88.3312 89.5078 87.6041C89.5078 86.877 88.9184 86.2876 88.1913 86.2876C87.4642 86.2876 86.8748 86.877 86.8748 87.6041C86.8748 88.3312 87.4642 88.9206 88.1913 88.9206Z" fill="#040000"/>
<path d="M92.0235 88.9202C92.7506 88.9202 93.34 88.3307 93.34 87.6036C93.34 86.8765 92.7506 86.2871 92.0235 86.2871C91.2964 86.2871 90.707 86.8765 90.707 87.6036C90.707 88.3307 91.2964 88.9202 92.0235 88.9202Z" fill="#040000"/>
<path d="M99.6869 88.9202C100.414 88.9202 101.003 88.3307 101.003 87.6036C101.003 86.8765 100.414 86.2871 99.6869 86.2871C98.9598 86.2871 98.3704 86.8765 98.3704 87.6036C98.3704 88.3307 98.9598 88.9202 99.6869 88.9202Z" fill="#040000"/>
<path d="M103.519 88.9206C104.246 88.9206 104.836 88.3312 104.836 87.6041C104.836 86.877 104.246 86.2876 103.519 86.2876C102.792 86.2876 102.203 86.877 102.203 87.6041C102.203 88.3312 102.792 88.9206 103.519 88.9206Z" fill="#040000"/>
<path d="M107.351 88.9202C108.078 88.9202 108.668 88.3307 108.668 87.6036C108.668 86.8765 108.078 86.2871 107.351 86.2871C106.624 86.2871 106.035 86.8765 106.035 87.6036C106.035 88.3307 106.624 88.9202 107.351 88.9202Z" fill="#040000"/>
<path d="M111.183 88.9206C111.91 88.9206 112.499 88.3312 112.499 87.6041C112.499 86.877 111.91 86.2876 111.183 86.2876C110.456 86.2876 109.866 86.877 109.866 87.6041C109.866 88.3312 110.456 88.9206 111.183 88.9206Z" fill="#040000"/>
<path d="M115.015 88.9202C115.742 88.9202 116.331 88.3307 116.331 87.6036C116.331 86.8765 115.742 86.2871 115.015 86.2871C114.288 86.2871 113.698 86.8765 113.698 87.6036C113.698 88.3307 114.288 88.9202 115.015 88.9202Z" fill="#040000"/>
<path d="M130.308 88.9202C131.035 88.9202 131.624 88.3307 131.624 87.6036C131.624 86.8765 131.035 86.2871 130.308 86.2871C129.581 86.2871 128.991 86.8765 128.991 87.6036C128.991 88.3307 129.581 88.9202 130.308 88.9202Z" fill="#040000"/>
<path d="M134.156 88.9202C134.883 88.9202 135.472 88.3307 135.472 87.6036C135.472 86.8765 134.883 86.2871 134.156 86.2871C133.429 86.2871 132.839 86.8765 132.839 87.6036C132.839 88.3307 133.429 88.9202 134.156 88.9202Z" fill="#040000"/>
<path d="M34.5991 92.7522C35.3262 92.7522 35.9156 92.1628 35.9156 91.4357C35.9156 90.7086 35.3262 90.1191 34.5991 90.1191C33.872 90.1191 33.2826 90.7086 33.2826 91.4357C33.2826 92.1628 33.872 92.7522 34.5991 92.7522Z" fill="#040000"/>
<path d="M38.4478 92.7522C39.1749 92.7522 39.7643 92.1628 39.7643 91.4357C39.7643 90.7086 39.1749 90.1191 38.4478 90.1191C37.7207 90.1191 37.1313 90.7086 37.1313 91.4357C37.1313 92.1628 37.7207 92.7522 38.4478 92.7522Z" fill="#040000"/>
<path d="M46.0391 92.7522C46.7662 92.7522 47.3556 92.1628 47.3556 91.4357C47.3556 90.7086 46.7662 90.1191 46.0391 90.1191C45.312 90.1191 44.7226 90.7086 44.7226 91.4357C44.7226 92.1628 45.312 92.7522 46.0391 92.7522Z" fill="#040000"/>
<path d="M53.7035 92.7532C54.4306 92.7532 55.02 92.1637 55.02 91.4366C55.02 90.7095 54.4306 90.1201 53.7035 90.1201C52.9764 90.1201 52.387 90.7095 52.387 91.4366C52.387 92.1637 52.9764 92.7532 53.7035 92.7532Z" fill="#040000"/>
<path d="M69.0313 92.7522C69.7584 92.7522 70.3478 92.1628 70.3478 91.4357C70.3478 90.7086 69.7584 90.1191 69.0313 90.1191C68.3042 90.1191 67.7148 90.7086 67.7148 91.4357C67.7148 92.1628 68.3042 92.7522 69.0313 92.7522Z" fill="#040000"/>
<path d="M72.8635 92.7522C73.5906 92.7522 74.18 92.1628 74.18 91.4357C74.18 90.7086 73.5906 90.1191 72.8635 90.1191C72.1364 90.1191 71.5469 90.7086 71.5469 91.4357C71.5469 92.1628 72.1364 92.7522 72.8635 92.7522Z" fill="#040000"/>
<path d="M76.6948 92.7522C77.4219 92.7522 78.0113 92.1628 78.0113 91.4357C78.0113 90.7086 77.4219 90.1191 76.6948 90.1191C75.9677 90.1191 75.3782 90.7086 75.3782 91.4357C75.3782 92.1628 75.9677 92.7522 76.6948 92.7522Z" fill="#040000"/>
<path d="M80.5269 92.7522C81.254 92.7522 81.8434 92.1628 81.8434 91.4357C81.8434 90.7086 81.254 90.1191 80.5269 90.1191C79.7998 90.1191 79.2104 90.7086 79.2104 91.4357C79.2104 92.1628 79.7998 92.7522 80.5269 92.7522Z" fill="#040000"/>
<path d="M84.3591 92.7522C85.0862 92.7522 85.6756 92.1628 85.6756 91.4357C85.6756 90.7086 85.0862 90.1191 84.3591 90.1191C83.632 90.1191 83.0425 90.7086 83.0425 91.4357C83.0425 92.1628 83.632 92.7522 84.3591 92.7522Z" fill="#040000"/>
<path d="M88.1913 92.7522C88.9184 92.7522 89.5078 92.1628 89.5078 91.4357C89.5078 90.7086 88.9184 90.1191 88.1913 90.1191C87.4642 90.1191 86.8748 90.7086 86.8748 91.4357C86.8748 92.1628 87.4642 92.7522 88.1913 92.7522Z" fill="#040000"/>
<path d="M92.0235 92.7522C92.7506 92.7522 93.34 92.1628 93.34 91.4357C93.34 90.7086 92.7506 90.1191 92.0235 90.1191C91.2964 90.1191 90.707 90.7086 90.707 91.4357C90.707 92.1628 91.2964 92.7522 92.0235 92.7522Z" fill="#040000"/>
<path d="M95.8548 92.7522C96.5819 92.7522 97.1713 92.1628 97.1713 91.4357C97.1713 90.7086 96.5819 90.1191 95.8548 90.1191C95.1277 90.1191 94.5383 90.7086 94.5383 91.4357C94.5383 92.1628 95.1277 92.7522 95.8548 92.7522Z" fill="#040000"/>
<path d="M103.519 92.7522C104.246 92.7522 104.836 92.1628 104.836 91.4357C104.836 90.7086 104.246 90.1191 103.519 90.1191C102.792 90.1191 102.203 90.7086 102.203 91.4357C102.203 92.1628 102.792 92.7522 103.519 92.7522Z" fill="#040000"/>
<path d="M111.183 92.7522C111.91 92.7522 112.499 92.1628 112.499 91.4357C112.499 90.7086 111.91 90.1191 111.183 90.1191C110.456 90.1191 109.866 90.7086 109.866 91.4357C109.866 92.1628 110.456 92.7522 111.183 92.7522Z" fill="#040000"/>
<path d="M126.459 92.7522C127.186 92.7522 127.776 92.1628 127.776 91.4357C127.776 90.7086 127.186 90.1191 126.459 90.1191C125.732 90.1191 125.143 90.7086 125.143 91.4357C125.143 92.1628 125.732 92.7522 126.459 92.7522Z" fill="#040000"/>
<path d="M134.156 92.7522C134.883 92.7522 135.472 92.1628 135.472 91.4357C135.472 90.7086 134.883 90.1191 134.156 90.1191C133.429 90.1191 132.839 90.7086 132.839 91.4357C132.839 92.1628 133.429 92.7522 134.156 92.7522Z" fill="#040000"/>
<path d="M26.9034 96.5842C27.6305 96.5842 28.22 95.9948 28.22 95.2677C28.22 94.5406 27.6305 93.9512 26.9034 93.9512C26.1763 93.9512 25.5869 94.5406 25.5869 95.2677C25.5869 95.9948 26.1763 96.5842 26.9034 96.5842Z" fill="#040000"/>
<path d="M34.5991 96.5842C35.3262 96.5842 35.9156 95.9948 35.9156 95.2677C35.9156 94.5406 35.3262 93.9512 34.5991 93.9512C33.872 93.9512 33.2826 94.5406 33.2826 95.2677C33.2826 95.9948 33.872 96.5842 34.5991 96.5842Z" fill="#040000"/>
<path d="M42.2956 96.5842C43.0227 96.5842 43.6122 95.9948 43.6122 95.2677C43.6122 94.5406 43.0227 93.9512 42.2956 93.9512C41.5686 93.9512 40.9791 94.5406 40.9791 95.2677C40.9791 95.9948 41.5686 96.5842 42.2956 96.5842Z" fill="#040000"/>
<path d="M46.0391 96.5832C46.7662 96.5832 47.3556 95.9938 47.3556 95.2667C47.3556 94.5396 46.7662 93.9502 46.0391 93.9502C45.312 93.9502 44.7226 94.5396 44.7226 95.2667C44.7226 95.9938 45.312 96.5832 46.0391 96.5832Z" fill="#040000"/>
<path d="M49.8713 96.5842C50.5984 96.5842 51.1879 95.9948 51.1879 95.2677C51.1879 94.5406 50.5984 93.9512 49.8713 93.9512C49.1442 93.9512 48.5548 94.5406 48.5548 95.2677C48.5548 95.9948 49.1442 96.5842 49.8713 96.5842Z" fill="#040000"/>
<path d="M53.7035 96.5842C54.4306 96.5842 55.02 95.9948 55.02 95.2677C55.02 94.5406 54.4306 93.9512 53.7035 93.9512C52.9764 93.9512 52.387 94.5406 52.387 95.2677C52.387 95.9948 52.9764 96.5842 53.7035 96.5842Z" fill="#040000"/>
<path d="M57.5356 96.5842C58.2627 96.5842 58.8522 95.9948 58.8522 95.2677C58.8522 94.5406 58.2627 93.9512 57.5356 93.9512C56.8085 93.9512 56.2191 94.5406 56.2191 95.2677C56.2191 95.9948 56.8085 96.5842 57.5356 96.5842Z" fill="#040000"/>
<path d="M61.3669 96.5842C62.094 96.5842 62.6835 95.9948 62.6835 95.2677C62.6835 94.5406 62.094 93.9512 61.3669 93.9512C60.6398 93.9512 60.0504 94.5406 60.0504 95.2677C60.0504 95.9948 60.6398 96.5842 61.3669 96.5842Z" fill="#040000"/>
<path d="M65.1991 96.5842C65.9262 96.5842 66.5156 95.9948 66.5156 95.2677C66.5156 94.5406 65.9262 93.9512 65.1991 93.9512C64.472 93.9512 63.8826 94.5406 63.8826 95.2677C63.8826 95.9948 64.472 96.5842 65.1991 96.5842Z" fill="#040000"/>
<path d="M69.0313 96.5842C69.7584 96.5842 70.3478 95.9948 70.3478 95.2677C70.3478 94.5406 69.7584 93.9512 69.0313 93.9512C68.3042 93.9512 67.7148 94.5406 67.7148 95.2677C67.7148 95.9948 68.3042 96.5842 69.0313 96.5842Z" fill="#040000"/>
<path d="M72.8635 96.5842C73.5906 96.5842 74.18 95.9948 74.18 95.2677C74.18 94.5406 73.5906 93.9512 72.8635 93.9512C72.1364 93.9512 71.5469 94.5406 71.5469 95.2677C71.5469 95.9948 72.1364 96.5842 72.8635 96.5842Z" fill="#040000"/>
<path d="M80.5269 96.5842C81.254 96.5842 81.8434 95.9948 81.8434 95.2677C81.8434 94.5406 81.254 93.9512 80.5269 93.9512C79.7998 93.9512 79.2104 94.5406 79.2104 95.2677C79.2104 95.9948 79.7998 96.5842 80.5269 96.5842Z" fill="#040000"/>
<path d="M111.183 96.5842C111.91 96.5842 112.499 95.9948 112.499 95.2677C112.499 94.5406 111.91 93.9512 111.183 93.9512C110.456 93.9512 109.866 94.5406 109.866 95.2677C109.866 95.9948 110.456 96.5842 111.183 96.5842Z" fill="#040000"/>
<path d="M115.015 96.5842C115.742 96.5842 116.331 95.9948 116.331 95.2677C116.331 94.5406 115.742 93.9512 115.015 93.9512C114.288 93.9512 113.698 94.5406 113.698 95.2677C113.698 95.9948 114.288 96.5842 115.015 96.5842Z" fill="#040000"/>
<path d="M118.763 96.5842C119.491 96.5842 120.08 95.9948 120.08 95.2677C120.08 94.5406 119.491 93.9512 118.763 93.9512C118.036 93.9512 117.447 94.5406 117.447 95.2677C117.447 95.9948 118.036 96.5842 118.763 96.5842Z" fill="#040000"/>
<path d="M122.611 96.5842C123.338 96.5842 123.928 95.9948 123.928 95.2677C123.928 94.5406 123.338 93.9512 122.611 93.9512C121.884 93.9512 121.295 94.5406 121.295 95.2677C121.295 95.9948 121.884 96.5842 122.611 96.5842Z" fill="#040000"/>
<path d="M130.308 96.5842C131.035 96.5842 131.624 95.9948 131.624 95.2677C131.624 94.5406 131.035 93.9512 130.308 93.9512C129.581 93.9512 128.991 94.5406 128.991 95.2677C128.991 95.9948 129.581 96.5842 130.308 96.5842Z" fill="#040000"/>
<path d="M134.156 96.5842C134.883 96.5842 135.472 95.9948 135.472 95.2677C135.472 94.5406 134.883 93.9512 134.156 93.9512C133.429 93.9512 132.839 94.5406 132.839 95.2677C132.839 95.9948 133.429 96.5842 134.156 96.5842Z" fill="#040000"/>
<path d="M30.7513 100.416C31.4784 100.416 32.0678 99.8263 32.0678 99.0992C32.0678 98.3721 31.4784 97.7827 30.7513 97.7827C30.0242 97.7827 29.4348 98.3721 29.4348 99.0992C29.4348 99.8263 30.0242 100.416 30.7513 100.416Z" fill="#040000"/>
<path d="M34.5991 100.416C35.3262 100.416 35.9156 99.8268 35.9156 99.0997C35.9156 98.3726 35.3262 97.7832 34.5991 97.7832C33.872 97.7832 33.2826 98.3726 33.2826 99.0997C33.2826 99.8268 33.872 100.416 34.5991 100.416Z" fill="#040000"/>
<path d="M38.4478 100.416C39.1749 100.416 39.7643 99.8268 39.7643 99.0997C39.7643 98.3726 39.1749 97.7832 38.4478 97.7832C37.7207 97.7832 37.1313 98.3726 37.1313 99.0997C37.1313 99.8268 37.7207 100.416 38.4478 100.416Z" fill="#040000"/>
<path d="M42.2956 100.416C43.0227 100.416 43.6122 99.8268 43.6122 99.0997C43.6122 98.3726 43.0227 97.7832 42.2956 97.7832C41.5686 97.7832 40.9791 98.3726 40.9791 99.0997C40.9791 99.8268 41.5686 100.416 42.2956 100.416Z" fill="#040000"/>
<path d="M72.8635 100.416C73.5906 100.416 74.18 99.8263 74.18 99.0992C74.18 98.3721 73.5906 97.7827 72.8635 97.7827C72.1364 97.7827 71.5469 98.3721 71.5469 99.0992C71.5469 99.8263 72.1364 100.416 72.8635 100.416Z" fill="#040000"/>
<path d="M76.6948 100.416C77.4219 100.416 78.0113 99.8268 78.0113 99.0997C78.0113 98.3726 77.4219 97.7832 76.6948 97.7832C75.9677 97.7832 75.3782 98.3726 75.3782 99.0997C75.3782 99.8268 75.9677 100.416 76.6948 100.416Z" fill="#040000"/>
<path d="M84.3591 100.416C85.0862 100.416 85.6756 99.8268 85.6756 99.0997C85.6756 98.3726 85.0862 97.7832 84.3591 97.7832C83.632 97.7832 83.0425 98.3726 83.0425 99.0997C83.0425 99.8268 83.632 100.416 84.3591 100.416Z" fill="#040000"/>
<path d="M88.1913 100.416C88.9184 100.416 89.5078 99.8268 89.5078 99.0997C89.5078 98.3726 88.9184 97.7832 88.1913 97.7832C87.4642 97.7832 86.8748 98.3726 86.8748 99.0997C86.8748 99.8268 87.4642 100.416 88.1913 100.416Z" fill="#040000"/>
<path d="M92.0235 100.416C92.7506 100.416 93.34 99.8268 93.34 99.0997C93.34 98.3726 92.7506 97.7832 92.0235 97.7832C91.2964 97.7832 90.707 98.3726 90.707 99.0997C90.707 99.8268 91.2964 100.416 92.0235 100.416Z" fill="#040000"/>
<path d="M115.015 100.416C115.742 100.416 116.331 99.8268 116.331 99.0997C116.331 98.3726 115.742 97.7832 115.015 97.7832C114.288 97.7832 113.698 98.3726 113.698 99.0997C113.698 99.8268 114.288 100.416 115.015 100.416Z" fill="#040000"/>
<path d="M118.763 100.416C119.491 100.416 120.08 99.8268 120.08 99.0997C120.08 98.3726 119.491 97.7832 118.763 97.7832C118.036 97.7832 117.447 98.3726 117.447 99.0997C117.447 99.8268 118.036 100.416 118.763 100.416Z" fill="#040000"/>
<path d="M122.611 100.416C123.338 100.416 123.928 99.8268 123.928 99.0997C123.928 98.3726 123.338 97.7832 122.611 97.7832C121.884 97.7832 121.295 98.3726 121.295 99.0997C121.295 99.8268 121.884 100.416 122.611 100.416Z" fill="#040000"/>
<path d="M130.308 100.416C131.035 100.416 131.624 99.8268 131.624 99.0997C131.624 98.3726 131.035 97.7832 130.308 97.7832C129.581 97.7832 128.991 98.3726 128.991 99.0997C128.991 99.8268 129.581 100.416 130.308 100.416Z" fill="#040000"/>
<path d="M26.9034 104.248C27.6305 104.248 28.22 103.658 28.22 102.931C28.22 102.204 27.6305 101.615 26.9034 101.615C26.1763 101.615 25.5869 102.204 25.5869 102.931C25.5869 103.658 26.1763 104.248 26.9034 104.248Z" fill="#040000"/>
<path d="M46.0391 104.248C46.7662 104.248 47.3556 103.658 47.3556 102.931C47.3556 102.204 46.7662 101.615 46.0391 101.615C45.312 101.615 44.7226 102.204 44.7226 102.931C44.7226 103.658 45.312 104.248 46.0391 104.248Z" fill="#040000"/>
<path d="M49.8713 104.249C50.5984 104.249 51.1879 103.659 51.1879 102.932C51.1879 102.205 50.5984 101.616 49.8713 101.616C49.1442 101.616 48.5548 102.205 48.5548 102.932C48.5548 103.659 49.1442 104.249 49.8713 104.249Z" fill="#040000"/>
<path d="M53.7035 104.248C54.4306 104.248 55.02 103.658 55.02 102.931C55.02 102.204 54.4306 101.615 53.7035 101.615C52.9764 101.615 52.387 102.204 52.387 102.931C52.387 103.658 52.9764 104.248 53.7035 104.248Z" fill="#040000"/>
<path d="M57.5356 104.249C58.2627 104.249 58.8522 103.659 58.8522 102.932C58.8522 102.205 58.2627 101.616 57.5356 101.616C56.8085 101.616 56.2191 102.205 56.2191 102.932C56.2191 103.659 56.8085 104.249 57.5356 104.249Z" fill="#040000"/>
<path d="M61.3669 104.248C62.094 104.248 62.6835 103.658 62.6835 102.931C62.6835 102.204 62.094 101.615 61.3669 101.615C60.6398 101.615 60.0504 102.204 60.0504 102.931C60.0504 103.658 60.6398 104.248 61.3669 104.248Z" fill="#040000"/>
<path d="M65.1991 104.249C65.9262 104.249 66.5156 103.659 66.5156 102.932C66.5156 102.205 65.9262 101.616 65.1991 101.616C64.472 101.616 63.8826 102.205 63.8826 102.932C63.8826 103.659 64.472 104.249 65.1991 104.249Z" fill="#040000"/>
<path d="M69.0313 104.248C69.7584 104.248 70.3478 103.658 70.3478 102.931C70.3478 102.204 69.7584 101.615 69.0313 101.615C68.3042 101.615 67.7148 102.204 67.7148 102.931C67.7148 103.658 68.3042 104.248 69.0313 104.248Z" fill="#040000"/>
<path d="M76.6948 104.249C77.4219 104.249 78.0113 103.659 78.0113 102.932C78.0113 102.205 77.4219 101.616 76.6948 101.616C75.9677 101.616 75.3782 102.205 75.3782 102.932C75.3782 103.659 75.9677 104.249 76.6948 104.249Z" fill="#040000"/>
<path d="M84.3591 104.248C85.0862 104.248 85.6756 103.658 85.6756 102.931C85.6756 102.204 85.0862 101.615 84.3591 101.615C83.632 101.615 83.0425 102.204 83.0425 102.931C83.0425 103.658 83.632 104.248 84.3591 104.248Z" fill="#040000"/>
<path d="M88.1913 104.249C88.9184 104.249 89.5078 103.659 89.5078 102.932C89.5078 102.205 88.9184 101.616 88.1913 101.616C87.4642 101.616 86.8748 102.205 86.8748 102.932C86.8748 103.659 87.4642 104.249 88.1913 104.249Z" fill="#040000"/>
<path d="M92.0235 104.248C92.7506 104.248 93.34 103.658 93.34 102.931C93.34 102.204 92.7506 101.615 92.0235 101.615C91.2964 101.615 90.707 102.204 90.707 102.931C90.707 103.658 91.2964 104.248 92.0235 104.248Z" fill="#040000"/>
<path d="M95.8548 104.248C96.5819 104.248 97.1713 103.658 97.1713 102.931C97.1713 102.204 96.5819 101.615 95.8548 101.615C95.1277 101.615 94.5383 102.204 94.5383 102.931C94.5383 103.658 95.1277 104.248 95.8548 104.248Z" fill="#040000"/>
<path d="M103.519 104.249C104.246 104.249 104.836 103.659 104.836 102.932C104.836 102.205 104.246 101.616 103.519 101.616C102.792 101.616 102.203 102.205 102.203 102.932C102.203 103.659 102.792 104.249 103.519 104.249Z" fill="#040000"/>
<path d="M107.351 104.249C108.078 104.249 108.668 103.659 108.668 102.932C108.668 102.205 108.078 101.616 107.351 101.616C106.624 101.616 106.035 102.205 106.035 102.932C106.035 103.659 106.624 104.249 107.351 104.249Z" fill="#040000"/>
<path d="M111.183 104.248C111.91 104.248 112.499 103.658 112.499 102.931C112.499 102.204 111.91 101.615 111.183 101.615C110.456 101.615 109.866 102.204 109.866 102.931C109.866 103.658 110.456 104.248 111.183 104.248Z" fill="#040000"/>
<path d="M115.015 104.248C115.742 104.248 116.331 103.658 116.331 102.931C116.331 102.204 115.742 101.615 115.015 101.615C114.288 101.615 113.698 102.204 113.698 102.931C113.698 103.658 114.288 104.248 115.015 104.248Z" fill="#040000"/>
<path d="M118.763 104.248C119.491 104.248 120.08 103.658 120.08 102.931C120.08 102.204 119.491 101.615 118.763 101.615C118.036 101.615 117.447 102.204 117.447 102.931C117.447 103.658 118.036 104.248 118.763 104.248Z" fill="#040000"/>
<path d="M57.5356 108.08C58.2627 108.08 58.8522 107.49 58.8522 106.763C58.8522 106.036 58.2627 105.447 57.5356 105.447C56.8085 105.447 56.2191 106.036 56.2191 106.763C56.2191 107.49 56.8085 108.08 57.5356 108.08Z" fill="#040000"/>
<path d="M69.0313 108.08C69.7584 108.08 70.3478 107.49 70.3478 106.763C70.3478 106.036 69.7584 105.447 69.0313 105.447C68.3042 105.447 67.7148 106.036 67.7148 106.763C67.7148 107.49 68.3042 108.08 69.0313 108.08Z" fill="#040000"/>
<path d="M76.6948 108.08C77.4219 108.08 78.0113 107.49 78.0113 106.763C78.0113 106.036 77.4219 105.447 76.6948 105.447C75.9677 105.447 75.3782 106.036 75.3782 106.763C75.3782 107.49 75.9677 108.08 76.6948 108.08Z" fill="#040000"/>
<path d="M88.1913 108.08C88.9184 108.08 89.5078 107.49 89.5078 106.763C89.5078 106.036 88.9184 105.447 88.1913 105.447C87.4642 105.447 86.8748 106.036 86.8748 106.763C86.8748 107.49 87.4642 108.08 88.1913 108.08Z" fill="#040000"/>
<path d="M95.8548 108.08C96.5819 108.08 97.1713 107.49 97.1713 106.763C97.1713 106.036 96.5819 105.447 95.8548 105.447C95.1277 105.447 94.5383 106.036 94.5383 106.763C94.5383 107.49 95.1277 108.08 95.8548 108.08Z" fill="#040000"/>
<path d="M99.6869 108.08C100.414 108.08 101.003 107.49 101.003 106.763C101.003 106.036 100.414 105.447 99.6869 105.447C98.9598 105.447 98.3704 106.036 98.3704 106.763C98.3704 107.49 98.9598 108.08 99.6869 108.08Z" fill="#040000"/>
<path d="M103.519 108.08C104.246 108.08 104.836 107.49 104.836 106.763C104.836 106.036 104.246 105.447 103.519 105.447C102.792 105.447 102.203 106.036 102.203 106.763C102.203 107.49 102.792 108.08 103.519 108.08Z" fill="#040000"/>
<path d="M118.763 108.08C119.491 108.08 120.08 107.49 120.08 106.763C120.08 106.036 119.491 105.447 118.763 105.447C118.036 105.447 117.447 106.036 117.447 106.763C117.447 107.49 118.036 108.08 118.763 108.08Z" fill="#040000"/>
<path d="M126.459 108.08C127.186 108.08 127.776 107.49 127.776 106.763C127.776 106.036 127.186 105.447 126.459 105.447C125.732 105.447 125.143 106.036 125.143 106.763C125.143 107.49 125.732 108.08 126.459 108.08Z" fill="#040000"/>
<path d="M130.308 108.08C131.035 108.08 131.624 107.49 131.624 106.763C131.624 106.036 131.035 105.447 130.308 105.447C129.581 105.447 128.991 106.036 128.991 106.763C128.991 107.49 129.581 108.08 130.308 108.08Z" fill="#040000"/>
<path d="M134.156 108.08C134.883 108.08 135.472 107.49 135.472 106.763C135.472 106.036 134.883 105.447 134.156 105.447C133.429 105.447 132.839 106.036 132.839 106.763C132.839 107.49 133.429 108.08 134.156 108.08Z" fill="#040000"/>
<path d="M95.8548 27.6296C96.5819 27.6296 97.1713 27.0402 97.1713 26.3131C97.1713 25.586 96.5819 24.9966 95.8548 24.9966C95.1277 24.9966 94.5383 25.586 94.5383 26.3131C94.5383 27.0402 95.1277 27.6296 95.8548 27.6296Z" fill="#040000"/>
<path d="M57.5356 111.912C58.2627 111.912 58.8522 111.322 58.8522 110.595C58.8522 109.868 58.2627 109.279 57.5356 109.279C56.8085 109.279 56.2191 109.868 56.2191 110.595C56.2191 111.322 56.8085 111.912 57.5356 111.912Z" fill="#040000"/>
<path d="M61.3669 111.912C62.094 111.912 62.6835 111.322 62.6835 110.595C62.6835 109.868 62.094 109.279 61.3669 109.279C60.6398 109.279 60.0504 109.868 60.0504 110.595C60.0504 111.322 60.6398 111.912 61.3669 111.912Z" fill="#040000"/>
<path d="M76.6948 111.912C77.4219 111.912 78.0113 111.322 78.0113 110.595C78.0113 109.868 77.4219 109.279 76.6948 109.279C75.9677 109.279 75.3782 109.868 75.3782 110.595C75.3782 111.322 75.9677 111.912 76.6948 111.912Z" fill="#040000"/>
<path d="M95.8548 111.912C96.5819 111.912 97.1713 111.322 97.1713 110.595C97.1713 109.868 96.5819 109.279 95.8548 109.279C95.1277 109.279 94.5383 109.868 94.5383 110.595C94.5383 111.322 95.1277 111.912 95.8548 111.912Z" fill="#040000"/>
<path d="M99.6869 111.912C100.414 111.912 101.003 111.322 101.003 110.595C101.003 109.868 100.414 109.279 99.6869 109.279C98.9598 109.279 98.3704 109.868 98.3704 110.595C98.3704 111.322 98.9598 111.912 99.6869 111.912Z" fill="#040000"/>
<path d="M103.519 111.912C104.246 111.912 104.836 111.322 104.836 110.595C104.836 109.868 104.246 109.279 103.519 109.279C102.792 109.279 102.203 109.868 102.203 110.595C102.203 111.322 102.792 111.912 103.519 111.912Z" fill="#040000"/>
<path d="M111.183 111.912C111.91 111.912 112.499 111.322 112.499 110.595C112.499 109.868 111.91 109.279 111.183 109.279C110.456 109.279 109.866 109.868 109.866 110.595C109.866 111.322 110.456 111.912 111.183 111.912Z" fill="#040000"/>
<path d="M118.763 111.912C119.491 111.912 120.08 111.322 120.08 110.595C120.08 109.868 119.491 109.279 118.763 109.279C118.036 109.279 117.447 109.868 117.447 110.595C117.447 111.322 118.036 111.912 118.763 111.912Z" fill="#040000"/>
<path d="M122.611 111.912C123.338 111.912 123.928 111.322 123.928 110.595C123.928 109.868 123.338 109.279 122.611 109.279C121.884 109.279 121.295 109.868 121.295 110.595C121.295 111.322 121.884 111.912 122.611 111.912Z" fill="#040000"/>
<path d="M130.308 111.912C131.035 111.912 131.624 111.322 131.624 110.595C131.624 109.868 131.035 109.279 130.308 109.279C129.581 109.279 128.991 109.868 128.991 110.595C128.991 111.322 129.581 111.912 130.308 111.912Z" fill="#040000"/>
<path d="M134.156 111.912C134.883 111.912 135.472 111.322 135.472 110.595C135.472 109.868 134.883 109.279 134.156 109.279C133.429 109.279 132.839 109.868 132.839 110.595C132.839 111.322 133.429 111.912 134.156 111.912Z" fill="#040000"/>
<path d="M92.0235 27.6306C92.7506 27.6306 93.34 27.0412 93.34 26.3141C93.34 25.587 92.7506 24.9976 92.0235 24.9976C91.2964 24.9976 90.707 25.587 90.707 26.3141C90.707 27.0412 91.2964 27.6306 92.0235 27.6306Z" fill="#040000"/>
<path d="M57.5356 115.744C58.2627 115.744 58.8522 115.155 58.8522 114.428C58.8522 113.701 58.2627 113.111 57.5356 113.111C56.8085 113.111 56.2191 113.701 56.2191 114.428C56.2191 115.155 56.8085 115.744 57.5356 115.744Z" fill="#040000"/>
<path d="M65.1991 115.744C65.9262 115.744 66.5156 115.155 66.5156 114.428C66.5156 113.701 65.9262 113.111 65.1991 113.111C64.472 113.111 63.8826 113.701 63.8826 114.428C63.8826 115.155 64.472 115.744 65.1991 115.744Z" fill="#040000"/>
<path d="M69.0313 115.745C69.7584 115.745 70.3478 115.156 70.3478 114.429C70.3478 113.702 69.7584 113.112 69.0313 113.112C68.3042 113.112 67.7148 113.702 67.7148 114.429C67.7148 115.156 68.3042 115.745 69.0313 115.745Z" fill="#040000"/>
<path d="M76.6948 115.743C77.4219 115.743 78.0113 115.154 78.0113 114.427C78.0113 113.7 77.4219 113.11 76.6948 113.11C75.9677 113.11 75.3782 113.7 75.3782 114.427C75.3782 115.154 75.9677 115.743 76.6948 115.743Z" fill="#040000"/>
<path d="M80.5269 115.744C81.254 115.744 81.8434 115.155 81.8434 114.428C81.8434 113.701 81.254 113.111 80.5269 113.111C79.7998 113.111 79.2104 113.701 79.2104 114.428C79.2104 115.155 79.7998 115.744 80.5269 115.744Z" fill="#040000"/>
<path d="M84.3591 115.744C85.0862 115.744 85.6756 115.155 85.6756 114.428C85.6756 113.701 85.0862 113.111 84.3591 113.111C83.632 113.111 83.0425 113.701 83.0425 114.428C83.0425 115.155 83.632 115.744 84.3591 115.744Z" fill="#040000"/>
<path d="M88.1913 115.744C88.9184 115.744 89.5078 115.155 89.5078 114.428C89.5078 113.701 88.9184 113.111 88.1913 113.111C87.4642 113.111 86.8748 113.701 86.8748 114.428C86.8748 115.155 87.4642 115.744 88.1913 115.744Z" fill="#040000"/>
<path d="M92.0235 115.744C92.7506 115.744 93.34 115.155 93.34 114.428C93.34 113.701 92.7506 113.111 92.0235 113.111C91.2964 113.111 90.707 113.701 90.707 114.428C90.707 115.155 91.2964 115.744 92.0235 115.744Z" fill="#040000"/>
<path d="M95.8548 115.744C96.5819 115.744 97.1713 115.155 97.1713 114.428C97.1713 113.701 96.5819 113.111 95.8548 113.111C95.1277 113.111 94.5383 113.701 94.5383 114.428C94.5383 115.155 95.1277 115.744 95.8548 115.744Z" fill="#040000"/>
<path d="M103.519 115.744C104.246 115.744 104.836 115.155 104.836 114.428C104.836 113.701 104.246 113.111 103.519 113.111C102.792 113.111 102.203 113.701 102.203 114.428C102.203 115.155 102.792 115.744 103.519 115.744Z" fill="#040000"/>
<path d="M118.763 115.743C119.491 115.743 120.08 115.154 120.08 114.427C120.08 113.7 119.491 113.11 118.763 113.11C118.036 113.11 117.447 113.7 117.447 114.427C117.447 115.154 118.036 115.743 118.763 115.743Z" fill="#040000"/>
<path d="M134.156 115.744C134.883 115.744 135.472 115.155 135.472 114.428C135.472 113.701 134.883 113.111 134.156 113.111C133.429 113.111 132.839 113.701 132.839 114.428C132.839 115.155 133.429 115.744 134.156 115.744Z" fill="#040000"/>
<path d="M65.1991 27.6296C65.9262 27.6296 66.5156 27.0402 66.5156 26.3131C66.5156 25.586 65.9262 24.9966 65.1991 24.9966C64.472 24.9966 63.8826 25.586 63.8826 26.3131C63.8826 27.0402 64.472 27.6296 65.1991 27.6296Z" fill="#040000"/>
<path d="M57.5356 119.49C58.2627 119.49 58.8522 118.901 58.8522 118.174C58.8522 117.447 58.2627 116.857 57.5356 116.857C56.8085 116.857 56.2191 117.447 56.2191 118.174C56.2191 118.901 56.8085 119.49 57.5356 119.49Z" fill="#040000"/>
<path d="M61.3669 119.49C62.094 119.49 62.6835 118.901 62.6835 118.174C62.6835 117.447 62.094 116.857 61.3669 116.857C60.6398 116.857 60.0504 117.447 60.0504 118.174C60.0504 118.901 60.6398 119.49 61.3669 119.49Z" fill="#040000"/>
<path d="M72.8635 119.49C73.5906 119.49 74.18 118.901 74.18 118.174C74.18 117.447 73.5906 116.857 72.8635 116.857C72.1364 116.857 71.5469 117.447 71.5469 118.174C71.5469 118.901 72.1364 119.49 72.8635 119.49Z" fill="#040000"/>
<path d="M76.6948 119.49C77.4219 119.49 78.0113 118.901 78.0113 118.174C78.0113 117.447 77.4219 116.857 76.6948 116.857C75.9677 116.857 75.3782 117.447 75.3782 118.174C75.3782 118.901 75.9677 119.49 76.6948 119.49Z" fill="#040000"/>
<path d="M88.1913 119.49C88.9184 119.49 89.5078 118.901 89.5078 118.174C89.5078 117.447 88.9184 116.857 88.1913 116.857C87.4642 116.857 86.8748 117.447 86.8748 118.174C86.8748 118.901 87.4642 119.49 88.1913 119.49Z" fill="#040000"/>
<path d="M103.519 119.49C104.246 119.49 104.836 118.901 104.836 118.174C104.836 117.447 104.246 116.857 103.519 116.857C102.792 116.857 102.203 117.447 102.203 118.174C102.203 118.901 102.792 119.49 103.519 119.49Z" fill="#040000"/>
<path d="M107.351 119.49C108.078 119.49 108.668 118.901 108.668 118.174C108.668 117.447 108.078 116.857 107.351 116.857C106.624 116.857 106.035 117.447 106.035 118.174C106.035 118.901 106.624 119.49 107.351 119.49Z" fill="#040000"/>
<path d="M111.183 119.49C111.91 119.49 112.499 118.901 112.499 118.174C112.499 117.447 111.91 116.857 111.183 116.857C110.456 116.857 109.866 117.447 109.866 118.174C109.866 118.901 110.456 119.49 111.183 119.49Z" fill="#040000"/>
<path d="M115.015 119.49C115.742 119.49 116.331 118.901 116.331 118.174C116.331 117.447 115.742 116.857 115.015 116.857C114.288 116.857 113.698 117.447 113.698 118.174C113.698 118.901 114.288 119.49 115.015 119.49Z" fill="#040000"/>
<path d="M118.763 119.49C119.491 119.49 120.08 118.901 120.08 118.174C120.08 117.447 119.491 116.857 118.763 116.857C118.036 116.857 117.447 117.447 117.447 118.174C117.447 118.901 118.036 119.49 118.763 119.49Z" fill="#040000"/>
<path d="M122.611 119.489C123.338 119.489 123.928 118.9 123.928 118.173C123.928 117.446 123.338 116.856 122.611 116.856C121.884 116.856 121.295 117.446 121.295 118.173C121.295 118.9 121.884 119.489 122.611 119.489Z" fill="#040000"/>
<path d="M61.3669 123.339C62.094 123.339 62.6835 122.75 62.6835 122.023C62.6835 121.295 62.094 120.706 61.3669 120.706C60.6398 120.706 60.0504 121.295 60.0504 122.023C60.0504 122.75 60.6398 123.339 61.3669 123.339Z" fill="#040000"/>
<path d="M69.0313 123.338C69.7584 123.338 70.3478 122.749 70.3478 122.022C70.3478 121.295 69.7584 120.705 69.0313 120.705C68.3042 120.705 67.7148 121.295 67.7148 122.022C67.7148 122.749 68.3042 123.338 69.0313 123.338Z" fill="#040000"/>
<path d="M72.8635 123.338C73.5906 123.338 74.18 122.749 74.18 122.022C74.18 121.295 73.5906 120.705 72.8635 120.705C72.1364 120.705 71.5469 121.295 71.5469 122.022C71.5469 122.749 72.1364 123.338 72.8635 123.338Z" fill="#040000"/>
<path d="M76.6948 123.338C77.4219 123.338 78.0113 122.749 78.0113 122.022C78.0113 121.295 77.4219 120.705 76.6948 120.705C75.9677 120.705 75.3782 121.295 75.3782 122.022C75.3782 122.749 75.9677 123.338 76.6948 123.338Z" fill="#040000"/>
<path d="M80.5269 123.338C81.254 123.338 81.8434 122.749 81.8434 122.022C81.8434 121.295 81.254 120.705 80.5269 120.705C79.7998 120.705 79.2104 121.295 79.2104 122.022C79.2104 122.749 79.7998 123.338 80.5269 123.338Z" fill="#040000"/>
<path d="M84.3591 123.338C85.0862 123.338 85.6756 122.749 85.6756 122.022C85.6756 121.295 85.0862 120.705 84.3591 120.705C83.632 120.705 83.0425 121.295 83.0425 122.022C83.0425 122.749 83.632 123.338 84.3591 123.338Z" fill="#040000"/>
<path d="M88.1913 123.338C88.9184 123.338 89.5078 122.749 89.5078 122.022C89.5078 121.295 88.9184 120.705 88.1913 120.705C87.4642 120.705 86.8748 121.295 86.8748 122.022C86.8748 122.749 87.4642 123.338 88.1913 123.338Z" fill="#040000"/>
<path d="M92.0235 123.338C92.7506 123.338 93.34 122.749 93.34 122.022C93.34 121.295 92.7506 120.705 92.0235 120.705C91.2964 120.705 90.707 121.295 90.707 122.022C90.707 122.749 91.2964 123.338 92.0235 123.338Z" fill="#040000"/>
<path d="M95.8548 123.338C96.5819 123.338 97.1713 122.749 97.1713 122.022C97.1713 121.295 96.5819 120.705 95.8548 120.705C95.1277 120.705 94.5383 121.295 94.5383 122.022C94.5383 122.749 95.1277 123.338 95.8548 123.338Z" fill="#040000"/>
<path d="M99.6869 123.338C100.414 123.338 101.003 122.749 101.003 122.022C101.003 121.295 100.414 120.705 99.6869 120.705C98.9598 120.705 98.3704 121.295 98.3704 122.022C98.3704 122.749 98.9598 123.338 99.6869 123.338Z" fill="#040000"/>
<path d="M103.519 123.337C104.246 123.337 104.836 122.748 104.836 122.021C104.836 121.294 104.246 120.704 103.519 120.704C102.792 120.704 102.203 121.294 102.203 122.021C102.203 122.748 102.792 123.337 103.519 123.337Z" fill="#040000"/>
<path d="M115.015 123.338C115.742 123.338 116.331 122.749 116.331 122.022C116.331 121.295 115.742 120.705 115.015 120.705C114.288 120.705 113.698 121.295 113.698 122.022C113.698 122.749 114.288 123.338 115.015 123.338Z" fill="#040000"/>
<path d="M118.763 123.338C119.491 123.338 120.08 122.749 120.08 122.022C120.08 121.295 119.491 120.705 118.763 120.705C118.036 120.705 117.447 121.295 117.447 122.022C117.447 122.749 118.036 123.338 118.763 123.338Z" fill="#040000"/>
<path d="M130.308 123.338C131.035 123.338 131.624 122.749 131.624 122.022C131.624 121.295 131.035 120.705 130.308 120.705C129.581 120.705 128.991 121.295 128.991 122.022C128.991 122.749 129.581 123.338 130.308 123.338Z" fill="#040000"/>
<path d="M134.156 123.338C134.883 123.338 135.472 122.749 135.472 122.022C135.472 121.295 134.883 120.705 134.156 120.705C133.429 120.705 132.839 121.295 132.839 122.022C132.839 122.749 133.429 123.338 134.156 123.338Z" fill="#040000"/>
<path d="M57.5356 127.186C58.2627 127.186 58.8522 126.597 58.8522 125.87C58.8522 125.143 58.2627 124.553 57.5356 124.553C56.8085 124.553 56.2191 125.143 56.2191 125.87C56.2191 126.597 56.8085 127.186 57.5356 127.186Z" fill="#040000"/>
<path d="M69.0313 127.186C69.7584 127.186 70.3478 126.597 70.3478 125.87C70.3478 125.143 69.7584 124.553 69.0313 124.553C68.3042 124.553 67.7148 125.143 67.7148 125.87C67.7148 126.597 68.3042 127.186 69.0313 127.186Z" fill="#040000"/>
<path d="M72.8635 127.186C73.5906 127.186 74.18 126.597 74.18 125.87C74.18 125.143 73.5906 124.553 72.8635 124.553C72.1364 124.553 71.5469 125.143 71.5469 125.87C71.5469 126.597 72.1364 127.186 72.8635 127.186Z" fill="#040000"/>
<path d="M88.1913 127.186C88.9184 127.186 89.5078 126.597 89.5078 125.87C89.5078 125.143 88.9184 124.553 88.1913 124.553C87.4642 124.553 86.8748 125.143 86.8748 125.87C86.8748 126.597 87.4642 127.186 88.1913 127.186Z" fill="#040000"/>
<path d="M92.0235 127.187C92.7506 127.187 93.34 126.597 93.34 125.87C93.34 125.143 92.7506 124.554 92.0235 124.554C91.2964 124.554 90.707 125.143 90.707 125.87C90.707 126.597 91.2964 127.187 92.0235 127.187Z" fill="#040000"/>
<path d="M95.8548 127.186C96.5819 127.186 97.1713 126.597 97.1713 125.87C97.1713 125.143 96.5819 124.553 95.8548 124.553C95.1277 124.553 94.5383 125.143 94.5383 125.87C94.5383 126.597 95.1277 127.186 95.8548 127.186Z" fill="#040000"/>
<path d="M99.6869 127.186C100.414 127.186 101.003 126.597 101.003 125.87C101.003 125.143 100.414 124.553 99.6869 124.553C98.9598 124.553 98.3704 125.143 98.3704 125.87C98.3704 126.597 98.9598 127.186 99.6869 127.186Z" fill="#040000"/>
<path d="M107.351 127.186C108.078 127.186 108.668 126.597 108.668 125.87C108.668 125.143 108.078 124.553 107.351 124.553C106.624 124.553 106.035 125.143 106.035 125.87C106.035 126.597 106.624 127.186 107.351 127.186Z" fill="#040000"/>
<path d="M115.015 127.186C115.742 127.186 116.331 126.597 116.331 125.87C116.331 125.143 115.742 124.553 115.015 124.553C114.288 124.553 113.698 125.143 113.698 125.87C113.698 126.597 114.288 127.186 115.015 127.186Z" fill="#040000"/>
<path d="M118.763 127.186C119.491 127.186 120.08 126.597 120.08 125.87C120.08 125.143 119.491 124.553 118.763 124.553C118.036 124.553 117.447 125.143 117.447 125.87C117.447 126.597 118.036 127.186 118.763 127.186Z" fill="#040000"/>
<path d="M122.611 127.186C123.338 127.186 123.928 126.597 123.928 125.87C123.928 125.143 123.338 124.553 122.611 124.553C121.884 124.553 121.295 125.143 121.295 125.87C121.295 126.597 121.884 127.186 122.611 127.186Z" fill="#040000"/>
<path d="M134.156 127.186C134.883 127.186 135.472 126.597 135.472 125.87C135.472 125.143 134.883 124.553 134.156 124.553C133.429 124.553 132.839 125.143 132.839 125.87C132.839 126.597 133.429 127.186 134.156 127.186Z" fill="#040000"/>
<path d="M57.5356 131.034C58.2627 131.034 58.8522 130.444 58.8522 129.717C58.8522 128.99 58.2627 128.401 57.5356 128.401C56.8085 128.401 56.2191 128.99 56.2191 129.717C56.2191 130.444 56.8085 131.034 57.5356 131.034Z" fill="#040000"/>
<path d="M61.3669 131.035C62.094 131.035 62.6835 130.445 62.6835 129.718C62.6835 128.991 62.094 128.402 61.3669 128.402C60.6398 128.402 60.0504 128.991 60.0504 129.718C60.0504 130.445 60.6398 131.035 61.3669 131.035Z" fill="#040000"/>
<path d="M65.1991 131.035C65.9262 131.035 66.5156 130.445 66.5156 129.718C66.5156 128.991 65.9262 128.402 65.1991 128.402C64.472 128.402 63.8826 128.991 63.8826 129.718C63.8826 130.445 64.472 131.035 65.1991 131.035Z" fill="#040000"/>
<path d="M72.8635 131.035C73.5906 131.035 74.18 130.445 74.18 129.718C74.18 128.991 73.5906 128.402 72.8635 128.402C72.1364 128.402 71.5469 128.991 71.5469 129.718C71.5469 130.445 72.1364 131.035 72.8635 131.035Z" fill="#040000"/>
<path d="M76.6948 131.035C77.4219 131.035 78.0113 130.445 78.0113 129.718C78.0113 128.991 77.4219 128.402 76.6948 128.402C75.9677 128.402 75.3782 128.991 75.3782 129.718C75.3782 130.445 75.9677 131.035 76.6948 131.035Z" fill="#040000"/>
<path d="M80.5269 131.035C81.254 131.035 81.8434 130.445 81.8434 129.718C81.8434 128.991 81.254 128.402 80.5269 128.402C79.7998 128.402 79.2104 128.991 79.2104 129.718C79.2104 130.445 79.7998 131.035 80.5269 131.035Z" fill="#040000"/>
<path d="M88.1913 131.035C88.9184 131.035 89.5078 130.445 89.5078 129.718C89.5078 128.991 88.9184 128.402 88.1913 128.402C87.4642 128.402 86.8748 128.991 86.8748 129.718C86.8748 130.445 87.4642 131.035 88.1913 131.035Z" fill="#040000"/>
<path d="M92.0235 131.035C92.7506 131.035 93.34 130.445 93.34 129.718C93.34 128.991 92.7506 128.402 92.0235 128.402C91.2964 128.402 90.707 128.991 90.707 129.718C90.707 130.445 91.2964 131.035 92.0235 131.035Z" fill="#040000"/>
<path d="M99.6869 131.035C100.414 131.035 101.003 130.445 101.003 129.718C101.003 128.991 100.414 128.402 99.6869 128.402C98.9598 128.402 98.3704 128.991 98.3704 129.718C98.3704 130.445 98.9598 131.035 99.6869 131.035Z" fill="#040000"/>
<path d="M103.519 131.035C104.246 131.035 104.836 130.445 104.836 129.718C104.836 128.991 104.246 128.402 103.519 128.402C102.792 128.402 102.203 128.991 102.203 129.718C102.203 130.445 102.792 131.035 103.519 131.035Z" fill="#040000"/>
<path d="M107.351 131.035C108.078 131.035 108.668 130.445 108.668 129.718C108.668 128.991 108.078 128.402 107.351 128.402C106.624 128.402 106.035 128.991 106.035 129.718C106.035 130.445 106.624 131.035 107.351 131.035Z" fill="#040000"/>
<path d="M130.308 131.035C131.035 131.035 131.624 130.445 131.624 129.718C131.624 128.991 131.035 128.402 130.308 128.402C129.581 128.402 128.991 128.991 128.991 129.718C128.991 130.445 129.581 131.035 130.308 131.035Z" fill="#040000"/>
<path d="M57.5356 134.883C58.2627 134.883 58.8522 134.293 58.8522 133.566C58.8522 132.839 58.2627 132.25 57.5356 132.25C56.8085 132.25 56.2191 132.839 56.2191 133.566C56.2191 134.293 56.8085 134.883 57.5356 134.883Z" fill="#040000"/>
<path d="M65.1991 134.882C65.9262 134.882 66.5156 134.292 66.5156 133.565C66.5156 132.838 65.9262 132.249 65.1991 132.249C64.472 132.249 63.8826 132.838 63.8826 133.565C63.8826 134.292 64.472 134.882 65.1991 134.882Z" fill="#040000"/>
<path d="M69.0313 134.883C69.7584 134.883 70.3478 134.293 70.3478 133.566C70.3478 132.839 69.7584 132.25 69.0313 132.25C68.3042 132.25 67.7148 132.839 67.7148 133.566C67.7148 134.293 68.3042 134.883 69.0313 134.883Z" fill="#040000"/>
<path d="M72.8635 134.883C73.5906 134.883 74.18 134.293 74.18 133.566C74.18 132.839 73.5906 132.25 72.8635 132.25C72.1364 132.25 71.5469 132.839 71.5469 133.566C71.5469 134.293 72.1364 134.883 72.8635 134.883Z" fill="#040000"/>
<path d="M80.5269 134.883C81.254 134.883 81.8434 134.293 81.8434 133.566C81.8434 132.839 81.254 132.25 80.5269 132.25C79.7998 132.25 79.2104 132.839 79.2104 133.566C79.2104 134.293 79.7998 134.883 80.5269 134.883Z" fill="#040000"/>
<path d="M92.0235 134.883C92.7506 134.883 93.34 134.293 93.34 133.566C93.34 132.839 92.7506 132.25 92.0235 132.25C91.2964 132.25 90.707 132.839 90.707 133.566C90.707 134.293 91.2964 134.883 92.0235 134.883Z" fill="#040000"/>
<path d="M103.519 134.883C104.246 134.883 104.836 134.293 104.836 133.566C104.836 132.839 104.246 132.25 103.519 132.25C102.792 132.25 102.203 132.839 102.203 133.566C102.203 134.293 102.792 134.883 103.519 134.883Z" fill="#040000"/>
<path d="M107.351 134.883C108.078 134.883 108.668 134.293 108.668 133.566C108.668 132.839 108.078 132.25 107.351 132.25C106.624 132.25 106.035 132.839 106.035 133.566C106.035 134.293 106.624 134.883 107.351 134.883Z" fill="#040000"/>
<path d="M111.183 134.883C111.91 134.883 112.499 134.293 112.499 133.566C112.499 132.839 111.91 132.25 111.183 132.25C110.456 132.25 109.866 132.839 109.866 133.566C109.866 134.293 110.456 134.883 111.183 134.883Z" fill="#040000"/>
<path d="M115.015 134.883C115.742 134.883 116.331 134.293 116.331 133.566C116.331 132.839 115.742 132.25 115.015 132.25C114.288 132.25 113.698 132.839 113.698 133.566C113.698 134.293 114.288 134.883 115.015 134.883Z" fill="#040000"/>
<path d="M118.763 134.883C119.491 134.883 120.08 134.293 120.08 133.566C120.08 132.839 119.491 132.25 118.763 132.25C118.036 132.25 117.447 132.839 117.447 133.566C117.447 134.293 118.036 134.883 118.763 134.883Z" fill="#040000"/>
<path d="M130.308 134.883C131.035 134.883 131.624 134.293 131.624 133.566C131.624 132.839 131.035 132.25 130.308 132.25C129.581 132.25 128.991 132.839 128.991 133.566C128.991 134.293 129.581 134.883 130.308 134.883Z" fill="#040000"/>
<path d="M134.156 134.883C134.883 134.883 135.472 134.293 135.472 133.566C135.472 132.839 134.883 132.25 134.156 132.25C133.429 132.25 132.839 132.839 132.839 133.566C132.839 134.293 133.429 134.883 134.156 134.883Z" fill="#040000"/>
<path d="M116.861 43.3113V32.1182H128.068V43.3069L116.861 43.3113Z" fill="#040000"/>
<path d="M135.266 25.2036H109.957V50.5132H135.266V25.2036Z" stroke="#040000" stroke-width="3.651" stroke-miterlimit="10"/>
<path d="M31.2513 44.4476V30.9937H44.7295V44.4476H31.2513Z" fill="#040000"/>
<path d="M31.2513 128.749V115.295H44.7295V128.749H31.2513Z" fill="#040000"/>
<path d="M115.727 44.4476V30.9937H129.205V44.4476H115.727Z" fill="#040000"/>
<path d="M50.7913 25.2036H25.4818V50.5132H50.7913V25.2036Z" stroke="#040000" stroke-width="3.651" stroke-miterlimit="10"/>
<path d="M32.386 127.475V116.281H43.593V127.47L32.386 127.475Z" fill="#040000"/>
<path d="M50.7913 109.367H25.4818V134.676H50.7913V109.367Z" stroke="#040000" stroke-width="3.651" stroke-miterlimit="10"/>
<path d="M87.4052 70.939H73.5861C72.4311 70.939 71.4948 71.8753 71.4948 73.0303V86.8494C71.4948 88.0044 72.4311 88.9407 73.5861 88.9407H87.4052C88.5602 88.9407 89.4965 88.0044 89.4965 86.8494V73.0303C89.4965 71.8753 88.5602 70.939 87.4052 70.939Z" fill="#14AF64"/>
<path d="M83.3678 74.2659V73.7007H80.9156V74.2659H81.8591V74.6441H80.9156V76.152H83.3678V74.6441H82.4243V74.2659H83.3678ZM82.8026 75.2094V75.5885H81.4808V75.2094H81.86V75.4338H82.4243V75.2094H82.8026Z" fill="white"/>
<path d="M79.8 73.7007H79.2356V74.6441H78.2896V75.2094H79.233V76.1529H79.7974V75.2094H80.7409V74.6441H79.7974L79.8 73.7007Z" fill="white"/>
<path d="M77.9634 73.4406L77.6252 73.7788L78.1662 74.3199L78.5044 73.9818L77.9634 73.4406Z" fill="white"/>
<path d="M78.4034 73.0007L78.0652 73.3389L78.6063 73.88L78.9445 73.5418L78.4034 73.0007Z" fill="white"/>
<path d="M85.9739 77.9962V80.8779H86.5843V77.9962H85.9739Z" fill="white"/>
<path d="M83.2261 78.5882V79.6465H85.8156V78.5882H83.2261Z" fill="white"/>
<path d="M85.0504 77.6362H83.9921V81.5162H85.0504V77.6362Z" fill="white"/>
<path d="M86.2226 82.2283L84.7443 82.2431L83.9956 81.4944L84.7443 80.7466L86.2226 82.2283Z" fill="white"/>
<path d="M87.8191 77.6431H86.7609V82.2361H87.8191V77.6431Z" fill="white"/>
<path d="M86.9379 80.9167L86.1896 81.665L86.7608 82.2363L87.5091 81.488L86.9379 80.9167Z" fill="white"/>
<path d="M83.9221 82.2196L85.873 80.2686L85.3018 79.6973L83.3508 81.6483L83.9221 82.2196Z" fill="white"/>
<path d="M77.7861 78.8872H73.1861V79.4976H77.7861V78.8872Z" fill="white"/>
<path d="M77.7861 77.8408H73.1861V78.5878H77.7861V77.8408Z" fill="white"/>
<path d="M76.3461 79.6235H74.4261V80.234H76.3461V79.6235Z" fill="white"/>
<path d="M76.3461 79.6577H75.2878V82.2369H76.3461V79.6577Z" fill="white"/>
<path d="M74.2444 77.8408H73.1861V78.7695H74.2444V77.8408Z" fill="white"/>
<path d="M77.7853 77.8408H76.727V78.7695H77.7853V77.8408Z" fill="white"/>
<path d="M76.0148 77.6436H74.9565V78.4514H76.0148V77.6436Z" fill="white"/>
<path d="M75.4657 80.9172L74.7174 81.6655L75.2886 82.2367L76.0369 81.4884L75.4657 80.9172Z" fill="white"/>
<path d="M75.4443 79.2498L73.7426 80.9515L73.1713 80.3801L74.5418 79.0098L75.4443 79.2498Z" fill="white"/>
<path d="M74.356 80.6084L73.3009 81.6636L73.8721 82.2348L74.9272 81.1797L74.356 80.6084Z" fill="white"/>
<path d="M76.191 81.2126L77.2148 82.2363L77.786 81.6651L76.7622 80.6413L76.191 81.2126Z" fill="white"/>
<path d="M77.215 79.647L75.92 80.9419L76.4913 81.5131L77.7862 80.2182L77.215 79.647Z" fill="white"/>
<path d="M80.0035 79.0311V80.0894H82.7974V79.0311H80.0035Z" fill="white"/>
<path d="M79.8026 79.647H78.7443V82.2365H79.8026V79.647Z" fill="white"/>
<path d="M81.9296 77.6362H80.8713V82.2362H81.9296V77.6362Z" fill="white"/>
<path d="M78.2043 78.9217V79.98H79.8026V78.9217H78.2043Z" fill="white"/>
<path d="M80.377 81.6658L79.6287 80.9175L79.0575 81.4887L79.8058 82.237L80.377 81.6658Z" fill="white"/>
<path d="M78.3119 78.2072L79.3356 79.231L79.9068 78.6597L78.8831 77.636L78.3119 78.2072Z" fill="white"/>
<path d="M81.5991 84.8904V86.4209H79.5904V84.8904L80.5982 84.2583L81.5991 84.8904Z" fill="white"/>
<path d="M80.94 85.4982L80.8096 85.3687L80.5922 85.5851L80.3748 85.3687L80.2452 85.4982L80.4626 85.7155L80.2452 85.9329L80.3748 86.0625L80.5922 85.8452L80.8096 86.0625L80.94 85.9329L80.7226 85.7155L80.94 85.4982Z" fill="#14AF64"/>
<path d="M80.5773 85.0156H80.4217V85.2643H80.5773V85.0156Z" fill="#14AF64"/>
<path d="M80.78 85.0156H80.6243V85.2643H80.78V85.0156Z" fill="#14AF64"/>
<defs>
<filter id="filter0_d" x="0" y="0" width="160" height="166" filterUnits="userSpaceOnUse" color-interpolation-filters="sRGB">
<feFlood flood-opacity="0" result="BackgroundImageFix"/>
<feColorMatrix in="SourceAlpha" type="matrix" values="0 0 0 0 0 0 0 0 0 0 0 0 0 0 0 0 0 0 127 0"/>
<feOffset/>
<feGaussianBlur stdDeviation="5"/>
<feColorMatrix type="matrix" values="0 0 0 0 0 0 0 0 0 0 0 0 0 0 0 0 0 0 0.1 0"/>
<feBlend mode="normal" in2="BackgroundImageFix" result="effect1_dropShadow"/>
<feBlend mode="normal" in="SourceGraphic" in2="effect1_dropShadow" result="shape"/>
</filter>
</defs>
</svg>
