<svg width="160" height="160" viewBox="0 0 160 160" fill="none" xmlns="http://www.w3.org/2000/svg">
<circle cx="80" cy="80" r="80" fill="white"/>
<g clip-path="url(#clip0)">
<path d="M84.5 16.7C84.5 17.4 83.9 17.9 83.2 17.9C82.5 17.9 82 17.3 82 16.6C82 15.9 82.6 15.4 83.3 15.4C84 15.5 84.6 16 84.5 16.7Z" fill="#2C3330"/>
<path d="M97.5 14.5L98.5 14.8L97.4 18.4L101.6 19.7L102.6 16L103.6 16.3L101 24.7L100 24.4L101.2 20.4L97 19.1L95.8 23.1L94.8 22.8L97.5 14.5Z" fill="#2C3330"/>
<path d="M111.4 26C112.5 24.2 114.4 23.9 115.8 24.7C117.2 25.6 117.7 27.4 116.6 29.2C115.5 31 113.6 31.3 112.2 30.4C110.8 29.6 110.3 27.8 111.4 26ZM115.7 28.7C116.5 27.4 116.4 26.1 115.3 25.4C114.3 24.8 113 25.2 112.2 26.5C111.4 27.8 111.5 29.1 112.5 29.8C113.6 30.4 114.9 30 115.7 28.7Z" fill="#2C3330"/>
<path d="M127 33.6L127.5 34.2L126.8 34.9C127.7 34.9 128.5 35.1 129 35.7C129.7 36.5 129.7 37.2 129.3 37.9C130.3 37.9 131.2 38.1 131.7 38.7C132.6 39.7 132.4 40.8 131.1 41.9L128 44.6L127.3 43.8L130.3 41.2C131.2 40.4 131.4 39.7 130.8 39C130.4 38.6 129.8 38.4 128.8 38.4L125.2 41.5L124.5 40.8L127.5 38.2C128.4 37.4 128.6 36.7 128 36C127.7 35.6 127 35.4 126.1 35.4L122.6 38.5L121.9 37.8L127 33.6Z" fill="#2C3330"/>
<path d="M136 51.2C137.9 50.3 139.7 51.1 140.3 52.4C141 53.9 140.4 55.3 138.7 56.1C138.5 56.2 138.3 56.3 138.1 56.3L136.2 52.2C134.9 52.9 134.4 54.1 135 55.3C135.3 55.9 135.7 56.3 136.2 56.6L135.8 57.2C135.2 56.8 134.7 56.3 134.3 55.5C133.5 54 134.1 52.1 136 51.2ZM138.5 55.3C139.7 54.7 140.1 53.8 139.7 52.8C139.3 51.9 138.2 51.4 136.9 51.9L138.5 55.3Z" fill="#2C3330"/>
<path d="M146.9 65.1L147.3 67.6C147.7 69.6 147.2 71 145.4 71.3C143.6 71.6 142.5 70.5 142.2 68.5L141.9 67L138.4 67.6L138.2 66.6L146.9 65.1ZM143 68.3C143.3 69.9 144 70.6 145.3 70.4C146.6 70.2 146.9 69.3 146.6 67.6L146.4 66.3L142.8 66.9L143 68.3Z" fill="#2C3330"/>
<path d="M140.7 82L149 82.5L148.9 83.5L140.5 83C140.2 83 140 83.1 140 83.3C140 83.4 140 83.4 140 83.5L139.2 83.6C139.2 83.4 139.1 83.3 139.2 83C139.3 82.2 139.8 81.9 140.7 82Z" fill="#2C3330"/>
<path d="M139.6 92.9C141 93.3 141.3 94.7 140.8 97.5C141.6 97.8 142.5 97.7 142.9 96.6C143.1 95.8 143 95 142.8 94.5L143.6 94.3C143.8 95 144 96 143.7 97C143.2 98.5 142 98.9 140.5 98.4L136.6 97.3L136.8 96.5L137.6 96.6C137.3 95.8 137.1 95 137.3 94.2C137.7 93.2 138.5 92.6 139.6 92.9ZM138.4 96.9L140.2 97.4C140.6 95.1 140.3 94.1 139.5 93.9C138.8 93.7 138.3 94.1 138.1 94.8C137.8 95.4 138 96.1 138.4 96.9Z" fill="#2C3330"/>
<path d="M138.2 109.7L137.8 110.4L136.9 110C137.1 110.9 137.2 111.7 136.7 112.5C136 113.7 134.9 113.8 133.5 112.9L130 110.8L130.5 109.9L133.9 112C135 112.6 135.6 112.6 136.1 111.8C136.5 111.2 136.4 110.6 136.2 109.6L132.2 107.1L132.7 106.2L138.2 109.7Z" fill="#2C3330"/>
<path d="M124.7 124C124.2 123.5 124.2 122.7 124.7 122.2C125.2 121.7 126 121.7 126.5 122.2C127 122.7 127 123.5 126.5 124C125.9 124.5 125.1 124.5 124.7 124Z" fill="#2C3330"/>
<path d="M107.6 136.4C107.9 135.7 108.3 135 108.7 134.2C107.4 133 105.7 132.4 104 132.6C104.1 132.4 104.2 132 104.2 131.8C105.9 131.6 107.7 132.3 109.1 133.5C109.2 133.3 109.4 133.1 109.5 132.9C108.4 131.7 107.9 130.3 108.3 129.5C108.5 129.1 108.7 128.8 109.2 128.6C109.4 128.5 109.8 128.3 110.1 128.1C110.2 128.3 110.4 128.5 110.6 128.6C110.2 128.8 109.8 129 109.6 129.1C109.3 129.3 109.1 129.4 109 129.7C108.8 130.1 109 131 109.6 131.9C110.3 130.3 111.7 128.4 113 127.1C113.2 127.2 113.5 127.4 113.7 127.5C112.2 128.8 110.6 131 110.1 132.5C110.3 132.7 110.6 132.9 110.8 133.1C111.5 131.8 112.8 130.1 113.8 129.1C114 129.2 114.3 129.4 114.5 129.5C113.3 130.5 111.9 132.3 111.3 133.5C111.6 133.7 111.9 133.8 112.2 133.9C112.9 132.8 113.8 131.8 114.7 130.9C114.9 131 115.2 131.2 115.4 131.2C114.2 132.3 113 133.7 112.4 134.9L115 133.5L115.3 134.1L109 137.5L108.7 136.9L111.5 135.4C111.6 135.1 111.8 134.7 112 134.4C111.2 134.2 110.5 133.8 110 133.3C109.4 134.3 108.8 135.5 108.5 136.4H107.6ZM115.7 133.5L116.4 133.1L117.6 135.2L113.5 137.4C113.8 137.6 114.1 137.8 114.4 138L113.8 138.6C113.4 138.4 113 138.1 112.7 137.9L108.7 140.1L107.5 138L108.2 137.6L109 139.1L116.6 135L115.7 133.5Z" fill="#2C3330"/>
<path d="M85.9 139.3C86.5 138.8 87.2 138.2 87.9 137.7C87 137.2 85.8 137 84.7 137C84.8 136.8 85 136.5 85.1 136.3C87.6 136.5 89.6 137.5 90.9 139.2C91.4 138.6 92 138.1 92.7 137.6L92.4 136L89.5 137.1C89.5 136.9 89.4 136.6 89.4 136.5C92.7 135.2 93.1 135 93.3 134.8C93.4 135 93.6 135.3 93.7 135.4C93.5 135.5 93.1 135.7 93.2 136.2L93.3 137.1C94 136.7 94.7 136.3 95.4 136C95.5 136.2 95.8 136.4 96 136.5C94.5 137.1 92.8 138 91.8 139L96.1 138.3L96.2 139L91.1 139.9C91.3 140.2 91.5 140.4 91.7 140.7L91 141C90.7 140.7 90.5 140.3 90.2 140.1L85.5 140.9L85.4 140.2L90.1 139.4C89.7 138.9 89.2 138.5 88.6 138.1C87.9 138.6 87.1 139.2 86.7 139.7L85.9 139.3ZM90 144L92.9 143.5L93 144.2L90.1 144.7L90.4 146.4L89.6 146.5L89.3 144.8L86.4 145.3L86.3 144.6L89.2 144.1L88.9 142.1L86.2 142.5L86.1 141.8L92.1 140.8L92.2 141.5L89.6 141.9L90 144ZM94 142C94.8 141.4 95.7 140.9 96.4 140.4L96.8 141C96.1 141.4 95.1 142.1 94.1 142.7L94.6 145.7L93.8 145.8L92.9 140.3L93.7 140.2L94 142ZM95.2 143.1C95.6 143.4 96.3 143.9 96.9 144.1L96.5 144.6C95.9 144.4 95.2 144 94.8 143.6L95.2 143.1Z" fill="#2C3330"/>
<path d="M67.4 143.2C67.2 143.6 66.9 144 66.7 144.4L69 144.8L68.9 145.5L63.6 144.7L63.7 144L65.9 144.4C66.1 144 66.4 143.6 66.6 143.2L64.2 142.8L65.1 137.3L65.9 137.4L65.1 142.3L68.3 142.8L69.1 137.9L69.8 138L68.9 143.5L67.4 143.2ZM67 137.4C66.3 136.7 65.4 135.7 64.9 135.1L65.5 134.7C65.9 135.3 66.8 136.4 67.6 137.1L67 137.4ZM66.5 141.9C67.2 137.5 67.7 135.9 71 135.4C71 135.6 71.2 135.9 71.3 136C68.3 136.4 67.9 137.8 67.2 141.9H66.5ZM70.2 142.2C70.5 143 71.3 144.1 72 145.1C72.8 144.1 73.7 143.2 74.8 142.5C74.9 142.7 75.1 142.9 75.3 143.1C73.9 143.9 72.6 145.3 71.9 146.6L71.2 146.3C71.3 146.1 71.5 145.9 71.6 145.6C70.9 144.6 70 143.4 69.6 142.6L70.2 142.2ZM70.4 140.7C71.1 139.7 72.1 138.4 72.9 137.6C72.5 137.1 72.2 136.6 72 136.3L72.7 135.9C73.1 136.7 74 138 74.8 138.9L74.2 139.2C73.9 138.9 73.7 138.6 73.4 138.2C72.8 138.8 72 139.7 71.5 140.5L74.7 141L74.6 141.7L71 141H70.9L70.4 140.7ZM72.5 143.6C72.1 143.1 71.7 142.5 71.5 142L72.1 141.7C72.3 142.1 72.7 142.8 73.1 143.3L72.5 143.6Z" fill="#2C3330"/>
<path d="M43.7 135.2C43.8 135.7 44.1 136.5 44.4 137.1L43.8 137.2C43.5 136.6 43.1 135.9 43 135.4L43.7 135.2ZM44.3 133.1C45.4 131.9 46.6 131 47.8 130.3C48.2 128.9 48.2 128.1 47.8 127.8C47.6 127.7 47.2 128.1 46.6 129.2C46.5 129 46.4 128.7 46.3 128.6C47.2 127.2 47.6 126.9 48.3 127.2C49 127.6 49.1 128.5 48.8 129.9C49.7 129.5 50.7 129.2 51.7 129.1C51.7 129.3 51.9 129.6 52 129.8C50.8 129.9 49.7 130.2 48.6 130.7C48.2 132.1 47.5 133.8 46.6 135.7L50.3 137.7L50 138.3L46.3 136.3C46 136.8 45.8 137.4 45.5 137.9L44.8 137.5C45.1 137 45.4 136.4 45.6 135.9L43.3 134.7L43.6 134.1L45.9 135.3C46.6 133.8 47.2 132.4 47.6 131.2C46.7 131.8 45.8 132.5 45 133.4L44.3 133.1ZM47.7 135.1L49.3 132.1L52 133.5L50.4 136.5L47.7 135.1ZM48.6 134.8L50.1 135.6L51.1 133.7L49.6 132.9L48.6 134.8ZM49.4 130.7C50.9 131 52.5 131.3 53.7 131.6L53.6 132.4C52.5 132.1 50.8 131.7 49.2 131.3L49.4 130.7ZM52.6 133.1C53.9 133.1 55.2 133.2 56.2 133.2L56.1 134C55.7 133.9 55.1 133.9 54.6 133.9L52.6 137.6L53.8 138.2L53.4 138.9L52.2 138.3L50.9 140.8L50.2 140.4L51.5 137.9L50.5 137.4L50.9 136.7L51.9 137.2L53.7 133.8L52.4 133.7L52.6 133.1Z" fill="#2C3330"/>
<path d="M27.5 123.4C27.7 123.3 27.9 123.3 28.1 123.2C28.6 121.6 28.5 119.4 28.1 117.8C28.3 117.8 28.7 117.8 28.9 117.8C29.2 119.3 29.2 121.3 28.8 123C30.4 122.7 32.2 122.7 34.2 123.3C34.1 123.5 34.1 123.9 34.1 124.1C31.7 123.4 29.4 123.6 27.9 124.1L27.5 123.4ZM30.3 119.8L29.7 119.2L34.3 114.9L34.9 115.5L30.3 119.8ZM30.4 126.3C31.3 125.9 32.2 125.6 33.1 125.4L39 119.9L39.6 120.5L34.7 125.1C35.3 125 35.9 124.9 36.5 124.9C36.4 125.1 36.3 125.6 36.3 125.8C34.7 125.8 32.6 126.2 30.8 127L30.4 126.3ZM32.7 122.4L32.1 121.8L33.3 120.7C34.3 119.8 35.9 118.6 38.3 119C38.3 119.2 38.3 119.6 38.3 119.8C36.2 119.3 34.7 120.5 33.9 121.3L32.7 122.4Z" fill="#2C3330"/>
<path d="M22.9 96.7L23.5 96.4L26.8 103.9L26.2 104.2L25.7 103.1L19.5 105.8L18.7 103.9C18.4 103.9 18 104 17.5 104.1L18.7 106.9L18.1 107.2L16.8 104.3C16.4 104.4 15.9 104.5 15.6 104.6L15.3 103.8C15.7 103.7 16.1 103.6 16.5 103.6L15.2 100.5L15.8 100.2L17.2 103.4C17.6 103.3 18.1 103.3 18.4 103.2L17.2 100.4L23.4 97.7L22.9 96.7ZM17.2 107.5C18.2 107.4 19.2 107.5 20.2 107.6L27.5 104.4L27.8 105.1L21.6 107.8C22.2 107.9 22.8 108.1 23.3 108.3C23.2 108.5 22.9 108.8 22.8 109C21.3 108.4 19.2 108.2 17.2 108.3V107.5ZM19.8 104.9L20.8 104.5L19 100.5L18 100.9L19.8 104.9ZM19.6 100.2L21.4 104.2L22.4 103.8L20.6 99.8L19.6 100.2ZM23.9 103.1L22.1 99.1L21.1 99.5L22.9 103.5L23.9 103.1ZM25.4 102.4L23.6 98.4L22.6 98.8L24.4 102.8L25.4 102.4Z" fill="#2C3330"/>
<path d="M17.6 82.5V83.3L11.3 83.7L11 78.4L17.3 78V78.8L11.7 79.2L12 82.8L17.6 82.5ZM20 84.6C19.4 84.8 18.8 85.2 18.1 85.6C19.4 86.1 20.5 86.8 21.4 87.6C21.2 87.7 21 88 20.8 88.2C20 87.4 18.8 86.6 17.2 86.1C16.2 86.8 15.1 87.6 14.2 88.4L13.8 87.8C14.5 87.1 15.4 86.4 16.3 85.8C15.1 85.5 13.9 85.2 12.5 85.1L12.7 88.6H11.9L11.8 85V84.9L11.9 84.4C13.9 84.5 15.7 84.8 17.3 85.3C18.2 84.7 19 84.2 19.6 84L20 84.6ZM15.3 80.5C17.3 80.4 19.9 80.8 21.7 83.8C21.5 83.9 21.3 84.2 21.2 84.3C19.5 81.3 17.2 81.1 15.4 81.2L13 81.4V80.6L15.3 80.5ZM20.5 78.2C20.5 77.8 20.2 77.7 18.4 77.8C18.5 77.6 18.6 77.3 18.7 77.1C20.6 77.1 21 77.2 21.1 78.2L21.2 79.3C21.2 80.1 21.1 80.4 20.3 80.5L17.3 80.7V79.9L20.2 79.7C20.5 79.7 20.6 79.6 20.6 79.2L20.5 78.2Z" fill="#2C3330"/>
<path d="M18.3 62.9C18.3 62.9 18.5 63 18.6 63C21.5 64.1 22.5 64.6 22.7 65C22.9 65.3 22.9 65.5 22.8 65.8C22.7 66.1 22.6 66.6 22.4 67.2C22.2 67.2 21.9 67.2 21.7 67.2C21.9 66.6 22.1 66.1 22.2 65.9C22.3 65.7 22.3 65.6 22.2 65.4C22 65.1 21.1 64.6 18.8 63.7L17.8 67C16.8 66.6 15.2 65.9 14 65.5L14.2 64.8C15.2 65.2 16.4 65.7 17.4 66.1L17.9 64.5C16.8 64 15.2 63.4 13.8 62.9L13 65.7L12.3 65.5L13.1 62.7L13.3 62C14.8 62.6 16.9 63.4 18 63.9L18.3 62.9ZM24.2 57.6L24.9 57.8L23.2 63.7L13.8 61L15.5 55.4L16.2 55.6L14.8 60.5L22.7 62.8L24.2 57.6ZM23 58.3C22.2 58.4 21.2 58.7 20.1 59C21 59.9 21.7 60.8 22.3 61.7C22.1 61.8 21.8 62 21.6 62.2C21 61.2 20.2 60.2 19.3 59.3C18.2 59.7 17.1 60 16.2 60.5L16 59.7C16.8 59.3 17.8 59 18.7 58.7C18 58.1 17.3 57.5 16.5 56.9L16.9 56.2C17.8 56.9 18.7 57.6 19.5 58.3C20.7 57.9 21.9 57.6 22.7 57.4L23 58.3ZM20.4 64.9C20.4 66 20.4 67.2 20.3 68.2H19.6C19.7 67.3 19.7 66.1 19.7 64.9H20.4Z" fill="#2C3330"/>
<path d="M24.8 40.8L22 44.6L21.4 44.2L24.2 40.4L24.8 40.8ZM30.6 45.5C30.4 45.4 30.1 45.3 29.8 45.2C28.3 48.4 28.2 48.8 28.2 49.2C28 49.1 27.6 49 27.4 49C27.5 48.8 27.3 48.5 27.1 48.1C26.9 47.7 26 46.4 25.1 45.4L24.1 46.8L23.5 46.4L26.7 42.1L27.3 42.5L25.6 44.8C26.5 45.8 27.3 47 27.9 48.1L29.2 45.2C28.5 45 27.8 44.8 27.2 44.7L27.5 44C28.6 44.3 30.1 44.7 30.9 45L30.6 45.5ZM29.3 37.1C33.2 40.2 34.4 41.3 34.6 41.9C34.7 42.3 34.6 42.5 34.4 42.8C34.2 43.1 33.8 43.7 33.4 44.2C33.2 44.1 32.9 44 32.6 43.9C33.1 43.4 33.5 42.8 33.6 42.6C33.7 42.4 33.8 42.3 33.7 42.1C33.6 41.6 32.4 40.5 29 37.9L28 39.5C30.3 41.4 32.2 43.4 32.5 45.9C32.3 45.9 31.9 46 31.7 46.1C31.5 43.8 29.7 41.9 27.6 40.2L26.5 41.6L25.9 41.1L27 39.6C26.3 39.1 25.6 38.5 24.9 38L25.4 37.4C26.1 37.9 26.8 38.4 27.5 39L29.1 36.8L29.3 37.1Z" fill="#2C3330"/>
<path d="M48.4 25.9L44.2 28.8L46.6 32.3L45.9 32.8L43.5 29.3L39.4 32.2L39 31.5L43.1 28.6L40.7 25.1L37 27.6L36.6 26.9L44.5 21.4L44.9 22.1L41.3 24.6L43.7 28.1L47.9 25.2L48.4 25.9ZM38.7 27.2C39.6 27.6 40.7 28.3 41.3 28.8L40.8 29.4C40.2 28.9 39.2 28.2 38.3 27.8L38.7 27.2ZM44.4 26.6C44.3 25.7 44.1 24.3 43.9 23.4L44.8 23.1C45 24.2 45.2 25.5 45.2 26.3L44.4 26.6Z" fill="#2C3330"/>
<path d="M63.1 14.6C64.5 15.3 66.3 16.3 67.2 17.1L66.7 17.8C66.4 17.6 66.1 17.3 65.7 17C58.9 19.3 58.3 19.5 57.9 19.8C57.8 19.6 57.6 19.3 57.4 19.1C57.6 19 57.9 18.6 58.2 18.1C58.5 17.6 59.5 15.7 60 14L60.9 14.1C60.3 15.7 59.6 17.2 58.7 18.4L64.9 16.3C64.2 15.8 63.4 15.4 62.6 15.1L63.1 14.6ZM58.7 20.5L66.2 18.4L67.5 23.2L66.7 23.4L66.5 22.8L60.6 24.4L60.8 25L60 25.2L58.7 20.5ZM59.7 21L60.5 23.7L66.4 22.1L65.6 19.4L59.7 21Z" fill="#2C3330"/>
</g>
<defs>
<clipPath id="clip0">
<rect width="138" height="132.7" fill="white" transform="translate(11 14)"/>
</clipPath>
</defs>
</svg>
