<svg width="60" height="60" viewBox="0 0 60 60" fill="none" xmlns="http://www.w3.org/2000/svg">
<path d="M32.238 57.1515L30.1485 55.938L29.4105 49.2495L32.229 50.8875L32.238 57.1515Z" fill="#14AF64" stroke="#333333" stroke-linecap="round" stroke-linejoin="round"/>
<path d="M32.229 50.8875L29.4105 49.2495L32.244 47.613L35.064 49.251L32.229 50.8875Z" fill="#14AF64" stroke="#333333" stroke-linecap="round" stroke-linejoin="round"/>
<path d="M35.064 49.251L34.257 55.986L32.238 57.1515L32.229 50.8875L35.064 49.251Z" fill="#14AF64" stroke="#333333" stroke-linecap="round" stroke-linejoin="round"/>
<path d="M9.50549 44.0265L11.595 42.8115L12.333 36.123L9.51449 37.7625L9.50549 44.0265Z" fill="#14AF64" stroke="#333333" stroke-linecap="round" stroke-linejoin="round"/>
<path d="M9.51444 37.7625L12.3329 36.123L9.49944 34.4865L6.67944 36.1245L9.51444 37.7625Z" fill="#14AF64" stroke="#333333" stroke-linecap="round" stroke-linejoin="round"/>
<path d="M6.67944 36.1245L7.48644 42.861L9.50544 44.0265L9.51444 37.7625L6.67944 36.1245Z" fill="#14AF64" stroke="#333333" stroke-linecap="round" stroke-linejoin="round"/>
<path d="M52.08 45.534L49.989 44.319L49.251 37.6305L52.0695 39.2685L52.08 45.534Z" fill="#14AF64" stroke="#333333" stroke-linecap="round" stroke-linejoin="round"/>
<path d="M52.0695 39.2685L49.251 37.6305L52.086 35.994L54.9045 37.632L52.0695 39.2685Z" fill="#14AF64" stroke="#333333" stroke-linecap="round" stroke-linejoin="round"/>
<path d="M54.9045 37.632L54.099 44.367L52.08 45.534L52.0695 39.2685L54.9045 37.632Z" fill="#14AF64" stroke="#333333" stroke-linecap="round" stroke-linejoin="round"/>
<path d="M54.9045 31.107L54.8865 37.629L32.2185 50.8725L32.2365 44.3505L54.9045 31.107Z" fill="white" stroke="#333333" stroke-linecap="round" stroke-linejoin="round"/>
<path d="M32.2364 44.3505L32.2184 50.8725L6.67944 36.1275L6.69744 29.607L32.2364 44.3505Z" fill="white" stroke="#333333" stroke-linecap="round" stroke-linejoin="round"/>
<path d="M54.7875 31.2465L32.2365 44.3505L6.69751 29.607L29.2485 16.5015L54.7875 31.2465Z" fill="white" stroke="#333333" stroke-linecap="round" stroke-linejoin="round"/>
<path d="M28.671 3.114C28.155 2.814 27.4425 2.8575 26.655 3.3105C25.086 4.218 23.8185 6.411 23.8245 8.2155L23.856 19.6245L49.2285 34.3695L49.2 22.9605C49.2 21.1605 50.4615 18.963 52.0305 18.0555C52.818 17.6055 53.5305 17.559 54.0465 17.859L28.671 3.114Z" fill="white" stroke="#333333" stroke-linecap="round" stroke-linejoin="round"/>
<path d="M52.029 18.0555C53.592 17.1555 54.867 17.8785 54.879 19.6845L54.9105 31.092L49.2345 34.3695L49.2 22.9605C49.191 21.15 50.4585 18.963 52.029 18.0555Z" fill="white" stroke="#333333" stroke-linecap="round" stroke-linejoin="round"/>
<path d="M45.8161 25.572C44.7301 24.945 43.7476 24.8865 43.0396 25.2975L27.5341 34.308C28.2421 33.897 29.2246 33.9555 30.3106 34.5825C32.4631 35.8245 34.2106 38.838 34.1986 41.3175C34.1986 42.546 33.7606 43.41 33.0601 43.818L48.5656 34.8075C49.2661 34.3995 49.7011 33.5355 49.7041 32.307C49.7116 29.8275 47.9671 26.814 45.8161 25.572Z" fill="white" stroke="#333333" stroke-linecap="round" stroke-linejoin="round"/>
<path d="M30.3105 34.5825C32.4615 35.8245 34.2105 38.838 34.1985 41.3175C34.1865 43.797 32.4375 44.79 30.285 43.548C28.1325 42.306 26.385 39.285 26.397 36.813C26.409 34.341 28.152 33.3375 30.3105 34.5825Z" fill="#D9D9D9" stroke="#333333" stroke-linecap="round" stroke-linejoin="round"/>
<path d="M24.414 12.915C23.328 12.288 22.347 12.2295 21.6375 12.6405L6.13196 21.651C6.83996 21.24 7.82246 21.2985 8.90846 21.9255C11.061 23.1675 12.8085 26.181 12.798 28.6605C12.798 29.889 12.3585 30.7605 11.658 31.161L27.1635 22.1505C27.864 21.7425 28.299 20.8785 28.302 19.65C28.3095 17.1705 26.5665 14.157 24.414 12.915Z" fill="white" stroke="#333333" stroke-linecap="round" stroke-linejoin="round"/>
<path d="M8.90856 21.9255C11.0611 23.1675 12.8086 26.181 12.7966 28.6605C12.7846 31.14 11.0356 32.133 8.88306 30.891C6.73056 29.649 4.98306 26.628 4.99506 24.156C5.00706 21.684 6.75006 20.6805 8.90856 21.9255Z" fill="#D9D9D9" stroke="#333333" stroke-linecap="round" stroke-linejoin="round"/>
</svg>
