<?xml version="1.0" encoding="UTF-8"?>
<svg width="538px" height="120px" viewBox="0 0 538 120" version="1.1" xmlns="http://www.w3.org/2000/svg" xmlns:xlink="http://www.w3.org/1999/xlink">
    <title>首页</title>
    <g id="页面-1" stroke="none" stroke-width="1" fill="none" fill-rule="evenodd">
        <g id="首页" transform="translate(-690.000000, -1044.000000)">
            <g id="编组-10" transform="translate(690.000000, 1044.000000)">
                <rect id="矩形备份" stroke="#333333" stroke-width="2" fill="#FFF0E8" x="16" y="29" width="510" height="76" rx="38"></rect>
                <rect id="矩形" stroke="#333333" stroke-width="2" fill="#50D38E" x="12" y="23" width="510" height="76" rx="38"></rect>
                <path d="M194.516,58.08 L194.516,53.976 L217.484,53.976 L217.484,58.08 L221.696,58.08 L221.696,50.196 L216.44,50.196 C217.448,48.9 218.528,47.496 219.5,46.092 L215.036,44.76 C214.316,46.38 213.092,48.504 211.94,50.196 L207.26,50.196 L209.384,49.368 C208.916,47.928 207.728,45.732 206.54,44.184 L202.76,45.588 C203.66,46.992 204.596,48.756 205.1,50.196 L199.052,50.196 L200.42,49.548 C199.808,48.18 198.368,46.236 197.108,44.832 L193.472,46.452 C194.336,47.568 195.344,48.972 195.992,50.196 L190.484,50.196 L190.484,58.08 L194.516,58.08 Z M205.892,77.268 C207.584,76.656 208.124,75.576 208.124,73.344 L208.124,68.736 L222.092,68.736 L222.092,64.776 L208.124,64.776 L208.124,64.092 C211.184,62.616 214.1,60.672 216.296,58.656 L213.56,56.532 L212.696,56.748 L196.46,56.748 L196.46,60.456 L207.8,60.456 C206.504,61.248 205.1,62.004 203.732,62.544 L203.732,64.776 L190.016,64.776 L190.016,68.736 L203.732,68.736 L203.732,73.236 C203.732,73.704 203.552,73.884 202.796,73.884 C202.076,73.92 199.412,73.92 197.108,73.812 C197.756,74.928 198.584,76.728 198.872,77.952 C201.932,77.952 204.2,77.916 205.892,77.268 Z M253.88,55.992 L253.88,45.948 L230.48,45.948 L230.48,55.992 L253.88,55.992 Z M249.092,52.356 L234.98,52.356 L234.98,49.584 L249.092,49.584 L249.092,52.356 Z M233.432,71.472 L233.432,62.22 L250.82,62.22 L250.82,71.004 L255.5,71.004 L255.5,58.296 L228.968,58.296 L228.968,71.472 L233.432,71.472 Z M228.968,78.456 C241.964,75.504 244.124,70.932 244.124,67.116 L244.124,63.912 L239.444,63.912 L239.444,67.008 L239.44212,67.1777144 C239.387673,69.5734624 238.076837,72.783907 226.016,74.964 C227.096,75.864 228.428,77.52 228.968,78.456 Z M255.968,78.384 L258.164,74.748 C255.14,73.38 249.236,71.328 245.384,70.212 L243.296,73.38 C247.4,74.712 253.16,76.98 255.968,78.384 Z M292.328,78.132 C292.94,76.98 294.272,75.252 295.244,74.424 C292.292,73.092 289.88,71.148 288.044,68.628 C290.204,64.956 291.644,60.42 292.544,54.948 L294.848,54.948 L294.848,50.916 L283.868,50.916 C284.408,49.08 284.876,47.136 285.236,45.192 L280.844,44.508 C279.872,50.664 277.892,56.424 274.688,59.916 C274.976,60.096 275.336,60.348 275.696,60.636 L271.736,60.636 L271.736,55.092 L277.64,55.092 L277.64,51.096 L271.736,51.096 L271.736,44.508 L267.452,44.508 L267.452,51.096 L261.188,51.096 L261.188,55.092 L267.452,55.092 L267.452,60.636 L262.664,60.636 L262.664,76.548 L266.624,76.548 L266.624,74.424 L274.94,74.424 C275.696,75.36 276.848,77.124 277.208,78.096 C280.484,76.548 283.148,74.676 285.308,72.336 C287.144,74.748 289.448,76.692 292.328,78.132 Z M285.524,64.524 C284.192,61.68 283.22,58.44 282.572,54.948 L288.26,54.948 C287.72,58.656 286.82,61.824 285.524,64.524 Z M276.452,73.56 L276.452,61.212 C277.172,61.788 277.856,62.4 278.252,62.76 C278.792,62.112 279.332,61.32 279.836,60.492 C280.664,63.48 281.672,66.216 282.932,68.628 C281.24,70.644 279.116,72.3 276.452,73.56 Z M272.384,70.428 L266.624,70.428 L266.624,64.632 L272.384,64.632 L272.384,70.428 Z M314.144,77.628 C315.548,77.016 316.052,76.152 316.052,74.028 L316.052,72.912 L322.532,72.912 L322.532,74.388 L326.888,74.388 L326.888,68.124 L330.632,68.124 L330.632,64.848 L326.888,64.848 L326.888,60.42 L316.052,60.42 L316.052,58.836 L326.276,58.836 L326.276,51.708 L316.052,51.708 L316.052,50.232 L329.804,50.232 L329.804,46.848 L316.052,46.848 L316.052,44.508 L311.696,44.508 L311.696,46.848 L298.268,46.848 L298.268,50.232 L311.696,50.232 L311.696,51.708 L301.94,51.708 L301.94,58.836 L311.696,58.836 L311.696,60.42 L301.04,60.42 L301.04,63.3 L311.696,63.3 L311.696,64.848 L297.44,64.848 L297.44,68.124 L311.696,68.124 L311.696,69.816 L300.752,69.816 L300.752,72.912 L311.696,72.912 L311.696,74.028 C311.696,74.676 311.48,74.892 310.796,74.928 L310.147545,74.9270282 C309.23102,74.9239184 307.684571,74.9108571 306.368,74.856 C306.908,75.756 307.556,77.232 307.772,78.24 C310.832,78.24 312.776,78.168 314.144,77.628 Z M311.696,56.136 L306.044,56.136 L306.044,54.408 L311.696,54.408 L311.696,56.136 Z M321.884,56.136 L316.052,56.136 L316.052,54.408 L321.884,54.408 L321.884,56.136 Z M322.532,64.848 L316.052,64.848 L316.052,63.3 L322.532,63.3 L322.532,64.848 Z M322.532,69.816 L316.052,69.816 L316.052,68.124 L322.532,68.124 L322.532,69.816 Z" id="学员故事" fill="#FFFFFF" fill-rule="nonzero"></path>
                <g id="编组-10备份" transform="translate(88.000000, 8.000000)" stroke="#333333" stroke-width="2">
                    <g id="编组-9" transform="translate(0.000000, 22.000000)" fill="#D8D8D8">
                        <circle id="椭圆形" cx="8" cy="8" r="8"></circle>
                    </g>
                    <rect id="矩形" fill="#FFBF76" x="4" y="0" width="8" height="34" rx="4"></rect>
                </g>
                <g id="编组-10备份-2" transform="translate(436.000000, 8.000000)" stroke="#333333" stroke-width="2">
                    <g id="编组-9" transform="translate(0.000000, 22.000000)" fill="#D8D8D8">
                        <circle id="椭圆形" cx="8" cy="8" r="8"></circle>
                    </g>
                    <rect id="矩形" fill="#FFBF76" x="4" y="0" width="8" height="34" rx="4"></rect>
                </g>
            </g>
        </g>
    </g>
</svg>