<svg width="60" height="60" viewBox="0 0 60 60" fill="none" xmlns="http://www.w3.org/2000/svg">
<path d="M35.781 59.1435L32.9625 57.504L32.892 33.0525L35.712 34.6905L35.781 59.1435Z" fill="#D9D9D9" stroke="#333333" stroke-linecap="round" stroke-linejoin="round"/>
<path d="M35.712 34.6905L32.892 33.0525L35.727 31.416L38.547 33.054L35.712 34.6905Z" fill="#D9D9D9" stroke="#333333" stroke-linecap="round" stroke-linejoin="round"/>
<path d="M38.547 33.054L38.616 57.507L35.781 59.1435L35.712 34.6905L38.547 33.054Z" fill="#D9D9D9" stroke="#333333" stroke-linecap="round" stroke-linejoin="round"/>
<path d="M4.57796 41.016L1.75796 39.378L1.68896 14.925L4.50896 16.563L4.57796 41.016Z" fill="#D9D9D9" stroke="#333333" stroke-linecap="round" stroke-linejoin="round"/>
<path d="M4.50896 16.563L1.68896 14.925L4.52396 13.2885L7.34247 14.9265L4.50896 16.563Z" fill="#D9D9D9" stroke="#333333" stroke-linecap="round" stroke-linejoin="round"/>
<path d="M7.34247 14.9265L7.41297 39.3795L4.57797 41.016L4.50897 16.563L7.34247 14.9265Z" fill="#D9D9D9" stroke="#333333" stroke-linecap="round" stroke-linejoin="round"/>
<path d="M55.476 47.7285L52.6575 46.089L52.587 21.6375L55.407 23.2755L55.476 47.7285Z" fill="#D9D9D9" stroke="#333333" stroke-linecap="round" stroke-linejoin="round"/>
<path d="M55.407 23.2755L52.587 21.6375L55.422 20.001L58.2405 21.639L55.407 23.2755Z" fill="#D9D9D9" stroke="#333333" stroke-linecap="round" stroke-linejoin="round"/>
<path d="M58.2405 21.639L58.311 46.092L55.476 47.7285L55.407 23.2755L58.2405 21.639Z" fill="#D9D9D9" stroke="#333333" stroke-linecap="round" stroke-linejoin="round"/>
<path d="M58.311 20.5185L58.302 23.7795L35.745 36.888L35.754 33.627L58.311 20.5185Z" fill="#14AF64" stroke="#333333" stroke-linecap="round" stroke-linejoin="round"/>
<path d="M35.754 33.627L35.745 36.888L1.68896 17.226L1.69796 13.965L35.754 33.627Z" fill="#14AF64" stroke="#333333" stroke-linecap="round" stroke-linejoin="round"/>
<path d="M58.311 20.5185L35.754 33.627L1.698 13.965L24.255 0.856506L58.311 20.5185Z" fill="white" stroke="#333333" stroke-linecap="round" stroke-linejoin="round"/>
</svg>
