<svg width="40" height="40" viewBox="0 0 40 40" fill="none" xmlns="http://www.w3.org/2000/svg">
<circle opacity="0.1" cx="20" cy="20" r="20" fill="black"/>
<path d="M28.5262 27.2622L29.1299 29.2765L26.9284 28.0658C26.1258 28.2679 25.3196 28.4703 24.5205 28.4703C20.7023 28.4703 17.6946 25.8488 17.6946 22.6204C17.6946 19.3978 20.7023 16.7707 24.5205 16.7707C28.1268 16.7707 31.3373 19.3977 31.3373 22.6204C31.3373 24.4383 30.1374 26.048 28.5262 27.2622H28.5262ZM22.3074 19.9989C21.9078 19.9989 21.5049 20.4035 21.5049 20.8052C21.5049 21.2126 21.908 21.6117 22.3074 21.6117C22.9146 21.6117 23.3122 21.2126 23.3122 20.8052C23.312 20.4034 22.9144 19.9989 22.3074 19.9989ZM26.7219 19.9989C26.3249 19.9989 25.9247 20.4035 25.9247 20.8052C25.9247 21.2126 26.3249 21.6117 26.7219 21.6117C27.3236 21.6117 27.7266 21.2126 27.7266 20.8052C27.7263 20.4034 27.3234 19.9989 26.7219 19.9989ZM17.1894 22.717C17.1894 23.3027 17.2803 23.8674 17.4372 24.4063C17.188 24.4268 16.938 24.4376 16.6879 24.4384C15.6861 24.4384 14.8808 24.2334 13.8768 24.0336L11.0712 25.4468L11.874 23.0218C9.86487 21.6115 8.6626 19.7937 8.6626 17.58C8.6626 13.7445 12.2764 10.7241 16.6879 10.7241C20.6341 10.7241 24.091 13.1374 24.7856 16.3851C24.5302 16.3564 24.2728 16.3375 24.0128 16.3375C20.2006 16.3375 17.1894 19.1955 17.1894 22.717ZM14.0807 14.1519C13.4793 14.1519 12.8722 14.5513 12.8722 15.1579C12.8722 15.7621 13.4793 16.167 14.0807 16.167C14.6823 16.167 15.0826 15.7621 15.0826 15.1579C15.0825 14.551 14.6823 14.1519 14.0807 14.1519ZM19.6974 14.1519C19.0959 14.1519 18.4923 14.5513 18.4923 15.1579C18.4923 15.7621 19.096 16.167 19.6974 16.167C20.3018 16.167 20.7022 15.7621 20.7022 15.1579C20.7023 14.551 20.3019 14.1519 19.6974 14.1519Z" fill="#606C66"/>
</svg>
