<?xml version="1.0" encoding="UTF-8"?>
<svg width="1200px" height="688px" viewBox="0 0 1200 688" version="1.1" xmlns="http://www.w3.org/2000/svg" xmlns:xlink="http://www.w3.org/1999/xlink">
    <title>首页</title>
    <defs>
        <polygon id="path-1" points="0 0 1196 0 1196 660 0 660"></polygon>
    </defs>
    <g id="页面-1" stroke="none" stroke-width="1" fill="none" fill-rule="evenodd">
        <g id="首页" transform="translate(-360.000000, -1639.000000)">
            <g id="编组-18" transform="translate(360.000000, 1639.000000)">
                <g id="编组-17">
                    <polygon id="Stroke-1" stroke="#292929" stroke-width="2.56" fill="#FFFFFF" stroke-linecap="round" stroke-linejoin="round" points="160 31 339 31 339 11 160 11"></polygon>
                    <g id="编组-16" transform="translate(0.000000, 23.000000)">
                        <rect id="矩形" stroke="#333333" stroke-width="2" fill="#FFFFFF" x="1" y="1" width="1198" height="662"></rect>
                        <g id="编组" opacity="0.2" transform="translate(2.000000, 2.000000)">
                            <mask id="mask-2" fill="white">
                                <use xlink:href="#path-1"></use>
                            </mask>
                            <g id="Clip-2"></g>
                            <path d="M-6,1192 L1198,1192 L1198,-12 L-6,-12 L-6,1192 Z M-6,674.5 L1198,674.5 M-6,662.5 L1198,662.5 M-6,650.5 L1198,650.5 M-6,638.5 L1198,638.5 M-6,626.5 L1198,626.5 M-6,614.5 L1198,614.5 M-6,602.5 L1198,602.5 M-6,590.5 L1198,590.5 M-6,578.5 L1198,578.5 M-6,566.5 L1198,566.5 M-6,554.5 L1198,554.5 M-6,542.5 L1198,542.5 M-6,530.5 L1198,530.5 M-6,518.5 L1198,518.5 M-6,506.5 L1198,506.5 M-6,494.5 L1198,494.5 M-6,482.5 L1198,482.5 M-6,470.5 L1198,470.5 M-6,457.5 L1198,457.5 M-6,445.5 L1198,445.5 M-6,433.5 L1198,433.5 M-6,421.5 L1198,421.5 M-6,409.5 L1198,409.5 M-6,397.5 L1198,397.5 M-6,385.5 L1198,385.5 M-6,373.5 L1198,373.5 M-6,361.5 L1198,361.5 M-6,349.5 L1198,349.5 M-6,337.5 L1198,337.5 M-6,325.5 L1198,325.5 M-6,313.5 L1198,313.5 M-6,301.5 L1198,301.5 M-6,289.5 L1198,289.5 M-6,277.5 L1198,277.5 M-6,265.5 L1198,265.5 M-6,253.5 L1198,253.5 M-6,241.5 L1198,241.5 M-6,229.5 L1198,229.5 M-6,217.5 L1198,217.5 M-6,205.5 L1198,205.5 M-6,193.5 L1198,193.5 M-6,181.5 L1198,181.5 M-6,168.5 L1198,168.5 M-6,156.5 L1198,156.5 M-6,144.5 L1198,144.5 M-6,132.5 L1198,132.5 M-6,120.5 L1198,120.5 M-6,108.5 L1198,108.5 M-6,96.5 L1198,96.5 M-6,84.5 L1198,84.5 M-6,72.5 L1198,72.5 M-6,60.5 L1198,60.5 M-6,48.5 L1198,48.5 M-6,36.5 L1198,36.5 M-6,24.5 L1198,24.5 M-6,12.5 L1198,12.5 M-6,0.5 L1198,0.5 M1185.5,-12 L1185.5,1192 M1173.5,-12 L1173.5,1192 M1161.5,-12 L1161.5,1192 M1149.5,-12 L1149.5,1192 M1137.5,-12 L1137.5,1192 M1125.5,-12 L1125.5,1192 M1113.5,-12 L1113.5,1192 M1101.5,-12 L1101.5,1192 M1089.5,-12 L1089.5,1192 M1077.5,-12 L1077.5,1192 M1065.5,-12 L1065.5,1192 M1053.5,-12 L1053.5,1192 M1041.5,-12 L1041.5,1192 M1029.5,-12 L1029.5,1192 M1017.5,-12 L1017.5,1192 M1005.5,-12 L1005.5,1192 M993.5,-12 L993.5,1192 M981.5,-12 L981.5,1192 M969.5,-12 L969.5,1192 M957.5,-12 L957.5,1192 M945.5,-12 L945.5,1192 M932.5,-12 L932.5,1192 M920.5,-12 L920.5,1192 M908.5,-12 L908.5,1192 M896.5,-12 L896.5,1192 M884.5,-12 L884.5,1192 M872.5,-12 L872.5,1192 M860.5,-12 L860.5,1192 M848.5,-12 L848.5,1192 M836.5,-12 L836.5,1192 M824.5,-12 L824.5,1192 M812.5,-12 L812.5,1192 M800.5,-12 L800.5,1192 M788.5,-12 L788.5,1192 M776.5,-12 L776.5,1192 M764.5,-12 L764.5,1192 M752.5,-12 L752.5,1192 M740.5,-12 L740.5,1192 M728.5,-12 L728.5,1192 M716.5,-12 L716.5,1192 M704.5,-12 L704.5,1192 M692.5,-12 L692.5,1192 M680.5,-12 L680.5,1192 M668.5,-12 L668.5,1192 M656.5,-12 L656.5,1192 M644.5,-12 L644.5,1192 M632.5,-12 L632.5,1192 M619.5,-12 L619.5,1192 M607.5,-12 L607.5,1192 M595.5,-12 L595.5,1192 M583.5,-12 L583.5,1192 M571.5,-12 L571.5,1192 M559.5,-12 L559.5,1192 M547.5,-12 L547.5,1192 M535.5,-12 L535.5,1192 M523.5,-12 L523.5,1192 M511.5,-12 L511.5,1192 M499.5,-12 L499.5,1192 M487.5,-12 L487.5,1192 M475.5,-12 L475.5,1192 M463.5,-12 L463.5,1192 M451.5,-12 L451.5,1192 M439.5,-12 L439.5,1192 M427.5,-12 L427.5,1192 M415.5,-12 L415.5,1192 M403.5,-12 L403.5,1192 M391.5,-12 L391.5,1192 M379.5,-12 L379.5,1192 M367.5,-12 L367.5,1192 M355.5,-12 L355.5,1192 M343.5,-12 L343.5,1192 M331.5,-12 L331.5,1192 M318.5,-12 L318.5,1192 M306.5,-12 L306.5,1192 M294.5,-12 L294.5,1192 M282.5,-12 L282.5,1192 M270.5,-12 L270.5,1192 M258.5,-12 L258.5,1192 M246.5,-12 L246.5,1192 M234.5,-12 L234.5,1192 M222.5,-12 L222.5,1192 M210.5,-12 L210.5,1192 M198.5,-12 L198.5,1192 M186.5,-12 L186.5,1192 M174.5,-12 L174.5,1192 M162.5,-12 L162.5,1192 M150.5,-12 L150.5,1192 M138.5,-12 L138.5,1192 M126.5,-12 L126.5,1192 M114.5,-12 L114.5,1192 M102.5,-12 L102.5,1192 M90.5,-12 L90.5,1192 M78.5,-12 L78.5,1192 M66.5,-12 L66.5,1192 M54.5,-12 L54.5,1192 M42.5,-12 L42.5,1192 M30.5,-12 L30.5,1192 M18.5,-12 L18.5,1192 M5.5,-12 L5.5,1192" id="形状结合" stroke="#D1D1D1" mask="url(#mask-2)"></path>
                        </g>
                    </g>
                    <path d="M328,1 L328,76.1770086 L47.5916497,76.1770086 L32,90.7017445 L32,1 L328,1 Z" id="Fill-3" stroke="#292929" stroke-width="2" fill="#50D38E"></path>
                    <path d="M114.516,36.08 L114.516,31.976 L137.484,31.976 L137.484,36.08 L141.696,36.08 L141.696,28.196 L136.44,28.196 C137.448,26.9 138.528,25.496 139.5,24.092 L135.036,22.76 C134.316,24.38 133.092,26.504 131.94,28.196 L127.26,28.196 L129.384,27.368 C128.916,25.928 127.728,23.732 126.54,22.184 L122.76,23.588 C123.66,24.992 124.596,26.756 125.1,28.196 L119.052,28.196 L120.42,27.548 C119.808,26.18 118.368,24.236 117.108,22.832 L113.472,24.452 C114.336,25.568 115.344,26.972 115.992,28.196 L110.484,28.196 L110.484,36.08 L114.516,36.08 Z M125.892,55.268 C127.584,54.656 128.124,53.576 128.124,51.344 L128.124,46.736 L142.092,46.736 L142.092,42.776 L128.124,42.776 L128.124,42.092 C131.184,40.616 134.1,38.672 136.296,36.656 L133.56,34.532 L132.696,34.748 L116.46,34.748 L116.46,38.456 L127.8,38.456 C126.504,39.248 125.1,40.004 123.732,40.544 L123.732,42.776 L110.016,42.776 L110.016,46.736 L123.732,46.736 L123.732,51.236 C123.732,51.704 123.552,51.884 122.796,51.884 C122.076,51.92 119.412,51.92 117.108,51.812 C117.756,52.928 118.584,54.728 118.872,55.952 C121.932,55.952 124.2,55.916 125.892,55.268 Z M173.88,33.992 L173.88,23.948 L150.48,23.948 L150.48,33.992 L173.88,33.992 Z M169.092,30.356 L154.98,30.356 L154.98,27.584 L169.092,27.584 L169.092,30.356 Z M153.432,49.472 L153.432,40.22 L170.82,40.22 L170.82,49.004 L175.5,49.004 L175.5,36.296 L148.968,36.296 L148.968,49.472 L153.432,49.472 Z M148.968,56.456 C161.964,53.504 164.124,48.932 164.124,45.116 L164.124,41.912 L159.444,41.912 L159.444,45.008 L159.44212,45.1777144 C159.387673,47.5734624 158.076837,50.783907 146.016,52.964 C147.096,53.864 148.428,55.52 148.968,56.456 Z M175.968,56.384 L178.164,52.748 C175.14,51.38 169.236,49.328 165.384,48.212 L163.296,51.38 C167.4,52.712 173.16,54.98 175.968,56.384 Z M189.792,56.096 L189.792,31.436 C191.124,29.024 192.312,26.468 193.248,23.948 L189.072,22.652 C187.272,27.764 184.14,32.876 180.864,36.116 C181.62,37.196 182.844,39.644 183.24,40.688 C183.96,39.896 184.716,38.996 185.472,38.096 L185.472,56.096 L189.792,56.096 Z M204.66,56.132 L204.66,48.14 L214.452,48.14 L214.452,44.18 L204.66,44.18 L204.66,40.112 L213.984,40.112 L213.984,36.224 L204.66,36.224 L204.66,32.444 L214.884,32.444 L214.884,28.376 L200.916,28.376 C201.6,26.9 202.176,25.424 202.68,23.912 L198.54,22.868 C196.92,28.016 194.076,33.2 190.908,36.44 C191.808,37.124 193.5,38.636 194.184,39.428 C195.804,37.556 197.46,35.108 198.9,32.444 L200.268,32.444 L200.268,56.132 L204.66,56.132 Z M250.128,54.476 L250.128,50.192 L240.804,50.192 L240.804,43.424 L244.08,45.08 C245.952,41.624 248.22,36.548 249.804,32.012 L245.952,30.176 C244.764,34.28 242.604,39.392 240.804,42.812 L240.804,22.976 L236.376,22.976 L236.376,50.192 L231.66,50.192 L231.66,22.976 L227.232,22.976 L227.232,50.192 L217.944,50.192 L217.944,54.476 L250.128,54.476 Z M222.696,44.864 L226.98,43.352 C226.08,39.932 223.992,34.28 222.3,30.068 L218.376,31.22 C220.032,35.648 221.904,41.408 222.696,44.864 Z" id="学员作业" fill="#FFFFFF" fill-rule="nonzero"></path>
                </g>
                <polyline id="路径-13" stroke="#000000" stroke-width="2" points="1156 39 1186 39 1186 69"></polyline>
            </g>
        </g>
    </g>
</svg>