<?xml version="1.0" encoding="UTF-8"?>
<svg width="1200px" height="688px" viewBox="0 0 1200 688" version="1.1" xmlns="http://www.w3.org/2000/svg" xmlns:xlink="http://www.w3.org/1999/xlink">
    <title>首页</title>
    <defs>
        <polygon id="path-1" points="0 0 1196 0 1196 660 0 660"></polygon>
    </defs>
    <g id="页面-1" stroke="none" stroke-width="1" fill="none" fill-rule="evenodd">
        <g id="首页" transform="translate(-360.000000, -1639.000000)">
            <g id="编组-18" transform="translate(360.000000, 1639.000000)">
                <g id="编组-17">
                    <polygon id="Stroke-1" stroke="#292929" stroke-width="2.56" fill="#FFFFFF" stroke-linecap="round" stroke-linejoin="round" points="160 31 339 31 339 11 160 11"></polygon>
                    <g id="编组-16" transform="translate(0.000000, 23.000000)">
                        <rect id="矩形" stroke="#333333" stroke-width="2" fill="#FFFFFF" x="1" y="1" width="1198" height="662"></rect>
                        <g id="编组" opacity="0.2" transform="translate(2.000000, 2.000000)">
                            <mask id="mask-2" fill="white">
                                <use xlink:href="#path-1"></use>
                            </mask>
                            <g id="Clip-2"></g>
                            <polygon id="Stroke-1" stroke="#D1D1D1" mask="url(#mask-2)" points="-6 1192 1198 1192 1198 -12 -6 -12"></polygon>
                            <line x1="-6" y1="662.5" x2="1198" y2="662.5" id="Stroke-4" stroke="#D1D1D1" mask="url(#mask-2)"></line>
                            <line x1="-6" y1="650.5" x2="1198" y2="650.5" id="Stroke-5" stroke="#D1D1D1" mask="url(#mask-2)"></line>
                            <line x1="-6" y1="638.5" x2="1198" y2="638.5" id="Stroke-6" stroke="#D1D1D1" mask="url(#mask-2)"></line>
                            <line x1="-6" y1="626.5" x2="1198" y2="626.5" id="Stroke-7" stroke="#D1D1D1" mask="url(#mask-2)"></line>
                            <line x1="-6" y1="614.5" x2="1198" y2="614.5" id="Stroke-8" stroke="#D1D1D1" mask="url(#mask-2)"></line>
                            <line x1="-6" y1="602.5" x2="1198" y2="602.5" id="Stroke-9" stroke="#D1D1D1" mask="url(#mask-2)"></line>
                            <line x1="-6" y1="590.5" x2="1198" y2="590.5" id="Stroke-10" stroke="#D1D1D1" mask="url(#mask-2)"></line>
                            <line x1="-6" y1="578.5" x2="1198" y2="578.5" id="Stroke-11" stroke="#D1D1D1" mask="url(#mask-2)"></line>
                            <line x1="-6" y1="566.5" x2="1198" y2="566.5" id="Stroke-12" stroke="#D1D1D1" mask="url(#mask-2)"></line>
                            <line x1="-6" y1="554.5" x2="1198" y2="554.5" id="Stroke-13" stroke="#D1D1D1" mask="url(#mask-2)"></line>
                            <line x1="-6" y1="542.5" x2="1198" y2="542.5" id="Stroke-14" stroke="#D1D1D1" mask="url(#mask-2)"></line>
                            <line x1="-6" y1="530.5" x2="1198" y2="530.5" id="Stroke-15" stroke="#D1D1D1" mask="url(#mask-2)"></line>
                            <line x1="-6" y1="518.5" x2="1198" y2="518.5" id="Stroke-16" stroke="#D1D1D1" mask="url(#mask-2)"></line>
                            <line x1="-6" y1="506.5" x2="1198" y2="506.5" id="Stroke-17" stroke="#D1D1D1" mask="url(#mask-2)"></line>
                            <line x1="-6" y1="494.5" x2="1198" y2="494.5" id="Stroke-18" stroke="#D1D1D1" mask="url(#mask-2)"></line>
                            <line x1="-6" y1="482.5" x2="1198" y2="482.5" id="Stroke-19" stroke="#D1D1D1" mask="url(#mask-2)"></line>
                            <line x1="-6" y1="470.5" x2="1198" y2="470.5" id="Stroke-20" stroke="#D1D1D1" mask="url(#mask-2)"></line>
                            <line x1="-6" y1="457.5" x2="1198" y2="457.5" id="Stroke-21" stroke="#D1D1D1" mask="url(#mask-2)"></line>
                            <line x1="-6" y1="445.5" x2="1198" y2="445.5" id="Stroke-22" stroke="#D1D1D1" mask="url(#mask-2)"></line>
                            <line x1="-6" y1="433.5" x2="1198" y2="433.5" id="Stroke-23" stroke="#D1D1D1" mask="url(#mask-2)"></line>
                            <line x1="-6" y1="421.5" x2="1198" y2="421.5" id="Stroke-24" stroke="#D1D1D1" mask="url(#mask-2)"></line>
                            <line x1="-6" y1="409.5" x2="1198" y2="409.5" id="Stroke-25" stroke="#D1D1D1" mask="url(#mask-2)"></line>
                            <line x1="-6" y1="397.5" x2="1198" y2="397.5" id="Stroke-26" stroke="#D1D1D1" mask="url(#mask-2)"></line>
                            <line x1="-6" y1="385.5" x2="1198" y2="385.5" id="Stroke-27" stroke="#D1D1D1" mask="url(#mask-2)"></line>
                            <line x1="-6" y1="373.5" x2="1198" y2="373.5" id="Stroke-28" stroke="#D1D1D1" mask="url(#mask-2)"></line>
                            <line x1="-6" y1="361.5" x2="1198" y2="361.5" id="Stroke-29" stroke="#D1D1D1" mask="url(#mask-2)"></line>
                            <line x1="-6" y1="349.5" x2="1198" y2="349.5" id="Stroke-30" stroke="#D1D1D1" mask="url(#mask-2)"></line>
                            <line x1="-6" y1="337.5" x2="1198" y2="337.5" id="Stroke-31" stroke="#D1D1D1" mask="url(#mask-2)"></line>
                            <line x1="-6" y1="325.5" x2="1198" y2="325.5" id="Stroke-32" stroke="#D1D1D1" mask="url(#mask-2)"></line>
                            <line x1="-6" y1="313.5" x2="1198" y2="313.5" id="Stroke-33" stroke="#D1D1D1" mask="url(#mask-2)"></line>
                            <line x1="-6" y1="301.5" x2="1198" y2="301.5" id="Stroke-34" stroke="#D1D1D1" mask="url(#mask-2)"></line>
                            <line x1="-6" y1="289.5" x2="1198" y2="289.5" id="Stroke-35" stroke="#D1D1D1" mask="url(#mask-2)"></line>
                            <line x1="-6" y1="277.5" x2="1198" y2="277.5" id="Stroke-36" stroke="#D1D1D1" mask="url(#mask-2)"></line>
                            <line x1="-6" y1="265.5" x2="1198" y2="265.5" id="Stroke-37" stroke="#D1D1D1" mask="url(#mask-2)"></line>
                            <line x1="-6" y1="253.5" x2="1198" y2="253.5" id="Stroke-38" stroke="#D1D1D1" mask="url(#mask-2)"></line>
                            <line x1="-6" y1="241.5" x2="1198" y2="241.5" id="Stroke-39" stroke="#D1D1D1" mask="url(#mask-2)"></line>
                            <line x1="-6" y1="229.5" x2="1198" y2="229.5" id="Stroke-40" stroke="#D1D1D1" mask="url(#mask-2)"></line>
                            <line x1="-6" y1="217.5" x2="1198" y2="217.5" id="Stroke-41" stroke="#D1D1D1" mask="url(#mask-2)"></line>
                            <line x1="-6" y1="205.5" x2="1198" y2="205.5" id="Stroke-42" stroke="#D1D1D1" mask="url(#mask-2)"></line>
                            <line x1="-6" y1="193.5" x2="1198" y2="193.5" id="Stroke-43" stroke="#D1D1D1" mask="url(#mask-2)"></line>
                            <line x1="-6" y1="181.5" x2="1198" y2="181.5" id="Stroke-44" stroke="#D1D1D1" mask="url(#mask-2)"></line>
                            <line x1="-6" y1="168.5" x2="1198" y2="168.5" id="Stroke-45" stroke="#D1D1D1" mask="url(#mask-2)"></line>
                            <line x1="-6" y1="156.5" x2="1198" y2="156.5" id="Stroke-46" stroke="#D1D1D1" mask="url(#mask-2)"></line>
                            <line x1="-6" y1="144.5" x2="1198" y2="144.5" id="Stroke-47" stroke="#D1D1D1" mask="url(#mask-2)"></line>
                            <line x1="-6" y1="132.5" x2="1198" y2="132.5" id="Stroke-48" stroke="#D1D1D1" mask="url(#mask-2)"></line>
                            <line x1="-6" y1="120.5" x2="1198" y2="120.5" id="Stroke-49" stroke="#D1D1D1" mask="url(#mask-2)"></line>
                            <line x1="-6" y1="108.5" x2="1198" y2="108.5" id="Stroke-50" stroke="#D1D1D1" mask="url(#mask-2)"></line>
                            <line x1="-6" y1="96.5" x2="1198" y2="96.5" id="Stroke-51" stroke="#D1D1D1" mask="url(#mask-2)"></line>
                            <line x1="-6" y1="84.5" x2="1198" y2="84.5" id="Stroke-52" stroke="#D1D1D1" mask="url(#mask-2)"></line>
                            <line x1="-6" y1="72.5" x2="1198" y2="72.5" id="Stroke-53" stroke="#D1D1D1" mask="url(#mask-2)"></line>
                            <line x1="-6" y1="60.5" x2="1198" y2="60.5" id="Stroke-54" stroke="#D1D1D1" mask="url(#mask-2)"></line>
                            <line x1="-6" y1="48.5" x2="1198" y2="48.5" id="Stroke-55" stroke="#D1D1D1" mask="url(#mask-2)"></line>
                            <line x1="-6" y1="36.5" x2="1198" y2="36.5" id="Stroke-56" stroke="#D1D1D1" mask="url(#mask-2)"></line>
                            <line x1="-6" y1="24.5" x2="1198" y2="24.5" id="Stroke-57" stroke="#D1D1D1" mask="url(#mask-2)"></line>
                            <line x1="-6" y1="12.5" x2="1198" y2="12.5" id="Stroke-58" stroke="#D1D1D1" mask="url(#mask-2)"></line>
                            <line x1="-6" y1="0.5" x2="1198" y2="0.5" id="Stroke-59" stroke="#D1D1D1" mask="url(#mask-2)"></line>
                            <line x1="1185.5" y1="-12" x2="1185.5" y2="1192" id="Stroke-60" stroke="#D1D1D1" mask="url(#mask-2)"></line>
                            <line x1="1173.5" y1="-12" x2="1173.5" y2="1192" id="Stroke-61" stroke="#D1D1D1" mask="url(#mask-2)"></line>
                            <line x1="1161.5" y1="-12" x2="1161.5" y2="1192" id="Stroke-62" stroke="#D1D1D1" mask="url(#mask-2)"></line>
                            <line x1="1149.5" y1="-12" x2="1149.5" y2="1192" id="Stroke-63" stroke="#D1D1D1" mask="url(#mask-2)"></line>
                            <line x1="1137.5" y1="-12" x2="1137.5" y2="1192" id="Stroke-64" stroke="#D1D1D1" mask="url(#mask-2)"></line>
                            <line x1="1125.5" y1="-12" x2="1125.5" y2="1192" id="Stroke-65" stroke="#D1D1D1" mask="url(#mask-2)"></line>
                            <line x1="1113.5" y1="-12" x2="1113.5" y2="1192" id="Stroke-66" stroke="#D1D1D1" mask="url(#mask-2)"></line>
                            <line x1="1101.5" y1="-12" x2="1101.5" y2="1192" id="Stroke-67" stroke="#D1D1D1" mask="url(#mask-2)"></line>
                            <line x1="1089.5" y1="-12" x2="1089.5" y2="1192" id="Stroke-68" stroke="#D1D1D1" mask="url(#mask-2)"></line>
                            <line x1="1077.5" y1="-12" x2="1077.5" y2="1192" id="Stroke-69" stroke="#D1D1D1" mask="url(#mask-2)"></line>
                            <line x1="1065.5" y1="-12" x2="1065.5" y2="1192" id="Stroke-70" stroke="#D1D1D1" mask="url(#mask-2)"></line>
                            <line x1="1053.5" y1="-12" x2="1053.5" y2="1192" id="Stroke-71" stroke="#D1D1D1" mask="url(#mask-2)"></line>
                            <line x1="1041.5" y1="-12" x2="1041.5" y2="1192" id="Stroke-72" stroke="#D1D1D1" mask="url(#mask-2)"></line>
                            <line x1="1029.5" y1="-12" x2="1029.5" y2="1192" id="Stroke-73" stroke="#D1D1D1" mask="url(#mask-2)"></line>
                            <line x1="1017.5" y1="-12" x2="1017.5" y2="1192" id="Stroke-74" stroke="#D1D1D1" mask="url(#mask-2)"></line>
                            <line x1="1005.5" y1="-12" x2="1005.5" y2="1192" id="Stroke-75" stroke="#D1D1D1" mask="url(#mask-2)"></line>
                            <line x1="993.5" y1="-12" x2="993.5" y2="1192" id="Stroke-76" stroke="#D1D1D1" mask="url(#mask-2)"></line>
                            <line x1="981.5" y1="-12" x2="981.5" y2="1192" id="Stroke-77" stroke="#D1D1D1" mask="url(#mask-2)"></line>
                            <line x1="969.5" y1="-12" x2="969.5" y2="1192" id="Stroke-78" stroke="#D1D1D1" mask="url(#mask-2)"></line>
                            <line x1="957.5" y1="-12" x2="957.5" y2="1192" id="Stroke-79" stroke="#D1D1D1" mask="url(#mask-2)"></line>
                            <line x1="945.5" y1="-12" x2="945.5" y2="1192" id="Stroke-80" stroke="#D1D1D1" mask="url(#mask-2)"></line>
                            <line x1="932.5" y1="-12" x2="932.5" y2="1192" id="Stroke-81" stroke="#D1D1D1" mask="url(#mask-2)"></line>
                            <line x1="920.5" y1="-12" x2="920.5" y2="1192" id="Stroke-82" stroke="#D1D1D1" mask="url(#mask-2)"></line>
                            <line x1="908.5" y1="-12" x2="908.5" y2="1192" id="Stroke-83" stroke="#D1D1D1" mask="url(#mask-2)"></line>
                            <line x1="896.5" y1="-12" x2="896.5" y2="1192" id="Stroke-84" stroke="#D1D1D1" mask="url(#mask-2)"></line>
                            <line x1="884.5" y1="-12" x2="884.5" y2="1192" id="Stroke-85" stroke="#D1D1D1" mask="url(#mask-2)"></line>
                            <line x1="872.5" y1="-12" x2="872.5" y2="1192" id="Stroke-86" stroke="#D1D1D1" mask="url(#mask-2)"></line>
                            <line x1="860.5" y1="-12" x2="860.5" y2="1192" id="Stroke-87" stroke="#D1D1D1" mask="url(#mask-2)"></line>
                            <line x1="848.5" y1="-12" x2="848.5" y2="1192" id="Stroke-88" stroke="#D1D1D1" mask="url(#mask-2)"></line>
                            <line x1="836.5" y1="-12" x2="836.5" y2="1192" id="Stroke-89" stroke="#D1D1D1" mask="url(#mask-2)"></line>
                            <line x1="824.5" y1="-12" x2="824.5" y2="1192" id="Stroke-90" stroke="#D1D1D1" mask="url(#mask-2)"></line>
                            <line x1="812.5" y1="-12" x2="812.5" y2="1192" id="Stroke-91" stroke="#D1D1D1" mask="url(#mask-2)"></line>
                            <line x1="800.5" y1="-12" x2="800.5" y2="1192" id="Stroke-92" stroke="#D1D1D1" mask="url(#mask-2)"></line>
                            <line x1="788.5" y1="-12" x2="788.5" y2="1192" id="Stroke-93" stroke="#D1D1D1" mask="url(#mask-2)"></line>
                            <line x1="776.5" y1="-12" x2="776.5" y2="1192" id="Stroke-94" stroke="#D1D1D1" mask="url(#mask-2)"></line>
                            <line x1="764.5" y1="-12" x2="764.5" y2="1192" id="Stroke-95" stroke="#D1D1D1" mask="url(#mask-2)"></line>
                            <line x1="752.5" y1="-12" x2="752.5" y2="1192" id="Stroke-96" stroke="#D1D1D1" mask="url(#mask-2)"></line>
                            <line x1="740.5" y1="-12" x2="740.5" y2="1192" id="Stroke-97" stroke="#D1D1D1" mask="url(#mask-2)"></line>
                            <line x1="728.5" y1="-12" x2="728.5" y2="1192" id="Stroke-98" stroke="#D1D1D1" mask="url(#mask-2)"></line>
                            <line x1="716.5" y1="-12" x2="716.5" y2="1192" id="Stroke-99" stroke="#D1D1D1" mask="url(#mask-2)"></line>
                            <line x1="704.5" y1="-12" x2="704.5" y2="1192" id="Stroke-100" stroke="#D1D1D1" mask="url(#mask-2)"></line>
                            <line x1="692.5" y1="-12" x2="692.5" y2="1192" id="Stroke-101" stroke="#D1D1D1" mask="url(#mask-2)"></line>
                            <line x1="680.5" y1="-12" x2="680.5" y2="1192" id="Stroke-102" stroke="#D1D1D1" mask="url(#mask-2)"></line>
                            <line x1="668.5" y1="-12" x2="668.5" y2="1192" id="Stroke-103" stroke="#D1D1D1" mask="url(#mask-2)"></line>
                            <line x1="656.5" y1="-12" x2="656.5" y2="1192" id="Stroke-104" stroke="#D1D1D1" mask="url(#mask-2)"></line>
                            <line x1="644.5" y1="-12" x2="644.5" y2="1192" id="Stroke-105" stroke="#D1D1D1" mask="url(#mask-2)"></line>
                            <line x1="632.5" y1="-12" x2="632.5" y2="1192" id="Stroke-106" stroke="#D1D1D1" mask="url(#mask-2)"></line>
                            <line x1="619.5" y1="-12" x2="619.5" y2="1192" id="Stroke-107" stroke="#D1D1D1" mask="url(#mask-2)"></line>
                            <line x1="607.5" y1="-12" x2="607.5" y2="1192" id="Stroke-108" stroke="#D1D1D1" mask="url(#mask-2)"></line>
                            <line x1="595.5" y1="-12" x2="595.5" y2="1192" id="Stroke-109" stroke="#D1D1D1" mask="url(#mask-2)"></line>
                            <line x1="583.5" y1="-12" x2="583.5" y2="1192" id="Stroke-110" stroke="#D1D1D1" mask="url(#mask-2)"></line>
                            <line x1="571.5" y1="-12" x2="571.5" y2="1192" id="Stroke-111" stroke="#D1D1D1" mask="url(#mask-2)"></line>
                            <line x1="559.5" y1="-12" x2="559.5" y2="1192" id="Stroke-112" stroke="#D1D1D1" mask="url(#mask-2)"></line>
                            <line x1="547.5" y1="-12" x2="547.5" y2="1192" id="Stroke-113" stroke="#D1D1D1" mask="url(#mask-2)"></line>
                            <line x1="535.5" y1="-12" x2="535.5" y2="1192" id="Stroke-114" stroke="#D1D1D1" mask="url(#mask-2)"></line>
                            <line x1="523.5" y1="-12" x2="523.5" y2="1192" id="Stroke-115" stroke="#D1D1D1" mask="url(#mask-2)"></line>
                            <line x1="511.5" y1="-12" x2="511.5" y2="1192" id="Stroke-116" stroke="#D1D1D1" mask="url(#mask-2)"></line>
                            <line x1="499.5" y1="-12" x2="499.5" y2="1192" id="Stroke-117" stroke="#D1D1D1" mask="url(#mask-2)"></line>
                            <line x1="487.5" y1="-12" x2="487.5" y2="1192" id="Stroke-118" stroke="#D1D1D1" mask="url(#mask-2)"></line>
                            <line x1="475.5" y1="-12" x2="475.5" y2="1192" id="Stroke-119" stroke="#D1D1D1" mask="url(#mask-2)"></line>
                            <line x1="463.5" y1="-12" x2="463.5" y2="1192" id="Stroke-120" stroke="#D1D1D1" mask="url(#mask-2)"></line>
                            <line x1="451.5" y1="-12" x2="451.5" y2="1192" id="Stroke-121" stroke="#D1D1D1" mask="url(#mask-2)"></line>
                            <line x1="439.5" y1="-12" x2="439.5" y2="1192" id="Stroke-122" stroke="#D1D1D1" mask="url(#mask-2)"></line>
                            <line x1="427.5" y1="-12" x2="427.5" y2="1192" id="Stroke-123" stroke="#D1D1D1" mask="url(#mask-2)"></line>
                            <line x1="415.5" y1="-12" x2="415.5" y2="1192" id="Stroke-124" stroke="#D1D1D1" mask="url(#mask-2)"></line>
                            <line x1="403.5" y1="-12" x2="403.5" y2="1192" id="Stroke-125" stroke="#D1D1D1" mask="url(#mask-2)"></line>
                            <line x1="391.5" y1="-12" x2="391.5" y2="1192" id="Stroke-126" stroke="#D1D1D1" mask="url(#mask-2)"></line>
                            <line x1="379.5" y1="-12" x2="379.5" y2="1192" id="Stroke-127" stroke="#D1D1D1" mask="url(#mask-2)"></line>
                            <line x1="367.5" y1="-12" x2="367.5" y2="1192" id="Stroke-128" stroke="#D1D1D1" mask="url(#mask-2)"></line>
                            <line x1="355.5" y1="-12" x2="355.5" y2="1192" id="Stroke-129" stroke="#D1D1D1" mask="url(#mask-2)"></line>
                            <line x1="343.5" y1="-12" x2="343.5" y2="1192" id="Stroke-130" stroke="#D1D1D1" mask="url(#mask-2)"></line>
                            <line x1="331.5" y1="-12" x2="331.5" y2="1192" id="Stroke-131" stroke="#D1D1D1" mask="url(#mask-2)"></line>
                            <line x1="318.5" y1="-12" x2="318.5" y2="1192" id="Stroke-132" stroke="#D1D1D1" mask="url(#mask-2)"></line>
                            <line x1="306.5" y1="-12" x2="306.5" y2="1192" id="Stroke-133" stroke="#D1D1D1" mask="url(#mask-2)"></line>
                            <line x1="294.5" y1="-12" x2="294.5" y2="1192" id="Stroke-134" stroke="#D1D1D1" mask="url(#mask-2)"></line>
                            <line x1="282.5" y1="-12" x2="282.5" y2="1192" id="Stroke-135" stroke="#D1D1D1" mask="url(#mask-2)"></line>
                            <line x1="270.5" y1="-12" x2="270.5" y2="1192" id="Stroke-136" stroke="#D1D1D1" mask="url(#mask-2)"></line>
                            <line x1="258.5" y1="-12" x2="258.5" y2="1192" id="Stroke-137" stroke="#D1D1D1" mask="url(#mask-2)"></line>
                            <line x1="246.5" y1="-12" x2="246.5" y2="1192" id="Stroke-138" stroke="#D1D1D1" mask="url(#mask-2)"></line>
                            <line x1="234.5" y1="-12" x2="234.5" y2="1192" id="Stroke-139" stroke="#D1D1D1" mask="url(#mask-2)"></line>
                            <line x1="222.5" y1="-12" x2="222.5" y2="1192" id="Stroke-140" stroke="#D1D1D1" mask="url(#mask-2)"></line>
                            <line x1="210.5" y1="-12" x2="210.5" y2="1192" id="Stroke-141" stroke="#D1D1D1" mask="url(#mask-2)"></line>
                            <line x1="198.5" y1="-12" x2="198.5" y2="1192" id="Stroke-142" stroke="#D1D1D1" mask="url(#mask-2)"></line>
                            <line x1="186.5" y1="-12" x2="186.5" y2="1192" id="Stroke-143" stroke="#D1D1D1" mask="url(#mask-2)"></line>
                            <line x1="174.5" y1="-12" x2="174.5" y2="1192" id="Stroke-144" stroke="#D1D1D1" mask="url(#mask-2)"></line>
                            <line x1="162.5" y1="-12" x2="162.5" y2="1192" id="Stroke-145" stroke="#D1D1D1" mask="url(#mask-2)"></line>
                            <line x1="150.5" y1="-12" x2="150.5" y2="1192" id="Stroke-146" stroke="#D1D1D1" mask="url(#mask-2)"></line>
                            <line x1="138.5" y1="-12" x2="138.5" y2="1192" id="Stroke-147" stroke="#D1D1D1" mask="url(#mask-2)"></line>
                            <line x1="126.5" y1="-12" x2="126.5" y2="1192" id="Stroke-148" stroke="#D1D1D1" mask="url(#mask-2)"></line>
                            <line x1="114.5" y1="-12" x2="114.5" y2="1192" id="Stroke-149" stroke="#D1D1D1" mask="url(#mask-2)"></line>
                            <line x1="102.5" y1="-12" x2="102.5" y2="1192" id="Stroke-150" stroke="#D1D1D1" mask="url(#mask-2)"></line>
                            <line x1="90.5" y1="-12" x2="90.5" y2="1192" id="Stroke-151" stroke="#D1D1D1" mask="url(#mask-2)"></line>
                            <line x1="78.5" y1="-12" x2="78.5" y2="1192" id="Stroke-152" stroke="#D1D1D1" mask="url(#mask-2)"></line>
                            <line x1="66.5" y1="-12" x2="66.5" y2="1192" id="Stroke-153" stroke="#D1D1D1" mask="url(#mask-2)"></line>
                            <line x1="54.5" y1="-12" x2="54.5" y2="1192" id="Stroke-154" stroke="#D1D1D1" mask="url(#mask-2)"></line>
                            <line x1="42.5" y1="-12" x2="42.5" y2="1192" id="Stroke-155" stroke="#D1D1D1" mask="url(#mask-2)"></line>
                            <line x1="30.5" y1="-12" x2="30.5" y2="1192" id="Stroke-156" stroke="#D1D1D1" mask="url(#mask-2)"></line>
                            <line x1="18.5" y1="-12" x2="18.5" y2="1192" id="Stroke-157" stroke="#D1D1D1" mask="url(#mask-2)"></line>
                            <line x1="5.5" y1="-12" x2="5.5" y2="1192" id="Stroke-158" stroke="#D1D1D1" mask="url(#mask-2)"></line>
                        </g>
                    </g>
                    <polygon id="Fill-3" stroke="#292929" stroke-width="2" fill="#50D38E" points="31 0 31 93 47.9852686 77.1770086 329 77.1770086 329 0"></polygon>
                    <path d="M114.516,36.08 L114.516,31.976 L137.484,31.976 L137.484,36.08 L141.696,36.08 L141.696,28.196 L136.44,28.196 C137.448,26.9 138.528,25.496 139.5,24.092 L135.036,22.76 C134.316,24.38 133.092,26.504 131.94,28.196 L127.26,28.196 L129.384,27.368 C128.916,25.928 127.728,23.732 126.54,22.184 L122.76,23.588 C123.66,24.992 124.596,26.756 125.1,28.196 L119.052,28.196 L120.42,27.548 C119.808,26.18 118.368,24.236 117.108,22.832 L113.472,24.452 C114.336,25.568 115.344,26.972 115.992,28.196 L110.484,28.196 L110.484,36.08 L114.516,36.08 Z M125.892,55.268 C127.584,54.656 128.124,53.576 128.124,51.344 L128.124,46.736 L142.092,46.736 L142.092,42.776 L128.124,42.776 L128.124,42.092 C131.184,40.616 134.1,38.672 136.296,36.656 L133.56,34.532 L132.696,34.748 L116.46,34.748 L116.46,38.456 L127.8,38.456 C126.504,39.248 125.1,40.004 123.732,40.544 L123.732,42.776 L110.016,42.776 L110.016,46.736 L123.732,46.736 L123.732,51.236 C123.732,51.704 123.552,51.884 122.796,51.884 C122.076,51.92 119.412,51.92 117.108,51.812 C117.756,52.928 118.584,54.728 118.872,55.952 C121.932,55.952 124.2,55.916 125.892,55.268 Z M173.88,33.992 L173.88,23.948 L150.48,23.948 L150.48,33.992 L173.88,33.992 Z M169.092,30.356 L154.98,30.356 L154.98,27.584 L169.092,27.584 L169.092,30.356 Z M153.432,49.472 L153.432,40.22 L170.82,40.22 L170.82,49.004 L175.5,49.004 L175.5,36.296 L148.968,36.296 L148.968,49.472 L153.432,49.472 Z M148.968,56.456 C161.964,53.504 164.124,48.932 164.124,45.116 L164.124,41.912 L159.444,41.912 L159.444,45.008 L159.44212,45.1777144 C159.387673,47.5734624 158.076837,50.783907 146.016,52.964 C147.096,53.864 148.428,55.52 148.968,56.456 Z M175.968,56.384 L178.164,52.748 C175.14,51.38 169.236,49.328 165.384,48.212 L163.296,51.38 C167.4,52.712 173.16,54.98 175.968,56.384 Z M189.792,56.096 L189.792,31.436 C191.124,29.024 192.312,26.468 193.248,23.948 L189.072,22.652 C187.272,27.764 184.14,32.876 180.864,36.116 C181.62,37.196 182.844,39.644 183.24,40.688 C183.96,39.896 184.716,38.996 185.472,38.096 L185.472,56.096 L189.792,56.096 Z M204.66,56.132 L204.66,48.14 L214.452,48.14 L214.452,44.18 L204.66,44.18 L204.66,40.112 L213.984,40.112 L213.984,36.224 L204.66,36.224 L204.66,32.444 L214.884,32.444 L214.884,28.376 L200.916,28.376 C201.6,26.9 202.176,25.424 202.68,23.912 L198.54,22.868 C196.92,28.016 194.076,33.2 190.908,36.44 C191.808,37.124 193.5,38.636 194.184,39.428 C195.804,37.556 197.46,35.108 198.9,32.444 L200.268,32.444 L200.268,56.132 L204.66,56.132 Z M250.128,54.476 L250.128,50.192 L240.804,50.192 L240.804,43.424 L244.08,45.08 C245.952,41.624 248.22,36.548 249.804,32.012 L245.952,30.176 C244.764,34.28 242.604,39.392 240.804,42.812 L240.804,22.976 L236.376,22.976 L236.376,50.192 L231.66,50.192 L231.66,22.976 L227.232,22.976 L227.232,50.192 L217.944,50.192 L217.944,54.476 L250.128,54.476 Z M222.696,44.864 L226.98,43.352 C226.08,39.932 223.992,34.28 222.3,30.068 L218.376,31.22 C220.032,35.648 221.904,41.408 222.696,44.864 Z" id="学员作业" fill="#FFFFFF" fill-rule="nonzero"></path>
                </g>
                <rect id="矩形" stroke="#333333" stroke-width="2" fill="#D8EFE4" x="312" y="94" width="843" height="509"></rect>
                <polyline id="路径-13" stroke="#000000" stroke-width="2" points="1156 39 1186 39 1186 69"></polyline>
            </g>
        </g>
    </g>
</svg>