<svg width="140" height="140" viewBox="0 0 140 140" fill="none" xmlns="http://www.w3.org/2000/svg">
<path d="M67.4195 7H23.5079V132.323H67.4195V7Z" stroke="#2C3330" stroke-width="2" stroke-miterlimit="10" stroke-linejoin="round"/>
<path d="M55.9316 69.6579H67.4194" stroke="#2C3330" stroke-width="2" stroke-miterlimit="10" stroke-linejoin="round"/>
<path d="M55.9316 38.329H67.4194" stroke="#2C3330" stroke-width="2" stroke-miterlimit="10" stroke-linejoin="round"/>
<path d="M61.7356 14.8359H67.4195" stroke="#2C3330" stroke-width="2" stroke-miterlimit="10" stroke-linejoin="round"/>
<path d="M61.7356 22.6645H67.4195" stroke="#2C3330" stroke-width="2" stroke-miterlimit="10" stroke-linejoin="round"/>
<path d="M61.7356 30.5005H67.4195" stroke="#2C3330" stroke-width="2" stroke-miterlimit="10" stroke-linejoin="round"/>
<path d="M61.7356 46.165H67.4195" stroke="#2C3330" stroke-width="2" stroke-miterlimit="10" stroke-linejoin="round"/>
<path d="M61.7356 53.9935H67.4195" stroke="#2C3330" stroke-width="2" stroke-miterlimit="10" stroke-linejoin="round"/>
<path d="M61.7356 61.8294H67.4195" stroke="#2C3330" stroke-width="2" stroke-miterlimit="10" stroke-linejoin="round"/>
<path d="M61.7356 77.494H67.4195" stroke="#2C3330" stroke-width="2" stroke-miterlimit="10" stroke-linejoin="round"/>
<path d="M61.7356 85.3224H67.4195" stroke="#2C3330" stroke-width="2" stroke-miterlimit="10" stroke-linejoin="round"/>
<path d="M61.7356 93.1584H67.4195" stroke="#2C3330" stroke-width="2" stroke-miterlimit="10" stroke-linejoin="round"/>
<path d="M61.7356 108.823H67.4195" stroke="#2C3330" stroke-width="2" stroke-miterlimit="10" stroke-linejoin="round"/>
<path d="M61.7356 116.659H67.4195" stroke="#2C3330" stroke-width="2" stroke-miterlimit="10" stroke-linejoin="round"/>
<path d="M61.7356 124.487H67.4195" stroke="#2C3330" stroke-width="2" stroke-miterlimit="10" stroke-linejoin="round"/>
<path d="M55.9316 100.994H67.4194" stroke="#2C3330" stroke-width="2" stroke-miterlimit="10" stroke-linejoin="round"/>
<path d="M116.43 36.0569H96.1615V132.316H116.43V36.0569Z" stroke="#2C3330" stroke-width="2" stroke-miterlimit="10" stroke-linejoin="round"/>
<path d="M96.1615 116.659H116.423" stroke="#2C3330" stroke-width="2" stroke-miterlimit="10" stroke-linejoin="round"/>
<path d="M96.1615 36.0569L106.292 7L116.423 36.0569H96.1615Z" stroke="#2C3330" stroke-width="2" stroke-miterlimit="10" stroke-linejoin="round"/>
<path d="M103.473 15.0909H109.111L106.292 7L103.473 15.0909Z" fill="#2C3330"/>
</svg>
