<svg width="24" height="24" viewBox="0 0 24 24" fill="none" xmlns="http://www.w3.org/2000/svg">
<path d="M19.2258 3H14.5258C14.2258 3 13.8258 3.2 13.7258 3.5L12.5258 6C14.4258 6.2 16.0258 6.9 17.4258 8.1L19.6258 3.6C19.7258 3.3 19.5258 3 19.2258 3Z" fill="#14AF64"/>
<path d="M11.126 6L9.92601 3.5C9.82601 3.2 9.42601 3 9.12601 3H4.42601C4.12601 3 3.92601 3.3 4.02601 3.6L6.22601 8.1C7.52601 6.9 9.22601 6.1 11.126 6Z" fill="#14AF64"/>
<path d="M11.8259 7C7.72593 7 4.32593 10.3 4.32593 14.5C4.32593 18.6 7.72593 22 11.8259 22C15.9259 22 19.3259 18.6 19.3259 14.5C19.3259 10.3 15.9259 7 11.8259 7ZM15.6259 13.8L14.2259 15.2L14.5259 17.2C14.6259 17.9 14.2259 18.2 13.6259 17.8L11.8259 16.8L10.0259 17.8C9.42593 18.1 9.02593 17.9 9.12593 17.2L9.42593 15.2L8.02593 13.8C7.52593 13.3 7.72593 12.8 8.32593 12.8L10.3259 12.5L11.2259 10.6C11.5259 10 12.0259 10 12.3259 10.6L13.2259 12.5L15.2259 12.8C15.9259 12.8 16.1259 13.4 15.6259 13.8Z" fill="#14AF64"/>
</svg>
