<svg width="100" height="54" viewBox="0 0 100 54" fill="none" xmlns="http://www.w3.org/2000/svg">
<path d="M3.54663 38.4751V17.2206H9.53063C10.704 17.2206 11.7706 17.3286 12.7306 17.5446C13.712 17.7606 14.544 18.117 15.2266 18.6138C15.9093 19.089 16.4426 19.7262 16.8266 20.5254C17.2106 21.3246 17.4026 22.3075 17.4026 23.4739C17.4026 24.5971 17.2106 25.569 16.8266 26.3898C16.464 27.2107 15.9413 27.891 15.2586 28.4311C14.576 28.971 13.7546 29.3815 12.7946 29.6623C11.856 29.9215 10.8106 30.0511 9.65863 30.0511H6.20263V38.4751H3.54663ZM6.20263 27.8479H9.33863C11.1733 27.8479 12.528 27.5023 13.4026 26.8111C14.2986 26.0983 14.7466 24.9859 14.7466 23.4739C14.7466 21.9402 14.2773 20.8818 13.3386 20.2986C12.4213 19.6938 11.0453 19.3914 9.21063 19.3914H6.20263V27.8479Z" fill="#2C3330"/>
<path d="M24.1996 38.8638C23.197 38.8638 22.4823 38.5614 22.0556 37.9566C21.629 37.3518 21.4156 36.4663 21.4156 35.2999V15.4062H24.0396V35.4943C24.0396 35.9263 24.1143 36.2287 24.2636 36.4015C24.413 36.5743 24.5836 36.6607 24.7756 36.6607C24.861 36.6607 24.9356 36.6607 24.9996 36.6607C25.085 36.6607 25.2023 36.6391 25.3516 36.5958L25.7036 38.6047C25.533 38.6911 25.3303 38.7558 25.0956 38.799C24.861 38.8422 24.5623 38.8638 24.1996 38.8638Z" fill="#2C3330"/>
<path d="M33.1559 38.8638C31.8545 38.8638 30.7665 38.4751 29.8919 37.6975C29.0385 36.9199 28.6119 35.8183 28.6119 34.3927C28.6119 32.6646 29.3692 31.3471 30.8839 30.4399C32.3985 29.5111 34.8199 28.8631 38.1479 28.4959C38.1479 27.9991 38.0945 27.5131 37.9879 27.0379C37.9025 26.5626 37.7425 26.1414 37.5079 25.7742C37.2732 25.407 36.9425 25.1154 36.5159 24.8994C36.1105 24.6618 35.5879 24.5431 34.9479 24.5431C34.0519 24.5431 33.2092 24.7158 32.4199 25.0614C31.6305 25.407 30.9265 25.7958 30.3079 26.2278L29.2839 24.3811C30.0092 23.9059 30.8945 23.4522 31.9399 23.0202C32.9852 22.5666 34.1372 22.3398 35.3959 22.3398C37.2945 22.3398 38.6705 22.9339 39.5239 24.1219C40.3772 25.2882 40.8039 26.8542 40.8039 28.8198V38.4751H38.6279L38.4039 36.5958H38.3079C37.5612 37.2222 36.7612 37.7623 35.9079 38.2159C35.0545 38.6479 34.1372 38.8638 33.1559 38.8638ZM33.9239 36.7255C34.6705 36.7255 35.3745 36.5527 36.0359 36.2071C36.6972 35.8398 37.4012 35.3106 38.1479 34.6194V30.2455C36.8465 30.4183 35.7479 30.6235 34.8519 30.8611C33.9772 31.0987 33.2625 31.3794 32.7079 31.7034C32.1745 32.0275 31.7799 32.4055 31.5239 32.8375C31.2892 33.2479 31.1719 33.7015 31.1719 34.1983C31.1719 35.1055 31.4385 35.7535 31.9719 36.1423C32.5052 36.531 33.1559 36.7255 33.9239 36.7255Z" fill="#2C3330"/>
<path d="M45.6969 38.4751V22.7286H47.8729L48.0969 24.9967H48.1929C48.9395 24.2407 49.7182 23.6142 50.5289 23.1174C51.3609 22.599 52.3209 22.3398 53.4089 22.3398C55.0515 22.3398 56.2462 22.8583 56.9929 23.8951C57.7609 24.9319 58.1449 26.4655 58.1449 28.4959V38.4751H55.5209V28.8523C55.5209 27.3618 55.2862 26.2926 54.8169 25.6446C54.3475 24.975 53.6009 24.6403 52.5769 24.6403C51.7662 24.6403 51.0515 24.8454 50.4329 25.2558C49.8142 25.6662 49.1102 26.271 48.3209 27.0702V38.4751H45.6969Z" fill="#2C3330"/>
<path d="M71.7089 38.8638C70.3222 38.8638 69.0422 38.6155 67.8689 38.1187C66.7169 37.6219 65.7249 36.9091 64.8929 35.9803C64.0609 35.0299 63.4102 33.8743 62.9409 32.5135C62.4715 31.1311 62.2369 29.5759 62.2369 27.8479C62.2369 26.1415 62.4715 24.6079 62.9409 23.247C63.4315 21.8862 64.1035 20.7306 64.9569 19.7802C65.8102 18.8298 66.8235 18.1062 67.9969 17.6094C69.1915 17.091 70.4822 16.8318 71.8689 16.8318C72.5942 16.8318 73.2555 16.9074 73.8529 17.0587C74.4715 17.2098 75.0262 17.415 75.5169 17.6742C76.0289 17.9118 76.4769 18.1926 76.8609 18.5166C77.2662 18.819 77.6182 19.1322 77.9169 19.4563L76.4449 21.2058C75.9115 20.6442 75.2929 20.169 74.5889 19.7802C73.8849 19.3914 72.9995 19.197 71.9329 19.197C70.8662 19.197 69.9062 19.4022 69.0529 19.8126C68.1995 20.2014 67.4742 20.7738 66.8769 21.5299C66.2795 22.2642 65.8102 23.1607 65.4689 24.2191C65.1489 25.2774 64.9889 26.4655 64.9889 27.7831C64.9889 29.1223 65.1382 30.3319 65.4369 31.4118C65.7569 32.4702 66.2049 33.3775 66.7809 34.1335C67.3782 34.8895 68.1035 35.4727 68.9569 35.8831C69.8315 36.2935 70.8342 36.4986 71.9649 36.4986C72.7115 36.4986 73.4156 36.3906 74.0769 36.1747C74.7595 35.937 75.3142 35.6239 75.7409 35.2351V29.6946H71.2929V27.4591H78.1729V36.4015C77.4902 37.1143 76.5942 37.7083 75.4849 38.1835C74.3755 38.6371 73.1169 38.8638 71.7089 38.8638Z" fill="#2C3330"/>
<path d="M88.9949 38.8638C88.0349 38.8638 87.1175 38.6802 86.2429 38.313C85.3895 37.9458 84.6322 37.4167 83.9709 36.7255C83.3095 36.0127 82.7762 35.1487 82.3709 34.1335C81.9869 33.0967 81.7949 31.9303 81.7949 30.6342C81.7949 29.3167 81.9869 28.1503 82.3709 27.135C82.7762 26.0982 83.3095 25.2234 83.9709 24.5106C84.6322 23.7978 85.3895 23.2579 86.2429 22.8906C87.1175 22.5234 88.0349 22.3398 88.9949 22.3398C89.9549 22.3398 90.8615 22.5234 91.7149 22.8906C92.5895 23.2579 93.3575 23.7978 94.0189 24.5106C94.6802 25.2234 95.2029 26.0982 95.5869 27.135C95.9922 28.1503 96.1949 29.3167 96.1949 30.6342C96.1949 31.9303 95.9922 33.0967 95.5869 34.1335C95.2029 35.1487 94.6802 36.0127 94.0189 36.7255C93.3575 37.4167 92.5895 37.9458 91.7149 38.313C90.8615 38.6802 89.9549 38.8638 88.9949 38.8638ZM88.9949 36.6607C89.6562 36.6607 90.2642 36.5203 90.8189 36.2395C91.3735 35.937 91.8429 35.5266 92.2269 35.0082C92.6322 34.4683 92.9415 33.831 93.1549 33.0966C93.3682 32.3622 93.4749 31.5415 93.4749 30.6342C93.4749 29.727 93.3682 28.9063 93.1549 28.1719C92.9415 27.4159 92.6322 26.7678 92.2269 26.2278C91.8429 25.6878 91.3735 25.2774 90.8189 24.9967C90.2642 24.6943 89.6562 24.5431 88.9949 24.5431C88.3335 24.5431 87.7255 24.6943 87.1709 24.9967C86.6162 25.2774 86.1362 25.6878 85.7309 26.2278C85.3469 26.7678 85.0482 27.4159 84.8349 28.1719C84.6215 28.9063 84.5149 29.727 84.5149 30.6342C84.5149 31.5415 84.6215 32.3622 84.8349 33.0966C85.0482 33.831 85.3469 34.4683 85.7309 35.0082C86.1362 35.5266 86.6162 35.937 87.1709 36.2395C87.7255 36.5203 88.3335 36.6607 88.9949 36.6607Z" fill="#2C3330"/>
</svg>
