<svg width="100" height="54" viewBox="0 0 100 54" fill="none" xmlns="http://www.w3.org/2000/svg">
<path fill-rule="evenodd" clip-rule="evenodd" d="M23.3333 5.75C22.781 5.75 22.3333 6.19772 22.3333 6.75V47.25C22.3333 47.8023 22.781 48.25 23.3333 48.25H76.6666C77.2189 48.25 77.6666 47.8023 77.6666 47.25V6.75C77.6666 6.19772 77.2189 5.75 76.6666 5.75H23.3333ZM24.3333 46.25V7.75H75.6666V46.25H24.3333ZM45.8927 18.0712C45.5862 17.8643 45.1905 17.8434 44.8639 18.017C44.5374 18.1906 44.3333 18.5302 44.3333 18.9V35.1C44.3333 35.4698 44.5374 35.8095 44.8639 35.983C45.1905 36.1566 45.5862 36.1358 45.8927 35.9289L57.8927 27.8289C58.1682 27.6429 58.3333 27.3323 58.3333 27C58.3333 26.6677 58.1682 26.3571 57.8927 26.1712L45.8927 18.0712ZM55.5459 27L46.3333 33.2185V20.7815L55.5459 27Z" fill="#2C3330"/>
</svg>
