<?xml version="1.0" encoding="UTF-8"?>
<svg width="114px" height="80px" viewBox="0 0 114 80" version="1.1" xmlns="http://www.w3.org/2000/svg" xmlns:xlink="http://www.w3.org/1999/xlink">
    <title>进入班级备份</title>
    <g id="页面-1" stroke="none" stroke-width="1" fill="none" fill-rule="evenodd">
        <g id="进入班级备份-2" transform="translate(-1436.000000, -1207.000000)">
            <rect fill="#FFFFFF" x="0" y="0" width="1920" height="2460"></rect>
            <rect id="矩形备份-9" fill="#FAFAFA" x="0" y="271" width="1920" height="2189"></rect>
            <rect id="矩形备份-10" fill="#FFFFFF" x="360" y="1196" width="1200" height="778"></rect>
            <g id="编组" transform="translate(1450.000000, 1212.000000)">
                <polygon id="Fill-1" fill="#F3DA81" points="61.2655 27.7693 85.7455 11.4553 83.6475 28.9033 61.9225 39.8323"></polygon>
                <polygon id="Stroke-2" stroke="#E6A841" points="61.2655 27.7693 85.7455 11.4553 83.6475 28.9033 61.9225 39.8323"></polygon>
                <polygon id="Fill-4" fill="#F3DA81" points="61.7879 37.3709 79.7619 30.7909 77.5539 46.1409 62.3249 47.2179"></polygon>
                <polygon id="Stroke-5" stroke="#E6A841" points="61.7879 37.3709 79.7619 30.7909 77.5539 46.1409 62.3249 47.2179"></polygon>
                <polygon id="Fill-6" fill="#F3DA81" points="54.8231 60.3421 61.8341 47.2531 74.0481 46.3881 72.5671 60.0861"></polygon>
                <polygon id="Stroke-7" stroke="#E6A841" points="54.8231 60.3421 61.8341 47.2531 74.0481 46.3881 72.5671 60.0861"></polygon>
                <g transform="translate(62.000000, 17.691300)">
                    <polyline id="Fill-8" fill="#F0E9AE" points="19.1776 8.0131 0.8136 16.9311 0.8156 13.3461 19.8016 0.3511"></polyline>
                    <polyline id="Stroke-9" stroke="#E6A841" points="19.1776 8.0131 0.8136 16.9311 0.8156 13.3461 19.8016 0.3511"></polyline>
                </g>
                <g transform="translate(56.000000, 35.691300)">
                    <polyline id="Fill-10" fill="#F0E9AE" points="18.9169 7.0668 0.8639 8.4638 0.8159 5.7808 19.4909 0.3058"></polyline>
                    <polyline id="Stroke-11" stroke="#E6A841" points="18.9169 7.0668 0.8639 8.4638 0.8159 5.7808 19.4909 0.3058"></polyline>
                </g>
                <g transform="translate(58.000000, 50.691300)">
                    <polyline id="Fill-12" fill="#F0E9AE" points="12.4481 0.2763 3.3851 0.9183 0.3521 6.8163 11.9831 6.2613"></polyline>
                    <polyline id="Stroke-13" stroke="#E6A841" points="12.4481 0.2763 3.3851 0.9183 0.3521 6.8163 11.9831 6.2613"></polyline>
                </g>
                <polygon id="Fill-14" fill="#F3DA81" points="2.7243 28.9034 24.4503 39.8334 25.1073 27.7694 0.6253 11.4554"></polygon>
                <polygon id="Stroke-15" stroke="#E6A841" points="25.1073 27.7693 0.6263 11.4553 2.7243 28.9033 24.4503 39.8323"></polygon>
                <polygon id="Fill-17" fill="#F3DA81" points="24.5838 37.3709 6.6108 30.7909 8.8188 46.1409 24.0478 47.2179"></polygon>
                <polygon id="Stroke-18" stroke="#E6A841" points="24.5838 37.3709 6.6108 30.7909 8.8188 46.1409 24.0478 47.2179"></polygon>
                <polygon id="Fill-19" fill="#F3DA81" points="31.5487 60.3421 24.5387 47.2531 12.3247 46.3881 13.8057 60.0861"></polygon>
                <polygon id="Stroke-20" stroke="#E6A841" points="31.5487 60.3421 24.5387 47.2531 12.3247 46.3881 13.8057 60.0861"></polygon>
                <g transform="translate(4.000000, 17.691300)">
                    <polyline id="Fill-21" fill="#F0E9AE" points="1.1942 8.0131 19.5582 16.9311 19.5572 13.3461 0.5702 0.3511"></polyline>
                    <polyline id="Stroke-22" stroke="#E6A841" points="1.1942 8.0131 19.5582 16.9311 19.5572 13.3461 0.5702 0.3511"></polyline>
                </g>
                <g transform="translate(10.000000, 35.691300)">
                    <polyline id="Fill-23" fill="#F0E9AE" points="1.4559 7.0668 19.5089 8.4638 19.5569 5.7808 0.8809 0.3058"></polyline>
                    <polyline id="Stroke-24" stroke="#E6A841" points="1.4559 7.0668 19.5089 8.4638 19.5569 5.7808 0.8809 0.3058"></polyline>
                </g>
                <g transform="translate(15.000000, 50.691300)">
                    <polyline id="Fill-25" fill="#F0E9AE" points="0.9237 0.2763 9.9877 0.9183 13.0197 6.8163 1.3897 6.2613"></polyline>
                    <polyline id="Stroke-26" stroke="#E6A841" points="0.9237 0.2763 9.9877 0.9183 13.0197 6.8163 1.3897 6.2613"></polyline>
                </g>
                <polygon id="Fill-27" fill="#F0E9AE" points="18.7659 27.8162 18.7659 56.0152 43.1869 70.1142 67.6059 56.0152 67.6059 27.8162 43.1869 13.7172"></polygon>
                <polygon id="Stroke-28" stroke="#F8C872" points="18.7655 27.8162 18.7655 56.0152 43.1865 70.1142 67.6065 56.0152 67.6065 27.8162 43.1865 13.7172"></polygon>
                <polygon id="Fill-30" fill="#FADE68" points="22.8153 30.1546 22.8153 53.6766 43.1863 65.4376 63.5563 53.6766 63.5563 30.1546 43.1863 18.3936"></polygon>
                <polygon id="Stroke-31" stroke="#EEDA7E" points="22.8153 30.1546 22.8153 53.6766 43.1863 65.4376 63.5563 53.6766 63.5563 30.1546 43.1863 18.3936"></polygon>
                <g transform="translate(25.000000, 0.691300)">
                    <path d="M10.7977,43.5326 L10.5407,42.5166 C10.2667,41.5056 9.9987,40.3776 9.7307,39.2476 C9.6387,38.8626 9.5467,38.4776 9.4547,38.0956 C9.1057,39.5986 8.7377,41.1476 8.3867,42.5186 L8.1297,43.5326 L10.7977,43.5326 Z M15.1717,52.5726 C13.9257,52.5726 12.8427,51.7276 12.5387,50.5186 L11.9367,48.1236 L6.9907,48.1236 L6.3897,50.5186 C6.0857,51.7276 5.0027,52.5726 3.7557,52.5726 C2.8837,52.5726 2.0877,52.1696 1.5697,51.4676 C1.0527,50.7646 0.9037,49.8846 1.1627,49.0516 L5.4557,35.2256 C6.0147,33.4256 7.6557,32.2156 9.5417,32.2156 C11.4267,32.2156 13.0687,33.4256 13.6287,35.2256 L17.9217,49.0516 C18.1807,49.8846 18.0317,50.7646 17.5147,51.4676 C16.9967,52.1696 16.2007,52.5726 15.3287,52.5726 L15.1717,52.5726 Z" id="Fill-32" fill="#E85983"></path>
                    <path d="M8.7723,43.0326 L8.8723,42.6396 C9.0643,41.8886 9.2613,41.0846 9.4583,40.2626 C9.6553,41.0836 9.8563,41.9016 10.0593,42.6556 L10.1553,43.0326 L8.7723,43.0326 Z M9.5423,31.7156 C7.4363,31.7156 5.6023,33.0666 4.9783,35.0776 L0.6853,48.9036 C0.3793,49.8896 0.5543,50.9316 1.1673,51.7636 C1.7803,52.5956 2.7233,53.0726 3.7563,53.0726 C5.2323,53.0726 6.5143,52.0726 6.8743,50.6406 L7.3813,48.6236 L11.5453,48.6236 L12.0533,50.6406 C12.4133,52.0726 13.6963,53.0726 15.1713,53.0726 L15.3293,53.0726 C16.3613,53.0726 17.3043,52.5956 17.9173,51.7636 C18.5303,50.9326 18.7063,49.8896 18.3993,48.9036 L14.1063,35.0776 C13.4823,33.0666 11.6473,31.7156 9.5423,31.7156 L9.5423,31.7156 Z M7.4873,44.0326 L11.4403,44.0326 L11.0253,42.3936 C10.5043,40.4686 10.0103,38.1526 9.4893,36.1756 L9.3853,36.1756 C8.9173,38.2046 8.3963,40.4686 7.9033,42.3936 L7.4873,44.0326 L7.4873,44.0326 Z M9.5423,32.7156 C11.1983,32.7156 12.6613,33.7936 13.1513,35.3746 L17.4443,49.1996 C17.8863,50.6256 16.8213,52.0726 15.3293,52.0726 L15.1713,52.0726 C14.1563,52.0726 13.2703,51.3816 13.0233,50.3966 L12.3263,47.6236 L6.6023,47.6236 L5.9053,50.3966 C5.6573,51.3816 4.7713,52.0726 3.7563,52.0726 C2.2623,52.0726 1.1983,50.6256 1.6403,49.1996 L5.9333,35.3746 C6.4243,33.7936 7.8873,32.7156 9.5423,32.7156 L9.5423,32.7156 Z" id="Fill-34" fill="#F0E9AE"></path>
                    <path d="M27.0106,52.5722 C25.4916,52.5722 24.2566,51.3362 24.2566,49.8182 L24.2566,44.9992 L19.7996,44.9992 C18.2816,44.9992 17.0456,43.7632 17.0456,42.2452 C17.0456,40.7262 18.2816,39.4912 19.7996,39.4912 L24.2566,39.4912 L24.2566,34.7092 C24.2566,33.1912 25.4916,31.9552 27.0106,31.9552 L27.1916,31.9552 C28.7106,31.9552 29.9466,33.1912 29.9466,34.7092 L29.9466,39.4912 L34.4386,39.4912 C35.9566,39.4912 37.1926,40.7262 37.1926,42.2452 C37.1926,43.7632 35.9566,44.9992 34.4386,44.9992 L29.9466,44.9992 L29.9466,49.8182 C29.9466,51.3362 28.7106,52.5722 27.1916,52.5722 L27.0106,52.5722 Z" id="Fill-36" fill="#E85983"></path>
                    <path d="M27.1913,31.455 L27.0103,31.455 C25.2163,31.455 23.7563,32.915 23.7563,34.709 L23.7563,38.991 L19.7993,38.991 C18.0043,38.991 16.5453,40.451 16.5453,42.246 C16.5453,44.039 18.0043,45.499 19.7993,45.499 L23.7563,45.499 L23.7563,49.818 C23.7563,51.612 25.2163,53.072 27.0103,53.072 L27.1913,53.072 C28.9853,53.072 30.4463,51.612 30.4463,49.818 L30.4463,45.499 L34.4383,45.499 C36.2323,45.499 37.6923,44.039 37.6923,42.246 C37.6923,40.451 36.2323,38.991 34.4383,38.991 L30.4463,38.991 L30.4463,34.709 C30.4463,32.915 28.9853,31.455 27.1913,31.455 M27.1913,32.455 C28.4363,32.455 29.4463,33.464 29.4463,34.709 L29.4463,39.991 L34.4383,39.991 C35.6823,39.991 36.6923,41 36.6923,42.246 C36.6923,43.49 35.6823,44.499 34.4383,44.499 L29.4463,44.499 L29.4463,49.818 C29.4463,51.063 28.4363,52.072 27.1913,52.072 L27.0103,52.072 C25.7663,52.072 24.7563,51.063 24.7563,49.818 L24.7563,44.499 L19.7993,44.499 C18.5543,44.499 17.5453,43.49 17.5453,42.246 C17.5453,41 18.5543,39.991 19.7993,39.991 L24.7563,39.991 L24.7563,34.709 C24.7563,33.464 25.7663,32.455 27.0103,32.455 L27.1913,32.455" id="Fill-38" fill="#F0E9AE"></path>
                    <polygon id="Fill-40" fill="#F0E9AE" points="6.2909 24.2357 2.3779 5.8737 12.0339 10.1647 18.3259 0.2427 24.6179 10.1647 34.2739 5.8737 30.3599 24.2357"></polygon>
                    <polygon id="Stroke-42" stroke="#F8C872" points="6.2909 24.2357 2.3779 5.8737 12.0339 10.1647 18.3259 0.2427 24.6179 10.1647 34.2739 5.8737 30.3599 24.2357"></polygon>
                    <path d="M7.8973,22.7514 C7.6613,22.7514 7.4583,22.5864 7.4083,22.3554 L4.6413,9.3724 C4.6023,9.1884 4.6693,8.9984 4.8163,8.8804 C4.9063,8.8064 5.0183,8.7684 5.1303,8.7684 C5.1993,8.7684 5.2683,8.7824 5.3343,8.8114 L12.6013,12.0424 L17.9043,3.6804 C17.9953,3.5354 18.1553,3.4474 18.3263,3.4474 C18.4973,3.4474 18.6573,3.5354 18.7483,3.6804 L24.0503,12.0424 L31.3183,8.8114 C31.3833,8.7824 31.4533,8.7684 31.5213,8.7684 C31.6333,8.7684 31.7463,8.8064 31.8353,8.8804 C31.9823,8.9984 32.0493,9.1884 32.0103,9.3724 L29.2443,22.3554 C29.1943,22.5864 28.9913,22.7514 28.7543,22.7514 L7.8973,22.7514 Z" id="Fill-44" fill="#E85983"></path>
                    <path d="M18.326,2.9477 C17.983,2.9477 17.665,3.1227 17.481,3.4127 L12.41,11.4097 L5.536,8.3547 C5.406,8.2977 5.268,8.2687 5.13,8.2687 C4.905,8.2687 4.682,8.3447 4.501,8.4917 C4.208,8.7287 4.073,9.1097 4.152,9.4767 L6.919,22.4597 C7.017,22.9217 7.425,23.2517 7.897,23.2517 L28.755,23.2517 C29.227,23.2517 29.635,22.9217 29.733,22.4597 L32.485,9.5457 C32.511,9.4577 32.524,9.3647 32.524,9.2687 C32.524,8.7167 32.079,8.2687 31.526,8.2687 L31.522,8.2687 C31.507,8.2687 31.492,8.2687 31.477,8.2697 C31.341,8.2757 31.212,8.3087 31.096,8.3637 L24.242,11.4097 L19.171,3.4127 C18.987,3.1227 18.669,2.9477 18.326,2.9477 M18.326,3.9477 L23.86,12.6747 L31.522,9.2687 L28.755,22.2517 L7.897,22.2517 L5.13,9.2687 L12.792,12.6747 L18.326,3.9477" id="Fill-46" fill="#F0E9AE"></path>
                </g>
            </g>
        </g>
    </g>
</svg>