<svg width="24" height="24" viewBox="0 0 24 24" fill="inherit" xmlns="http://www.w3.org/2000/svg">
<path fill-rule="evenodd" clip-rule="evenodd" d="M5 6C4.44772 6 4 6.44772 4 7V17C4 17.2652 4.10536 17.5196 4.29289 17.7071C4.48043 17.8946 4.73478 18 5 18H9.58579L11.2929 19.7071C11.4804 19.8946 11.7348 20 12 20C12.2652 20 12.5196 19.8946 12.7071 19.7071L14.4142 18H19C19.5523 18 20 17.5523 20 17V7C20 6.73478 19.8946 6.48043 19.7071 6.29289C19.5196 6.10536 19.2652 6 19 6H5ZM6 16L6 8H18L18 16H14C13.7348 16 13.4804 16.1054 13.2929 16.2929L12 17.5858L10.7071 16.2929C10.5196 16.1054 10.2652 16 10 16H6ZM8 13C8.55229 13 9 12.5523 9 12C9 11.4477 8.55229 11 8 11C7.44772 11 7 11.4477 7 12C7 12.5523 7.44772 13 8 13ZM13 12C13 12.5523 12.5523 13 12 13C11.4477 13 11 12.5523 11 12C11 11.4477 11.4477 11 12 11C12.5523 11 13 11.4477 13 12ZM16 13C16.5523 13 17 12.5523 17 12C17 11.4477 16.5523 11 16 11C15.4477 11 15 11.4477 15 12C15 12.5523 15.4477 13 16 13Z" fill="inherit"/>
</svg>
