<?xml version="1.0" encoding="UTF-8"?>
<svg width="16px" height="16px" viewBox="0 0 16 16" version="1.1" xmlns="http://www.w3.org/2000/svg" xmlns:xlink="http://www.w3.org/1999/xlink">
    <title>1icon</title>
    <defs>
        <path d="M7,0.333333333 C10.6818983,0.333333333 13.6666667,3.31810167 13.6666667,7 C13.6666667,10.6818983 10.6818983,13.6666667 7,13.6666667 C3.31810167,13.6666667 0.333333333,10.6818983 0.333333333,7 C0.333333333,3.31810167 3.31810167,0.333333333 7,0.333333333 Z M9.32825908,4.39559879 L5.9211657,7.8075601 L4.60473785,6.49113226 L3.66192881,7.4339413 L5.92183898,9.69385147 L10.2717409,5.33773454 L9.32825908,4.39559879 Z" id="path-1"></path>
    </defs>
    <g id="页面-1" stroke="none" stroke-width="1" fill="none" fill-rule="evenodd">
        <g id="弹框-全局提示" transform="translate(-60.000000, -47.000000)">
            <g id="成功" transform="translate(44.000000, 31.000000)">
                <g id="1icon" transform="translate(16.000000, 16.000000)">
                    <g id="check-circle" transform="translate(1.000000, 1.000000)">
                        <mask id="mask-2" fill="white">
                            <use xlink:href="#path-1"></use>
                        </mask>
                        <g id="01_PC/01_Basic/19_check-circle"></g>
                        <g id="02_PC/01_填充/01_常规/03_G4-Success" mask="url(#mask-2)" fill="#2DA641">
                            <g transform="translate(-1.000000, -1.000000)" id="矩形">
                                <rect x="0" y="0" width="16" height="16"></rect>
                            </g>
                        </g>
                    </g>
                    <rect id="01_PC/01_Basic/19_check-circle" fill="#000000" opacity="0" x="0" y="0" width="16" height="16"></rect>
                </g>
            </g>
        </g>
    </g>
</svg>